# RIFTBOUND | Z up | flat shaded
mtllib Stone_Sword.mtl
o Grip_0
usemtl leather
v -0.120000 0.000000 0.122855
v -0.084853 -0.084853 0.122855
v -0.000000 -0.120000 0.122855
v 0.084853 -0.084853 0.122855
v 0.120000 -0.000000 0.122855
v 0.084853 0.084853 0.122855
v 0.000000 0.120000 0.122855
v -0.084853 0.084853 0.122855
v -0.120000 0.000000 0.702855
v -0.084853 -0.084853 0.702855
v -0.000000 -0.120000 0.702855
v 0.084853 -0.084853 0.702855
v 0.120000 -0.000000 0.702855
v 0.084853 0.084853 0.702855
v 0.000000 0.120000 0.702855
v -0.084853 0.084853 0.702855
f 10 1 2
f 10 9 1
f 6 2 1
f 6 5 4
f 6 1 8
f 6 3 2
f 6 4 3
f 6 8 7
f 13 4 5
f 13 12 4
f 13 5 6
f 13 6 14
f 16 8 1
f 16 1 9
f 11 3 4
f 11 4 12
f 11 2 3
f 11 10 2
f 15 12 13
f 15 9 10
f 15 16 9
f 15 13 14
f 15 11 12
f 15 10 11
f 15 14 6
f 15 6 7
f 15 7 8
f 15 8 16
o Pommel_1
usemtl copper
v 0.102000 0.000000 0.024197
v 0.063596 0.060983 0.009877
v -0.022697 0.076044 0.000953
v -0.091899 0.033843 0.000000
v -0.091899 -0.033843 0.031073
v -0.022697 -0.076044 0.034953
v 0.063596 -0.060983 0.023014
v 0.170000 0.000000 0.112306
v 0.105993 0.101638 0.105057
v -0.037829 0.126741 0.120323
v -0.153165 0.056405 0.115674
v -0.153165 -0.056405 0.083962
v -0.037829 -0.126741 0.117294
v 0.105993 -0.101638 0.085165
v 0.122400 0.000000 0.216312
v 0.076315 0.073179 0.194706
v -0.027237 0.091253 0.221519
v -0.110279 0.040612 0.208972
v -0.110279 -0.040612 0.199544
v -0.027237 -0.091253 0.204340
v 0.076315 -0.073179 0.188960
v 0.008500 0.000000 0.252855
f 25 19 26
f 27 26 19
f 35 38 34
f 35 28 29
f 35 27 28
f 35 34 27
f 33 34 38
f 33 26 27
f 33 27 34
f 33 25 26
f 33 32 25
f 18 25 24
f 18 19 25
f 18 23 19
f 31 38 37
f 31 24 25
f 31 25 32
f 31 33 38
f 31 32 33
f 30 24 31
f 30 31 37
f 30 37 29
f 20 19 23
f 20 28 27
f 20 27 19
f 22 29 28
f 22 20 23
f 22 30 29
f 22 23 30
f 36 29 37
f 36 35 29
f 36 37 38
f 36 38 35
f 17 18 24
f 17 23 18
f 17 24 30
f 17 30 23
f 21 28 20
f 21 22 28
f 21 20 22
o Guard_2
usemtl copper
v -0.400000 -0.115000 0.707855
v -0.400000 -0.115000 0.837855
v -0.400000 0.115000 0.707855
v -0.400000 0.115000 0.837855
v 0.400000 -0.115000 0.707855
v 0.400000 -0.115000 0.837855
v 0.400000 0.115000 0.707855
v 0.400000 0.115000 0.837855
f 45 39 41
f 45 43 39
f 44 39 43
f 44 40 39
f 44 43 45
f 44 45 46
f 42 41 39
f 42 39 40
f 42 45 41
f 42 46 45
f 42 40 44
f 42 44 46
o Blade_3
usemtl edge
v -0.200000 -0.065000 0.852855
v -0.200000 0.065000 0.852855
v 0.200000 -0.065000 0.852855
v 0.200000 0.065000 0.852855
v 0.240000 -0.065000 2.072855
v 0.240000 0.065000 2.072855
v 0.000000 -0.065000 2.572855
v 0.000000 0.065000 2.572855
v -0.240000 -0.065000 2.072855
v -0.240000 0.065000 2.072855
f 53 55 47
f 53 49 51
f 53 47 49
f 56 47 55
f 56 48 47
f 56 55 53
f 56 53 54
f 52 53 51
f 52 54 53
f 50 48 56
f 50 56 54
f 50 54 52
f 50 49 47
f 50 47 48
f 50 51 49
f 50 52 51
o BladeInset_4
usemtl stone
v -0.050000 -0.071000 0.922855
v -0.050000 0.071000 0.922855
v 0.050000 -0.071000 0.922855
v 0.050000 0.071000 0.922855
v 0.050000 -0.071000 2.062855
v 0.050000 0.071000 2.062855
v 0.000000 -0.071000 2.292855
v 0.000000 0.071000 2.292855
v -0.050000 -0.071000 2.062855
v -0.050000 0.071000 2.062855
f 60 59 57
f 60 57 58
f 61 65 57
f 61 57 59
f 61 63 65
f 61 59 60
f 61 60 62
f 66 57 65
f 66 58 57
f 64 60 58
f 64 62 60
f 64 58 66
f 64 63 61
f 64 61 62
f 64 65 63
f 64 66 65