{"asset":{"version":"2.0","generator":"RIFTBOUND procedural asset builder"},"scene":0,"scenes":[{"nodes":[0,1,2,3,4]}],"nodes":[{"name":"Grip_0","mesh":0,"translation":[6.938893903907228e-18,0.4128554222143874,-2.6020852139652106e-18]},{"name":"Pommel_1","mesh":1,"translation":[0.0003863636363636364,0.11595719149081624,-0.0]},{"name":"Guard_2","mesh":2,"translation":[-1.3877787807814457e-17,0.7728554222143874,-0.0]},{"name":"Blade_3","mesh":3,"translation":[0.0,1.6848554222143872,-0.0]},{"name":"BladeInset_4","mesh":4,"translation":[0.0,1.6528554222143874,-0.0]}],"meshes":[{"name":"Grip_0","primitives":[{"attributes":{"POSITION":0,"NORMAL":1},"material":12}]},{"name":"Pommel_1","primitives":[{"attributes":{"POSITION":2,"NORMAL":3},"material":5}]},{"name":"Guard_2","primitives":[{"attributes":{"POSITION":4,"NORMAL":5},"material":5}]},{"name":"Blade_3","primitives":[{"attributes":{"POSITION":6,"NORMAL":7},"material":1}]},{"name":"BladeInset_4","primitives":[{"attributes":{"POSITION":8,"NORMAL":9},"material":0}]}],"materials":[{"name":"stone","pbrMetallicRoughness":{"baseColorFactor":[0.05284162552287903,0.08464151072542946,0.11657577617857154,1],"metallicFactor":0,"roughnessFactor":0.8}},{"name":"edge","pbrMetallicRoughness":{"baseColorFactor":[0.18014428915439032,0.27583283346124515,0.31118049905798434,1],"metallicFactor":0,"roughnessFactor":0.8}},{"name":"dark","pbrMetallicRoughness":{"baseColorFactor":[0.009021491898012131,0.016988052089250045,0.03155139140022645,1],"metallicFactor":0,"roughnessFactor":0.8}},{"name":"wood","pbrMetallicRoughness":{"baseColorFactor":[0.1390224537347025,0.04943345755590796,0.02201299491933654,1],"metallicFactor":0,"roughnessFactor":0.8}},{"name":"woodlight","pbrMetallicRoughness":{"baseColorFactor":[0.36859092219748707,0.14497212559723088,0.042987010162657116,1],"metallicFactor":0,"roughnessFactor":0.8}},{"name":"copper","pbrMetallicRoughness":{"baseColorFactor":[0.6730490732809419,0.20835965596076741,0.05637409755197975,1],"metallicFactor":0.35,"roughnessFactor":0.8}},{"name":"gold","pbrMetallicRoughness":{"baseColorFactor":[0.9489649381781952,0.5174013674966733,0.12752977781342206,1],"metallicFactor":0.35,"roughnessFactor":0.8}},{"name":"rift","pbrMetallicRoughness":{"baseColorFactor":[0.051122050056493396,0.7969165429079781,0.5859729839496614,1],"metallicFactor":0,"roughnessFactor":0.8},"emissiveFactor":[0.017892717519772686,0.2789207900177923,0.20509054438238147]},{"name":"ice","pbrMetallicRoughness":{"baseColorFactor":[0.4704402453042184,1.0,0.8355277914608409,1],"metallicFactor":0,"roughnessFactor":0.8},"emissiveFactor":[0.16465408585647642,0.35,0.2924347270112943]},{"name":"moss","pbrMetallicRoughness":{"baseColorFactor":[0.05459227728176034,0.14799802298268516,0.06381487094867724,1],"metallicFactor":0,"roughnessFactor":0.8}},{"name":"bark","pbrMetallicRoughness":{"baseColorFactor":[0.06575388026033009,0.03423020656508195,0.020951131914781092,1],"metallicFactor":0,"roughnessFactor":0.8}},{"name":"cloth","pbrMetallicRoughness":{"baseColorFactor":[0.03994717100152558,0.10114516420959989,0.10363409665513738,1],"metallicFactor":0,"roughnessFactor":0.8}},{"name":"leather","pbrMetallicRoughness":{"baseColorFactor":[0.05818717747368544,0.020951131914781092,0.015175238159625197,1],"metallicFactor":0,"roughnessFactor":0.8}},{"name":"fire","pbrMetallicRoughness":{"baseColorFactor":[1.0,0.3157627437363971,0.04943345755590796,1],"metallicFactor":0,"roughnessFactor":0.8},"emissiveFactor":[0.35,0.11051696030773898,0.017301710144567783]}],"bufferViews":[{"buffer":0,"byteOffset":0,"byteLength":1008},{"buffer":0,"byteOffset":1008,"byteLength":1008},{"buffer":0,"byteOffset":2016,"byteLength":1440},{"buffer":0,"byteOffset":3456,"byteLength":1440},{"buffer":0,"byteOffset":4896,"byteLength":432},{"buffer":0,"byteOffset":5328,"byteLength":432},{"buffer":0,"byteOffset":5760,"byteLength":576},{"buffer":0,"byteOffset":6336,"byteLength":576},{"buffer":0,"byteOffset":6912,"byteLength":576},{"buffer":0,"byteOffset":7488,"byteLength":576}],"accessors":[{"bufferView":0,"componentType":5126,"count":84,"type":"VEC3","min":[-0.11999999731779099,-0.28999999165534973,-0.11999999731779099],"max":[0.11999999731779099,0.28999999165534973,0.11999999731779099]},{"bufferView":1,"componentType":5126,"count":84,"type":"VEC3","min":[-0.9238795042037964,-1.0,-0.9238795042037964],"max":[0.9238795042037964,1.0,0.9238795042037964]},{"bufferView":2,"componentType":5126,"count":120,"type":"VEC3","min":[-0.15355107188224792,-0.11595719307661057,-0.12674063444137573],"max":[0.16961362957954407,0.1368982344865799,0.12674063444137573]},{"bufferView":3,"componentType":5126,"count":120,"type":"VEC3","min":[-0.9282132387161255,-0.9908007979393005,-0.9317171573638916],"max":[0.7789188623428345,0.9376868605613708,0.9192904829978943]},{"bufferView":4,"componentType":5126,"count":36,"type":"VEC3","min":[-0.4000000059604645,-0.06499999761581421,-0.11500000208616257],"max":[0.4000000059604645,0.06499999761581421,0.11500000208616257]},{"bufferView":5,"componentType":5126,"count":36,"type":"VEC3","min":[-1.0,-1.0,-1.0],"max":[1.0,1.0,1.0]},{"bufferView":6,"componentType":5126,"count":48,"type":"VEC3","min":[-0.23999999463558197,-0.8320000171661377,-0.06499999761581421],"max":[0.23999999463558197,0.8880000114440918,0.06499999761581421]},{"bufferView":7,"componentType":5126,"count":48,"type":"VEC3","min":[-0.9994629621505737,-1.0,-1.0],"max":[0.9994629621505737,0.4327310621738434,1.0]},{"bufferView":8,"componentType":5126,"count":48,"type":"VEC3","min":[-0.05000000074505806,-0.7300000190734863,-0.07100000232458115],"max":[0.05000000074505806,0.6399999856948853,0.07100000232458115]},{"bufferView":9,"componentType":5126,"count":48,"type":"VEC3","min":[-1.0,-1.0,-1.0],"max":[1.0,0.21242964267730713,1.0]}],"buffers":[{"byteLength":8064,"uri":"Stone_Sword.bin"}]}