{"asset":{"version":"2.0","generator":"RIFTBOUND procedural asset builder"},"scene":0,"scenes":[{"nodes":[0]}],"nodes":[{"name":"RIG_Root","children":[1],"translation":[0.0,-0.018799955102757167,-0.0]},{"name":"RIG_Torso","children":[2,3,6,9,11,13,14,15,16,17,18,19,20,21],"translation":[0.0,1.32,-0.0]},{"name":"RIG_Head","children":[22,23,24,25,26,27,28,29,30,31,32,33],"translation":[0.0,1.0199999999999996,-0.0]},{"name":"RIG_LeftUpperArm","children":[4,34,35,36,37],"translation":[-0.38,0.55,-0.0]},{"name":"RIG_LeftForearm","children":[5,38,39],"translation":[-0.30999999999999994,-0.32000000000000006,0.03]},{"name":"RIG_LeftHand","children":[40,41,42,43,44,45,46,47,48],"translation":[-0.27,-0.25,0.09]},{"name":"RIG_RightUpperArm","children":[7,59,60,61,62],"translation":[0.38,0.55,-0.0]},{"name":"RIG_RightForearm","children":[8,63,64],"translation":[0.30999999999999994,-0.32000000000000006,0.03]},{"name":"RIG_RightHand","children":[65,66,67,68,69,70,71,72,73],"translation":[0.27,-0.25,0.09]},{"name":"RIG_LeftThigh","children":[10,49,50,51,52],"translation":[-0.23,-0.32000000000000006,-0.0]},{"name":"RIG_LeftFoot","children":[53,54,55,56,57,58],"translation":[-0.04000000000000001,-0.7000000000000001,-0.0]},{"name":"RIG_RightThigh","children":[12,74,75,76,77],"translation":[0.23,-0.32000000000000006,-0.0]},{"name":"RIG_RightFoot","children":[78,79,80,81,82,83],"translation":[0.04000000000000001,-0.7000000000000001,-0.0]},{"name":"Trunk_Mesh","mesh":0,"translation":[0.0011363636363636313,0.11479008679944669,-0.04]},{"name":"Bark_Cuirass_Mesh","mesh":1,"translation":[4.625929269271485e-18,0.2999999999999998,0.3]},{"name":"Exposed_Rift_Mesh","mesh":2,"translation":[-2.135044278125301e-18,0.26569230769230767,0.43]},{"name":"Rib_Vine_Mesh","mesh":3,"translation":[-0.2,0.47999999999999976,0.4149999999999999]},{"name":"Rib_Vine_Mesh","mesh":4,"translation":[-0.2,0.30000000000000004,0.4149999999999999]},{"name":"Rib_Vine_Mesh","mesh":5,"translation":[-0.2,0.11999999999999988,0.4149999999999999]},{"name":"Rib_Vine_Mesh","mesh":6,"translation":[0.19999999999999998,0.47999999999999976,0.4149999999999999]},{"name":"Rib_Vine_Mesh","mesh":7,"translation":[0.19999999999999998,0.30000000000000004,0.4149999999999999]},{"name":"Rib_Vine_Mesh","mesh":8,"translation":[0.19999999999999998,0.11999999999999988,0.4149999999999999]},{"name":"Skull_Mesh","mesh":9,"translation":[0.0007727272727272728,0.13463184693125907,0.030000000000000002]},{"name":"Split_Mask_Mesh","mesh":10,"translation":[4.625929269271485e-18,0.16000000000000014,0.2800000000000001]},{"name":"Face_Slit_Mesh","mesh":11,"translation":[-2.3129646346357427e-18,0.15000000000000036,0.4000000000000001]},{"name":"Eye_Mesh","mesh":12,"translation":[-0.13999999999999993,0.20000000000000018,0.42300000000000004]},{"name":"Antler_Mesh","mesh":13,"translation":[-0.3,0.6400000000000001,-0.0]},{"name":"Antler_Branch_Mesh","mesh":14,"translation":[-0.48,0.8800000000000003,1.0842021724855044e-18]},{"name":"Antler_Tip_Mesh","mesh":15,"translation":[-0.3650000000000001,0.9550000000000005,8.673617379884036e-20]},{"name":"Eye_Mesh","mesh":16,"translation":[0.13999999999999993,0.20000000000000018,0.42300000000000004]},{"name":"Antler_Mesh","mesh":17,"translation":[0.3,0.6400000000000001,-0.0]},{"name":"Antler_Branch_Mesh","mesh":18,"translation":[0.48,0.8800000000000003,-1.0842021724855044e-18]},{"name":"Antler_Tip_Mesh","mesh":19,"translation":[0.36500000000000005,0.9549999999999996,8.673617379884036e-20]},{"name":"Moss_Crown_Mesh","mesh":20,"translation":[-5.337610695313253e-19,0.6607692307692306,-0.06261538461538463]},{"name":"Root_Shoulder_Mesh","mesh":21,"translation":[-0.05938636363636368,0.00274036207429873,-8.831319514063745e-18]},{"name":"Branch_Arm_Mesh","mesh":22,"translation":[-0.20499999999999996,-0.15999999999999992,0.030000000000000006]},{"name":"Shoulder_Thorn_Mesh","mesh":23,"translation":[-0.21499999999999997,0.0349999999999997,0.08]},{"name":"Shoulder_Thorn_Mesh","mesh":24,"translation":[-0.21499999999999997,0.1349999999999998,0.08]},{"name":"Elbow_Knot_Mesh","mesh":25,"translation":[-0.02949999999999997,-0.030791529903610115,0.019999999999999997]},{"name":"Long_Tendril_Mesh","mesh":26,"translation":[-0.15499999999999992,-0.135,0.06]},{"name":"Palm_Mesh","mesh":27,"translation":[-0.029613636363636342,-0.022428450197763627,0.020000000000000018]},{"name":"Root_Finger_Mesh","mesh":28,"translation":[0.13875000000000015,-0.15999999999999992,0.09000000000000002]},{"name":"Hooked_Nail_Mesh","mesh":29,"translation":[0.1775,-0.25,0.15500000000000003]},{"name":"Root_Finger_Mesh","mesh":30,"translation":[0.026249999999999885,-0.16000000000000014,0.09000000000000002]},{"name":"Hooked_Nail_Mesh","mesh":31,"translation":[0.027499999999999858,-0.25,0.15500000000000003]},{"name":"Root_Finger_Mesh","mesh":32,"translation":[-0.08625000000000016,-0.16000000000000014,0.09000000000000002]},{"name":"Hooked_Nail_Mesh","mesh":33,"translation":[-0.12250000000000028,-0.25,0.15499999999999997]},{"name":"Root_Finger_Mesh","mesh":34,"translation":[-0.1987500000000002,-0.15999999999999992,0.09000000000000002]},{"name":"Hooked_Nail_Mesh","mesh":35,"translation":[-0.27249999999999996,-0.25,0.15499999999999997]},{"name":"Root_Hip_Mesh","mesh":36,"translation":[-0.009477272727272779,0.00013763994894200327,-1.0092936587501423e-17]},{"name":"Bent_Leg_Mesh","mesh":37,"translation":[-0.024999999999999994,-0.22999999999999998,0.010000000000000005]},{"name":"Knee_Moss_Mesh","mesh":38,"translation":[-0.04000000000000001,-0.36215384615384616,0.14]},{"name":"Lower_Root_Shin_Mesh","mesh":39,"translation":[-0.04000000000000001,-0.6000000000000001,0.020000000000000007]},{"name":"Root_Toe_Mesh","mesh":40,"translation":[-0.07999999999999996,-0.15749999999999997,0.195]},{"name":"Toe_Claw_Mesh","mesh":41,"translation":[-0.07999999999999996,-0.265,0.425]},{"name":"Root_Toe_Mesh","mesh":42,"translation":[0.0,-0.15750000000000003,0.18000000000000002]},{"name":"Toe_Claw_Mesh","mesh":43,"translation":[0.0,-0.265,0.395]},{"name":"Root_Toe_Mesh","mesh":44,"translation":[0.08000000000000002,-0.15749999999999997,0.195]},{"name":"Toe_Claw_Mesh","mesh":45,"translation":[0.08000000000000002,-0.265,0.425]},{"name":"Root_Shoulder_Mesh","mesh":46,"translation":[0.060613636363636425,0.00274036207429873,-8.831319514063745e-18]},{"name":"Branch_Arm_Mesh","mesh":47,"translation":[0.20499999999999996,-0.15999999999999992,0.03]},{"name":"Shoulder_Thorn_Mesh","mesh":48,"translation":[0.21499999999999997,0.0349999999999997,0.08]},{"name":"Shoulder_Thorn_Mesh","mesh":49,"translation":[0.21499999999999997,0.1349999999999998,0.08]},{"name":"Elbow_Knot_Mesh","mesh":50,"translation":[0.03049999999999997,-0.030791529903610115,0.019999999999999997]},{"name":"Long_Tendril_Mesh","mesh":51,"translation":[0.15500000000000003,-0.135,0.06]},{"name":"Palm_Mesh","mesh":52,"translation":[0.030386363636363933,-0.022428450197763627,0.020000000000000018]},{"name":"Root_Finger_Mesh","mesh":53,"translation":[-0.13875000000000015,-0.15999999999999992,0.09000000000000002]},{"name":"Hooked_Nail_Mesh","mesh":54,"translation":[-0.1775,-0.25,0.15500000000000003]},{"name":"Root_Finger_Mesh","mesh":55,"translation":[-0.026249999999999885,-0.16000000000000014,0.09000000000000002]},{"name":"Hooked_Nail_Mesh","mesh":56,"translation":[-0.02750000000000019,-0.25,0.15500000000000003]},{"name":"Root_Finger_Mesh","mesh":57,"translation":[0.08625000000000016,-0.16000000000000014,0.09000000000000002]},{"name":"Hooked_Nail_Mesh","mesh":58,"translation":[0.12250000000000005,-0.25,0.15500000000000003]},{"name":"Root_Finger_Mesh","mesh":59,"translation":[0.19874999999999998,-0.15999999999999992,0.09000000000000002]},{"name":"Hooked_Nail_Mesh","mesh":60,"translation":[0.2725000000000002,-0.25,0.15500000000000003]},{"name":"Root_Hip_Mesh","mesh":61,"translation":[0.01052272727272724,0.00013763994894200327,-1.0092936587501423e-17]},{"name":"Bent_Leg_Mesh","mesh":62,"translation":[0.024999999999999994,-0.22999999999999987,0.010000000000000005]},{"name":"Knee_Moss_Mesh","mesh":63,"translation":[0.04000000000000001,-0.36215384615384616,0.14]},{"name":"Lower_Root_Shin_Mesh","mesh":64,"translation":[0.04000000000000001,-0.6000000000000001,0.020000000000000007]},{"name":"Root_Toe_Mesh","mesh":65,"translation":[-0.08000000000000002,-0.15749999999999997,0.195]},{"name":"Toe_Claw_Mesh","mesh":66,"translation":[-0.08000000000000002,-0.265,0.425]},{"name":"Root_Toe_Mesh","mesh":67,"translation":[0.0,-0.15750000000000003,0.18000000000000002]},{"name":"Toe_Claw_Mesh","mesh":68,"translation":[0.0,-0.265,0.395]},{"name":"Root_Toe_Mesh","mesh":69,"translation":[0.08000000000000002,-0.15749999999999997,0.195]},{"name":"Toe_Claw_Mesh","mesh":70,"translation":[0.07999999999999996,-0.265,0.425]}],"meshes":[{"name":"Trunk_0","primitives":[{"attributes":{"POSITION":0,"NORMAL":1},"material":3}]},{"name":"Bark_Cuirass_1","primitives":[{"attributes":{"POSITION":2,"NORMAL":3},"material":10}]},{"name":"Exposed_Rift_2","primitives":[{"attributes":{"POSITION":4,"NORMAL":5},"material":7}]},{"name":"Rib_Vine_3","primitives":[{"attributes":{"POSITION":6,"NORMAL":7},"material":9}]},{"name":"Rib_Vine_4","primitives":[{"attributes":{"POSITION":8,"NORMAL":9},"material":9}]},{"name":"Rib_Vine_5","primitives":[{"attributes":{"POSITION":10,"NORMAL":11},"material":9}]},{"name":"Rib_Vine_6","primitives":[{"attributes":{"POSITION":12,"NORMAL":13},"material":9}]},{"name":"Rib_Vine_7","primitives":[{"attributes":{"POSITION":14,"NORMAL":15},"material":9}]},{"name":"Rib_Vine_8","primitives":[{"attributes":{"POSITION":16,"NORMAL":17},"material":9}]},{"name":"Skull_9","primitives":[{"attributes":{"POSITION":18,"NORMAL":19},"material":10}]},{"name":"Split_Mask_10","primitives":[{"attributes":{"POSITION":20,"NORMAL":21},"material":4}]},{"name":"Face_Slit_11","primitives":[{"attributes":{"POSITION":22,"NORMAL":23},"material":2}]},{"name":"Eye_12","primitives":[{"attributes":{"POSITION":24,"NORMAL":25},"material":7}]},{"name":"Antler_13","primitives":[{"attributes":{"POSITION":26,"NORMAL":27},"material":4}]},{"name":"Antler_Branch_14","primitives":[{"attributes":{"POSITION":28,"NORMAL":29},"material":10}]},{"name":"Antler_Tip_15","primitives":[{"attributes":{"POSITION":30,"NORMAL":31},"material":4}]},{"name":"Eye_16","primitives":[{"attributes":{"POSITION":32,"NORMAL":33},"material":7}]},{"name":"Antler_17","primitives":[{"attributes":{"POSITION":34,"NORMAL":35},"material":4}]},{"name":"Antler_Branch_18","primitives":[{"attributes":{"POSITION":36,"NORMAL":37},"material":10}]},{"name":"Antler_Tip_19","primitives":[{"attributes":{"POSITION":38,"NORMAL":39},"material":4}]},{"name":"Moss_Crown_20","primitives":[{"attributes":{"POSITION":40,"NORMAL":41},"material":9}]},{"name":"Root_Shoulder_21","primitives":[{"attributes":{"POSITION":42,"NORMAL":43},"material":10}]},{"name":"Branch_Arm_22","primitives":[{"attributes":{"POSITION":44,"NORMAL":45},"material":10}]},{"name":"Shoulder_Thorn_23","primitives":[{"attributes":{"POSITION":46,"NORMAL":47},"material":4}]},{"name":"Shoulder_Thorn_24","primitives":[{"attributes":{"POSITION":48,"NORMAL":49},"material":4}]},{"name":"Elbow_Knot_25","primitives":[{"attributes":{"POSITION":50,"NORMAL":51},"material":4}]},{"name":"Long_Tendril_26","primitives":[{"attributes":{"POSITION":52,"NORMAL":53},"material":10}]},{"name":"Palm_27","primitives":[{"attributes":{"POSITION":54,"NORMAL":55},"material":4}]},{"name":"Root_Finger_28","primitives":[{"attributes":{"POSITION":56,"NORMAL":57},"material":10}]},{"name":"Hooked_Nail_29","primitives":[{"attributes":{"POSITION":58,"NORMAL":59},"material":9}]},{"name":"Root_Finger_30","primitives":[{"attributes":{"POSITION":60,"NORMAL":61},"material":10}]},{"name":"Hooked_Nail_31","primitives":[{"attributes":{"POSITION":62,"NORMAL":63},"material":9}]},{"name":"Root_Finger_32","primitives":[{"attributes":{"POSITION":64,"NORMAL":65},"material":10}]},{"name":"Hooked_Nail_33","primitives":[{"attributes":{"POSITION":66,"NORMAL":67},"material":9}]},{"name":"Root_Finger_34","primitives":[{"attributes":{"POSITION":68,"NORMAL":69},"material":10}]},{"name":"Hooked_Nail_35","primitives":[{"attributes":{"POSITION":70,"NORMAL":71},"material":9}]},{"name":"Root_Hip_36","primitives":[{"attributes":{"POSITION":72,"NORMAL":73},"material":10}]},{"name":"Bent_Leg_37","primitives":[{"attributes":{"POSITION":74,"NORMAL":75},"material":4}]},{"name":"Knee_Moss_38","primitives":[{"attributes":{"POSITION":76,"NORMAL":77},"material":9}]},{"name":"Lower_Root_Shin_39","primitives":[{"attributes":{"POSITION":78,"NORMAL":79},"material":10}]},{"name":"Root_Toe_40","primitives":[{"attributes":{"POSITION":80,"NORMAL":81},"material":10}]},{"name":"Toe_Claw_41","primitives":[{"attributes":{"POSITION":82,"NORMAL":83},"material":4}]},{"name":"Root_Toe_42","primitives":[{"attributes":{"POSITION":84,"NORMAL":85},"material":10}]},{"name":"Toe_Claw_43","primitives":[{"attributes":{"POSITION":86,"NORMAL":87},"material":4}]},{"name":"Root_Toe_44","primitives":[{"attributes":{"POSITION":88,"NORMAL":89},"material":10}]},{"name":"Toe_Claw_45","primitives":[{"attributes":{"POSITION":90,"NORMAL":91},"material":4}]},{"name":"Root_Shoulder_46","primitives":[{"attributes":{"POSITION":92,"NORMAL":93},"material":10}]},{"name":"Branch_Arm_47","primitives":[{"attributes":{"POSITION":94,"NORMAL":95},"material":10}]},{"name":"Shoulder_Thorn_48","primitives":[{"attributes":{"POSITION":96,"NORMAL":97},"material":4}]},{"name":"Shoulder_Thorn_49","primitives":[{"attributes":{"POSITION":98,"NORMAL":99},"material":4}]},{"name":"Elbow_Knot_50","primitives":[{"attributes":{"POSITION":100,"NORMAL":101},"material":4}]},{"name":"Long_Tendril_51","primitives":[{"attributes":{"POSITION":102,"NORMAL":103},"material":10}]},{"name":"Palm_52","primitives":[{"attributes":{"POSITION":104,"NORMAL":105},"material":4}]},{"name":"Root_Finger_53","primitives":[{"attributes":{"POSITION":106,"NORMAL":107},"material":10}]},{"name":"Hooked_Nail_54","primitives":[{"attributes":{"POSITION":108,"NORMAL":109},"material":9}]},{"name":"Root_Finger_55","primitives":[{"attributes":{"POSITION":110,"NORMAL":111},"material":10}]},{"name":"Hooked_Nail_56","primitives":[{"attributes":{"POSITION":112,"NORMAL":113},"material":9}]},{"name":"Root_Finger_57","primitives":[{"attributes":{"POSITION":114,"NORMAL":115},"material":10}]},{"name":"Hooked_Nail_58","primitives":[{"attributes":{"POSITION":116,"NORMAL":117},"material":9}]},{"name":"Root_Finger_59","primitives":[{"attributes":{"POSITION":118,"NORMAL":119},"material":10}]},{"name":"Hooked_Nail_60","primitives":[{"attributes":{"POSITION":120,"NORMAL":121},"material":9}]},{"name":"Root_Hip_61","primitives":[{"attributes":{"POSITION":122,"NORMAL":123},"material":10}]},{"name":"Bent_Leg_62","primitives":[{"attributes":{"POSITION":124,"NORMAL":125},"material":4}]},{"name":"Knee_Moss_63","primitives":[{"attributes":{"POSITION":126,"NORMAL":127},"material":9}]},{"name":"Lower_Root_Shin_64","primitives":[{"attributes":{"POSITION":128,"NORMAL":129},"material":10}]},{"name":"Root_Toe_65","primitives":[{"attributes":{"POSITION":130,"NORMAL":131},"material":10}]},{"name":"Toe_Claw_66","primitives":[{"attributes":{"POSITION":132,"NORMAL":133},"material":4}]},{"name":"Root_Toe_67","primitives":[{"attributes":{"POSITION":134,"NORMAL":135},"material":10}]},{"name":"Toe_Claw_68","primitives":[{"attributes":{"POSITION":136,"NORMAL":137},"material":4}]},{"name":"Root_Toe_69","primitives":[{"attributes":{"POSITION":138,"NORMAL":139},"material":10}]},{"name":"Toe_Claw_70","primitives":[{"attributes":{"POSITION":140,"NORMAL":141},"material":4}]}],"materials":[{"name":"stone","pbrMetallicRoughness":{"baseColorFactor":[0.05284162552287903,0.08464151072542946,0.11657577617857154,1],"metallicFactor":0,"roughnessFactor":0.8}},{"name":"edge","pbrMetallicRoughness":{"baseColorFactor":[0.18014428915439032,0.27583283346124515,0.31118049905798434,1],"metallicFactor":0,"roughnessFactor":0.8}},{"name":"dark","pbrMetallicRoughness":{"baseColorFactor":[0.009021491898012131,0.016988052089250045,0.03155139140022645,1],"metallicFactor":0,"roughnessFactor":0.8}},{"name":"wood","pbrMetallicRoughness":{"baseColorFactor":[0.1390224537347025,0.04943345755590796,0.02201299491933654,1],"metallicFactor":0,"roughnessFactor":0.8}},{"name":"woodlight","pbrMetallicRoughness":{"baseColorFactor":[0.36859092219748707,0.14497212559723088,0.042987010162657116,1],"metallicFactor":0,"roughnessFactor":0.8}},{"name":"copper","pbrMetallicRoughness":{"baseColorFactor":[0.6730490732809419,0.20835965596076741,0.05637409755197975,1],"metallicFactor":0.35,"roughnessFactor":0.8}},{"name":"gold","pbrMetallicRoughness":{"baseColorFactor":[0.9489649381781952,0.5174013674966733,0.12752977781342206,1],"metallicFactor":0.35,"roughnessFactor":0.8}},{"name":"rift","pbrMetallicRoughness":{"baseColorFactor":[0.051122050056493396,0.7969165429079781,0.5859729839496614,1],"metallicFactor":0,"roughnessFactor":0.8},"emissiveFactor":[0.017892717519772686,0.2789207900177923,0.20509054438238147]},{"name":"ice","pbrMetallicRoughness":{"baseColorFactor":[0.4704402453042184,1.0,0.8355277914608409,1],"metallicFactor":0,"roughnessFactor":0.8},"emissiveFactor":[0.16465408585647642,0.35,0.2924347270112943]},{"name":"moss","pbrMetallicRoughness":{"baseColorFactor":[0.05459227728176034,0.14799802298268516,0.06381487094867724,1],"metallicFactor":0,"roughnessFactor":0.8}},{"name":"bark","pbrMetallicRoughness":{"baseColorFactor":[0.06575388026033009,0.03423020656508195,0.020951131914781092,1],"metallicFactor":0,"roughnessFactor":0.8}},{"name":"cloth","pbrMetallicRoughness":{"baseColorFactor":[0.03994717100152558,0.10114516420959989,0.10363409665513738,1],"metallicFactor":0,"roughnessFactor":0.8}},{"name":"leather","pbrMetallicRoughness":{"baseColorFactor":[0.05818717747368544,0.020951131914781092,0.015175238159625197,1],"metallicFactor":0,"roughnessFactor":0.8}},{"name":"fire","pbrMetallicRoughness":{"baseColorFactor":[1.0,0.3157627437363971,0.04943345755590796,1],"metallicFactor":0,"roughnessFactor":0.8},"emissiveFactor":[0.35,0.11051696030773898,0.017301710144567783]}],"bufferViews":[{"buffer":0,"byteOffset":0,"byteLength":1440},{"buffer":0,"byteOffset":1440,"byteLength":1440},{"buffer":0,"byteOffset":2880,"byteLength":1584},{"buffer":0,"byteOffset":4464,"byteLength":1584},{"buffer":0,"byteOffset":6048,"byteLength":792},{"buffer":0,"byteOffset":6840,"byteLength":792},{"buffer":0,"byteOffset":7632,"byteLength":576},{"buffer":0,"byteOffset":8208,"byteLength":576},{"buffer":0,"byteOffset":8784,"byteLength":576},{"buffer":0,"byteOffset":9360,"byteLength":576},{"buffer":0,"byteOffset":9936,"byteLength":576},{"buffer":0,"byteOffset":10512,"byteLength":576},{"buffer":0,"byteOffset":11088,"byteLength":576},{"buffer":0,"byteOffset":11664,"byteLength":576},{"buffer":0,"byteOffset":12240,"byteLength":576},{"buffer":0,"byteOffset":12816,"byteLength":576},{"buffer":0,"byteOffset":13392,"byteLength":576},{"buffer":0,"byteOffset":13968,"byteLength":576},{"buffer":0,"byteOffset":14544,"byteLength":1440},{"buffer":0,"byteOffset":15984,"byteLength":1440},{"buffer":0,"byteOffset":17424,"byteLength":1584},{"buffer":0,"byteOffset":19008,"byteLength":1584},{"buffer":0,"byteOffset":20592,"byteLength":1584},{"buffer":0,"byteOffset":22176,"byteLength":1584},{"buffer":0,"byteOffset":23760,"byteLength":1584},{"buffer":0,"byteOffset":25344,"byteLength":1584},{"buffer":0,"byteOffset":26928,"byteLength":864},{"buffer":0,"byteOffset":27792,"byteLength":864},{"buffer":0,"byteOffset":28656,"byteLength":576},{"buffer":0,"byteOffset":29232,"byteLength":576},{"buffer":0,"byteOffset":29808,"byteLength":576},{"buffer":0,"byteOffset":30384,"byteLength":576},{"buffer":0,"byteOffset":30960,"byteLength":1584},{"buffer":0,"byteOffset":32544,"byteLength":1584},{"buffer":0,"byteOffset":34128,"byteLength":864},{"buffer":0,"byteOffset":34992,"byteLength":864},{"buffer":0,"byteOffset":35856,"byteLength":576},{"buffer":0,"byteOffset":36432,"byteLength":576},{"buffer":0,"byteOffset":37008,"byteLength":576},{"buffer":0,"byteOffset":37584,"byteLength":576},{"buffer":0,"byteOffset":38160,"byteLength":792},{"buffer":0,"byteOffset":38952,"byteLength":792},{"buffer":0,"byteOffset":39744,"byteLength":1440},{"buffer":0,"byteOffset":41184,"byteLength":1440},{"buffer":0,"byteOffset":42624,"byteLength":864},{"buffer":0,"byteOffset":43488,"byteLength":864},{"buffer":0,"byteOffset":44352,"byteLength":576},{"buffer":0,"byteOffset":44928,"byteLength":576},{"buffer":0,"byteOffset":45504,"byteLength":576},{"buffer":0,"byteOffset":46080,"byteLength":576},{"buffer":0,"byteOffset":46656,"byteLength":1440},{"buffer":0,"byteOffset":48096,"byteLength":1440},{"buffer":0,"byteOffset":49536,"byteLength":864},{"buffer":0,"byteOffset":50400,"byteLength":864},{"buffer":0,"byteOffset":51264,"byteLength":1440},{"buffer":0,"byteOffset":52704,"byteLength":1440},{"buffer":0,"byteOffset":54144,"byteLength":576},{"buffer":0,"byteOffset":54720,"byteLength":576},{"buffer":0,"byteOffset":55296,"byteLength":576},{"buffer":0,"byteOffset":55872,"byteLength":576},{"buffer":0,"byteOffset":56448,"byteLength":576},{"buffer":0,"byteOffset":57024,"byteLength":576},{"buffer":0,"byteOffset":57600,"byteLength":576},{"buffer":0,"byteOffset":58176,"byteLength":576},{"buffer":0,"byteOffset":58752,"byteLength":576},{"buffer":0,"byteOffset":59328,"byteLength":576},{"buffer":0,"byteOffset":59904,"byteLength":576},{"buffer":0,"byteOffset":60480,"byteLength":576},{"buffer":0,"byteOffset":61056,"byteLength":576},{"buffer":0,"byteOffset":61632,"byteLength":576},{"buffer":0,"byteOffset":62208,"byteLength":576},{"buffer":0,"byteOffset":62784,"byteLength":576},{"buffer":0,"byteOffset":63360,"byteLength":1440},{"buffer":0,"byteOffset":64800,"byteLength":1440},{"buffer":0,"byteOffset":66240,"byteLength":864},{"buffer":0,"byteOffset":67104,"byteLength":864},{"buffer":0,"byteOffset":67968,"byteLength":792},{"buffer":0,"byteOffset":68760,"byteLength":792},{"buffer":0,"byteOffset":69552,"byteLength":720},{"buffer":0,"byteOffset":70272,"byteLength":720},{"buffer":0,"byteOffset":70992,"byteLength":576},{"buffer":0,"byteOffset":71568,"byteLength":576},{"buffer":0,"byteOffset":72144,"byteLength":576},{"buffer":0,"byteOffset":72720,"byteLength":576},{"buffer":0,"byteOffset":73296,"byteLength":576},{"buffer":0,"byteOffset":73872,"byteLength":576},{"buffer":0,"byteOffset":74448,"byteLength":576},{"buffer":0,"byteOffset":75024,"byteLength":576},{"buffer":0,"byteOffset":75600,"byteLength":576},{"buffer":0,"byteOffset":76176,"byteLength":576},{"buffer":0,"byteOffset":76752,"byteLength":576},{"buffer":0,"byteOffset":77328,"byteLength":576},{"buffer":0,"byteOffset":77904,"byteLength":1440},{"buffer":0,"byteOffset":79344,"byteLength":1440},{"buffer":0,"byteOffset":80784,"byteLength":864},{"buffer":0,"byteOffset":81648,"byteLength":864},{"buffer":0,"byteOffset":82512,"byteLength":576},{"buffer":0,"byteOffset":83088,"byteLength":576},{"buffer":0,"byteOffset":83664,"byteLength":576},{"buffer":0,"byteOffset":84240,"byteLength":576},{"buffer":0,"byteOffset":84816,"byteLength":1440},{"buffer":0,"byteOffset":86256,"byteLength":1440},{"buffer":0,"byteOffset":87696,"byteLength":864},{"buffer":0,"byteOffset":88560,"byteLength":864},{"buffer":0,"byteOffset":89424,"byteLength":1440},{"buffer":0,"byteOffset":90864,"byteLength":1440},{"buffer":0,"byteOffset":92304,"byteLength":576},{"buffer":0,"byteOffset":92880,"byteLength":576},{"buffer":0,"byteOffset":93456,"byteLength":576},{"buffer":0,"byteOffset":94032,"byteLength":576},{"buffer":0,"byteOffset":94608,"byteLength":576},{"buffer":0,"byteOffset":95184,"byteLength":576},{"buffer":0,"byteOffset":95760,"byteLength":576},{"buffer":0,"byteOffset":96336,"byteLength":576},{"buffer":0,"byteOffset":96912,"byteLength":576},{"buffer":0,"byteOffset":97488,"byteLength":576},{"buffer":0,"byteOffset":98064,"byteLength":576},{"buffer":0,"byteOffset":98640,"byteLength":576},{"buffer":0,"byteOffset":99216,"byteLength":576},{"buffer":0,"byteOffset":99792,"byteLength":576},{"buffer":0,"byteOffset":100368,"byteLength":576},{"buffer":0,"byteOffset":100944,"byteLength":576},{"buffer":0,"byteOffset":101520,"byteLength":1440},{"buffer":0,"byteOffset":102960,"byteLength":1440},{"buffer":0,"byteOffset":104400,"byteLength":864},{"buffer":0,"byteOffset":105264,"byteLength":864},{"buffer":0,"byteOffset":106128,"byteLength":792},{"buffer":0,"byteOffset":106920,"byteLength":792},{"buffer":0,"byteOffset":107712,"byteLength":720},{"buffer":0,"byteOffset":108432,"byteLength":720},{"buffer":0,"byteOffset":109152,"byteLength":576},{"buffer":0,"byteOffset":109728,"byteLength":576},{"buffer":0,"byteOffset":110304,"byteLength":576},{"buffer":0,"byteOffset":110880,"byteLength":576},{"buffer":0,"byteOffset":111456,"byteLength":576},{"buffer":0,"byteOffset":112032,"byteLength":576},{"buffer":0,"byteOffset":112608,"byteLength":576},{"buffer":0,"byteOffset":113184,"byteLength":576},{"buffer":0,"byteOffset":113760,"byteLength":576},{"buffer":0,"byteOffset":114336,"byteLength":576},{"buffer":0,"byteOffset":114912,"byteLength":576},{"buffer":0,"byteOffset":115488,"byteLength":576}],"accessors":[{"bufferView":0,"componentType":5126,"count":120,"type":"VEC3","min":[-0.45162078738212585,-0.6764757633209229,-0.40946972370147705],"max":[0.4988636374473572,0.7852098941802979,0.40946972370147705]},{"bufferView":1,"componentType":5126,"count":120,"type":"VEC3","min":[-0.9821712374687195,-0.9678710699081421,-0.9706858396530151],"max":[0.8940678834915161,0.8101176023483276,0.9592524170875549]},{"bufferView":2,"componentType":5126,"count":132,"type":"VEC3","min":[-0.3499999940395355,-0.33500000834465027,-0.10999999940395355],"max":[0.3499999940395355,0.33500000834465027,0.10999999940395355]},{"bufferView":3,"componentType":5126,"count":132,"type":"VEC3","min":[-1.0,-1.0,-1.0],"max":[1.0,1.0,1.0]},{"bufferView":4,"componentType":5126,"count":66,"type":"VEC3","min":[-0.15000000596046448,-0.1356923133134842,-0.12990380823612213],"max":[0.15000000596046448,0.22430768609046936,0.12990380823612213]},{"bufferView":5,"componentType":5126,"count":66,"type":"VEC3","min":[-0.8501267433166504,-1.0,-0.9816418290138245],"max":[0.8501267433166504,0.7178101539611816,0.9816418290138245]},{"bufferView":6,"componentType":5126,"count":48,"type":"VEC3","min":[-0.10285342484712601,-0.039117757230997086,-0.02488936297595501],"max":[0.10720712691545486,0.050970837473869324,0.03397192060947418]},{"bufferView":7,"componentType":5126,"count":48,"type":"VEC3","min":[-0.9480909109115601,-0.9248074889183044,-0.830924391746521],"max":[0.9480909109115601,0.8964816331863403,0.9806280732154846]},{"bufferView":8,"componentType":5126,"count":48,"type":"VEC3","min":[-0.10285342484712601,-0.039117757230997086,-0.02488936297595501],"max":[0.10720712691545486,0.050970837473869324,0.03397192060947418]},{"bufferView":9,"componentType":5126,"count":48,"type":"VEC3","min":[-0.9480909109115601,-0.9248074889183044,-0.830924391746521],"max":[0.9480909109115601,0.8964816331863403,0.9806280732154846]},{"bufferView":10,"componentType":5126,"count":48,"type":"VEC3","min":[-0.10285342484712601,-0.039117757230997086,-0.02488936297595501],"max":[0.10720712691545486,0.050970837473869324,0.03397192060947418]},{"bufferView":11,"componentType":5126,"count":48,"type":"VEC3","min":[-0.9480909109115601,-0.9248074889183044,-0.830924391746521],"max":[0.9480909109115601,0.8964816331863403,0.9806280732154846]},{"bufferView":12,"componentType":5126,"count":48,"type":"VEC3","min":[-0.10656287521123886,-0.039117757230997086,-0.023248661309480667],"max":[0.10313353687524796,0.050970837473869324,0.037745535373687744]},{"bufferView":13,"componentType":5126,"count":48,"type":"VEC3","min":[-0.9480909109115601,-0.9248074889183044,-0.9947910308837891],"max":[0.9480909109115601,0.8964816331863403,0.8167614936828613]},{"bufferView":14,"componentType":5126,"count":48,"type":"VEC3","min":[-0.10656287521123886,-0.039117757230997086,-0.023248661309480667],"max":[0.10313353687524796,0.050970837473869324,0.037745535373687744]},{"bufferView":15,"componentType":5126,"count":48,"type":"VEC3","min":[-0.9480909109115601,-0.9248074889183044,-0.9947910308837891],"max":[0.9480909109115601,0.8964816331863403,0.8167614936828613]},{"bufferView":16,"componentType":5126,"count":48,"type":"VEC3","min":[-0.10656287521123886,-0.039117757230997086,-0.023248661309480667],"max":[0.10313353687524796,0.050970837473869324,0.037745535373687744]},{"bufferView":17,"componentType":5126,"count":48,"type":"VEC3","min":[-0.9480909109115601,-0.9248074889183044,-0.9947910308837891],"max":[0.9480909109115601,0.8964816331863403,0.8167614936828613]},{"bufferView":18,"componentType":5126,"count":120,"type":"VEC3","min":[-0.30710214376449585,-0.38344651460647583,-0.29247838258743286],"max":[0.33922725915908813,0.42536816000938416,0.29247838258743286]},{"bufferView":19,"componentType":5126,"count":120,"type":"VEC3","min":[-0.9695812463760376,-0.9824944138526917,-0.9666842818260193],"max":[0.8898478150367737,0.921957790851593,0.9641764760017395]},{"bufferView":20,"componentType":5126,"count":132,"type":"VEC3","min":[-0.3400000035762787,-0.23000000417232513,-0.10000000149011612],"max":[0.3400000035762787,0.23000000417232513,0.10000000149011612]},{"bufferView":21,"componentType":5126,"count":132,"type":"VEC3","min":[-1.0,-1.0,-1.0],"max":[1.0,1.0,1.0]},{"bufferView":22,"componentType":5126,"count":132,"type":"VEC3","min":[-0.20000000298023224,-0.04749999940395355,-0.017500000074505806],"max":[0.20000000298023224,0.04749999940395355,0.017500000074505806]},{"bufferView":23,"componentType":5126,"count":132,"type":"VEC3","min":[-1.0,-1.0,-1.0],"max":[1.0,1.0,1.0]},{"bufferView":24,"componentType":5126,"count":132,"type":"VEC3","min":[-0.05249999836087227,-0.02500000037252903,-0.014999999664723873],"max":[0.05249999836087227,0.02500000037252903,0.014999999664723873]},{"bufferView":25,"componentType":5126,"count":132,"type":"VEC3","min":[-1.0,-1.0,-1.0],"max":[1.0,1.0,1.0]},{"bufferView":26,"componentType":5126,"count":72,"type":"VEC3","min":[-0.12924009561538696,-0.21924008429050446,-0.09000000357627869],"max":[0.16848018765449524,0.1996200531721115,0.08108720183372498]},{"bufferView":27,"componentType":5126,"count":72,"type":"VEC3","min":[-0.9124330282211304,-0.8944271802902222,-0.8964323997497559],"max":[0.8227897882461548,0.8944271802902222,0.9949648976325989]},{"bufferView":28,"componentType":5126,"count":48,"type":"VEC3","min":[-0.09527551382780075,-0.09560970962047577,-0.04500000178813934],"max":[0.11373980343341827,0.06791327148675919,0.036405764520168304]},{"bufferView":29,"componentType":5126,"count":48,"type":"VEC3","min":[-0.8320503234863281,-0.7126442193984985,-0.8021748065948486],"max":[0.8320503234863281,0.8566243052482605,0.9915425777435303]},{"bufferView":30,"componentType":5126,"count":48,"type":"VEC3","min":[-0.06924769282341003,-0.14162909984588623,-0.04279754310846329],"max":[0.02977295033633709,0.13609252870082855,0.04279754310846329]},{"bufferView":31,"componentType":5126,"count":48,"type":"VEC3","min":[-0.7695057392120361,-0.9832820296287537,-0.944839596748352],"max":[0.9976405501365662,0.9832820296287537,0.944839596748352]},{"bufferView":32,"componentType":5126,"count":132,"type":"VEC3","min":[-0.05249999836087227,-0.02500000037252903,-0.014999999664723873],"max":[0.05249999836087227,0.02500000037252903,0.014999999664723873]},{"bufferView":33,"componentType":5126,"count":132,"type":"VEC3","min":[-1.0,-1.0,-1.0],"max":[1.0,1.0,1.0]},{"bufferView":34,"componentType":5126,"count":72,"type":"VEC3","min":[-0.16848018765449524,-0.21924008429050446,-0.08108720183372498],"max":[0.12924009561538696,0.1996200531721115,0.09000000357627869]},{"bufferView":35,"componentType":5126,"count":72,"type":"VEC3","min":[-0.8227897882461548,-0.8944271802902222,-0.9949648976325989],"max":[0.9124330282211304,0.8944271802902222,0.8964323997497559]},{"bufferView":36,"componentType":5126,"count":48,"type":"VEC3","min":[-0.11373980343341827,-0.09560970962047577,-0.036405764520168304],"max":[0.09527551382780075,0.06791327148675919,0.04500000178813934]},{"bufferView":37,"componentType":5126,"count":48,"type":"VEC3","min":[-0.8320503234863281,-0.7126442193984985,-0.9915425777435303],"max":[0.8320503234863281,0.8566243052482605,0.8021748065948486]},{"bufferView":38,"componentType":5126,"count":48,"type":"VEC3","min":[-0.030899692326784134,-0.1431940197944641,-0.04279754310846329],"max":[0.060797132551670074,0.1358838826417923,0.04279754310846329]},{"bufferView":39,"componentType":5126,"count":48,"type":"VEC3","min":[-0.8110779523849487,-0.9832820296287537,-0.944839596748352],"max":[0.9560683369636536,0.9832820296287537,0.944839596748352]},{"bufferView":40,"componentType":5126,"count":66,"type":"VEC3","min":[-0.09000000357627869,-0.15076923370361328,-0.09432689845561981],"max":[0.09000000357627869,0.2492307722568512,0.07327786833047867]},{"bufferView":41,"componentType":5126,"count":66,"type":"VEC3","min":[-0.8656379580497742,-1.0,-0.9690098166465759],"max":[0.8656379580497742,0.5771454572677612,0.9989855289459229]},{"bufferView":42,"componentType":5126,"count":120,"type":"VEC3","min":[-0.24387523531913757,-0.22913862764835358,-0.31197693943977356],"max":[0.269386351108551,0.2672596275806427,0.31197693943977356]},{"bufferView":43,"componentType":5126,"count":120,"type":"VEC3","min":[-0.949074387550354,-0.9998248815536499,-0.9012678861618042],"max":[0.8820667266845703,0.9360707402229309,0.9172746539115906]},{"bufferView":44,"componentType":5126,"count":72,"type":"VEC3","min":[-0.2028227299451828,-0.20851372182369232,-0.17642806470394135],"max":[0.2438022345304489,0.24277056753635406,0.1246475800871849]},{"bufferView":45,"componentType":5126,"count":72,"type":"VEC3","min":[-0.7986558079719543,-0.7615948915481567,-0.9229999780654907],"max":[0.6860220432281494,0.7114302515983582,0.987190842628479]},{"bufferView":46,"componentType":5126,"count":48,"type":"VEC3","min":[-0.11649507284164429,-0.03057979792356491,-0.05940847098827362],"max":[0.12539581954479218,0.06219864636659622,0.024908868595957756]},{"bufferView":47,"componentType":5126,"count":48,"type":"VEC3","min":[-0.9633640050888062,-0.9478248357772827,-0.7935922741889954],"max":[0.9633640050888062,0.899884819984436,0.9979133605957031]},{"bufferView":48,"componentType":5126,"count":48,"type":"VEC3","min":[-0.11835669726133347,-0.10700510442256927,-0.05940847098827362],"max":[0.13314221799373627,0.07980076223611832,0.02510896511375904]},{"bufferView":49,"componentType":5126,"count":48,"type":"VEC3","min":[-0.8288624882698059,-0.7429022789001465,-0.8331217765808105],"max":[0.8288624882698059,0.8495481014251709,0.9946261644363403]},{"bufferView":50,"componentType":5126,"count":120,"type":"VEC3","min":[-0.19871315360069275,-0.19464904069900513,-0.23398269712924957],"max":[0.21950000524520874,0.23079152405261993,0.23398269712924957]},{"bufferView":51,"componentType":5126,"count":120,"type":"VEC3","min":[-0.9634423851966858,-0.9906728863716125,-0.9118154048919678],"max":[0.9143136143684387,0.9323906898498535,0.9171266555786133]},{"bufferView":52,"componentType":5126,"count":72,"type":"VEC3","min":[-0.1726532280445099,-0.16632825136184692,-0.15429089963436127],"max":[0.2065707892179489,0.2029912918806076,0.10616768151521683]},{"bufferView":53,"componentType":5126,"count":72,"type":"VEC3","min":[-0.7658666372299194,-0.8115944266319275,-0.9081300497055054],"max":[0.7163352966308594,0.6590284705162048,0.9739325642585754]},{"bufferView":54,"componentType":5126,"count":120,"type":"VEC3","min":[-0.15355107188224792,-0.17346389591693878,-0.17548702657222748],"max":[0.16961362957954407,0.19242845475673676,0.17548702657222748]},{"bufferView":55,"componentType":5126,"count":120,"type":"VEC3","min":[-0.9638181924819946,-0.9858617782592773,-0.947520911693573],"max":[0.910042405128479,0.9459988474845886,0.9431279897689819]},{"bufferView":56,"componentType":5126,"count":48,"type":"VEC3","min":[-0.09122025221586227,-0.14841105043888092,-0.07859340310096741],"max":[0.074219711124897,0.1568221002817154,0.056299105286598206]},{"bufferView":57,"componentType":5126,"count":48,"type":"VEC3","min":[-0.8786281943321228,-0.8969188928604126,-0.8005985617637634],"max":[0.8917374014854431,0.8969188928604126,0.9768061637878418]},{"bufferView":58,"componentType":5126,"count":48,"type":"VEC3","min":[-0.021596159785985947,-0.05326782539486885,-0.043323151767253876],"max":[0.038907501846551895,0.042884308844804764,0.0292339064180851]},{"bufferView":59,"componentType":5126,"count":48,"type":"VEC3","min":[-0.9709842205047607,-0.7950463891029358,-0.7668795585632324],"max":[0.7609654664993286,0.7950463891029358,0.8596160411834717]},{"bufferView":60,"componentType":5126,"count":48,"type":"VEC3","min":[-0.051674678921699524,-0.14532257616519928,-0.07660289108753204],"max":[0.038573008030653,0.15191449224948883,0.058301445096731186]},{"bufferView":61,"componentType":5126,"count":48,"type":"VEC3","min":[-0.9826210141181946,-0.9536492228507996,-0.8986932039260864],"max":[0.8288977742195129,0.9536492228507996,0.9286786317825317]},{"bufferView":62,"componentType":5126,"count":48,"type":"VEC3","min":[-0.021596159785985947,-0.05326782539486885,-0.043323151767253876],"max":[0.038907501846551895,0.042884308844804764,0.0292339064180851]},{"bufferView":63,"componentType":5126,"count":48,"type":"VEC3","min":[-0.9709842205047607,-0.7950463891029358,-0.7668795585632324],"max":[0.7609654664993286,0.7950463891029358,0.8596160411834717]},{"bufferView":64,"componentType":5126,"count":48,"type":"VEC3","min":[-0.03521234169602394,-0.14595724642276764,-0.07660289108753204],"max":[0.05839601904153824,0.1506451517343521,0.058301445096731186]},{"bufferView":65,"componentType":5126,"count":48,"type":"VEC3","min":[-0.9966766834259033,-0.9536492228507996,-0.8986932039260864],"max":[0.8148421049118042,0.9536492228507996,0.9286786317825317]},{"bufferView":66,"componentType":5126,"count":48,"type":"VEC3","min":[-0.021596159785985947,-0.05326782539486885,-0.043323151767253876],"max":[0.038907501846551895,0.042884308844804764,0.0292339064180851]},{"bufferView":67,"componentType":5126,"count":48,"type":"VEC3","min":[-0.9709842205047607,-0.7950463891029358,-0.7668795585632324],"max":[0.7609654664993286,0.7950463891029358,0.8596160411834717]},{"bufferView":68,"componentType":5126,"count":48,"type":"VEC3","min":[-0.07373512536287308,-0.14841105043888092,-0.07259821146726608],"max":[0.09218942373991013,0.1568221002817154,0.059296704828739166]},{"bufferView":69,"componentType":5126,"count":48,"type":"VEC3","min":[-0.9159340858459473,-0.8969188928604126,-0.9502775073051453],"max":[0.8544314503669739,0.8969188928604126,0.82712721824646]},{"bufferView":70,"componentType":5126,"count":48,"type":"VEC3","min":[-0.021596159785985947,-0.05326782539486885,-0.043323151767253876],"max":[0.038907501846551895,0.042884308844804764,0.0292339064180851]},{"bufferView":71,"componentType":5126,"count":48,"type":"VEC3","min":[-0.9709842205047607,-0.7950463891029358,-0.7668795585632324],"max":[0.7609654664993286,0.7950463891029358,0.8596160411834717]},{"bufferView":72,"componentType":5126,"count":120,"type":"VEC3","min":[-0.20774556696414948,-0.2666032016277313,-0.2827290892601013],"max":[0.22947727143764496,0.3298623561859131,0.2827290892601013]},{"bufferView":73,"componentType":5126,"count":120,"type":"VEC3","min":[-0.9790873527526855,-0.9807558059692383,-0.9394624829292297],"max":[0.9078822135925293,0.8911102414131165,0.957029402256012]},{"bufferView":74,"componentType":5126,"count":72,"type":"VEC3","min":[-0.11103066802024841,-0.22699743509292603,-0.14634977281093597],"max":[0.15467572212219238,0.23132571578025818,0.1263497769832611]},{"bufferView":75,"componentType":5126,"count":72,"type":"VEC3","min":[-0.9994280934333801,-0.9966593980789185,-0.9642969369888306],"max":[0.8886703848838806,0.9966593980789185,0.9734946489334106]},{"bufferView":76,"componentType":5126,"count":66,"type":"VEC3","min":[-0.07999999821186066,-0.0678461566567421,-0.06928203254938126],"max":[0.07999999821186066,0.11215384304523468,0.06928203254938126]},{"bufferView":77,"componentType":5126,"count":66,"type":"VEC3","min":[-0.8480042219161987,-1.0,-0.9791909456253052],"max":[0.8480042219161987,0.7398532629013062,0.9791909456253052]},{"bufferView":78,"componentType":5126,"count":60,"type":"VEC3","min":[-0.08500000089406967,-0.15000000596046448,-0.07361216098070145],"max":[0.08500000089406967,0.15000000596046448,0.07361216098070145]},{"bufferView":79,"componentType":5126,"count":60,"type":"VEC3","min":[-0.8637788891792297,-1.0,-0.9974059462547302],"max":[0.8637788891792297,1.0,0.9974059462547302]},{"bufferView":80,"componentType":5126,"count":48,"type":"VEC3","min":[-0.06499999761581421,-0.1124546229839325,-0.20508728921413422],"max":[0.05258610472083092,0.1515028178691864,0.18333186209201813]},{"bufferView":81,"componentType":5126,"count":48,"type":"VEC3","min":[-0.8053981065750122,-0.8730794787406921,-0.8735679984092712],"max":[0.9955267906188965,0.781112790107727,0.8735679984092712]},{"bufferView":82,"componentType":5126,"count":48,"type":"VEC3","min":[-0.02800000086426735,-0.016200045123696327,-0.05976364389061928],"max":[0.02265247516334057,0.03620004653930664,0.05585065111517906]},{"bufferView":83,"componentType":5126,"count":48,"type":"VEC3","min":[-0.7980400919914246,-0.952387809753418,-0.9838699102401733],"max":[0.9864318370819092,0.893652081489563,0.9838699102401733]},{"bufferView":84,"componentType":5126,"count":48,"type":"VEC3","min":[-0.06499999761581421,-0.11211862415075302,-0.19216859340667725],"max":[0.05258610472083092,0.15028949081897736,0.1689082235097885]},{"bufferView":85,"componentType":5126,"count":48,"type":"VEC3","min":[-0.8048840761184692,-0.8605287671089172,-0.8539407849311829],"max":[0.9948914647102356,0.7554653882980347,0.8539407849311829]},{"bufferView":86,"componentType":5126,"count":48,"type":"VEC3","min":[-0.02800000086426735,-0.016200045123696327,-0.05976364389061928],"max":[0.02265247516334057,0.03620004653930664,0.05585065111517906]},{"bufferView":87,"componentType":5126,"count":48,"type":"VEC3","min":[-0.7980400919914246,-0.952387809753418,-0.9838699102401733],"max":[0.9864318370819092,0.893652081489563,0.9838699102401733]},{"bufferView":88,"componentType":5126,"count":48,"type":"VEC3","min":[-0.06499999761581421,-0.1124546229839325,-0.20508728921413422],"max":[0.05258610472083092,0.1515028178691864,0.18333186209201813]},{"bufferView":89,"componentType":5126,"count":48,"type":"VEC3","min":[-0.8053981065750122,-0.8730794787406921,-0.8735679984092712],"max":[0.9955267906188965,0.781112790107727,0.8735679984092712]},{"bufferView":90,"componentType":5126,"count":48,"type":"VEC3","min":[-0.02800000086426735,-0.016200045123696327,-0.05976364389061928],"max":[0.02265247516334057,0.03620004653930664,0.05585065111517906]},{"bufferView":91,"componentType":5126,"count":48,"type":"VEC3","min":[-0.7980400919914246,-0.952387809753418,-0.9838699102401733],"max":[0.9864318370819092,0.893652081489563,0.9838699102401733]},{"bufferView":92,"componentType":5126,"count":120,"type":"VEC3","min":[-0.24387523531913757,-0.22913862764835358,-0.31197693943977356],"max":[0.269386351108551,0.2672596275806427,0.31197693943977356]},{"bufferView":93,"componentType":5126,"count":120,"type":"VEC3","min":[-0.949074387550354,-0.9998248815536499,-0.9012678861618042],"max":[0.8820667266845703,0.9360707402229309,0.9172746539115906]},{"bufferView":94,"componentType":5126,"count":72,"type":"VEC3","min":[-0.23673409223556519,-0.20851372182369232,-0.1719713658094406],"max":[0.20753483474254608,0.24277056753635406,0.1276187002658844]},{"bufferView":95,"componentType":5126,"count":72,"type":"VEC3","min":[-0.6860220432281494,-0.7615948915481567,-0.9525184631347656],"max":[0.7518404722213745,0.7114302515983582,0.9576722979545593]},{"bufferView":96,"componentType":5126,"count":48,"type":"VEC3","min":[-0.12496715039014816,-0.03057979792356491,-0.052725791931152344],"max":[0.11655937135219574,0.06219864636659622,0.025911269709467888]},{"bufferView":97,"componentType":5126,"count":48,"type":"VEC3","min":[-0.9633640050888062,-0.9478248357772827,-0.9595613479614258],"max":[0.9633640050888062,0.899884819984436,0.8319442868232727]},{"bufferView":98,"componentType":5126,"count":48,"type":"VEC3","min":[-0.1373780071735382,-0.10700510442256927,-0.05405976250767708],"max":[0.11772133409976959,0.07980076223611832,0.025911269709467888]},{"bufferView":99,"componentType":5126,"count":48,"type":"VEC3","min":[-0.8288624882698059,-0.7429022789001465,-0.9661872982978821],"max":[0.8288624882698059,0.8495481014251709,0.8615606427192688]},{"bufferView":100,"componentType":5126,"count":120,"type":"VEC3","min":[-0.19871315360069275,-0.19464904069900513,-0.23398269712924957],"max":[0.21950000524520874,0.23079152405261993,0.23398269712924957]},{"bufferView":101,"componentType":5126,"count":120,"type":"VEC3","min":[-0.9634423851966858,-0.9906728863716125,-0.9118154048919678],"max":[0.9143136143684387,0.9323906898498535,0.9171266555786133]},{"bufferView":102,"componentType":5126,"count":72,"type":"VEC3","min":[-0.20669125020503998,-0.16632825136184692,-0.15343031287193298],"max":[0.1725829541683197,0.2029912918806076,0.10666968673467636]},{"bufferView":103,"componentType":5126,"count":72,"type":"VEC3","min":[-0.7163352966308594,-0.8115944266319275,-0.9152425527572632],"max":[0.7668622136116028,0.6590284705162048,0.9668200612068176]},{"bufferView":104,"componentType":5126,"count":120,"type":"VEC3","min":[-0.15355107188224792,-0.17346389591693878,-0.17548702657222748],"max":[0.16961362957954407,0.19242845475673676,0.17548702657222748]},{"bufferView":105,"componentType":5126,"count":120,"type":"VEC3","min":[-0.9638181924819946,-0.9858617782592773,-0.947520911693573],"max":[0.910042405128479,0.9459988474845886,0.9431279897689819]},{"bufferView":106,"componentType":5126,"count":48,"type":"VEC3","min":[-0.07373512536287308,-0.14841105043888092,-0.07259821146726608],"max":[0.09218942373991013,0.1568221002817154,0.059296704828739166]},{"bufferView":107,"componentType":5126,"count":48,"type":"VEC3","min":[-0.9159340858459473,-0.8969188928604126,-0.9502775073051453],"max":[0.8544314503669739,0.8969188928604126,0.82712721824646]},{"bufferView":108,"componentType":5126,"count":48,"type":"VEC3","min":[-0.03634233400225639,-0.05326782539486885,-0.0444759726524353],"max":[0.022153804078698158,0.042884308844804764,0.02898329310119152]},{"bufferView":109,"componentType":5126,"count":48,"type":"VEC3","min":[-0.8713446259498596,-0.7950463891029358,-0.7172736525535583],"max":[0.8606050610542297,0.7950463891029358,0.909221887588501]},{"bufferView":110,"componentType":5126,"count":48,"type":"VEC3","min":[-0.03521234169602394,-0.14595724642276764,-0.07660289108753204],"max":[0.05839601904153824,0.1506451517343521,0.058301445096731186]},{"bufferView":111,"componentType":5126,"count":48,"type":"VEC3","min":[-0.9966766834259033,-0.9536492228507996,-0.8986932039260864],"max":[0.8148421049118042,0.9536492228507996,0.9286786317825317]},{"bufferView":112,"componentType":5126,"count":48,"type":"VEC3","min":[-0.03634233400225639,-0.05326782539486885,-0.0444759726524353],"max":[0.022153804078698158,0.042884308844804764,0.02898329310119152]},{"bufferView":113,"componentType":5126,"count":48,"type":"VEC3","min":[-0.8713446259498596,-0.7950463891029358,-0.7172736525535583],"max":[0.8606050610542297,0.7950463891029358,0.909221887588501]},{"bufferView":114,"componentType":5126,"count":48,"type":"VEC3","min":[-0.051674678921699524,-0.14532257616519928,-0.07660289108753204],"max":[0.038573008030653,0.15191449224948883,0.058301445096731186]},{"bufferView":115,"componentType":5126,"count":48,"type":"VEC3","min":[-0.9826210141181946,-0.9536492228507996,-0.8986932039260864],"max":[0.8288977742195129,0.9536492228507996,0.9286786317825317]},{"bufferView":116,"componentType":5126,"count":48,"type":"VEC3","min":[-0.03634233400225639,-0.05326782539486885,-0.0444759726524353],"max":[0.022153804078698158,0.042884308844804764,0.02898329310119152]},{"bufferView":117,"componentType":5126,"count":48,"type":"VEC3","min":[-0.8713446259498596,-0.7950463891029358,-0.7172736525535583],"max":[0.8606050610542297,0.7950463891029358,0.909221887588501]},{"bufferView":118,"componentType":5126,"count":48,"type":"VEC3","min":[-0.09122025221586227,-0.14841105043888092,-0.07859340310096741],"max":[0.074219711124897,0.1568221002817154,0.056299105286598206]},{"bufferView":119,"componentType":5126,"count":48,"type":"VEC3","min":[-0.8786281943321228,-0.8969188928604126,-0.8005985617637634],"max":[0.8917374014854431,0.8969188928604126,0.9768061637878418]},{"bufferView":120,"componentType":5126,"count":48,"type":"VEC3","min":[-0.03634233400225639,-0.05326782539486885,-0.0444759726524353],"max":[0.022153804078698158,0.042884308844804764,0.02898329310119152]},{"bufferView":121,"componentType":5126,"count":48,"type":"VEC3","min":[-0.8713446259498596,-0.7950463891029358,-0.7172736525535583],"max":[0.8606050610542297,0.7950463891029358,0.909221887588501]},{"bufferView":122,"componentType":5126,"count":120,"type":"VEC3","min":[-0.20774556696414948,-0.2666032016277313,-0.2827290892601013],"max":[0.22947727143764496,0.3298623561859131,0.2827290892601013]},{"bufferView":123,"componentType":5126,"count":120,"type":"VEC3","min":[-0.9790873527526855,-0.9807558059692383,-0.9394624829292297],"max":[0.9078822135925293,0.8911102414131165,0.957029402256012]},{"bufferView":124,"componentType":5126,"count":72,"type":"VEC3","min":[-0.1410306692123413,-0.22728082537651062,-0.14634977281093597],"max":[0.12467571347951889,0.23088489472866058,0.1263497769832611]},{"bufferView":125,"componentType":5126,"count":72,"type":"VEC3","min":[-0.98563152551651,-0.9966593980789185,-0.9642969369888306],"max":[0.902466893196106,0.9966593980789185,0.9734946489334106]},{"bufferView":126,"componentType":5126,"count":66,"type":"VEC3","min":[-0.07999999821186066,-0.0678461566567421,-0.06928203254938126],"max":[0.07999999821186066,0.11215384304523468,0.06928203254938126]},{"bufferView":127,"componentType":5126,"count":66,"type":"VEC3","min":[-0.8480042219161987,-1.0,-0.9791909456253052],"max":[0.8480042219161987,0.7398532629013062,0.9791909456253052]},{"bufferView":128,"componentType":5126,"count":60,"type":"VEC3","min":[-0.08500000089406967,-0.15000000596046448,-0.07361216098070145],"max":[0.08500000089406967,0.15000000596046448,0.07361216098070145]},{"bufferView":129,"componentType":5126,"count":60,"type":"VEC3","min":[-0.8637788891792297,-1.0,-0.9974059462547302],"max":[0.8637788891792297,1.0,0.9974059462547302]},{"bufferView":130,"componentType":5126,"count":48,"type":"VEC3","min":[-0.06499999761581421,-0.1124546229839325,-0.20508728921413422],"max":[0.05258610472083092,0.1515028178691864,0.18333186209201813]},{"bufferView":131,"componentType":5126,"count":48,"type":"VEC3","min":[-0.8053981065750122,-0.8730794787406921,-0.8735679984092712],"max":[0.9955267906188965,0.781112790107727,0.8735679984092712]},{"bufferView":132,"componentType":5126,"count":48,"type":"VEC3","min":[-0.02800000086426735,-0.016200045123696327,-0.05976364389061928],"max":[0.02265247516334057,0.03620004653930664,0.05585065111517906]},{"bufferView":133,"componentType":5126,"count":48,"type":"VEC3","min":[-0.7980400919914246,-0.952387809753418,-0.9838699102401733],"max":[0.9864318370819092,0.893652081489563,0.9838699102401733]},{"bufferView":134,"componentType":5126,"count":48,"type":"VEC3","min":[-0.06499999761581421,-0.11211862415075302,-0.19216859340667725],"max":[0.05258610472083092,0.15028949081897736,0.1689082235097885]},{"bufferView":135,"componentType":5126,"count":48,"type":"VEC3","min":[-0.8048840761184692,-0.8605287671089172,-0.8539407849311829],"max":[0.9948914647102356,0.7554653882980347,0.8539407849311829]},{"bufferView":136,"componentType":5126,"count":48,"type":"VEC3","min":[-0.02800000086426735,-0.016200045123696327,-0.05976364389061928],"max":[0.02265247516334057,0.03620004653930664,0.05585065111517906]},{"bufferView":137,"componentType":5126,"count":48,"type":"VEC3","min":[-0.7980400919914246,-0.952387809753418,-0.9838699102401733],"max":[0.9864318370819092,0.893652081489563,0.9838699102401733]},{"bufferView":138,"componentType":5126,"count":48,"type":"VEC3","min":[-0.06499999761581421,-0.1124546229839325,-0.20508728921413422],"max":[0.05258610472083092,0.1515028178691864,0.18333186209201813]},{"bufferView":139,"componentType":5126,"count":48,"type":"VEC3","min":[-0.8053981065750122,-0.8730794787406921,-0.8735679984092712],"max":[0.9955267906188965,0.781112790107727,0.8735679984092712]},{"bufferView":140,"componentType":5126,"count":48,"type":"VEC3","min":[-0.02800000086426735,-0.016200045123696327,-0.05976364389061928],"max":[0.02265247516334057,0.03620004653930664,0.05585065111517906]},{"bufferView":141,"componentType":5126,"count":48,"type":"VEC3","min":[-0.7980400919914246,-0.952387809753418,-0.9838699102401733],"max":[0.9864318370819092,0.893652081489563,0.9838699102401733]}],"buffers":[{"byteLength":116064,"uri":"Rootstalker.bin"}]}