# RIFTBOUND | Z up | flat shaded
mtllib Rootstalker.mtl
o Trunk_0
usemtl wood
v 0.300000 0.040000 0.897295
v 0.187047 0.237022 0.857333
v -0.066756 0.285682 0.881035
v -0.270291 0.149339 0.739514
v -0.270291 -0.069339 0.863003
v -0.066756 -0.205682 0.942825
v 0.187047 -0.157022 0.815736
v 0.500000 0.040000 1.238828
v 0.311745 0.368369 1.431685
v -0.111260 0.449470 1.367324
v -0.450484 0.222231 1.258160
v -0.450484 -0.142231 1.366430
v -0.111260 -0.369470 1.439545
v 0.311745 -0.288369 1.260963
v 0.360000 0.040000 2.015880
v 0.224456 0.276426 1.980552
v -0.080108 0.334818 1.871742
v -0.324349 0.171206 1.863328
v -0.324349 -0.091206 2.038748
v -0.080108 -0.254818 1.898820
v 0.224456 -0.196426 1.921838
v 0.025000 0.040000 2.201200
f 19 12 13
f 19 22 18
f 7 4 2
f 11 10 4
f 11 18 10
f 11 4 12
f 11 12 19
f 11 19 18
f 17 18 22
f 17 22 16
f 17 10 18
f 17 16 10
f 3 4 10
f 3 10 2
f 3 2 4
f 9 10 16
f 9 2 10
f 9 8 2
f 15 8 9
f 15 9 16
f 15 16 22
f 15 22 21
f 20 19 13
f 20 13 21
f 20 22 19
f 20 21 22
f 1 2 8
f 1 8 7
f 1 7 2
f 14 21 13
f 14 13 7
f 14 7 8
f 14 8 15
f 14 15 21
f 5 13 12
f 5 12 4
f 5 4 7
f 6 7 13
f 6 13 5
f 6 5 7
o Bark_Cuirass_1
usemtl bark
v -0.350000 -0.355000 1.321200
v -0.350000 -0.355000 1.881200
v -0.350000 -0.245000 1.321200
v -0.350000 -0.245000 1.881200
v 0.350000 -0.355000 1.321200
v 0.350000 -0.355000 1.881200
v 0.350000 -0.245000 1.321200
v 0.350000 -0.245000 1.881200
v -0.295000 -0.410000 1.321200
v -0.295000 -0.410000 1.881200
v 0.295000 -0.410000 1.321200
v 0.295000 -0.410000 1.881200
v -0.295000 -0.190000 1.321200
v -0.295000 -0.190000 1.881200
v 0.295000 -0.190000 1.321200
v 0.295000 -0.190000 1.881200
v -0.295000 -0.355000 1.266200
v -0.295000 -0.245000 1.266200
v 0.295000 -0.355000 1.266200
v 0.295000 -0.245000 1.266200
v -0.295000 -0.355000 1.936200
v -0.295000 -0.245000 1.936200
v 0.295000 -0.355000 1.936200
v 0.295000 -0.245000 1.936200
f 31 23 39
f 44 36 26
f 29 42 37
f 40 25 35
f 46 30 38
f 34 28 45
f 32 43 24
f 33 41 27
f 25 23 24
f 25 24 26
f 36 38 37
f 36 37 35
f 36 25 26
f 36 35 25
f 44 26 24
f 44 24 43
f 29 41 42
f 29 27 41
f 29 37 38
f 29 38 30
f 40 35 37
f 40 37 42
f 40 42 41
f 40 41 39
f 40 23 25
f 40 39 23
f 28 27 29
f 28 29 30
f 46 28 30
f 46 45 28
f 46 38 36
f 46 36 44
f 46 44 43
f 46 43 45
f 32 24 23
f 32 23 31
f 32 45 43
f 32 34 45
f 33 27 28
f 33 28 34
f 33 39 41
f 33 31 39
f 33 32 31
f 33 34 32
o Exposed_Rift_2
usemtl rift
v 0.097500 -0.430000 1.431200
v 0.048750 -0.345563 1.431200
v -0.048750 -0.345563 1.431200
v -0.097500 -0.430000 1.431200
v -0.048750 -0.514437 1.431200
v 0.048750 -0.514437 1.431200
v 0.150000 -0.430000 1.665200
v 0.075000 -0.300096 1.665200
v -0.075000 -0.300096 1.665200
v -0.150000 -0.430000 1.665200
v -0.075000 -0.559904 1.665200
v 0.075000 -0.559904 1.665200
v 0.000000 -0.430000 1.791200
f 59 58 53
f 59 53 54
f 57 59 56
f 57 58 59
f 55 56 59
f 55 59 54
f 52 47 53
f 52 53 58
f 52 58 57
f 52 57 51
f 48 53 47
f 48 54 53
f 48 55 54
f 48 49 55
f 50 52 51
f 50 47 52
f 50 48 47
f 50 49 48
f 50 51 57
f 50 57 56
f 50 55 49
f 50 56 55
o Rib_Vine_3
usemtl moss
v -0.096588 -0.407254 1.811200
v -0.092793 -0.423894 1.790229
v -0.098958 -0.448972 1.798239
v -0.106563 -0.447831 1.824161
v -0.105098 -0.422048 1.832171
v -0.298517 -0.390111 1.751200
v -0.296866 -0.397345 1.742082
v -0.299547 -0.408249 1.745565
v -0.302853 -0.407753 1.756835
v -0.302217 -0.396543 1.760318
f 69 63 64
f 69 68 63
f 60 62 61
f 60 63 62
f 60 64 63
f 60 69 64
f 60 65 69
f 66 65 60
f 66 60 61
f 67 69 65
f 67 68 69
f 67 65 66
f 67 63 68
f 67 62 63
f 67 61 62
f 67 66 61
o Rib_Vine_4
usemtl moss
v -0.096588 -0.407254 1.631200
v -0.092793 -0.423894 1.610229
v -0.098958 -0.448972 1.618239
v -0.106563 -0.447831 1.644161
v -0.105098 -0.422048 1.652171
v -0.298517 -0.390111 1.571200
v -0.296866 -0.397345 1.562082
v -0.299547 -0.408249 1.565565
v -0.302853 -0.407753 1.576835
v -0.302217 -0.396543 1.580318
f 79 73 74
f 79 78 73
f 70 72 71
f 70 73 72
f 70 74 73
f 70 79 74
f 70 75 79
f 76 75 70
f 76 70 71
f 77 79 75
f 77 78 79
f 77 75 76
f 77 73 78
f 77 72 73
f 77 71 72
f 77 76 71
o Rib_Vine_5
usemtl moss
v -0.096588 -0.407254 1.451200
v -0.092793 -0.423894 1.430229
v -0.098958 -0.448972 1.438239
v -0.106563 -0.447831 1.464161
v -0.105098 -0.422048 1.472171
v -0.298517 -0.390111 1.391200
v -0.296866 -0.397345 1.382082
v -0.299547 -0.408249 1.385565
v -0.302853 -0.407753 1.396835
v -0.302217 -0.396543 1.400318
f 89 83 84
f 89 88 83
f 80 82 81
f 80 83 82
f 80 84 83
f 80 89 84
f 80 85 89
f 86 85 80
f 86 80 81
f 87 89 85
f 87 88 89
f 87 85 86
f 87 83 88
f 87 82 83
f 87 81 82
f 87 86 81
o Rib_Vine_6
usemtl moss
v 0.103412 -0.452746 1.811200
v 0.094902 -0.437952 1.790229
v 0.093437 -0.412169 1.798239
v 0.101042 -0.411028 1.824161
v 0.107207 -0.436106 1.832171
v 0.301483 -0.409889 1.751200
v 0.297783 -0.403457 1.742082
v 0.297147 -0.392247 1.745565
v 0.300453 -0.391751 1.756835
v 0.303134 -0.402655 1.760318
f 91 93 92
f 91 94 93
f 91 90 94
f 95 94 90
f 95 99 94
f 95 90 91
f 95 91 96
f 97 96 91
f 97 91 92
f 98 95 96
f 98 99 95
f 98 96 97
f 98 94 99
f 98 93 94
f 98 92 93
f 98 97 92
o Rib_Vine_7
usemtl moss
v 0.103412 -0.452746 1.631200
v 0.094902 -0.437952 1.610229
v 0.093437 -0.412169 1.618239
v 0.101042 -0.411028 1.644161
v 0.107207 -0.436106 1.652171
v 0.301483 -0.409889 1.571200
v 0.297783 -0.403457 1.562082
v 0.297147 -0.392247 1.565565
v 0.300453 -0.391751 1.576835
v 0.303134 -0.402655 1.580318
f 101 103 102
f 101 104 103
f 101 100 104
f 105 104 100
f 105 109 104
f 105 100 101
f 105 101 106
f 107 106 101
f 107 101 102
f 108 105 106
f 108 109 105
f 108 106 107
f 108 104 109
f 108 103 104
f 108 102 103
f 108 107 102
o Rib_Vine_8
usemtl moss
v 0.103412 -0.452746 1.451200
v 0.094902 -0.437952 1.430229
v 0.093437 -0.412169 1.438239
v 0.101042 -0.411028 1.464161
v 0.107207 -0.436106 1.472171
v 0.301483 -0.409889 1.391200
v 0.297783 -0.403457 1.382082
v 0.297147 -0.392247 1.385565
v 0.300453 -0.391751 1.396835
v 0.303134 -0.402655 1.400318
f 111 113 112
f 111 114 113
f 111 110 114
f 115 114 110
f 115 119 114
f 115 110 111
f 115 111 116
f 117 116 111
f 117 111 112
f 118 115 116
f 118 119 115
f 118 116 117
f 118 114 119
f 118 113 114
f 118 112 113
f 118 117 112
o Skull_9
usemtl bark
v 0.204000 -0.030000 2.181025
v 0.127192 0.110730 2.126627
v -0.045394 0.145487 2.185207
v -0.183798 0.048099 2.072385
v -0.183798 -0.108099 2.138727
v -0.045394 -0.205487 2.109637
v 0.127192 -0.170730 2.163240
v 0.340000 -0.030000 2.357191
v 0.211987 0.204549 2.445026
v -0.075657 0.262478 2.403737
v -0.306329 0.100165 2.448879
v -0.306329 -0.160165 2.395321
v -0.075657 -0.322478 2.389443
v 0.211987 -0.264549 2.434607
v 0.244800 -0.030000 2.795203
v 0.152630 0.138876 2.717785
v -0.054473 0.180584 2.793286
v -0.220557 0.063719 2.788257
v -0.220557 -0.123719 2.693589
v -0.054473 -0.240584 2.747915
v 0.152630 -0.198876 2.760013
v 0.017000 -0.030000 2.881200
f 139 141 137
f 134 133 127
f 132 139 131
f 132 133 139
f 130 129 123
f 130 123 131
f 130 131 137
f 136 137 141
f 136 141 134
f 136 134 135
f 136 129 130
f 136 130 137
f 122 123 129
f 122 129 121
f 122 121 123
f 128 121 129
f 128 129 136
f 128 136 135
f 128 127 121
f 128 134 127
f 128 135 134
f 120 121 127
f 138 137 131
f 138 131 139
f 138 139 137
f 140 139 133
f 140 133 134
f 140 141 139
f 140 134 141
f 125 123 121
f 125 132 131
f 125 133 132
f 126 121 120
f 126 125 121
f 126 133 125
f 126 127 133
f 126 120 127
f 124 131 123
f 124 125 131
f 124 123 125
o Split_Mask_10
usemtl woodlight
v -0.340000 -0.315000 2.316200
v -0.340000 -0.315000 2.646200
v -0.340000 -0.245000 2.316200
v -0.340000 -0.245000 2.646200
v 0.340000 -0.315000 2.316200
v 0.340000 -0.315000 2.646200
v 0.340000 -0.245000 2.316200
v 0.340000 -0.245000 2.646200
v -0.275000 -0.380000 2.316200
v -0.275000 -0.380000 2.646200
v 0.275000 -0.380000 2.316200
v 0.275000 -0.380000 2.646200
v -0.275000 -0.180000 2.316200
v -0.275000 -0.180000 2.646200
v 0.275000 -0.180000 2.316200
v 0.275000 -0.180000 2.646200
v -0.275000 -0.315000 2.251200
v -0.275000 -0.245000 2.251200
v 0.275000 -0.315000 2.251200
v 0.275000 -0.245000 2.251200
v -0.275000 -0.315000 2.711200
v -0.275000 -0.245000 2.711200
v 0.275000 -0.315000 2.711200
v 0.275000 -0.245000 2.711200
f 150 142 158
f 163 155 145
f 148 161 156
f 159 144 154
f 165 149 157
f 153 147 164
f 151 162 143
f 152 160 146
f 144 142 143
f 144 143 145
f 155 157 156
f 155 156 154
f 155 144 145
f 155 154 144
f 163 145 143
f 163 143 162
f 148 160 161
f 148 146 160
f 148 156 157
f 148 157 149
f 159 154 156
f 159 156 161
f 159 161 160
f 159 160 158
f 159 142 144
f 159 158 142
f 147 146 148
f 147 148 149
f 165 147 149
f 165 164 147
f 165 157 155
f 165 155 163
f 165 163 162
f 165 162 164
f 151 143 142
f 151 142 150
f 151 164 162
f 151 153 164
f 152 146 147
f 152 147 153
f 152 158 160
f 152 150 158
f 152 151 150
f 152 153 151
o Face_Slit_11
usemtl dark
v -0.200000 -0.403500 2.437700
v -0.200000 -0.403500 2.504700
v -0.200000 -0.396500 2.437700
v -0.200000 -0.396500 2.504700
v 0.200000 -0.403500 2.437700
v 0.200000 -0.403500 2.504700
v 0.200000 -0.396500 2.437700
v 0.200000 -0.396500 2.504700
v -0.186000 -0.417500 2.437700
v -0.186000 -0.417500 2.504700
v 0.186000 -0.417500 2.437700
v 0.186000 -0.417500 2.504700
v -0.186000 -0.382500 2.437700
v -0.186000 -0.382500 2.504700
v 0.186000 -0.382500 2.437700
v 0.186000 -0.382500 2.504700
v -0.186000 -0.403500 2.423700
v -0.186000 -0.396500 2.423700
v 0.186000 -0.403500 2.423700
v 0.186000 -0.396500 2.423700
v -0.186000 -0.403500 2.518700
v -0.186000 -0.396500 2.518700
v 0.186000 -0.403500 2.518700
v 0.186000 -0.396500 2.518700
f 174 166 182
f 187 179 169
f 172 185 180
f 183 168 178
f 189 173 181
f 175 186 167
f 177 171 188
f 176 184 170
f 168 166 167
f 168 167 169
f 179 181 180
f 179 180 178
f 179 168 169
f 179 178 168
f 187 169 167
f 187 167 186
f 172 180 181
f 172 181 173
f 183 178 180
f 183 180 185
f 183 166 168
f 183 182 166
f 171 172 173
f 171 170 172
f 189 171 173
f 189 188 171
f 189 181 179
f 189 179 187
f 189 187 186
f 189 186 188
f 175 167 166
f 175 166 174
f 184 183 185
f 184 182 183
f 184 172 170
f 184 185 172
f 177 188 186
f 177 186 175
f 176 170 171
f 176 171 177
f 176 182 184
f 176 174 182
f 176 175 174
f 176 177 175
o Eye_12
usemtl rift
v -0.192500 -0.430000 2.504200
v -0.192500 -0.430000 2.538200
v -0.192500 -0.416000 2.504200
v -0.192500 -0.416000 2.538200
v -0.087500 -0.430000 2.504200
v -0.087500 -0.430000 2.538200
v -0.087500 -0.416000 2.504200
v -0.087500 -0.416000 2.538200
v -0.184500 -0.438000 2.504200
v -0.184500 -0.438000 2.538200
v -0.095500 -0.438000 2.504200
v -0.095500 -0.438000 2.538200
v -0.184500 -0.408000 2.504200
v -0.184500 -0.408000 2.538200
v -0.095500 -0.408000 2.504200
v -0.095500 -0.408000 2.538200
v -0.184500 -0.430000 2.496200
v -0.184500 -0.416000 2.496200
v -0.095500 -0.430000 2.496200
v -0.095500 -0.416000 2.496200
v -0.184500 -0.430000 2.546200
v -0.184500 -0.416000 2.546200
v -0.095500 -0.430000 2.546200
v -0.095500 -0.416000 2.546200
f 198 190 206
f 211 203 193
f 196 209 204
f 207 192 202
f 213 197 205
f 201 195 212
f 199 210 191
f 200 208 194
f 192 190 191
f 192 191 193
f 203 205 204
f 203 204 202
f 203 192 193
f 203 202 192
f 211 193 191
f 211 191 210
f 196 208 209
f 196 194 208
f 196 204 205
f 196 205 197
f 207 202 204
f 207 204 209
f 207 209 208
f 207 208 206
f 207 190 192
f 207 206 190
f 195 194 196
f 195 196 197
f 213 195 197
f 213 212 195
f 213 205 203
f 213 203 211
f 213 211 210
f 213 210 212
f 199 191 190
f 199 190 198
f 199 212 210
f 199 201 212
f 200 194 195
f 200 195 201
f 200 206 208
f 200 198 206
f 200 199 198
f 200 201 199
o Antler_13
usemtl woodlight
v -0.210000 0.090000 2.781200
v -0.272936 0.056114 2.749732
v -0.288480 -0.020027 2.741960
v -0.244927 -0.081087 2.763737
v -0.175073 -0.081087 2.798664
v -0.131520 -0.020027 2.820440
v -0.147064 0.056114 2.812668
v -0.390000 0.045000 3.141200
v -0.421468 0.028057 3.125466
v -0.429240 -0.010013 3.121580
v -0.407463 -0.040544 3.132468
v -0.372537 -0.040544 3.149932
v -0.350760 -0.010013 3.160820
v -0.358532 0.028057 3.156934
f 222 215 216
f 222 216 223
f 226 219 220
f 226 220 227
f 218 220 219
f 218 215 214
f 218 217 216
f 218 216 215
f 218 214 220
f 218 226 225
f 218 219 226
f 224 216 217
f 224 223 216
f 224 217 218
f 224 218 225
f 221 222 223
f 221 226 227
f 221 223 224
f 221 225 226
f 221 224 225
f 221 220 214
f 221 227 220
f 221 214 215
f 221 215 222
o Antler_Branch_14
usemtl bark
v -0.390000 0.045000 3.141200
v -0.413740 0.013906 3.105590
v -0.404672 -0.036406 3.119192
v -0.375328 -0.036406 3.163208
v -0.366260 0.013906 3.176810
v -0.570000 0.010000 3.261200
v -0.575276 0.003090 3.253287
v -0.573260 -0.008090 3.256309
v -0.566740 -0.008090 3.266091
v -0.564724 0.003090 3.269113
f 228 231 230
f 228 232 231
f 228 230 229
f 235 229 230
f 235 234 229
f 235 230 231
f 235 231 236
f 233 228 229
f 233 229 234
f 237 235 236
f 237 234 235
f 237 233 234
f 237 231 232
f 237 236 231
f 237 232 228
f 237 228 233
o Antler_Tip_15
usemtl woodlight
v -0.434248 0.000000 3.149394
v -0.403673 -0.042798 3.143732
v -0.354203 -0.026450 3.134571
v -0.354203 0.026450 3.134571
v -0.403673 0.042798 3.143732
v -0.345900 0.000000 3.412293
v -0.341823 -0.005706 3.411538
v -0.335227 -0.003527 3.410316
v -0.335227 0.003527 3.410316
v -0.341823 0.005706 3.411538
f 241 239 238
f 241 238 242
f 241 240 239
f 244 239 240
f 244 240 245
f 244 238 239
f 244 243 238
f 247 242 238
f 247 238 243
f 246 243 244
f 246 244 245
f 246 247 243
f 246 240 241
f 246 245 240
f 246 241 242
f 246 242 247
o Eye_16
usemtl rift
v 0.087500 -0.430000 2.504200
v 0.087500 -0.430000 2.538200
v 0.087500 -0.416000 2.504200
v 0.087500 -0.416000 2.538200
v 0.192500 -0.430000 2.504200
v 0.192500 -0.430000 2.538200
v 0.192500 -0.416000 2.504200
v 0.192500 -0.416000 2.538200
v 0.095500 -0.438000 2.504200
v 0.095500 -0.438000 2.538200
v 0.184500 -0.438000 2.504200
v 0.184500 -0.438000 2.538200
v 0.095500 -0.408000 2.504200
v 0.095500 -0.408000 2.538200
v 0.184500 -0.408000 2.504200
v 0.184500 -0.408000 2.538200
v 0.095500 -0.430000 2.496200
v 0.095500 -0.416000 2.496200
v 0.184500 -0.430000 2.496200
v 0.184500 -0.416000 2.496200
v 0.095500 -0.430000 2.546200
v 0.095500 -0.416000 2.546200
v 0.184500 -0.430000 2.546200
v 0.184500 -0.416000 2.546200
f 256 248 264
f 269 261 251
f 254 267 262
f 265 250 260
f 271 255 263
f 259 253 270
f 257 268 249
f 258 266 252
f 250 248 249
f 250 249 251
f 261 263 262
f 261 262 260
f 261 250 251
f 261 260 250
f 269 251 249
f 269 249 268
f 254 266 267
f 254 252 266
f 254 262 263
f 254 263 255
f 265 260 262
f 265 262 267
f 265 267 266
f 265 266 264
f 265 248 250
f 265 264 248
f 253 252 254
f 253 254 255
f 271 253 255
f 271 270 253
f 271 263 261
f 271 261 269
f 271 269 268
f 271 268 270
f 257 249 248
f 257 248 256
f 257 270 268
f 257 259 270
f 258 252 253
f 258 253 259
f 258 264 266
f 258 256 264
f 258 257 256
f 258 259 257
o Antler_17
usemtl woodlight
v 0.210000 -0.090000 2.781200
v 0.272936 -0.056114 2.749732
v 0.288480 0.020027 2.741960
v 0.244927 0.081087 2.763737
v 0.175073 0.081087 2.798664
v 0.131520 0.020027 2.820440
v 0.147064 -0.056114 2.812668
v 0.390000 -0.045000 3.141200
v 0.421468 -0.028057 3.125466
v 0.429240 0.010013 3.121580
v 0.407463 0.040544 3.132468
v 0.372537 0.040544 3.149932
v 0.350760 0.010013 3.160820
v 0.358532 -0.028057 3.156934
f 280 273 274
f 280 274 281
f 284 277 278
f 284 278 285
f 282 274 275
f 282 281 274
f 276 278 277
f 276 273 272
f 276 275 274
f 276 274 273
f 276 272 278
f 276 284 283
f 276 277 284
f 276 283 282
f 276 282 275
f 279 280 281
f 279 284 285
f 279 281 282
f 279 283 284
f 279 282 283
f 279 278 272
f 279 285 278
f 279 272 273
f 279 273 280
o Antler_Branch_18
usemtl bark
v 0.390000 -0.045000 3.141200
v 0.413740 -0.013906 3.105590
v 0.404672 0.036406 3.119192
v 0.375328 0.036406 3.163208
v 0.366260 -0.013906 3.176810
v 0.570000 -0.010000 3.261200
v 0.575276 -0.003090 3.253287
v 0.573260 0.008090 3.256309
v 0.566740 0.008090 3.266091
v 0.564724 -0.003090 3.269113
f 286 289 288
f 286 290 289
f 286 288 287
f 293 287 288
f 293 292 287
f 293 288 289
f 293 289 294
f 291 286 287
f 291 287 292
f 295 293 294
f 295 292 293
f 295 291 292
f 295 289 290
f 295 294 289
f 295 290 286
f 295 286 291
o Antler_Tip_19
usemtl woodlight
v 0.345752 0.000000 3.133006
v 0.376327 -0.042798 3.138668
v 0.425797 -0.026450 3.147829
v 0.425797 0.026450 3.147829
v 0.376327 0.042798 3.138668
v 0.334100 0.000000 3.410108
v 0.338177 -0.005706 3.410862
v 0.344773 -0.003527 3.412084
v 0.344773 0.003527 3.412084
v 0.338177 0.005706 3.410862
f 299 298 297
f 299 296 300
f 299 297 296
f 302 296 297
f 302 301 296
f 303 297 298
f 303 302 297
f 303 298 299
f 303 299 304
f 305 301 302
f 305 303 304
f 305 302 303
f 305 300 296
f 305 296 301
f 305 299 300
f 305 304 299
o Moss_Crown_20
usemtl moss
v 0.058500 0.040000 2.831200
v 0.029250 0.090662 2.831200
v -0.029250 0.090662 2.831200
v -0.058500 0.040000 2.831200
v -0.029250 -0.010662 2.831200
v 0.029250 -0.010662 2.831200
v 0.090000 0.079000 3.091200
v 0.045000 0.156942 3.091200
v -0.045000 0.156942 3.091200
v -0.090000 0.079000 3.091200
v -0.045000 0.001058 3.091200
v 0.045000 0.001058 3.091200
v 0.000000 0.100000 3.231200
f 318 312 313
f 318 315 316
f 318 314 315
f 318 313 314
f 318 316 317
f 318 317 312
f 317 306 312
f 317 311 306
f 309 315 314
f 309 314 308
f 307 314 313
f 307 308 314
f 307 313 312
f 307 312 306
f 310 306 311
f 310 308 307
f 310 309 308
f 310 307 306
f 310 311 317
f 310 317 316
f 310 315 309
f 310 316 315
o Root_Shoulder_21
usemtl bark
v -0.278000 0.000000 1.688768
v -0.338995 0.150112 1.630399
v -0.476048 0.187186 1.678819
v -0.585957 0.083306 1.625844
v -0.585957 -0.083306 1.654199
v -0.476048 -0.187186 1.624802
v -0.338995 -0.150112 1.667945
v -0.170000 0.000000 1.848856
v -0.271658 0.250186 1.816390
v -0.500081 0.311977 1.857840
v -0.683262 0.138843 1.847576
v -0.683262 -0.138843 1.809581
v -0.500081 -0.311977 1.828109
v -0.271658 -0.250186 1.841958
v -0.245600 0.000000 2.055714
v -0.318794 0.180134 2.064008
v -0.483258 0.224623 2.002510
v -0.615148 0.099967 2.049355
v -0.615148 -0.099967 2.002069
v -0.483258 -0.224623 2.061909
v -0.318794 -0.180134 2.008837
v -0.426500 0.000000 2.121200
f 334 336 340
f 338 340 336
f 338 336 337
f 330 331 338
f 330 338 337
f 330 336 329
f 330 337 336
f 330 329 322
f 330 322 323
f 319 320 326
f 319 326 325
f 319 325 320
f 332 338 331
f 332 339 338
f 332 325 326
f 324 331 330
f 324 330 323
f 324 332 331
f 324 325 332
f 324 323 322
f 324 320 325
f 324 322 320
f 327 326 320
f 327 334 326
f 333 326 334
f 333 332 326
f 333 339 332
f 333 334 340
f 333 340 338
f 333 338 339
f 328 334 327
f 328 329 336
f 328 322 329
f 328 327 320
f 335 336 334
f 335 328 336
f 335 334 328
f 321 320 322
f 321 328 320
f 321 322 328
o Branch_Arm_22
usemtl bark
v -0.482540 0.146428 1.831200
v -0.388842 0.109396 1.748784
v -0.341198 -0.010014 1.728429
v -0.375484 -0.121883 1.785463
v -0.465882 -0.141971 1.876937
v -0.544321 -0.055153 1.933971
v -0.551734 0.073197 1.913616
v -0.741693 0.037619 1.551200
v -0.679228 0.012930 1.496256
v -0.647465 -0.066676 1.482686
v -0.670322 -0.141255 1.520709
v -0.730588 -0.154648 1.581692
v -0.782881 -0.096768 1.619714
v -0.787823 -0.011202 1.606144
f 353 346 347
f 353 347 354
f 348 347 341
f 348 354 347
f 348 341 342
f 348 342 349
f 350 351 352
f 350 353 354
f 350 354 348
f 350 352 353
f 350 348 349
f 350 343 344
f 350 344 351
f 350 342 343
f 350 349 342
f 345 344 343
f 345 341 347
f 345 347 346
f 345 343 342
f 345 342 341
f 345 346 353
f 345 353 352
f 345 352 351
f 345 351 344
o Shoulder_Thorn_23
usemtl woodlight
v -0.486854 -0.020592 1.911200
v -0.474269 -0.046457 1.874001
v -0.469604 -0.091038 1.888210
v -0.479306 -0.092726 1.934190
v -0.489967 -0.049187 1.948399
v -0.711028 -0.094089 1.861200
v -0.709140 -0.097969 1.855620
v -0.708441 -0.104656 1.857752
v -0.709896 -0.104909 1.864649
v -0.711495 -0.098378 1.866780
f 356 355 359
f 356 358 357
f 356 359 358
f 363 358 359
f 363 359 364
f 362 357 358
f 362 358 363
f 362 356 357
f 362 361 356
f 360 363 364
f 360 361 362
f 360 362 363
f 360 359 355
f 360 364 359
f 360 355 356
f 360 356 361
o Shoulder_Thorn_24
usemtl woodlight
v -0.486854 -0.020592 1.911200
v -0.502378 -0.051346 1.879195
v -0.486977 -0.094060 1.891420
v -0.461934 -0.089704 1.930980
v -0.461858 -0.044299 1.943205
v -0.711028 -0.094089 2.061200
v -0.713357 -0.098702 2.056399
v -0.711047 -0.105109 2.058233
v -0.707290 -0.104456 2.064167
v -0.707279 -0.097645 2.066001
f 370 365 366
f 370 366 371
f 368 366 365
f 368 365 369
f 368 367 366
f 372 366 367
f 372 371 366
f 372 367 368
f 372 368 373
f 374 370 371
f 374 371 372
f 374 372 373
f 374 369 365
f 374 365 370
f 374 368 369
f 374 373 368
o Elbow_Knot_25
usemtl woodlight
v -0.588000 -0.050000 1.355330
v -0.637699 0.062584 1.355524
v -0.749373 0.090390 1.336212
v -0.838928 0.012479 1.321063
v -0.838928 -0.112479 1.305759
v -0.749373 -0.190390 1.327502
v -0.637699 -0.162584 1.329159
v -0.500000 -0.050000 1.448188
v -0.582832 0.137640 1.448418
v -0.768955 0.183983 1.511146
v -0.918213 0.054132 1.488256
v -0.918213 -0.154132 1.460678
v -0.768955 -0.283983 1.473907
v -0.582832 -0.237640 1.509496
v -0.561600 -0.050000 1.680447
v -0.621239 0.085100 1.676919
v -0.755247 0.118468 1.647099
v -0.862713 0.024975 1.653740
v -0.862713 -0.124975 1.665862
v -0.755247 -0.218468 1.625213
v -0.621239 -0.185100 1.657869
v -0.709000 -0.050000 1.731200
f 386 379 387
f 386 387 393
f 386 393 385
f 392 393 396
f 392 384 385
f 392 385 393
f 394 396 393
f 394 395 396
f 394 393 387
f 394 387 395
f 380 387 379
f 380 381 387
f 380 379 381
f 388 395 387
f 388 387 381
f 388 381 382
f 375 382 381
f 389 396 395
f 389 390 396
f 389 388 382
f 389 395 388
f 391 390 384
f 391 384 392
f 391 396 390
f 391 392 396
f 383 382 375
f 383 384 390
f 383 389 382
f 383 390 389
f 377 381 379
f 377 384 383
f 376 375 381
f 376 381 377
f 376 383 375
f 376 377 383
f 378 377 379
f 378 386 385
f 378 379 386
f 378 385 384
f 378 384 377
o Long_Tendril_26
usemtl bark
v -0.756573 0.064291 1.511200
v -0.683915 0.040103 1.440637
v -0.638429 -0.051934 1.423209
v -0.654368 -0.142515 1.472040
v -0.719729 -0.163430 1.550360
v -0.785294 -0.098931 1.599191
v -0.801691 0.002415 1.581764
v -0.991334 -0.063330 1.281200
v -0.948950 -0.077440 1.240038
v -0.922417 -0.131128 1.229872
v -0.931715 -0.183967 1.258357
v -0.969842 -0.196168 1.304043
v -1.008088 -0.158543 1.332528
v -1.017653 -0.099425 1.322362
f 409 402 403
f 409 403 410
f 404 403 397
f 404 410 403
f 398 405 404
f 398 404 397
f 401 397 403
f 401 400 399
f 401 403 402
f 401 399 398
f 401 398 397
f 401 402 409
f 401 409 408
f 407 401 408
f 407 400 401
f 406 409 410
f 406 408 409
f 406 410 404
f 406 404 405
f 406 407 408
f 406 405 398
f 406 398 399
f 406 399 400
f 406 400 407
o Palm_27
usemtl woodlight
v -0.888000 -0.140000 1.134454
v -0.926404 -0.055562 1.109846
v -1.012697 -0.034708 1.136346
v -1.081899 -0.093141 1.085308
v -1.081899 -0.186859 1.115319
v -1.012697 -0.245292 1.102160
v -0.926404 -0.224438 1.126408
v -0.820000 -0.140000 1.214148
v -0.884007 0.000730 1.253883
v -1.027829 0.035487 1.235205
v -1.143165 -0.061901 1.255626
v -1.143165 -0.218099 1.231398
v -1.027829 -0.315487 1.228738
v -0.884007 -0.280730 1.249170
v -0.867600 -0.140000 1.412297
v -0.913685 -0.038675 1.377274
v -1.017237 -0.013649 1.411429
v -1.100279 -0.083769 1.409155
v -1.100279 -0.196231 1.366329
v -1.017237 -0.266351 1.390905
v -0.913685 -0.241325 1.396377
v -0.981500 -0.140000 1.451200
f 422 421 414
f 416 423 422
f 420 414 421
f 420 421 427
f 420 427 419
f 413 414 420
f 424 423 416
f 425 432 431
f 425 427 432
f 425 418 419
f 425 424 418
f 425 431 424
f 430 431 432
f 430 422 423
f 430 429 422
f 430 423 424
f 430 424 431
f 412 416 414
f 412 414 413
f 412 419 418
f 412 420 419
f 412 413 420
f 415 422 414
f 415 414 416
f 415 416 422
f 428 432 427
f 428 430 432
f 428 429 430
f 428 427 421
f 428 421 422
f 428 422 429
f 426 419 427
f 426 425 419
f 426 427 425
f 417 416 412
f 417 418 424
f 417 424 416
f 411 412 418
f 411 418 417
f 411 417 412
o Root_Finger_28
usemtl bark
v -0.900681 -0.202598 1.261200
v -0.912470 -0.160300 1.244378
v -0.875932 -0.131407 1.250803
v -0.841561 -0.155848 1.271597
v -0.856856 -0.199847 1.278022
v -0.776590 -0.266299 0.981200
v -0.782485 -0.245150 0.972789
v -0.764216 -0.230703 0.976002
v -0.747030 -0.242924 0.986398
v -0.754678 -0.264924 0.989611
f 433 435 434
f 433 436 435
f 433 437 436
f 442 436 437
f 442 441 436
f 442 437 433
f 442 433 438
f 439 438 433
f 439 433 434
f 440 442 438
f 440 441 442
f 440 438 439
f 440 436 441
f 440 435 436
f 440 434 435
f 440 439 434
o Hooked_Nail_29
usemtl moss
v -0.783842 -0.236810 0.991200
v -0.780796 -0.260172 0.977932
v -0.755920 -0.269476 0.983000
v -0.743592 -0.251865 0.999400
v -0.760849 -0.231677 1.004468
v -0.804096 -0.297133 1.071200
v -0.803434 -0.302211 1.068316
v -0.798026 -0.304234 1.069417
v -0.795346 -0.300406 1.072983
v -0.799098 -0.296017 1.074084
f 452 447 443
f 452 443 448
f 452 446 447
f 452 451 446
f 445 443 447
f 445 447 446
f 445 444 443
f 450 446 451
f 450 445 446
f 449 452 448
f 449 451 452
f 449 450 451
f 449 443 444
f 449 448 443
f 449 444 445
f 449 445 450
o Root_Finger_30
usemtl bark
v -0.912854 -0.170000 1.266510
v -0.941625 -0.206603 1.273115
v -0.985425 -0.192622 1.263254
v -0.983724 -0.147378 1.250555
v -0.938873 -0.133397 1.252567
v -0.895177 -0.250000 0.983855
v -0.909562 -0.268301 0.987157
v -0.931462 -0.261311 0.982227
v -0.930612 -0.238689 0.975877
v -0.908186 -0.231699 0.976884
f 456 455 454
f 456 453 457
f 456 454 453
f 462 457 453
f 462 453 458
f 462 456 457
f 462 461 456
f 459 458 453
f 459 453 454
f 460 461 462
f 460 462 458
f 460 458 459
f 460 456 461
f 460 455 456
f 460 454 455
f 460 459 454
o Hooked_Nail_31
usemtl moss
v -0.933842 -0.236810 0.991200
v -0.930796 -0.260172 0.977932
v -0.905920 -0.269476 0.983000
v -0.893592 -0.251865 0.999400
v -0.910849 -0.231677 1.004468
v -0.954096 -0.297133 1.071200
v -0.953434 -0.302211 1.068316
v -0.948026 -0.304234 1.069417
v -0.945346 -0.300406 1.072983
v -0.949098 -0.296017 1.074084
f 472 467 463
f 472 463 468
f 472 466 467
f 472 471 466
f 465 463 467
f 465 467 466
f 465 464 463
f 470 466 471
f 470 465 466
f 469 472 468
f 469 471 472
f 469 470 471
f 469 463 464
f 469 468 463
f 469 464 465
f 469 465 470
o Root_Finger_32
usemtl bark
v -0.987854 -0.170000 1.255890
v -1.013873 -0.206603 1.269833
v -1.058724 -0.192622 1.271845
v -1.060425 -0.147378 1.259146
v -1.016625 -0.133397 1.249286
v -1.045177 -0.250000 0.978545
v -1.058186 -0.268301 0.985516
v -1.080612 -0.261311 0.986523
v -1.081462 -0.238689 0.980173
v -1.059562 -0.231699 0.975243
f 480 475 476
f 480 476 481
f 474 473 477
f 474 477 476
f 474 476 475
f 474 475 480
f 474 480 479
f 482 481 476
f 482 476 477
f 478 479 480
f 478 480 481
f 478 481 482
f 478 474 479
f 478 473 474
f 478 477 473
f 478 482 477
o Hooked_Nail_33
usemtl moss
v -1.083842 -0.236810 0.991200
v -1.080796 -0.260172 0.977932
v -1.055920 -0.269476 0.983000
v -1.043592 -0.251865 0.999400
v -1.060849 -0.231677 1.004468
v -1.104096 -0.297133 1.071200
v -1.103434 -0.302211 1.068316
v -1.098026 -0.304234 1.069417
v -1.095346 -0.300406 1.072983
v -1.099098 -0.296017 1.074084
f 492 487 483
f 492 483 488
f 492 486 487
f 492 491 486
f 485 483 487
f 485 487 486
f 485 484 483
f 490 486 491
f 490 485 486
f 489 492 488
f 489 491 492
f 489 490 491
f 489 483 484
f 489 488 483
f 489 484 485
f 489 485 490
o Root_Finger_34
usemtl bark
v -1.125681 -0.137402 1.261200
v -1.081856 -0.140153 1.244378
v -1.066561 -0.184152 1.250803
v -1.100932 -0.208593 1.271597
v -1.137470 -0.179700 1.278022
v -1.226590 -0.233701 0.981200
v -1.204678 -0.235076 0.972789
v -1.197030 -0.257076 0.976002
v -1.214216 -0.269297 0.986398
v -1.232485 -0.254850 0.989611
f 498 497 493
f 498 502 497
f 494 496 495
f 494 497 496
f 494 493 497
f 494 498 493
f 494 499 498
f 501 497 502
f 501 496 497
f 500 498 499
f 500 502 498
f 500 501 502
f 500 499 494
f 500 494 495
f 500 495 496
f 500 496 501
o Hooked_Nail_35
usemtl moss
v -1.233842 -0.236810 0.991200
v -1.230796 -0.260172 0.977932
v -1.205920 -0.269476 0.983000
v -1.193592 -0.251865 0.999400
v -1.210849 -0.231677 1.004468
v -1.254096 -0.297133 1.071200
v -1.253434 -0.302211 1.068316
v -1.248026 -0.304234 1.069417
v -1.245346 -0.300406 1.072983
v -1.249098 -0.296017 1.074084
f 512 507 503
f 512 503 508
f 512 506 507
f 512 511 506
f 505 503 507
f 505 507 506
f 505 504 503
f 510 506 511
f 510 505 506
f 509 512 508
f 509 511 512
f 509 510 511
f 509 503 504
f 509 508 503
f 509 504 505
f 509 505 510
o Root_Hip_36
usemtl bark
v -0.102000 0.000000 0.770744
v -0.153958 0.136039 0.714734
v -0.270708 0.169637 0.745102
v -0.364334 0.075496 0.761843
v -0.364334 -0.075496 0.755943
v -0.270708 -0.169637 0.775077
v -0.153958 -0.136039 0.769798
v -0.010000 0.000000 0.983351
v -0.096597 0.226731 0.897752
v -0.291180 0.282729 0.937176
v -0.447223 0.125826 0.941755
v -0.447223 -0.125826 0.901455
v -0.291180 -0.282729 0.895740
v -0.096597 -0.226731 0.974940
v -0.074400 0.000000 1.245597
v -0.136750 0.163246 1.226523
v -0.276849 0.203565 1.181498
v -0.389200 0.090595 1.218912
v -0.389200 -0.090595 1.179921
v -0.276849 -0.203565 1.222312
v -0.136750 -0.163246 1.178056
v -0.228500 0.000000 1.311200
f 530 531 534
f 532 534 531
f 516 514 517
f 524 517 525
f 524 525 532
f 524 532 531
f 524 530 523
f 524 531 530
f 524 523 516
f 524 516 517
f 513 514 520
f 513 519 514
f 526 525 519
f 526 532 525
f 526 533 532
f 526 513 520
f 526 519 513
f 518 525 517
f 518 519 525
f 518 517 514
f 518 514 519
f 521 520 514
f 521 528 520
f 527 520 528
f 527 526 520
f 527 533 526
f 527 528 534
f 527 534 532
f 527 532 533
f 515 516 523
f 515 514 516
f 522 528 521
f 522 523 530
f 522 515 523
f 522 521 514
f 522 514 515
f 529 522 530
f 529 528 522
f 529 530 534
f 529 534 528
o Bent_Leg_37
usemtl woodlight
v -0.100324 0.000000 0.961677
v -0.152576 -0.109344 0.970210
v -0.270660 -0.136350 0.979488
v -0.365656 -0.060681 0.982526
v -0.366031 0.060681 0.977035
v -0.271501 0.136350 0.967150
v -0.153251 0.109344 0.960315
v -0.180208 -0.020000 0.525078
v -0.213799 -0.090293 0.530563
v -0.289710 -0.107653 0.536528
v -0.350779 -0.059009 0.538481
v -0.351020 0.019009 0.534951
v -0.290251 0.067653 0.528597
v -0.214233 0.050293 0.524203
f 547 540 541
f 547 541 548
f 542 541 535
f 542 548 541
f 536 535 541
f 536 540 539
f 536 539 538
f 536 538 537
f 536 541 540
f 536 543 542
f 536 542 535
f 544 537 538
f 544 538 545
f 544 536 537
f 544 543 536
f 546 548 542
f 546 547 548
f 546 544 545
f 546 542 543
f 546 543 544
f 546 538 539
f 546 545 538
f 546 539 540
f 546 540 547
o Knee_Moss_38
usemtl moss
v -0.218000 -0.140000 0.551200
v -0.244000 -0.094967 0.551200
v -0.296000 -0.094967 0.551200
v -0.322000 -0.140000 0.551200
v -0.296000 -0.185033 0.551200
v -0.244000 -0.185033 0.551200
v -0.190000 -0.140000 0.668200
v -0.230000 -0.070718 0.668200
v -0.310000 -0.070718 0.668200
v -0.350000 -0.140000 0.668200
v -0.310000 -0.209282 0.668200
v -0.230000 -0.209282 0.668200
v -0.270000 -0.140000 0.731200
f 561 560 555
f 561 558 559
f 561 555 556
f 561 559 560
f 561 556 557
f 561 557 558
f 553 559 558
f 553 558 552
f 551 552 558
f 551 558 557
f 554 549 555
f 554 555 560
f 554 559 553
f 554 560 559
f 550 553 552
f 550 549 554
f 550 552 551
f 550 554 553
f 550 555 549
f 550 556 555
f 550 551 557
f 550 557 556
o Lower_Root_Shin_39
usemtl bark
v -0.185000 -0.020000 0.531200
v -0.227500 -0.093612 0.531200
v -0.312500 -0.093612 0.531200
v -0.355000 -0.020000 0.531200
v -0.312500 0.053612 0.531200
v -0.227500 0.053612 0.531200
v -0.210000 -0.020000 0.231200
v -0.240000 -0.071962 0.231200
v -0.300000 -0.071962 0.231200
v -0.330000 -0.020000 0.231200
v -0.300000 0.031962 0.231200
v -0.240000 0.031962 0.231200
f 573 567 562
f 573 562 568
f 573 566 567
f 573 572 566
f 564 562 567
f 564 566 565
f 564 563 562
f 564 567 566
f 571 566 572
f 571 565 566
f 571 564 565
f 571 570 564
f 569 572 573
f 569 573 568
f 569 571 572
f 569 570 571
f 569 562 563
f 569 568 562
f 569 563 564
f 569 564 570
o Root_Toe_40
usemtl bark
v -0.415000 -0.020000 0.221200
v -0.370086 0.010087 0.167197
v -0.297414 -0.001405 0.187824
v -0.297414 -0.038595 0.254576
v -0.370086 -0.050087 0.275203
v -0.368000 -0.370000 0.026200
v -0.355562 -0.361668 0.011245
v -0.335438 -0.364851 0.016958
v -0.335438 -0.375149 0.035443
v -0.355562 -0.378332 0.041155
f 575 574 578
f 575 577 576
f 575 578 577
f 582 577 578
f 582 578 583
f 579 578 574
f 579 583 578
f 579 574 575
f 579 575 580
f 581 582 583
f 581 579 580
f 581 583 579
f 581 576 577
f 581 577 582
f 581 575 576
f 581 580 575
o Toe_Claw_41
usemtl woodlight
v -0.378000 -0.370000 0.026200
v -0.358652 -0.365236 0.000000
v -0.327348 -0.367056 0.010008
v -0.327348 -0.372944 0.042393
v -0.358652 -0.374764 0.052400
v -0.355000 -0.480000 0.006200
v -0.351545 -0.479149 0.001521
v -0.345955 -0.479474 0.003309
v -0.345955 -0.480526 0.009092
v -0.351545 -0.480851 0.010879
f 585 584 588
f 585 587 586
f 585 588 587
f 592 587 588
f 592 588 593
f 589 588 584
f 589 593 588
f 591 586 587
f 591 587 592
f 590 592 593
f 590 593 589
f 590 591 592
f 590 584 585
f 590 589 584
f 590 585 586
f 590 586 591
o Root_Toe_42
usemtl bark
v -0.335000 -0.020000 0.221200
v -0.290086 0.012169 0.168411
v -0.217414 -0.000119 0.188574
v -0.217414 -0.039881 0.253826
v -0.290086 -0.052169 0.273990
v -0.288000 -0.340000 0.026200
v -0.275562 -0.331092 0.011581
v -0.255438 -0.334494 0.017165
v -0.255438 -0.345506 0.035235
v -0.275562 -0.348908 0.040819
f 595 594 598
f 595 597 596
f 595 598 597
f 602 597 598
f 602 598 603
f 599 598 594
f 599 603 598
f 601 596 597
f 601 597 602
f 600 602 603
f 600 603 599
f 600 601 602
f 600 594 595
f 600 599 594
f 600 595 596
f 600 596 601
o Toe_Claw_43
usemtl woodlight
v -0.298000 -0.340000 0.026200
v -0.278652 -0.335236 0.000000
v -0.247348 -0.337056 0.010008
v -0.247348 -0.342944 0.042393
v -0.278652 -0.344764 0.052400
v -0.275000 -0.450000 0.006200
v -0.271545 -0.449149 0.001521
v -0.265955 -0.449474 0.003309
v -0.265955 -0.450526 0.009092
v -0.271545 -0.450851 0.010879
f 605 604 608
f 605 607 606
f 605 608 607
f 612 607 608
f 612 608 613
f 609 608 604
f 609 613 608
f 610 604 605
f 610 609 604
f 611 612 613
f 611 613 609
f 611 609 610
f 611 606 607
f 611 607 612
f 611 605 606
f 611 610 605
o Root_Toe_44
usemtl bark
v -0.255000 -0.020000 0.221200
v -0.210086 0.010087 0.167197
v -0.137414 -0.001405 0.187824
v -0.137414 -0.038595 0.254576
v -0.210086 -0.050087 0.275203
v -0.208000 -0.370000 0.026200
v -0.195562 -0.361668 0.011245
v -0.175438 -0.364851 0.016958
v -0.175438 -0.375149 0.035443
v -0.195562 -0.378332 0.041155
f 615 614 618
f 615 617 616
f 615 618 617
f 622 617 618
f 622 618 623
f 619 618 614
f 619 623 618
f 619 614 615
f 619 615 620
f 621 622 623
f 621 619 620
f 621 623 619
f 621 616 617
f 621 617 622
f 621 615 616
f 621 620 615
o Toe_Claw_45
usemtl woodlight
v -0.218000 -0.370000 0.026200
v -0.198652 -0.365236 0.000000
v -0.167348 -0.367056 0.010008
v -0.167348 -0.372944 0.042393
v -0.198652 -0.374764 0.052400
v -0.195000 -0.480000 0.006200
v -0.191545 -0.479149 0.001521
v -0.185955 -0.479474 0.003309
v -0.185955 -0.480526 0.009092
v -0.191545 -0.480851 0.010879
f 625 624 628
f 625 627 626
f 625 628 627
f 632 627 628
f 632 628 633
f 629 628 624
f 629 633 628
f 629 624 625
f 629 625 630
f 631 632 633
f 631 629 630
f 631 633 629
f 631 626 627
f 631 627 632
f 631 625 626
f 631 630 625
o Root_Shoulder_46
usemtl bark
v 0.602000 0.000000 1.688768
v 0.541005 0.150112 1.630399
v 0.403952 0.187186 1.678819
v 0.294043 0.083306 1.625844
v 0.294043 -0.083306 1.654199
v 0.403952 -0.187186 1.624802
v 0.541005 -0.150112 1.667945
v 0.710000 0.000000 1.848856
v 0.608342 0.250186 1.816390
v 0.379919 0.311977 1.857840
v 0.196738 0.138843 1.847576
v 0.196738 -0.138843 1.809581
v 0.379919 -0.311977 1.828109
v 0.608342 -0.250186 1.841958
v 0.634400 0.000000 2.055714
v 0.561206 0.180134 2.064008
v 0.396742 0.224623 2.002510
v 0.264852 0.099967 2.049355
v 0.264852 -0.099967 2.002069
v 0.396742 -0.224623 2.061909
v 0.561206 -0.180134 2.008837
v 0.453500 0.000000 2.121200
f 649 651 655
f 652 651 645
f 642 635 643
f 642 643 649
f 642 641 635
f 642 649 641
f 650 643 651
f 650 649 643
f 650 651 649
f 636 643 635
f 636 637 643
f 636 635 637
f 644 651 643
f 644 643 637
f 644 645 651
f 644 637 645
f 648 649 655
f 648 641 649
f 634 635 641
f 634 641 640
f 634 640 635
f 647 640 641
f 647 641 648
f 647 648 654
f 639 646 645
f 639 647 646
f 639 640 647
f 639 637 635
f 639 635 640
f 653 646 647
f 653 647 654
f 653 645 646
f 653 652 645
f 653 648 655
f 653 654 648
f 653 655 651
f 653 651 652
f 638 645 637
f 638 639 645
f 638 637 639
o Branch_Arm_47
usemtl bark
v 0.417460 -0.146428 1.831200
v 0.348266 -0.073197 1.748784
v 0.355679 0.055153 1.728429
v 0.434118 0.141971 1.785463
v 0.524516 0.121883 1.876937
v 0.558802 0.010014 1.933971
v 0.511158 -0.109396 1.913616
v 0.698307 -0.157619 1.551200
v 0.652177 -0.108798 1.496256
v 0.657119 -0.023232 1.482686
v 0.709412 0.034648 1.520709
v 0.769678 0.021255 1.581692
v 0.792535 -0.053324 1.619714
v 0.760772 -0.132930 1.606144
f 662 657 656
f 662 660 659
f 662 658 657
f 662 661 660
f 662 659 658
f 666 658 659
f 666 665 658
f 669 661 662
f 669 668 661
f 669 662 656
f 669 656 663
f 664 657 658
f 664 658 665
f 664 656 657
f 664 663 656
f 667 668 669
f 667 664 665
f 667 665 666
f 667 669 663
f 667 663 664
f 667 660 661
f 667 661 668
f 667 659 660
f 667 666 659
o Shoulder_Thorn_48
usemtl woodlight
v 0.473146 -0.099408 1.911200
v 0.470033 -0.070813 1.874001
v 0.480694 -0.027274 1.888210
v 0.490396 -0.028962 1.934190
v 0.485731 -0.073543 1.948399
v 0.708972 -0.105911 1.861200
v 0.708505 -0.101622 1.855620
v 0.710104 -0.095091 1.857752
v 0.711559 -0.095344 1.864649
v 0.710860 -0.102031 1.866780
f 677 672 673
f 677 673 678
f 677 671 672
f 677 676 671
f 670 673 672
f 670 672 671
f 670 674 673
f 679 673 674
f 679 678 673
f 675 677 678
f 675 676 677
f 675 678 679
f 675 671 676
f 675 670 671
f 675 674 670
f 675 679 674
o Shoulder_Thorn_49
usemtl woodlight
v 0.473146 -0.099408 1.911200
v 0.498142 -0.075701 1.879195
v 0.498066 -0.030296 1.891420
v 0.473023 -0.025940 1.930980
v 0.457622 -0.068654 1.943205
v 0.708972 -0.105911 2.061200
v 0.712721 -0.102355 2.056399
v 0.712710 -0.095544 2.058233
v 0.708953 -0.094891 2.064167
v 0.706643 -0.101298 2.066001
f 682 680 684
f 682 684 683
f 682 681 680
f 685 680 681
f 685 681 686
f 685 684 680
f 685 689 684
f 688 683 684
f 688 684 689
f 687 689 685
f 687 685 686
f 687 688 689
f 687 681 682
f 687 686 681
f 687 682 683
f 687 683 688
o Elbow_Knot_50
usemtl woodlight
v 0.852000 -0.050000 1.355330
v 0.802301 0.062584 1.355524
v 0.690627 0.090390 1.336212
v 0.601072 0.012479 1.321063
v 0.601072 -0.112479 1.305759
v 0.690627 -0.190390 1.327502
v 0.802301 -0.162584 1.329159
v 0.940000 -0.050000 1.448188
v 0.857168 0.137640 1.448418
v 0.671045 0.183983 1.511146
v 0.521787 0.054132 1.488256
v 0.521787 -0.154132 1.460678
v 0.671045 -0.283983 1.473907
v 0.857168 -0.237640 1.509496
v 0.878400 -0.050000 1.680447
v 0.818761 0.085100 1.676919
v 0.684753 0.118468 1.647099
v 0.577287 0.024975 1.653740
v 0.577287 -0.124975 1.665862
v 0.684753 -0.218468 1.625213
v 0.818761 -0.185100 1.657869
v 0.731000 -0.050000 1.731200
f 701 694 702
f 701 702 708
f 701 708 700
f 707 708 711
f 707 699 700
f 707 700 708
f 709 711 708
f 709 710 711
f 709 708 702
f 709 702 710
f 695 702 694
f 695 696 702
f 695 694 696
f 703 710 702
f 703 702 696
f 703 696 697
f 690 697 696
f 704 711 710
f 704 705 711
f 704 703 697
f 704 710 703
f 706 705 699
f 706 699 707
f 706 711 705
f 706 707 711
f 698 697 690
f 698 699 705
f 698 704 697
f 698 705 704
f 692 696 694
f 692 699 698
f 691 690 696
f 691 696 692
f 691 698 690
f 691 692 698
f 693 692 694
f 693 701 700
f 693 694 701
f 693 700 699
f 693 699 692
o Long_Tendril_51
usemtl bark
v 0.683427 -0.164291 1.511200
v 0.638309 -0.102415 1.440637
v 0.654706 -0.001069 1.423209
v 0.720271 0.063430 1.472040
v 0.785632 0.042515 1.550360
v 0.801571 -0.048066 1.599191
v 0.756085 -0.140103 1.581764
v 0.948666 -0.196670 1.281200
v 0.922347 -0.160575 1.240038
v 0.931912 -0.101457 1.229872
v 0.970158 -0.063832 1.258357
v 1.008285 -0.076033 1.304043
v 1.017583 -0.128872 1.332528
v 0.991050 -0.182560 1.322362
f 718 713 712
f 718 716 715
f 718 714 713
f 718 717 716
f 718 715 714
f 722 714 715
f 722 721 714
f 725 717 718
f 725 724 717
f 725 718 712
f 725 712 719
f 720 713 714
f 720 714 721
f 720 712 713
f 720 719 712
f 723 724 725
f 723 720 721
f 723 721 722
f 723 725 719
f 723 719 720
f 723 716 717
f 723 717 724
f 723 715 716
f 723 722 715
o Palm_52
usemtl woodlight
v 1.092000 -0.140000 1.134454
v 1.053596 -0.055562 1.109846
v 0.967303 -0.034708 1.136346
v 0.898101 -0.093141 1.085308
v 0.898101 -0.186859 1.115319
v 0.967303 -0.245292 1.102160
v 1.053596 -0.224438 1.126408
v 1.160000 -0.140000 1.214148
v 1.095993 0.000730 1.253883
v 0.952171 0.035487 1.235205
v 0.836835 -0.061901 1.255626
v 0.836835 -0.218099 1.231398
v 0.952171 -0.315487 1.228738
v 1.095993 -0.280730 1.249170
v 1.112400 -0.140000 1.412297
v 1.066315 -0.038675 1.377274
v 0.962763 -0.013649 1.411429
v 0.879721 -0.083769 1.409155
v 0.879721 -0.196231 1.366329
v 0.962763 -0.266351 1.390905
v 1.066315 -0.241325 1.396377
v 0.998500 -0.140000 1.451200
f 737 736 729
f 731 738 737
f 735 729 736
f 735 736 742
f 735 742 734
f 728 729 735
f 739 738 731
f 740 747 746
f 740 742 747
f 740 733 734
f 740 739 733
f 740 746 739
f 745 746 747
f 745 737 738
f 745 744 737
f 745 738 739
f 745 739 746
f 727 731 729
f 727 729 728
f 727 734 733
f 727 735 734
f 727 728 735
f 730 737 729
f 730 729 731
f 730 731 737
f 743 747 742
f 743 745 747
f 743 744 745
f 743 742 736
f 743 736 737
f 743 737 744
f 741 734 742
f 741 740 734
f 741 742 740
f 732 731 727
f 732 733 739
f 732 739 731
f 726 727 733
f 726 733 732
f 726 732 727
o Root_Finger_53
usemtl bark
v 0.854319 -0.137402 1.261200
v 0.898144 -0.140153 1.244378
v 0.913439 -0.184152 1.250803
v 0.879068 -0.208593 1.271597
v 0.842530 -0.179700 1.278022
v 0.753410 -0.233701 0.981200
v 0.775322 -0.235076 0.972789
v 0.782970 -0.257076 0.976002
v 0.765784 -0.269297 0.986398
v 0.747515 -0.254850 0.989611
f 753 752 748
f 753 757 752
f 749 751 750
f 749 752 751
f 749 748 752
f 749 753 748
f 749 754 753
f 756 752 757
f 756 751 752
f 755 753 754
f 755 757 753
f 755 756 757
f 755 754 749
f 755 749 750
f 755 750 751
f 755 751 756
o Hooked_Nail_54
usemtl moss
v 0.746158 -0.263190 0.991200
v 0.769151 -0.268323 0.977932
v 0.786408 -0.248135 0.983000
v 0.774080 -0.230524 0.999400
v 0.749204 -0.239828 1.004468
v 0.795904 -0.302867 1.071200
v 0.800902 -0.303983 1.068316
v 0.804654 -0.299594 1.069417
v 0.801974 -0.295766 1.072983
v 0.796566 -0.297789 1.074084
f 762 759 758
f 762 761 760
f 762 760 759
f 764 759 760
f 764 760 765
f 763 758 759
f 763 759 764
f 766 760 761
f 766 765 760
f 767 764 765
f 767 763 764
f 767 765 766
f 767 762 758
f 767 758 763
f 767 761 762
f 767 766 761
o Root_Finger_55
usemtl bark
v 0.992146 -0.170000 1.255890
v 0.966127 -0.206603 1.269833
v 0.921276 -0.192622 1.271845
v 0.919575 -0.147378 1.259146
v 0.963375 -0.133397 1.249286
v 0.934823 -0.250000 0.978545
v 0.921814 -0.268301 0.985516
v 0.899388 -0.261311 0.986523
v 0.898538 -0.238689 0.980173
v 0.920438 -0.231699 0.975243
f 775 770 771
f 775 771 776
f 769 768 772
f 769 772 771
f 769 771 770
f 769 770 775
f 769 775 774
f 773 769 774
f 773 768 769
f 777 774 775
f 777 775 776
f 777 773 774
f 777 776 771
f 777 771 772
f 777 772 768
f 777 768 773
o Hooked_Nail_56
usemtl moss
v 0.896158 -0.263190 0.991200
v 0.919151 -0.268323 0.977932
v 0.936408 -0.248135 0.983000
v 0.924080 -0.230524 0.999400
v 0.899204 -0.239828 1.004468
v 0.945904 -0.302867 1.071200
v 0.950902 -0.303983 1.068316
v 0.954654 -0.299594 1.069417
v 0.951974 -0.295766 1.072983
v 0.946566 -0.297789 1.074084
f 782 779 778
f 782 781 780
f 782 780 779
f 784 779 780
f 784 780 785
f 783 778 779
f 783 779 784
f 787 782 778
f 787 778 783
f 786 784 785
f 786 783 784
f 786 787 783
f 786 780 781
f 786 785 780
f 786 781 782
f 786 782 787
o Root_Finger_57
usemtl bark
v 1.067146 -0.170000 1.266510
v 1.038375 -0.206603 1.273115
v 0.994575 -0.192622 1.263254
v 0.996276 -0.147378 1.250555
v 1.041127 -0.133397 1.252567
v 1.084823 -0.250000 0.983855
v 1.070438 -0.268301 0.987157
v 1.048538 -0.261311 0.982227
v 1.049388 -0.238689 0.975877
v 1.071814 -0.231699 0.976884
f 791 790 789
f 791 788 792
f 791 789 788
f 797 792 788
f 797 788 793
f 797 791 792
f 797 796 791
f 794 793 788
f 794 788 789
f 795 796 797
f 795 797 793
f 795 793 794
f 795 791 796
f 795 790 791
f 795 789 790
f 795 794 789
o Hooked_Nail_58
usemtl moss
v 1.046158 -0.263190 0.991200
v 1.069151 -0.268323 0.977932
v 1.086408 -0.248135 0.983000
v 1.074080 -0.230524 0.999400
v 1.049204 -0.239828 1.004468
v 1.095904 -0.302867 1.071200
v 1.100902 -0.303983 1.068316
v 1.104654 -0.299594 1.069417
v 1.101974 -0.295766 1.072983
v 1.096566 -0.297789 1.074084
f 802 799 798
f 802 801 800
f 802 800 799
f 804 799 800
f 804 800 805
f 803 798 799
f 803 799 804
f 803 802 798
f 803 807 802
f 806 804 805
f 806 807 803
f 806 803 804
f 806 800 801
f 806 805 800
f 806 801 802
f 806 802 807
o Root_Finger_59
usemtl bark
v 1.079319 -0.202598 1.261200
v 1.067530 -0.160300 1.244378
v 1.104068 -0.131407 1.250803
v 1.138439 -0.155848 1.271597
v 1.123144 -0.199847 1.278022
v 1.203410 -0.266299 0.981200
v 1.197515 -0.245150 0.972789
v 1.215784 -0.230703 0.976002
v 1.232970 -0.242924 0.986398
v 1.225322 -0.264924 0.989611
f 808 810 809
f 808 811 810
f 808 812 811
f 817 811 812
f 817 816 811
f 817 812 808
f 817 808 813
f 814 813 808
f 814 808 809
f 815 817 813
f 815 816 817
f 815 813 814
f 815 811 816
f 815 810 811
f 815 809 810
f 815 814 809
o Hooked_Nail_60
usemtl moss
v 1.196158 -0.263190 0.991200
v 1.219151 -0.268323 0.977932
v 1.236408 -0.248135 0.983000
v 1.224080 -0.230524 0.999400
v 1.199204 -0.239828 1.004468
v 1.245904 -0.302867 1.071200
v 1.250902 -0.303983 1.068316
v 1.254654 -0.299594 1.069417
v 1.251974 -0.295766 1.072983
v 1.246566 -0.297789 1.074084
f 822 819 818
f 822 821 820
f 822 820 819
f 824 819 820
f 824 820 825
f 823 818 819
f 823 819 824
f 826 820 821
f 826 825 820
f 827 824 825
f 827 823 824
f 827 825 826
f 827 822 818
f 827 818 823
f 827 821 822
f 827 826 821
o Root_Hip_61
usemtl bark
v 0.378000 0.000000 0.770744
v 0.326042 0.136039 0.714734
v 0.209292 0.169637 0.745102
v 0.115666 0.075496 0.761843
v 0.115666 -0.075496 0.755943
v 0.209292 -0.169637 0.775077
v 0.326042 -0.136039 0.769798
v 0.470000 0.000000 0.983351
v 0.383403 0.226731 0.897752
v 0.188820 0.282729 0.937176
v 0.032777 0.125826 0.941755
v 0.032777 -0.125826 0.901455
v 0.188820 -0.282729 0.895740
v 0.383403 -0.226731 0.974940
v 0.405600 0.000000 1.245597
v 0.343250 0.163246 1.226523
v 0.203151 0.203565 1.181498
v 0.090800 0.090595 1.218912
v 0.090800 -0.090595 1.179921
v 0.203151 -0.203565 1.222312
v 0.343250 -0.163246 1.178056
v 0.251500 0.000000 1.311200
f 842 841 835
f 842 835 843
f 842 843 849
f 842 849 847
f 828 829 835
f 828 835 841
f 836 829 837
f 836 837 843
f 836 835 829
f 836 843 835
f 844 845 849
f 844 849 843
f 844 837 845
f 844 843 837
f 830 837 829
f 830 829 831
f 838 845 837
f 838 837 830
f 838 830 831
f 838 839 845
f 838 831 839
f 846 849 845
f 846 847 849
f 846 845 839
f 846 839 847
f 848 847 841
f 848 841 842
f 848 842 847
f 832 831 829
f 832 829 833
f 832 839 831
f 840 841 847
f 840 847 839
f 840 839 832
f 840 832 833
f 834 828 841
f 834 841 840
f 834 840 833
f 834 833 829
f 834 829 828
o Bent_Leg_62
usemtl woodlight
v 0.379676 0.000000 0.980723
v 0.326749 -0.109344 0.982085
v 0.208499 -0.136350 0.975250
v 0.113969 -0.060681 0.965365
v 0.114344 0.060681 0.959874
v 0.209340 0.136350 0.962912
v 0.327424 0.109344 0.972191
v 0.359792 -0.020000 0.537322
v 0.325767 -0.090293 0.538197
v 0.249749 -0.107653 0.533804
v 0.188980 -0.059009 0.527449
v 0.189221 0.019009 0.523919
v 0.250290 0.067653 0.525872
v 0.326201 0.050293 0.531837
f 860 853 854
f 860 854 861
f 852 860 859
f 852 853 860
f 852 859 858
f 852 858 851
f 862 854 855
f 862 861 854
f 856 853 852
f 856 854 853
f 856 855 854
f 856 851 850
f 856 852 851
f 856 863 862
f 856 862 855
f 857 858 859
f 857 860 861
f 857 861 862
f 857 859 860
f 857 862 863
f 857 850 851
f 857 851 858
f 857 856 850
f 857 863 856
o Knee_Moss_63
usemtl moss
v 0.322000 -0.140000 0.551200
v 0.296000 -0.094967 0.551200
v 0.244000 -0.094967 0.551200
v 0.218000 -0.140000 0.551200
v 0.244000 -0.185033 0.551200
v 0.296000 -0.185033 0.551200
v 0.350000 -0.140000 0.668200
v 0.310000 -0.070718 0.668200
v 0.230000 -0.070718 0.668200
v 0.190000 -0.140000 0.668200
v 0.230000 -0.209282 0.668200
v 0.310000 -0.209282 0.668200
v 0.270000 -0.140000 0.731200
f 876 875 870
f 876 873 874
f 876 870 871
f 876 874 875
f 876 871 872
f 876 872 873
f 868 874 873
f 868 873 867
f 866 867 873
f 866 873 872
f 869 864 870
f 869 870 875
f 869 874 868
f 869 875 874
f 865 868 867
f 865 864 869
f 865 867 866
f 865 869 868
f 865 870 864
f 865 871 870
f 865 866 872
f 865 872 871
o Lower_Root_Shin_64
usemtl bark
v 0.355000 -0.020000 0.531200
v 0.312500 -0.093612 0.531200
v 0.227500 -0.093612 0.531200
v 0.185000 -0.020000 0.531200
v 0.227500 0.053612 0.531200
v 0.312500 0.053612 0.531200
v 0.330000 -0.020000 0.231200
v 0.300000 -0.071962 0.231200
v 0.240000 -0.071962 0.231200
v 0.210000 -0.020000 0.231200
v 0.240000 0.031962 0.231200
v 0.300000 0.031962 0.231200
f 888 882 877
f 888 877 883
f 888 881 882
f 888 887 881
f 879 877 882
f 879 881 880
f 879 878 877
f 879 882 881
f 886 881 887
f 886 880 881
f 886 879 880
f 886 885 879
f 884 887 888
f 884 888 883
f 884 886 887
f 884 885 886
f 884 877 878
f 884 883 877
f 884 878 879
f 884 879 885
o Root_Toe_65
usemtl bark
v 0.125000 -0.020000 0.221200
v 0.169914 0.010087 0.167197
v 0.242586 -0.001405 0.187824
v 0.242586 -0.038595 0.254576
v 0.169914 -0.050087 0.275203
v 0.172000 -0.370000 0.026200
v 0.184438 -0.361668 0.011245
v 0.204562 -0.364851 0.016958
v 0.204562 -0.375149 0.035443
v 0.184438 -0.378332 0.041155
f 890 889 893
f 890 892 891
f 890 893 892
f 897 892 893
f 897 893 898
f 894 893 889
f 894 898 893
f 894 889 890
f 894 890 895
f 896 897 898
f 896 894 895
f 896 898 894
f 896 891 892
f 896 892 897
f 896 890 891
f 896 895 890
o Toe_Claw_66
usemtl woodlight
v 0.162000 -0.370000 0.026200
v 0.181348 -0.365236 0.000000
v 0.212652 -0.367056 0.010008
v 0.212652 -0.372944 0.042393
v 0.181348 -0.374764 0.052400
v 0.185000 -0.480000 0.006200
v 0.188455 -0.479149 0.001521
v 0.194045 -0.479474 0.003309
v 0.194045 -0.480526 0.009092
v 0.188455 -0.480851 0.010879
f 900 899 903
f 900 902 901
f 900 903 902
f 907 902 903
f 907 903 908
f 904 903 899
f 904 908 903
f 904 899 900
f 904 900 905
f 906 907 908
f 906 904 905
f 906 908 904
f 906 901 902
f 906 902 907
f 906 900 901
f 906 905 900
o Root_Toe_67
usemtl bark
v 0.205000 -0.020000 0.221200
v 0.249914 0.012169 0.168411
v 0.322586 -0.000119 0.188574
v 0.322586 -0.039881 0.253826
v 0.249914 -0.052169 0.273990
v 0.252000 -0.340000 0.026200
v 0.264438 -0.331092 0.011581
v 0.284562 -0.334494 0.017165
v 0.284562 -0.345506 0.035235
v 0.264438 -0.348908 0.040819
f 910 909 913
f 910 912 911
f 910 913 912
f 917 912 913
f 917 913 918
f 914 913 909
f 914 918 913
f 916 911 912
f 916 912 917
f 915 917 918
f 915 918 914
f 915 916 917
f 915 909 910
f 915 914 909
f 915 910 911
f 915 911 916
o Toe_Claw_68
usemtl woodlight
v 0.242000 -0.340000 0.026200
v 0.261348 -0.335236 0.000000
v 0.292652 -0.337056 0.010008
v 0.292652 -0.342944 0.042393
v 0.261348 -0.344764 0.052400
v 0.265000 -0.450000 0.006200
v 0.268455 -0.449149 0.001521
v 0.274045 -0.449474 0.003309
v 0.274045 -0.450526 0.009092
v 0.268455 -0.450851 0.010879
f 920 919 923
f 920 922 921
f 920 923 922
f 927 922 923
f 927 923 928
f 924 923 919
f 924 928 923
f 926 921 922
f 926 922 927
f 925 927 928
f 925 928 924
f 925 926 927
f 925 919 920
f 925 924 919
f 925 920 921
f 925 921 926
o Root_Toe_69
usemtl bark
v 0.285000 -0.020000 0.221200
v 0.329914 0.010087 0.167197
v 0.402586 -0.001405 0.187824
v 0.402586 -0.038595 0.254576
v 0.329914 -0.050087 0.275203
v 0.332000 -0.370000 0.026200
v 0.344438 -0.361668 0.011245
v 0.364562 -0.364851 0.016958
v 0.364562 -0.375149 0.035443
v 0.344438 -0.378332 0.041155
f 930 929 933
f 930 932 931
f 930 933 932
f 937 932 933
f 937 933 938
f 934 933 929
f 934 938 933
f 934 929 930
f 934 930 935
f 936 937 938
f 936 934 935
f 936 938 934
f 936 931 932
f 936 932 937
f 936 930 931
f 936 935 930
o Toe_Claw_70
usemtl woodlight
v 0.322000 -0.370000 0.026200
v 0.341348 -0.365236 0.000000
v 0.372652 -0.367056 0.010008
v 0.372652 -0.372944 0.042393
v 0.341348 -0.374764 0.052400
v 0.345000 -0.480000 0.006200
v 0.348455 -0.479149 0.001521
v 0.354045 -0.479474 0.003309
v 0.354045 -0.480526 0.009092
v 0.348455 -0.480851 0.010879
f 940 939 943
f 940 942 941
f 940 943 942
f 947 942 943
f 947 943 948
f 944 943 939
f 944 948 943
f 945 939 940
f 945 944 939
f 946 947 948
f 946 948 944
f 946 944 945
f 946 941 942
f 946 942 947
f 946 940 941
f 946 945 940