# RIFTBOUND | Z up | flat shaded
mtllib Rift_Crawler.mtl
o Abdomen_0
usemtl dark
v 0.408000 0.400000 0.363918
v 0.254384 0.789352 0.310641
v -0.090789 0.885514 0.377376
v -0.367595 0.616074 0.351741
v -0.367595 0.183926 0.255834
v -0.090789 -0.085514 0.395983
v 0.254384 0.010648 0.361881
v 0.680000 0.400000 0.710344
v 0.423973 1.048920 0.605729
v -0.151314 1.209190 0.656971
v -0.612659 0.760124 0.644316
v -0.612659 0.039876 0.732715
v -0.151314 -0.409190 0.687734
v 0.423973 -0.248920 0.716178
v 0.489600 0.400000 1.079862
v 0.305261 0.867222 1.045490
v -0.108946 0.982617 1.097538
v -0.441114 0.659289 1.019506
v -0.441114 0.140711 1.140953
v -0.108946 -0.182617 1.109794
v 0.305261 -0.067222 1.129895
v 0.034000 0.400000 1.274359
f 11 5 12
f 19 11 12
f 19 18 11
f 20 19 12
f 20 21 22
f 20 22 19
f 14 8 21
f 14 21 20
f 15 22 21
f 15 16 22
f 15 21 8
f 15 8 16
f 17 22 16
f 17 19 22
f 17 18 19
f 17 10 11
f 17 11 18
f 4 2 5
f 4 11 10
f 4 5 11
f 9 2 10
f 9 10 17
f 9 17 16
f 9 16 8
f 7 5 2
f 7 8 14
f 13 12 5
f 13 20 12
f 13 14 20
f 13 7 14
f 3 10 2
f 3 4 10
f 3 2 4
f 1 8 7
f 1 7 2
f 1 9 8
f 1 2 9
f 6 5 7
f 6 13 5
f 6 7 13
o Carapace_Plate_1
usemtl edge
v -0.495000 -0.230000 0.764359
v -0.495000 -0.230000 1.124359
v -0.495000 0.470000 0.764359
v -0.495000 0.470000 1.124359
v -0.255000 -0.230000 0.764359
v -0.255000 -0.230000 1.124359
v -0.255000 0.470000 0.764359
v -0.255000 0.470000 1.124359
v -0.435000 -0.290000 0.764359
v -0.435000 -0.290000 1.124359
v -0.315000 -0.290000 0.764359
v -0.315000 -0.290000 1.124359
v -0.435000 0.530000 0.764359
v -0.435000 0.530000 1.124359
v -0.315000 0.530000 0.764359
v -0.315000 0.530000 1.124359
v -0.435000 -0.230000 0.704359
v -0.435000 0.470000 0.704359
v -0.315000 -0.230000 0.704359
v -0.315000 0.470000 0.704359
v -0.435000 -0.230000 1.184359
v -0.435000 0.470000 1.184359
v -0.315000 -0.230000 1.184359
v -0.315000 0.470000 1.184359
f 44 36 26
f 31 23 39
f 42 37 29
f 33 41 27
f 38 46 30
f 40 25 35
f 32 43 24
f 34 28 45
f 28 27 29
f 28 29 30
f 25 23 24
f 25 24 26
f 36 25 26
f 36 35 25
f 44 24 43
f 44 26 24
f 46 28 30
f 46 45 28
f 46 44 43
f 46 43 45
f 42 29 27
f 42 27 41
f 33 39 41
f 33 31 39
f 38 44 46
f 38 36 44
f 38 30 29
f 38 29 37
f 38 35 36
f 38 37 35
f 40 35 37
f 40 37 42
f 40 23 25
f 40 39 23
f 40 42 41
f 40 41 39
f 32 24 23
f 32 23 31
f 34 45 43
f 34 43 32
f 34 27 28
f 34 33 27
f 34 31 33
f 34 32 31
o Carapace_Plate_2
usemtl stone
v -0.245000 -0.230000 0.764359
v -0.245000 -0.230000 1.124359
v -0.245000 0.470000 0.764359
v -0.245000 0.470000 1.124359
v -0.005000 -0.230000 0.764359
v -0.005000 -0.230000 1.124359
v -0.005000 0.470000 0.764359
v -0.005000 0.470000 1.124359
v -0.185000 -0.290000 0.764359
v -0.185000 -0.290000 1.124359
v -0.065000 -0.290000 0.764359
v -0.065000 -0.290000 1.124359
v -0.185000 0.530000 0.764359
v -0.185000 0.530000 1.124359
v -0.065000 0.530000 0.764359
v -0.065000 0.530000 1.124359
v -0.185000 -0.230000 0.704359
v -0.185000 0.470000 0.704359
v -0.065000 -0.230000 0.704359
v -0.065000 0.470000 0.704359
v -0.185000 -0.230000 1.184359
v -0.185000 0.470000 1.184359
v -0.065000 -0.230000 1.184359
v -0.065000 0.470000 1.184359
f 68 60 50
f 55 47 63
f 66 61 53
f 57 65 51
f 62 70 54
f 64 49 59
f 56 67 48
f 58 52 69
f 52 51 53
f 52 53 54
f 49 47 48
f 49 48 50
f 60 49 50
f 60 59 49
f 68 48 67
f 68 50 48
f 70 52 54
f 70 69 52
f 70 68 67
f 70 67 69
f 66 53 51
f 66 51 65
f 57 63 65
f 57 55 63
f 62 68 70
f 62 60 68
f 62 54 53
f 62 53 61
f 62 59 60
f 62 61 59
f 64 59 61
f 64 61 66
f 64 47 49
f 64 63 47
f 64 66 65
f 64 65 63
f 56 48 47
f 56 47 55
f 58 69 67
f 58 67 56
f 58 51 52
f 58 57 51
f 58 55 57
f 58 56 55
o Carapace_Plate_3
usemtl edge
v 0.005000 -0.230000 0.764359
v 0.005000 -0.230000 1.124359
v 0.005000 0.470000 0.764359
v 0.005000 0.470000 1.124359
v 0.245000 -0.230000 0.764359
v 0.245000 -0.230000 1.124359
v 0.245000 0.470000 0.764359
v 0.245000 0.470000 1.124359
v 0.065000 -0.290000 0.764359
v 0.065000 -0.290000 1.124359
v 0.185000 -0.290000 0.764359
v 0.185000 -0.290000 1.124359
v 0.065000 0.530000 0.764359
v 0.065000 0.530000 1.124359
v 0.185000 0.530000 0.764359
v 0.185000 0.530000 1.124359
v 0.065000 -0.230000 0.704359
v 0.065000 0.470000 0.704359
v 0.185000 -0.230000 0.704359
v 0.185000 0.470000 0.704359
v 0.065000 -0.230000 1.184359
v 0.065000 0.470000 1.184359
v 0.185000 -0.230000 1.184359
v 0.185000 0.470000 1.184359
f 92 84 74
f 79 71 87
f 90 85 77
f 81 89 75
f 86 94 78
f 88 73 83
f 80 91 72
f 82 76 93
f 76 75 77
f 76 77 78
f 73 71 72
f 73 72 74
f 84 73 74
f 84 83 73
f 92 72 91
f 92 74 72
f 94 76 78
f 94 93 76
f 94 92 91
f 94 91 93
f 90 77 75
f 90 75 89
f 81 87 89
f 81 79 87
f 86 92 94
f 86 84 92
f 86 78 77
f 86 77 85
f 86 83 84
f 86 85 83
f 88 83 85
f 88 85 90
f 88 71 73
f 88 87 71
f 88 90 89
f 88 89 87
f 80 72 71
f 80 71 79
f 82 93 91
f 82 91 80
f 82 75 76
f 82 81 75
f 82 79 81
f 82 80 79
o Carapace_Plate_4
usemtl stone
v 0.255000 -0.230000 0.764359
v 0.255000 -0.230000 1.124359
v 0.255000 0.470000 0.764359
v 0.255000 0.470000 1.124359
v 0.495000 -0.230000 0.764359
v 0.495000 -0.230000 1.124359
v 0.495000 0.470000 0.764359
v 0.495000 0.470000 1.124359
v 0.315000 -0.290000 0.764359
v 0.315000 -0.290000 1.124359
v 0.435000 -0.290000 0.764359
v 0.435000 -0.290000 1.124359
v 0.315000 0.530000 0.764359
v 0.315000 0.530000 1.124359
v 0.435000 0.530000 0.764359
v 0.435000 0.530000 1.124359
v 0.315000 -0.230000 0.704359
v 0.315000 0.470000 0.704359
v 0.435000 -0.230000 0.704359
v 0.435000 0.470000 0.704359
v 0.315000 -0.230000 1.184359
v 0.315000 0.470000 1.184359
v 0.435000 -0.230000 1.184359
v 0.435000 0.470000 1.184359
f 116 108 98
f 103 95 111
f 114 109 101
f 105 113 99
f 110 118 102
f 112 97 107
f 104 115 96
f 106 100 117
f 100 99 101
f 100 101 102
f 97 95 96
f 97 96 98
f 108 97 98
f 108 107 97
f 116 96 115
f 116 98 96
f 118 100 102
f 118 117 100
f 118 116 115
f 118 115 117
f 114 101 99
f 114 99 113
f 105 111 113
f 105 103 111
f 110 116 118
f 110 108 116
f 110 102 101
f 110 101 109
f 110 107 108
f 110 109 107
f 112 107 109
f 112 109 114
f 112 95 97
f 112 111 95
f 112 114 113
f 112 113 111
f 104 96 95
f 104 95 103
f 106 117 115
f 106 115 104
f 106 99 100
f 106 105 99
f 106 103 105
f 106 104 103
o Dorsal_Shard_5
usemtl rift
v 0.130000 0.380000 1.174359
v 0.065000 0.492583 1.174359
v -0.065000 0.492583 1.174359
v -0.130000 0.380000 1.174359
v -0.065000 0.267417 1.174359
v 0.065000 0.267417 1.174359
v 0.200000 0.432000 1.492859
v 0.100000 0.605205 1.492859
v -0.100000 0.605205 1.492859
v -0.200000 0.432000 1.492859
v -0.100000 0.258795 1.492859
v 0.100000 0.258795 1.492859
v 0.000000 0.460000 1.664359
f 131 130 125
f 129 131 128
f 129 130 131
f 126 131 125
f 127 128 131
f 127 131 126
f 122 129 128
f 122 123 129
f 124 119 125
f 124 125 130
f 124 129 123
f 124 130 129
f 120 125 119
f 120 126 125
f 121 119 124
f 121 123 122
f 121 124 123
f 121 120 119
f 121 122 128
f 121 128 127
f 121 126 120
f 121 127 126
o Thorax_6
usemtl bark
v 0.288000 -0.230000 0.362445
v 0.179565 -0.014215 0.410266
v -0.064086 0.039080 0.423453
v -0.259479 -0.110248 0.349560
v -0.259479 -0.349752 0.364942
v -0.064086 -0.499080 0.465599
v 0.179565 -0.445785 0.354944
v 0.480000 -0.230000 0.642100
v 0.299275 0.129642 0.747694
v -0.106810 0.218467 0.705582
v -0.432465 -0.030413 0.672959
v -0.432465 -0.429587 0.691329
v -0.106810 -0.678467 0.710866
v 0.299275 -0.589642 0.660874
v 0.345600 -0.230000 0.987157
v 0.215478 0.028943 1.071016
v -0.076903 0.092896 1.055836
v -0.311375 -0.086298 1.035457
v -0.311375 -0.373702 1.074718
v -0.076903 -0.552896 1.040190
v 0.215478 -0.488943 1.095897
v 0.024000 -0.230000 1.184359
f 150 143 144
f 150 153 149
f 152 147 153
f 142 141 135
f 142 149 141
f 142 135 143
f 142 143 150
f 142 150 149
f 148 149 153
f 148 153 147
f 148 141 149
f 134 135 141
f 134 141 133
f 134 133 135
f 140 133 141
f 140 141 148
f 140 148 147
f 140 147 139
f 140 139 133
f 132 133 139
f 132 135 133
f 145 139 152
f 145 152 144
f 146 139 147
f 146 152 139
f 146 147 152
f 151 150 144
f 151 144 152
f 151 153 150
f 151 152 153
f 138 135 132
f 138 145 144
f 138 132 139
f 138 139 145
f 136 143 135
f 136 135 138
f 136 144 143
f 137 138 144
f 137 144 136
f 137 136 138
o Skull_7
usemtl edge
v 0.294000 -0.550000 0.472276
v 0.183306 -0.381124 0.510449
v -0.065421 -0.339416 0.458058
v -0.264885 -0.456281 0.434286
v -0.264885 -0.643719 0.540732
v -0.065421 -0.760584 0.492031
v 0.183306 -0.718876 0.501678
v 0.490000 -0.550000 0.753584
v 0.305510 -0.268541 0.741403
v -0.109035 -0.199026 0.699048
v -0.441475 -0.393802 0.721991
v -0.441475 -0.706198 0.772704
v -0.109035 -0.900974 0.793246
v 0.305510 -0.831459 0.790992
v 0.352800 -0.550000 1.118158
v 0.219967 -0.347349 1.007408
v -0.078505 -0.297299 1.092924
v -0.317862 -0.437537 1.085071
v -0.317862 -0.662463 1.079382
v -0.078505 -0.802701 1.080874
v 0.219967 -0.752651 1.019512
v 0.024500 -0.550000 1.204359
f 168 175 173
f 164 163 157
f 164 157 165
f 164 165 171
f 172 173 175
f 172 175 171
f 172 171 165
f 170 171 175
f 170 175 168
f 170 168 169
f 170 163 164
f 170 164 171
f 158 165 157
f 158 159 165
f 158 157 159
f 167 161 168
f 156 157 163
f 162 163 170
f 162 170 169
f 162 156 163
f 162 155 156
f 162 168 161
f 162 169 168
f 154 161 167
f 154 162 161
f 154 155 162
f 154 156 155
f 154 159 157
f 154 157 156
f 166 167 173
f 166 159 167
f 166 165 159
f 166 172 165
f 166 173 172
f 174 168 173
f 174 173 167
f 174 167 168
f 160 167 159
f 160 159 154
f 160 154 167
o Eye_Socket_8
usemtl dark
v -0.325000 -0.882000 0.877359
v -0.325000 -0.882000 1.091359
v -0.325000 -0.858000 0.877359
v -0.325000 -0.858000 1.091359
v 0.325000 -0.882000 0.877359
v 0.325000 -0.882000 1.091359
v 0.325000 -0.858000 0.877359
v 0.325000 -0.858000 1.091359
v -0.277000 -0.930000 0.877359
v -0.277000 -0.930000 1.091359
v 0.277000 -0.930000 0.877359
v 0.277000 -0.930000 1.091359
v -0.277000 -0.810000 0.877359
v -0.277000 -0.810000 1.091359
v 0.277000 -0.810000 0.877359
v 0.277000 -0.810000 1.091359
v -0.277000 -0.882000 0.829359
v -0.277000 -0.858000 0.829359
v 0.277000 -0.882000 0.829359
v 0.277000 -0.858000 0.829359
v -0.277000 -0.882000 1.139359
v -0.277000 -0.858000 1.139359
v 0.277000 -0.882000 1.139359
v 0.277000 -0.858000 1.139359
f 184 176 192
f 197 189 179
f 182 195 190
f 193 178 188
f 199 183 191
f 187 181 198
f 185 196 177
f 194 180 186
f 178 176 177
f 178 177 179
f 189 191 190
f 189 190 188
f 189 178 179
f 189 188 178
f 197 179 177
f 197 177 196
f 182 190 191
f 182 191 183
f 193 188 190
f 193 190 195
f 193 176 178
f 193 192 176
f 181 182 183
f 181 180 182
f 199 181 183
f 199 198 181
f 199 191 189
f 199 189 197
f 199 197 196
f 199 196 198
f 185 177 176
f 185 176 184
f 185 198 196
f 185 187 198
f 186 180 181
f 186 181 187
f 186 185 184
f 186 187 185
f 194 182 180
f 194 195 182
f 194 193 195
f 194 192 193
f 194 186 184
f 194 184 192
o Cluster_Eye_9
usemtl rift
v -0.161500 -0.950000 1.024359
v -0.190750 -0.899338 1.024359
v -0.249250 -0.899338 1.024359
v -0.278500 -0.950000 1.024359
v -0.249250 -1.000662 1.024359
v -0.190750 -1.000662 1.024359
v -0.130000 -0.950000 1.069859
v -0.175000 -0.872058 1.069859
v -0.265000 -0.872058 1.069859
v -0.310000 -0.950000 1.069859
v -0.265000 -1.027942 1.069859
v -0.175000 -1.027942 1.069859
v -0.220000 -0.950000 1.094359
f 212 209 210
f 212 208 209
f 212 206 207
f 212 207 208
f 212 210 211
f 212 211 206
f 201 207 206
f 201 206 200
f 204 210 209
f 204 209 203
f 202 203 209
f 202 209 208
f 202 207 201
f 202 208 207
f 205 201 200
f 205 203 202
f 205 204 203
f 205 202 201
f 205 200 206
f 205 206 211
f 205 210 204
f 205 211 210
o Cluster_Eye_10
usemtl rift
v 0.071500 -0.950000 1.064359
v 0.035750 -0.888079 1.064359
v -0.035750 -0.888079 1.064359
v -0.071500 -0.950000 1.064359
v -0.035750 -1.011921 1.064359
v 0.035750 -1.011921 1.064359
v 0.110000 -0.950000 1.109859
v 0.055000 -0.854737 1.109859
v -0.055000 -0.854737 1.109859
v -0.110000 -0.950000 1.109859
v -0.055000 -1.045263 1.109859
v 0.055000 -1.045263 1.109859
v 0.000000 -0.950000 1.134359
f 225 224 219
f 225 222 223
f 225 219 220
f 225 223 224
f 225 220 221
f 225 221 222
f 217 223 222
f 217 222 216
f 214 219 213
f 214 220 219
f 218 213 219
f 218 219 224
f 218 223 217
f 218 224 223
f 215 217 216
f 215 214 213
f 215 213 218
f 215 218 217
f 215 216 222
f 215 222 221
f 215 220 214
f 215 221 220
o Cluster_Eye_11
usemtl rift
v 0.278500 -0.950000 1.024359
v 0.249250 -0.899338 1.024359
v 0.190750 -0.899338 1.024359
v 0.161500 -0.950000 1.024359
v 0.190750 -1.000662 1.024359
v 0.249250 -1.000662 1.024359
v 0.310000 -0.950000 1.069859
v 0.265000 -0.872058 1.069859
v 0.175000 -0.872058 1.069859
v 0.130000 -0.950000 1.069859
v 0.175000 -1.027942 1.069859
v 0.265000 -1.027942 1.069859
v 0.220000 -0.950000 1.094359
f 238 237 232
f 238 234 235
f 238 235 236
f 238 236 237
f 238 233 234
f 238 232 233
f 229 235 234
f 229 234 228
f 231 232 237
f 231 226 232
f 227 233 232
f 227 232 226
f 227 228 234
f 227 234 233
f 230 229 228
f 230 226 231
f 230 227 226
f 230 228 227
f 230 235 229
f 230 236 235
f 230 231 237
f 230 237 236
o Mouth_Cavity_12
usemtl dark
v -0.235000 -0.919000 0.620359
v -0.235000 -0.919000 0.828359
v -0.235000 -0.901000 0.620359
v -0.235000 -0.901000 0.828359
v 0.235000 -0.919000 0.620359
v 0.235000 -0.919000 0.828359
v 0.235000 -0.901000 0.620359
v 0.235000 -0.901000 0.828359
v -0.199000 -0.955000 0.620359
v -0.199000 -0.955000 0.828359
v 0.199000 -0.955000 0.620359
v 0.199000 -0.955000 0.828359
v -0.199000 -0.865000 0.620359
v -0.199000 -0.865000 0.828359
v 0.199000 -0.865000 0.620359
v 0.199000 -0.865000 0.828359
v -0.199000 -0.919000 0.584359
v -0.199000 -0.901000 0.584359
v 0.199000 -0.919000 0.584359
v 0.199000 -0.901000 0.584359
v -0.199000 -0.919000 0.864359
v -0.199000 -0.901000 0.864359
v 0.199000 -0.919000 0.864359
v 0.199000 -0.901000 0.864359
f 247 239 255
f 260 252 242
f 245 258 253
f 256 241 251
f 262 246 254
f 250 244 261
f 248 259 240
f 257 243 249
f 241 239 240
f 241 240 242
f 252 254 253
f 252 253 251
f 252 241 242
f 252 251 241
f 260 242 240
f 260 240 259
f 245 253 254
f 245 254 246
f 256 251 253
f 256 253 258
f 256 239 241
f 256 255 239
f 244 245 246
f 244 243 245
f 262 244 246
f 262 261 244
f 262 254 252
f 262 252 260
f 262 260 259
f 262 259 261
f 248 240 239
f 248 239 247
f 248 261 259
f 248 250 261
f 249 243 244
f 249 244 250
f 249 248 247
f 249 250 248
f 257 245 243
f 257 258 245
f 257 256 258
f 257 255 256
f 257 249 247
f 257 247 255
o Upper_Fang_13
usemtl ice
v -0.064000 -0.980000 0.834359
v -0.088875 -1.012481 0.845186
v -0.129125 -1.000074 0.841051
v -0.129125 -0.959926 0.827668
v -0.088875 -0.947519 0.823532
v -0.094000 -1.020000 0.714359
v -0.098146 -1.025414 0.716164
v -0.104854 -1.023346 0.715475
v -0.104854 -1.016654 0.713244
v -0.098146 -1.014586 0.712555
f 267 264 263
f 267 266 265
f 267 265 264
f 270 264 265
f 270 269 264
f 271 265 266
f 271 270 265
f 271 266 267
f 271 267 272
f 268 269 270
f 268 271 272
f 268 270 271
f 268 263 264
f 268 264 269
f 268 267 263
f 268 272 267
o Lower_Fang_14
usemtl copper
v -0.130000 -0.980000 0.634359
v -0.109271 -1.007526 0.626852
v -0.075729 -0.997012 0.629720
v -0.075729 -0.962988 0.638999
v -0.109271 -0.952474 0.641867
v -0.105000 -1.010000 0.744359
v -0.101545 -1.014588 0.743108
v -0.095955 -1.012835 0.743586
v -0.095955 -1.007165 0.745133
v -0.101545 -1.005412 0.745611
f 278 273 274
f 278 274 279
f 276 274 273
f 276 273 277
f 276 275 274
f 280 274 275
f 280 279 274
f 281 275 276
f 281 280 275
f 282 278 279
f 282 279 280
f 282 280 281
f 282 277 273
f 282 273 278
f 282 276 277
f 282 281 276
o Upper_Fang_15
usemtl ice
v -0.164000 -0.980000 0.769359
v -0.188875 -1.012481 0.780186
v -0.229125 -1.000074 0.776051
v -0.229125 -0.959926 0.762668
v -0.188875 -0.947519 0.758532
v -0.194000 -1.020000 0.649359
v -0.198146 -1.025414 0.651164
v -0.204854 -1.023346 0.650475
v -0.204854 -1.016654 0.648244
v -0.198146 -1.014586 0.647555
f 287 284 283
f 287 286 285
f 287 285 284
f 290 284 285
f 290 289 284
f 291 285 286
f 291 290 285
f 291 286 287
f 291 287 292
f 288 289 290
f 288 291 292
f 288 290 291
f 288 283 284
f 288 284 289
f 288 287 283
f 288 292 287
o Lower_Fang_16
usemtl copper
v -0.230000 -0.980000 0.634359
v -0.209271 -1.007526 0.626852
v -0.175729 -0.997012 0.629720
v -0.175729 -0.962988 0.638999
v -0.209271 -0.952474 0.641867
v -0.205000 -1.010000 0.744359
v -0.201545 -1.014588 0.743108
v -0.195955 -1.012835 0.743586
v -0.195955 -1.007165 0.745133
v -0.201545 -1.005412 0.745611
f 298 293 294
f 298 294 299
f 296 294 293
f 296 293 297
f 296 295 294
f 300 294 295
f 300 299 294
f 301 295 296
f 301 300 295
f 302 298 299
f 302 299 300
f 302 300 301
f 302 297 293
f 302 293 298
f 302 296 297
f 302 301 296
o Upper_Fang_17
usemtl ice
v -0.264000 -0.980000 0.704359
v -0.288875 -1.012481 0.715186
v -0.329125 -1.000074 0.711051
v -0.329125 -0.959926 0.697668
v -0.288875 -0.947519 0.693532
v -0.294000 -1.020000 0.584359
v -0.298146 -1.025414 0.586164
v -0.304854 -1.023346 0.585475
v -0.304854 -1.016654 0.583244
v -0.298146 -1.014586 0.582555
f 306 303 307
f 306 305 304
f 306 304 303
f 308 303 304
f 308 304 309
f 310 304 305
f 310 309 304
f 310 305 306
f 310 306 311
f 312 308 309
f 312 310 311
f 312 309 310
f 312 307 303
f 312 303 308
f 312 306 307
f 312 311 306
o Lower_Fang_18
usemtl copper
v -0.330000 -0.980000 0.634359
v -0.309271 -1.007526 0.626852
v -0.275729 -0.997012 0.629720
v -0.275729 -0.962988 0.638999
v -0.309271 -0.952474 0.641867
v -0.305000 -1.010000 0.744359
v -0.301545 -1.014588 0.743108
v -0.295955 -1.012835 0.743586
v -0.295955 -1.007165 0.745133
v -0.301545 -1.005412 0.745611
f 317 314 313
f 317 316 315
f 317 315 314
f 320 314 315
f 320 319 314
f 318 313 314
f 318 314 319
f 321 315 316
f 321 320 315
f 322 319 320
f 322 318 319
f 322 320 321
f 322 317 313
f 322 313 318
f 322 316 317
f 322 321 316
o Upper_Fang_19
usemtl ice
v 0.136000 -0.980000 0.834359
v 0.111125 -1.012481 0.845186
v 0.070875 -1.000074 0.841051
v 0.070875 -0.959926 0.827668
v 0.111125 -0.947519 0.823532
v 0.106000 -1.020000 0.714359
v 0.101854 -1.025414 0.716164
v 0.095146 -1.023346 0.715475
v 0.095146 -1.016654 0.713244
v 0.101854 -1.014586 0.712555
f 327 324 323
f 327 326 325
f 327 325 324
f 330 324 325
f 330 329 324
f 331 325 326
f 331 330 325
f 331 326 327
f 331 327 332
f 328 329 330
f 328 331 332
f 328 330 331
f 328 323 324
f 328 324 329
f 328 327 323
f 328 332 327
o Lower_Fang_20
usemtl copper
v 0.070000 -0.980000 0.634359
v 0.090729 -1.007526 0.626852
v 0.124271 -0.997012 0.629720
v 0.124271 -0.962988 0.638999
v 0.090729 -0.952474 0.641867
v 0.095000 -1.010000 0.744359
v 0.098455 -1.014588 0.743108
v 0.104045 -1.012835 0.743586
v 0.104045 -1.007165 0.745133
v 0.098455 -1.005412 0.745611
f 338 333 334
f 338 334 339
f 336 334 333
f 336 333 337
f 336 335 334
f 340 334 335
f 340 339 334
f 341 335 336
f 341 340 335
f 342 338 339
f 342 339 340
f 342 340 341
f 342 337 333
f 342 333 338
f 342 336 337
f 342 341 336
o Upper_Fang_21
usemtl ice
v 0.236000 -0.980000 0.769359
v 0.211125 -1.012481 0.780186
v 0.170875 -1.000074 0.776051
v 0.170875 -0.959926 0.762668
v 0.211125 -0.947519 0.758532
v 0.206000 -1.020000 0.649359
v 0.201854 -1.025414 0.651164
v 0.195146 -1.023346 0.650475
v 0.195146 -1.016654 0.648244
v 0.201854 -1.014586 0.647555
f 347 344 343
f 347 346 345
f 347 345 344
f 350 344 345
f 350 349 344
f 351 345 346
f 351 350 345
f 351 346 347
f 351 347 352
f 348 349 350
f 348 351 352
f 348 350 351
f 348 343 344
f 348 344 349
f 348 347 343
f 348 352 347
o Lower_Fang_22
usemtl copper
v 0.170000 -0.980000 0.634359
v 0.190729 -1.007526 0.626852
v 0.224271 -0.997012 0.629720
v 0.224271 -0.962988 0.638999
v 0.190729 -0.952474 0.641867
v 0.195000 -1.010000 0.744359
v 0.198455 -1.014588 0.743108
v 0.204045 -1.012835 0.743586
v 0.204045 -1.007165 0.745133
v 0.198455 -1.005412 0.745611
f 358 353 354
f 358 354 359
f 356 354 353
f 356 353 357
f 356 355 354
f 360 354 355
f 360 359 354
f 361 355 356
f 361 360 355
f 362 358 359
f 362 359 360
f 362 360 361
f 362 357 353
f 362 353 358
f 362 356 357
f 362 361 356
o Upper_Fang_23
usemtl ice
v 0.336000 -0.980000 0.704359
v 0.311125 -1.012481 0.715186
v 0.270875 -1.000074 0.711051
v 0.270875 -0.959926 0.697668
v 0.311125 -0.947519 0.693532
v 0.306000 -1.020000 0.584359
v 0.301854 -1.025414 0.586164
v 0.295146 -1.023346 0.585475
v 0.295146 -1.016654 0.583244
v 0.301854 -1.014586 0.582555
f 366 363 367
f 366 365 364
f 366 364 363
f 368 363 364
f 368 364 369
f 370 364 365
f 370 369 364
f 370 365 366
f 370 366 371
f 372 368 369
f 372 370 371
f 372 369 370
f 372 367 363
f 372 363 368
f 372 366 367
f 372 371 366
o Lower_Fang_24
usemtl copper
v 0.270000 -0.980000 0.634359
v 0.290729 -1.007526 0.626852
v 0.324271 -0.997012 0.629720
v 0.324271 -0.962988 0.638999
v 0.290729 -0.952474 0.641867
v 0.295000 -1.010000 0.744359
v 0.298455 -1.014588 0.743108
v 0.304045 -1.012835 0.743586
v 0.304045 -1.007165 0.745133
v 0.298455 -1.005412 0.745611
f 377 374 373
f 377 376 375
f 377 375 374
f 380 374 375
f 380 379 374
f 378 373 374
f 378 374 379
f 381 375 376
f 381 380 375
f 382 379 380
f 382 378 379
f 382 380 381
f 382 377 373
f 382 373 378
f 382 376 377
f 382 381 376
o Armoured_Femur_25
usemtl stone
v -0.380320 -0.175521 0.784359
v -0.306682 -0.213605 0.684010
v -0.258133 -0.331807 0.659226
v -0.271232 -0.441118 0.728670
v -0.336114 -0.459225 0.840049
v -0.403923 -0.372493 0.909493
v -0.423596 -0.246232 0.884709
v -0.792848 -0.358128 0.514359
v -0.751120 -0.379709 0.457495
v -0.723609 -0.446691 0.443450
v -0.731031 -0.508634 0.482802
v -0.767798 -0.518894 0.545917
v -0.806223 -0.469746 0.585268
v -0.817371 -0.398198 0.571224
f 395 388 389
f 395 389 396
f 384 388 387
f 384 383 389
f 384 389 388
f 384 386 385
f 384 387 386
f 390 396 389
f 390 389 383
f 390 383 384
f 390 384 391
f 392 385 386
f 392 386 393
f 392 384 385
f 392 391 384
f 394 392 393
f 394 395 396
f 394 396 390
f 394 390 391
f 394 391 392
f 394 386 387
f 394 393 386
f 394 388 395
f 394 387 388
o Knee_Knot_26
usemtl copper
v -0.668000 -0.440000 0.393914
v -0.706404 -0.360253 0.394064
v -0.792697 -0.340557 0.379141
v -0.861899 -0.395744 0.367435
v -0.861899 -0.484256 0.355610
v -0.792697 -0.539443 0.372411
v -0.706404 -0.519747 0.373691
v -0.600000 -0.440000 0.465668
v -0.664007 -0.307089 0.465846
v -0.807829 -0.274262 0.514317
v -0.923165 -0.366240 0.496630
v -0.923165 -0.513760 0.475319
v -0.807829 -0.605738 0.485542
v -0.664007 -0.572911 0.513043
v -0.647600 -0.440000 0.645141
v -0.693685 -0.344304 0.642415
v -0.797237 -0.320669 0.619372
v -0.880279 -0.386893 0.624503
v -0.880279 -0.493107 0.633870
v -0.797237 -0.559331 0.602460
v -0.693685 -0.535696 0.627695
v -0.761500 -0.440000 0.684359
f 408 401 409
f 408 409 415
f 408 415 407
f 414 415 418
f 414 406 407
f 414 407 415
f 416 418 415
f 416 417 418
f 416 415 409
f 416 409 417
f 402 409 401
f 402 403 409
f 402 401 403
f 410 417 409
f 410 409 403
f 410 403 404
f 397 404 403
f 411 418 417
f 411 412 418
f 411 410 404
f 411 417 410
f 413 412 406
f 413 406 414
f 413 418 412
f 413 414 418
f 405 404 397
f 405 406 412
f 405 411 404
f 405 412 411
f 399 403 401
f 399 406 405
f 398 397 403
f 398 403 399
f 398 405 397
f 398 399 405
f 400 399 401
f 400 408 407
f 400 401 408
f 400 407 406
f 400 406 399
o Hooked_Shin_27
usemtl dark
v -0.841447 -0.363057 0.514359
v -0.755913 -0.355276 0.453958
v -0.684466 -0.432219 0.453958
v -0.698553 -0.516943 0.514359
v -0.784087 -0.524724 0.574761
v -0.855534 -0.447781 0.574761
v -1.073816 -0.674352 0.084359
v -1.045304 -0.671759 0.064225
v -1.021489 -0.697406 0.064225
v -1.026184 -0.725648 0.084359
v -1.054696 -0.728241 0.104493
v -1.078511 -0.702594 0.104493
f 425 424 419
f 425 430 424
f 425 419 420
f 425 420 426
f 422 424 423
f 422 421 420
f 422 420 419
f 422 419 424
f 429 424 430
f 429 423 424
f 429 422 423
f 429 428 422
f 427 425 426
f 427 430 425
f 427 429 430
f 427 428 429
f 427 420 421
f 427 426 420
f 427 421 422
f 427 422 428
o Foot_Hook_28
usemtl edge
v -1.089221 -0.677938 0.084359
v -1.053738 -0.678281 0.045125
v -1.013089 -0.708638 0.060111
v -1.023450 -0.727058 0.108607
v -1.070502 -0.708084 0.123593
v -1.144358 -0.857549 0.004359
v -1.140415 -0.857587 0.000000
v -1.135899 -0.860960 0.001665
v -1.137050 -0.863006 0.007054
v -1.142278 -0.860898 0.008719
f 434 431 435
f 434 433 432
f 434 432 431
f 437 431 432
f 437 436 431
f 438 432 433
f 438 437 432
f 438 433 434
f 438 434 439
f 440 436 437
f 440 438 439
f 440 437 438
f 440 435 431
f 440 431 436
f 440 434 435
f 440 439 434
o Leg_Node_29
usemtl rift
v -0.281500 -0.320000 0.784359
v -0.310750 -0.269338 0.784359
v -0.369250 -0.269338 0.784359
v -0.398500 -0.320000 0.784359
v -0.369250 -0.370662 0.784359
v -0.310750 -0.370662 0.784359
v -0.250000 -0.320000 0.875359
v -0.295000 -0.242058 0.875359
v -0.385000 -0.242058 0.875359
v -0.430000 -0.320000 0.875359
v -0.385000 -0.397942 0.875359
v -0.295000 -0.397942 0.875359
v -0.340000 -0.320000 0.924359
f 453 447 448
f 453 452 447
f 453 450 451
f 453 451 452
f 453 448 449
f 453 449 450
f 442 448 447
f 442 447 441
f 442 449 448
f 442 443 449
f 444 450 449
f 444 449 443
f 446 441 447
f 446 447 452
f 445 442 441
f 445 443 442
f 445 444 443
f 445 441 446
f 445 450 444
f 445 451 450
f 445 446 452
f 445 452 451
o Armoured_Femur_30
usemtl stone
v 0.299680 -0.464479 0.784359
v 0.256404 -0.393768 0.684010
v 0.276077 -0.267507 0.659226
v 0.343886 -0.180775 0.728670
v 0.408768 -0.198882 0.840049
v 0.421867 -0.308193 0.909493
v 0.373318 -0.426395 0.884709
v 0.747152 -0.521872 0.514359
v 0.722629 -0.481802 0.457495
v 0.733777 -0.410254 0.443450
v 0.772202 -0.361106 0.482802
v 0.808969 -0.371366 0.545917
v 0.816391 -0.433309 0.585268
v 0.788880 -0.500291 0.571224
f 465 458 459
f 465 459 466
f 462 455 456
f 462 456 463
f 467 459 460
f 467 466 459
f 454 456 455
f 454 458 457
f 454 460 459
f 454 459 458
f 454 457 456
f 454 462 461
f 454 455 462
f 454 461 467
f 454 467 460
f 464 465 466
f 464 462 463
f 464 466 467
f 464 461 462
f 464 467 461
f 464 456 457
f 464 463 456
f 464 457 458
f 464 458 465
o Knee_Knot_31
usemtl copper
v 0.872000 -0.440000 0.380306
v 0.833596 -0.360253 0.370366
v 0.747303 -0.340557 0.371682
v 0.678101 -0.395744 0.371959
v 0.678101 -0.484256 0.403219
v 0.747303 -0.539443 0.385130
v 0.833596 -0.519747 0.387250
v 0.940000 -0.440000 0.480187
v 0.875993 -0.307089 0.498035
v 0.732171 -0.274262 0.469631
v 0.616835 -0.366240 0.465998
v 0.616835 -0.513760 0.506719
v 0.732171 -0.605738 0.463813
v 0.875993 -0.572911 0.513276
v 0.892400 -0.440000 0.641536
v 0.846315 -0.344304 0.639405
v 0.742763 -0.320669 0.601812
v 0.659721 -0.386893 0.609939
v 0.659721 -0.493107 0.642702
v 0.742763 -0.559331 0.621417
v 0.846315 -0.535696 0.631360
v 0.778500 -0.440000 0.684359
f 469 476 475
f 482 475 476
f 482 489 488
f 477 476 469
f 479 486 478
f 479 478 471
f 487 489 486
f 487 488 489
f 487 479 480
f 487 486 479
f 485 486 489
f 485 489 484
f 485 478 486
f 485 477 478
f 485 484 477
f 483 482 476
f 483 476 477
f 483 477 484
f 483 484 489
f 483 489 482
f 468 469 475
f 468 475 474
f 481 480 474
f 481 487 480
f 481 488 487
f 481 474 475
f 481 475 482
f 481 482 488
f 473 474 480
f 473 471 469
f 473 469 468
f 473 468 474
f 470 469 471
f 470 477 469
f 470 471 478
f 470 478 477
f 472 480 479
f 472 473 480
f 472 479 471
f 472 471 473
o Hooked_Shin_32
usemtl dark
v 0.698553 -0.516943 0.514359
v 0.684466 -0.432219 0.453958
v 0.755913 -0.355276 0.453958
v 0.841447 -0.363057 0.514359
v 0.855534 -0.447781 0.574761
v 0.784087 -0.524724 0.574761
v 1.026184 -0.725648 0.084359
v 1.021489 -0.697406 0.064225
v 1.045304 -0.671759 0.064225
v 1.073816 -0.674352 0.084359
v 1.078511 -0.702594 0.104493
v 1.054696 -0.728241 0.104493
f 493 495 494
f 493 492 491
f 493 491 490
f 493 490 495
f 497 491 492
f 497 492 498
f 497 490 491
f 497 496 490
f 501 494 495
f 501 500 494
f 501 495 490
f 501 490 496
f 499 496 497
f 499 500 501
f 499 497 498
f 499 501 496
f 499 493 494
f 499 494 500
f 499 492 493
f 499 498 492
o Foot_Hook_33
usemtl edge
v 1.010779 -0.722062 0.084359
v 1.029498 -0.691916 0.045125
v 1.076550 -0.672942 0.060111
v 1.086911 -0.691362 0.108607
v 1.046262 -0.721719 0.123593
v 1.135642 -0.862451 0.004359
v 1.137722 -0.859102 0.000000
v 1.142950 -0.856994 0.001665
v 1.144101 -0.859040 0.007054
v 1.139585 -0.862413 0.008719
f 503 502 506
f 503 505 504
f 503 506 505
f 511 505 506
f 511 510 505
f 507 506 502
f 507 511 506
f 508 502 503
f 508 507 502
f 509 510 511
f 509 511 507
f 509 507 508
f 509 504 505
f 509 505 510
f 509 503 504
f 509 508 503
o Leg_Node_34
usemtl rift
v 0.398500 -0.320000 0.784359
v 0.369250 -0.269338 0.784359
v 0.310750 -0.269338 0.784359
v 0.281500 -0.320000 0.784359
v 0.310750 -0.370662 0.784359
v 0.369250 -0.370662 0.784359
v 0.430000 -0.320000 0.875359
v 0.385000 -0.242058 0.875359
v 0.295000 -0.242058 0.875359
v 0.250000 -0.320000 0.875359
v 0.295000 -0.397942 0.875359
v 0.385000 -0.397942 0.875359
v 0.340000 -0.320000 0.924359
f 524 518 519
f 524 523 518
f 524 521 522
f 524 522 523
f 524 519 520
f 524 520 521
f 513 519 518
f 513 518 512
f 513 520 519
f 513 514 520
f 515 521 520
f 515 520 514
f 517 512 518
f 517 518 523
f 516 513 512
f 516 514 513
f 516 515 514
f 516 512 517
f 516 521 515
f 516 522 521
f 516 517 523
f 516 523 522
o Armoured_Femur_35
usemtl stone
v -0.380320 0.194479 0.784359
v -0.306682 0.156395 0.684010
v -0.258133 0.038193 0.659226
v -0.271232 -0.071118 0.728670
v -0.336114 -0.089225 0.840049
v -0.403923 -0.002493 0.909493
v -0.423596 0.123768 0.884709
v -0.792848 0.011872 0.514359
v -0.751120 -0.009709 0.457495
v -0.723609 -0.076691 0.443450
v -0.731031 -0.138634 0.482802
v -0.767798 -0.148894 0.545917
v -0.806223 -0.099746 0.585268
v -0.817371 -0.028198 0.571224
f 537 530 531
f 537 531 538
f 529 530 537
f 529 537 536
f 532 531 525
f 532 538 531
f 526 533 532
f 526 532 525
f 534 526 527
f 534 533 526
f 528 525 531
f 528 527 526
f 528 531 530
f 528 530 529
f 528 526 525
f 535 537 538
f 535 536 537
f 535 538 532
f 535 532 533
f 535 533 534
f 535 529 536
f 535 528 529
f 535 534 527
f 535 527 528
o Knee_Knot_36
usemtl copper
v -0.668000 -0.070000 0.384739
v -0.706404 0.009747 0.398617
v -0.792697 0.029443 0.392419
v -0.861899 -0.025744 0.364345
v -0.861899 -0.114256 0.368168
v -0.792697 -0.169443 0.397411
v -0.706404 -0.149747 0.353128
v -0.600000 -0.070000 0.505242
v -0.664007 0.062911 0.504010
v -0.807829 0.095738 0.487224
v -0.923165 0.003760 0.478814
v -0.923165 -0.143760 0.477559
v -0.807829 -0.235738 0.476358
v -0.664007 -0.202911 0.486058
v -0.647600 -0.070000 0.625091
v -0.693685 0.025696 0.627588
v -0.797237 0.049331 0.650130
v -0.880279 -0.016893 0.639785
v -0.880279 -0.123107 0.631090
v -0.797237 -0.189331 0.649796
v -0.693685 -0.165696 0.610340
v -0.761500 -0.070000 0.684359
f 554 555 560
f 556 560 555
f 556 557 560
f 556 555 549
f 552 551 545
f 552 545 546
f 558 560 557
f 558 559 560
f 558 551 552
f 558 552 559
f 539 546 545
f 539 545 540
f 544 545 551
f 544 551 543
f 544 543 545
f 550 543 551
f 550 551 558
f 550 558 557
f 550 556 549
f 550 557 556
f 553 560 559
f 553 554 560
f 553 546 554
f 553 552 546
f 553 559 552
f 548 540 541
f 548 549 555
f 542 545 543
f 542 540 545
f 542 541 540
f 542 550 549
f 542 543 550
f 542 549 548
f 542 548 541
f 547 540 548
f 547 554 546
f 547 555 554
f 547 548 555
f 547 546 539
f 547 539 540
o Hooked_Shin_37
usemtl dark
v -0.841447 0.006943 0.514359
v -0.755913 0.014724 0.453958
v -0.684466 -0.062219 0.453958
v -0.698553 -0.146943 0.514359
v -0.784087 -0.154724 0.574761
v -0.855534 -0.077781 0.574761
v -1.073816 -0.304352 0.084359
v -1.045304 -0.301759 0.064225
v -1.021489 -0.327406 0.064225
v -1.026184 -0.355648 0.084359
v -1.054696 -0.358241 0.104493
v -1.078511 -0.332594 0.104493
f 564 562 561
f 564 563 562
f 564 566 565
f 564 561 566
f 571 565 566
f 571 566 572
f 571 564 565
f 571 570 564
f 569 562 563
f 569 568 562
f 569 563 564
f 569 564 570
f 567 571 572
f 567 568 569
f 567 570 571
f 567 569 570
f 567 566 561
f 567 572 566
f 567 561 562
f 567 562 568
o Foot_Hook_38
usemtl edge
v -1.089221 -0.307938 0.084359
v -1.053738 -0.308281 0.045125
v -1.013089 -0.338638 0.060111
v -1.023450 -0.357058 0.108607
v -1.070502 -0.338084 0.123593
v -1.144358 -0.487549 0.004359
v -1.140415 -0.487587 0.000000
v -1.135899 -0.490960 0.001665
v -1.137050 -0.493006 0.007054
v -1.142278 -0.490898 0.008719
f 576 573 577
f 576 575 574
f 576 574 573
f 579 573 574
f 579 578 573
f 580 574 575
f 580 579 574
f 580 575 576
f 580 576 581
f 582 578 579
f 582 580 581
f 582 579 580
f 582 577 573
f 582 573 578
f 582 576 577
f 582 581 576
o Leg_Node_39
usemtl rift
v -0.281500 0.050000 0.784359
v -0.310750 0.100662 0.784359
v -0.369250 0.100662 0.784359
v -0.398500 0.050000 0.784359
v -0.369250 -0.000662 0.784359
v -0.310750 -0.000662 0.784359
v -0.250000 0.050000 0.875359
v -0.295000 0.127942 0.875359
v -0.385000 0.127942 0.875359
v -0.430000 0.050000 0.875359
v -0.385000 -0.027942 0.875359
v -0.295000 -0.027942 0.875359
v -0.340000 0.050000 0.924359
f 595 594 589
f 595 589 590
f 595 591 592
f 595 590 591
f 595 593 594
f 595 592 593
f 588 589 594
f 588 583 589
f 588 594 593
f 588 593 587
f 586 587 593
f 586 593 592
f 586 592 591
f 586 591 585
f 584 583 588
f 584 588 587
f 584 587 586
f 584 586 585
f 584 589 583
f 584 590 589
f 584 585 591
f 584 591 590
o Armoured_Femur_40
usemtl stone
v 0.299680 -0.094479 0.784359
v 0.256404 -0.023768 0.684010
v 0.276077 0.102493 0.659226
v 0.343886 0.189225 0.728670
v 0.408768 0.171118 0.840049
v 0.421867 0.061807 0.909493
v 0.373318 -0.056395 0.884709
v 0.747152 -0.151872 0.514359
v 0.722629 -0.111802 0.457495
v 0.733777 -0.040254 0.443450
v 0.772202 0.008894 0.482802
v 0.808969 -0.001366 0.545917
v 0.816391 -0.063309 0.585268
v 0.788880 -0.130291 0.571224
f 602 597 596
f 602 600 599
f 602 598 597
f 602 601 600
f 602 599 598
f 606 598 599
f 606 605 598
f 609 601 602
f 609 608 601
f 609 602 596
f 609 596 603
f 604 597 598
f 604 598 605
f 604 596 597
f 604 603 596
f 607 608 609
f 607 604 605
f 607 605 606
f 607 609 603
f 607 603 604
f 607 600 601
f 607 601 608
f 607 599 600
f 607 606 599
o Knee_Knot_41
usemtl copper
v 0.872000 -0.070000 0.369535
v 0.833596 0.009747 0.403210
v 0.747303 0.029443 0.369114
v 0.678101 -0.025744 0.393075
v 0.678101 -0.114256 0.397224
v 0.747303 -0.169443 0.372805
v 0.833596 -0.149747 0.375191
v 0.940000 -0.070000 0.482370
v 0.875993 0.062911 0.468814
v 0.732171 0.095738 0.487787
v 0.616835 0.003760 0.475668
v 0.616835 -0.143760 0.476474
v 0.732171 -0.235738 0.472781
v 0.875993 -0.202911 0.473246
v 0.892400 -0.070000 0.640865
v 0.846315 0.025696 0.620932
v 0.742763 0.049331 0.612411
v 0.659721 -0.016893 0.629495
v 0.659721 -0.123107 0.630177
v 0.742763 -0.189331 0.632349
v 0.846315 -0.165696 0.645838
v 0.778500 -0.070000 0.684359
f 627 619 620
f 627 620 628
f 627 628 631
f 623 610 617
f 623 617 630
f 623 630 622
f 623 622 615
f 618 617 610
f 618 619 625
f 621 628 620
f 621 615 622
f 621 620 613
f 629 631 628
f 629 630 631
f 629 622 630
f 629 621 622
f 629 628 621
f 624 630 617
f 624 617 618
f 624 618 625
f 624 631 630
f 624 625 631
f 626 619 627
f 626 625 619
f 626 627 631
f 626 631 625
f 616 615 610
f 616 610 623
f 616 623 615
f 612 610 615
f 612 615 613
f 612 619 618
f 612 620 619
f 612 613 620
f 614 613 615
f 614 615 621
f 614 621 613
f 611 618 610
f 611 610 612
f 611 612 618
o Hooked_Shin_42
usemtl dark
v 0.698553 -0.146943 0.514359
v 0.684466 -0.062219 0.453958
v 0.755913 0.014724 0.453958
v 0.841447 0.006943 0.514359
v 0.855534 -0.077781 0.574761
v 0.784087 -0.154724 0.574761
v 1.026184 -0.355648 0.084359
v 1.021489 -0.327406 0.064225
v 1.045304 -0.301759 0.064225
v 1.073816 -0.304352 0.084359
v 1.078511 -0.332594 0.104493
v 1.054696 -0.358241 0.104493
f 635 633 632
f 635 634 633
f 635 637 636
f 635 632 637
f 643 636 637
f 643 642 636
f 641 635 636
f 641 636 642
f 641 634 635
f 641 640 634
f 638 637 632
f 638 643 637
f 639 642 643
f 639 641 642
f 639 640 641
f 639 643 638
f 639 633 634
f 639 634 640
f 639 632 633
f 639 638 632
o Foot_Hook_43
usemtl edge
v 1.010779 -0.352062 0.084359
v 1.029498 -0.321916 0.045125
v 1.076550 -0.302942 0.060111
v 1.086911 -0.321362 0.108607
v 1.046262 -0.351719 0.123593
v 1.135642 -0.492451 0.004359
v 1.137722 -0.489102 0.000000
v 1.142950 -0.486994 0.001665
v 1.144101 -0.489040 0.007054
v 1.139585 -0.492413 0.008719
f 645 644 648
f 645 647 646
f 645 648 647
f 653 647 648
f 653 652 647
f 649 648 644
f 649 653 648
f 649 644 645
f 649 645 650
f 651 652 653
f 651 649 650
f 651 653 649
f 651 646 647
f 651 647 652
f 651 645 646
f 651 650 645
o Leg_Node_44
usemtl rift
v 0.398500 0.050000 0.784359
v 0.369250 0.100662 0.784359
v 0.310750 0.100662 0.784359
v 0.281500 0.050000 0.784359
v 0.310750 -0.000662 0.784359
v 0.369250 -0.000662 0.784359
v 0.430000 0.050000 0.875359
v 0.385000 0.127942 0.875359
v 0.295000 0.127942 0.875359
v 0.250000 0.050000 0.875359
v 0.295000 -0.027942 0.875359
v 0.385000 -0.027942 0.875359
v 0.340000 0.050000 0.924359
f 666 665 660
f 666 660 661
f 666 662 663
f 666 661 662
f 666 664 665
f 666 663 664
f 659 660 665
f 659 654 660
f 659 665 664
f 659 664 658
f 657 664 663
f 657 658 664
f 655 660 654
f 655 661 660
f 656 654 659
f 656 659 658
f 656 658 657
f 656 655 654
f 656 657 663
f 656 663 662
f 656 661 655
f 656 662 661
o Armoured_Femur_45
usemtl stone
v -0.380320 0.564479 0.784359
v -0.306682 0.526395 0.684010
v -0.258133 0.408193 0.659226
v -0.271232 0.298882 0.728670
v -0.336114 0.280775 0.840049
v -0.403923 0.367507 0.909493
v -0.423596 0.493768 0.884709
v -0.792848 0.381872 0.514359
v -0.751120 0.360291 0.457495
v -0.723609 0.293309 0.443450
v -0.731031 0.231366 0.482802
v -0.767798 0.221106 0.545917
v -0.806223 0.270254 0.585268
v -0.817371 0.341802 0.571224
f 679 672 673
f 679 673 680
f 674 673 667
f 674 680 673
f 668 675 674
f 668 674 667
f 671 667 673
f 671 670 669
f 671 673 672
f 671 669 668
f 671 668 667
f 671 672 679
f 671 679 678
f 676 675 668
f 676 668 669
f 677 679 680
f 677 678 679
f 677 680 674
f 677 674 675
f 677 675 676
f 677 671 678
f 677 670 671
f 677 669 670
f 677 676 669
o Knee_Knot_46
usemtl copper
v -0.668000 0.300000 0.397242
v -0.706404 0.379747 0.367487
v -0.792697 0.399443 0.383620
v -0.861899 0.344256 0.392514
v -0.861899 0.255744 0.389379
v -0.792697 0.200557 0.399544
v -0.706404 0.220253 0.396739
v -0.600000 0.300000 0.510189
v -0.664007 0.432911 0.464715
v -0.807829 0.465738 0.485659
v -0.923165 0.373760 0.488091
v -0.923165 0.226240 0.466682
v -0.807829 0.134262 0.463646
v -0.664007 0.167089 0.505721
v -0.647600 0.300000 0.649508
v -0.693685 0.395696 0.639374
v -0.797237 0.419331 0.615455
v -0.880279 0.353107 0.635331
v -0.880279 0.246893 0.614618
v -0.797237 0.180669 0.637137
v -0.693685 0.204304 0.613626
v -0.761500 0.300000 0.684359
f 698 699 702
f 700 702 699
f 684 682 685
f 692 685 693
f 692 693 700
f 692 700 699
f 692 698 691
f 692 699 698
f 692 691 684
f 692 684 685
f 681 682 688
f 681 687 682
f 694 693 687
f 694 700 693
f 694 701 700
f 694 681 688
f 694 687 681
f 686 693 685
f 686 687 693
f 686 685 682
f 686 682 687
f 689 688 682
f 689 696 688
f 695 688 696
f 695 694 688
f 695 701 694
f 695 696 702
f 695 702 700
f 695 700 701
f 683 684 691
f 683 682 684
f 690 696 689
f 690 691 698
f 690 683 691
f 690 689 682
f 690 682 683
f 697 690 698
f 697 696 690
f 697 698 702
f 697 702 696
o Hooked_Shin_47
usemtl dark
v -0.841447 0.376943 0.514359
v -0.755913 0.384724 0.453958
v -0.684466 0.307781 0.453958
v -0.698553 0.223057 0.514359
v -0.784087 0.215276 0.574761
v -0.855534 0.292219 0.574761
v -1.073816 0.065648 0.084359
v -1.045304 0.068241 0.064225
v -1.021489 0.042594 0.064225
v -1.026184 0.014352 0.084359
v -1.054696 0.011759 0.104493
v -1.078511 0.037406 0.104493
f 706 704 703
f 706 705 704
f 706 708 707
f 706 703 708
f 713 707 708
f 713 708 714
f 713 706 707
f 713 712 706
f 711 704 705
f 711 710 704
f 711 705 706
f 711 706 712
f 709 713 714
f 709 710 711
f 709 712 713
f 709 711 712
f 709 708 703
f 709 714 708
f 709 703 704
f 709 704 710
o Foot_Hook_48
usemtl edge
v -1.089221 0.062062 0.084359
v -1.053738 0.061719 0.045125
v -1.013089 0.031362 0.060111
v -1.023450 0.012942 0.108607
v -1.070502 0.031916 0.123593
v -1.144358 -0.117549 0.004359
v -1.140415 -0.117587 0.000000
v -1.135899 -0.120960 0.001665
v -1.137050 -0.123006 0.007054
v -1.142278 -0.120898 0.008719
f 718 715 719
f 718 717 716
f 718 716 715
f 721 715 716
f 721 720 715
f 722 716 717
f 722 721 716
f 722 717 718
f 722 718 723
f 724 720 721
f 724 722 723
f 724 721 722
f 724 719 715
f 724 715 720
f 724 718 719
f 724 723 718
o Leg_Node_49
usemtl rift
v -0.281500 0.420000 0.784359
v -0.310750 0.470662 0.784359
v -0.369250 0.470662 0.784359
v -0.398500 0.420000 0.784359
v -0.369250 0.369338 0.784359
v -0.310750 0.369338 0.784359
v -0.250000 0.420000 0.875359
v -0.295000 0.497942 0.875359
v -0.385000 0.497942 0.875359
v -0.430000 0.420000 0.875359
v -0.385000 0.342058 0.875359
v -0.295000 0.342058 0.875359
v -0.340000 0.420000 0.924359
f 737 731 732
f 737 736 731
f 737 734 735
f 737 735 736
f 737 732 733
f 737 733 734
f 726 732 731
f 726 731 725
f 726 733 732
f 726 727 733
f 728 734 733
f 728 733 727
f 730 725 731
f 730 731 736
f 729 726 725
f 729 727 726
f 729 728 727
f 729 725 730
f 729 734 728
f 729 735 734
f 729 730 736
f 729 736 735
o Armoured_Femur_50
usemtl stone
v 0.299680 0.275521 0.784359
v 0.256404 0.346232 0.684010
v 0.276077 0.472493 0.659226
v 0.343886 0.559225 0.728670
v 0.408768 0.541118 0.840049
v 0.421867 0.431807 0.909493
v 0.373318 0.313605 0.884709
v 0.747152 0.218128 0.514359
v 0.722629 0.258198 0.457495
v 0.733777 0.329746 0.443450
v 0.772202 0.378894 0.482802
v 0.808969 0.368634 0.545917
v 0.816391 0.306691 0.585268
v 0.788880 0.239709 0.571224
f 744 739 738
f 744 742 741
f 744 740 739
f 744 743 742
f 744 741 740
f 749 742 743
f 749 743 750
f 751 743 744
f 751 750 743
f 751 744 738
f 751 738 745
f 746 739 740
f 746 740 747
f 746 738 739
f 746 745 738
f 748 750 751
f 748 749 750
f 748 746 747
f 748 751 745
f 748 745 746
f 748 740 741
f 748 747 740
f 748 741 742
f 748 742 749
o Knee_Knot_51
usemtl copper
v 0.872000 0.300000 0.401615
v 0.833596 0.379747 0.363451
v 0.747303 0.399443 0.395110
v 0.678101 0.344256 0.360473
v 0.678101 0.255744 0.379012
v 0.747303 0.200557 0.359791
v 0.833596 0.220253 0.388000
v 0.940000 0.300000 0.506288
v 0.875993 0.432911 0.485060
v 0.732171 0.465738 0.512163
v 0.616835 0.373760 0.505451
v 0.616835 0.226240 0.480608
v 0.732171 0.134262 0.492723
v 0.875993 0.167089 0.501778
v 0.892400 0.300000 0.641542
v 0.846315 0.395696 0.646965
v 0.742763 0.419331 0.606754
v 0.659721 0.353107 0.637384
v 0.659721 0.246893 0.606466
v 0.742763 0.180669 0.645592
v 0.846315 0.204304 0.610891
v 0.778500 0.300000 0.684359
f 767 769 773
f 771 773 769
f 771 769 770
f 763 764 771
f 763 771 770
f 763 769 762
f 763 770 769
f 763 762 755
f 763 755 756
f 752 753 759
f 752 759 758
f 752 758 753
f 765 771 764
f 765 772 771
f 765 758 759
f 757 764 763
f 757 763 756
f 757 765 764
f 757 758 765
f 757 756 755
f 757 753 758
f 757 755 753
f 760 759 753
f 760 767 759
f 766 759 767
f 766 765 759
f 766 772 765
f 766 767 773
f 766 773 771
f 766 771 772
f 761 767 760
f 761 762 769
f 761 755 762
f 761 760 753
f 768 769 767
f 768 761 769
f 768 767 761
f 754 753 755
f 754 761 753
f 754 755 761
o Hooked_Shin_52
usemtl dark
v 0.698553 0.223057 0.514359
v 0.684466 0.307781 0.453958
v 0.755913 0.384724 0.453958
v 0.841447 0.376943 0.514359
v 0.855534 0.292219 0.574761
v 0.784087 0.215276 0.574761
v 1.026184 0.014352 0.084359
v 1.021489 0.042594 0.064225
v 1.045304 0.068241 0.064225
v 1.073816 0.065648 0.084359
v 1.078511 0.037406 0.104493
v 1.054696 0.011759 0.104493
f 777 779 778
f 777 776 775
f 777 775 774
f 777 774 779
f 781 775 776
f 781 776 782
f 781 774 775
f 781 780 774
f 785 778 779
f 785 784 778
f 785 779 774
f 785 774 780
f 783 780 781
f 783 784 785
f 783 781 782
f 783 785 780
f 783 777 778
f 783 778 784
f 783 776 777
f 783 782 776
o Foot_Hook_53
usemtl edge
v 1.010779 0.017938 0.084359
v 1.029498 0.048084 0.045125
v 1.076550 0.067058 0.060111
v 1.086911 0.048638 0.108607
v 1.046262 0.018281 0.123593
v 1.135642 -0.122451 0.004359
v 1.137722 -0.119102 0.000000
v 1.142950 -0.116994 0.001665
v 1.144101 -0.119040 0.007054
v 1.139585 -0.122413 0.008719
f 787 786 790
f 787 789 788
f 787 790 789
f 795 789 790
f 795 794 789
f 791 790 786
f 791 795 790
f 793 788 789
f 793 789 794
f 792 794 795
f 792 795 791
f 792 793 794
f 792 786 787
f 792 791 786
f 792 787 788
f 792 788 793
o Leg_Node_54
usemtl rift
v 0.398500 0.420000 0.784359
v 0.369250 0.470662 0.784359
v 0.310750 0.470662 0.784359
v 0.281500 0.420000 0.784359
v 0.310750 0.369338 0.784359
v 0.369250 0.369338 0.784359
v 0.430000 0.420000 0.875359
v 0.385000 0.497942 0.875359
v 0.295000 0.497942 0.875359
v 0.250000 0.420000 0.875359
v 0.295000 0.342058 0.875359
v 0.385000 0.342058 0.875359
v 0.340000 0.420000 0.924359
f 808 802 803
f 808 807 802
f 808 805 806
f 808 806 807
f 808 803 804
f 808 804 805
f 797 803 802
f 797 802 796
f 797 804 803
f 797 798 804
f 799 805 804
f 799 804 798
f 801 796 802
f 801 802 807
f 800 797 796
f 800 798 797
f 800 799 798
f 800 796 801
f 800 805 799
f 800 806 805
f 800 801 807
f 800 807 806