{"asset":{"version":"2.0","generator":"RIFTBOUND procedural asset builder"},"scene":0,"scenes":[{"nodes":[0]}],"nodes":[{"name":"RIG_Root","children":[1],"translation":[0.0,-0.03564067654680371,-0.0]},{"name":"RIG_Torso","children":[2,3,5,7,9,11,13,15,16,17,18,19,20,21,44,49,54,59,64,69],"translation":[0.0,0.78,-0.0]},{"name":"RIG_Head","children":[22,23,24,25,26,27,28,29,30,31,32,33,34,35,36,37,38,39],"translation":[0.0,0.07999999999999996,0.43]},{"name":"RIG_L1UpperLeg","children":[4,40],"translation":[-0.34,0.039999999999999925,0.32]},{"name":"RIG_L1LowerLeg","children":[41,42,43],"translation":[-0.43,-0.2699999999999999,0.12]},{"name":"RIG_R1UpperLeg","children":[6,45],"translation":[0.34,0.039999999999999925,0.32]},{"name":"RIG_R1LowerLeg","children":[46,47,48],"translation":[0.43,-0.2699999999999999,0.12]},{"name":"RIG_L2UpperLeg","children":[8,50],"translation":[-0.34,0.039999999999999925,-0.05]},{"name":"RIG_L2LowerLeg","children":[51,52,53],"translation":[-0.43,-0.2699999999999999,0.12]},{"name":"RIG_R2UpperLeg","children":[10,55],"translation":[0.34,0.039999999999999925,-0.05]},{"name":"RIG_R2LowerLeg","children":[56,57,58],"translation":[0.43,-0.2699999999999999,0.12]},{"name":"RIG_L3UpperLeg","children":[12,60],"translation":[-0.34,0.039999999999999925,-0.42]},{"name":"RIG_L3LowerLeg","children":[61,62,63],"translation":[-0.43,-0.2699999999999999,0.12]},{"name":"RIG_R3UpperLeg","children":[14,65],"translation":[0.34,0.039999999999999925,-0.42]},{"name":"RIG_R3LowerLeg","children":[66,67,68],"translation":[0.43,-0.2699999999999999,0.12]},{"name":"Abdomen_Mesh","mesh":0,"translation":[0.0015454545454545456,-0.013961175180681074,-0.40000000000000013]},{"name":"Carapace_Plate_Mesh","mesh":1,"translation":[-0.37499999999999994,0.20000000000000018,-0.12000000000000004]},{"name":"Carapace_Plate_Mesh","mesh":2,"translation":[-0.125,0.20000000000000018,-0.12000000000000004]},{"name":"Carapace_Plate_Mesh","mesh":3,"translation":[0.125,0.20000000000000018,-0.12000000000000004]},{"name":"Carapace_Plate_Mesh","mesh":4,"translation":[0.37500000000000006,0.20000000000000018,-0.12000000000000004]},{"name":"Dorsal_Shard_Mesh","mesh":5,"translation":[0.0,0.6146923076923075,-0.41015384615384615]},{"name":"Thorax_Mesh","mesh":6,"translation":[0.0010909090909090808,-0.012211904482080205,0.23000000000000007]},{"name":"Skull_Mesh","mesh":7,"translation":[0.0011136363636363535,-0.034806378119044856,0.12000000000000005]},{"name":"Eye_Socket_Mesh","mesh":8,"translation":[-4.625929269271485e-18,0.15999999999999992,0.4400000000000002]},{"name":"Cluster_Eye_Mesh","mesh":9,"translation":[-0.22,0.22638461538461518,0.5199999999999998]},{"name":"Cluster_Eye_Mesh","mesh":10,"translation":[5.337610695313253e-19,0.26638461538461566,0.5199999999999998]},{"name":"Cluster_Eye_Mesh","mesh":11,"translation":[0.22,0.22638461538461518,0.5199999999999998]},{"name":"Mouth_Cavity_Mesh","mesh":12,"translation":[0.0,-0.09999999999999987,0.48000000000000015]},{"name":"Upper_Fang_Mesh","mesh":13,"translation":[-0.09999999999999999,-0.04999999999999982,0.5700000000000001]},{"name":"Lower_Fang_Mesh","mesh":14,"translation":[-0.1,-0.135,0.5650000000000002]},{"name":"Upper_Fang_Mesh","mesh":15,"translation":[-0.2,-0.1150000000000001,0.5700000000000001]},{"name":"Lower_Fang_Mesh","mesh":16,"translation":[-0.2,-0.135,0.5650000000000002]},{"name":"Upper_Fang_Mesh","mesh":17,"translation":[-0.3000000000000001,-0.17999999999999994,0.5700000000000001]},{"name":"Lower_Fang_Mesh","mesh":18,"translation":[-0.3000000000000001,-0.135,0.5650000000000002]},{"name":"Upper_Fang_Mesh","mesh":19,"translation":[0.09999999999999999,-0.04999999999999982,0.5700000000000001]},{"name":"Lower_Fang_Mesh","mesh":20,"translation":[0.1,-0.135,0.5650000000000002]},{"name":"Upper_Fang_Mesh","mesh":21,"translation":[0.20000000000000004,-0.1150000000000001,0.5700000000000001]},{"name":"Lower_Fang_Mesh","mesh":22,"translation":[0.19999999999999998,-0.135,0.5650000000000002]},{"name":"Upper_Fang_Mesh","mesh":23,"translation":[0.30000000000000004,-0.17999999999999994,0.5700000000000001]},{"name":"Lower_Fang_Mesh","mesh":24,"translation":[0.3,-0.135,0.5650000000000002]},{"name":"Armoured_Femur_Mesh","mesh":25,"translation":[-0.21500000000000002,-0.1349999999999999,0.06]},{"name":"Knee_Knot_Mesh","mesh":26,"translation":[0.0003863636363633516,-0.0083389094709716,5.551115123125783e-17]},{"name":"Hooked_Shin_Mesh","mesh":27,"translation":[-0.1399999999999998,-0.21500000000000002,0.12999999999999995]},{"name":"Foot_Hook_Mesh","mesh":28,"translation":[-0.3250000000000002,-0.4700000000000001,0.3399999999999999]},{"name":"Leg_Node_Mesh","mesh":29,"translation":[-0.33999999999999997,0.09276923076923071,0.32]},{"name":"Armoured_Femur_Mesh","mesh":30,"translation":[0.21500000000000002,-0.1349999999999999,0.06]},{"name":"Knee_Knot_Mesh","mesh":31,"translation":[0.00038636363636379567,-0.007991096563228717,5.551115123125783e-17]},{"name":"Hooked_Shin_Mesh","mesh":32,"translation":[0.14000000000000012,-0.21500000000000002,0.12999999999999995]},{"name":"Foot_Hook_Mesh","mesh":33,"translation":[0.32499999999999996,-0.4700000000000001,0.34]},{"name":"Leg_Node_Mesh","mesh":34,"translation":[0.33999999999999997,0.09276923076923071,0.32]},{"name":"Armoured_Femur_Mesh","mesh":35,"translation":[-0.21500000000000002,-0.1349999999999999,0.060000000000000005]},{"name":"Knee_Knot_Mesh","mesh":36,"translation":[0.0003863636363633516,-0.0056197059085434375,1.3877787807814457e-17]},{"name":"Hooked_Shin_Mesh","mesh":37,"translation":[-0.1399999999999998,-0.21500000000000002,0.13]},{"name":"Foot_Hook_Mesh","mesh":38,"translation":[-0.3250000000000002,-0.4700000000000001,0.33999999999999997]},{"name":"Leg_Node_Mesh","mesh":39,"translation":[-0.33999999999999997,0.09276923076923071,-0.05000000000000001]},{"name":"Armoured_Femur_Mesh","mesh":40,"translation":[0.21500000000000002,-0.1349999999999999,0.05999999999999999]},{"name":"Knee_Knot_Mesh","mesh":41,"translation":[0.00038636363636379567,-0.009190225984894052,1.3877787807814457e-17]},{"name":"Hooked_Shin_Mesh","mesh":42,"translation":[0.14000000000000012,-0.21500000000000002,0.13]},{"name":"Foot_Hook_Mesh","mesh":43,"translation":[0.32499999999999996,-0.4700000000000001,0.34]},{"name":"Leg_Node_Mesh","mesh":44,"translation":[0.33999999999999997,0.09276923076923071,-0.05000000000000001]},{"name":"Armoured_Femur_Mesh","mesh":45,"translation":[-0.21500000000000002,-0.1349999999999999,0.06]},{"name":"Knee_Knot_Mesh","mesh":46,"translation":[0.0003863636363633516,-0.00523937877712477,5.551115123125783e-17]},{"name":"Hooked_Shin_Mesh","mesh":47,"translation":[-0.1399999999999998,-0.21500000000000002,0.13000000000000003]},{"name":"Foot_Hook_Mesh","mesh":48,"translation":[-0.3250000000000002,-0.4700000000000001,0.34]},{"name":"Leg_Node_Mesh","mesh":49,"translation":[-0.33999999999999997,0.09276923076923071,-0.42]},{"name":"Armoured_Femur_Mesh","mesh":50,"translation":[0.21500000000000002,-0.1349999999999999,0.06]},{"name":"Knee_Knot_Mesh","mesh":51,"translation":[0.00038636363636379567,-0.004746686336035033,5.551115123125783e-17]},{"name":"Hooked_Shin_Mesh","mesh":52,"translation":[0.14000000000000012,-0.21500000000000002,0.13000000000000003]},{"name":"Foot_Hook_Mesh","mesh":53,"translation":[0.32499999999999996,-0.4700000000000001,0.34]},{"name":"Leg_Node_Mesh","mesh":54,"translation":[0.33999999999999997,0.09276923076923071,-0.42]}],"meshes":[{"name":"Abdomen_0","primitives":[{"attributes":{"POSITION":0,"NORMAL":1},"material":2}]},{"name":"Carapace_Plate_1","primitives":[{"attributes":{"POSITION":2,"NORMAL":3},"material":1}]},{"name":"Carapace_Plate_2","primitives":[{"attributes":{"POSITION":4,"NORMAL":5},"material":0}]},{"name":"Carapace_Plate_3","primitives":[{"attributes":{"POSITION":6,"NORMAL":7},"material":1}]},{"name":"Carapace_Plate_4","primitives":[{"attributes":{"POSITION":8,"NORMAL":9},"material":0}]},{"name":"Dorsal_Shard_5","primitives":[{"attributes":{"POSITION":10,"NORMAL":11},"material":7}]},{"name":"Thorax_6","primitives":[{"attributes":{"POSITION":12,"NORMAL":13},"material":10}]},{"name":"Skull_7","primitives":[{"attributes":{"POSITION":14,"NORMAL":15},"material":1}]},{"name":"Eye_Socket_8","primitives":[{"attributes":{"POSITION":16,"NORMAL":17},"material":2}]},{"name":"Cluster_Eye_9","primitives":[{"attributes":{"POSITION":18,"NORMAL":19},"material":7}]},{"name":"Cluster_Eye_10","primitives":[{"attributes":{"POSITION":20,"NORMAL":21},"material":7}]},{"name":"Cluster_Eye_11","primitives":[{"attributes":{"POSITION":22,"NORMAL":23},"material":7}]},{"name":"Mouth_Cavity_12","primitives":[{"attributes":{"POSITION":24,"NORMAL":25},"material":2}]},{"name":"Upper_Fang_13","primitives":[{"attributes":{"POSITION":26,"NORMAL":27},"material":8}]},{"name":"Lower_Fang_14","primitives":[{"attributes":{"POSITION":28,"NORMAL":29},"material":5}]},{"name":"Upper_Fang_15","primitives":[{"attributes":{"POSITION":30,"NORMAL":31},"material":8}]},{"name":"Lower_Fang_16","primitives":[{"attributes":{"POSITION":32,"NORMAL":33},"material":5}]},{"name":"Upper_Fang_17","primitives":[{"attributes":{"POSITION":34,"NORMAL":35},"material":8}]},{"name":"Lower_Fang_18","primitives":[{"attributes":{"POSITION":36,"NORMAL":37},"material":5}]},{"name":"Upper_Fang_19","primitives":[{"attributes":{"POSITION":38,"NORMAL":39},"material":8}]},{"name":"Lower_Fang_20","primitives":[{"attributes":{"POSITION":40,"NORMAL":41},"material":5}]},{"name":"Upper_Fang_21","primitives":[{"attributes":{"POSITION":42,"NORMAL":43},"material":8}]},{"name":"Lower_Fang_22","primitives":[{"attributes":{"POSITION":44,"NORMAL":45},"material":5}]},{"name":"Upper_Fang_23","primitives":[{"attributes":{"POSITION":46,"NORMAL":47},"material":8}]},{"name":"Lower_Fang_24","primitives":[{"attributes":{"POSITION":48,"NORMAL":49},"material":5}]},{"name":"Armoured_Femur_25","primitives":[{"attributes":{"POSITION":50,"NORMAL":51},"material":0}]},{"name":"Knee_Knot_26","primitives":[{"attributes":{"POSITION":52,"NORMAL":53},"material":5}]},{"name":"Hooked_Shin_27","primitives":[{"attributes":{"POSITION":54,"NORMAL":55},"material":2}]},{"name":"Foot_Hook_28","primitives":[{"attributes":{"POSITION":56,"NORMAL":57},"material":1}]},{"name":"Leg_Node_29","primitives":[{"attributes":{"POSITION":58,"NORMAL":59},"material":7}]},{"name":"Armoured_Femur_30","primitives":[{"attributes":{"POSITION":60,"NORMAL":61},"material":0}]},{"name":"Knee_Knot_31","primitives":[{"attributes":{"POSITION":62,"NORMAL":63},"material":5}]},{"name":"Hooked_Shin_32","primitives":[{"attributes":{"POSITION":64,"NORMAL":65},"material":2}]},{"name":"Foot_Hook_33","primitives":[{"attributes":{"POSITION":66,"NORMAL":67},"material":1}]},{"name":"Leg_Node_34","primitives":[{"attributes":{"POSITION":68,"NORMAL":69},"material":7}]},{"name":"Armoured_Femur_35","primitives":[{"attributes":{"POSITION":70,"NORMAL":71},"material":0}]},{"name":"Knee_Knot_36","primitives":[{"attributes":{"POSITION":72,"NORMAL":73},"material":5}]},{"name":"Hooked_Shin_37","primitives":[{"attributes":{"POSITION":74,"NORMAL":75},"material":2}]},{"name":"Foot_Hook_38","primitives":[{"attributes":{"POSITION":76,"NORMAL":77},"material":1}]},{"name":"Leg_Node_39","primitives":[{"attributes":{"POSITION":78,"NORMAL":79},"material":7}]},{"name":"Armoured_Femur_40","primitives":[{"attributes":{"POSITION":80,"NORMAL":81},"material":0}]},{"name":"Knee_Knot_41","primitives":[{"attributes":{"POSITION":82,"NORMAL":83},"material":5}]},{"name":"Hooked_Shin_42","primitives":[{"attributes":{"POSITION":84,"NORMAL":85},"material":2}]},{"name":"Foot_Hook_43","primitives":[{"attributes":{"POSITION":86,"NORMAL":87},"material":1}]},{"name":"Leg_Node_44","primitives":[{"attributes":{"POSITION":88,"NORMAL":89},"material":7}]},{"name":"Armoured_Femur_45","primitives":[{"attributes":{"POSITION":90,"NORMAL":91},"material":0}]},{"name":"Knee_Knot_46","primitives":[{"attributes":{"POSITION":92,"NORMAL":93},"material":5}]},{"name":"Hooked_Shin_47","primitives":[{"attributes":{"POSITION":94,"NORMAL":95},"material":2}]},{"name":"Foot_Hook_48","primitives":[{"attributes":{"POSITION":96,"NORMAL":97},"material":1}]},{"name":"Leg_Node_49","primitives":[{"attributes":{"POSITION":98,"NORMAL":99},"material":7}]},{"name":"Armoured_Femur_50","primitives":[{"attributes":{"POSITION":100,"NORMAL":101},"material":0}]},{"name":"Knee_Knot_51","primitives":[{"attributes":{"POSITION":102,"NORMAL":103},"material":5}]},{"name":"Hooked_Shin_52","primitives":[{"attributes":{"POSITION":104,"NORMAL":105},"material":2}]},{"name":"Foot_Hook_53","primitives":[{"attributes":{"POSITION":106,"NORMAL":107},"material":1}]},{"name":"Leg_Node_54","primitives":[{"attributes":{"POSITION":108,"NORMAL":109},"material":7}]}],"materials":[{"name":"stone","pbrMetallicRoughness":{"baseColorFactor":[0.05284162552287903,0.08464151072542946,0.11657577617857154,1],"metallicFactor":0,"roughnessFactor":0.8}},{"name":"edge","pbrMetallicRoughness":{"baseColorFactor":[0.18014428915439032,0.27583283346124515,0.31118049905798434,1],"metallicFactor":0,"roughnessFactor":0.8}},{"name":"dark","pbrMetallicRoughness":{"baseColorFactor":[0.009021491898012131,0.016988052089250045,0.03155139140022645,1],"metallicFactor":0,"roughnessFactor":0.8}},{"name":"wood","pbrMetallicRoughness":{"baseColorFactor":[0.1390224537347025,0.04943345755590796,0.02201299491933654,1],"metallicFactor":0,"roughnessFactor":0.8}},{"name":"woodlight","pbrMetallicRoughness":{"baseColorFactor":[0.36859092219748707,0.14497212559723088,0.042987010162657116,1],"metallicFactor":0,"roughnessFactor":0.8}},{"name":"copper","pbrMetallicRoughness":{"baseColorFactor":[0.6730490732809419,0.20835965596076741,0.05637409755197975,1],"metallicFactor":0.35,"roughnessFactor":0.8}},{"name":"gold","pbrMetallicRoughness":{"baseColorFactor":[0.9489649381781952,0.5174013674966733,0.12752977781342206,1],"metallicFactor":0.35,"roughnessFactor":0.8}},{"name":"rift","pbrMetallicRoughness":{"baseColorFactor":[0.051122050056493396,0.7969165429079781,0.5859729839496614,1],"metallicFactor":0,"roughnessFactor":0.8},"emissiveFactor":[0.017892717519772686,0.2789207900177923,0.20509054438238147]},{"name":"ice","pbrMetallicRoughness":{"baseColorFactor":[0.4704402453042184,1.0,0.8355277914608409,1],"metallicFactor":0,"roughnessFactor":0.8},"emissiveFactor":[0.16465408585647642,0.35,0.2924347270112943]},{"name":"moss","pbrMetallicRoughness":{"baseColorFactor":[0.05459227728176034,0.14799802298268516,0.06381487094867724,1],"metallicFactor":0,"roughnessFactor":0.8}},{"name":"bark","pbrMetallicRoughness":{"baseColorFactor":[0.06575388026033009,0.03423020656508195,0.020951131914781092,1],"metallicFactor":0,"roughnessFactor":0.8}},{"name":"cloth","pbrMetallicRoughness":{"baseColorFactor":[0.03994717100152558,0.10114516420959989,0.10363409665513738,1],"metallicFactor":0,"roughnessFactor":0.8}},{"name":"leather","pbrMetallicRoughness":{"baseColorFactor":[0.05818717747368544,0.020951131914781092,0.015175238159625197,1],"metallicFactor":0,"roughnessFactor":0.8}},{"name":"fire","pbrMetallicRoughness":{"baseColorFactor":[1.0,0.3157627437363971,0.04943345755590796,1],"metallicFactor":0,"roughnessFactor":0.8},"emissiveFactor":[0.35,0.11051696030773898,0.017301710144567783]}],"bufferViews":[{"buffer":0,"byteOffset":0,"byteLength":1440},{"buffer":0,"byteOffset":1440,"byteLength":1440},{"buffer":0,"byteOffset":2880,"byteLength":1584},{"buffer":0,"byteOffset":4464,"byteLength":1584},{"buffer":0,"byteOffset":6048,"byteLength":1584},{"buffer":0,"byteOffset":7632,"byteLength":1584},{"buffer":0,"byteOffset":9216,"byteLength":1584},{"buffer":0,"byteOffset":10800,"byteLength":1584},{"buffer":0,"byteOffset":12384,"byteLength":1584},{"buffer":0,"byteOffset":13968,"byteLength":1584},{"buffer":0,"byteOffset":15552,"byteLength":792},{"buffer":0,"byteOffset":16344,"byteLength":792},{"buffer":0,"byteOffset":17136,"byteLength":1440},{"buffer":0,"byteOffset":18576,"byteLength":1440},{"buffer":0,"byteOffset":20016,"byteLength":1440},{"buffer":0,"byteOffset":21456,"byteLength":1440},{"buffer":0,"byteOffset":22896,"byteLength":1584},{"buffer":0,"byteOffset":24480,"byteLength":1584},{"buffer":0,"byteOffset":26064,"byteLength":792},{"buffer":0,"byteOffset":26856,"byteLength":792},{"buffer":0,"byteOffset":27648,"byteLength":792},{"buffer":0,"byteOffset":28440,"byteLength":792},{"buffer":0,"byteOffset":29232,"byteLength":792},{"buffer":0,"byteOffset":30024,"byteLength":792},{"buffer":0,"byteOffset":30816,"byteLength":1584},{"buffer":0,"byteOffset":32400,"byteLength":1584},{"buffer":0,"byteOffset":33984,"byteLength":576},{"buffer":0,"byteOffset":34560,"byteLength":576},{"buffer":0,"byteOffset":35136,"byteLength":576},{"buffer":0,"byteOffset":35712,"byteLength":576},{"buffer":0,"byteOffset":36288,"byteLength":576},{"buffer":0,"byteOffset":36864,"byteLength":576},{"buffer":0,"byteOffset":37440,"byteLength":576},{"buffer":0,"byteOffset":38016,"byteLength":576},{"buffer":0,"byteOffset":38592,"byteLength":576},{"buffer":0,"byteOffset":39168,"byteLength":576},{"buffer":0,"byteOffset":39744,"byteLength":576},{"buffer":0,"byteOffset":40320,"byteLength":576},{"buffer":0,"byteOffset":40896,"byteLength":576},{"buffer":0,"byteOffset":41472,"byteLength":576},{"buffer":0,"byteOffset":42048,"byteLength":576},{"buffer":0,"byteOffset":42624,"byteLength":576},{"buffer":0,"byteOffset":43200,"byteLength":576},{"buffer":0,"byteOffset":43776,"byteLength":576},{"buffer":0,"byteOffset":44352,"byteLength":576},{"buffer":0,"byteOffset":44928,"byteLength":576},{"buffer":0,"byteOffset":45504,"byteLength":576},{"buffer":0,"byteOffset":46080,"byteLength":576},{"buffer":0,"byteOffset":46656,"byteLength":576},{"buffer":0,"byteOffset":47232,"byteLength":576},{"buffer":0,"byteOffset":47808,"byteLength":864},{"buffer":0,"byteOffset":48672,"byteLength":864},{"buffer":0,"byteOffset":49536,"byteLength":1440},{"buffer":0,"byteOffset":50976,"byteLength":1440},{"buffer":0,"byteOffset":52416,"byteLength":720},{"buffer":0,"byteOffset":53136,"byteLength":720},{"buffer":0,"byteOffset":53856,"byteLength":576},{"buffer":0,"byteOffset":54432,"byteLength":576},{"buffer":0,"byteOffset":55008,"byteLength":792},{"buffer":0,"byteOffset":55800,"byteLength":792},{"buffer":0,"byteOffset":56592,"byteLength":864},{"buffer":0,"byteOffset":57456,"byteLength":864},{"buffer":0,"byteOffset":58320,"byteLength":1440},{"buffer":0,"byteOffset":59760,"byteLength":1440},{"buffer":0,"byteOffset":61200,"byteLength":720},{"buffer":0,"byteOffset":61920,"byteLength":720},{"buffer":0,"byteOffset":62640,"byteLength":576},{"buffer":0,"byteOffset":63216,"byteLength":576},{"buffer":0,"byteOffset":63792,"byteLength":792},{"buffer":0,"byteOffset":64584,"byteLength":792},{"buffer":0,"byteOffset":65376,"byteLength":864},{"buffer":0,"byteOffset":66240,"byteLength":864},{"buffer":0,"byteOffset":67104,"byteLength":1440},{"buffer":0,"byteOffset":68544,"byteLength":1440},{"buffer":0,"byteOffset":69984,"byteLength":720},{"buffer":0,"byteOffset":70704,"byteLength":720},{"buffer":0,"byteOffset":71424,"byteLength":576},{"buffer":0,"byteOffset":72000,"byteLength":576},{"buffer":0,"byteOffset":72576,"byteLength":792},{"buffer":0,"byteOffset":73368,"byteLength":792},{"buffer":0,"byteOffset":74160,"byteLength":864},{"buffer":0,"byteOffset":75024,"byteLength":864},{"buffer":0,"byteOffset":75888,"byteLength":1440},{"buffer":0,"byteOffset":77328,"byteLength":1440},{"buffer":0,"byteOffset":78768,"byteLength":720},{"buffer":0,"byteOffset":79488,"byteLength":720},{"buffer":0,"byteOffset":80208,"byteLength":576},{"buffer":0,"byteOffset":80784,"byteLength":576},{"buffer":0,"byteOffset":81360,"byteLength":792},{"buffer":0,"byteOffset":82152,"byteLength":792},{"buffer":0,"byteOffset":82944,"byteLength":864},{"buffer":0,"byteOffset":83808,"byteLength":864},{"buffer":0,"byteOffset":84672,"byteLength":1440},{"buffer":0,"byteOffset":86112,"byteLength":1440},{"buffer":0,"byteOffset":87552,"byteLength":720},{"buffer":0,"byteOffset":88272,"byteLength":720},{"buffer":0,"byteOffset":88992,"byteLength":576},{"buffer":0,"byteOffset":89568,"byteLength":576},{"buffer":0,"byteOffset":90144,"byteLength":792},{"buffer":0,"byteOffset":90936,"byteLength":792},{"buffer":0,"byteOffset":91728,"byteLength":864},{"buffer":0,"byteOffset":92592,"byteLength":864},{"buffer":0,"byteOffset":93456,"byteLength":1440},{"buffer":0,"byteOffset":94896,"byteLength":1440},{"buffer":0,"byteOffset":96336,"byteLength":720},{"buffer":0,"byteOffset":97056,"byteLength":720},{"buffer":0,"byteOffset":97776,"byteLength":576},{"buffer":0,"byteOffset":98352,"byteLength":576},{"buffer":0,"byteOffset":98928,"byteLength":792},{"buffer":0,"byteOffset":99720,"byteLength":792}],"accessors":[{"bufferView":0,"componentType":5126,"count":120,"type":"VEC3","min":[-0.6142042875289917,-0.4745646119117737,-0.8091901540756226],"max":[0.6784545183181763,0.5439611673355103,0.8091901540756226]},{"bufferView":1,"componentType":5126,"count":120,"type":"VEC3","min":[-0.9249582290649414,-0.9865345358848572,-0.864812433719635],"max":[0.8566849827766418,0.9612792730331421,0.8685173988342285]},{"bufferView":2,"componentType":5126,"count":132,"type":"VEC3","min":[-0.11999999731779099,-0.23999999463558197,-0.4099999964237213],"max":[0.11999999731779099,0.23999999463558197,0.4099999964237213]},{"bufferView":3,"componentType":5126,"count":132,"type":"VEC3","min":[-1.0,-1.0,-1.0],"max":[1.0,1.0,1.0]},{"bufferView":4,"componentType":5126,"count":132,"type":"VEC3","min":[-0.11999999731779099,-0.23999999463558197,-0.4099999964237213],"max":[0.11999999731779099,0.23999999463558197,0.4099999964237213]},{"bufferView":5,"componentType":5126,"count":132,"type":"VEC3","min":[-1.0,-1.0,-1.0],"max":[1.0,1.0,1.0]},{"bufferView":6,"componentType":5126,"count":132,"type":"VEC3","min":[-0.11999999731779099,-0.23999999463558197,-0.4099999964237213],"max":[0.11999999731779099,0.23999999463558197,0.4099999964237213]},{"bufferView":7,"componentType":5126,"count":132,"type":"VEC3","min":[-1.0,-1.0,-1.0],"max":[1.0,1.0,1.0]},{"bufferView":8,"componentType":5126,"count":132,"type":"VEC3","min":[-0.11999999731779099,-0.23999999463558197,-0.4099999964237213],"max":[0.11999999731779099,0.23999999463558197,0.4099999964237213]},{"bufferView":9,"componentType":5126,"count":132,"type":"VEC3","min":[-1.0,-1.0,-1.0],"max":[1.0,1.0,1.0]},{"bufferView":10,"componentType":5126,"count":66,"type":"VEC3","min":[-0.20000000298023224,-0.18469230830669403,-0.19505123794078827],"max":[0.20000000298023224,0.30530768632888794,0.1513589322566986]},{"bufferView":11,"componentType":5126,"count":66,"type":"VEC3","min":[-0.860953688621521,-1.0,-0.9427950382232666],"max":[0.860953688621521,0.7610507011413574,0.9996337890625]},{"bufferView":12,"componentType":5126,"count":120,"type":"VEC3","min":[-0.4335559606552124,-0.3825872242450714,-0.44846683740615845],"max":[0.47890910506248474,0.4522119164466858,0.44846683740615845]},{"bufferView":13,"componentType":5126,"count":120,"type":"VEC3","min":[-0.9540529251098633,-0.9993935227394104,-0.9320527911186218],"max":[0.8885483145713806,0.9255938529968262,0.9354889988899231]},{"bufferView":14,"componentType":5126,"count":120,"type":"VEC3","min":[-0.4425883889198303,-0.35526663064956665,-0.35097405314445496],"max":[0.48888635635375977,0.4148063659667969,0.35097405314445496]},{"bufferView":15,"componentType":5126,"count":120,"type":"VEC3","min":[-0.9433300495147705,-0.994586169719696,-0.9634221792221069],"max":[0.8142723441123962,0.9415960907936096,0.9392749071121216]},{"bufferView":16,"componentType":5126,"count":132,"type":"VEC3","min":[-0.32499998807907104,-0.1550000011920929,-0.05999999865889549],"max":[0.32499998807907104,0.1550000011920929,0.05999999865889549]},{"bufferView":17,"componentType":5126,"count":132,"type":"VEC3","min":[-1.0,-1.0,-1.0],"max":[1.0,1.0,1.0]},{"bufferView":18,"componentType":5126,"count":66,"type":"VEC3","min":[-0.09000000357627869,-0.026384616270661354,-0.07794228941202164],"max":[0.09000000357627869,0.04361538589000702,0.07794228941202164]},{"bufferView":19,"componentType":5126,"count":66,"type":"VEC3","min":[-0.7427560687065125,-1.0,-0.8576608896255493],"max":[0.7427560687065125,0.9539802074432373,0.8576608896255493]},{"bufferView":20,"componentType":5126,"count":66,"type":"VEC3","min":[-0.10999999940395355,-0.026384616270661354,-0.0952627956867218],"max":[0.10999999940395355,0.04361538589000702,0.0952627956867218]},{"bufferView":21,"componentType":5126,"count":66,"type":"VEC3","min":[-0.698547899723053,-1.0,-0.8066136837005615],"max":[0.698547899723053,0.9684835076332092,0.8066136837005615]},{"bufferView":22,"componentType":5126,"count":66,"type":"VEC3","min":[-0.09000000357627869,-0.026384616270661354,-0.07794228941202164],"max":[0.09000000357627869,0.04361538589000702,0.07794228941202164]},{"bufferView":23,"componentType":5126,"count":66,"type":"VEC3","min":[-0.7427560687065125,-1.0,-0.8576608896255493],"max":[0.7427560687065125,0.9539802074432373,0.8576608896255493]},{"bufferView":24,"componentType":5126,"count":132,"type":"VEC3","min":[-0.23499999940395355,-0.14000000059604645,-0.04500000178813934],"max":[0.23499999940395355,0.14000000059604645,0.04500000178813934]},{"bufferView":25,"componentType":5126,"count":132,"type":"VEC3","min":[-1.0,-1.0,-1.0],"max":[1.0,1.0,1.0]},{"bufferView":26,"componentType":5126,"count":48,"type":"VEC3","min":[-0.029124611988663673,-0.061804503202438354,-0.05248105153441429],"max":[0.035999998450279236,0.07082701474428177,0.02541350945830345]},{"bufferView":27,"componentType":5126,"count":48,"type":"VEC3","min":[-0.982085108757019,-0.9486833214759827,-0.8264984488487244],"max":[0.7945235371589661,0.9486833214759827,0.9456769824028015]},{"bufferView":28,"componentType":5126,"count":48,"type":"VEC3","min":[-0.029999999329447746,-0.06250718235969543,-0.04252634942531586],"max":[0.02427051030099392,0.056251198053359985,0.019587725400924683]},{"bufferView":29,"componentType":5126,"count":48,"type":"VEC3","min":[-0.7965811491012573,-0.9647638201713562,-0.8574842214584351],"max":[0.984628438949585,0.9647638201713562,0.9493974447250366]},{"bufferView":30,"componentType":5126,"count":48,"type":"VEC3","min":[-0.029124611988663673,-0.061804503202438354,-0.05248105153441429],"max":[0.035999998450279236,0.07082701474428177,0.02541350945830345]},{"bufferView":31,"componentType":5126,"count":48,"type":"VEC3","min":[-0.982085108757019,-0.9486833214759827,-0.8264984488487244],"max":[0.7945235371589661,0.9486833214759827,0.9456769824028015]},{"bufferView":32,"componentType":5126,"count":48,"type":"VEC3","min":[-0.029999999329447746,-0.06250718235969543,-0.04252634942531586],"max":[0.02427051030099392,0.056251198053359985,0.019587725400924683]},{"bufferView":33,"componentType":5126,"count":48,"type":"VEC3","min":[-0.7965811491012573,-0.9647638201713562,-0.8574842214584351],"max":[0.984628438949585,0.9647638201713562,0.9493974447250366]},{"bufferView":34,"componentType":5126,"count":48,"type":"VEC3","min":[-0.029124611988663673,-0.061804503202438354,-0.05248105153441429],"max":[0.035999998450279236,0.07082701474428177,0.02541350945830345]},{"bufferView":35,"componentType":5126,"count":48,"type":"VEC3","min":[-0.982085108757019,-0.9486833214759827,-0.8264984488487244],"max":[0.7945235371589661,0.9486833214759827,0.9456769824028015]},{"bufferView":36,"componentType":5126,"count":48,"type":"VEC3","min":[-0.029999999329447746,-0.06250718235969543,-0.04252634942531586],"max":[0.02427051030099392,0.056251198053359985,0.019587725400924683]},{"bufferView":37,"componentType":5126,"count":48,"type":"VEC3","min":[-0.7965811491012573,-0.9647638201713562,-0.8574842214584351],"max":[0.984628438949585,0.9647638201713562,0.9493974447250366]},{"bufferView":38,"componentType":5126,"count":48,"type":"VEC3","min":[-0.029124611988663673,-0.061804503202438354,-0.05248105153441429],"max":[0.035999998450279236,0.07082701474428177,0.02541350945830345]},{"bufferView":39,"componentType":5126,"count":48,"type":"VEC3","min":[-0.982085108757019,-0.9486833214759827,-0.8264984488487244],"max":[0.7945235371589661,0.9486833214759827,0.9456769824028015]},{"bufferView":40,"componentType":5126,"count":48,"type":"VEC3","min":[-0.029999999329447746,-0.06250718235969543,-0.04252634942531586],"max":[0.02427051030099392,0.056251198053359985,0.019587725400924683]},{"bufferView":41,"componentType":5126,"count":48,"type":"VEC3","min":[-0.7965811491012573,-0.9647638201713562,-0.8574842214584351],"max":[0.984628438949585,0.9647638201713562,0.9493974447250366]},{"bufferView":42,"componentType":5126,"count":48,"type":"VEC3","min":[-0.029124611988663673,-0.061804503202438354,-0.05248105153441429],"max":[0.035999998450279236,0.07082701474428177,0.02541350945830345]},{"bufferView":43,"componentType":5126,"count":48,"type":"VEC3","min":[-0.982085108757019,-0.9486833214759827,-0.8264984488487244],"max":[0.7945235371589661,0.9486833214759827,0.9456769824028015]},{"bufferView":44,"componentType":5126,"count":48,"type":"VEC3","min":[-0.029999999329447746,-0.06250718235969543,-0.04252634942531586],"max":[0.02427051030099392,0.056251198053359985,0.019587725400924683]},{"bufferView":45,"componentType":5126,"count":48,"type":"VEC3","min":[-0.7965811491012573,-0.9647638201713562,-0.8574842214584351],"max":[0.984628438949585,0.9647638201713562,0.9493974447250366]},{"bufferView":46,"componentType":5126,"count":48,"type":"VEC3","min":[-0.029124611988663673,-0.061804503202438354,-0.05248105153441429],"max":[0.035999998450279236,0.07082701474428177,0.02541350945830345]},{"bufferView":47,"componentType":5126,"count":48,"type":"VEC3","min":[-0.982085108757019,-0.9486833214759827,-0.8264984488487244],"max":[0.7945235371589661,0.9486833214759827,0.9456769824028015]},{"bufferView":48,"componentType":5126,"count":48,"type":"VEC3","min":[-0.029999999329447746,-0.06250718235969543,-0.04252634942531586],"max":[0.02427051030099392,0.056251198053359985,0.019587725400924683]},{"bufferView":49,"componentType":5126,"count":48,"type":"VEC3","min":[-0.7965811491012573,-0.9647638201713562,-0.8574842214584351],"max":[0.984628438949585,0.9647638201713562,0.9493974447250366]},{"bufferView":50,"componentType":5126,"count":72,"type":"VEC3","min":[-0.2623712420463562,-0.20590893924236298,-0.20447944104671478],"max":[0.29686710238456726,0.26013344526290894,0.13889409601688385]},{"bufferView":51,"componentType":5126,"count":72,"type":"VEC3","min":[-0.8241844177246094,-0.8867436647415161,-0.896716833114624],"max":[0.8241844177246094,0.7712894678115845,0.9828415513038635]},{"bufferView":52,"componentType":5126,"count":120,"type":"VEC3","min":[-0.15355107188224792,-0.15041062235832214,-0.16573774814605713],"max":[0.16961362957954407,0.1783389151096344,0.16573774814605713]},{"bufferView":53,"componentType":5126,"count":120,"type":"VEC3","min":[-0.9633291363716125,-0.9892898201942444,-0.9243457317352295],"max":[0.9053046107292175,0.9299563765525818,0.9289896488189697]},{"bufferView":54,"componentType":5126,"count":60,"type":"VEC3","min":[-0.16851142048835754,-0.2351338416337967,-0.2147243469953537],"max":[0.22553426027297974,0.2754015326499939,0.15824145078659058]},{"bufferView":55,"componentType":5126,"count":60,"type":"VEC3","min":[-0.9094356894493103,-0.7475152611732483,-0.8366755843162537],"max":[0.8074071407318115,0.7475152611732483,0.931416392326355]},{"bufferView":56,"componentType":5126,"count":48,"type":"VEC3","min":[-0.04935787618160248,-0.044359322637319565,-0.10206175595521927],"max":[0.08191093057394028,0.07923391461372375,0.08300647139549255]},{"bufferView":57,"componentType":5126,"count":48,"type":"VEC3","min":[-0.8814376592636108,-0.9244316816329956,-0.7990018725395203],"max":[0.7887133359909058,0.7969654202461243,0.7990018725395203]},{"bufferView":58,"componentType":5126,"count":66,"type":"VEC3","min":[-0.09000000357627869,-0.05276923254132271,-0.07794228941202164],"max":[0.09000000357627869,0.08723077178001404,0.07794228941202164]},{"bufferView":59,"componentType":5126,"count":66,"type":"VEC3","min":[-0.8295525312423706,-1.0,-0.9578847885131836],"max":[0.8295525312423706,0.8465988636016846,0.9578847885131836]},{"bufferView":60,"componentType":5126,"count":72,"type":"VEC3","min":[-0.2985963225364685,-0.20590893924236298,-0.19922488927841187],"max":[0.2613913416862488,0.26013344526290894,0.14187169075012207]},{"bufferView":61,"componentType":5126,"count":72,"type":"VEC3","min":[-0.8241844177246094,-0.8867436647415161,-0.9315285682678223],"max":[0.8241844177246094,0.7712894678115845,0.9480298161506653]},{"bufferView":62,"componentType":5126,"count":120,"type":"VEC3","min":[-0.15355107188224792,-0.1360020935535431,-0.16573774814605713],"max":[0.16961362957954407,0.1779910922050476,0.16573774814605713]},{"bufferView":63,"componentType":5126,"count":120,"type":"VEC3","min":[-0.9540694355964661,-0.9998587369918823,-0.9457951188087463],"max":[0.8931412100791931,0.9195249676704407,0.9541010856628418]},{"bufferView":64,"componentType":5126,"count":60,"type":"VEC3","min":[-0.22553426027297974,-0.2351338416337967,-0.2147243469953537],"max":[0.16851142048835754,0.2754015326499939,0.15824145078659058]},{"bufferView":65,"componentType":5126,"count":60,"type":"VEC3","min":[-0.8074071407318115,-0.7475152611732483,-0.8366755843162537],"max":[0.9094356894493103,0.7475152611732483,0.931416392326355]},{"bufferView":66,"componentType":5126,"count":48,"type":"VEC3","min":[-0.08422090113162994,-0.044359322637319565,-0.10705821961164474],"max":[0.04910121485590935,0.07923391461372375,0.08245130628347397]},{"bufferView":67,"componentType":5126,"count":48,"type":"VEC3","min":[-0.7380381226539612,-0.9244316816329956,-0.7990018725395203],"max":[0.9321128726005554,0.7969654202461243,0.7990018725395203]},{"bufferView":68,"componentType":5126,"count":66,"type":"VEC3","min":[-0.09000000357627869,-0.05276923254132271,-0.07794228941202164],"max":[0.09000000357627869,0.08723077178001404,0.07794228941202164]},{"bufferView":69,"componentType":5126,"count":66,"type":"VEC3","min":[-0.8295525312423706,-1.0,-0.9578847885131836],"max":[0.8295525312423706,0.8465988636016846,0.9578847885131836]},{"bufferView":70,"componentType":5126,"count":72,"type":"VEC3","min":[-0.2623712420463562,-0.20590893924236298,-0.20447944104671478],"max":[0.29686710238456726,0.26013344526290894,0.13889409601688385]},{"bufferView":71,"componentType":5126,"count":72,"type":"VEC3","min":[-0.8241844177246094,-0.8867436647415161,-0.896716833114624],"max":[0.8241844177246094,0.7712894678115845,0.9828415513038635]},{"bufferView":72,"componentType":5126,"count":120,"type":"VEC3","min":[-0.15355107188224792,-0.1556117683649063,-0.16573774814605713],"max":[0.16961362957954407,0.1756197065114975,0.16573774814605713]},{"bufferView":73,"componentType":5126,"count":120,"type":"VEC3","min":[-0.9663614630699158,-0.9934523701667786,-0.9480307698249817],"max":[0.8513234853744507,0.9441027045249939,0.9494105577468872]},{"bufferView":74,"componentType":5126,"count":60,"type":"VEC3","min":[-0.16851142048835754,-0.2351338416337967,-0.2147243469953537],"max":[0.22553426027297974,0.2754015326499939,0.15824145078659058]},{"bufferView":75,"componentType":5126,"count":60,"type":"VEC3","min":[-0.9094356894493103,-0.7475152611732483,-0.8366755843162537],"max":[0.8074071407318115,0.7475152611732483,0.931416392326355]},{"bufferView":76,"componentType":5126,"count":48,"type":"VEC3","min":[-0.04935787618160248,-0.044359322637319565,-0.10206175595521927],"max":[0.08191093057394028,0.07923391461372375,0.08300647139549255]},{"bufferView":77,"componentType":5126,"count":48,"type":"VEC3","min":[-0.8814376592636108,-0.9244316816329956,-0.7990018725395203],"max":[0.7887133359909058,0.7969654202461243,0.7990018725395203]},{"bufferView":78,"componentType":5126,"count":66,"type":"VEC3","min":[-0.09000000357627869,-0.05276923254132271,-0.07794228941202164],"max":[0.09000000357627869,0.08723077178001404,0.07794228941202164]},{"bufferView":79,"componentType":5126,"count":66,"type":"VEC3","min":[-0.8295525312423706,-1.0,-0.9578847885131836],"max":[0.8295525312423706,0.8465988636016846,0.9578847885131836]},{"bufferView":80,"componentType":5126,"count":72,"type":"VEC3","min":[-0.2985963225364685,-0.20590893924236298,-0.19922488927841187],"max":[0.2613913416862488,0.26013344526290894,0.14187169075012207]},{"bufferView":81,"componentType":5126,"count":72,"type":"VEC3","min":[-0.8241844177246094,-0.8867436647415161,-0.9315285682678223],"max":[0.8241844177246094,0.7712894678115845,0.9480298161506653]},{"bufferView":82,"componentType":5126,"count":120,"type":"VEC3","min":[-0.15355107188224792,-0.13605551421642303,-0.16573774814605713],"max":[0.16961362957954407,0.1791902333498001,0.16573774814605713]},{"bufferView":83,"componentType":5126,"count":120,"type":"VEC3","min":[-0.9632590413093567,-0.9997626543045044,-0.928635835647583],"max":[0.8745997548103333,0.9271880984306335,0.9473676085472107]},{"bufferView":84,"componentType":5126,"count":60,"type":"VEC3","min":[-0.22553426027297974,-0.2351338416337967,-0.2147243469953537],"max":[0.16851142048835754,0.2754015326499939,0.15824145078659058]},{"bufferView":85,"componentType":5126,"count":60,"type":"VEC3","min":[-0.8074071407318115,-0.7475152611732483,-0.8366755843162537],"max":[0.9094356894493103,0.7475152611732483,0.931416392326355]},{"bufferView":86,"componentType":5126,"count":48,"type":"VEC3","min":[-0.08422090113162994,-0.044359322637319565,-0.10705821961164474],"max":[0.04910121485590935,0.07923391461372375,0.08245130628347397]},{"bufferView":87,"componentType":5126,"count":48,"type":"VEC3","min":[-0.7380381226539612,-0.9244316816329956,-0.7990018725395203],"max":[0.9321128726005554,0.7969654202461243,0.7990018725395203]},{"bufferView":88,"componentType":5126,"count":66,"type":"VEC3","min":[-0.09000000357627869,-0.05276923254132271,-0.07794228941202164],"max":[0.09000000357627869,0.08723077178001404,0.07794228941202164]},{"bufferView":89,"componentType":5126,"count":66,"type":"VEC3","min":[-0.8295525312423706,-1.0,-0.9578847885131836],"max":[0.8295525312423706,0.8465988636016846,0.9578847885131836]},{"bufferView":90,"componentType":5126,"count":72,"type":"VEC3","min":[-0.2623712420463562,-0.20590893924236298,-0.20447944104671478],"max":[0.29686710238456726,0.26013344526290894,0.13889409601688385]},{"bufferView":91,"componentType":5126,"count":72,"type":"VEC3","min":[-0.8241844177246094,-0.8867436647415161,-0.896716833114624],"max":[0.8241844177246094,0.7712894678115845,0.9828415513038635]},{"bufferView":92,"componentType":5126,"count":120,"type":"VEC3","min":[-0.15355107188224792,-0.14163294434547424,-0.16573774814605713],"max":[0.16961362957954407,0.17523938417434692,0.16573774814605713]},{"bufferView":93,"componentType":5126,"count":120,"type":"VEC3","min":[-0.9608274102210999,-0.9854128360748291,-0.9376690983772278],"max":[0.8575422763824463,0.9293748140335083,0.9578390717506409]},{"bufferView":94,"componentType":5126,"count":60,"type":"VEC3","min":[-0.16851142048835754,-0.2351338416337967,-0.2147243469953537],"max":[0.22553426027297974,0.2754015326499939,0.15824145078659058]},{"bufferView":95,"componentType":5126,"count":60,"type":"VEC3","min":[-0.9094356894493103,-0.7475152611732483,-0.8366755843162537],"max":[0.8074071407318115,0.7475152611732483,0.931416392326355]},{"bufferView":96,"componentType":5126,"count":48,"type":"VEC3","min":[-0.04935787618160248,-0.044359322637319565,-0.10206175595521927],"max":[0.08191093057394028,0.07923391461372375,0.08300647139549255]},{"bufferView":97,"componentType":5126,"count":48,"type":"VEC3","min":[-0.8814376592636108,-0.9244316816329956,-0.7990018725395203],"max":[0.7887133359909058,0.7969654202461243,0.7990018725395203]},{"bufferView":98,"componentType":5126,"count":66,"type":"VEC3","min":[-0.09000000357627869,-0.05276923254132271,-0.07794228941202164],"max":[0.09000000357627869,0.08723077178001404,0.07794228941202164]},{"bufferView":99,"componentType":5126,"count":66,"type":"VEC3","min":[-0.8295525312423706,-1.0,-0.9578847885131836],"max":[0.8295525312423706,0.8465988636016846,0.9578847885131836]},{"bufferView":100,"componentType":5126,"count":72,"type":"VEC3","min":[-0.2985963225364685,-0.20590893924236298,-0.19922488927841187],"max":[0.2613913416862488,0.26013344526290894,0.14187169075012207]},{"bufferView":101,"componentType":5126,"count":72,"type":"VEC3","min":[-0.8241844177246094,-0.8867436647415161,-0.9315285682678223],"max":[0.8241844177246094,0.7712894678115845,0.9480298161506653]},{"bufferView":102,"componentType":5126,"count":120,"type":"VEC3","min":[-0.15355107188224792,-0.1498214155435562,-0.16573774814605713],"max":[0.16961362957954407,0.17474669218063354,0.16573774814605713]},{"bufferView":103,"componentType":5126,"count":120,"type":"VEC3","min":[-0.9520999193191528,-0.9997883439064026,-0.9291530251502991],"max":[0.8648501634597778,0.9297658801078796,0.941700279712677]},{"bufferView":104,"componentType":5126,"count":60,"type":"VEC3","min":[-0.22553426027297974,-0.2351338416337967,-0.2147243469953537],"max":[0.16851142048835754,0.2754015326499939,0.15824145078659058]},{"bufferView":105,"componentType":5126,"count":60,"type":"VEC3","min":[-0.8074071407318115,-0.7475152611732483,-0.8366755843162537],"max":[0.9094356894493103,0.7475152611732483,0.931416392326355]},{"bufferView":106,"componentType":5126,"count":48,"type":"VEC3","min":[-0.08422090113162994,-0.044359322637319565,-0.10705821961164474],"max":[0.04910121485590935,0.07923391461372375,0.08245130628347397]},{"bufferView":107,"componentType":5126,"count":48,"type":"VEC3","min":[-0.7380381226539612,-0.9244316816329956,-0.7990018725395203],"max":[0.9321128726005554,0.7969654202461243,0.7990018725395203]},{"bufferView":108,"componentType":5126,"count":66,"type":"VEC3","min":[-0.09000000357627869,-0.05276923254132271,-0.07794228941202164],"max":[0.09000000357627869,0.08723077178001404,0.07794228941202164]},{"bufferView":109,"componentType":5126,"count":66,"type":"VEC3","min":[-0.8295525312423706,-1.0,-0.9578847885131836],"max":[0.8295525312423706,0.8465988636016846,0.9578847885131836]}],"buffers":[{"byteLength":100512,"uri":"Rift_Crawler.bin"}]}