# RIFTBOUND | Z up | flat shaded
mtllib Stone_Deposit.mtl
o Bedrock_0
usemtl stone
v 0.690000 0.000000 0.000000
v 0.430208 0.398734 0.023581
v -0.153539 0.497213 0.111638
v -0.621669 0.221281 0.077456
v -0.621669 -0.221281 0.001323
v -0.153539 -0.497213 0.054207
v 0.430208 -0.398734 0.061371
v 1.150000 0.000000 0.349558
v 0.717013 0.664557 0.439233
v -0.255899 0.828689 0.342372
v -1.036114 0.368801 0.385670
v -1.036114 -0.368801 0.405250
v -0.255899 -0.828689 0.391817
v 0.717013 -0.664557 0.416179
v 0.828000 0.000000 0.855741
v 0.516250 0.478481 0.889816
v -0.184247 0.596656 0.784974
v -0.746002 0.265537 0.841812
v -0.746002 -0.265537 0.849248
v -0.184247 -0.596656 0.786303
v 0.516250 -0.478481 0.740871
v 0.057500 0.000000 1.000639
f 16 18 22
f 13 12 5
f 13 14 20
f 11 12 18
f 11 18 10
f 11 5 12
f 15 16 22
f 15 14 8
f 17 10 18
f 17 16 10
f 17 18 16
f 19 22 18
f 19 20 22
f 19 18 12
f 19 12 13
f 19 13 20
f 4 2 5
f 4 11 10
f 4 5 11
f 9 10 16
f 9 2 10
f 9 8 2
f 9 15 8
f 9 16 15
f 7 14 13
f 21 22 20
f 21 15 22
f 21 20 14
f 21 14 15
f 3 10 2
f 3 4 10
f 3 2 4
f 1 5 2
f 1 2 8
f 1 8 14
f 1 14 7
f 6 13 5
f 6 7 13
f 6 5 1
f 6 1 7
o StoneChunk_1
usemtl edge
v 0.790000 0.000000 0.471896
v 0.699638 0.164185 0.425632
v 0.496595 0.204735 0.396801
v 0.333767 0.091116 0.393721
v 0.333767 -0.091116 0.494111
v 0.496595 -0.204735 0.506646
v 0.699638 -0.164185 0.468075
v 0.950000 0.000000 0.756555
v 0.799396 0.273641 0.733135
v 0.460992 0.341225 0.782458
v 0.189612 0.151859 0.767436
v 0.189612 -0.151859 0.664984
v 0.460992 -0.341225 0.772672
v 0.799396 -0.273641 0.668871
v 0.838000 0.000000 1.092575
v 0.729565 0.197022 1.022771
v 0.485914 0.245682 1.109399
v 0.290521 0.109339 1.068863
v 0.290521 -0.109339 1.038402
v 0.485914 -0.245682 1.053897
v 0.729565 -0.197022 1.004207
v 0.570000 0.000000 1.210639
f 34 33 26
f 34 41 33
f 34 35 41
f 40 33 41
f 40 41 44
f 25 29 26
f 25 26 33
f 25 33 32
f 42 44 41
f 42 43 44
f 42 41 35
f 42 35 43
f 36 43 35
f 28 35 34
f 28 36 35
f 28 29 36
f 28 26 29
f 37 44 43
f 37 36 30
f 37 43 36
f 39 32 33
f 39 33 40
f 39 40 44
f 39 44 37
f 39 37 38
f 31 25 32
f 31 37 30
f 31 38 37
f 31 32 39
f 31 39 38
f 24 29 25
f 24 31 30
f 24 25 31
f 27 34 26
f 27 26 28
f 27 28 34
f 23 24 30
f 23 29 24
f 23 30 36
f 23 36 29
o StoneChunk_2
usemtl edge
v -0.165567 0.270185 0.456128
v -0.255929 0.434370 0.511397
v -0.458972 0.474920 0.409803
v -0.621799 0.361301 0.511169
v -0.621799 0.179070 0.430929
v -0.458972 0.065450 0.444978
v -0.255929 0.106001 0.495929
v -0.005567 0.270185 0.716198
v -0.156171 0.543826 0.733888
v -0.494575 0.611410 0.668111
v -0.765954 0.422045 0.759581
v -0.765954 0.118326 0.732445
v -0.494575 -0.071039 0.706185
v -0.156171 -0.003456 0.763981
v -0.117567 0.270185 1.038841
v -0.226001 0.467207 1.057779
v -0.469653 0.515867 1.017528
v -0.665046 0.379524 1.051431
v -0.665046 0.160847 1.026274
v -0.469653 0.024503 1.033690
v -0.226001 0.073164 1.095185
v -0.385567 0.270185 1.210639
f 62 63 66
f 62 55 56
f 62 56 63
f 64 66 63
f 64 65 66
f 64 57 65
f 64 56 57
f 64 63 56
f 45 53 52
f 58 65 57
f 58 52 65
f 58 45 52
f 58 51 45
f 50 58 57
f 50 51 58
f 50 47 45
f 50 45 51
f 60 52 53
f 54 47 55
f 54 53 47
f 46 47 53
f 46 45 47
f 46 53 45
f 49 47 50
f 49 56 55
f 49 57 56
f 49 50 57
f 59 65 52
f 59 52 60
f 59 66 65
f 59 60 66
f 61 62 66
f 61 66 60
f 61 55 62
f 61 54 55
f 61 60 53
f 61 53 54
f 48 55 47
f 48 49 55
f 48 47 49
o StoneChunk_3
usemtl edge
v 0.288124 -0.398466 0.424602
v 0.197762 -0.234281 0.429249
v -0.005281 -0.193731 0.494231
v -0.168108 -0.307350 0.403220
v -0.168108 -0.489581 0.467251
v -0.005281 -0.603201 0.483437
v 0.197762 -0.562650 0.415314
v 0.448124 -0.398466 0.671587
v 0.297520 -0.124825 0.699285
v -0.040884 -0.057241 0.747475
v -0.312263 -0.246607 0.735484
v -0.312263 -0.550325 0.683547
v -0.040884 -0.739691 0.719150
v 0.297520 -0.672107 0.748970
v 0.336124 -0.398466 1.053910
v 0.227690 -0.201444 1.080420
v -0.015962 -0.152784 1.122536
v -0.211355 -0.289127 1.086705
v -0.211355 -0.507805 1.049983
v -0.015962 -0.644148 1.024233
v 0.227690 -0.595487 1.044230
v 0.068124 -0.398466 1.210639
f 76 70 77
f 78 77 70
f 78 85 77
f 78 79 85
f 84 77 85
f 84 85 88
f 69 70 76
f 86 88 85
f 86 87 88
f 86 85 79
f 80 79 73
f 80 86 79
f 80 87 86
f 80 73 74
f 72 79 78
f 72 73 79
f 75 82 74
f 81 74 82
f 81 80 74
f 81 87 80
f 81 88 87
f 81 82 88
f 83 76 77
f 83 77 84
f 83 75 76
f 83 82 75
f 83 84 88
f 83 88 82
f 68 70 69
f 68 75 74
f 68 69 76
f 68 76 75
f 71 70 73
f 71 73 72
f 71 78 70
f 71 72 78
f 67 73 70
f 67 70 68
f 67 74 73
f 67 68 74
o StoneChunk_4
usemtl edge
v 0.574593 0.317467 0.402431
v 0.484231 0.481652 0.421477
v 0.281188 0.522202 0.492599
v 0.118361 0.408583 0.464991
v 0.118361 0.226352 0.403499
v 0.281188 0.112732 0.446213
v 0.484231 0.153283 0.451999
v 0.734593 0.317467 0.684766
v 0.583989 0.591108 0.757195
v 0.245585 0.658692 0.678961
v -0.025794 0.469326 0.713933
v -0.025794 0.165608 0.729748
v 0.245585 -0.023758 0.718898
v 0.583989 0.043826 0.738575
v 0.622593 0.317467 1.093606
v 0.514158 0.514489 1.121128
v 0.270507 0.563149 1.036448
v 0.075114 0.426806 1.082356
v 0.075114 0.208128 1.088362
v 0.270507 0.071785 1.037522
v 0.514158 0.120446 1.000826
v 0.354593 0.317467 1.210639
f 103 96 97
f 103 110 109
f 100 93 101
f 100 101 107
f 100 99 93
f 108 110 107
f 108 109 110
f 108 107 101
f 94 101 93
f 94 95 101
f 102 101 95
f 102 108 101
f 102 109 108
f 102 96 103
f 102 103 109
f 89 96 102
f 89 102 95
f 89 94 93
f 89 95 94
f 106 107 110
f 106 99 100
f 106 100 107
f 106 98 99
f 106 105 98
f 104 103 97
f 104 97 98
f 104 98 105
f 104 110 103
f 104 106 110
f 104 105 106
f 90 98 97
f 90 97 96
f 90 96 89
f 90 89 93
f 92 90 93
f 92 93 99
f 92 99 98
f 91 98 90
f 91 92 98
f 91 90 92
o StoneChunk_5
usemtl edge
v -0.301578 -0.069731 0.510464
v -0.391941 0.094454 0.456066
v -0.594983 0.135004 0.514645
v -0.757811 0.021385 0.401824
v -0.757811 -0.160846 0.468166
v -0.594983 -0.274466 0.439076
v -0.391941 -0.233915 0.492678
v -0.141578 -0.069731 0.686629
v -0.292182 0.203910 0.774465
v -0.630587 0.271494 0.733175
v -0.901966 0.082129 0.778318
v -0.901966 -0.221590 0.724760
v -0.630587 -0.410955 0.718881
v -0.292182 -0.343372 0.764046
v -0.253578 -0.069731 1.124642
v -0.362013 0.127291 1.047224
v -0.605664 0.175951 1.122724
v -0.801057 0.039608 1.117696
v -0.801057 -0.179069 1.023028
v -0.605664 -0.315413 1.077354
v -0.362013 -0.266752 1.089452
v -0.521578 -0.069731 1.210639
f 122 121 114
f 116 123 122
f 120 114 121
f 120 121 127
f 120 127 119
f 113 114 120
f 124 123 116
f 125 132 131
f 125 127 132
f 125 118 119
f 125 124 118
f 125 131 124
f 130 131 132
f 130 122 123
f 130 129 122
f 130 123 124
f 130 124 131
f 112 116 114
f 112 114 113
f 112 119 118
f 112 120 119
f 112 113 120
f 115 122 114
f 115 114 116
f 115 116 122
f 128 132 127
f 128 130 132
f 128 129 130
f 128 127 121
f 128 121 122
f 128 122 129
f 126 119 127
f 126 125 119
f 126 127 125
f 117 116 112
f 117 118 124
f 117 124 116
f 111 112 118
f 111 118 117
f 111 117 112
o Scatter_6
usemtl dark
v 1.064000 0.000000 0.059213
v 1.009783 0.093820 0.041588
v 0.887957 0.116991 0.030605
v 0.790260 0.052066 0.029432
v 0.790260 -0.052066 0.067676
v 0.887957 -0.116991 0.072451
v 1.009783 -0.093820 0.057757
v 1.160000 0.000000 0.167655
v 1.069638 0.156366 0.158733
v 0.866595 0.194986 0.177522
v 0.703767 0.086777 0.171800
v 0.703767 -0.086777 0.132770
v 0.866595 -0.194986 0.173794
v 1.069638 -0.156366 0.134251
v 1.092800 0.000000 0.295662
v 1.027739 0.112584 0.269070
v 0.881548 0.140390 0.302071
v 0.764313 0.062479 0.286629
v 0.764313 -0.062479 0.275025
v 0.881548 -0.140390 0.280928
v 1.027739 -0.112584 0.261998
v 0.932000 0.000000 0.340639
f 144 143 136
f 144 151 143
f 144 145 151
f 150 143 151
f 150 151 154
f 135 139 136
f 135 136 143
f 135 143 142
f 152 154 151
f 152 153 154
f 152 151 145
f 152 145 153
f 146 153 145
f 138 145 144
f 138 146 145
f 138 139 146
f 138 136 139
f 147 154 153
f 147 146 140
f 147 153 146
f 149 150 154
f 149 154 147
f 149 147 148
f 149 142 143
f 149 143 150
f 141 135 142
f 141 147 140
f 141 148 147
f 141 142 149
f 141 149 148
f 134 139 135
f 134 141 140
f 134 135 141
f 137 144 136
f 137 136 138
f 137 138 144
f 133 134 140
f 133 139 134
f 133 140 146
f 133 146 139
o Scatter_7
usemtl dark
v -0.238855 0.772903 0.053206
v -0.293073 0.866723 0.074261
v -0.414898 0.889894 0.035558
v -0.512595 0.824969 0.074174
v -0.512595 0.720837 0.043607
v -0.414898 0.655911 0.048958
v -0.293073 0.679083 0.068368
v -0.142855 0.772903 0.152280
v -0.233218 0.929269 0.159019
v -0.436260 0.967888 0.133962
v -0.599088 0.859680 0.168807
v -0.599088 0.686126 0.158470
v -0.436260 0.577917 0.148466
v -0.233218 0.616537 0.170483
v -0.210055 0.772903 0.275192
v -0.275116 0.885487 0.282407
v -0.421307 0.913292 0.267073
v -0.538543 0.835382 0.279988
v -0.538543 0.710424 0.270405
v -0.421307 0.632513 0.273230
v -0.275116 0.660319 0.296656
v -0.370855 0.772903 0.340639
f 172 173 176
f 172 165 166
f 172 166 173
f 174 176 173
f 174 175 176
f 174 167 175
f 174 166 167
f 174 173 166
f 155 163 162
f 168 175 167
f 168 162 175
f 168 155 162
f 168 161 155
f 159 166 165
f 159 167 166
f 170 162 163
f 164 157 165
f 164 163 157
f 156 157 163
f 156 155 157
f 156 163 155
f 158 165 157
f 158 159 165
f 158 157 159
f 160 157 155
f 160 159 157
f 160 155 161
f 160 167 159
f 160 168 167
f 160 161 168
f 169 175 162
f 169 162 170
f 169 176 175
f 169 170 176
f 171 172 176
f 171 176 170
f 171 165 172
f 171 164 165
f 171 170 163
f 171 163 164
o Scatter_8
usemtl dark
v -0.457352 -0.643282 0.041196
v -0.511570 -0.549462 0.042966
v -0.633395 -0.526291 0.067722
v -0.731092 -0.591216 0.033051
v -0.731092 -0.695348 0.057444
v -0.633395 -0.760273 0.063610
v -0.511570 -0.737102 0.037658
v -0.361352 -0.643282 0.135286
v -0.451715 -0.486916 0.145837
v -0.654757 -0.448297 0.164196
v -0.817585 -0.556505 0.159627
v -0.817585 -0.730059 0.139842
v -0.654757 -0.838268 0.153405
v -0.451715 -0.799648 0.164765
v -0.428552 -0.643282 0.280932
v -0.493613 -0.530698 0.291032
v -0.639804 -0.502893 0.307076
v -0.757040 -0.580803 0.293426
v -0.757040 -0.705761 0.279437
v -0.639804 -0.783672 0.269627
v -0.493613 -0.755866 0.277245
v -0.589352 -0.643282 0.340639
f 180 187 186
f 194 187 195
f 194 195 198
f 188 187 180
f 188 195 187
f 188 189 195
f 179 180 186
f 196 198 195
f 196 197 198
f 196 195 189
f 185 192 184
f 191 184 192
f 191 198 197
f 191 192 198
f 193 186 187
f 193 187 194
f 193 185 186
f 193 192 185
f 193 194 198
f 193 198 192
f 190 189 183
f 190 196 189
f 190 197 196
f 190 183 184
f 190 184 191
f 190 191 197
f 182 189 188
f 182 183 189
f 178 180 179
f 178 185 184
f 178 179 186
f 178 186 185
f 181 180 183
f 181 183 182
f 181 188 180
f 181 182 188
f 177 183 180
f 177 180 178
f 177 184 183
f 177 178 184