{"asset":{"version":"2.0","generator":"RIFTBOUND procedural asset builder"},"scene":0,"scenes":[{"nodes":[0,1,2,3,4,5,6,7,8]}],"nodes":[{"name":"Bedrock_0","mesh":0,"translation":[0.0026136363636363583,0.44586632767101814,-1.0092936587501423e-17]},{"name":"StoneChunk_1","mesh":1,"translation":[0.5509090909090909,0.768352138357134,-5.046468293750712e-18]},{"name":"StoneChunk_2","mesh":2,"translation":[-0.4046574526385942,0.7669131455250046,-0.2701852722204603]},{"name":"StoneChunk_3","mesh":3,"translation":[0.04903353180078642,0.7634299082668374,0.3984658435343364]},{"name":"StoneChunk_4","mesh":4,"translation":[0.3355023139018314,0.7625533281045906,-0.317467145539661]},{"name":"StoneChunk_5","mesh":5,"translation":[-0.5406692297776791,0.7852705768568538,0.06973071248919185]},{"name":"Scatter_6","mesh":6,"translation":[0.9205454545454544,0.17214859980427638,2.523234146875356e-18]},{"name":"Scatter_7","mesh":7,"translation":[-0.3823096350779165,0.17160041205870322,-0.7729028128018295]},{"name":"Scatter_8","mesh":8,"translation":[-0.6008066766490686,0.17027346453178238,0.6432821210117389]}],"meshes":[{"name":"Bedrock_0","primitives":[{"attributes":{"POSITION":0,"NORMAL":1},"material":0}]},{"name":"StoneChunk_1","primitives":[{"attributes":{"POSITION":2,"NORMAL":3},"material":1}]},{"name":"StoneChunk_2","primitives":[{"attributes":{"POSITION":4,"NORMAL":5},"material":1}]},{"name":"StoneChunk_3","primitives":[{"attributes":{"POSITION":6,"NORMAL":7},"material":1}]},{"name":"StoneChunk_4","primitives":[{"attributes":{"POSITION":8,"NORMAL":9},"material":1}]},{"name":"StoneChunk_5","primitives":[{"attributes":{"POSITION":10,"NORMAL":11},"material":1}]},{"name":"Scatter_6","primitives":[{"attributes":{"POSITION":12,"NORMAL":13},"material":2}]},{"name":"Scatter_7","primitives":[{"attributes":{"POSITION":14,"NORMAL":15},"material":2}]},{"name":"Scatter_8","primitives":[{"attributes":{"POSITION":16,"NORMAL":17},"material":2}]}],"materials":[{"name":"stone","pbrMetallicRoughness":{"baseColorFactor":[0.05284162552287903,0.08464151072542946,0.11657577617857154,1],"metallicFactor":0,"roughnessFactor":0.8}},{"name":"edge","pbrMetallicRoughness":{"baseColorFactor":[0.18014428915439032,0.27583283346124515,0.31118049905798434,1],"metallicFactor":0,"roughnessFactor":0.8}},{"name":"dark","pbrMetallicRoughness":{"baseColorFactor":[0.009021491898012131,0.016988052089250045,0.03155139140022645,1],"metallicFactor":0,"roughnessFactor":0.8}},{"name":"wood","pbrMetallicRoughness":{"baseColorFactor":[0.1390224537347025,0.04943345755590796,0.02201299491933654,1],"metallicFactor":0,"roughnessFactor":0.8}},{"name":"woodlight","pbrMetallicRoughness":{"baseColorFactor":[0.36859092219748707,0.14497212559723088,0.042987010162657116,1],"metallicFactor":0,"roughnessFactor":0.8}},{"name":"copper","pbrMetallicRoughness":{"baseColorFactor":[0.6730490732809419,0.20835965596076741,0.05637409755197975,1],"metallicFactor":0.35,"roughnessFactor":0.8}},{"name":"gold","pbrMetallicRoughness":{"baseColorFactor":[0.9489649381781952,0.5174013674966733,0.12752977781342206,1],"metallicFactor":0.35,"roughnessFactor":0.8}},{"name":"rift","pbrMetallicRoughness":{"baseColorFactor":[0.051122050056493396,0.7969165429079781,0.5859729839496614,1],"metallicFactor":0,"roughnessFactor":0.8},"emissiveFactor":[0.017892717519772686,0.2789207900177923,0.20509054438238147]},{"name":"ice","pbrMetallicRoughness":{"baseColorFactor":[0.4704402453042184,1.0,0.8355277914608409,1],"metallicFactor":0,"roughnessFactor":0.8},"emissiveFactor":[0.16465408585647642,0.35,0.2924347270112943]},{"name":"moss","pbrMetallicRoughness":{"baseColorFactor":[0.05459227728176034,0.14799802298268516,0.06381487094867724,1],"metallicFactor":0,"roughnessFactor":0.8}},{"name":"bark","pbrMetallicRoughness":{"baseColorFactor":[0.06575388026033009,0.03423020656508195,0.020951131914781092,1],"metallicFactor":0,"roughnessFactor":0.8}},{"name":"cloth","pbrMetallicRoughness":{"baseColorFactor":[0.03994717100152558,0.10114516420959989,0.10363409665513738,1],"metallicFactor":0,"roughnessFactor":0.8}},{"name":"leather","pbrMetallicRoughness":{"baseColorFactor":[0.05818717747368544,0.020951131914781092,0.015175238159625197,1],"metallicFactor":0,"roughnessFactor":0.8}},{"name":"fire","pbrMetallicRoughness":{"baseColorFactor":[1.0,0.3157627437363971,0.04943345755590796,1],"metallicFactor":0,"roughnessFactor":0.8},"emissiveFactor":[0.35,0.11051696030773898,0.017301710144567783]}],"bufferViews":[{"buffer":0,"byteOffset":0,"byteLength":1440},{"buffer":0,"byteOffset":1440,"byteLength":1440},{"buffer":0,"byteOffset":2880,"byteLength":1440},{"buffer":0,"byteOffset":4320,"byteLength":1440},{"buffer":0,"byteOffset":5760,"byteLength":1440},{"buffer":0,"byteOffset":7200,"byteLength":1440},{"buffer":0,"byteOffset":8640,"byteLength":1440},{"buffer":0,"byteOffset":10080,"byteLength":1440},{"buffer":0,"byteOffset":11520,"byteLength":1440},{"buffer":0,"byteOffset":12960,"byteLength":1440},{"buffer":0,"byteOffset":14400,"byteLength":1440},{"buffer":0,"byteOffset":15840,"byteLength":1440},{"buffer":0,"byteOffset":17280,"byteLength":1440},{"buffer":0,"byteOffset":18720,"byteLength":1440},{"buffer":0,"byteOffset":20160,"byteLength":1440},{"buffer":0,"byteOffset":21600,"byteLength":1440},{"buffer":0,"byteOffset":23040,"byteLength":1440},{"buffer":0,"byteOffset":24480,"byteLength":1440}],"accessors":[{"bufferView":0,"componentType":5126,"count":120,"type":"VEC3","min":[-1.038727879524231,-0.44586631655693054,-0.8286887407302856],"max":[1.1473863124847412,0.5547723770141602,0.8286887407302856]},{"bufferView":1,"componentType":5126,"count":120,"type":"VEC3","min":[-0.842239499092102,-0.9985659122467041,-0.9004303812980652],"max":[0.7614565491676331,0.9817799925804138,0.8646329045295715]},{"bufferView":2,"componentType":5126,"count":120,"type":"VEC3","min":[-0.3612966239452362,-0.3746309280395508,-0.3412247598171234],"max":[0.3990909159183502,0.44228658080101013,0.3412247598171234]},{"bufferView":3,"componentType":5126,"count":120,"type":"VEC3","min":[-0.9587236642837524,-0.9854355454444885,-0.9396879076957703],"max":[0.8315391540527344,0.8996747732162476,0.9259668588638306]},{"bufferView":4,"componentType":5126,"count":120,"type":"VEC3","min":[-0.3612966239452362,-0.35711029171943665,-0.3412247598171234],"max":[0.3990909159183502,0.4437255859375,0.3412247598171234]},{"bufferView":5,"componentType":5126,"count":120,"type":"VEC3","min":[-0.9459996819496155,-0.9959877729415894,-0.9573119878768921],"max":[0.8690752387046814,0.8478692173957825,0.9562589526176453]},{"bufferView":6,"componentType":5126,"count":120,"type":"VEC3","min":[-0.3612966239452362,-0.36020976305007935,-0.3412247598171234],"max":[0.3990909159183502,0.44720882177352905,0.3412247598171234]},{"bufferView":7,"componentType":5126,"count":120,"type":"VEC3","min":[-0.9616973400115967,-0.9982472062110901,-0.948358952999115],"max":[0.8755773305892944,0.920753002166748,0.9451384544372559]},{"bufferView":8,"componentType":5126,"count":120,"type":"VEC3","min":[-0.3612966239452362,-0.36012279987335205,-0.3412247598171234],"max":[0.3990909159183502,0.44808539748191833,0.3412247598171234]},{"bufferView":9,"componentType":5126,"count":120,"type":"VEC3","min":[-0.963977575302124,-0.9944413304328918,-0.9632788896560669],"max":[0.8759143352508545,0.912556529045105,0.9470013380050659]},{"bufferView":10,"componentType":5126,"count":120,"type":"VEC3","min":[-0.3612966239452362,-0.38344651460647583,-0.3412247598171234],"max":[0.3990909159183502,0.42536816000938416,0.3412247598171234]},{"bufferView":11,"componentType":5126,"count":120,"type":"VEC3","min":[-0.9590333104133606,-0.987247109413147,-0.9603902101516724],"max":[0.8822712898254395,0.9412160515785217,0.9567389488220215]},{"bufferView":12,"componentType":5126,"count":120,"type":"VEC3","min":[-0.2167779803276062,-0.14271654188632965,-0.19498558342456818],"max":[0.23945455253124237,0.16849012672901154,0.19498558342456818]},{"bufferView":13,"componentType":5126,"count":120,"type":"VEC3","min":[-0.9106680154800415,-0.9936976432800293,-0.9049987196922302],"max":[0.7796657681465149,0.9543079733848572,0.8899473547935486]},{"bufferView":14,"componentType":5126,"count":120,"type":"VEC3","min":[-0.2167779803276062,-0.1360420137643814,-0.19498558342456818],"max":[0.23945455253124237,0.1690383106470108,0.19498558342456818]},{"bufferView":15,"componentType":5126,"count":120,"type":"VEC3","min":[-0.8804497718811035,-0.9982250928878784,-0.9223465919494629],"max":[0.8102370500564575,0.9292027354240417,0.9211865067481995]},{"bufferView":16,"componentType":5126,"count":120,"type":"VEC3","min":[-0.2167779803276062,-0.1372227668762207,-0.19498558342456818],"max":[0.23945455253124237,0.17036525905132294,0.19498558342456818]},{"bufferView":17,"componentType":5126,"count":120,"type":"VEC3","min":[-0.9134986400604248,-0.9992764592170715,-0.9212327599525452],"max":[0.8293490409851074,0.9646047353744507,0.9022474884986877]}],"buffers":[{"byteLength":25920,"uri":"Stone_Deposit.bin"}]}