# RIFTBOUND | Z up | flat shaded
mtllib Lantern_Wraith.mtl
o Robe_Core_0
usemtl dark
v 0.288000 0.060000 0.786474
v 0.179565 0.219494 0.816438
v -0.064086 0.258885 0.897945
v -0.259479 0.148512 0.741020
v -0.259479 -0.028512 0.821308
v -0.064086 -0.138885 0.766190
v 0.179565 -0.099494 0.861530
v 0.480000 0.060000 1.330334
v 0.299275 0.325823 1.248500
v -0.106810 0.391475 1.323865
v -0.432465 0.207520 1.258093
v -0.432465 -0.087520 1.211897
v -0.106810 -0.271475 1.227100
v 0.299275 -0.205823 1.282269
v 0.345600 0.060000 1.843705
v 0.215478 0.251392 2.025429
v -0.076903 0.298662 2.032874
v -0.311375 0.166215 1.844944
v -0.311375 -0.046215 1.966282
v -0.076903 -0.178662 1.943674
v 0.215478 -0.131392 1.936273
v 0.024000 0.060000 2.240000
f 21 14 8
f 21 22 20
f 21 20 14
f 13 14 20
f 11 10 4
f 11 4 12
f 17 22 16
f 17 16 10
f 17 10 11
f 17 11 18
f 3 4 10
f 3 10 2
f 3 2 4
f 9 10 16
f 9 2 10
f 9 16 8
f 1 8 14
f 1 9 8
f 1 2 9
f 1 4 2
f 19 20 22
f 19 22 17
f 19 17 18
f 19 11 12
f 19 18 11
f 19 12 13
f 19 13 20
f 15 8 16
f 15 21 8
f 15 16 22
f 15 22 21
f 6 4 1
f 6 13 12
f 6 14 13
f 5 12 4
f 5 6 12
f 5 4 6
f 7 1 14
f 7 14 6
f 7 6 1
o Robe_Front_1
usemtl cloth
v -0.320000 -0.090000 0.150000
v -0.320000 0.090000 0.150000
v 0.320000 -0.090000 0.150000
v 0.320000 0.090000 0.150000
v 0.650000 -0.090000 0.020000
v 0.650000 0.090000 0.020000
v 0.750000 -0.090000 0.030000
v 0.750000 0.090000 0.030000
v 0.630000 -0.090000 0.790000
v 0.630000 0.090000 0.790000
v 0.420000 -0.090000 1.240000
v 0.420000 0.090000 1.240000
v -0.420000 -0.090000 1.240000
v -0.420000 0.090000 1.240000
v -0.630000 -0.090000 0.790000
v -0.630000 0.090000 0.790000
v -0.750000 -0.090000 0.030000
v -0.750000 0.090000 0.030000
v -0.650000 -0.090000 0.020000
v -0.650000 0.090000 0.020000
f 30 29 27
f 30 27 28
f 37 38 40
f 37 40 39
f 37 36 38
f 37 35 36
f 31 39 41
f 31 37 39
f 31 33 35
f 31 27 29
f 31 35 37
f 31 41 27
f 34 35 33
f 34 36 35
f 42 28 27
f 42 27 41
f 42 39 40
f 42 41 39
f 32 36 34
f 32 40 38
f 32 38 36
f 32 30 28
f 32 28 42
f 32 42 40
f 32 29 30
f 32 31 29
f 32 33 31
f 32 34 33
o Robe_Back_2
usemtl dark
v -0.320000 -0.075000 0.120000
v -0.320000 0.075000 0.120000
v 0.320000 -0.075000 0.120000
v 0.320000 0.075000 0.120000
v 0.680000 -0.075000 0.010000
v 0.680000 0.075000 0.010000
v 0.560000 -0.075000 0.820000
v 0.560000 0.075000 0.820000
v 0.390000 -0.075000 1.270000
v 0.390000 0.075000 1.270000
v -0.390000 -0.075000 1.270000
v -0.390000 0.075000 1.270000
v -0.560000 -0.075000 0.820000
v -0.560000 0.075000 0.820000
v -0.680000 -0.075000 0.010000
v -0.680000 0.075000 0.010000
f 58 47 57
f 58 48 47
f 52 53 51
f 52 54 53
f 55 47 49
f 55 57 47
f 55 51 53
f 55 49 51
f 55 56 58
f 55 58 57
f 55 54 56
f 55 53 54
f 50 48 58
f 50 58 56
f 50 56 54
f 50 54 52
f 50 47 48
f 50 49 47
f 50 51 49
f 50 52 51
o Chest_Cage_3
usemtl edge
v -0.315000 -0.322000 1.353000
v -0.315000 -0.322000 1.887000
v -0.315000 -0.298000 1.353000
v -0.315000 -0.298000 1.887000
v 0.315000 -0.322000 1.353000
v 0.315000 -0.322000 1.887000
v 0.315000 -0.298000 1.353000
v 0.315000 -0.298000 1.887000
v -0.267000 -0.370000 1.353000
v -0.267000 -0.370000 1.887000
v 0.267000 -0.370000 1.353000
v 0.267000 -0.370000 1.887000
v -0.267000 -0.250000 1.353000
v -0.267000 -0.250000 1.887000
v 0.267000 -0.250000 1.353000
v 0.267000 -0.250000 1.887000
v -0.267000 -0.322000 1.305000
v -0.267000 -0.298000 1.305000
v 0.267000 -0.322000 1.305000
v 0.267000 -0.298000 1.305000
v -0.267000 -0.322000 1.935000
v -0.267000 -0.298000 1.935000
v 0.267000 -0.322000 1.935000
v 0.267000 -0.298000 1.935000
f 67 59 75
f 80 72 62
f 65 78 73
f 76 61 71
f 82 66 74
f 70 64 81
f 68 79 60
f 77 63 69
f 61 59 60
f 61 60 62
f 72 74 73
f 72 73 71
f 72 61 62
f 72 71 61
f 80 62 60
f 80 60 79
f 65 73 74
f 65 74 66
f 76 71 73
f 76 73 78
f 76 59 61
f 76 75 59
f 64 65 66
f 64 63 65
f 82 64 66
f 82 81 64
f 82 74 72
f 82 72 80
f 82 80 79
f 82 79 81
f 69 63 64
f 69 64 70
f 68 60 59
f 68 59 67
f 68 69 70
f 68 67 69
f 68 81 79
f 68 70 81
f 77 65 63
f 77 78 65
f 77 76 78
f 77 75 76
f 77 69 67
f 77 67 75
o Rib_4
usemtl copper
v -0.125308 -0.363411 1.860000
v -0.117917 -0.383660 1.836702
v -0.127225 -0.412671 1.845601
v -0.140367 -0.410351 1.874399
v -0.139183 -0.379907 1.883298
v -0.297915 -0.348183 1.780000
v -0.294630 -0.357182 1.769645
v -0.298767 -0.370076 1.773600
v -0.304608 -0.369045 1.786400
v -0.304081 -0.355514 1.790355
f 92 86 87
f 92 91 86
f 83 85 84
f 83 86 85
f 83 87 86
f 83 92 87
f 83 88 92
f 89 88 83
f 89 83 84
f 90 92 88
f 90 91 92
f 90 88 89
f 90 86 91
f 90 85 86
f 90 84 85
f 90 89 84
o Rib_5
usemtl copper
v -0.125308 -0.363411 1.680000
v -0.117917 -0.383660 1.656702
v -0.127225 -0.412671 1.665601
v -0.140367 -0.410351 1.694399
v -0.139183 -0.379907 1.703298
v -0.297915 -0.348183 1.600000
v -0.294630 -0.357182 1.589645
v -0.298767 -0.370076 1.593600
v -0.304608 -0.369045 1.606400
v -0.304081 -0.355514 1.610355
f 102 96 97
f 102 101 96
f 93 95 94
f 93 96 95
f 93 97 96
f 93 102 97
f 93 98 102
f 99 98 93
f 99 93 94
f 100 102 98
f 100 101 102
f 100 98 99
f 100 96 101
f 100 95 96
f 100 94 95
f 100 99 94
o Rib_6
usemtl copper
v -0.125308 -0.363411 1.500000
v -0.117917 -0.383660 1.476702
v -0.127225 -0.412671 1.485601
v -0.140367 -0.410351 1.514399
v -0.139183 -0.379907 1.523298
v -0.297915 -0.348183 1.420000
v -0.294630 -0.357182 1.409645
v -0.298767 -0.370076 1.413600
v -0.304608 -0.369045 1.426400
v -0.304081 -0.355514 1.430355
f 112 106 107
f 112 111 106
f 103 105 104
f 103 106 105
f 103 107 106
f 103 112 107
f 103 108 112
f 109 108 103
f 109 103 104
f 110 112 108
f 110 111 112
f 110 108 109
f 110 106 111
f 110 105 106
f 110 104 105
f 110 109 104
o Rib_7
usemtl copper
v 0.134692 -0.416589 1.860000
v 0.120817 -0.400093 1.836702
v 0.119633 -0.369649 1.845601
v 0.132775 -0.367329 1.874399
v 0.142083 -0.396340 1.883298
v 0.302085 -0.371817 1.780000
v 0.295919 -0.364486 1.769645
v 0.295392 -0.350955 1.773600
v 0.301233 -0.349924 1.786400
v 0.305370 -0.362818 1.790355
f 114 116 115
f 114 117 116
f 114 113 117
f 118 117 113
f 118 122 117
f 118 113 114
f 118 114 119
f 121 117 122
f 121 116 117
f 120 118 119
f 120 122 118
f 120 121 122
f 120 119 114
f 120 114 115
f 120 115 116
f 120 116 121
o Rib_8
usemtl copper
v 0.134692 -0.416589 1.680000
v 0.120817 -0.400093 1.656702
v 0.119633 -0.369649 1.665601
v 0.132775 -0.367329 1.694399
v 0.142083 -0.396340 1.703298
v 0.302085 -0.371817 1.600000
v 0.295919 -0.364486 1.589645
v 0.295392 -0.350955 1.593600
v 0.301233 -0.349924 1.606400
v 0.305370 -0.362818 1.610355
f 124 126 125
f 124 127 126
f 124 123 127
f 128 127 123
f 128 132 127
f 128 123 124
f 128 124 129
f 130 129 124
f 130 124 125
f 131 128 129
f 131 132 128
f 131 129 130
f 131 127 132
f 131 126 127
f 131 125 126
f 131 130 125
o Rib_9
usemtl copper
v 0.134692 -0.416589 1.500000
v 0.120817 -0.400093 1.476702
v 0.119633 -0.369649 1.485601
v 0.132775 -0.367329 1.514399
v 0.142083 -0.396340 1.523298
v 0.302085 -0.371817 1.420000
v 0.295919 -0.364486 1.409645
v 0.295392 -0.350955 1.413600
v 0.301233 -0.349924 1.426400
v 0.305370 -0.362818 1.430355
f 134 136 135
f 134 137 136
f 134 133 137
f 138 137 133
f 138 142 137
f 138 133 134
f 138 134 139
f 141 137 142
f 141 136 137
f 140 138 139
f 140 142 138
f 140 141 142
f 140 139 134
f 140 134 135
f 140 135 136
f 140 136 141
o Captured_Flame_10
usemtl rift
v 0.091000 -0.440000 1.620000
v 0.045500 -0.361192 1.620000
v -0.045500 -0.361192 1.620000
v -0.091000 -0.440000 1.620000
v -0.045500 -0.518808 1.620000
v 0.045500 -0.518808 1.620000
v 0.140000 -0.407500 1.919000
v 0.070000 -0.286256 1.919000
v -0.070000 -0.286256 1.919000
v -0.140000 -0.407500 1.919000
v -0.070000 -0.528744 1.919000
v 0.070000 -0.528744 1.919000
v 0.000000 -0.390000 2.080000
f 155 154 149
f 150 155 149
f 153 155 152
f 153 154 155
f 151 152 155
f 151 155 150
f 148 143 149
f 148 149 154
f 148 154 153
f 148 153 147
f 146 147 153
f 146 153 152
f 144 149 143
f 144 150 149
f 145 148 147
f 145 143 148
f 145 147 146
f 145 144 143
f 145 146 152
f 145 152 151
f 145 150 144
f 145 151 150
o Cage_Bar_11
usemtl copper
v -0.254916 -0.420000 1.372042
v -0.237668 -0.443773 1.371018
v -0.209823 -0.434693 1.368587
v -0.209862 -0.405307 1.368108
v -0.237731 -0.396227 1.370244
v -0.204916 -0.410000 1.982042
v -0.187668 -0.433773 1.981018
v -0.159823 -0.424693 1.978587
v -0.159862 -0.395307 1.978108
v -0.187731 -0.386227 1.980244
f 160 161 165
f 160 156 161
f 164 160 165
f 164 159 160
f 158 156 160
f 158 157 156
f 158 160 159
f 158 164 163
f 158 159 164
f 162 165 161
f 162 163 164
f 162 164 165
f 162 157 158
f 162 158 163
f 162 161 156
f 162 156 157
o Cage_Bar_12
usemtl copper
v 0.205084 -0.420000 1.367958
v 0.222269 -0.443773 1.369756
v 0.250138 -0.434693 1.371892
v 0.250177 -0.405307 1.371413
v 0.222332 -0.396227 1.368982
v 0.155084 -0.410000 1.977958
v 0.172269 -0.433773 1.979756
v 0.200138 -0.424693 1.981892
v 0.200177 -0.395307 1.981413
v 0.172332 -0.386227 1.978982
f 172 171 166
f 172 166 167
f 168 169 174
f 168 174 173
f 168 172 167
f 168 173 172
f 170 169 168
f 170 167 166
f 170 168 167
f 175 172 173
f 175 171 172
f 175 173 174
f 175 166 171
f 175 170 166
f 175 174 169
f 175 169 170
o Cowl_13
usemtl dark
v 0.324000 0.030000 2.227837
v 0.202011 0.227022 2.207819
v -0.072097 0.275682 2.158329
v -0.291914 0.139339 2.195668
v -0.291914 -0.079339 2.235862
v -0.072097 -0.215682 2.147683
v 0.202011 -0.167022 2.273071
v 0.540000 0.030000 2.588545
v 0.336684 0.358369 2.469513
v -0.120161 0.439470 2.580956
v -0.486523 0.212231 2.490165
v -0.486523 -0.152231 2.565257
v -0.120161 -0.379470 2.485785
v 0.336684 -0.298369 2.564668
v 0.388800 0.030000 2.995919
v 0.242413 0.266426 2.999793
v -0.086516 0.324818 2.952504
v -0.350297 0.161206 2.879047
v -0.350297 -0.101206 2.913052
v -0.086516 -0.264818 2.895865
v 0.242413 -0.206426 2.995483
v 0.027000 0.030000 3.100000
f 186 187 193
f 194 193 187
f 194 197 193
f 192 193 197
f 192 197 191
f 192 191 185
f 192 185 186
f 192 186 193
f 176 181 177
f 176 183 189
f 184 191 183
f 184 183 176
f 184 176 177
f 184 185 191
f 178 186 185
f 178 185 184
f 178 184 177
f 178 177 181
f 196 189 183
f 188 187 181
f 188 181 189
f 188 189 196
f 182 189 181
f 182 181 176
f 182 176 189
f 179 178 181
f 179 186 178
f 190 183 191
f 190 196 183
f 190 191 197
f 190 197 196
f 195 197 194
f 195 196 197
f 195 188 196
f 195 194 187
f 195 187 188
f 180 187 186
f 180 186 179
f 180 181 187
f 180 179 181
o Hood_Opening_14
usemtl edge
v -0.370000 -0.125000 2.380000
v -0.370000 0.125000 2.380000
v -0.310000 -0.125000 2.920000
v -0.310000 0.125000 2.920000
v -0.210000 -0.125000 3.170000
v -0.210000 0.125000 3.170000
v 0.000000 -0.125000 3.270000
v 0.000000 0.125000 3.270000
v 0.210000 -0.125000 3.170000
v 0.210000 0.125000 3.170000
v 0.310000 -0.125000 2.920000
v 0.310000 0.125000 2.920000
v 0.370000 -0.125000 2.380000
v 0.370000 0.125000 2.380000
f 211 210 198
f 211 198 199
f 205 204 206
f 205 206 207
f 200 199 198
f 200 201 199
f 203 211 199
f 203 205 207
f 203 199 201
f 203 207 209
f 203 209 211
f 203 200 202
f 203 201 200
f 203 202 204
f 203 204 205
f 208 200 198
f 208 198 210
f 208 204 202
f 208 206 204
f 208 202 200
f 208 210 211
f 208 211 209
f 208 207 206
f 208 209 207
o Face_Void_15
usemtl dark
v -0.235000 -0.395000 2.410000
v -0.235000 -0.395000 2.930000
v -0.235000 -0.385000 2.410000
v -0.235000 -0.385000 2.930000
v 0.235000 -0.395000 2.410000
v 0.235000 -0.395000 2.930000
v 0.235000 -0.385000 2.410000
v 0.235000 -0.385000 2.930000
v -0.215000 -0.415000 2.410000
v -0.215000 -0.415000 2.930000
v 0.215000 -0.415000 2.410000
v 0.215000 -0.415000 2.930000
v -0.215000 -0.365000 2.410000
v -0.215000 -0.365000 2.930000
v 0.215000 -0.365000 2.410000
v 0.215000 -0.365000 2.930000
v -0.215000 -0.395000 2.390000
v -0.215000 -0.385000 2.390000
v 0.215000 -0.395000 2.390000
v 0.215000 -0.385000 2.390000
v -0.215000 -0.395000 2.950000
v -0.215000 -0.385000 2.950000
v 0.215000 -0.395000 2.950000
v 0.215000 -0.385000 2.950000
f 219 227 235
f 220 212 228
f 233 225 215
f 218 231 226
f 229 214 224
f 221 232 213
f 223 217 234
f 230 216 222
f 214 212 213
f 214 213 215
f 225 227 226
f 225 226 224
f 225 214 215
f 225 224 214
f 233 215 213
f 233 213 232
f 233 227 225
f 233 235 227
f 218 219 217
f 218 217 216
f 218 226 227
f 218 227 219
f 229 224 226
f 229 226 231
f 229 212 214
f 229 228 212
f 234 233 232
f 234 235 233
f 234 217 219
f 234 219 235
f 221 213 212
f 221 212 220
f 223 234 232
f 223 232 221
f 223 216 217
f 223 222 216
f 223 221 220
f 223 220 222
f 230 229 231
f 230 228 229
f 230 222 220
f 230 220 228
f 230 218 216
f 230 231 218
o Wisp_Eye_16
usemtl rift
v -0.094250 -0.431000 2.790000
v -0.112125 -0.400040 2.790000
v -0.147875 -0.400040 2.790000
v -0.165750 -0.431000 2.790000
v -0.147875 -0.461960 2.790000
v -0.112125 -0.461960 2.790000
v -0.075000 -0.431000 2.848500
v -0.102500 -0.383369 2.848500
v -0.157500 -0.383369 2.848500
v -0.185000 -0.431000 2.848500
v -0.157500 -0.478631 2.848500
v -0.102500 -0.478631 2.848500
v -0.130000 -0.431000 2.880000
f 248 245 246
f 248 242 243
f 247 242 248
f 247 248 246
f 244 245 248
f 244 248 243
f 237 243 242
f 237 242 236
f 237 244 243
f 237 238 244
f 239 246 245
f 239 240 246
f 239 244 238
f 239 245 244
f 241 237 236
f 241 240 239
f 241 238 237
f 241 239 238
f 241 236 242
f 241 242 247
f 241 246 240
f 241 247 246
o Hood_Horn_17
usemtl bark
v -0.410733 0.000000 2.830373
v -0.361331 -0.090868 2.848466
v -0.260598 -0.090868 2.878093
v -0.209267 -0.000000 2.889627
v -0.258669 0.090868 2.871534
v -0.359402 0.090868 2.841907
v -0.488781 0.020000 3.361535
v -0.474666 -0.005962 3.366705
v -0.445885 -0.005962 3.375170
v -0.431219 0.020000 3.378465
v -0.445334 0.045962 3.373295
v -0.474115 0.045962 3.364830
f 250 253 252
f 250 252 251
f 250 249 254
f 250 254 253
f 256 249 250
f 256 255 249
f 256 250 251
f 256 251 257
f 260 254 249
f 260 249 255
f 260 253 254
f 260 259 253
f 258 260 255
f 258 255 256
f 258 256 257
f 258 259 260
f 258 251 252
f 258 257 251
f 258 252 253
f 258 253 259
o Hood_Barb_18
usemtl copper
v -0.460000 0.060000 3.370000
v -0.477013 0.032361 3.335974
v -0.470515 -0.012361 3.348971
v -0.449485 -0.012361 3.391029
v -0.442987 0.032361 3.404026
v -0.640000 0.025000 3.460000
v -0.642127 0.021545 3.455747
v -0.641314 0.015955 3.457371
v -0.638686 0.015955 3.462629
v -0.637873 0.021545 3.464253
f 266 261 262
f 266 262 267
f 263 261 265
f 263 265 264
f 263 262 261
f 270 264 265
f 270 269 264
f 270 265 261
f 270 261 266
f 268 266 267
f 268 270 266
f 268 269 270
f 268 267 262
f 268 262 263
f 268 263 264
f 268 264 269
o Wisp_Eye_19
usemtl rift
v 0.165750 -0.431000 2.790000
v 0.147875 -0.400040 2.790000
v 0.112125 -0.400040 2.790000
v 0.094250 -0.431000 2.790000
v 0.112125 -0.461960 2.790000
v 0.147875 -0.461960 2.790000
v 0.185000 -0.431000 2.848500
v 0.157500 -0.383369 2.848500
v 0.102500 -0.383369 2.848500
v 0.075000 -0.431000 2.848500
v 0.102500 -0.478631 2.848500
v 0.157500 -0.478631 2.848500
v 0.130000 -0.431000 2.880000
f 283 280 281
f 283 277 278
f 282 277 283
f 282 283 281
f 279 280 283
f 279 283 278
f 272 278 277
f 272 277 271
f 272 279 278
f 272 273 279
f 274 281 280
f 274 275 281
f 274 279 273
f 274 280 279
f 276 272 271
f 276 275 274
f 276 273 272
f 276 274 273
f 276 271 277
f 276 277 282
f 276 281 275
f 276 282 281
o Hood_Horn_20
usemtl bark
v 0.209267 0.000000 2.889627
v 0.260598 -0.090868 2.878093
v 0.361331 -0.090868 2.848466
v 0.410733 -0.000000 2.830373
v 0.359402 0.090868 2.841907
v 0.258669 0.090868 2.871534
v 0.431219 0.020000 3.378465
v 0.445885 -0.005962 3.375170
v 0.474666 -0.005962 3.366705
v 0.488781 0.020000 3.361535
v 0.474115 0.045962 3.364830
v 0.445334 0.045962 3.373295
f 289 287 286
f 289 285 284
f 289 288 287
f 289 286 285
f 290 284 285
f 290 285 291
f 292 286 287
f 292 287 293
f 292 285 286
f 292 291 285
f 295 289 284
f 295 284 290
f 294 290 291
f 294 291 292
f 294 292 293
f 294 295 290
f 294 287 288
f 294 293 287
f 294 288 289
f 294 289 295
o Hood_Barb_21
usemtl copper
v 0.460000 -0.020000 3.370000
v 0.477013 0.007639 3.335974
v 0.470515 0.052361 3.348971
v 0.449485 0.052361 3.391029
v 0.442987 0.007639 3.404026
v 0.640000 0.015000 3.460000
v 0.642127 0.018455 3.455747
v 0.641314 0.024045 3.457371
v 0.638686 0.024045 3.462629
v 0.637873 0.018455 3.464253
f 298 296 300
f 298 300 299
f 298 297 296
f 301 296 297
f 301 297 302
f 301 300 296
f 301 305 300
f 303 297 298
f 303 302 297
f 304 305 301
f 304 301 302
f 304 302 303
f 304 299 300
f 304 300 305
f 304 298 299
f 304 303 298
o Mask_Bottom_22
usemtl edge
v -0.230000 -0.055000 2.510000
v -0.230000 0.055000 2.510000
v 0.000000 -0.055000 2.350000
v 0.000000 0.055000 2.350000
v 0.230000 -0.055000 2.510000
v 0.230000 0.055000 2.510000
v 0.000000 -0.055000 2.580000
v 0.000000 0.055000 2.580000
f 309 308 306
f 309 306 307
f 312 306 308
f 312 308 310
f 311 308 309
f 311 310 308
f 313 307 306
f 313 306 312
f 313 309 307
f 313 311 309
f 313 312 310
f 313 310 311
o Sleeve_23
usemtl cloth
v -0.330000 0.000000 1.647917
v -0.386477 0.150112 1.686090
v -0.513378 0.187186 1.633699
v -0.615145 0.083306 1.609927
v -0.615145 -0.083306 1.716373
v -0.513378 -0.187186 1.667671
v -0.386477 -0.150112 1.677319
v -0.230000 0.000000 1.929225
v -0.324128 0.250186 1.917043
v -0.535630 0.311977 1.874688
v -0.705242 0.138843 1.897632
v -0.705242 -0.138843 1.948345
v -0.535630 -0.311977 1.968887
v -0.324128 -0.250186 1.966632
v -0.300000 0.000000 2.293799
v -0.367772 0.180134 2.183048
v -0.520054 0.224623 2.268565
v -0.642174 0.099967 2.260712
v -0.642174 -0.099967 2.255023
v -0.520054 -0.224623 2.256515
v -0.367772 -0.180134 2.195153
v -0.467500 0.000000 2.380000
f 328 321 322
f 328 330 335
f 323 317 324
f 323 324 330
f 323 330 322
f 325 326 332
f 325 324 317
f 333 335 332
f 333 328 335
f 333 334 328
f 333 332 326
f 319 326 325
f 327 333 326
f 327 334 333
f 327 326 319
f 327 319 320
f 327 321 328
f 327 328 334
f 314 322 321
f 314 321 327
f 314 327 320
f 314 319 317
f 314 320 319
f 331 332 335
f 331 335 330
f 331 330 324
f 331 324 325
f 331 325 332
f 329 322 330
f 329 328 322
f 329 330 328
f 318 325 317
f 318 317 319
f 318 319 325
f 316 323 322
f 316 317 323
f 316 314 317
f 315 322 314
f 315 316 322
f 315 314 316
o Long_Arm_24
usemtl dark
v -0.408057 0.000000 1.873660
v -0.462292 -0.099304 1.894210
v -0.574235 -0.099304 1.920550
v -0.631943 -0.000000 1.926340
v -0.577708 0.099304 1.905790
v -0.465765 0.099304 1.879450
v -0.562127 -0.040000 1.371677
v -0.599855 -0.109081 1.385972
v -0.677729 -0.109081 1.404295
v -0.717873 -0.040000 1.408323
v -0.680145 0.029081 1.394028
v -0.602271 0.029081 1.375705
f 338 337 336
f 338 336 341
f 338 341 340
f 338 340 339
f 346 339 340
f 346 345 339
f 346 340 341
f 346 341 347
f 344 338 339
f 344 339 345
f 344 337 338
f 344 343 337
f 342 344 345
f 342 345 346
f 342 346 347
f 342 343 344
f 342 341 336
f 342 347 341
f 342 336 337
f 342 337 343
o Thin_Forearm_25
usemtl edge
v -0.561428 -0.040000 1.384954
v -0.599360 -0.108907 1.399548
v -0.677932 -0.108907 1.414594
v -0.718572 -0.040000 1.415046
v -0.680640 0.028907 1.400452
v -0.602068 0.028907 1.385406
v -0.675981 -0.090000 0.919656
v -0.702060 -0.137374 0.929689
v -0.756078 -0.137374 0.940033
v -0.784019 -0.090000 0.940344
v -0.757940 -0.042626 0.930311
v -0.703922 -0.042626 0.919967
f 358 351 352
f 358 357 351
f 350 352 351
f 350 353 352
f 350 348 353
f 350 349 348
f 359 353 348
f 359 348 354
f 359 352 353
f 359 358 352
f 356 351 357
f 356 350 351
f 355 357 358
f 355 359 354
f 355 358 359
f 355 356 357
f 355 348 349
f 355 354 348
f 355 349 350
f 355 350 356
o Palm_26
usemtl dark
v -0.662000 -0.120000 0.722214
v -0.691368 -0.044944 0.751927
v -0.757357 -0.026407 0.721842
v -0.810276 -0.078347 0.742985
v -0.810276 -0.161653 0.746645
v -0.757357 -0.213593 0.725099
v -0.691368 -0.195056 0.727205
v -0.610000 -0.120000 0.821774
v -0.658946 0.005093 0.809813
v -0.768928 0.035988 0.826553
v -0.857126 -0.050579 0.815861
v -0.857126 -0.189421 0.816572
v -0.768928 -0.275988 0.813313
v -0.658946 -0.245093 0.813724
v -0.646400 -0.120000 0.961622
v -0.681641 -0.029933 0.944034
v -0.760828 -0.007688 0.936516
v -0.824331 -0.070017 0.951591
v -0.824331 -0.169983 0.952192
v -0.760828 -0.232312 0.954109
v -0.681641 -0.210067 0.966011
v -0.733500 -0.120000 1.000000
f 377 369 370
f 377 370 378
f 377 378 381
f 373 360 367
f 373 367 380
f 373 380 372
f 373 372 365
f 368 367 360
f 368 369 375
f 371 378 370
f 371 365 372
f 371 370 363
f 379 381 378
f 379 380 381
f 379 372 380
f 379 371 372
f 379 378 371
f 374 380 367
f 374 367 368
f 374 368 375
f 374 381 380
f 374 375 381
f 376 369 377
f 376 375 369
f 376 377 381
f 376 381 375
f 366 365 360
f 366 360 373
f 366 373 365
f 362 360 365
f 362 365 363
f 362 369 368
f 362 370 369
f 362 363 370
f 364 363 365
f 364 365 371
f 364 371 363
f 361 368 360
f 361 360 362
f 361 362 368
o Long_Finger_27
usemtl edge
v -0.615669 -0.160000 0.813018
v -0.634493 -0.185553 0.813456
v -0.664382 -0.175792 0.809118
v -0.664031 -0.144208 0.805999
v -0.633925 -0.134447 0.808409
v -0.585575 -0.200000 0.411342
v -0.593941 -0.211357 0.411536
v -0.607225 -0.207019 0.409608
v -0.607069 -0.192981 0.408222
v -0.593689 -0.188643 0.409293
f 385 384 383
f 385 382 386
f 385 383 382
f 391 386 382
f 391 382 387
f 391 385 386
f 391 390 385
f 389 385 390
f 389 384 385
f 388 390 391
f 388 391 387
f 388 389 390
f 388 387 382
f 388 382 383
f 388 383 384
f 388 384 389
o Long_Finger_28
usemtl edge
v -0.680523 -0.160000 0.811124
v -0.699282 -0.185522 0.813178
v -0.729397 -0.175773 0.810840
v -0.729252 -0.144227 0.807341
v -0.699046 -0.134478 0.807517
v -0.680510 -0.200000 0.450500
v -0.688847 -0.211343 0.451413
v -0.702232 -0.207010 0.450373
v -0.702167 -0.192990 0.448818
v -0.688743 -0.188657 0.448896
f 395 394 393
f 395 392 396
f 395 393 392
f 401 396 392
f 401 392 397
f 401 395 396
f 401 400 395
f 398 397 392
f 398 392 393
f 399 400 401
f 399 401 397
f 399 397 398
f 399 395 400
f 399 394 395
f 399 393 394
f 399 398 393
o Long_Finger_29
usemtl edge
v -0.745523 -0.160000 0.808876
v -0.764046 -0.185522 0.812483
v -0.794252 -0.175773 0.812659
v -0.794397 -0.144227 0.809160
v -0.764282 -0.134478 0.806822
v -0.775510 -0.200000 0.449500
v -0.783743 -0.211343 0.451104
v -0.797167 -0.207010 0.451182
v -0.797232 -0.192990 0.449627
v -0.783847 -0.188657 0.448587
f 409 404 405
f 409 405 410
f 403 402 406
f 403 406 405
f 403 405 404
f 403 404 409
f 403 409 408
f 407 403 408
f 407 402 403
f 411 408 409
f 411 409 410
f 411 407 408
f 411 410 405
f 411 405 406
f 411 406 402
f 411 402 407
o Long_Finger_30
usemtl edge
v -0.810669 -0.160000 0.806982
v -0.828925 -0.185553 0.811591
v -0.859031 -0.175792 0.814001
v -0.859382 -0.144208 0.810882
v -0.829493 -0.134447 0.806544
v -0.870575 -0.200000 0.408658
v -0.878689 -0.211357 0.410707
v -0.892069 -0.207019 0.411778
v -0.892225 -0.192981 0.410392
v -0.878941 -0.188643 0.408464
f 419 414 415
f 419 415 420
f 413 412 416
f 413 416 415
f 413 415 414
f 413 414 419
f 413 419 418
f 421 420 415
f 421 415 416
f 417 418 419
f 417 419 420
f 417 420 421
f 417 413 418
f 417 412 413
f 417 416 412
f 417 421 416
o Sleeve_31
usemtl cloth
v 0.630000 0.000000 1.647917
v 0.573523 0.150112 1.686090
v 0.446622 0.187186 1.633699
v 0.344855 0.083306 1.609927
v 0.344855 -0.083306 1.716373
v 0.446622 -0.187186 1.667671
v 0.573523 -0.150112 1.677319
v 0.730000 0.000000 1.929225
v 0.635872 0.250186 1.917043
v 0.424370 0.311977 1.874688
v 0.254758 0.138843 1.897632
v 0.254758 -0.138843 1.948345
v 0.424370 -0.311977 1.968887
v 0.635872 -0.250186 1.966632
v 0.660000 0.000000 2.293799
v 0.592228 0.180134 2.183048
v 0.439946 0.224623 2.268565
v 0.317826 0.099967 2.260712
v 0.317826 -0.099967 2.255023
v 0.439946 -0.224623 2.256515
v 0.592228 -0.180134 2.195153
v 0.492500 0.000000 2.380000
f 436 429 430
f 436 438 443
f 431 425 432
f 431 432 438
f 431 438 430
f 433 434 440
f 433 432 425
f 441 443 440
f 441 436 443
f 441 442 436
f 441 440 434
f 427 434 433
f 435 441 434
f 435 442 441
f 435 434 427
f 435 427 428
f 435 429 436
f 435 436 442
f 422 430 429
f 422 429 435
f 422 435 428
f 422 427 425
f 422 428 427
f 439 440 443
f 439 443 438
f 439 438 432
f 439 432 433
f 439 433 440
f 437 430 438
f 437 436 430
f 437 438 436
f 426 433 425
f 426 425 427
f 426 427 433
f 424 431 430
f 424 425 431
f 424 422 425
f 423 430 422
f 423 424 430
f 423 422 424
o Long_Arm_32
usemtl dark
v 0.631943 0.000000 1.926340
v 0.574235 -0.099304 1.920550
v 0.462292 -0.099304 1.894210
v 0.408057 -0.000000 1.873660
v 0.465765 0.099304 1.879450
v 0.577708 0.099304 1.905790
v 0.717873 -0.040000 1.408323
v 0.677729 -0.109081 1.404295
v 0.599855 -0.109081 1.385972
v 0.562127 -0.040000 1.371677
v 0.602271 0.029081 1.375705
v 0.680145 0.029081 1.394028
f 455 449 444
f 455 444 450
f 455 448 449
f 455 454 448
f 445 444 449
f 445 447 446
f 445 448 447
f 445 449 448
f 453 447 448
f 453 448 454
f 453 446 447
f 453 452 446
f 451 455 450
f 451 454 455
f 451 453 454
f 451 452 453
f 451 450 444
f 451 444 445
f 451 445 446
f 451 446 452
o Thin_Forearm_33
usemtl edge
v 0.718572 -0.040000 1.415046
v 0.677932 -0.108907 1.414594
v 0.599360 -0.108907 1.399548
v 0.561428 -0.040000 1.384954
v 0.602068 0.028907 1.385406
v 0.680640 0.028907 1.400452
v 0.784019 -0.090000 0.940344
v 0.756078 -0.137374 0.940033
v 0.702060 -0.137374 0.929689
v 0.675981 -0.090000 0.919656
v 0.703922 -0.042626 0.919967
v 0.757940 -0.042626 0.930311
f 467 461 456
f 467 456 462
f 467 460 461
f 467 466 460
f 465 460 466
f 465 459 460
f 463 466 467
f 463 467 462
f 463 465 466
f 463 464 465
f 463 462 456
f 463 456 457
f 458 460 459
f 458 457 456
f 458 456 461
f 458 461 460
f 458 465 464
f 458 459 465
f 458 464 463
f 458 463 457
o Palm_34
usemtl dark
v 0.818000 -0.120000 0.722214
v 0.788632 -0.044944 0.751927
v 0.722643 -0.026407 0.721842
v 0.669724 -0.078347 0.742985
v 0.669724 -0.161653 0.746645
v 0.722643 -0.213593 0.725099
v 0.788632 -0.195056 0.727205
v 0.870000 -0.120000 0.821774
v 0.821054 0.005093 0.809813
v 0.711072 0.035988 0.826553
v 0.622874 -0.050579 0.815861
v 0.622874 -0.189421 0.816572
v 0.711072 -0.275988 0.813313
v 0.821054 -0.245093 0.813724
v 0.833600 -0.120000 0.961622
v 0.798359 -0.029933 0.944034
v 0.719172 -0.007688 0.936516
v 0.655669 -0.070017 0.951591
v 0.655669 -0.169983 0.952192
v 0.719172 -0.232312 0.954109
v 0.798359 -0.210067 0.966011
v 0.746500 -0.120000 1.000000
f 485 477 478
f 485 478 486
f 485 486 489
f 481 468 475
f 481 475 488
f 481 488 480
f 481 480 473
f 476 475 468
f 476 477 483
f 479 486 478
f 479 473 480
f 479 478 471
f 487 489 486
f 487 488 489
f 487 480 488
f 487 479 480
f 487 486 479
f 482 488 475
f 482 475 476
f 482 476 483
f 482 489 488
f 482 483 489
f 484 477 485
f 484 483 477
f 484 485 489
f 484 489 483
f 474 473 468
f 474 468 481
f 474 481 473
f 470 468 473
f 470 473 471
f 470 477 476
f 470 478 477
f 470 471 478
f 472 471 473
f 472 473 479
f 472 479 471
f 469 476 468
f 469 468 470
f 469 470 476
o Long_Finger_35
usemtl edge
v 0.669331 -0.160000 0.806982
v 0.651075 -0.185553 0.811591
v 0.620969 -0.175792 0.814001
v 0.620618 -0.144208 0.810882
v 0.650507 -0.134447 0.806544
v 0.609425 -0.200000 0.408658
v 0.601311 -0.211357 0.410707
v 0.587931 -0.207019 0.411778
v 0.587775 -0.192981 0.410392
v 0.601059 -0.188643 0.408464
f 497 492 493
f 497 493 498
f 491 490 494
f 491 494 493
f 491 493 492
f 491 492 497
f 491 497 496
f 495 491 496
f 495 490 491
f 499 496 497
f 499 497 498
f 499 495 496
f 499 498 493
f 499 493 494
f 499 494 490
f 499 490 495
o Long_Finger_36
usemtl edge
v 0.734477 -0.160000 0.808876
v 0.715954 -0.185522 0.812483
v 0.685748 -0.175773 0.812659
v 0.685603 -0.144227 0.809160
v 0.715718 -0.134478 0.806822
v 0.704490 -0.200000 0.449500
v 0.696257 -0.211343 0.451104
v 0.682833 -0.207010 0.451182
v 0.682768 -0.192990 0.449627
v 0.696153 -0.188657 0.448587
f 507 502 503
f 507 503 508
f 501 500 504
f 501 504 503
f 501 503 502
f 501 502 507
f 501 507 506
f 505 501 506
f 505 500 501
f 509 506 507
f 509 507 508
f 509 505 506
f 509 508 503
f 509 503 504
f 509 504 500
f 509 500 505
o Long_Finger_37
usemtl edge
v 0.799477 -0.160000 0.811124
v 0.780718 -0.185522 0.813178
v 0.750603 -0.175773 0.810840
v 0.750748 -0.144227 0.807341
v 0.780954 -0.134478 0.807517
v 0.799490 -0.200000 0.450500
v 0.791153 -0.211343 0.451413
v 0.777768 -0.207010 0.450373
v 0.777833 -0.192990 0.448818
v 0.791257 -0.188657 0.448896
f 513 512 511
f 513 510 514
f 513 511 510
f 519 514 510
f 519 510 515
f 519 513 514
f 519 518 513
f 516 515 510
f 516 510 511
f 517 518 519
f 517 519 515
f 517 515 516
f 517 513 518
f 517 512 513
f 517 511 512
f 517 516 511
o Long_Finger_38
usemtl edge
v 0.864331 -0.160000 0.813018
v 0.845507 -0.185553 0.813456
v 0.815618 -0.175792 0.809118
v 0.815969 -0.144208 0.805999
v 0.846075 -0.134447 0.808409
v 0.894425 -0.200000 0.411342
v 0.886059 -0.211357 0.411536
v 0.872775 -0.207019 0.409608
v 0.872931 -0.192981 0.408222
v 0.886311 -0.188643 0.409293
f 523 522 521
f 523 520 524
f 523 521 520
f 529 524 520
f 529 520 525
f 529 523 524
f 529 528 523
f 527 523 528
f 527 522 523
f 526 528 529
f 526 529 525
f 526 527 528
f 526 525 520
f 526 520 521
f 526 521 522
f 526 522 527
o Chain0_39
usemtl copper
v -0.450000 0.023000 1.940000
v -0.432612 0.011500 1.930283
v -0.432612 -0.011500 1.930283
v -0.450000 -0.023000 1.940000
v -0.467388 -0.011500 1.949717
v -0.467388 0.011500 1.949717
v -0.640000 0.023000 1.600000
v -0.622612 0.011500 1.590283
v -0.622612 -0.011500 1.590283
v -0.640000 -0.023000 1.600000
v -0.657388 -0.011500 1.609717
v -0.657388 0.011500 1.609717
f 530 537 536
f 530 531 537
f 530 536 541
f 530 541 535
f 540 541 536
f 540 537 538
f 540 536 537
f 540 538 539
f 540 534 535
f 540 535 541
f 540 533 534
f 540 539 533
f 532 531 530
f 532 534 533
f 532 535 534
f 532 530 535
f 532 538 537
f 532 537 531
f 532 539 538
f 532 533 539
o Chain1_40
usemtl copper
v -0.618464 0.000000 1.591924
v -0.628824 -0.019885 1.597052
v -0.650359 -0.019885 1.605127
v -0.661536 -0.000000 1.608076
v -0.651176 0.019885 1.602948
v -0.629641 0.019885 1.594873
v -0.738464 -0.020000 1.271924
v -0.748824 -0.039885 1.277052
v -0.770359 -0.039885 1.285127
v -0.781536 -0.020000 1.288076
v -0.771176 -0.000115 1.282948
v -0.749641 -0.000115 1.274873
f 543 549 548
f 543 548 542
f 543 550 549
f 543 544 550
f 553 542 548
f 553 547 542
f 545 543 542
f 545 542 547
f 545 544 543
f 545 547 546
f 545 551 550
f 545 550 544
f 552 548 549
f 552 550 551
f 552 549 550
f 552 553 548
f 552 545 546
f 552 551 545
f 552 547 553
f 552 546 547
o Chain2_41
usemtl copper
v -0.737202 -0.020000 1.276960
v -0.748514 -0.039908 1.279132
v -0.771312 -0.039908 1.282172
v -0.782798 -0.020000 1.283040
v -0.771486 -0.000092 1.280868
v -0.748688 -0.000092 1.277828
v -0.777202 -0.030000 0.976960
v -0.788514 -0.049908 0.979132
v -0.811312 -0.049908 0.982172
v -0.822798 -0.030000 0.983040
v -0.811486 -0.010092 0.980868
v -0.788688 -0.010092 0.977828
f 562 560 561
f 562 563 564
f 562 565 560
f 562 564 565
f 562 557 563
f 562 556 557
f 555 561 560
f 555 560 554
f 555 562 561
f 555 556 562
f 559 560 565
f 559 554 560
f 558 556 555
f 558 557 556
f 558 555 554
f 558 554 559
f 558 564 563
f 558 563 557
f 558 565 564
f 558 559 565
o Lantern_Top_42
usemtl copper
v -0.965000 -0.140000 0.900000
v -0.965000 -0.140000 0.960000
v -0.965000 0.080000 0.900000
v -0.965000 0.080000 0.960000
v -0.635000 -0.140000 0.900000
v -0.635000 -0.140000 0.960000
v -0.635000 0.080000 0.900000
v -0.635000 0.080000 0.960000
v -0.935000 -0.170000 0.900000
v -0.935000 -0.170000 0.960000
v -0.665000 -0.170000 0.900000
v -0.665000 -0.170000 0.960000
v -0.935000 0.110000 0.900000
v -0.935000 0.110000 0.960000
v -0.665000 0.110000 0.900000
v -0.665000 0.110000 0.960000
v -0.935000 -0.140000 0.870000
v -0.935000 0.080000 0.870000
v -0.665000 -0.140000 0.870000
v -0.665000 0.080000 0.870000
v -0.935000 -0.140000 0.990000
v -0.935000 0.080000 0.990000
v -0.665000 -0.140000 0.990000
v -0.665000 0.080000 0.990000
f 574 566 582
f 581 589 573
f 587 579 569
f 572 585 580
f 583 568 578
f 575 586 567
f 576 584 570
f 577 571 588
f 568 566 567
f 568 567 569
f 579 568 569
f 579 578 568
f 581 578 579
f 581 580 578
f 587 569 567
f 587 567 586
f 587 586 588
f 587 588 589
f 587 581 579
f 587 589 581
f 571 589 588
f 571 573 589
f 572 573 571
f 572 571 570
f 572 570 584
f 572 584 585
f 572 580 581
f 572 581 573
f 583 578 580
f 583 580 585
f 583 585 584
f 583 584 582
f 583 566 568
f 583 582 566
f 575 567 566
f 575 566 574
f 576 582 584
f 576 574 582
f 577 570 571
f 577 576 570
f 577 588 586
f 577 586 575
f 577 575 574
f 577 574 576
o Lantern_Frame_43
usemtl edge
v -0.905058 -0.030000 0.901701
v -0.922292 -0.053776 0.900526
v -0.950179 -0.044695 0.898624
v -0.950179 -0.015305 0.898624
v -0.922292 -0.006224 0.900526
v -0.875058 -0.030000 0.461701
v -0.892292 -0.053776 0.460526
v -0.920179 -0.044695 0.458624
v -0.920179 -0.015305 0.458624
v -0.892292 -0.006224 0.460526
f 593 597 592
f 593 598 597
f 599 593 594
f 599 598 593
f 590 593 592
f 590 592 591
f 590 594 593
f 590 595 599
f 590 599 594
f 596 597 598
f 596 599 595
f 596 598 599
f 596 590 591
f 596 595 590
f 596 591 592
f 596 592 597
o Lantern_Frame_44
usemtl edge
v -0.645058 -0.030000 0.898299
v -0.662292 -0.053776 0.899474
v -0.690179 -0.044695 0.901376
v -0.690179 -0.015305 0.901376
v -0.662292 -0.006224 0.899474
v -0.675058 -0.030000 0.458299
v -0.692292 -0.053776 0.459474
v -0.720179 -0.044695 0.461376
v -0.720179 -0.015305 0.461376
v -0.692292 -0.006224 0.459474
f 609 606 607
f 609 607 608
f 609 605 606
f 609 604 600
f 609 600 605
f 603 609 608
f 603 604 609
f 603 608 607
f 603 607 602
f 601 600 604
f 601 604 603
f 601 603 602
f 601 606 605
f 601 605 600
f 601 607 606
f 601 602 607
o Lantern_Base_45
usemtl copper
v -0.920000 -0.115000 0.420000
v -0.920000 -0.115000 0.460000
v -0.920000 0.055000 0.420000
v -0.920000 0.055000 0.460000
v -0.680000 -0.115000 0.420000
v -0.680000 -0.115000 0.460000
v -0.680000 0.055000 0.420000
v -0.680000 0.055000 0.460000
v -0.900000 -0.135000 0.420000
v -0.900000 -0.135000 0.460000
v -0.700000 -0.135000 0.420000
v -0.700000 -0.135000 0.460000
v -0.900000 0.075000 0.420000
v -0.900000 0.075000 0.460000
v -0.700000 0.075000 0.420000
v -0.700000 0.075000 0.460000
v -0.900000 -0.115000 0.400000
v -0.900000 0.055000 0.400000
v -0.700000 -0.115000 0.400000
v -0.700000 0.055000 0.400000
v -0.900000 -0.115000 0.480000
v -0.900000 0.055000 0.480000
v -0.700000 -0.115000 0.480000
v -0.700000 0.055000 0.480000
f 618 610 626
f 625 633 617
f 631 623 613
f 616 629 624
f 627 612 622
f 619 630 611
f 620 628 614
f 621 615 632
f 612 610 611
f 612 611 613
f 623 612 613
f 623 622 612
f 625 622 623
f 625 624 622
f 631 613 611
f 631 611 630
f 631 630 632
f 631 632 633
f 631 625 623
f 631 633 625
f 615 633 632
f 615 617 633
f 616 617 615
f 616 615 614
f 616 614 628
f 616 628 629
f 616 624 625
f 616 625 617
f 627 622 624
f 627 624 629
f 627 629 628
f 627 628 626
f 627 610 612
f 627 626 610
f 619 611 610
f 619 610 618
f 620 626 628
f 620 618 626
f 621 614 615
f 621 620 614
f 621 632 630
f 621 630 619
f 621 619 618
f 621 618 620
o Lantern_Flame_46
usemtl rift
v -0.751250 -0.180000 0.530000
v -0.775625 -0.137781 0.530000
v -0.824375 -0.137781 0.530000
v -0.848750 -0.180000 0.530000
v -0.824375 -0.222219 0.530000
v -0.775625 -0.222219 0.530000
v -0.725000 -0.180000 0.705500
v -0.762500 -0.115048 0.705500
v -0.837500 -0.115048 0.705500
v -0.875000 -0.180000 0.705500
v -0.837500 -0.244952 0.705500
v -0.762500 -0.244952 0.705500
v -0.800000 -0.180000 0.800000
f 646 642 643
f 644 646 643
f 641 646 640
f 641 642 646
f 645 640 646
f 645 646 644
f 639 640 645
f 639 634 640
f 635 640 634
f 635 641 640
f 635 636 642
f 635 642 641
f 637 642 636
f 637 643 642
f 638 635 634
f 638 634 639
f 638 636 635
f 638 637 636
f 638 639 645
f 638 645 644
f 638 643 637
f 638 644 643
o Tattered_Hem_47
usemtl cloth
v -0.180000 -0.060000 0.510000
v -0.180000 0.060000 0.510000
v 0.180000 -0.060000 0.510000
v 0.180000 0.060000 0.510000
v 0.350000 -0.060000 0.030000
v 0.350000 0.060000 0.030000
v 0.230000 -0.060000 0.250000
v 0.230000 0.060000 0.250000
v 0.100000 -0.060000 0.010000
v 0.100000 0.060000 0.010000
v 0.000000 -0.060000 0.330000
v 0.000000 0.060000 0.330000
v -0.120000 -0.060000 0.000000
v -0.120000 0.060000 0.000000
v -0.230000 -0.060000 0.270000
v -0.230000 0.060000 0.270000
v -0.340000 -0.060000 0.030000
v -0.340000 0.060000 0.030000
f 650 647 649
f 650 648 647
f 664 663 647
f 664 647 648
f 664 659 663
f 664 660 659
f 652 649 651
f 652 650 649
f 655 647 663
f 655 651 649
f 655 649 647
f 655 663 659
f 656 648 650
f 656 660 664
f 656 664 648
f 656 650 652
f 656 659 660
f 656 655 659
f 656 652 651
f 656 651 655