{"asset":{"version":"2.0","generator":"RIFTBOUND procedural asset builder"},"scene":0,"scenes":[{"nodes":[0]}],"nodes":[{"name":"RIG_Root","children":[1],"translation":[0.0,-0.01,-0.0]},{"name":"RIG_Torso","children":[2,3,4,7,10,11,12,13,14,15,16,17,18,19,20,21,22,23],"translation":[0.0,1.45,-0.0]},{"name":"RIG_Head","children":[24,25,26,27,28,29,30,31,32,33],"translation":[0.0,0.9700000000000002,-0.0]},{"name":"RIG_LanternChain","children":[50,51,52,53,54,55,56,57],"translation":[-0.45,0.5,-0.0]},{"name":"RIG_LeftUpperArm","children":[5,34,35],"translation":[-0.43,0.53,-0.0]},{"name":"RIG_LeftForearm","children":[6,36],"translation":[-0.2,-0.5800000000000001,0.03]},{"name":"RIG_LeftHand","children":[37,38,39,40,41],"translation":[-0.08999999999999997,-0.44999999999999996,0.05]},{"name":"RIG_RightUpperArm","children":[8,42,43],"translation":[0.43,0.53,-0.0]},{"name":"RIG_RightForearm","children":[9,44],"translation":[0.2,-0.5800000000000001,0.03]},{"name":"RIG_RightHand","children":[45,46,47,48,49],"translation":[0.08999999999999997,-0.44999999999999996,0.05]},{"name":"RIG_LeftThigh","children":[58],"translation":[-0.2,-0.7,-0.0]},{"name":"Robe_Core_Mesh","mesh":0,"translation":[0.0010909090909090808,-0.057902511458295614,-0.060000000000000005]},{"name":"Robe_Front_Mesh","mesh":1,"translation":[-1.1102230246251566e-17,-0.994,-0.0]},{"name":"Robe_Back_Mesh","mesh":2,"translation":[1.3877787807814457e-17,-0.885,-0.0]},{"name":"Chest_Cage_Mesh","mesh":3,"translation":[-4.625929269271485e-18,0.18000000000000038,0.31000000000000005]},{"name":"Rib_Mesh","mesh":4,"translation":[-0.21500000000000002,0.3799999999999999,0.375]},{"name":"Rib_Mesh","mesh":5,"translation":[-0.21500000000000002,0.20000000000000018,0.375]},{"name":"Rib_Mesh","mesh":6,"translation":[-0.21500000000000002,0.02000000000000024,0.375]},{"name":"Rib_Mesh","mesh":7,"translation":[0.215,0.3799999999999999,0.375]},{"name":"Rib_Mesh","mesh":8,"translation":[0.215,0.20000000000000018,0.375]},{"name":"Rib_Mesh","mesh":9,"translation":[0.215,0.02000000000000024,0.375]},{"name":"Captured_Flame_Mesh","mesh":10,"translation":[-1.0675221390626506e-18,0.3533846153846154,0.4211538461538462]},{"name":"Cage_Bar_Mesh","mesh":11,"translation":[-0.20500000000000002,0.2350000000000001,0.4149999999999999]},{"name":"Cage_Bar_Mesh","mesh":12,"translation":[0.205,0.2350000000000001,0.4149999999999999]},{"name":"Cowl_Mesh","mesh":13,"translation":[0.0012272727272727236,0.17740099317894087,-0.030000000000000006]},{"name":"Hood_Opening_Mesh","mesh":14,"translation":[0.0,0.47714285714285776,-0.0]},{"name":"Face_Void_Mesh","mesh":15,"translation":[0.0,0.26000000000000023,0.38999999999999996]},{"name":"Wisp_Eye_Mesh","mesh":16,"translation":[-0.13,0.4139230769230773,0.43099999999999994]},{"name":"Hood_Horn_Mesh","mesh":17,"translation":[-0.38500000000000006,0.7050000000000001,-0.009999999999999997]},{"name":"Hood_Barb_Mesh","mesh":18,"translation":[-0.55,1.0050000000000003,-0.02]},{"name":"Wisp_Eye_Mesh","mesh":19,"translation":[0.13,0.4139230769230773,0.43099999999999994]},{"name":"Hood_Horn_Mesh","mesh":20,"translation":[0.385,0.7050000000000001,-0.009999999999999997]},{"name":"Hood_Barb_Mesh","mesh":21,"translation":[0.55,1.0050000000000003,-0.02]},{"name":"Mask_Bottom_Mesh","mesh":22,"translation":[0.0,0.07749999999999968,-0.0]},{"name":"Sleeve_Mesh","mesh":23,"translation":[-0.04943181818181819,-0.0048063781190446075,-8.831319514063745e-18]},{"name":"Long_Arm_Mesh","mesh":24,"translation":[-0.14999999999999997,-0.32499999999999973,0.020000000000000007]},{"name":"Thin_Forearm_Mesh","mesh":25,"translation":[-0.05500000000000005,-0.2250000000000001,0.035]},{"name":"Palm_Mesh","mesh":26,"translation":[-0.019704545454545364,-0.09810902292784773,0.03999999999999998]},{"name":"Long_Finger_Mesh","mesh":27,"translation":[0.10000000000000009,-0.32999999999999996,0.09999999999999999]},{"name":"Long_Finger_Mesh","mesh":28,"translation":[0.020000000000000018,-0.30999999999999994,0.09999999999999999]},{"name":"Long_Finger_Mesh","mesh":29,"translation":[-0.06000000000000005,-0.31000000000000005,0.09999999999999999]},{"name":"Long_Finger_Mesh","mesh":30,"translation":[-0.14,-0.33000000000000007,0.09999999999999999]},{"name":"Sleeve_Mesh","mesh":31,"translation":[0.05056818181818168,-0.0048063781190446075,-8.831319514063745e-18]},{"name":"Long_Arm_Mesh","mesh":32,"translation":[0.15000000000000008,-0.32499999999999973,0.020000000000000007]},{"name":"Thin_Forearm_Mesh","mesh":33,"translation":[0.05500000000000005,-0.22499999999999964,0.035]},{"name":"Palm_Mesh","mesh":34,"translation":[0.02029545454545445,-0.09810902292784773,0.03999999999999998]},{"name":"Long_Finger_Mesh","mesh":35,"translation":[-0.10000000000000009,-0.33000000000000007,0.09999999999999999]},{"name":"Long_Finger_Mesh","mesh":36,"translation":[-0.020000000000000018,-0.31000000000000005,0.09999999999999999]},{"name":"Long_Finger_Mesh","mesh":37,"translation":[0.05999999999999994,-0.30999999999999994,0.09999999999999999]},{"name":"Long_Finger_Mesh","mesh":38,"translation":[0.14,-0.32999999999999996,0.09999999999999999]},{"name":"Chain0_Mesh","mesh":39,"translation":[-0.09500000000000003,-0.1699999999999997,1.4456028966473392e-19]},{"name":"Chain1_Mesh","mesh":40,"translation":[-0.25000000000000006,-0.5000000000000002,0.01]},{"name":"Chain2_Mesh","mesh":41,"translation":[-0.3299999999999999,-0.8099999999999998,0.02500000000000001]},{"name":"Lantern_Top_Mesh","mesh":42,"translation":[-0.3499999999999997,-1.0100000000000002,0.030000000000000016]},{"name":"Lantern_Frame_Mesh","mesh":43,"translation":[-0.465,-1.2599999999999998,0.03]},{"name":"Lantern_Frame_Mesh","mesh":44,"translation":[-0.23500000000000004,-1.26,0.03]},{"name":"Lantern_Base_Mesh","mesh":45,"translation":[-0.3499999999999997,-1.4999999999999998,0.030000000000000016]},{"name":"Lantern_Flame_Mesh","mesh":46,"translation":[-0.35000000000000003,-1.3082307692307693,0.18]},{"name":"Tattered_Hem_Mesh","mesh":47,"translation":[0.1988888888888889,-0.5244444444444445,-0.0]}],"meshes":[{"name":"Robe_Core_0","primitives":[{"attributes":{"POSITION":0,"NORMAL":1},"material":2}]},{"name":"Robe_Front_1","primitives":[{"attributes":{"POSITION":2,"NORMAL":3},"material":11}]},{"name":"Robe_Back_2","primitives":[{"attributes":{"POSITION":4,"NORMAL":5},"material":2}]},{"name":"Chest_Cage_3","primitives":[{"attributes":{"POSITION":6,"NORMAL":7},"material":1}]},{"name":"Rib_4","primitives":[{"attributes":{"POSITION":8,"NORMAL":9},"material":5}]},{"name":"Rib_5","primitives":[{"attributes":{"POSITION":10,"NORMAL":11},"material":5}]},{"name":"Rib_6","primitives":[{"attributes":{"POSITION":12,"NORMAL":13},"material":5}]},{"name":"Rib_7","primitives":[{"attributes":{"POSITION":14,"NORMAL":15},"material":5}]},{"name":"Rib_8","primitives":[{"attributes":{"POSITION":16,"NORMAL":17},"material":5}]},{"name":"Rib_9","primitives":[{"attributes":{"POSITION":18,"NORMAL":19},"material":5}]},{"name":"Captured_Flame_10","primitives":[{"attributes":{"POSITION":20,"NORMAL":21},"material":7}]},{"name":"Cage_Bar_11","primitives":[{"attributes":{"POSITION":22,"NORMAL":23},"material":5}]},{"name":"Cage_Bar_12","primitives":[{"attributes":{"POSITION":24,"NORMAL":25},"material":5}]},{"name":"Cowl_13","primitives":[{"attributes":{"POSITION":26,"NORMAL":27},"material":2}]},{"name":"Hood_Opening_14","primitives":[{"attributes":{"POSITION":28,"NORMAL":29},"material":1}]},{"name":"Face_Void_15","primitives":[{"attributes":{"POSITION":30,"NORMAL":31},"material":2}]},{"name":"Wisp_Eye_16","primitives":[{"attributes":{"POSITION":32,"NORMAL":33},"material":7}]},{"name":"Hood_Horn_17","primitives":[{"attributes":{"POSITION":34,"NORMAL":35},"material":10}]},{"name":"Hood_Barb_18","primitives":[{"attributes":{"POSITION":36,"NORMAL":37},"material":5}]},{"name":"Wisp_Eye_19","primitives":[{"attributes":{"POSITION":38,"NORMAL":39},"material":7}]},{"name":"Hood_Horn_20","primitives":[{"attributes":{"POSITION":40,"NORMAL":41},"material":10}]},{"name":"Hood_Barb_21","primitives":[{"attributes":{"POSITION":42,"NORMAL":43},"material":5}]},{"name":"Mask_Bottom_22","primitives":[{"attributes":{"POSITION":44,"NORMAL":45},"material":1}]},{"name":"Sleeve_23","primitives":[{"attributes":{"POSITION":46,"NORMAL":47},"material":11}]},{"name":"Long_Arm_24","primitives":[{"attributes":{"POSITION":48,"NORMAL":49},"material":2}]},{"name":"Thin_Forearm_25","primitives":[{"attributes":{"POSITION":50,"NORMAL":51},"material":1}]},{"name":"Palm_26","primitives":[{"attributes":{"POSITION":52,"NORMAL":53},"material":2}]},{"name":"Long_Finger_27","primitives":[{"attributes":{"POSITION":54,"NORMAL":55},"material":1}]},{"name":"Long_Finger_28","primitives":[{"attributes":{"POSITION":56,"NORMAL":57},"material":1}]},{"name":"Long_Finger_29","primitives":[{"attributes":{"POSITION":58,"NORMAL":59},"material":1}]},{"name":"Long_Finger_30","primitives":[{"attributes":{"POSITION":60,"NORMAL":61},"material":1}]},{"name":"Sleeve_31","primitives":[{"attributes":{"POSITION":62,"NORMAL":63},"material":11}]},{"name":"Long_Arm_32","primitives":[{"attributes":{"POSITION":64,"NORMAL":65},"material":2}]},{"name":"Thin_Forearm_33","primitives":[{"attributes":{"POSITION":66,"NORMAL":67},"material":1}]},{"name":"Palm_34","primitives":[{"attributes":{"POSITION":68,"NORMAL":69},"material":2}]},{"name":"Long_Finger_35","primitives":[{"attributes":{"POSITION":70,"NORMAL":71},"material":1}]},{"name":"Long_Finger_36","primitives":[{"attributes":{"POSITION":72,"NORMAL":73},"material":1}]},{"name":"Long_Finger_37","primitives":[{"attributes":{"POSITION":74,"NORMAL":75},"material":1}]},{"name":"Long_Finger_38","primitives":[{"attributes":{"POSITION":76,"NORMAL":77},"material":1}]},{"name":"Chain0_39","primitives":[{"attributes":{"POSITION":78,"NORMAL":79},"material":5}]},{"name":"Chain1_40","primitives":[{"attributes":{"POSITION":80,"NORMAL":81},"material":5}]},{"name":"Chain2_41","primitives":[{"attributes":{"POSITION":82,"NORMAL":83},"material":5}]},{"name":"Lantern_Top_42","primitives":[{"attributes":{"POSITION":84,"NORMAL":85},"material":5}]},{"name":"Lantern_Frame_43","primitives":[{"attributes":{"POSITION":86,"NORMAL":87},"material":1}]},{"name":"Lantern_Frame_44","primitives":[{"attributes":{"POSITION":88,"NORMAL":89},"material":1}]},{"name":"Lantern_Base_45","primitives":[{"attributes":{"POSITION":90,"NORMAL":91},"material":5}]},{"name":"Lantern_Flame_46","primitives":[{"attributes":{"POSITION":92,"NORMAL":93},"material":7}]},{"name":"Tattered_Hem_47","primitives":[{"attributes":{"POSITION":94,"NORMAL":95},"material":11}]}],"materials":[{"name":"stone","pbrMetallicRoughness":{"baseColorFactor":[0.05284162552287903,0.08464151072542946,0.11657577617857154,1],"metallicFactor":0,"roughnessFactor":0.8}},{"name":"edge","pbrMetallicRoughness":{"baseColorFactor":[0.18014428915439032,0.27583283346124515,0.31118049905798434,1],"metallicFactor":0,"roughnessFactor":0.8}},{"name":"dark","pbrMetallicRoughness":{"baseColorFactor":[0.009021491898012131,0.016988052089250045,0.03155139140022645,1],"metallicFactor":0,"roughnessFactor":0.8}},{"name":"wood","pbrMetallicRoughness":{"baseColorFactor":[0.1390224537347025,0.04943345755590796,0.02201299491933654,1],"metallicFactor":0,"roughnessFactor":0.8}},{"name":"woodlight","pbrMetallicRoughness":{"baseColorFactor":[0.36859092219748707,0.14497212559723088,0.042987010162657116,1],"metallicFactor":0,"roughnessFactor":0.8}},{"name":"copper","pbrMetallicRoughness":{"baseColorFactor":[0.6730490732809419,0.20835965596076741,0.05637409755197975,1],"metallicFactor":0.35,"roughnessFactor":0.8}},{"name":"gold","pbrMetallicRoughness":{"baseColorFactor":[0.9489649381781952,0.5174013674966733,0.12752977781342206,1],"metallicFactor":0.35,"roughnessFactor":0.8}},{"name":"rift","pbrMetallicRoughness":{"baseColorFactor":[0.051122050056493396,0.7969165429079781,0.5859729839496614,1],"metallicFactor":0,"roughnessFactor":0.8},"emissiveFactor":[0.017892717519772686,0.2789207900177923,0.20509054438238147]},{"name":"ice","pbrMetallicRoughness":{"baseColorFactor":[0.4704402453042184,1.0,0.8355277914608409,1],"metallicFactor":0,"roughnessFactor":0.8},"emissiveFactor":[0.16465408585647642,0.35,0.2924347270112943]},{"name":"moss","pbrMetallicRoughness":{"baseColorFactor":[0.05459227728176034,0.14799802298268516,0.06381487094867724,1],"metallicFactor":0,"roughnessFactor":0.8}},{"name":"bark","pbrMetallicRoughness":{"baseColorFactor":[0.06575388026033009,0.03423020656508195,0.020951131914781092,1],"metallicFactor":0,"roughnessFactor":0.8}},{"name":"cloth","pbrMetallicRoughness":{"baseColorFactor":[0.03994717100152558,0.10114516420959989,0.10363409665513738,1],"metallicFactor":0,"roughnessFactor":0.8}},{"name":"leather","pbrMetallicRoughness":{"baseColorFactor":[0.05818717747368544,0.020951131914781092,0.015175238159625197,1],"metallicFactor":0,"roughnessFactor":0.8}},{"name":"fire","pbrMetallicRoughness":{"baseColorFactor":[1.0,0.3157627437363971,0.04943345755590796,1],"metallicFactor":0,"roughnessFactor":0.8},"emissiveFactor":[0.35,0.11051696030773898,0.017301710144567783]}],"bufferViews":[{"buffer":0,"byteOffset":0,"byteLength":1440},{"buffer":0,"byteOffset":1440,"byteLength":1440},{"buffer":0,"byteOffset":2880,"byteLength":1008},{"buffer":0,"byteOffset":3888,"byteLength":1008},{"buffer":0,"byteOffset":4896,"byteLength":720},{"buffer":0,"byteOffset":5616,"byteLength":720},{"buffer":0,"byteOffset":6336,"byteLength":1584},{"buffer":0,"byteOffset":7920,"byteLength":1584},{"buffer":0,"byteOffset":9504,"byteLength":576},{"buffer":0,"byteOffset":10080,"byteLength":576},{"buffer":0,"byteOffset":10656,"byteLength":576},{"buffer":0,"byteOffset":11232,"byteLength":576},{"buffer":0,"byteOffset":11808,"byteLength":576},{"buffer":0,"byteOffset":12384,"byteLength":576},{"buffer":0,"byteOffset":12960,"byteLength":576},{"buffer":0,"byteOffset":13536,"byteLength":576},{"buffer":0,"byteOffset":14112,"byteLength":576},{"buffer":0,"byteOffset":14688,"byteLength":576},{"buffer":0,"byteOffset":15264,"byteLength":576},{"buffer":0,"byteOffset":15840,"byteLength":576},{"buffer":0,"byteOffset":16416,"byteLength":792},{"buffer":0,"byteOffset":17208,"byteLength":792},{"buffer":0,"byteOffset":18000,"byteLength":576},{"buffer":0,"byteOffset":18576,"byteLength":576},{"buffer":0,"byteOffset":19152,"byteLength":576},{"buffer":0,"byteOffset":19728,"byteLength":576},{"buffer":0,"byteOffset":20304,"byteLength":1440},{"buffer":0,"byteOffset":21744,"byteLength":1440},{"buffer":0,"byteOffset":23184,"byteLength":864},{"buffer":0,"byteOffset":24048,"byteLength":864},{"buffer":0,"byteOffset":24912,"byteLength":1584},{"buffer":0,"byteOffset":26496,"byteLength":1584},{"buffer":0,"byteOffset":28080,"byteLength":792},{"buffer":0,"byteOffset":28872,"byteLength":792},{"buffer":0,"byteOffset":29664,"byteLength":720},{"buffer":0,"byteOffset":30384,"byteLength":720},{"buffer":0,"byteOffset":31104,"byteLength":576},{"buffer":0,"byteOffset":31680,"byteLength":576},{"buffer":0,"byteOffset":32256,"byteLength":792},{"buffer":0,"byteOffset":33048,"byteLength":792},{"buffer":0,"byteOffset":33840,"byteLength":720},{"buffer":0,"byteOffset":34560,"byteLength":720},{"buffer":0,"byteOffset":35280,"byteLength":576},{"buffer":0,"byteOffset":35856,"byteLength":576},{"buffer":0,"byteOffset":36432,"byteLength":432},{"buffer":0,"byteOffset":36864,"byteLength":432},{"buffer":0,"byteOffset":37296,"byteLength":1440},{"buffer":0,"byteOffset":38736,"byteLength":1440},{"buffer":0,"byteOffset":40176,"byteLength":720},{"buffer":0,"byteOffset":40896,"byteLength":720},{"buffer":0,"byteOffset":41616,"byteLength":720},{"buffer":0,"byteOffset":42336,"byteLength":720},{"buffer":0,"byteOffset":43056,"byteLength":1440},{"buffer":0,"byteOffset":44496,"byteLength":1440},{"buffer":0,"byteOffset":45936,"byteLength":576},{"buffer":0,"byteOffset":46512,"byteLength":576},{"buffer":0,"byteOffset":47088,"byteLength":576},{"buffer":0,"byteOffset":47664,"byteLength":576},{"buffer":0,"byteOffset":48240,"byteLength":576},{"buffer":0,"byteOffset":48816,"byteLength":576},{"buffer":0,"byteOffset":49392,"byteLength":576},{"buffer":0,"byteOffset":49968,"byteLength":576},{"buffer":0,"byteOffset":50544,"byteLength":1440},{"buffer":0,"byteOffset":51984,"byteLength":1440},{"buffer":0,"byteOffset":53424,"byteLength":720},{"buffer":0,"byteOffset":54144,"byteLength":720},{"buffer":0,"byteOffset":54864,"byteLength":720},{"buffer":0,"byteOffset":55584,"byteLength":720},{"buffer":0,"byteOffset":56304,"byteLength":1440},{"buffer":0,"byteOffset":57744,"byteLength":1440},{"buffer":0,"byteOffset":59184,"byteLength":576},{"buffer":0,"byteOffset":59760,"byteLength":576},{"buffer":0,"byteOffset":60336,"byteLength":576},{"buffer":0,"byteOffset":60912,"byteLength":576},{"buffer":0,"byteOffset":61488,"byteLength":576},{"buffer":0,"byteOffset":62064,"byteLength":576},{"buffer":0,"byteOffset":62640,"byteLength":576},{"buffer":0,"byteOffset":63216,"byteLength":576},{"buffer":0,"byteOffset":63792,"byteLength":720},{"buffer":0,"byteOffset":64512,"byteLength":720},{"buffer":0,"byteOffset":65232,"byteLength":720},{"buffer":0,"byteOffset":65952,"byteLength":720},{"buffer":0,"byteOffset":66672,"byteLength":720},{"buffer":0,"byteOffset":67392,"byteLength":720},{"buffer":0,"byteOffset":68112,"byteLength":1584},{"buffer":0,"byteOffset":69696,"byteLength":1584},{"buffer":0,"byteOffset":71280,"byteLength":576},{"buffer":0,"byteOffset":71856,"byteLength":576},{"buffer":0,"byteOffset":72432,"byteLength":576},{"buffer":0,"byteOffset":73008,"byteLength":576},{"buffer":0,"byteOffset":73584,"byteLength":1584},{"buffer":0,"byteOffset":75168,"byteLength":1584},{"buffer":0,"byteOffset":76752,"byteLength":792},{"buffer":0,"byteOffset":77544,"byteLength":792},{"buffer":0,"byteOffset":78336,"byteLength":720},{"buffer":0,"byteOffset":79056,"byteLength":720}],"accessors":[{"bufferView":0,"componentType":5126,"count":120,"type":"VEC3","min":[-0.4335559606552124,-0.6410775780677795,-0.33147549629211426],"max":[0.47890910506248474,0.8579025268554688,0.33147549629211426]},{"bufferView":1,"componentType":5126,"count":120,"type":"VEC3","min":[-0.9868369102478027,-0.9964146614074707,-0.9793888330459595],"max":[0.8928022980690002,0.7214851379394531,0.9823573231697083]},{"bufferView":2,"componentType":5126,"count":84,"type":"VEC3","min":[-0.75,-0.4259999990463257,-0.09000000357627869],"max":[0.75,0.7940000295639038,0.09000000357627869]},{"bufferView":3,"componentType":5126,"count":84,"type":"VEC3","min":[-0.987762987613678,-1.0,-1.0],"max":[0.987762987613678,1.0,1.0]},{"bufferView":4,"componentType":5126,"count":60,"type":"VEC3","min":[-0.6800000071525574,-0.5450000166893005,-0.07500000298023224],"max":[0.6800000071525574,0.7149999737739563,0.07500000298023224]},{"bufferView":5,"componentType":5126,"count":60,"type":"VEC3","min":[-0.9892034530639648,-1.0,-1.0],"max":[0.9892034530639648,1.0,1.0]},{"bufferView":6,"componentType":5126,"count":132,"type":"VEC3","min":[-0.3149999976158142,-0.3149999976158142,-0.05999999865889549],"max":[0.3149999976158142,0.3149999976158142,0.05999999865889549]},{"bufferView":7,"componentType":5126,"count":132,"type":"VEC3","min":[-1.0,-1.0,-1.0],"max":[1.0,1.0,1.0]},{"bufferView":8,"componentType":5126,"count":48,"type":"VEC3","min":[-0.08960777521133423,-0.050354793667793274,-0.026817401871085167],"max":[0.09708274155855179,0.0632982850074768,0.037670738995075226]},{"bufferView":9,"componentType":5126,"count":48,"type":"VEC3","min":[-0.8935001492500305,-0.8879134654998779,-0.8479908108711243],"max":[0.8935001492500305,0.8343856930732727,0.9727501273155212]},{"bufferView":10,"componentType":5126,"count":48,"type":"VEC3","min":[-0.08960777521133423,-0.050354793667793274,-0.026817401871085167],"max":[0.09708274155855179,0.0632982850074768,0.037670738995075226]},{"bufferView":11,"componentType":5126,"count":48,"type":"VEC3","min":[-0.8935001492500305,-0.8879134654998779,-0.8479908108711243],"max":[0.8935001492500305,0.8343856930732727,0.9727501273155212]},{"bufferView":12,"componentType":5126,"count":48,"type":"VEC3","min":[-0.08960777521133423,-0.050354793667793274,-0.026817401871085167],"max":[0.09708274155855179,0.0632982850074768,0.037670738995075226]},{"bufferView":13,"componentType":5126,"count":48,"type":"VEC3","min":[-0.8935001492500305,-0.8879134654998779,-0.8479908108711243],"max":[0.8935001492500305,0.8343856930732727,0.9727501273155212]},{"bufferView":14,"componentType":5126,"count":48,"type":"VEC3","min":[-0.09536749124526978,-0.050354793667793274,-0.0250758845359087],"max":[0.09037011116743088,0.0632982850074768,0.04158915579319]},{"bufferView":15,"componentType":5126,"count":48,"type":"VEC3","min":[-0.8935001492500305,-0.8879134654998779,-0.9928230047225952],"max":[0.8935001492500305,0.8343856930732727,0.8279179334640503]},{"bufferView":16,"componentType":5126,"count":48,"type":"VEC3","min":[-0.09536749124526978,-0.050354793667793274,-0.0250758845359087],"max":[0.09037011116743088,0.0632982850074768,0.04158915579319]},{"bufferView":17,"componentType":5126,"count":48,"type":"VEC3","min":[-0.8935001492500305,-0.8879134654998779,-0.9928230047225952],"max":[0.8935001492500305,0.8343856930732727,0.8279179334640503]},{"bufferView":18,"componentType":5126,"count":48,"type":"VEC3","min":[-0.09536749124526978,-0.050354793667793274,-0.0250758845359087],"max":[0.09037011116743088,0.0632982850074768,0.04158915579319]},{"bufferView":19,"componentType":5126,"count":48,"type":"VEC3","min":[-0.8935001492500305,-0.8879134654998779,-0.9928230047225952],"max":[0.8935001492500305,0.8343856930732727,0.8279179334640503]},{"bufferView":20,"componentType":5126,"count":66,"type":"VEC3","min":[-0.14000000059604645,-0.1733846217393875,-0.1348973959684372],"max":[0.14000000059604645,0.28661537170410156,0.1075897067785263]},{"bufferView":21,"componentType":5126,"count":66,"type":"VEC3","min":[-0.8627233505249023,-1.0,-0.9700009226799011],"max":[0.8627233505249023,0.6528058648109436,0.9994484186172485]},{"bufferView":22,"componentType":5126,"count":48,"type":"VEC3","min":[-0.04991643875837326,-0.306891530752182,-0.028773240745067596],"max":[0.045177433639764786,0.30704233050346375,0.028773240745067596]},{"bufferView":23,"componentType":5126,"count":48,"type":"VEC3","min":[-0.807097315788269,-0.9965245127677917,-0.950929582118988],"max":[0.9966575503349304,0.9965245127677917,0.950929582118988]},{"bufferView":24,"componentType":5126,"count":48,"type":"VEC3","min":[-0.04991643875837326,-0.30704233050346375,-0.028773240745067596],"max":[0.045177433639764786,0.306891530752182,0.028773240745067596]},{"bufferView":25,"componentType":5126,"count":48,"type":"VEC3","min":[-0.807097315788269,-0.9965245127677917,-0.950929582118988],"max":[0.9966575503349304,0.9965245127677917,0.950929582118988]},{"bufferView":26,"componentType":5126,"count":120,"type":"VEC3","min":[-0.48775047063827515,-0.43971771001815796,-0.40946972370147705],"max":[0.538772702217102,0.512598991394043,0.40946972370147705]},{"bufferView":27,"componentType":5126,"count":120,"type":"VEC3","min":[-0.9385935068130493,-0.9833889007568359,-0.9540274143218994],"max":[0.8128112554550171,0.9496221542358398,0.9633834958076477]},{"bufferView":28,"componentType":5126,"count":72,"type":"VEC3","min":[-0.3700000047683716,-0.5071428418159485,-0.125],"max":[0.3700000047683716,0.38285714387893677,0.125]},{"bufferView":29,"componentType":5126,"count":72,"type":"VEC3","min":[-0.9938837289810181,-1.0,-1.0],"max":[0.9938837289810181,0.9028605222702026,1.0]},{"bufferView":30,"componentType":5126,"count":132,"type":"VEC3","min":[-0.23499999940395355,-0.2800000011920929,-0.02500000037252903],"max":[0.23499999940395355,0.2800000011920929,0.02500000037252903]},{"bufferView":31,"componentType":5126,"count":132,"type":"VEC3","min":[-1.0,-1.0,-1.0],"max":[1.0,1.0,1.0]},{"bufferView":32,"componentType":5126,"count":66,"type":"VEC3","min":[-0.054999999701976776,-0.03392307832837105,-0.0476313978433609],"max":[0.054999999701976776,0.05607692152261734,0.0476313978433609]},{"bufferView":33,"componentType":5126,"count":66,"type":"VEC3","min":[-0.8328667879104614,-1.0,-0.9617117643356323],"max":[0.8328667879104614,0.8340995907783508,0.9617117643356323]},{"bufferView":34,"componentType":5126,"count":60,"type":"VEC3","min":[-0.10378096252679825,-0.2846274673938751,-0.08086837828159332],"max":[0.17573337256908417,0.2634649872779846,0.10086838155984879]},{"bufferView":35,"componentType":5126,"count":60,"type":"VEC3","min":[-0.8641486167907715,-0.9586872458457947,-0.996483325958252],"max":[0.7958025336265564,0.9586872458457947,0.9873705506324768]},{"bufferView":36,"componentType":5126,"count":48,"type":"VEC3","min":[-0.09212663024663925,-0.07902603596448898,-0.03999999910593033],"max":[0.10701301693916321,0.049253255128860474,0.032360680401325226]},{"bufferView":37,"componentType":5126,"count":48,"type":"VEC3","min":[-0.8944271802902222,-0.78004390001297,-0.8011259436607361],"max":[0.8944271802902222,0.9046635031700134,0.9902461767196655]},{"bufferView":38,"componentType":5126,"count":66,"type":"VEC3","min":[-0.054999999701976776,-0.03392307832837105,-0.0476313978433609],"max":[0.054999999701976776,0.05607692152261734,0.0476313978433609]},{"bufferView":39,"componentType":5126,"count":66,"type":"VEC3","min":[-0.8328667879104614,-1.0,-0.9617117643356323],"max":[0.8328667879104614,0.8340995907783508,0.9617117643356323]},{"bufferView":40,"componentType":5126,"count":60,"type":"VEC3","min":[-0.17573337256908417,-0.2846274673938751,-0.08086837828159332],"max":[0.10378096252679825,0.2634649872779846,0.10086838155984879]},{"bufferView":41,"componentType":5126,"count":60,"type":"VEC3","min":[-0.7958025336265564,-0.9586872458457947,-0.996483325958252],"max":[0.8641486167907715,0.9586872458457947,0.9873705506324768]},{"bufferView":42,"componentType":5126,"count":48,"type":"VEC3","min":[-0.10701301693916321,-0.07902603596448898,-0.032360680401325226],"max":[0.09212663024663925,0.049253255128860474,0.03999999910593033]},{"bufferView":43,"componentType":5126,"count":48,"type":"VEC3","min":[-0.8944271802902222,-0.78004390001297,-0.9902461767196655],"max":[0.8944271802902222,0.9046635031700134,0.8011259436607361]},{"bufferView":44,"componentType":5126,"count":36,"type":"VEC3","min":[-0.23000000417232513,-0.13750000298023224,-0.054999999701976776],"max":[0.23000000417232513,0.0925000011920929,0.054999999701976776]},{"bufferView":45,"componentType":5126,"count":36,"type":"VEC3","min":[-0.5710644721984863,-0.8209052085876465,-1.0],"max":[0.5710644721984863,0.9566738605499268,1.0]},{"bufferView":46,"componentType":5126,"count":120,"type":"VEC3","min":[-0.22581039369106293,-0.35526663064956665,-0.31197693943977356],"max":[0.2494318187236786,0.4148063659667969,0.31197693943977356]},{"bufferView":47,"componentType":5126,"count":120,"type":"VEC3","min":[-0.9841667413711548,-0.9853088855743408,-0.9503310918807983],"max":[0.9294237494468689,0.8565434217453003,0.9245263338088989]},{"bufferView":48,"componentType":5126,"count":60,"type":"VEC3","min":[-0.13787336647510529,-0.2733231484889984,-0.11930393427610397],"max":[0.17194297909736633,0.28133952617645264,0.08908099681138992]},{"bufferView":49,"componentType":5126,"count":60,"type":"VEC3","min":[-0.8634602427482605,-0.9705926179885864,-0.991059422492981],"max":[0.8371562361717224,0.9705926179885864,0.9998274445533752]},{"bufferView":50,"componentType":5126,"count":60,"type":"VEC3","min":[-0.09901853650808334,-0.24534396827220917,-0.09390692412853241],"max":[0.12357241660356522,0.2500457763671875,0.07237350940704346]},{"bufferView":51,"componentType":5126,"count":60,"type":"VEC3","min":[-0.8678823709487915,-0.9768375754356384,-0.9889089465141296],"max":[0.8510651588439941,0.9768375754356384,0.9982517957687378]},{"bufferView":52,"componentType":5126,"count":120,"type":"VEC3","min":[-0.11742141097784042,-0.12004899233579636,-0.15598846971988678],"max":[0.129704549908638,0.15810902416706085,0.15598846971988678]},{"bufferView":53,"componentType":5126,"count":120,"type":"VEC3","min":[-0.9720239639282227,-0.9997618794441223,-0.9114503860473633],"max":[0.9086848497390747,0.9281095862388611,0.9350146055221558]},{"bufferView":54,"componentType":5126,"count":48,"type":"VEC3","min":[-0.04438197240233421,-0.20177844166755676,-0.04555267095565796],"max":[0.03442477434873581,0.2034560889005661,0.03135674074292183]},{"bufferView":55,"componentType":5126,"count":48,"type":"VEC3","min":[-0.9899485111236572,-0.9888607859611511,-0.943004310131073],"max":[0.8134149312973022,0.9888607859611511,0.9489348530769348]},{"bufferView":56,"componentType":5126,"count":48,"type":"VEC3","min":[-0.029397420585155487,-0.18118174374103546,-0.04552173987030983],"max":[0.019489597529172897,0.18317817151546478,0.031342994421720505]},{"bufferView":57,"componentType":5126,"count":48,"type":"VEC3","min":[-0.9971895217895508,-0.9930325746536255,-0.9410290718078613],"max":[0.8119458556175232,0.9930325746536255,0.9484118223190308]},{"bufferView":58,"componentType":5126,"count":48,"type":"VEC3","min":[-0.01723218709230423,-0.18141251802444458,-0.04552173987030983],"max":[0.034476593136787415,0.18265891075134277,0.031342994421720505]},{"bufferView":59,"componentType":5126,"count":48,"type":"VEC3","min":[-0.9999580383300781,-0.9930325746536255,-0.9410290718078613],"max":[0.8091772794723511,0.9930325746536255,0.9484118223190308]},{"bufferView":60,"componentType":5126,"count":48,"type":"VEC3","min":[-0.03222532197833061,-0.20153604447841644,-0.04555267095565796],"max":[0.04933074489235878,0.20400148630142212,0.03135674074292183]},{"bufferView":61,"componentType":5126,"count":48,"type":"VEC3","min":[-0.9966203570365906,-0.9888607859611511,-0.943004310131073],"max":[0.8067430853843689,0.9888607859611511,0.9489348530769348]},{"bufferView":62,"componentType":5126,"count":120,"type":"VEC3","min":[-0.22581039369106293,-0.35526663064956665,-0.31197693943977356],"max":[0.2494318187236786,0.4148063659667969,0.31197693943977356]},{"bufferView":63,"componentType":5126,"count":120,"type":"VEC3","min":[-0.9841667413711548,-0.9853088855743408,-0.9503310918807983],"max":[0.9294237494468689,0.8565434217453003,0.9245263338088989]},{"bufferView":64,"componentType":5126,"count":60,"type":"VEC3","min":[-0.17194297909736633,-0.2733231484889984,-0.11930393427610397],"max":[0.13787336647510529,0.28133952617645264,0.08908099681138992]},{"bufferView":65,"componentType":5126,"count":60,"type":"VEC3","min":[-0.8371562361717224,-0.9705926179885864,-0.991059422492981],"max":[0.8634602427482605,0.9705926179885864,0.9998274445533752]},{"bufferView":66,"componentType":5126,"count":60,"type":"VEC3","min":[-0.12357241660356522,-0.24534396827220917,-0.09390692412853241],"max":[0.09901853650808334,0.2500457763671875,0.07237350940704346]},{"bufferView":67,"componentType":5126,"count":60,"type":"VEC3","min":[-0.8510651588439941,-0.9768375754356384,-0.9889089465141296],"max":[0.8678823709487915,0.9768375754356384,0.9982517957687378]},{"bufferView":68,"componentType":5126,"count":120,"type":"VEC3","min":[-0.11742141097784042,-0.12004899233579636,-0.15598846971988678],"max":[0.129704549908638,0.15810902416706085,0.15598846971988678]},{"bufferView":69,"componentType":5126,"count":120,"type":"VEC3","min":[-0.9720239639282227,-0.9997618794441223,-0.9114503860473633],"max":[0.9086848497390747,0.9281095862388611,0.9350146055221558]},{"bufferView":70,"componentType":5126,"count":48,"type":"VEC3","min":[-0.03222532197833061,-0.20153604447841644,-0.04555267095565796],"max":[0.04933074489235878,0.20400148630142212,0.03135674074292183]},{"bufferView":71,"componentType":5126,"count":48,"type":"VEC3","min":[-0.9966203570365906,-0.9888607859611511,-0.943004310131073],"max":[0.8067430853843689,0.9888607859611511,0.9489348530769348]},{"bufferView":72,"componentType":5126,"count":48,"type":"VEC3","min":[-0.01723218709230423,-0.18141251802444458,-0.04552173987030983],"max":[0.034476593136787415,0.18265891075134277,0.031342994421720505]},{"bufferView":73,"componentType":5126,"count":48,"type":"VEC3","min":[-0.9999580383300781,-0.9930325746536255,-0.9410290718078613],"max":[0.8091772794723511,0.9930325746536255,0.9484118223190308]},{"bufferView":74,"componentType":5126,"count":48,"type":"VEC3","min":[-0.029397420585155487,-0.18118174374103546,-0.04552173987030983],"max":[0.019489597529172897,0.18317817151546478,0.031342994421720505]},{"bufferView":75,"componentType":5126,"count":48,"type":"VEC3","min":[-0.9971895217895508,-0.9930325746536255,-0.9410290718078613],"max":[0.8119458556175232,0.9930325746536255,0.9484118223190308]},{"bufferView":76,"componentType":5126,"count":48,"type":"VEC3","min":[-0.04438197240233421,-0.20177844166755676,-0.04555267095565796],"max":[0.03442477434873581,0.2034560889005661,0.03135674074292183]},{"bufferView":77,"componentType":5126,"count":48,"type":"VEC3","min":[-0.9899485111236572,-0.9888607859611511,-0.943004310131073],"max":[0.8134149312973022,0.9888607859611511,0.9489348530769348]},{"bufferView":78,"componentType":5126,"count":60,"type":"VEC3","min":[-0.11238779872655869,-0.17971670627593994,-0.023000000044703484],"max":[0.11238779872655869,0.17971670627593994,0.023000000044703484]},{"bufferView":79,"componentType":5126,"count":60,"type":"VEC3","min":[-0.8729434609413147,-0.8729434609413147,-0.8660253882408142],"max":[0.8729434609413147,0.8729434609413147,0.8660253882408142]},{"bufferView":80,"componentType":5126,"count":60,"type":"VEC3","min":[-0.08153557032346725,-0.16807584464550018,-0.029884563758969307],"max":[0.08153557032346725,0.16807584464550018,0.029884563758969307]},{"bufferView":81,"componentType":5126,"count":60,"type":"VEC3","min":[-0.8211413025856018,-0.9347299933433533,-0.9982920289039612],"max":[0.8211413025856018,0.9347299933433533,0.9982920289039612]},{"bufferView":82,"componentType":5126,"count":60,"type":"VEC3","min":[-0.0427982434630394,-0.15303976833820343,-0.02490772120654583],"max":[0.0427982434630394,0.15303976833820343,0.02490772120654583]},{"bufferView":83,"componentType":5126,"count":60,"type":"VEC3","min":[-0.8606107831001282,-0.9906872510910034,-0.9994546175003052],"max":[0.8606107831001282,0.9906872510910034,0.9994546175003052]},{"bufferView":84,"componentType":5126,"count":132,"type":"VEC3","min":[-0.16500000655651093,-0.05999999865889549,-0.14000000059604645],"max":[0.16500000655651093,0.05999999865889549,0.14000000059604645]},{"bufferView":85,"componentType":5126,"count":132,"type":"VEC3","min":[-1.0,-1.0,-1.0],"max":[1.0,1.0,1.0]},{"bufferView":86,"componentType":5126,"count":48,"type":"VEC3","min":[-0.03517857566475868,-0.22137580811977386,-0.02377641201019287],"max":[0.039942093193531036,0.22170059382915497,0.02377641201019287]},{"bufferView":87,"componentType":5126,"count":48,"type":"VEC3","min":[-0.9976837038993835,-0.9976837038993835,-0.9510565400123596],"max":[0.8071430921554565,0.9976837038993835,0.9510565400123596]},{"bufferView":88,"componentType":5126,"count":48,"type":"VEC3","min":[-0.03517857566475868,-0.22170059382915497,-0.02377641201019287],"max":[0.039942093193531036,0.22137580811977386,0.02377641201019287]},{"bufferView":89,"componentType":5126,"count":48,"type":"VEC3","min":[-0.9976837038993835,-0.9976837038993835,-0.9510565400123596],"max":[0.8071430921554565,0.9976837038993835,0.9510565400123596]},{"bufferView":90,"componentType":5126,"count":132,"type":"VEC3","min":[-0.11999999731779099,-0.03999999910593033,-0.10499999672174454],"max":[0.11999999731779099,0.03999999910593033,0.10499999672174454]},{"bufferView":91,"componentType":5126,"count":132,"type":"VEC3","min":[-1.0,-1.0,-1.0],"max":[1.0,1.0,1.0]},{"bufferView":92,"componentType":5126,"count":66,"type":"VEC3","min":[-0.07500000298023224,-0.10176923125982285,-0.06495190411806107],"max":[0.07500000298023224,0.16823077201843262,0.06495190411806107]},{"bufferView":93,"componentType":5126,"count":66,"type":"VEC3","min":[-0.8588500618934631,-1.0,-0.9917146563529968],"max":[0.8588500618934631,0.566429078578949,0.9917146563529968]},{"bufferView":94,"componentType":5126,"count":60,"type":"VEC3","min":[-0.33888888359069824,-0.21555554866790771,-0.05999999865889549],"max":[0.35111111402511597,0.2944444417953491,0.05999999865889549]},{"bufferView":95,"componentType":5126,"count":60,"type":"VEC3","min":[-0.9486833214759827,-0.9989685416221619,-1.0],"max":[0.9426272511482239,1.0,1.0]}],"buffers":[{"byteLength":79776,"uri":"Lantern_Wraith.bin"}]}