{"asset":{"version":"2.0","generator":"RIFTBOUND procedural asset builder"},"scene":0,"scenes":[{"nodes":[0,1,2,3,4,5,6,7,8,9,10,11,12,13,14,15,16,17]}],"nodes":[{"name":"Chest_Plank_0","mesh":0,"translation":[-0.6399999999999999,0.5099999999999999,-0.0]},{"name":"Chest_Plank_1","mesh":1,"translation":[-0.3199999999999999,0.5099999999999999,-0.0]},{"name":"Chest_Plank_2","mesh":2,"translation":[2.3129646346357427e-18,0.5099999999999999,-0.0]},{"name":"Chest_Plank_3","mesh":3,"translation":[0.31999999999999995,0.5099999999999999,-0.0]},{"name":"Chest_Plank_4","mesh":4,"translation":[0.6399999999999999,0.5099999999999999,-0.0]},{"name":"Lid_5","mesh":5,"translation":[0.0,1.09,-0.0]},{"name":"Vertical_Band_6","mesh":6,"translation":[-0.59,0.5499999999999999,0.48899999999999993]},{"name":"Vertical_Band_7","mesh":7,"translation":[-0.59,0.5499999999999999,-0.48899999999999993]},{"name":"Lid_Band_8","mesh":8,"translation":[-0.59,1.1999999999999997,-0.0]},{"name":"Band_Rivet_9","mesh":9,"translation":[-0.5900000000000001,0.16,0.5245]},{"name":"Band_Rivet_10","mesh":10,"translation":[-0.5900000000000001,0.9199999999999999,0.5245]},{"name":"Vertical_Band_11","mesh":11,"translation":[0.5899999999999999,0.5499999999999999,0.48899999999999993]},{"name":"Vertical_Band_12","mesh":12,"translation":[0.5899999999999999,0.5499999999999999,-0.48899999999999993]},{"name":"Lid_Band_13","mesh":13,"translation":[0.59,1.1999999999999997,-0.0]},{"name":"Band_Rivet_14","mesh":14,"translation":[0.59,0.16,0.5245]},{"name":"Band_Rivet_15","mesh":15,"translation":[0.59,0.9199999999999999,0.5245]},{"name":"Lock_16","mesh":16,"translation":[-1.1564823173178713e-18,0.85,0.5099999999999999]},{"name":"Keyhole_17","mesh":17,"translation":[-2.8912057932946783e-19,0.8600000000000002,0.5620000000000002]}],"meshes":[{"name":"Chest_Plank_0","primitives":[{"attributes":{"POSITION":0,"NORMAL":1},"material":4}]},{"name":"Chest_Plank_1","primitives":[{"attributes":{"POSITION":2,"NORMAL":3},"material":3}]},{"name":"Chest_Plank_2","primitives":[{"attributes":{"POSITION":4,"NORMAL":5},"material":4}]},{"name":"Chest_Plank_3","primitives":[{"attributes":{"POSITION":6,"NORMAL":7},"material":3}]},{"name":"Chest_Plank_4","primitives":[{"attributes":{"POSITION":8,"NORMAL":9},"material":4}]},{"name":"Lid_5","primitives":[{"attributes":{"POSITION":10,"NORMAL":11},"material":4}]},{"name":"Vertical_Band_6","primitives":[{"attributes":{"POSITION":12,"NORMAL":13},"material":2}]},{"name":"Vertical_Band_7","primitives":[{"attributes":{"POSITION":14,"NORMAL":15},"material":2}]},{"name":"Lid_Band_8","primitives":[{"attributes":{"POSITION":16,"NORMAL":17},"material":2}]},{"name":"Band_Rivet_9","primitives":[{"attributes":{"POSITION":18,"NORMAL":19},"material":5}]},{"name":"Band_Rivet_10","primitives":[{"attributes":{"POSITION":20,"NORMAL":21},"material":5}]},{"name":"Vertical_Band_11","primitives":[{"attributes":{"POSITION":22,"NORMAL":23},"material":2}]},{"name":"Vertical_Band_12","primitives":[{"attributes":{"POSITION":24,"NORMAL":25},"material":2}]},{"name":"Lid_Band_13","primitives":[{"attributes":{"POSITION":26,"NORMAL":27},"material":2}]},{"name":"Band_Rivet_14","primitives":[{"attributes":{"POSITION":28,"NORMAL":29},"material":5}]},{"name":"Band_Rivet_15","primitives":[{"attributes":{"POSITION":30,"NORMAL":31},"material":5}]},{"name":"Lock_16","primitives":[{"attributes":{"POSITION":32,"NORMAL":33},"material":5}]},{"name":"Keyhole_17","primitives":[{"attributes":{"POSITION":34,"NORMAL":35},"material":2}]}],"materials":[{"name":"stone","pbrMetallicRoughness":{"baseColorFactor":[0.05284162552287903,0.08464151072542946,0.11657577617857154,1],"metallicFactor":0,"roughnessFactor":0.8}},{"name":"edge","pbrMetallicRoughness":{"baseColorFactor":[0.18014428915439032,0.27583283346124515,0.31118049905798434,1],"metallicFactor":0,"roughnessFactor":0.8}},{"name":"dark","pbrMetallicRoughness":{"baseColorFactor":[0.009021491898012131,0.016988052089250045,0.03155139140022645,1],"metallicFactor":0,"roughnessFactor":0.8}},{"name":"wood","pbrMetallicRoughness":{"baseColorFactor":[0.1390224537347025,0.04943345755590796,0.02201299491933654,1],"metallicFactor":0,"roughnessFactor":0.8}},{"name":"woodlight","pbrMetallicRoughness":{"baseColorFactor":[0.36859092219748707,0.14497212559723088,0.042987010162657116,1],"metallicFactor":0,"roughnessFactor":0.8}},{"name":"copper","pbrMetallicRoughness":{"baseColorFactor":[0.6730490732809419,0.20835965596076741,0.05637409755197975,1],"metallicFactor":0.35,"roughnessFactor":0.8}},{"name":"gold","pbrMetallicRoughness":{"baseColorFactor":[0.9489649381781952,0.5174013674966733,0.12752977781342206,1],"metallicFactor":0.35,"roughnessFactor":0.8}},{"name":"rift","pbrMetallicRoughness":{"baseColorFactor":[0.051122050056493396,0.7969165429079781,0.5859729839496614,1],"metallicFactor":0,"roughnessFactor":0.8},"emissiveFactor":[0.017892717519772686,0.2789207900177923,0.20509054438238147]},{"name":"ice","pbrMetallicRoughness":{"baseColorFactor":[0.4704402453042184,1.0,0.8355277914608409,1],"metallicFactor":0,"roughnessFactor":0.8},"emissiveFactor":[0.16465408585647642,0.35,0.2924347270112943]},{"name":"moss","pbrMetallicRoughness":{"baseColorFactor":[0.05459227728176034,0.14799802298268516,0.06381487094867724,1],"metallicFactor":0,"roughnessFactor":0.8}},{"name":"bark","pbrMetallicRoughness":{"baseColorFactor":[0.06575388026033009,0.03423020656508195,0.020951131914781092,1],"metallicFactor":0,"roughnessFactor":0.8}},{"name":"cloth","pbrMetallicRoughness":{"baseColorFactor":[0.03994717100152558,0.10114516420959989,0.10363409665513738,1],"metallicFactor":0,"roughnessFactor":0.8}},{"name":"leather","pbrMetallicRoughness":{"baseColorFactor":[0.05818717747368544,0.020951131914781092,0.015175238159625197,1],"metallicFactor":0,"roughnessFactor":0.8}},{"name":"fire","pbrMetallicRoughness":{"baseColorFactor":[1.0,0.3157627437363971,0.04943345755590796,1],"metallicFactor":0,"roughnessFactor":0.8},"emissiveFactor":[0.35,0.11051696030773898,0.017301710144567783]}],"bufferViews":[{"buffer":0,"byteOffset":0,"byteLength":1584},{"buffer":0,"byteOffset":1584,"byteLength":1584},{"buffer":0,"byteOffset":3168,"byteLength":1584},{"buffer":0,"byteOffset":4752,"byteLength":1584},{"buffer":0,"byteOffset":6336,"byteLength":1584},{"buffer":0,"byteOffset":7920,"byteLength":1584},{"buffer":0,"byteOffset":9504,"byteLength":1584},{"buffer":0,"byteOffset":11088,"byteLength":1584},{"buffer":0,"byteOffset":12672,"byteLength":1584},{"buffer":0,"byteOffset":14256,"byteLength":1584},{"buffer":0,"byteOffset":15840,"byteLength":1584},{"buffer":0,"byteOffset":17424,"byteLength":1584},{"buffer":0,"byteOffset":19008,"byteLength":1584},{"buffer":0,"byteOffset":20592,"byteLength":1584},{"buffer":0,"byteOffset":22176,"byteLength":1584},{"buffer":0,"byteOffset":23760,"byteLength":1584},{"buffer":0,"byteOffset":25344,"byteLength":1584},{"buffer":0,"byteOffset":26928,"byteLength":1584},{"buffer":0,"byteOffset":28512,"byteLength":1008},{"buffer":0,"byteOffset":29520,"byteLength":1008},{"buffer":0,"byteOffset":30528,"byteLength":1008},{"buffer":0,"byteOffset":31536,"byteLength":1008},{"buffer":0,"byteOffset":32544,"byteLength":1584},{"buffer":0,"byteOffset":34128,"byteLength":1584},{"buffer":0,"byteOffset":35712,"byteLength":1584},{"buffer":0,"byteOffset":37296,"byteLength":1584},{"buffer":0,"byteOffset":38880,"byteLength":1584},{"buffer":0,"byteOffset":40464,"byteLength":1584},{"buffer":0,"byteOffset":42048,"byteLength":1008},{"buffer":0,"byteOffset":43056,"byteLength":1008},{"buffer":0,"byteOffset":44064,"byteLength":1008},{"buffer":0,"byteOffset":45072,"byteLength":1008},{"buffer":0,"byteOffset":46080,"byteLength":1584},{"buffer":0,"byteOffset":47664,"byteLength":1584},{"buffer":0,"byteOffset":49248,"byteLength":1584},{"buffer":0,"byteOffset":50832,"byteLength":1584}],"accessors":[{"bufferView":0,"componentType":5126,"count":132,"type":"VEC3","min":[-0.1550000011920929,-0.5099999904632568,-0.4699999988079071],"max":[0.1550000011920929,0.5099999904632568,0.4699999988079071]},{"bufferView":1,"componentType":5126,"count":132,"type":"VEC3","min":[-1.0,-1.0,-1.0],"max":[1.0,1.0,1.0]},{"bufferView":2,"componentType":5126,"count":132,"type":"VEC3","min":[-0.1550000011920929,-0.5099999904632568,-0.4699999988079071],"max":[0.1550000011920929,0.5099999904632568,0.4699999988079071]},{"bufferView":3,"componentType":5126,"count":132,"type":"VEC3","min":[-1.0,-1.0,-1.0],"max":[1.0,1.0,1.0]},{"bufferView":4,"componentType":5126,"count":132,"type":"VEC3","min":[-0.1550000011920929,-0.5099999904632568,-0.4699999988079071],"max":[0.1550000011920929,0.5099999904632568,0.4699999988079071]},{"bufferView":5,"componentType":5126,"count":132,"type":"VEC3","min":[-1.0,-1.0,-1.0],"max":[1.0,1.0,1.0]},{"bufferView":6,"componentType":5126,"count":132,"type":"VEC3","min":[-0.1550000011920929,-0.5099999904632568,-0.4699999988079071],"max":[0.1550000011920929,0.5099999904632568,0.4699999988079071]},{"bufferView":7,"componentType":5126,"count":132,"type":"VEC3","min":[-1.0,-1.0,-1.0],"max":[1.0,1.0,1.0]},{"bufferView":8,"componentType":5126,"count":132,"type":"VEC3","min":[-0.1550000011920929,-0.5099999904632568,-0.4699999988079071],"max":[0.1550000011920929,0.5099999904632568,0.4699999988079071]},{"bufferView":9,"componentType":5126,"count":132,"type":"VEC3","min":[-1.0,-1.0,-1.0],"max":[1.0,1.0,1.0]},{"bufferView":10,"componentType":5126,"count":132,"type":"VEC3","min":[-0.8349999785423279,-0.10000000149011612,-0.5099999904632568],"max":[0.8349999785423279,0.10000000149011612,0.5099999904632568]},{"bufferView":11,"componentType":5126,"count":132,"type":"VEC3","min":[-1.0,-1.0,-1.0],"max":[1.0,1.0,1.0]},{"bufferView":12,"componentType":5126,"count":132,"type":"VEC3","min":[-0.05000000074505806,-0.5400000214576721,-0.017500000074505806],"max":[0.05000000074505806,0.5400000214576721,0.017500000074505806]},{"bufferView":13,"componentType":5126,"count":132,"type":"VEC3","min":[-1.0,-1.0,-1.0],"max":[1.0,1.0,1.0]},{"bufferView":14,"componentType":5126,"count":132,"type":"VEC3","min":[-0.05000000074505806,-0.5400000214576721,-0.017500000074505806],"max":[0.05000000074505806,0.5400000214576721,0.017500000074505806]},{"bufferView":15,"componentType":5126,"count":132,"type":"VEC3","min":[-1.0,-1.0,-1.0],"max":[1.0,1.0,1.0]},{"bufferView":16,"componentType":5126,"count":132,"type":"VEC3","min":[-0.05000000074505806,-0.014999999664723873,-0.5],"max":[0.05000000074505806,0.014999999664723873,0.5]},{"bufferView":17,"componentType":5126,"count":132,"type":"VEC3","min":[-1.0,-1.0,-1.0],"max":[1.0,1.0,1.0]},{"bufferView":18,"componentType":5126,"count":84,"type":"VEC3","min":[-0.02500000037252903,-0.02500000037252903,-0.009499999694526196],"max":[0.02500000037252903,0.02500000037252903,0.009499999694526196]},{"bufferView":19,"componentType":5126,"count":84,"type":"VEC3","min":[-0.9238795042037964,-0.9238795042037964,-1.0],"max":[0.9238795042037964,0.9238795042037964,1.0]},{"bufferView":20,"componentType":5126,"count":84,"type":"VEC3","min":[-0.02500000037252903,-0.02500000037252903,-0.009499999694526196],"max":[0.02500000037252903,0.02500000037252903,0.009499999694526196]},{"bufferView":21,"componentType":5126,"count":84,"type":"VEC3","min":[-0.9238795042037964,-0.9238795042037964,-1.0],"max":[0.9238795042037964,0.9238795042037964,1.0]},{"bufferView":22,"componentType":5126,"count":132,"type":"VEC3","min":[-0.05000000074505806,-0.5400000214576721,-0.017500000074505806],"max":[0.05000000074505806,0.5400000214576721,0.017500000074505806]},{"bufferView":23,"componentType":5126,"count":132,"type":"VEC3","min":[-1.0,-1.0,-1.0],"max":[1.0,1.0,1.0]},{"bufferView":24,"componentType":5126,"count":132,"type":"VEC3","min":[-0.05000000074505806,-0.5400000214576721,-0.017500000074505806],"max":[0.05000000074505806,0.5400000214576721,0.017500000074505806]},{"bufferView":25,"componentType":5126,"count":132,"type":"VEC3","min":[-1.0,-1.0,-1.0],"max":[1.0,1.0,1.0]},{"bufferView":26,"componentType":5126,"count":132,"type":"VEC3","min":[-0.05000000074505806,-0.014999999664723873,-0.5],"max":[0.05000000074505806,0.014999999664723873,0.5]},{"bufferView":27,"componentType":5126,"count":132,"type":"VEC3","min":[-1.0,-1.0,-1.0],"max":[1.0,1.0,1.0]},{"bufferView":28,"componentType":5126,"count":84,"type":"VEC3","min":[-0.02500000037252903,-0.02500000037252903,-0.009499999694526196],"max":[0.02500000037252903,0.02500000037252903,0.009499999694526196]},{"bufferView":29,"componentType":5126,"count":84,"type":"VEC3","min":[-0.9238795042037964,-0.9238795042037964,-1.0],"max":[0.9238795042037964,0.9238795042037964,1.0]},{"bufferView":30,"componentType":5126,"count":84,"type":"VEC3","min":[-0.02500000037252903,-0.02500000037252903,-0.009499999694526196],"max":[0.02500000037252903,0.02500000037252903,0.009499999694526196]},{"bufferView":31,"componentType":5126,"count":84,"type":"VEC3","min":[-0.9238795042037964,-0.9238795042037964,-1.0],"max":[0.9238795042037964,0.9238795042037964,1.0]},{"bufferView":32,"componentType":5126,"count":132,"type":"VEC3","min":[-0.10000000149011612,-0.14000000059604645,-0.04500000178813934],"max":[0.10000000149011612,0.14000000059604645,0.04500000178813934]},{"bufferView":33,"componentType":5126,"count":132,"type":"VEC3","min":[-1.0,-1.0,-1.0],"max":[1.0,1.0,1.0]},{"bufferView":34,"componentType":5126,"count":132,"type":"VEC3","min":[-0.02250000089406967,-0.03750000149011612,-0.004999999888241291],"max":[0.02250000089406967,0.03750000149011612,0.004999999888241291]},{"bufferView":35,"componentType":5126,"count":132,"type":"VEC3","min":[-1.0,-1.0,-1.0],"max":[1.0,1.0,1.0]}],"buffers":[{"byteLength":52416,"uri":"Storage_Chest.bin"}]}