# RIFTBOUND | Z up | flat shaded
mtllib Storage_Chest.mtl
o Chest_Plank_0
usemtl woodlight
v -0.795000 -0.458000 0.012000
v -0.795000 -0.458000 1.008000
v -0.795000 0.458000 0.012000
v -0.795000 0.458000 1.008000
v -0.485000 -0.458000 0.012000
v -0.485000 -0.458000 1.008000
v -0.485000 0.458000 0.012000
v -0.485000 0.458000 1.008000
v -0.783000 -0.470000 0.012000
v -0.783000 -0.470000 1.008000
v -0.497000 -0.470000 0.012000
v -0.497000 -0.470000 1.008000
v -0.783000 0.470000 0.012000
v -0.783000 0.470000 1.008000
v -0.497000 0.470000 0.012000
v -0.497000 0.470000 1.008000
v -0.783000 -0.458000 0.000000
v -0.783000 0.458000 0.000000
v -0.497000 -0.458000 0.000000
v -0.497000 0.458000 0.000000
v -0.783000 -0.458000 1.020000
v -0.783000 0.458000 1.020000
v -0.497000 -0.458000 1.020000
v -0.497000 0.458000 1.020000
f 22 14 4
f 9 1 17
f 20 15 7
f 11 19 5
f 16 24 8
f 18 3 13
f 10 21 2
f 12 6 23
f 6 5 7
f 6 7 8
f 3 1 2
f 3 2 4
f 14 3 4
f 14 13 3
f 22 2 21
f 22 4 2
f 24 6 8
f 24 23 6
f 24 22 21
f 24 21 23
f 20 7 5
f 20 5 19
f 11 17 19
f 11 9 17
f 16 22 24
f 16 14 22
f 16 8 7
f 16 7 15
f 16 13 14
f 16 15 13
f 18 13 15
f 18 15 20
f 18 1 3
f 18 17 1
f 18 20 19
f 18 19 17
f 10 2 1
f 10 1 9
f 12 23 21
f 12 21 10
f 12 5 6
f 12 11 5
f 12 9 11
f 12 10 9
o Chest_Plank_1
usemtl wood
v -0.475000 -0.458000 0.012000
v -0.475000 -0.458000 1.008000
v -0.475000 0.458000 0.012000
v -0.475000 0.458000 1.008000
v -0.165000 -0.458000 0.012000
v -0.165000 -0.458000 1.008000
v -0.165000 0.458000 0.012000
v -0.165000 0.458000 1.008000
v -0.463000 -0.470000 0.012000
v -0.463000 -0.470000 1.008000
v -0.177000 -0.470000 0.012000
v -0.177000 -0.470000 1.008000
v -0.463000 0.470000 0.012000
v -0.463000 0.470000 1.008000
v -0.177000 0.470000 0.012000
v -0.177000 0.470000 1.008000
v -0.463000 -0.458000 0.000000
v -0.463000 0.458000 0.000000
v -0.177000 -0.458000 0.000000
v -0.177000 0.458000 0.000000
v -0.463000 -0.458000 1.020000
v -0.463000 0.458000 1.020000
v -0.177000 -0.458000 1.020000
v -0.177000 0.458000 1.020000
f 46 38 28
f 33 25 41
f 44 39 31
f 35 43 29
f 40 48 32
f 42 27 37
f 34 45 26
f 36 30 47
f 30 29 31
f 30 31 32
f 27 25 26
f 27 26 28
f 38 27 28
f 38 37 27
f 46 26 45
f 46 28 26
f 48 30 32
f 48 47 30
f 48 46 45
f 48 45 47
f 44 31 29
f 44 29 43
f 35 41 43
f 35 33 41
f 40 46 48
f 40 38 46
f 40 32 31
f 40 31 39
f 40 37 38
f 40 39 37
f 42 37 39
f 42 39 44
f 42 25 27
f 42 41 25
f 42 44 43
f 42 43 41
f 34 26 25
f 34 25 33
f 36 47 45
f 36 45 34
f 36 29 30
f 36 35 29
f 36 33 35
f 36 34 33
o Chest_Plank_2
usemtl woodlight
v -0.155000 -0.458000 0.012000
v -0.155000 -0.458000 1.008000
v -0.155000 0.458000 0.012000
v -0.155000 0.458000 1.008000
v 0.155000 -0.458000 0.012000
v 0.155000 -0.458000 1.008000
v 0.155000 0.458000 0.012000
v 0.155000 0.458000 1.008000
v -0.143000 -0.470000 0.012000
v -0.143000 -0.470000 1.008000
v 0.143000 -0.470000 0.012000
v 0.143000 -0.470000 1.008000
v -0.143000 0.470000 0.012000
v -0.143000 0.470000 1.008000
v 0.143000 0.470000 0.012000
v 0.143000 0.470000 1.008000
v -0.143000 -0.458000 0.000000
v -0.143000 0.458000 0.000000
v 0.143000 -0.458000 0.000000
v 0.143000 0.458000 0.000000
v -0.143000 -0.458000 1.020000
v -0.143000 0.458000 1.020000
v 0.143000 -0.458000 1.020000
v 0.143000 0.458000 1.020000
f 70 62 52
f 57 49 65
f 68 63 55
f 59 67 53
f 64 72 56
f 66 51 61
f 58 69 50
f 60 54 71
f 54 53 55
f 54 55 56
f 51 49 50
f 51 50 52
f 62 51 52
f 62 61 51
f 70 50 69
f 70 52 50
f 72 54 56
f 72 71 54
f 72 70 69
f 72 69 71
f 68 55 53
f 68 53 67
f 59 65 67
f 59 57 65
f 64 70 72
f 64 62 70
f 64 56 55
f 64 55 63
f 64 61 62
f 64 63 61
f 66 61 63
f 66 63 68
f 66 49 51
f 66 65 49
f 66 68 67
f 66 67 65
f 58 50 49
f 58 49 57
f 60 71 69
f 60 69 58
f 60 53 54
f 60 59 53
f 60 57 59
f 60 58 57
o Chest_Plank_3
usemtl wood
v 0.165000 -0.458000 0.012000
v 0.165000 -0.458000 1.008000
v 0.165000 0.458000 0.012000
v 0.165000 0.458000 1.008000
v 0.475000 -0.458000 0.012000
v 0.475000 -0.458000 1.008000
v 0.475000 0.458000 0.012000
v 0.475000 0.458000 1.008000
v 0.177000 -0.470000 0.012000
v 0.177000 -0.470000 1.008000
v 0.463000 -0.470000 0.012000
v 0.463000 -0.470000 1.008000
v 0.177000 0.470000 0.012000
v 0.177000 0.470000 1.008000
v 0.463000 0.470000 0.012000
v 0.463000 0.470000 1.008000
v 0.177000 -0.458000 0.000000
v 0.177000 0.458000 0.000000
v 0.463000 -0.458000 0.000000
v 0.463000 0.458000 0.000000
v 0.177000 -0.458000 1.020000
v 0.177000 0.458000 1.020000
v 0.463000 -0.458000 1.020000
v 0.463000 0.458000 1.020000
f 94 86 76
f 81 73 89
f 92 87 79
f 83 91 77
f 88 96 80
f 90 75 85
f 82 93 74
f 84 78 95
f 78 77 79
f 78 79 80
f 75 73 74
f 75 74 76
f 86 75 76
f 86 85 75
f 94 74 93
f 94 76 74
f 96 78 80
f 96 95 78
f 96 94 93
f 96 93 95
f 92 79 77
f 92 77 91
f 83 89 91
f 83 81 89
f 88 94 96
f 88 86 94
f 88 80 79
f 88 79 87
f 88 85 86
f 88 87 85
f 90 85 87
f 90 87 92
f 90 73 75
f 90 89 73
f 90 92 91
f 90 91 89
f 82 74 73
f 82 73 81
f 84 95 93
f 84 93 82
f 84 77 78
f 84 83 77
f 84 81 83
f 84 82 81
o Chest_Plank_4
usemtl woodlight
v 0.485000 -0.458000 0.012000
v 0.485000 -0.458000 1.008000
v 0.485000 0.458000 0.012000
v 0.485000 0.458000 1.008000
v 0.795000 -0.458000 0.012000
v 0.795000 -0.458000 1.008000
v 0.795000 0.458000 0.012000
v 0.795000 0.458000 1.008000
v 0.497000 -0.470000 0.012000
v 0.497000 -0.470000 1.008000
v 0.783000 -0.470000 0.012000
v 0.783000 -0.470000 1.008000
v 0.497000 0.470000 0.012000
v 0.497000 0.470000 1.008000
v 0.783000 0.470000 0.012000
v 0.783000 0.470000 1.008000
v 0.497000 -0.458000 0.000000
v 0.497000 0.458000 0.000000
v 0.783000 -0.458000 0.000000
v 0.783000 0.458000 0.000000
v 0.497000 -0.458000 1.020000
v 0.497000 0.458000 1.020000
v 0.783000 -0.458000 1.020000
v 0.783000 0.458000 1.020000
f 118 110 100
f 105 97 113
f 116 111 103
f 107 115 101
f 112 120 104
f 114 99 109
f 106 117 98
f 108 102 119
f 102 101 103
f 102 103 104
f 99 97 98
f 99 98 100
f 110 99 100
f 110 109 99
f 118 98 117
f 118 100 98
f 120 102 104
f 120 119 102
f 120 118 117
f 120 117 119
f 116 103 101
f 116 101 115
f 107 113 115
f 107 105 113
f 112 118 120
f 112 110 118
f 112 104 103
f 112 103 111
f 112 109 110
f 112 111 109
f 114 109 111
f 114 111 116
f 114 97 99
f 114 113 97
f 114 116 115
f 114 115 113
f 106 98 97
f 106 97 105
f 108 119 117
f 108 117 106
f 108 101 102
f 108 107 101
f 108 105 107
f 108 106 105
o Lid_5
usemtl woodlight
v -0.835000 -0.475000 1.025000
v -0.835000 -0.475000 1.155000
v -0.835000 0.475000 1.025000
v -0.835000 0.475000 1.155000
v 0.835000 -0.475000 1.025000
v 0.835000 -0.475000 1.155000
v 0.835000 0.475000 1.025000
v 0.835000 0.475000 1.155000
v -0.800000 -0.510000 1.025000
v -0.800000 -0.510000 1.155000
v 0.800000 -0.510000 1.025000
v 0.800000 -0.510000 1.155000
v -0.800000 0.510000 1.025000
v -0.800000 0.510000 1.155000
v 0.800000 0.510000 1.025000
v 0.800000 0.510000 1.155000
v -0.800000 -0.475000 0.990000
v -0.800000 0.475000 0.990000
v 0.800000 -0.475000 0.990000
v 0.800000 0.475000 0.990000
v -0.800000 -0.475000 1.190000
v -0.800000 0.475000 1.190000
v 0.800000 -0.475000 1.190000
v 0.800000 0.475000 1.190000
f 129 121 137
f 136 144 128
f 142 134 124
f 127 140 135
f 138 123 133
f 130 141 122
f 131 139 125
f 132 126 143
f 123 121 122
f 123 122 124
f 134 123 124
f 134 133 123
f 136 133 134
f 136 135 133
f 142 124 122
f 142 122 141
f 142 141 143
f 142 143 144
f 142 136 134
f 142 144 136
f 126 144 143
f 126 128 144
f 127 128 126
f 127 126 125
f 127 125 139
f 127 139 140
f 127 135 136
f 127 136 128
f 138 133 135
f 138 135 140
f 138 140 139
f 138 139 137
f 138 121 123
f 138 137 121
f 130 122 121
f 130 121 129
f 131 137 139
f 131 129 137
f 132 125 126
f 132 131 125
f 132 143 141
f 132 141 130
f 132 130 129
f 132 129 131
o Vertical_Band_6
usemtl dark
v -0.640000 -0.498500 0.018000
v -0.640000 -0.498500 1.082000
v -0.640000 -0.479500 0.018000
v -0.640000 -0.479500 1.082000
v -0.540000 -0.498500 0.018000
v -0.540000 -0.498500 1.082000
v -0.540000 -0.479500 0.018000
v -0.540000 -0.479500 1.082000
v -0.632000 -0.506500 0.018000
v -0.632000 -0.506500 1.082000
v -0.548000 -0.506500 0.018000
v -0.548000 -0.506500 1.082000
v -0.632000 -0.471500 0.018000
v -0.632000 -0.471500 1.082000
v -0.548000 -0.471500 0.018000
v -0.548000 -0.471500 1.082000
v -0.632000 -0.498500 0.010000
v -0.632000 -0.479500 0.010000
v -0.548000 -0.498500 0.010000
v -0.548000 -0.479500 0.010000
v -0.632000 -0.498500 1.090000
v -0.632000 -0.479500 1.090000
v -0.548000 -0.498500 1.090000
v -0.548000 -0.479500 1.090000
f 152 160 168
f 153 145 161
f 166 158 148
f 151 164 159
f 162 147 157
f 154 165 146
f 155 163 149
f 156 150 167
f 147 145 146
f 147 146 148
f 158 160 159
f 158 159 157
f 158 147 148
f 158 157 147
f 166 148 146
f 166 146 165
f 166 160 158
f 166 168 160
f 151 163 164
f 151 149 163
f 151 150 149
f 151 152 150
f 151 159 160
f 151 160 152
f 162 157 159
f 162 159 164
f 162 164 163
f 162 163 161
f 162 145 147
f 162 161 145
f 167 166 165
f 167 168 166
f 167 150 152
f 167 152 168
f 154 146 145
f 154 145 153
f 155 161 163
f 155 153 161
f 156 167 165
f 156 165 154
f 156 149 150
f 156 155 149
f 156 154 153
f 156 153 155
o Vertical_Band_7
usemtl dark
v -0.640000 0.479500 0.018000
v -0.640000 0.479500 1.082000
v -0.640000 0.498500 0.018000
v -0.640000 0.498500 1.082000
v -0.540000 0.479500 0.018000
v -0.540000 0.479500 1.082000
v -0.540000 0.498500 0.018000
v -0.540000 0.498500 1.082000
v -0.632000 0.471500 0.018000
v -0.632000 0.471500 1.082000
v -0.548000 0.471500 0.018000
v -0.548000 0.471500 1.082000
v -0.632000 0.506500 0.018000
v -0.632000 0.506500 1.082000
v -0.548000 0.506500 0.018000
v -0.548000 0.506500 1.082000
v -0.632000 0.479500 0.010000
v -0.632000 0.498500 0.010000
v -0.548000 0.479500 0.010000
v -0.548000 0.498500 0.010000
v -0.632000 0.479500 1.090000
v -0.632000 0.498500 1.090000
v -0.548000 0.479500 1.090000
v -0.548000 0.498500 1.090000
f 176 184 192
f 177 169 185
f 190 182 172
f 175 188 183
f 186 171 181
f 178 189 170
f 179 187 173
f 180 174 191
f 171 169 170
f 171 170 172
f 182 184 183
f 182 183 181
f 182 171 172
f 182 181 171
f 190 172 170
f 190 170 189
f 190 184 182
f 190 192 184
f 175 187 188
f 175 173 187
f 175 174 173
f 175 176 174
f 175 183 184
f 175 184 176
f 186 181 183
f 186 183 188
f 186 188 187
f 186 187 185
f 186 169 171
f 186 185 169
f 191 190 189
f 191 192 190
f 191 174 176
f 191 176 192
f 178 170 169
f 178 169 177
f 179 185 187
f 179 177 185
f 180 191 189
f 180 189 178
f 180 173 174
f 180 179 173
f 180 178 177
f 180 177 179
o Lid_Band_8
usemtl dark
v -0.640000 -0.494000 1.191000
v -0.640000 -0.494000 1.209000
v -0.640000 0.494000 1.191000
v -0.640000 0.494000 1.209000
v -0.540000 -0.494000 1.191000
v -0.540000 -0.494000 1.209000
v -0.540000 0.494000 1.191000
v -0.540000 0.494000 1.209000
v -0.634000 -0.500000 1.191000
v -0.634000 -0.500000 1.209000
v -0.546000 -0.500000 1.191000
v -0.546000 -0.500000 1.209000
v -0.634000 0.500000 1.191000
v -0.634000 0.500000 1.209000
v -0.546000 0.500000 1.191000
v -0.546000 0.500000 1.209000
v -0.634000 -0.494000 1.185000
v -0.634000 0.494000 1.185000
v -0.546000 -0.494000 1.185000
v -0.546000 0.494000 1.185000
v -0.634000 -0.494000 1.215000
v -0.634000 0.494000 1.215000
v -0.546000 -0.494000 1.215000
v -0.546000 0.494000 1.215000
f 214 206 196
f 201 193 209
f 200 208 216
f 210 195 205
f 207 199 212
f 202 213 194
f 203 211 197
f 204 198 215
f 195 193 194
f 195 194 196
f 206 195 196
f 206 205 195
f 214 213 215
f 214 215 216
f 214 194 213
f 214 196 194
f 208 214 216
f 208 206 214
f 212 197 211
f 212 199 197
f 200 216 215
f 200 215 198
f 200 197 199
f 200 198 197
f 210 193 195
f 210 209 193
f 210 212 211
f 210 211 209
f 207 205 206
f 207 206 208
f 207 212 210
f 207 210 205
f 207 200 199
f 207 208 200
f 202 194 193
f 202 193 201
f 203 209 211
f 203 201 209
f 204 197 198
f 204 203 197
f 204 215 213
f 204 213 202
f 204 202 201
f 204 201 203
o Band_Rivet_9
usemtl copper
v -0.615000 -0.515000 0.160000
v -0.607678 -0.515000 0.142322
v -0.590000 -0.515000 0.135000
v -0.572322 -0.515000 0.142322
v -0.565000 -0.515000 0.160000
v -0.572322 -0.515000 0.177678
v -0.590000 -0.515000 0.185000
v -0.607678 -0.515000 0.177678
v -0.615000 -0.534000 0.160000
v -0.607678 -0.534000 0.142322
v -0.590000 -0.534000 0.135000
v -0.572322 -0.534000 0.142322
v -0.565000 -0.534000 0.160000
v -0.572322 -0.534000 0.177678
v -0.590000 -0.534000 0.185000
v -0.607678 -0.534000 0.177678
f 226 217 218
f 226 225 217
f 222 217 224
f 222 218 217
f 222 221 220
f 222 219 218
f 222 224 223
f 222 220 219
f 229 220 221
f 229 228 220
f 229 221 222
f 229 222 230
f 231 230 222
f 231 222 223
f 227 219 220
f 227 220 228
f 227 218 219
f 227 226 218
f 232 228 229
f 232 225 226
f 232 230 231
f 232 229 230
f 232 227 228
f 232 226 227
f 232 224 217
f 232 217 225
f 232 223 224
f 232 231 223
o Band_Rivet_10
usemtl copper
v -0.615000 -0.515000 0.920000
v -0.607678 -0.515000 0.902322
v -0.590000 -0.515000 0.895000
v -0.572322 -0.515000 0.902322
v -0.565000 -0.515000 0.920000
v -0.572322 -0.515000 0.937678
v -0.590000 -0.515000 0.945000
v -0.607678 -0.515000 0.937678
v -0.615000 -0.534000 0.920000
v -0.607678 -0.534000 0.902322
v -0.590000 -0.534000 0.895000
v -0.572322 -0.534000 0.902322
v -0.565000 -0.534000 0.920000
v -0.572322 -0.534000 0.937678
v -0.590000 -0.534000 0.945000
v -0.607678 -0.534000 0.937678
f 242 233 234
f 242 241 233
f 238 233 240
f 238 234 233
f 238 237 236
f 238 235 234
f 238 240 239
f 238 236 235
f 245 236 237
f 245 244 236
f 245 237 238
f 245 238 246
f 247 246 238
f 247 238 239
f 243 235 236
f 243 236 244
f 243 234 235
f 243 242 234
f 248 244 245
f 248 241 242
f 248 246 247
f 248 245 246
f 248 243 244
f 248 242 243
f 248 240 233
f 248 233 241
f 248 239 240
f 248 247 239
o Vertical_Band_11
usemtl dark
v 0.540000 -0.498500 0.018000
v 0.540000 -0.498500 1.082000
v 0.540000 -0.479500 0.018000
v 0.540000 -0.479500 1.082000
v 0.640000 -0.498500 0.018000
v 0.640000 -0.498500 1.082000
v 0.640000 -0.479500 0.018000
v 0.640000 -0.479500 1.082000
v 0.548000 -0.506500 0.018000
v 0.548000 -0.506500 1.082000
v 0.632000 -0.506500 0.018000
v 0.632000 -0.506500 1.082000
v 0.548000 -0.471500 0.018000
v 0.548000 -0.471500 1.082000
v 0.632000 -0.471500 0.018000
v 0.632000 -0.471500 1.082000
v 0.548000 -0.498500 0.010000
v 0.548000 -0.479500 0.010000
v 0.632000 -0.498500 0.010000
v 0.632000 -0.479500 0.010000
v 0.548000 -0.498500 1.090000
v 0.548000 -0.479500 1.090000
v 0.632000 -0.498500 1.090000
v 0.632000 -0.479500 1.090000
f 256 264 272
f 257 249 265
f 270 262 252
f 255 268 263
f 266 251 261
f 258 269 250
f 259 267 253
f 260 254 271
f 251 249 250
f 251 250 252
f 262 264 263
f 262 263 261
f 262 251 252
f 262 261 251
f 270 252 250
f 270 250 269
f 270 264 262
f 270 272 264
f 255 267 268
f 255 253 267
f 255 254 253
f 255 256 254
f 255 263 264
f 255 264 256
f 266 261 263
f 266 263 268
f 266 268 267
f 266 267 265
f 266 249 251
f 266 265 249
f 271 270 269
f 271 272 270
f 271 254 256
f 271 256 272
f 258 250 249
f 258 249 257
f 259 265 267
f 259 257 265
f 260 271 269
f 260 269 258
f 260 253 254
f 260 259 253
f 260 258 257
f 260 257 259
o Vertical_Band_12
usemtl dark
v 0.540000 0.479500 0.018000
v 0.540000 0.479500 1.082000
v 0.540000 0.498500 0.018000
v 0.540000 0.498500 1.082000
v 0.640000 0.479500 0.018000
v 0.640000 0.479500 1.082000
v 0.640000 0.498500 0.018000
v 0.640000 0.498500 1.082000
v 0.548000 0.471500 0.018000
v 0.548000 0.471500 1.082000
v 0.632000 0.471500 0.018000
v 0.632000 0.471500 1.082000
v 0.548000 0.506500 0.018000
v 0.548000 0.506500 1.082000
v 0.632000 0.506500 0.018000
v 0.632000 0.506500 1.082000
v 0.548000 0.479500 0.010000
v 0.548000 0.498500 0.010000
v 0.632000 0.479500 0.010000
v 0.632000 0.498500 0.010000
v 0.548000 0.479500 1.090000
v 0.548000 0.498500 1.090000
v 0.632000 0.479500 1.090000
v 0.632000 0.498500 1.090000
f 280 288 296
f 281 273 289
f 294 286 276
f 279 292 287
f 290 275 285
f 282 293 274
f 283 291 277
f 284 278 295
f 275 273 274
f 275 274 276
f 286 288 287
f 286 287 285
f 286 275 276
f 286 285 275
f 294 276 274
f 294 274 293
f 294 288 286
f 294 296 288
f 279 291 292
f 279 277 291
f 279 278 277
f 279 280 278
f 279 287 288
f 279 288 280
f 290 285 287
f 290 287 292
f 290 292 291
f 290 291 289
f 290 273 275
f 290 289 273
f 295 294 293
f 295 296 294
f 295 278 280
f 295 280 296
f 282 274 273
f 282 273 281
f 283 289 291
f 283 281 289
f 284 295 293
f 284 293 282
f 284 277 278
f 284 283 277
f 284 282 281
f 284 281 283
o Lid_Band_13
usemtl dark
v 0.540000 -0.494000 1.191000
v 0.540000 -0.494000 1.209000
v 0.540000 0.494000 1.191000
v 0.540000 0.494000 1.209000
v 0.640000 -0.494000 1.191000
v 0.640000 -0.494000 1.209000
v 0.640000 0.494000 1.191000
v 0.640000 0.494000 1.209000
v 0.546000 -0.500000 1.191000
v 0.546000 -0.500000 1.209000
v 0.634000 -0.500000 1.191000
v 0.634000 -0.500000 1.209000
v 0.546000 0.500000 1.191000
v 0.546000 0.500000 1.209000
v 0.634000 0.500000 1.191000
v 0.634000 0.500000 1.209000
v 0.546000 -0.494000 1.185000
v 0.546000 0.494000 1.185000
v 0.634000 -0.494000 1.185000
v 0.634000 0.494000 1.185000
v 0.546000 -0.494000 1.215000
v 0.546000 0.494000 1.215000
v 0.634000 -0.494000 1.215000
v 0.634000 0.494000 1.215000
f 318 310 300
f 305 297 313
f 304 312 320
f 314 299 309
f 311 303 316
f 306 317 298
f 307 315 301
f 308 302 319
f 299 297 298
f 299 298 300
f 310 299 300
f 310 309 299
f 318 317 319
f 318 319 320
f 318 298 317
f 318 300 298
f 312 318 320
f 312 310 318
f 316 301 315
f 316 303 301
f 304 320 319
f 304 319 302
f 304 301 303
f 304 302 301
f 314 297 299
f 314 313 297
f 314 316 315
f 314 315 313
f 311 309 310
f 311 310 312
f 311 316 314
f 311 314 309
f 311 304 303
f 311 312 304
f 306 298 297
f 306 297 305
f 307 313 315
f 307 305 313
f 308 301 302
f 308 307 301
f 308 319 317
f 308 317 306
f 308 306 305
f 308 305 307
o Band_Rivet_14
usemtl copper
v 0.565000 -0.515000 0.160000
v 0.572322 -0.515000 0.142322
v 0.590000 -0.515000 0.135000
v 0.607678 -0.515000 0.142322
v 0.615000 -0.515000 0.160000
v 0.607678 -0.515000 0.177678
v 0.590000 -0.515000 0.185000
v 0.572322 -0.515000 0.177678
v 0.565000 -0.534000 0.160000
v 0.572322 -0.534000 0.142322
v 0.590000 -0.534000 0.135000
v 0.607678 -0.534000 0.142322
v 0.615000 -0.534000 0.160000
v 0.607678 -0.534000 0.177678
v 0.590000 -0.534000 0.185000
v 0.572322 -0.534000 0.177678
f 330 321 322
f 330 329 321
f 326 321 328
f 326 322 321
f 326 325 324
f 326 323 322
f 326 328 327
f 326 324 323
f 333 324 325
f 333 332 324
f 333 325 326
f 333 326 334
f 335 334 326
f 335 326 327
f 331 323 324
f 331 324 332
f 331 322 323
f 331 330 322
f 336 332 333
f 336 329 330
f 336 334 335
f 336 333 334
f 336 331 332
f 336 330 331
f 336 328 321
f 336 321 329
f 336 327 328
f 336 335 327
o Band_Rivet_15
usemtl copper
v 0.565000 -0.515000 0.920000
v 0.572322 -0.515000 0.902322
v 0.590000 -0.515000 0.895000
v 0.607678 -0.515000 0.902322
v 0.615000 -0.515000 0.920000
v 0.607678 -0.515000 0.937678
v 0.590000 -0.515000 0.945000
v 0.572322 -0.515000 0.937678
v 0.565000 -0.534000 0.920000
v 0.572322 -0.534000 0.902322
v 0.590000 -0.534000 0.895000
v 0.607678 -0.534000 0.902322
v 0.615000 -0.534000 0.920000
v 0.607678 -0.534000 0.937678
v 0.590000 -0.534000 0.945000
v 0.572322 -0.534000 0.937678
f 347 339 340
f 347 340 348
f 342 337 344
f 342 338 337
f 342 341 340
f 342 339 338
f 342 344 343
f 342 340 339
f 349 340 341
f 349 348 340
f 349 341 342
f 349 342 350
f 351 350 342
f 351 342 343
f 346 337 338
f 346 345 337
f 346 338 339
f 346 339 347
f 352 348 349
f 352 347 348
f 352 350 351
f 352 349 350
f 352 345 346
f 352 346 347
f 352 344 337
f 352 337 345
f 352 343 344
f 352 351 343
o Lock_16
usemtl copper
v -0.100000 -0.535000 0.730000
v -0.100000 -0.535000 0.970000
v -0.100000 -0.485000 0.730000
v -0.100000 -0.485000 0.970000
v 0.100000 -0.535000 0.730000
v 0.100000 -0.535000 0.970000
v 0.100000 -0.485000 0.730000
v 0.100000 -0.485000 0.970000
v -0.080000 -0.555000 0.730000
v -0.080000 -0.555000 0.970000
v 0.080000 -0.555000 0.730000
v 0.080000 -0.555000 0.970000
v -0.080000 -0.465000 0.730000
v -0.080000 -0.465000 0.970000
v 0.080000 -0.465000 0.730000
v 0.080000 -0.465000 0.970000
v -0.080000 -0.535000 0.710000
v -0.080000 -0.485000 0.710000
v 0.080000 -0.535000 0.710000
v 0.080000 -0.485000 0.710000
v -0.080000 -0.535000 0.990000
v -0.080000 -0.485000 0.990000
v 0.080000 -0.535000 0.990000
v 0.080000 -0.485000 0.990000
f 360 368 376
f 361 353 369
f 374 366 356
f 359 372 367
f 370 355 365
f 362 373 354
f 363 371 357
f 364 358 375
f 355 353 354
f 355 354 356
f 366 368 367
f 366 367 365
f 366 355 356
f 366 365 355
f 374 356 354
f 374 354 373
f 374 368 366
f 374 376 368
f 359 371 372
f 359 357 371
f 359 358 357
f 359 360 358
f 359 367 368
f 359 368 360
f 370 365 367
f 370 367 372
f 370 372 371
f 370 371 369
f 370 353 355
f 370 369 353
f 375 374 373
f 375 376 374
f 375 358 360
f 375 360 376
f 362 354 353
f 362 353 361
f 363 369 371
f 363 361 369
f 364 375 373
f 364 373 362
f 364 357 358
f 364 363 357
f 364 362 361
f 364 361 363
o Keyhole_17
usemtl dark
v -0.022500 -0.563000 0.826500
v -0.022500 -0.563000 0.893500
v -0.022500 -0.561000 0.826500
v -0.022500 -0.561000 0.893500
v 0.022500 -0.563000 0.826500
v 0.022500 -0.563000 0.893500
v 0.022500 -0.561000 0.826500
v 0.022500 -0.561000 0.893500
v -0.018500 -0.567000 0.826500
v -0.018500 -0.567000 0.893500
v 0.018500 -0.567000 0.826500
v 0.018500 -0.567000 0.893500
v -0.018500 -0.557000 0.826500
v -0.018500 -0.557000 0.893500
v 0.018500 -0.557000 0.826500
v 0.018500 -0.557000 0.893500
v -0.018500 -0.563000 0.822500
v -0.018500 -0.561000 0.822500
v 0.018500 -0.563000 0.822500
v 0.018500 -0.561000 0.822500
v -0.018500 -0.563000 0.897500
v -0.018500 -0.561000 0.897500
v 0.018500 -0.563000 0.897500
v 0.018500 -0.561000 0.897500
f 384 392 400
f 385 377 393
f 398 390 380
f 383 396 391
f 394 379 389
f 386 397 378
f 388 382 399
f 387 395 381
f 379 377 378
f 379 378 380
f 390 392 391
f 390 391 389
f 390 379 380
f 390 389 379
f 398 380 378
f 398 378 397
f 398 392 390
f 398 400 392
f 383 384 382
f 383 382 381
f 383 391 392
f 383 392 384
f 394 389 391
f 394 391 396
f 394 377 379
f 394 393 377
f 399 398 397
f 399 400 398
f 399 382 384
f 399 384 400
f 386 378 377
f 386 377 385
f 395 394 396
f 395 393 394
f 395 383 381
f 395 396 383
f 388 399 397
f 388 397 386
f 387 393 395
f 387 385 393
f 387 381 382
f 387 382 388
f 387 386 385
f 387 388 386