{"asset":{"version":"2.0","generator":"RIFTBOUND procedural asset builder"},"scene":0,"scenes":[{"nodes":[0,1,2,3,4,5,6,7,8]}],"nodes":[{"name":"Bedrock_0","mesh":0,"translation":[0.0026136363636363583,0.44586632767101814,-1.0092936587501423e-17]},{"name":"OreCrystal_1","mesh":1,"translation":[0.6225576923076924,0.9118694991563638,-1.2810265668751807e-17]},{"name":"OreCrystal_2","mesh":2,"translation":[-0.45907012986955276,0.9608694991563639,-0.3109208978783145]},{"name":"OreCrystal_3","mesh":3,"translation":[0.05447316520933072,1.009869499156364,0.4585422322518209]},{"name":"OreCrystal_4","mesh":4,"translation":[0.37873379048755196,1.058869499156364,-0.3653314228671793]},{"name":"OreCrystal_5","mesh":5,"translation":[-0.6130249991466015,1.107869499156364,0.0802439583721777]},{"name":"Scatter_6","mesh":6,"translation":[0.9205454545454544,0.17214859980427638,2.523234146875356e-18]},{"name":"Scatter_7","mesh":7,"translation":[-0.3823096350779165,0.17160041205870322,-0.7729028128018295]},{"name":"Scatter_8","mesh":8,"translation":[-0.6008066766490686,0.17027346453178238,0.6432821210117389]}],"meshes":[{"name":"Bedrock_0","primitives":[{"attributes":{"POSITION":0,"NORMAL":1},"material":0}]},{"name":"OreCrystal_1","primitives":[{"attributes":{"POSITION":2,"NORMAL":3},"material":7}]},{"name":"OreCrystal_2","primitives":[{"attributes":{"POSITION":4,"NORMAL":5},"material":7}]},{"name":"OreCrystal_3","primitives":[{"attributes":{"POSITION":6,"NORMAL":7},"material":7}]},{"name":"OreCrystal_4","primitives":[{"attributes":{"POSITION":8,"NORMAL":9},"material":7}]},{"name":"OreCrystal_5","primitives":[{"attributes":{"POSITION":10,"NORMAL":11},"material":7}]},{"name":"Scatter_6","primitives":[{"attributes":{"POSITION":12,"NORMAL":13},"material":2}]},{"name":"Scatter_7","primitives":[{"attributes":{"POSITION":14,"NORMAL":15},"material":2}]},{"name":"Scatter_8","primitives":[{"attributes":{"POSITION":16,"NORMAL":17},"material":2}]}],"materials":[{"name":"stone","pbrMetallicRoughness":{"baseColorFactor":[0.05284162552287903,0.08464151072542946,0.11657577617857154,1],"metallicFactor":0,"roughnessFactor":0.8}},{"name":"edge","pbrMetallicRoughness":{"baseColorFactor":[0.18014428915439032,0.27583283346124515,0.31118049905798434,1],"metallicFactor":0,"roughnessFactor":0.8}},{"name":"dark","pbrMetallicRoughness":{"baseColorFactor":[0.009021491898012131,0.016988052089250045,0.03155139140022645,1],"metallicFactor":0,"roughnessFactor":0.8}},{"name":"wood","pbrMetallicRoughness":{"baseColorFactor":[0.1390224537347025,0.04943345755590796,0.02201299491933654,1],"metallicFactor":0,"roughnessFactor":0.8}},{"name":"woodlight","pbrMetallicRoughness":{"baseColorFactor":[0.36859092219748707,0.14497212559723088,0.042987010162657116,1],"metallicFactor":0,"roughnessFactor":0.8}},{"name":"copper","pbrMetallicRoughness":{"baseColorFactor":[0.6730490732809419,0.20835965596076741,0.05637409755197975,1],"metallicFactor":0.35,"roughnessFactor":0.8}},{"name":"gold","pbrMetallicRoughness":{"baseColorFactor":[0.9489649381781952,0.5174013674966733,0.12752977781342206,1],"metallicFactor":0.35,"roughnessFactor":0.8}},{"name":"rift","pbrMetallicRoughness":{"baseColorFactor":[0.051122050056493396,0.7969165429079781,0.5859729839496614,1],"metallicFactor":0,"roughnessFactor":0.8},"emissiveFactor":[0.017892717519772686,0.2789207900177923,0.20509054438238147]},{"name":"ice","pbrMetallicRoughness":{"baseColorFactor":[0.4704402453042184,1.0,0.8355277914608409,1],"metallicFactor":0,"roughnessFactor":0.8},"emissiveFactor":[0.16465408585647642,0.35,0.2924347270112943]},{"name":"moss","pbrMetallicRoughness":{"baseColorFactor":[0.05459227728176034,0.14799802298268516,0.06381487094867724,1],"metallicFactor":0,"roughnessFactor":0.8}},{"name":"bark","pbrMetallicRoughness":{"baseColorFactor":[0.06575388026033009,0.03423020656508195,0.020951131914781092,1],"metallicFactor":0,"roughnessFactor":0.8}},{"name":"cloth","pbrMetallicRoughness":{"baseColorFactor":[0.03994717100152558,0.10114516420959989,0.10363409665513738,1],"metallicFactor":0,"roughnessFactor":0.8}},{"name":"leather","pbrMetallicRoughness":{"baseColorFactor":[0.05818717747368544,0.020951131914781092,0.015175238159625197,1],"metallicFactor":0,"roughnessFactor":0.8}},{"name":"fire","pbrMetallicRoughness":{"baseColorFactor":[1.0,0.3157627437363971,0.04943345755590796,1],"metallicFactor":0,"roughnessFactor":0.8},"emissiveFactor":[0.35,0.11051696030773898,0.017301710144567783]}],"bufferViews":[{"buffer":0,"byteOffset":0,"byteLength":1440},{"buffer":0,"byteOffset":1440,"byteLength":1440},{"buffer":0,"byteOffset":2880,"byteLength":792},{"buffer":0,"byteOffset":3672,"byteLength":792},{"buffer":0,"byteOffset":4464,"byteLength":792},{"buffer":0,"byteOffset":5256,"byteLength":792},{"buffer":0,"byteOffset":6048,"byteLength":792},{"buffer":0,"byteOffset":6840,"byteLength":792},{"buffer":0,"byteOffset":7632,"byteLength":792},{"buffer":0,"byteOffset":8424,"byteLength":792},{"buffer":0,"byteOffset":9216,"byteLength":792},{"buffer":0,"byteOffset":10008,"byteLength":792},{"buffer":0,"byteOffset":10800,"byteLength":1440},{"buffer":0,"byteOffset":12240,"byteLength":1440},{"buffer":0,"byteOffset":13680,"byteLength":1440},{"buffer":0,"byteOffset":15120,"byteLength":1440},{"buffer":0,"byteOffset":16560,"byteLength":1440},{"buffer":0,"byteOffset":18000,"byteLength":1440}],"accessors":[{"bufferView":0,"componentType":5126,"count":120,"type":"VEC3","min":[-1.038727879524231,-0.44586631655693054,-0.8286887407302856],"max":[1.1473863124847412,0.5547723770141602,0.8286887407302856]},{"bufferView":1,"componentType":5126,"count":120,"type":"VEC3","min":[-0.842239499092102,-0.9985659122467041,-0.9004303812980652],"max":[0.7614565491676331,0.9817799925804138,0.8646329045295715]},{"bufferView":2,"componentType":5126,"count":66,"type":"VEC3","min":[-0.20255769789218903,-0.241230770945549,-0.17320507764816284],"max":[0.252567321062088,0.39876922965049744,0.17320507764816284]},{"bufferView":3,"componentType":5126,"count":66,"type":"VEC3","min":[-0.8603785037994385,-1.0,-0.9895482063293457],"max":[0.8023548722267151,0.7187325358390808,0.9895482063293457]},{"bufferView":4,"componentType":5126,"count":66,"type":"VEC3","min":[-0.23876279592514038,-0.29023078083992004,-0.2027176320552826],"max":[0.18350358307361603,0.479769229888916,0.15331892669200897]},{"bufferView":5,"componentType":5126,"count":66,"type":"VEC3","min":[-0.8474372625350952,-1.0,-0.9674732685089111],"max":[0.8655919432640076,0.6574451327323914,0.9998151063919067]},{"bufferView":6,"componentType":5126,"count":66,"type":"VEC3","min":[-0.1954004168510437,-0.3392307758331299,-0.17265969514846802],"max":[0.20459958910942078,0.560769259929657,0.2167298048734665]},{"bufferView":7,"componentType":5126,"count":66,"type":"VEC3","min":[-0.8660248517990112,-1.0,-0.9973120093345642],"max":[0.8656018376350403,0.5880027413368225,0.9627830982208252]},{"bufferView":8,"componentType":5126,"count":66,"type":"VEC3","min":[-0.1741405725479126,-0.3882307708263397,-0.20788225531578064],"max":[0.2319793850183487,0.6417692303657532,0.16044758260250092]},{"bufferView":9,"componentType":5126,"count":66,"type":"VEC3","min":[-0.8647781610488892,-1.0,-0.9778923988342285],"max":[0.8590851426124573,0.5393919348716736,0.9994644522666931]},{"bufferView":10,"componentType":5126,"count":66,"type":"VEC3","min":[-0.25176239013671875,-0.43723076581954956,-0.16558833420276642],"max":[0.20144668221473694,0.7227692604064941,0.18082182109355927]},{"bufferView":11,"componentType":5126,"count":66,"type":"VEC3","min":[-0.8475571274757385,-1.0,-0.9984158277511597],"max":[0.8649837374687195,0.5018157362937927,0.9945898056030273]},{"bufferView":12,"componentType":5126,"count":120,"type":"VEC3","min":[-0.2167779803276062,-0.14271654188632965,-0.19498558342456818],"max":[0.23945455253124237,0.16849012672901154,0.19498558342456818]},{"bufferView":13,"componentType":5126,"count":120,"type":"VEC3","min":[-0.9106680154800415,-0.9936976432800293,-0.9049987196922302],"max":[0.7796657681465149,0.9543079733848572,0.8899473547935486]},{"bufferView":14,"componentType":5126,"count":120,"type":"VEC3","min":[-0.2167779803276062,-0.1360420137643814,-0.19498558342456818],"max":[0.23945455253124237,0.1690383106470108,0.19498558342456818]},{"bufferView":15,"componentType":5126,"count":120,"type":"VEC3","min":[-0.8804497718811035,-0.9982250928878784,-0.9223465919494629],"max":[0.8102370500564575,0.9292027354240417,0.9211865067481995]},{"bufferView":16,"componentType":5126,"count":120,"type":"VEC3","min":[-0.2167779803276062,-0.1372227668762207,-0.19498558342456818],"max":[0.23945455253124237,0.17036525905132294,0.19498558342456818]},{"bufferView":17,"componentType":5126,"count":120,"type":"VEC3","min":[-0.9134986400604248,-0.9992764592170715,-0.9212327599525452],"max":[0.8293490409851074,0.9646047353744507,0.9022474884986877]}],"buffers":[{"byteLength":19440,"uri":"Rift_Deposit.bin"}]}