# RIFTBOUND | Z up | flat shaded
mtllib Rift_Deposit.mtl
o Bedrock_0
usemtl stone
v 0.690000 0.000000 0.000000
v 0.430208 0.398734 0.023581
v -0.153539 0.497213 0.111638
v -0.621669 0.221281 0.077456
v -0.621669 -0.221281 0.001323
v -0.153539 -0.497213 0.054207
v 0.430208 -0.398734 0.061371
v 1.150000 0.000000 0.349558
v 0.717013 0.664557 0.439233
v -0.255899 0.828689 0.342372
v -1.036114 0.368801 0.385670
v -1.036114 -0.368801 0.405250
v -0.255899 -0.828689 0.391817
v 0.717013 -0.664557 0.416179
v 0.828000 0.000000 0.855741
v 0.516250 0.478481 0.889816
v -0.184247 0.596656 0.784974
v -0.746002 0.265537 0.841812
v -0.746002 -0.265537 0.849248
v -0.184247 -0.596656 0.786303
v 0.516250 -0.478481 0.740871
v 0.057500 0.000000 1.000639
f 16 18 22
f 13 12 5
f 13 14 20
f 11 12 18
f 11 18 10
f 11 5 12
f 15 16 22
f 15 14 8
f 17 10 18
f 17 16 10
f 17 18 16
f 19 22 18
f 19 20 22
f 19 18 12
f 19 12 13
f 19 13 20
f 4 2 5
f 4 11 10
f 4 5 11
f 9 10 16
f 9 2 10
f 9 8 2
f 9 15 8
f 9 16 15
f 7 14 13
f 21 22 20
f 21 15 22
f 21 20 14
f 21 14 15
f 3 10 2
f 3 4 10
f 3 2 4
f 1 5 2
f 1 2 8
f 1 8 14
f 1 14 7
f 6 13 5
f 6 7 13
f 6 5 1
f 6 1 7
o OreCrystal_1
usemtl rift
v 0.680000 0.000000 0.670639
v 0.615000 0.112583 0.670639
v 0.485000 0.112583 0.670639
v 0.420000 0.000000 0.670639
v 0.485000 -0.112583 0.670639
v 0.615000 -0.112583 0.670639
v 0.875125 0.000000 1.086639
v 0.775125 0.173205 1.086639
v 0.575125 0.173205 1.086639
v 0.475125 0.000000 1.086639
v 0.575125 -0.173205 1.086639
v 0.775125 -0.173205 1.086639
v 0.742500 0.000000 1.310639
f 35 33 34
f 35 34 29
f 35 31 32
f 35 32 33
f 35 30 31
f 35 29 30
f 32 31 25
f 32 25 26
f 27 32 26
f 27 33 32
f 28 29 34
f 28 23 29
f 28 34 33
f 28 33 27
f 24 26 25
f 24 23 28
f 24 27 26
f 24 28 27
f 24 30 29
f 24 29 23
f 24 25 31
f 24 31 30
o OreCrystal_2
usemtl rift
v -0.275567 0.270185 0.670639
v -0.340567 0.382769 0.670639
v -0.470567 0.382769 0.670639
v -0.535567 0.270185 0.670639
v -0.470567 0.157602 0.670639
v -0.340567 0.157602 0.670639
v -0.297833 0.340433 1.171139
v -0.397833 0.513639 1.171139
v -0.597833 0.513639 1.171139
v -0.697833 0.340433 1.171139
v -0.597833 0.167228 1.171139
v -0.397833 0.167228 1.171139
v -0.547515 0.378259 1.440639
f 46 48 45
f 46 47 48
f 42 43 48
f 42 48 47
f 44 45 48
f 44 48 43
f 37 43 42
f 37 42 36
f 37 44 43
f 37 38 44
f 41 36 42
f 41 42 47
f 39 44 38
f 39 45 44
f 40 37 36
f 40 38 37
f 40 36 41
f 40 39 38
f 40 41 47
f 40 47 46
f 40 45 39
f 40 46 45
o OreCrystal_3
usemtl rift
v 0.178124 -0.398466 0.670639
v 0.113124 -0.285883 0.670639
v -0.016876 -0.285883 0.670639
v -0.081876 -0.398466 0.670639
v -0.016876 -0.511049 0.670639
v 0.113124 -0.511049 0.670639
v 0.259073 -0.502067 1.255639
v 0.159073 -0.328862 1.255639
v -0.040927 -0.328862 1.255639
v -0.140927 -0.502067 1.255639
v -0.040927 -0.675272 1.255639
v 0.159073 -0.675272 1.255639
v 0.064968 -0.557852 1.570639
f 61 58 59
f 61 57 58
f 61 60 55
f 61 59 60
f 61 56 57
f 61 55 56
f 52 58 57
f 52 57 51
f 49 55 60
f 49 60 54
f 56 49 50
f 56 55 49
f 56 51 57
f 56 50 51
f 53 52 51
f 53 51 50
f 53 49 54
f 53 50 49
f 53 60 59
f 53 54 60
f 53 59 58
f 53 58 52
o OreCrystal_4
usemtl rift
v 0.464593 0.317467 0.670639
v 0.399593 0.430050 0.670639
v 0.269593 0.430050 0.670639
v 0.204593 0.317467 0.670639
v 0.269593 0.204884 0.670639
v 0.399593 0.204884 0.670639
v 0.610713 0.400009 1.340139
v 0.510713 0.573214 1.340139
v 0.310713 0.573214 1.340139
v 0.210713 0.400009 1.340139
v 0.310713 0.226804 1.340139
v 0.510713 0.226804 1.340139
v 0.451701 0.444454 1.700639
f 73 68 74
f 71 74 70
f 69 74 68
f 69 70 74
f 72 73 74
f 72 74 71
f 64 71 70
f 64 65 71
f 69 64 70
f 69 63 64
f 72 71 65
f 72 65 66
f 67 72 66
f 67 73 72
f 62 65 64
f 62 64 63
f 62 66 65
f 62 67 66
f 62 63 69
f 62 69 68
f 62 73 67
f 62 68 73
o OreCrystal_5
usemtl rift
v -0.411578 -0.069731 0.670639
v -0.476578 0.042853 0.670639
v -0.606578 0.042853 0.670639
v -0.671578 -0.069731 0.670639
v -0.606578 -0.182314 0.670639
v -0.476578 -0.182314 0.670639
v -0.464787 -0.087861 1.424639
v -0.564787 0.085344 1.424639
v -0.764787 0.085344 1.424639
v -0.864787 -0.087861 1.424639
v -0.764787 -0.261066 1.424639
v -0.564787 -0.261066 1.424639
v -0.731131 -0.097623 1.830639
f 87 83 84
f 82 83 87
f 85 87 84
f 85 86 87
f 81 87 86
f 81 82 87
f 80 85 79
f 80 86 85
f 81 86 80
f 81 80 75
f 76 81 75
f 76 82 81
f 76 83 82
f 76 77 83
f 78 80 79
f 78 75 80
f 78 76 75
f 78 77 76
f 78 79 85
f 78 85 84
f 78 83 77
f 78 84 83
o Scatter_6
usemtl dark
v 1.064000 0.000000 0.059213
v 1.009783 0.093820 0.041588
v 0.887957 0.116991 0.030605
v 0.790260 0.052066 0.029432
v 0.790260 -0.052066 0.067676
v 0.887957 -0.116991 0.072451
v 1.009783 -0.093820 0.057757
v 1.160000 0.000000 0.167655
v 1.069638 0.156366 0.158733
v 0.866595 0.194986 0.177522
v 0.703767 0.086777 0.171800
v 0.703767 -0.086777 0.132770
v 0.866595 -0.194986 0.173794
v 1.069638 -0.156366 0.134251
v 1.092800 0.000000 0.295662
v 1.027739 0.112584 0.269070
v 0.881548 0.140390 0.302071
v 0.764313 0.062479 0.286629
v 0.764313 -0.062479 0.275025
v 0.881548 -0.140390 0.280928
v 1.027739 -0.112584 0.261998
v 0.932000 0.000000 0.340639
f 99 98 91
f 99 106 98
f 99 100 106
f 105 98 106
f 105 106 109
f 90 94 91
f 90 91 98
f 90 98 97
f 107 109 106
f 107 108 109
f 107 106 100
f 107 100 108
f 101 108 100
f 93 100 99
f 93 101 100
f 93 94 101
f 93 91 94
f 102 109 108
f 102 101 95
f 102 108 101
f 104 105 109
f 104 109 102
f 104 102 103
f 104 97 98
f 104 98 105
f 96 90 97
f 96 102 95
f 96 103 102
f 96 97 104
f 96 104 103
f 89 94 90
f 89 96 95
f 89 90 96
f 92 99 91
f 92 91 93
f 92 93 99
f 88 89 95
f 88 94 89
f 88 95 101
f 88 101 94
o Scatter_7
usemtl dark
v -0.238855 0.772903 0.053206
v -0.293073 0.866723 0.074261
v -0.414898 0.889894 0.035558
v -0.512595 0.824969 0.074174
v -0.512595 0.720837 0.043607
v -0.414898 0.655911 0.048958
v -0.293073 0.679083 0.068368
v -0.142855 0.772903 0.152280
v -0.233218 0.929269 0.159019
v -0.436260 0.967888 0.133962
v -0.599088 0.859680 0.168807
v -0.599088 0.686126 0.158470
v -0.436260 0.577917 0.148466
v -0.233218 0.616537 0.170483
v -0.210055 0.772903 0.275192
v -0.275116 0.885487 0.282407
v -0.421307 0.913292 0.267073
v -0.538543 0.835382 0.279988
v -0.538543 0.710424 0.270405
v -0.421307 0.632513 0.273230
v -0.275116 0.660319 0.296656
v -0.370855 0.772903 0.340639
f 127 128 131
f 127 120 121
f 127 121 128
f 129 131 128
f 129 130 131
f 129 122 130
f 129 121 122
f 129 128 121
f 110 118 117
f 123 130 122
f 123 117 130
f 123 110 117
f 123 116 110
f 114 121 120
f 114 122 121
f 125 117 118
f 119 112 120
f 119 118 112
f 111 112 118
f 111 110 112
f 111 118 110
f 113 120 112
f 113 114 120
f 113 112 114
f 115 112 110
f 115 114 112
f 115 110 116
f 115 122 114
f 115 123 122
f 115 116 123
f 124 130 117
f 124 117 125
f 124 131 130
f 124 125 131
f 126 127 131
f 126 131 125
f 126 120 127
f 126 119 120
f 126 125 118
f 126 118 119
o Scatter_8
usemtl dark
v -0.457352 -0.643282 0.041196
v -0.511570 -0.549462 0.042966
v -0.633395 -0.526291 0.067722
v -0.731092 -0.591216 0.033051
v -0.731092 -0.695348 0.057444
v -0.633395 -0.760273 0.063610
v -0.511570 -0.737102 0.037658
v -0.361352 -0.643282 0.135286
v -0.451715 -0.486916 0.145837
v -0.654757 -0.448297 0.164196
v -0.817585 -0.556505 0.159627
v -0.817585 -0.730059 0.139842
v -0.654757 -0.838268 0.153405
v -0.451715 -0.799648 0.164765
v -0.428552 -0.643282 0.280932
v -0.493613 -0.530698 0.291032
v -0.639804 -0.502893 0.307076
v -0.757040 -0.580803 0.293426
v -0.757040 -0.705761 0.279437
v -0.639804 -0.783672 0.269627
v -0.493613 -0.755866 0.277245
v -0.589352 -0.643282 0.340639
f 135 142 141
f 149 142 150
f 149 150 153
f 143 142 135
f 143 150 142
f 143 144 150
f 134 135 141
f 151 153 150
f 151 152 153
f 151 150 144
f 140 147 139
f 146 139 147
f 146 153 152
f 146 147 153
f 148 141 142
f 148 142 149
f 148 140 141
f 148 147 140
f 148 149 153
f 148 153 147
f 145 144 138
f 145 151 144
f 145 152 151
f 145 138 139
f 145 139 146
f 145 146 152
f 137 144 143
f 137 138 144
f 133 135 134
f 133 140 139
f 133 134 141
f 133 141 140
f 136 135 138
f 136 138 137
f 136 143 135
f 136 137 143
f 132 138 135
f 132 135 133
f 132 139 138
f 132 133 139