{"asset":{"version":"2.0","generator":"RIFTBOUND procedural asset builder"},"scene":0,"scenes":[{"nodes":[0,1,2,3,4,5,6,7,8,9,10,11,12,13,14,15,16,17,18,19,20,21,22,23,24,25,26,27,28,29,30,31,32,33,34,35,36,37,38,39,40,41,42,43,44,45,46,47,48,49,50,51,52,53,54,55,56,57,58]}],"nodes":[{"name":"Oak_Leg_0","mesh":0,"translation":[-1.1999999999999995,0.88,0.5199999999999999]},{"name":"Foot_Band_1","mesh":1,"translation":[-1.2000000000000004,0.14000000000000004,0.5199999999999999]},{"name":"Joinery_Peg_2","mesh":2,"translation":[-1.1999999999999997,0.5,0.6555]},{"name":"Joinery_Peg_3","mesh":3,"translation":[-1.1999999999999997,1.57,0.6555]},{"name":"Oak_Leg_4","mesh":4,"translation":[-1.1999999999999995,0.88,-0.5199999999999999]},{"name":"Foot_Band_5","mesh":5,"translation":[-1.2000000000000004,0.14000000000000004,-0.5199999999999999]},{"name":"Joinery_Peg_6","mesh":6,"translation":[-1.1999999999999997,0.5,-0.38450000000000006]},{"name":"Joinery_Peg_7","mesh":7,"translation":[-1.1999999999999997,1.57,-0.38450000000000006]},{"name":"Oak_Leg_8","mesh":8,"translation":[1.1999999999999995,0.88,0.5199999999999999]},{"name":"Foot_Band_9","mesh":9,"translation":[1.2000000000000004,0.14000000000000004,0.5199999999999999]},{"name":"Joinery_Peg_10","mesh":10,"translation":[1.1999999999999997,0.5,0.6555]},{"name":"Joinery_Peg_11","mesh":11,"translation":[1.1999999999999997,1.57,0.6555]},{"name":"Oak_Leg_12","mesh":12,"translation":[1.1999999999999995,0.88,-0.5199999999999999]},{"name":"Foot_Band_13","mesh":13,"translation":[1.2000000000000004,0.14000000000000004,-0.5199999999999999]},{"name":"Joinery_Peg_14","mesh":14,"translation":[1.1999999999999997,0.5,-0.38450000000000006]},{"name":"Joinery_Peg_15","mesh":15,"translation":[1.1999999999999997,1.57,-0.38450000000000006]},{"name":"Apron_Rail_16","mesh":16,"translation":[0.0,1.5100000000000005,0.5300000000000001]},{"name":"Apron_Rail_17","mesh":17,"translation":[0.0,1.5100000000000005,-0.53]},{"name":"Lower_Crossbar_18","mesh":18,"translation":[-1.1999999999999997,0.4200000000000001,-9.25185853854297e-18]},{"name":"Corner_Brace_19","mesh":19,"translation":[-1.2,1.145,-0.26]},{"name":"Lower_Crossbar_20","mesh":20,"translation":[1.1999999999999995,0.4200000000000001,-9.25185853854297e-18]},{"name":"Corner_Brace_21","mesh":21,"translation":[1.2,1.145,-0.26]},{"name":"Shelf_Plank_22","mesh":22,"translation":[0.0,0.48999999999999994,0.42]},{"name":"Shelf_Plank_23","mesh":23,"translation":[0.0,0.48999999999999994,0.13999999999999993]},{"name":"Shelf_Plank_24","mesh":24,"translation":[0.0,0.48999999999999994,-0.14000000000000004]},{"name":"Shelf_Plank_25","mesh":25,"translation":[0.0,0.48999999999999994,-0.4200000000000001]},{"name":"Top_Plank_26","mesh":26,"translation":[-1.850371707708594e-17,1.8300000000000003,0.6200000000000001]},{"name":"Top_Plank_27","mesh":27,"translation":[-1.850371707708594e-17,1.8300000000000003,0.3099999999999999]},{"name":"Top_Plank_28","mesh":28,"translation":[-1.850371707708594e-17,1.8300000000000003,2.3129646346357427e-18]},{"name":"Top_Plank_29","mesh":29,"translation":[-1.850371707708594e-17,1.8300000000000003,-0.3099999999999998]},{"name":"Top_Plank_30","mesh":30,"translation":[-1.850371707708594e-17,1.8300000000000003,-0.62]},{"name":"Top_Bolt_31","mesh":31,"translation":[-1.2300000000000002,1.9280000000000006,0.6100000000000001]},{"name":"Top_Bolt_32","mesh":32,"translation":[-1.2300000000000002,1.9280000000000006,-0.61]},{"name":"Top_Bolt_33","mesh":33,"translation":[1.23,1.9280000000000006,0.6100000000000001]},{"name":"Top_Bolt_34","mesh":34,"translation":[1.23,1.9280000000000006,-0.61]},{"name":"Anvil_Foot_35","mesh":35,"translation":[0.5300000000000001,2.005,-0.09999999999999999]},{"name":"Anvil_Waist_36","mesh":36,"translation":[0.5,2.18,-0.09999999999999999]},{"name":"Anvil_Face_37","mesh":37,"translation":[0.46,2.3799999999999994,-0.10000000000000002]},{"name":"Anvil_Horn_38","mesh":38,"translation":[1.085,2.3500000000000005,-0.10000000000000002]},{"name":"Hardy_Hole_39","mesh":39,"translation":[0.12999999999999992,2.463,-0.10000000000000002]},{"name":"Leather_Mat_40","mesh":40,"translation":[-0.6999999999999996,1.9340000000000002,0.020000000000000014]},{"name":"Mat_Rivet_41","mesh":41,"translation":[-1.0799999999999998,1.955,0.37]},{"name":"Mat_Rivet_42","mesh":42,"translation":[-1.0799999999999998,1.955,-0.33000000000000007]},{"name":"Mat_Rivet_43","mesh":43,"translation":[-0.32,1.955,0.37]},{"name":"Mat_Rivet_44","mesh":44,"translation":[-0.32,1.955,-0.33000000000000007]},{"name":"Hammer_Handle_45","mesh":45,"translation":[-0.755,2.002,0.025000000000000005]},{"name":"Hammer_Head_46","mesh":46,"translation":[-0.53,2.060000000000001,-0.22999999999999998]},{"name":"Tongs_Left0_47","mesh":47,"translation":[-0.8850000000000001,1.9800000000000002,-0.12000000000000001]},{"name":"Tongs_Left1_48","mesh":48,"translation":[-0.615,1.9800000000000002,0.18499999999999997]},{"name":"Tongs_Right0_49","mesh":49,"translation":[-0.77,1.9899999999999995,-0.15]},{"name":"Tongs_Right1_50","mesh":50,"translation":[-0.695,1.9899999999999995,0.22000000000000006]},{"name":"Tongs_Pin_51","mesh":51,"translation":[-0.75,1.9969999999999999,0.06999999999999999]},{"name":"Vise_Fixed_52","mesh":52,"translation":[0.9499999999999996,1.8000000000000005,0.8000000000000002]},{"name":"Vise_Moving_53","mesh":53,"translation":[0.9500000000000001,1.8,1.045]},{"name":"Vise_Screw_54","mesh":54,"translation":[0.95,1.7500000000000004,0.9550000000000001]},{"name":"Vise_Handle_55","mesh":55,"translation":[0.9499999999999998,1.7500000000000002,1.22]},{"name":"Copper_Ingot_56","mesh":56,"translation":[-0.5699999999999997,0.6399999999999998,2.3129646346357427e-18]},{"name":"Copper_Ingot_57","mesh":57,"translation":[-0.14999999999999997,0.6399999999999998,2.3129646346357427e-18]},{"name":"Copper_Ingot_58","mesh":58,"translation":[0.27,0.6399999999999998,2.3129646346357427e-18]}],"meshes":[{"name":"Oak_Leg_0","primitives":[{"attributes":{"POSITION":0,"NORMAL":1},"material":3}]},{"name":"Foot_Band_1","primitives":[{"attributes":{"POSITION":2,"NORMAL":3},"material":2}]},{"name":"Joinery_Peg_2","primitives":[{"attributes":{"POSITION":4,"NORMAL":5},"material":4}]},{"name":"Joinery_Peg_3","primitives":[{"attributes":{"POSITION":6,"NORMAL":7},"material":4}]},{"name":"Oak_Leg_4","primitives":[{"attributes":{"POSITION":8,"NORMAL":9},"material":3}]},{"name":"Foot_Band_5","primitives":[{"attributes":{"POSITION":10,"NORMAL":11},"material":2}]},{"name":"Joinery_Peg_6","primitives":[{"attributes":{"POSITION":12,"NORMAL":13},"material":4}]},{"name":"Joinery_Peg_7","primitives":[{"attributes":{"POSITION":14,"NORMAL":15},"material":4}]},{"name":"Oak_Leg_8","primitives":[{"attributes":{"POSITION":16,"NORMAL":17},"material":3}]},{"name":"Foot_Band_9","primitives":[{"attributes":{"POSITION":18,"NORMAL":19},"material":2}]},{"name":"Joinery_Peg_10","primitives":[{"attributes":{"POSITION":20,"NORMAL":21},"material":4}]},{"name":"Joinery_Peg_11","primitives":[{"attributes":{"POSITION":22,"NORMAL":23},"material":4}]},{"name":"Oak_Leg_12","primitives":[{"attributes":{"POSITION":24,"NORMAL":25},"material":3}]},{"name":"Foot_Band_13","primitives":[{"attributes":{"POSITION":26,"NORMAL":27},"material":2}]},{"name":"Joinery_Peg_14","primitives":[{"attributes":{"POSITION":28,"NORMAL":29},"material":4}]},{"name":"Joinery_Peg_15","primitives":[{"attributes":{"POSITION":30,"NORMAL":31},"material":4}]},{"name":"Apron_Rail_16","primitives":[{"attributes":{"POSITION":32,"NORMAL":33},"material":3}]},{"name":"Apron_Rail_17","primitives":[{"attributes":{"POSITION":34,"NORMAL":35},"material":3}]},{"name":"Lower_Crossbar_18","primitives":[{"attributes":{"POSITION":36,"NORMAL":37},"material":3}]},{"name":"Corner_Brace_19","primitives":[{"attributes":{"POSITION":38,"NORMAL":39},"material":3}]},{"name":"Lower_Crossbar_20","primitives":[{"attributes":{"POSITION":40,"NORMAL":41},"material":3}]},{"name":"Corner_Brace_21","primitives":[{"attributes":{"POSITION":42,"NORMAL":43},"material":3}]},{"name":"Shelf_Plank_22","primitives":[{"attributes":{"POSITION":44,"NORMAL":45},"material":4}]},{"name":"Shelf_Plank_23","primitives":[{"attributes":{"POSITION":46,"NORMAL":47},"material":4}]},{"name":"Shelf_Plank_24","primitives":[{"attributes":{"POSITION":48,"NORMAL":49},"material":4}]},{"name":"Shelf_Plank_25","primitives":[{"attributes":{"POSITION":50,"NORMAL":51},"material":4}]},{"name":"Top_Plank_26","primitives":[{"attributes":{"POSITION":52,"NORMAL":53},"material":4}]},{"name":"Top_Plank_27","primitives":[{"attributes":{"POSITION":54,"NORMAL":55},"material":3}]},{"name":"Top_Plank_28","primitives":[{"attributes":{"POSITION":56,"NORMAL":57},"material":4}]},{"name":"Top_Plank_29","primitives":[{"attributes":{"POSITION":58,"NORMAL":59},"material":3}]},{"name":"Top_Plank_30","primitives":[{"attributes":{"POSITION":60,"NORMAL":61},"material":4}]},{"name":"Top_Bolt_31","primitives":[{"attributes":{"POSITION":62,"NORMAL":63},"material":2}]},{"name":"Top_Bolt_32","primitives":[{"attributes":{"POSITION":64,"NORMAL":65},"material":2}]},{"name":"Top_Bolt_33","primitives":[{"attributes":{"POSITION":66,"NORMAL":67},"material":2}]},{"name":"Top_Bolt_34","primitives":[{"attributes":{"POSITION":68,"NORMAL":69},"material":2}]},{"name":"Anvil_Foot_35","primitives":[{"attributes":{"POSITION":70,"NORMAL":71},"material":2}]},{"name":"Anvil_Waist_36","primitives":[{"attributes":{"POSITION":72,"NORMAL":73},"material":0}]},{"name":"Anvil_Face_37","primitives":[{"attributes":{"POSITION":74,"NORMAL":75},"material":1}]},{"name":"Anvil_Horn_38","primitives":[{"attributes":{"POSITION":76,"NORMAL":77},"material":1}]},{"name":"Hardy_Hole_39","primitives":[{"attributes":{"POSITION":78,"NORMAL":79},"material":2}]},{"name":"Leather_Mat_40","primitives":[{"attributes":{"POSITION":80,"NORMAL":81},"material":11}]},{"name":"Mat_Rivet_41","primitives":[{"attributes":{"POSITION":82,"NORMAL":83},"material":5}]},{"name":"Mat_Rivet_42","primitives":[{"attributes":{"POSITION":84,"NORMAL":85},"material":5}]},{"name":"Mat_Rivet_43","primitives":[{"attributes":{"POSITION":86,"NORMAL":87},"material":5}]},{"name":"Mat_Rivet_44","primitives":[{"attributes":{"POSITION":88,"NORMAL":89},"material":5}]},{"name":"Hammer_Handle_45","primitives":[{"attributes":{"POSITION":90,"NORMAL":91},"material":4}]},{"name":"Hammer_Head_46","primitives":[{"attributes":{"POSITION":92,"NORMAL":93},"material":1}]},{"name":"Tongs_Left0_47","primitives":[{"attributes":{"POSITION":94,"NORMAL":95},"material":2}]},{"name":"Tongs_Left1_48","primitives":[{"attributes":{"POSITION":96,"NORMAL":97},"material":2}]},{"name":"Tongs_Right0_49","primitives":[{"attributes":{"POSITION":98,"NORMAL":99},"material":2}]},{"name":"Tongs_Right1_50","primitives":[{"attributes":{"POSITION":100,"NORMAL":101},"material":2}]},{"name":"Tongs_Pin_51","primitives":[{"attributes":{"POSITION":102,"NORMAL":103},"material":5}]},{"name":"Vise_Fixed_52","primitives":[{"attributes":{"POSITION":104,"NORMAL":105},"material":0}]},{"name":"Vise_Moving_53","primitives":[{"attributes":{"POSITION":106,"NORMAL":107},"material":2}]},{"name":"Vise_Screw_54","primitives":[{"attributes":{"POSITION":108,"NORMAL":109},"material":1}]},{"name":"Vise_Handle_55","primitives":[{"attributes":{"POSITION":110,"NORMAL":111},"material":5}]},{"name":"Copper_Ingot_56","primitives":[{"attributes":{"POSITION":112,"NORMAL":113},"material":5}]},{"name":"Copper_Ingot_57","primitives":[{"attributes":{"POSITION":114,"NORMAL":115},"material":5}]},{"name":"Copper_Ingot_58","primitives":[{"attributes":{"POSITION":116,"NORMAL":117},"material":5}]}],"materials":[{"name":"stone","pbrMetallicRoughness":{"baseColorFactor":[0.05284162552287903,0.08464151072542946,0.11657577617857154,1],"metallicFactor":0,"roughnessFactor":0.8}},{"name":"edge","pbrMetallicRoughness":{"baseColorFactor":[0.18014428915439032,0.27583283346124515,0.31118049905798434,1],"metallicFactor":0,"roughnessFactor":0.8}},{"name":"dark","pbrMetallicRoughness":{"baseColorFactor":[0.009021491898012131,0.016988052089250045,0.03155139140022645,1],"metallicFactor":0,"roughnessFactor":0.8}},{"name":"wood","pbrMetallicRoughness":{"baseColorFactor":[0.1390224537347025,0.04943345755590796,0.02201299491933654,1],"metallicFactor":0,"roughnessFactor":0.8}},{"name":"woodlight","pbrMetallicRoughness":{"baseColorFactor":[0.36859092219748707,0.14497212559723088,0.042987010162657116,1],"metallicFactor":0,"roughnessFactor":0.8}},{"name":"copper","pbrMetallicRoughness":{"baseColorFactor":[0.6730490732809419,0.20835965596076741,0.05637409755197975,1],"metallicFactor":0.35,"roughnessFactor":0.8}},{"name":"gold","pbrMetallicRoughness":{"baseColorFactor":[0.9489649381781952,0.5174013674966733,0.12752977781342206,1],"metallicFactor":0.35,"roughnessFactor":0.8}},{"name":"rift","pbrMetallicRoughness":{"baseColorFactor":[0.051122050056493396,0.7969165429079781,0.5859729839496614,1],"metallicFactor":0,"roughnessFactor":0.8},"emissiveFactor":[0.017892717519772686,0.2789207900177923,0.20509054438238147]},{"name":"ice","pbrMetallicRoughness":{"baseColorFactor":[0.4704402453042184,1.0,0.8355277914608409,1],"metallicFactor":0,"roughnessFactor":0.8},"emissiveFactor":[0.16465408585647642,0.35,0.2924347270112943]},{"name":"moss","pbrMetallicRoughness":{"baseColorFactor":[0.05459227728176034,0.14799802298268516,0.06381487094867724,1],"metallicFactor":0,"roughnessFactor":0.8}},{"name":"bark","pbrMetallicRoughness":{"baseColorFactor":[0.06575388026033009,0.03423020656508195,0.020951131914781092,1],"metallicFactor":0,"roughnessFactor":0.8}},{"name":"cloth","pbrMetallicRoughness":{"baseColorFactor":[0.03994717100152558,0.10114516420959989,0.10363409665513738,1],"metallicFactor":0,"roughnessFactor":0.8}},{"name":"leather","pbrMetallicRoughness":{"baseColorFactor":[0.05818717747368544,0.020951131914781092,0.015175238159625197,1],"metallicFactor":0,"roughnessFactor":0.8}},{"name":"fire","pbrMetallicRoughness":{"baseColorFactor":[1.0,0.3157627437363971,0.04943345755590796,1],"metallicFactor":0,"roughnessFactor":0.8},"emissiveFactor":[0.35,0.11051696030773898,0.017301710144567783]}],"bufferViews":[{"buffer":0,"byteOffset":0,"byteLength":1584},{"buffer":0,"byteOffset":1584,"byteLength":1584},{"buffer":0,"byteOffset":3168,"byteLength":1584},{"buffer":0,"byteOffset":4752,"byteLength":1584},{"buffer":0,"byteOffset":6336,"byteLength":1008},{"buffer":0,"byteOffset":7344,"byteLength":1008},{"buffer":0,"byteOffset":8352,"byteLength":1008},{"buffer":0,"byteOffset":9360,"byteLength":1008},{"buffer":0,"byteOffset":10368,"byteLength":1584},{"buffer":0,"byteOffset":11952,"byteLength":1584},{"buffer":0,"byteOffset":13536,"byteLength":1584},{"buffer":0,"byteOffset":15120,"byteLength":1584},{"buffer":0,"byteOffset":16704,"byteLength":1008},{"buffer":0,"byteOffset":17712,"byteLength":1008},{"buffer":0,"byteOffset":18720,"byteLength":1008},{"buffer":0,"byteOffset":19728,"byteLength":1008},{"buffer":0,"byteOffset":20736,"byteLength":1584},{"buffer":0,"byteOffset":22320,"byteLength":1584},{"buffer":0,"byteOffset":23904,"byteLength":1584},{"buffer":0,"byteOffset":25488,"byteLength":1584},{"buffer":0,"byteOffset":27072,"byteLength":1008},{"buffer":0,"byteOffset":28080,"byteLength":1008},{"buffer":0,"byteOffset":29088,"byteLength":1008},{"buffer":0,"byteOffset":30096,"byteLength":1008},{"buffer":0,"byteOffset":31104,"byteLength":1584},{"buffer":0,"byteOffset":32688,"byteLength":1584},{"buffer":0,"byteOffset":34272,"byteLength":1584},{"buffer":0,"byteOffset":35856,"byteLength":1584},{"buffer":0,"byteOffset":37440,"byteLength":1008},{"buffer":0,"byteOffset":38448,"byteLength":1008},{"buffer":0,"byteOffset":39456,"byteLength":1008},{"buffer":0,"byteOffset":40464,"byteLength":1008},{"buffer":0,"byteOffset":41472,"byteLength":1584},{"buffer":0,"byteOffset":43056,"byteLength":1584},{"buffer":0,"byteOffset":44640,"byteLength":1584},{"buffer":0,"byteOffset":46224,"byteLength":1584},{"buffer":0,"byteOffset":47808,"byteLength":1584},{"buffer":0,"byteOffset":49392,"byteLength":1584},{"buffer":0,"byteOffset":50976,"byteLength":432},{"buffer":0,"byteOffset":51408,"byteLength":432},{"buffer":0,"byteOffset":51840,"byteLength":1584},{"buffer":0,"byteOffset":53424,"byteLength":1584},{"buffer":0,"byteOffset":55008,"byteLength":432},{"buffer":0,"byteOffset":55440,"byteLength":432},{"buffer":0,"byteOffset":55872,"byteLength":1584},{"buffer":0,"byteOffset":57456,"byteLength":1584},{"buffer":0,"byteOffset":59040,"byteLength":1584},{"buffer":0,"byteOffset":60624,"byteLength":1584},{"buffer":0,"byteOffset":62208,"byteLength":1584},{"buffer":0,"byteOffset":63792,"byteLength":1584},{"buffer":0,"byteOffset":65376,"byteLength":1584},{"buffer":0,"byteOffset":66960,"byteLength":1584},{"buffer":0,"byteOffset":68544,"byteLength":1584},{"buffer":0,"byteOffset":70128,"byteLength":1584},{"buffer":0,"byteOffset":71712,"byteLength":1584},{"buffer":0,"byteOffset":73296,"byteLength":1584},{"buffer":0,"byteOffset":74880,"byteLength":1584},{"buffer":0,"byteOffset":76464,"byteLength":1584},{"buffer":0,"byteOffset":78048,"byteLength":1584},{"buffer":0,"byteOffset":79632,"byteLength":1584},{"buffer":0,"byteOffset":81216,"byteLength":1584},{"buffer":0,"byteOffset":82800,"byteLength":1584},{"buffer":0,"byteOffset":84384,"byteLength":1008},{"buffer":0,"byteOffset":85392,"byteLength":1008},{"buffer":0,"byteOffset":86400,"byteLength":1008},{"buffer":0,"byteOffset":87408,"byteLength":1008},{"buffer":0,"byteOffset":88416,"byteLength":1008},{"buffer":0,"byteOffset":89424,"byteLength":1008},{"buffer":0,"byteOffset":90432,"byteLength":1008},{"buffer":0,"byteOffset":91440,"byteLength":1008},{"buffer":0,"byteOffset":92448,"byteLength":1584},{"buffer":0,"byteOffset":94032,"byteLength":1584},{"buffer":0,"byteOffset":95616,"byteLength":1584},{"buffer":0,"byteOffset":97200,"byteLength":1584},{"buffer":0,"byteOffset":98784,"byteLength":1584},{"buffer":0,"byteOffset":100368,"byteLength":1584},{"buffer":0,"byteOffset":101952,"byteLength":1008},{"buffer":0,"byteOffset":102960,"byteLength":1008},{"buffer":0,"byteOffset":103968,"byteLength":1584},{"buffer":0,"byteOffset":105552,"byteLength":1584},{"buffer":0,"byteOffset":107136,"byteLength":1584},{"buffer":0,"byteOffset":108720,"byteLength":1584},{"buffer":0,"byteOffset":110304,"byteLength":1008},{"buffer":0,"byteOffset":111312,"byteLength":1008},{"buffer":0,"byteOffset":112320,"byteLength":1008},{"buffer":0,"byteOffset":113328,"byteLength":1008},{"buffer":0,"byteOffset":114336,"byteLength":1008},{"buffer":0,"byteOffset":115344,"byteLength":1008},{"buffer":0,"byteOffset":116352,"byteLength":1008},{"buffer":0,"byteOffset":117360,"byteLength":1008},{"buffer":0,"byteOffset":118368,"byteLength":1008},{"buffer":0,"byteOffset":119376,"byteLength":1008},{"buffer":0,"byteOffset":120384,"byteLength":1584},{"buffer":0,"byteOffset":121968,"byteLength":1584},{"buffer":0,"byteOffset":123552,"byteLength":720},{"buffer":0,"byteOffset":124272,"byteLength":720},{"buffer":0,"byteOffset":124992,"byteLength":720},{"buffer":0,"byteOffset":125712,"byteLength":720},{"buffer":0,"byteOffset":126432,"byteLength":720},{"buffer":0,"byteOffset":127152,"byteLength":720},{"buffer":0,"byteOffset":127872,"byteLength":720},{"buffer":0,"byteOffset":128592,"byteLength":720},{"buffer":0,"byteOffset":129312,"byteLength":1008},{"buffer":0,"byteOffset":130320,"byteLength":1008},{"buffer":0,"byteOffset":131328,"byteLength":1584},{"buffer":0,"byteOffset":132912,"byteLength":1584},{"buffer":0,"byteOffset":134496,"byteLength":1584},{"buffer":0,"byteOffset":136080,"byteLength":1584},{"buffer":0,"byteOffset":137664,"byteLength":1296},{"buffer":0,"byteOffset":138960,"byteLength":1296},{"buffer":0,"byteOffset":140256,"byteLength":1008},{"buffer":0,"byteOffset":141264,"byteLength":1008},{"buffer":0,"byteOffset":142272,"byteLength":1584},{"buffer":0,"byteOffset":143856,"byteLength":1584},{"buffer":0,"byteOffset":145440,"byteLength":1584},{"buffer":0,"byteOffset":147024,"byteLength":1584},{"buffer":0,"byteOffset":148608,"byteLength":1584},{"buffer":0,"byteOffset":150192,"byteLength":1584}],"accessors":[{"bufferView":0,"componentType":5126,"count":132,"type":"VEC3","min":[-0.11500000208616257,-0.8799999952316284,-0.11500000208616257],"max":[0.11500000208616257,0.8799999952316284,0.11500000208616257]},{"bufferView":1,"componentType":5126,"count":132,"type":"VEC3","min":[-1.0,-1.0,-1.0],"max":[1.0,1.0,1.0]},{"bufferView":2,"componentType":5126,"count":132,"type":"VEC3","min":[-0.12700000405311584,-0.06499999761581421,-0.12700000405311584],"max":[0.12700000405311584,0.06499999761581421,0.12700000405311584]},{"bufferView":3,"componentType":5126,"count":132,"type":"VEC3","min":[-1.0,-1.0,-1.0],"max":[1.0,1.0,1.0]},{"bufferView":4,"componentType":5126,"count":84,"type":"VEC3","min":[-0.03200000151991844,-0.03200000151991844,-0.009499999694526196],"max":[0.03200000151991844,0.03200000151991844,0.009499999694526196]},{"bufferView":5,"componentType":5126,"count":84,"type":"VEC3","min":[-0.9238795042037964,-0.9238795042037964,-1.0],"max":[0.9238795042037964,0.9238795042037964,1.0]},{"bufferView":6,"componentType":5126,"count":84,"type":"VEC3","min":[-0.03200000151991844,-0.03200000151991844,-0.009499999694526196],"max":[0.03200000151991844,0.03200000151991844,0.009499999694526196]},{"bufferView":7,"componentType":5126,"count":84,"type":"VEC3","min":[-0.9238795042037964,-0.9238795042037964,-1.0],"max":[0.9238795042037964,0.9238795042037964,1.0]},{"bufferView":8,"componentType":5126,"count":132,"type":"VEC3","min":[-0.11500000208616257,-0.8799999952316284,-0.11500000208616257],"max":[0.11500000208616257,0.8799999952316284,0.11500000208616257]},{"bufferView":9,"componentType":5126,"count":132,"type":"VEC3","min":[-1.0,-1.0,-1.0],"max":[1.0,1.0,1.0]},{"bufferView":10,"componentType":5126,"count":132,"type":"VEC3","min":[-0.12700000405311584,-0.06499999761581421,-0.12700000405311584],"max":[0.12700000405311584,0.06499999761581421,0.12700000405311584]},{"bufferView":11,"componentType":5126,"count":132,"type":"VEC3","min":[-1.0,-1.0,-1.0],"max":[1.0,1.0,1.0]},{"bufferView":12,"componentType":5126,"count":84,"type":"VEC3","min":[-0.03200000151991844,-0.03200000151991844,-0.009499999694526196],"max":[0.03200000151991844,0.03200000151991844,0.009499999694526196]},{"bufferView":13,"componentType":5126,"count":84,"type":"VEC3","min":[-0.9238795042037964,-0.9238795042037964,-1.0],"max":[0.9238795042037964,0.9238795042037964,1.0]},{"bufferView":14,"componentType":5126,"count":84,"type":"VEC3","min":[-0.03200000151991844,-0.03200000151991844,-0.009499999694526196],"max":[0.03200000151991844,0.03200000151991844,0.009499999694526196]},{"bufferView":15,"componentType":5126,"count":84,"type":"VEC3","min":[-0.9238795042037964,-0.9238795042037964,-1.0],"max":[0.9238795042037964,0.9238795042037964,1.0]},{"bufferView":16,"componentType":5126,"count":132,"type":"VEC3","min":[-0.11500000208616257,-0.8799999952316284,-0.11500000208616257],"max":[0.11500000208616257,0.8799999952316284,0.11500000208616257]},{"bufferView":17,"componentType":5126,"count":132,"type":"VEC3","min":[-1.0,-1.0,-1.0],"max":[1.0,1.0,1.0]},{"bufferView":18,"componentType":5126,"count":132,"type":"VEC3","min":[-0.12700000405311584,-0.06499999761581421,-0.12700000405311584],"max":[0.12700000405311584,0.06499999761581421,0.12700000405311584]},{"bufferView":19,"componentType":5126,"count":132,"type":"VEC3","min":[-1.0,-1.0,-1.0],"max":[1.0,1.0,1.0]},{"bufferView":20,"componentType":5126,"count":84,"type":"VEC3","min":[-0.03200000151991844,-0.03200000151991844,-0.009499999694526196],"max":[0.03200000151991844,0.03200000151991844,0.009499999694526196]},{"bufferView":21,"componentType":5126,"count":84,"type":"VEC3","min":[-0.9238795042037964,-0.9238795042037964,-1.0],"max":[0.9238795042037964,0.9238795042037964,1.0]},{"bufferView":22,"componentType":5126,"count":84,"type":"VEC3","min":[-0.03200000151991844,-0.03200000151991844,-0.009499999694526196],"max":[0.03200000151991844,0.03200000151991844,0.009499999694526196]},{"bufferView":23,"componentType":5126,"count":84,"type":"VEC3","min":[-0.9238795042037964,-0.9238795042037964,-1.0],"max":[0.9238795042037964,0.9238795042037964,1.0]},{"bufferView":24,"componentType":5126,"count":132,"type":"VEC3","min":[-0.11500000208616257,-0.8799999952316284,-0.11500000208616257],"max":[0.11500000208616257,0.8799999952316284,0.11500000208616257]},{"bufferView":25,"componentType":5126,"count":132,"type":"VEC3","min":[-1.0,-1.0,-1.0],"max":[1.0,1.0,1.0]},{"bufferView":26,"componentType":5126,"count":132,"type":"VEC3","min":[-0.12700000405311584,-0.06499999761581421,-0.12700000405311584],"max":[0.12700000405311584,0.06499999761581421,0.12700000405311584]},{"bufferView":27,"componentType":5126,"count":132,"type":"VEC3","min":[-1.0,-1.0,-1.0],"max":[1.0,1.0,1.0]},{"bufferView":28,"componentType":5126,"count":84,"type":"VEC3","min":[-0.03200000151991844,-0.03200000151991844,-0.009499999694526196],"max":[0.03200000151991844,0.03200000151991844,0.009499999694526196]},{"bufferView":29,"componentType":5126,"count":84,"type":"VEC3","min":[-0.9238795042037964,-0.9238795042037964,-1.0],"max":[0.9238795042037964,0.9238795042037964,1.0]},{"bufferView":30,"componentType":5126,"count":84,"type":"VEC3","min":[-0.03200000151991844,-0.03200000151991844,-0.009499999694526196],"max":[0.03200000151991844,0.03200000151991844,0.009499999694526196]},{"bufferView":31,"componentType":5126,"count":84,"type":"VEC3","min":[-0.9238795042037964,-0.9238795042037964,-1.0],"max":[0.9238795042037964,0.9238795042037964,1.0]},{"bufferView":32,"componentType":5126,"count":132,"type":"VEC3","min":[-1.25,-0.1599999964237213,-0.07000000029802322],"max":[1.25,0.1599999964237213,0.07000000029802322]},{"bufferView":33,"componentType":5126,"count":132,"type":"VEC3","min":[-1.0,-1.0,-1.0],"max":[1.0,1.0,1.0]},{"bufferView":34,"componentType":5126,"count":132,"type":"VEC3","min":[-1.25,-0.1599999964237213,-0.07000000029802322],"max":[1.25,0.1599999964237213,0.07000000029802322]},{"bufferView":35,"componentType":5126,"count":132,"type":"VEC3","min":[-1.0,-1.0,-1.0],"max":[1.0,1.0,1.0]},{"bufferView":36,"componentType":5126,"count":132,"type":"VEC3","min":[-0.09000000357627869,-0.0949999988079071,-0.6200000047683716],"max":[0.09000000357627869,0.0949999988079071,0.6200000047683716]},{"bufferView":37,"componentType":5126,"count":132,"type":"VEC3","min":[-1.0,-1.0,-1.0],"max":[1.0,1.0,1.0]},{"bufferView":38,"componentType":5126,"count":36,"type":"VEC3","min":[-0.07999999821186066,-0.3931480050086975,-0.32388871908187866],"max":[0.07999999821186066,0.3931480050086975,0.32388871908187866]},{"bufferView":39,"componentType":5126,"count":36,"type":"VEC3","min":[-0.7071067690849304,-0.7986089587211609,-0.6018502116203308],"max":[0.7071067690849304,0.7986089587211609,0.6018502116203308]},{"bufferView":40,"componentType":5126,"count":132,"type":"VEC3","min":[-0.09000000357627869,-0.0949999988079071,-0.6200000047683716],"max":[0.09000000357627869,0.0949999988079071,0.6200000047683716]},{"bufferView":41,"componentType":5126,"count":132,"type":"VEC3","min":[-1.0,-1.0,-1.0],"max":[1.0,1.0,1.0]},{"bufferView":42,"componentType":5126,"count":36,"type":"VEC3","min":[-0.07999999821186066,-0.3931480050086975,-0.32388871908187866],"max":[0.07999999821186066,0.3931480050086975,0.32388871908187866]},{"bufferView":43,"componentType":5126,"count":36,"type":"VEC3","min":[-0.7071067690849304,-0.7986089587211609,-0.6018502116203308],"max":[0.7071067690849304,0.7986089587211609,0.6018502116203308]},{"bufferView":44,"componentType":5126,"count":132,"type":"VEC3","min":[-1.225000023841858,-0.05000000074505806,-0.13500000536441803],"max":[1.225000023841858,0.05000000074505806,0.13500000536441803]},{"bufferView":45,"componentType":5126,"count":132,"type":"VEC3","min":[-1.0,-1.0,-1.0],"max":[1.0,1.0,1.0]},{"bufferView":46,"componentType":5126,"count":132,"type":"VEC3","min":[-1.225000023841858,-0.05000000074505806,-0.13500000536441803],"max":[1.225000023841858,0.05000000074505806,0.13500000536441803]},{"bufferView":47,"componentType":5126,"count":132,"type":"VEC3","min":[-1.0,-1.0,-1.0],"max":[1.0,1.0,1.0]},{"bufferView":48,"componentType":5126,"count":132,"type":"VEC3","min":[-1.225000023841858,-0.05000000074505806,-0.13500000536441803],"max":[1.225000023841858,0.05000000074505806,0.13500000536441803]},{"bufferView":49,"componentType":5126,"count":132,"type":"VEC3","min":[-1.0,-1.0,-1.0],"max":[1.0,1.0,1.0]},{"bufferView":50,"componentType":5126,"count":132,"type":"VEC3","min":[-1.225000023841858,-0.05000000074505806,-0.13500000536441803],"max":[1.225000023841858,0.05000000074505806,0.13500000536441803]},{"bufferView":51,"componentType":5126,"count":132,"type":"VEC3","min":[-1.0,-1.0,-1.0],"max":[1.0,1.0,1.0]},{"bufferView":52,"componentType":5126,"count":132,"type":"VEC3","min":[-1.590000033378601,-0.09000000357627869,-0.148499995470047],"max":[1.590000033378601,0.09000000357627869,0.148499995470047]},{"bufferView":53,"componentType":5126,"count":132,"type":"VEC3","min":[-1.0,-1.0,-1.0],"max":[1.0,1.0,1.0]},{"bufferView":54,"componentType":5126,"count":132,"type":"VEC3","min":[-1.590000033378601,-0.09000000357627869,-0.148499995470047],"max":[1.590000033378601,0.09000000357627869,0.148499995470047]},{"bufferView":55,"componentType":5126,"count":132,"type":"VEC3","min":[-1.0,-1.0,-1.0],"max":[1.0,1.0,1.0]},{"bufferView":56,"componentType":5126,"count":132,"type":"VEC3","min":[-1.590000033378601,-0.09000000357627869,-0.148499995470047],"max":[1.590000033378601,0.09000000357627869,0.148499995470047]},{"bufferView":57,"componentType":5126,"count":132,"type":"VEC3","min":[-1.0,-1.0,-1.0],"max":[1.0,1.0,1.0]},{"bufferView":58,"componentType":5126,"count":132,"type":"VEC3","min":[-1.590000033378601,-0.09000000357627869,-0.148499995470047],"max":[1.590000033378601,0.09000000357627869,0.148499995470047]},{"bufferView":59,"componentType":5126,"count":132,"type":"VEC3","min":[-1.0,-1.0,-1.0],"max":[1.0,1.0,1.0]},{"bufferView":60,"componentType":5126,"count":132,"type":"VEC3","min":[-1.590000033378601,-0.09000000357627869,-0.148499995470047],"max":[1.590000033378601,0.09000000357627869,0.148499995470047]},{"bufferView":61,"componentType":5126,"count":132,"type":"VEC3","min":[-1.0,-1.0,-1.0],"max":[1.0,1.0,1.0]},{"bufferView":62,"componentType":5126,"count":84,"type":"VEC3","min":[-0.03200000151991844,-0.006000000052154064,-0.03200000151991844],"max":[0.03200000151991844,0.006000000052154064,0.03200000151991844]},{"bufferView":63,"componentType":5126,"count":84,"type":"VEC3","min":[-0.9238795042037964,-1.0,-0.9238795042037964],"max":[0.9238795042037964,1.0,0.9238795042037964]},{"bufferView":64,"componentType":5126,"count":84,"type":"VEC3","min":[-0.03200000151991844,-0.006000000052154064,-0.03200000151991844],"max":[0.03200000151991844,0.006000000052154064,0.03200000151991844]},{"bufferView":65,"componentType":5126,"count":84,"type":"VEC3","min":[-0.9238795042037964,-1.0,-0.9238795042037964],"max":[0.9238795042037964,1.0,0.9238795042037964]},{"bufferView":66,"componentType":5126,"count":84,"type":"VEC3","min":[-0.03200000151991844,-0.006000000052154064,-0.03200000151991844],"max":[0.03200000151991844,0.006000000052154064,0.03200000151991844]},{"bufferView":67,"componentType":5126,"count":84,"type":"VEC3","min":[-0.9238795042037964,-1.0,-0.9238795042037964],"max":[0.9238795042037964,1.0,0.9238795042037964]},{"bufferView":68,"componentType":5126,"count":84,"type":"VEC3","min":[-0.03200000151991844,-0.006000000052154064,-0.03200000151991844],"max":[0.03200000151991844,0.006000000052154064,0.03200000151991844]},{"bufferView":69,"componentType":5126,"count":84,"type":"VEC3","min":[-0.9238795042037964,-1.0,-0.9238795042037964],"max":[0.9238795042037964,1.0,0.9238795042037964]},{"bufferView":70,"componentType":5126,"count":132,"type":"VEC3","min":[-0.41499999165534973,-0.07999999821186066,-0.23999999463558197],"max":[0.41499999165534973,0.07999999821186066,0.23999999463558197]},{"bufferView":71,"componentType":5126,"count":132,"type":"VEC3","min":[-1.0,-1.0,-1.0],"max":[1.0,1.0,1.0]},{"bufferView":72,"componentType":5126,"count":132,"type":"VEC3","min":[-0.16500000655651093,-0.12999999523162842,-0.14000000059604645],"max":[0.16500000655651093,0.12999999523162842,0.14000000059604645]},{"bufferView":73,"componentType":5126,"count":132,"type":"VEC3","min":[-1.0,-1.0,-1.0],"max":[1.0,1.0,1.0]},{"bufferView":74,"componentType":5126,"count":132,"type":"VEC3","min":[-0.44999998807907104,-0.07999999821186066,-0.19499999284744263],"max":[0.44999998807907104,0.07999999821186066,0.19499999284744263]},{"bufferView":75,"componentType":5126,"count":132,"type":"VEC3","min":[-1.0,-1.0,-1.0],"max":[1.0,1.0,1.0]},{"bufferView":76,"componentType":5126,"count":84,"type":"VEC3","min":[-0.20841361582279205,-0.14495837688446045,-0.14000000059604645],"max":[0.20539012551307678,0.13495837152004242,0.14000000059604645]},{"bufferView":77,"componentType":5126,"count":84,"type":"VEC3","min":[-0.9997026920318604,-0.8829919695854187,-0.889816403388977],"max":[0.9997026920318604,0.8961117267608643,0.889816403388977]},{"bufferView":78,"componentType":5126,"count":132,"type":"VEC3","min":[-0.03750000149011612,-0.004000000189989805,-0.03500000014901161],"max":[0.03750000149011612,0.004000000189989805,0.03500000014901161]},{"bufferView":79,"componentType":5126,"count":132,"type":"VEC3","min":[-1.0,-1.0,-1.0],"max":[1.0,1.0,1.0]},{"bufferView":80,"componentType":5126,"count":132,"type":"VEC3","min":[-0.4399999976158142,-0.012500000186264515,-0.4300000071525574],"max":[0.4399999976158142,0.012500000186264515,0.4300000071525574]},{"bufferView":81,"componentType":5126,"count":132,"type":"VEC3","min":[-1.0,-1.0,-1.0],"max":[1.0,1.0,1.0]},{"bufferView":82,"componentType":5126,"count":84,"type":"VEC3","min":[-0.01600000075995922,-0.007000000216066837,-0.01600000075995922],"max":[0.01600000075995922,0.007000000216066837,0.01600000075995922]},{"bufferView":83,"componentType":5126,"count":84,"type":"VEC3","min":[-0.9238795042037964,-1.0,-0.9238795042037964],"max":[0.9238795042037964,1.0,0.9238795042037964]},{"bufferView":84,"componentType":5126,"count":84,"type":"VEC3","min":[-0.01600000075995922,-0.007000000216066837,-0.01600000075995922],"max":[0.01600000075995922,0.007000000216066837,0.01600000075995922]},{"bufferView":85,"componentType":5126,"count":84,"type":"VEC3","min":[-0.9238795042037964,-1.0,-0.9238795042037964],"max":[0.9238795042037964,1.0,0.9238795042037964]},{"bufferView":86,"componentType":5126,"count":84,"type":"VEC3","min":[-0.01600000075995922,-0.007000000216066837,-0.01600000075995922],"max":[0.01600000075995922,0.007000000216066837,0.01600000075995922]},{"bufferView":87,"componentType":5126,"count":84,"type":"VEC3","min":[-0.9238795042037964,-1.0,-0.9238795042037964],"max":[0.9238795042037964,1.0,0.9238795042037964]},{"bufferView":88,"componentType":5126,"count":84,"type":"VEC3","min":[-0.01600000075995922,-0.007000000216066837,-0.01600000075995922],"max":[0.01600000075995922,0.007000000216066837,0.01600000075995922]},{"bufferView":89,"componentType":5126,"count":84,"type":"VEC3","min":[-0.9238795042037964,-1.0,-0.9238795042037964],"max":[0.9238795042037964,1.0,0.9238795042037964]},{"bufferView":90,"componentType":5126,"count":84,"type":"VEC3","min":[-0.2549935281276703,-0.03999999910593033,-0.2814648747444153],"max":[0.2549935281276703,0.03999999910593033,0.2814648747444153]},{"bufferView":91,"componentType":5126,"count":84,"type":"VEC3","min":[-0.6927598714828491,-0.9238795042037964,-0.7498378753662109],"max":[0.6927598714828491,0.9238795042037964,0.7498378753662109]},{"bufferView":92,"componentType":5126,"count":132,"type":"VEC3","min":[-0.17000000178813934,-0.07000000029802322,-0.07000000029802322],"max":[0.17000000178813934,0.07000000029802322,0.07000000029802322]},{"bufferView":93,"componentType":5126,"count":132,"type":"VEC3","min":[-1.0,-1.0,-1.0],"max":[1.0,1.0,1.0]},{"bufferView":94,"componentType":5126,"count":60,"type":"VEC3","min":[-0.1496732532978058,-0.015588457696139812,-0.20042572915554047],"max":[0.1496732532978058,0.015588457696139812,0.20042572915554047]},{"bufferView":95,"componentType":5126,"count":60,"type":"VEC3","min":[-0.7059669494628906,-1.0,-0.8151804208755493],"max":[0.7059669494628906,1.0,0.8151804208755493]},{"bufferView":96,"componentType":5126,"count":60,"type":"VEC3","min":[-0.14667239785194397,-0.015588457696139812,-0.12870237231254578],"max":[0.14667239785194397,0.015588457696139812,0.12870237231254578]},{"bufferView":97,"componentType":5126,"count":60,"type":"VEC3","min":[-0.7612432241439819,-1.0,-0.6592559814453125],"max":[0.7612432241439819,1.0,0.6592559814453125]},{"bufferView":98,"componentType":5126,"count":60,"type":"VEC3","min":[-0.0379260778427124,-0.015588457696139812,-0.22162964940071106],"max":[0.0379260778427124,0.015588457696139812,0.22162964940071106]},{"bufferView":99,"componentType":5126,"count":60,"type":"VEC3","min":[-0.8624688386917114,-1.0,-0.9958931803703308],"max":[0.8624688386917114,1.0,0.9958931803703308]},{"bufferView":100,"componentType":5126,"count":60,"type":"VEC3","min":[-0.07189977169036865,-0.015588457696139812,-0.15619657933712006],"max":[0.07189977169036865,0.015588457696139812,0.15619657933712006]},{"bufferView":101,"componentType":5126,"count":60,"type":"VEC3","min":[-0.8130907416343689,-1.0,-0.9388763308525085],"max":[0.8130907416343689,1.0,0.9388763308525085]},{"bufferView":102,"componentType":5126,"count":84,"type":"VEC3","min":[-0.03200000151991844,-0.017000000923871994,-0.03200000151991844],"max":[0.03200000151991844,0.017000000923871994,0.03200000151991844]},{"bufferView":103,"componentType":5126,"count":84,"type":"VEC3","min":[-0.9238795042037964,-1.0,-0.9238795042037964],"max":[0.9238795042037964,1.0,0.9238795042037964]},{"bufferView":104,"componentType":5126,"count":132,"type":"VEC3","min":[-0.20000000298023224,-0.1599999964237213,-0.07500000298023224],"max":[0.20000000298023224,0.1599999964237213,0.07500000298023224]},{"bufferView":105,"componentType":5126,"count":132,"type":"VEC3","min":[-1.0,-1.0,-1.0],"max":[1.0,1.0,1.0]},{"bufferView":106,"componentType":5126,"count":132,"type":"VEC3","min":[-0.20000000298023224,-0.1599999964237213,-0.05999999865889549],"max":[0.20000000298023224,0.1599999964237213,0.05999999865889549]},{"bufferView":107,"componentType":5126,"count":132,"type":"VEC3","min":[-1.0,-1.0,-1.0],"max":[1.0,1.0,1.0]},{"bufferView":108,"componentType":5126,"count":108,"type":"VEC3","min":[-0.04500000178813934,-0.04279754310846329,-0.29499998688697815],"max":[0.04500000178813934,0.04279754310846329,0.29499998688697815]},{"bufferView":109,"componentType":5126,"count":108,"type":"VEC3","min":[-0.9510565400123596,-1.0,-1.0],"max":[0.9510565400123596,1.0,1.0]},{"bufferView":110,"componentType":5126,"count":84,"type":"VEC3","min":[-0.214336559176445,-0.160480797290802,-0.02500000037252903],"max":[0.214336559176445,0.160480797290802,0.02500000037252903]},{"bufferView":111,"componentType":5126,"count":84,"type":"VEC3","min":[-0.8192319273948669,-0.7568715810775757,-0.9238795042037964],"max":[0.8192319273948669,0.7568715810775757,0.9238795042037964]},{"bufferView":112,"componentType":5126,"count":132,"type":"VEC3","min":[-0.1599999964237213,-0.10000000149011612,-0.1899999976158142],"max":[0.1599999964237213,0.10000000149011612,0.1899999976158142]},{"bufferView":113,"componentType":5126,"count":132,"type":"VEC3","min":[-1.0,-1.0,-1.0],"max":[1.0,1.0,1.0]},{"bufferView":114,"componentType":5126,"count":132,"type":"VEC3","min":[-0.1599999964237213,-0.10000000149011612,-0.1899999976158142],"max":[0.1599999964237213,0.10000000149011612,0.1899999976158142]},{"bufferView":115,"componentType":5126,"count":132,"type":"VEC3","min":[-1.0,-1.0,-1.0],"max":[1.0,1.0,1.0]},{"bufferView":116,"componentType":5126,"count":132,"type":"VEC3","min":[-0.1599999964237213,-0.10000000149011612,-0.1899999976158142],"max":[0.1599999964237213,0.10000000149011612,0.1899999976158142]},{"bufferView":117,"componentType":5126,"count":132,"type":"VEC3","min":[-1.0,-1.0,-1.0],"max":[1.0,1.0,1.0]}],"buffers":[{"byteLength":151776,"uri":"Workbench.bin"}]}