# RIFTBOUND | Z up | flat shaded
mtllib Workbench.mtl
o Oak_Leg_0
usemtl wood
v -1.315000 -0.610000 0.025000
v -1.315000 -0.610000 1.735000
v -1.315000 -0.430000 0.025000
v -1.315000 -0.430000 1.735000
v -1.085000 -0.610000 0.025000
v -1.085000 -0.610000 1.735000
v -1.085000 -0.430000 0.025000
v -1.085000 -0.430000 1.735000
v -1.290000 -0.635000 0.025000
v -1.290000 -0.635000 1.735000
v -1.110000 -0.635000 0.025000
v -1.110000 -0.635000 1.735000
v -1.290000 -0.405000 0.025000
v -1.290000 -0.405000 1.735000
v -1.110000 -0.405000 0.025000
v -1.110000 -0.405000 1.735000
v -1.290000 -0.610000 0.000000
v -1.290000 -0.430000 0.000000
v -1.110000 -0.610000 0.000000
v -1.110000 -0.430000 0.000000
v -1.290000 -0.610000 1.760000
v -1.290000 -0.430000 1.760000
v -1.110000 -0.610000 1.760000
v -1.110000 -0.430000 1.760000
f 8 16 24
f 9 1 17
f 7 20 15
f 18 3 13
f 22 14 4
f 10 21 2
f 11 19 5
f 12 6 23
f 3 1 2
f 3 2 4
f 14 16 15
f 14 15 13
f 14 3 4
f 14 13 3
f 7 19 20
f 7 5 19
f 7 6 5
f 7 8 6
f 7 15 16
f 7 16 8
f 18 1 3
f 18 17 1
f 18 20 19
f 18 19 17
f 18 13 15
f 18 15 20
f 23 6 8
f 23 8 24
f 22 4 2
f 22 2 21
f 22 16 14
f 22 24 16
f 22 23 24
f 22 21 23
f 10 2 1
f 10 1 9
f 11 17 19
f 11 9 17
f 12 23 21
f 12 21 10
f 12 5 6
f 12 11 5
f 12 10 9
f 12 9 11
o Foot_Band_1
usemtl dark
v -1.327000 -0.632000 0.090000
v -1.327000 -0.632000 0.190000
v -1.327000 -0.408000 0.090000
v -1.327000 -0.408000 0.190000
v -1.073000 -0.632000 0.090000
v -1.073000 -0.632000 0.190000
v -1.073000 -0.408000 0.090000
v -1.073000 -0.408000 0.190000
v -1.312000 -0.647000 0.090000
v -1.312000 -0.647000 0.190000
v -1.088000 -0.647000 0.090000
v -1.088000 -0.647000 0.190000
v -1.312000 -0.393000 0.090000
v -1.312000 -0.393000 0.190000
v -1.088000 -0.393000 0.090000
v -1.088000 -0.393000 0.190000
v -1.312000 -0.632000 0.075000
v -1.312000 -0.408000 0.075000
v -1.088000 -0.632000 0.075000
v -1.088000 -0.408000 0.075000
v -1.312000 -0.632000 0.205000
v -1.312000 -0.408000 0.205000
v -1.088000 -0.632000 0.205000
v -1.088000 -0.408000 0.205000
f 33 25 41
f 40 48 32
f 46 38 28
f 31 44 39
f 42 27 37
f 36 30 47
f 34 45 26
f 35 43 29
f 27 25 26
f 27 26 28
f 38 27 28
f 38 37 27
f 40 37 38
f 40 39 37
f 46 47 48
f 46 45 47
f 46 28 26
f 46 26 45
f 46 40 38
f 46 48 40
f 30 48 47
f 30 32 48
f 31 32 30
f 31 30 29
f 31 29 43
f 31 43 44
f 31 39 40
f 31 40 32
f 42 25 27
f 42 41 25
f 42 44 43
f 42 43 41
f 42 37 39
f 42 39 44
f 34 26 25
f 34 25 33
f 34 47 45
f 34 36 47
f 35 29 30
f 35 30 36
f 35 41 43
f 35 33 41
f 35 34 33
f 35 36 34
o Joinery_Peg_2
usemtl woodlight
v -1.232000 -0.646000 0.500000
v -1.222627 -0.646000 0.477373
v -1.200000 -0.646000 0.468000
v -1.177373 -0.646000 0.477373
v -1.168000 -0.646000 0.500000
v -1.177373 -0.646000 0.522627
v -1.200000 -0.646000 0.532000
v -1.222627 -0.646000 0.522627
v -1.232000 -0.665000 0.500000
v -1.222627 -0.665000 0.477373
v -1.200000 -0.665000 0.468000
v -1.177373 -0.665000 0.477373
v -1.168000 -0.665000 0.500000
v -1.177373 -0.665000 0.522627
v -1.200000 -0.665000 0.532000
v -1.222627 -0.665000 0.522627
f 58 49 50
f 58 57 49
f 54 49 56
f 54 50 49
f 54 53 52
f 54 51 50
f 54 56 55
f 54 52 51
f 61 52 53
f 61 60 52
f 61 53 54
f 61 54 62
f 63 62 54
f 63 54 55
f 59 51 52
f 59 52 60
f 59 50 51
f 59 58 50
f 64 60 61
f 64 57 58
f 64 62 63
f 64 61 62
f 64 59 60
f 64 58 59
f 64 56 49
f 64 49 57
f 64 55 56
f 64 63 55
o Joinery_Peg_3
usemtl woodlight
v -1.232000 -0.646000 1.570000
v -1.222627 -0.646000 1.547373
v -1.200000 -0.646000 1.538000
v -1.177373 -0.646000 1.547373
v -1.168000 -0.646000 1.570000
v -1.177373 -0.646000 1.592627
v -1.200000 -0.646000 1.602000
v -1.222627 -0.646000 1.592627
v -1.232000 -0.665000 1.570000
v -1.222627 -0.665000 1.547373
v -1.200000 -0.665000 1.538000
v -1.177373 -0.665000 1.547373
v -1.168000 -0.665000 1.570000
v -1.177373 -0.665000 1.592627
v -1.200000 -0.665000 1.602000
v -1.222627 -0.665000 1.592627
f 74 65 66
f 74 73 65
f 70 65 72
f 70 66 65
f 70 69 68
f 70 67 66
f 70 72 71
f 70 68 67
f 77 68 69
f 77 76 68
f 77 69 70
f 77 70 78
f 79 78 70
f 79 70 71
f 75 67 68
f 75 68 76
f 75 66 67
f 75 74 66
f 80 76 77
f 80 73 74
f 80 78 79
f 80 77 78
f 80 75 76
f 80 74 75
f 80 72 65
f 80 65 73
f 80 71 72
f 80 79 71
o Oak_Leg_4
usemtl wood
v -1.315000 0.430000 0.025000
v -1.315000 0.430000 1.735000
v -1.315000 0.610000 0.025000
v -1.315000 0.610000 1.735000
v -1.085000 0.430000 0.025000
v -1.085000 0.430000 1.735000
v -1.085000 0.610000 0.025000
v -1.085000 0.610000 1.735000
v -1.290000 0.405000 0.025000
v -1.290000 0.405000 1.735000
v -1.110000 0.405000 0.025000
v -1.110000 0.405000 1.735000
v -1.290000 0.635000 0.025000
v -1.290000 0.635000 1.735000
v -1.110000 0.635000 0.025000
v -1.110000 0.635000 1.735000
v -1.290000 0.430000 0.000000
v -1.290000 0.610000 0.000000
v -1.110000 0.430000 0.000000
v -1.110000 0.610000 0.000000
v -1.290000 0.430000 1.760000
v -1.290000 0.610000 1.760000
v -1.110000 0.430000 1.760000
v -1.110000 0.610000 1.760000
f 88 96 104
f 89 81 97
f 87 100 95
f 98 83 93
f 102 94 84
f 90 101 82
f 91 99 85
f 92 86 103
f 83 81 82
f 83 82 84
f 94 96 95
f 94 95 93
f 94 83 84
f 94 93 83
f 87 99 100
f 87 85 99
f 87 86 85
f 87 88 86
f 87 95 96
f 87 96 88
f 98 81 83
f 98 97 81
f 98 100 99
f 98 99 97
f 98 93 95
f 98 95 100
f 103 86 88
f 103 88 104
f 102 84 82
f 102 82 101
f 102 96 94
f 102 104 96
f 102 103 104
f 102 101 103
f 90 82 81
f 90 81 89
f 91 97 99
f 91 89 97
f 92 103 101
f 92 101 90
f 92 85 86
f 92 91 85
f 92 90 89
f 92 89 91
o Foot_Band_5
usemtl dark
v -1.327000 0.408000 0.090000
v -1.327000 0.408000 0.190000
v -1.327000 0.632000 0.090000
v -1.327000 0.632000 0.190000
v -1.073000 0.408000 0.090000
v -1.073000 0.408000 0.190000
v -1.073000 0.632000 0.090000
v -1.073000 0.632000 0.190000
v -1.312000 0.393000 0.090000
v -1.312000 0.393000 0.190000
v -1.088000 0.393000 0.090000
v -1.088000 0.393000 0.190000
v -1.312000 0.647000 0.090000
v -1.312000 0.647000 0.190000
v -1.088000 0.647000 0.090000
v -1.088000 0.647000 0.190000
v -1.312000 0.408000 0.075000
v -1.312000 0.632000 0.075000
v -1.088000 0.408000 0.075000
v -1.088000 0.632000 0.075000
v -1.312000 0.408000 0.205000
v -1.312000 0.632000 0.205000
v -1.088000 0.408000 0.205000
v -1.088000 0.632000 0.205000
f 113 105 121
f 120 128 112
f 126 118 108
f 111 124 119
f 122 107 117
f 116 110 127
f 114 125 106
f 115 123 109
f 107 105 106
f 107 106 108
f 118 107 108
f 118 117 107
f 120 117 118
f 120 119 117
f 126 127 128
f 126 125 127
f 126 108 106
f 126 106 125
f 126 120 118
f 126 128 120
f 110 128 127
f 110 112 128
f 111 112 110
f 111 110 109
f 111 109 123
f 111 123 124
f 111 119 120
f 111 120 112
f 122 105 107
f 122 121 105
f 122 124 123
f 122 123 121
f 122 117 119
f 122 119 124
f 114 106 105
f 114 105 113
f 114 127 125
f 114 116 127
f 115 109 110
f 115 110 116
f 115 121 123
f 115 113 121
f 115 114 113
f 115 116 114
o Joinery_Peg_6
usemtl woodlight
v -1.232000 0.394000 0.500000
v -1.222627 0.394000 0.477373
v -1.200000 0.394000 0.468000
v -1.177373 0.394000 0.477373
v -1.168000 0.394000 0.500000
v -1.177373 0.394000 0.522627
v -1.200000 0.394000 0.532000
v -1.222627 0.394000 0.522627
v -1.232000 0.375000 0.500000
v -1.222627 0.375000 0.477373
v -1.200000 0.375000 0.468000
v -1.177373 0.375000 0.477373
v -1.168000 0.375000 0.500000
v -1.177373 0.375000 0.522627
v -1.200000 0.375000 0.532000
v -1.222627 0.375000 0.522627
f 138 129 130
f 138 137 129
f 134 129 136
f 134 130 129
f 134 133 132
f 134 131 130
f 134 136 135
f 134 132 131
f 141 132 133
f 141 140 132
f 141 133 134
f 141 134 142
f 143 142 134
f 143 134 135
f 139 131 132
f 139 132 140
f 139 130 131
f 139 138 130
f 144 140 141
f 144 137 138
f 144 142 143
f 144 141 142
f 144 139 140
f 144 138 139
f 144 136 129
f 144 129 137
f 144 135 136
f 144 143 135
o Joinery_Peg_7
usemtl woodlight
v -1.232000 0.394000 1.570000
v -1.222627 0.394000 1.547373
v -1.200000 0.394000 1.538000
v -1.177373 0.394000 1.547373
v -1.168000 0.394000 1.570000
v -1.177373 0.394000 1.592627
v -1.200000 0.394000 1.602000
v -1.222627 0.394000 1.592627
v -1.232000 0.375000 1.570000
v -1.222627 0.375000 1.547373
v -1.200000 0.375000 1.538000
v -1.177373 0.375000 1.547373
v -1.168000 0.375000 1.570000
v -1.177373 0.375000 1.592627
v -1.200000 0.375000 1.602000
v -1.222627 0.375000 1.592627
f 154 145 146
f 154 153 145
f 150 145 152
f 150 146 145
f 150 149 148
f 150 147 146
f 150 152 151
f 150 148 147
f 157 148 149
f 157 156 148
f 157 149 150
f 157 150 158
f 159 158 150
f 159 150 151
f 155 147 148
f 155 148 156
f 155 146 147
f 155 154 146
f 160 156 157
f 160 153 154
f 160 158 159
f 160 157 158
f 160 155 156
f 160 154 155
f 160 152 145
f 160 145 153
f 160 151 152
f 160 159 151
o Oak_Leg_8
usemtl wood
v 1.085000 -0.610000 0.025000
v 1.085000 -0.610000 1.735000
v 1.085000 -0.430000 0.025000
v 1.085000 -0.430000 1.735000
v 1.315000 -0.610000 0.025000
v 1.315000 -0.610000 1.735000
v 1.315000 -0.430000 0.025000
v 1.315000 -0.430000 1.735000
v 1.110000 -0.635000 0.025000
v 1.110000 -0.635000 1.735000
v 1.290000 -0.635000 0.025000
v 1.290000 -0.635000 1.735000
v 1.110000 -0.405000 0.025000
v 1.110000 -0.405000 1.735000
v 1.290000 -0.405000 0.025000
v 1.290000 -0.405000 1.735000
v 1.110000 -0.610000 0.000000
v 1.110000 -0.430000 0.000000
v 1.290000 -0.610000 0.000000
v 1.290000 -0.430000 0.000000
v 1.110000 -0.610000 1.760000
v 1.110000 -0.430000 1.760000
v 1.290000 -0.610000 1.760000
v 1.290000 -0.430000 1.760000
f 169 161 177
f 180 175 167
f 168 176 184
f 182 174 164
f 172 166 183
f 171 179 165
f 178 163 173
f 170 181 162
f 163 161 162
f 163 162 164
f 174 163 164
f 174 173 163
f 175 173 174
f 175 174 176
f 180 165 179
f 180 167 165
f 168 184 183
f 168 183 166
f 168 175 176
f 168 167 175
f 168 165 167
f 168 166 165
f 182 164 162
f 182 162 181
f 182 176 174
f 182 184 176
f 182 183 184
f 182 181 183
f 171 169 177
f 171 177 179
f 171 165 166
f 171 166 172
f 178 161 163
f 178 177 161
f 178 179 177
f 178 180 179
f 178 173 175
f 178 175 180
f 170 183 181
f 170 172 183
f 170 162 161
f 170 161 169
f 170 169 171
f 170 171 172
o Foot_Band_9
usemtl dark
v 1.073000 -0.632000 0.090000
v 1.073000 -0.632000 0.190000
v 1.073000 -0.408000 0.090000
v 1.073000 -0.408000 0.190000
v 1.327000 -0.632000 0.090000
v 1.327000 -0.632000 0.190000
v 1.327000 -0.408000 0.090000
v 1.327000 -0.408000 0.190000
v 1.088000 -0.647000 0.090000
v 1.088000 -0.647000 0.190000
v 1.312000 -0.647000 0.090000
v 1.312000 -0.647000 0.190000
v 1.088000 -0.393000 0.090000
v 1.088000 -0.393000 0.190000
v 1.312000 -0.393000 0.090000
v 1.312000 -0.393000 0.190000
v 1.088000 -0.632000 0.075000
v 1.088000 -0.408000 0.075000
v 1.312000 -0.632000 0.075000
v 1.312000 -0.408000 0.075000
v 1.088000 -0.632000 0.205000
v 1.088000 -0.408000 0.205000
v 1.312000 -0.632000 0.205000
v 1.312000 -0.408000 0.205000
f 193 185 201
f 200 208 192
f 206 198 188
f 191 204 199
f 202 187 197
f 196 190 207
f 194 205 186
f 195 203 189
f 187 185 186
f 187 186 188
f 198 187 188
f 198 197 187
f 200 197 198
f 200 199 197
f 206 207 208
f 206 205 207
f 206 188 186
f 206 186 205
f 206 200 198
f 206 208 200
f 190 208 207
f 190 192 208
f 191 192 190
f 191 190 189
f 191 189 203
f 191 203 204
f 191 199 200
f 191 200 192
f 202 185 187
f 202 201 185
f 202 204 203
f 202 203 201
f 202 197 199
f 202 199 204
f 194 186 185
f 194 185 193
f 194 207 205
f 194 196 207
f 195 189 190
f 195 190 196
f 195 201 203
f 195 193 201
f 195 194 193
f 195 196 194
o Joinery_Peg_10
usemtl woodlight
v 1.168000 -0.646000 0.500000
v 1.177373 -0.646000 0.477373
v 1.200000 -0.646000 0.468000
v 1.222627 -0.646000 0.477373
v 1.232000 -0.646000 0.500000
v 1.222627 -0.646000 0.522627
v 1.200000 -0.646000 0.532000
v 1.177373 -0.646000 0.522627
v 1.168000 -0.665000 0.500000
v 1.177373 -0.665000 0.477373
v 1.200000 -0.665000 0.468000
v 1.222627 -0.665000 0.477373
v 1.232000 -0.665000 0.500000
v 1.222627 -0.665000 0.522627
v 1.200000 -0.665000 0.532000
v 1.177373 -0.665000 0.522627
f 218 209 210
f 218 217 209
f 214 209 216
f 214 210 209
f 214 213 212
f 214 211 210
f 214 216 215
f 214 212 211
f 221 212 213
f 221 220 212
f 221 213 214
f 221 214 222
f 224 216 209
f 224 209 217
f 219 211 212
f 219 212 220
f 219 210 211
f 219 218 210
f 223 220 221
f 223 217 218
f 223 224 217
f 223 221 222
f 223 219 220
f 223 218 219
f 223 222 214
f 223 214 215
f 223 215 216
f 223 216 224
o Joinery_Peg_11
usemtl woodlight
v 1.168000 -0.646000 1.570000
v 1.177373 -0.646000 1.547373
v 1.200000 -0.646000 1.538000
v 1.222627 -0.646000 1.547373
v 1.232000 -0.646000 1.570000
v 1.222627 -0.646000 1.592627
v 1.200000 -0.646000 1.602000
v 1.177373 -0.646000 1.592627
v 1.168000 -0.665000 1.570000
v 1.177373 -0.665000 1.547373
v 1.200000 -0.665000 1.538000
v 1.222627 -0.665000 1.547373
v 1.232000 -0.665000 1.570000
v 1.222627 -0.665000 1.592627
v 1.200000 -0.665000 1.602000
v 1.177373 -0.665000 1.592627
f 234 225 226
f 234 233 225
f 230 225 232
f 230 226 225
f 230 229 228
f 230 227 226
f 230 232 231
f 230 228 227
f 237 228 229
f 237 236 228
f 237 229 230
f 237 230 238
f 239 238 230
f 239 230 231
f 235 227 228
f 235 228 236
f 235 226 227
f 235 234 226
f 240 236 237
f 240 233 234
f 240 238 239
f 240 237 238
f 240 235 236
f 240 234 235
f 240 232 225
f 240 225 233
f 240 231 232
f 240 239 231
o Oak_Leg_12
usemtl wood
v 1.085000 0.430000 0.025000
v 1.085000 0.430000 1.735000
v 1.085000 0.610000 0.025000
v 1.085000 0.610000 1.735000
v 1.315000 0.430000 0.025000
v 1.315000 0.430000 1.735000
v 1.315000 0.610000 0.025000
v 1.315000 0.610000 1.735000
v 1.110000 0.405000 0.025000
v 1.110000 0.405000 1.735000
v 1.290000 0.405000 0.025000
v 1.290000 0.405000 1.735000
v 1.110000 0.635000 0.025000
v 1.110000 0.635000 1.735000
v 1.290000 0.635000 0.025000
v 1.290000 0.635000 1.735000
v 1.110000 0.430000 0.000000
v 1.110000 0.610000 0.000000
v 1.290000 0.430000 0.000000
v 1.290000 0.610000 0.000000
v 1.110000 0.430000 1.760000
v 1.110000 0.610000 1.760000
v 1.290000 0.430000 1.760000
v 1.290000 0.610000 1.760000
f 249 241 257
f 260 255 247
f 248 256 264
f 262 254 244
f 252 246 263
f 251 259 245
f 258 243 253
f 250 261 242
f 243 241 242
f 243 242 244
f 254 243 244
f 254 253 243
f 255 253 254
f 255 254 256
f 260 245 259
f 260 247 245
f 248 264 263
f 248 263 246
f 248 255 256
f 248 247 255
f 248 245 247
f 248 246 245
f 262 244 242
f 262 242 261
f 262 256 254
f 262 264 256
f 262 263 264
f 262 261 263
f 251 249 257
f 251 257 259
f 251 245 246
f 251 246 252
f 258 241 243
f 258 257 241
f 258 259 257
f 258 260 259
f 258 253 255
f 258 255 260
f 250 263 261
f 250 252 263
f 250 242 241
f 250 241 249
f 250 249 251
f 250 251 252
o Foot_Band_13
usemtl dark
v 1.073000 0.408000 0.090000
v 1.073000 0.408000 0.190000
v 1.073000 0.632000 0.090000
v 1.073000 0.632000 0.190000
v 1.327000 0.408000 0.090000
v 1.327000 0.408000 0.190000
v 1.327000 0.632000 0.090000
v 1.327000 0.632000 0.190000
v 1.088000 0.393000 0.090000
v 1.088000 0.393000 0.190000
v 1.312000 0.393000 0.090000
v 1.312000 0.393000 0.190000
v 1.088000 0.647000 0.090000
v 1.088000 0.647000 0.190000
v 1.312000 0.647000 0.090000
v 1.312000 0.647000 0.190000
v 1.088000 0.408000 0.075000
v 1.088000 0.632000 0.075000
v 1.312000 0.408000 0.075000
v 1.312000 0.632000 0.075000
v 1.088000 0.408000 0.205000
v 1.088000 0.632000 0.205000
v 1.312000 0.408000 0.205000
v 1.312000 0.632000 0.205000
f 273 265 281
f 280 288 272
f 286 278 268
f 271 284 279
f 282 267 277
f 276 270 287
f 274 285 266
f 275 283 269
f 267 265 266
f 267 266 268
f 278 267 268
f 278 277 267
f 280 277 278
f 280 279 277
f 286 287 288
f 286 285 287
f 286 268 266
f 286 266 285
f 286 280 278
f 286 288 280
f 270 288 287
f 270 272 288
f 271 272 270
f 271 270 269
f 271 269 283
f 271 283 284
f 271 279 280
f 271 280 272
f 282 265 267
f 282 281 265
f 282 284 283
f 282 283 281
f 282 277 279
f 282 279 284
f 274 266 265
f 274 265 273
f 274 287 285
f 274 276 287
f 275 269 270
f 275 270 276
f 275 281 283
f 275 273 281
f 275 274 273
f 275 276 274
o Joinery_Peg_14
usemtl woodlight
v 1.168000 0.394000 0.500000
v 1.177373 0.394000 0.477373
v 1.200000 0.394000 0.468000
v 1.222627 0.394000 0.477373
v 1.232000 0.394000 0.500000
v 1.222627 0.394000 0.522627
v 1.200000 0.394000 0.532000
v 1.177373 0.394000 0.522627
v 1.168000 0.375000 0.500000
v 1.177373 0.375000 0.477373
v 1.200000 0.375000 0.468000
v 1.222627 0.375000 0.477373
v 1.232000 0.375000 0.500000
v 1.222627 0.375000 0.522627
v 1.200000 0.375000 0.532000
v 1.177373 0.375000 0.522627
f 298 289 290
f 298 297 289
f 294 289 296
f 294 290 289
f 294 293 292
f 294 291 290
f 294 296 295
f 294 292 291
f 301 292 293
f 301 300 292
f 301 293 294
f 301 294 302
f 303 302 294
f 303 294 295
f 299 291 292
f 299 292 300
f 299 290 291
f 299 298 290
f 304 300 301
f 304 297 298
f 304 302 303
f 304 301 302
f 304 299 300
f 304 298 299
f 304 296 289
f 304 289 297
f 304 295 296
f 304 303 295
o Joinery_Peg_15
usemtl woodlight
v 1.168000 0.394000 1.570000
v 1.177373 0.394000 1.547373
v 1.200000 0.394000 1.538000
v 1.222627 0.394000 1.547373
v 1.232000 0.394000 1.570000
v 1.222627 0.394000 1.592627
v 1.200000 0.394000 1.602000
v 1.177373 0.394000 1.592627
v 1.168000 0.375000 1.570000
v 1.177373 0.375000 1.547373
v 1.200000 0.375000 1.538000
v 1.222627 0.375000 1.547373
v 1.232000 0.375000 1.570000
v 1.222627 0.375000 1.592627
v 1.200000 0.375000 1.602000
v 1.177373 0.375000 1.592627
f 315 307 308
f 315 308 316
f 310 305 312
f 310 306 305
f 310 309 308
f 310 307 306
f 310 312 311
f 310 308 307
f 317 308 309
f 317 316 308
f 317 309 310
f 317 310 318
f 319 318 310
f 319 310 311
f 314 305 306
f 314 313 305
f 314 306 307
f 314 307 315
f 320 316 317
f 320 315 316
f 320 318 319
f 320 317 318
f 320 313 314
f 320 314 315
f 320 312 305
f 320 305 313
f 320 311 312
f 320 319 311
o Apron_Rail_16
usemtl wood
v -1.250000 -0.582000 1.368000
v -1.250000 -0.582000 1.652000
v -1.250000 -0.478000 1.368000
v -1.250000 -0.478000 1.652000
v 1.250000 -0.582000 1.368000
v 1.250000 -0.582000 1.652000
v 1.250000 -0.478000 1.368000
v 1.250000 -0.478000 1.652000
v -1.232000 -0.600000 1.368000
v -1.232000 -0.600000 1.652000
v 1.232000 -0.600000 1.368000
v 1.232000 -0.600000 1.652000
v -1.232000 -0.460000 1.368000
v -1.232000 -0.460000 1.652000
v 1.232000 -0.460000 1.368000
v 1.232000 -0.460000 1.652000
v -1.232000 -0.582000 1.350000
v -1.232000 -0.478000 1.350000
v 1.232000 -0.582000 1.350000
v 1.232000 -0.478000 1.350000
v -1.232000 -0.582000 1.670000
v -1.232000 -0.478000 1.670000
v 1.232000 -0.582000 1.670000
v 1.232000 -0.478000 1.670000
f 329 321 337
f 342 334 324
f 327 340 335
f 338 323 333
f 344 328 336
f 330 341 322
f 331 339 325
f 332 326 343
f 323 321 322
f 323 322 324
f 334 336 335
f 334 335 333
f 334 323 324
f 334 333 323
f 342 324 322
f 342 322 341
f 327 339 340
f 327 325 339
f 327 335 336
f 327 336 328
f 338 333 335
f 338 335 340
f 338 340 339
f 338 339 337
f 338 321 323
f 338 337 321
f 326 325 327
f 326 327 328
f 344 326 328
f 344 343 326
f 344 336 334
f 344 334 342
f 344 342 341
f 344 341 343
f 330 322 321
f 330 321 329
f 331 337 339
f 331 329 337
f 332 325 326
f 332 331 325
f 332 343 341
f 332 341 330
f 332 330 329
f 332 329 331
o Apron_Rail_17
usemtl wood
v -1.250000 0.478000 1.368000
v -1.250000 0.478000 1.652000
v -1.250000 0.582000 1.368000
v -1.250000 0.582000 1.652000
v 1.250000 0.478000 1.368000
v 1.250000 0.478000 1.652000
v 1.250000 0.582000 1.368000
v 1.250000 0.582000 1.652000
v -1.232000 0.460000 1.368000
v -1.232000 0.460000 1.652000
v 1.232000 0.460000 1.368000
v 1.232000 0.460000 1.652000
v -1.232000 0.600000 1.368000
v -1.232000 0.600000 1.652000
v 1.232000 0.600000 1.368000
v 1.232000 0.600000 1.652000
v -1.232000 0.478000 1.350000
v -1.232000 0.582000 1.350000
v 1.232000 0.478000 1.350000
v 1.232000 0.582000 1.350000
v -1.232000 0.478000 1.670000
v -1.232000 0.582000 1.670000
v 1.232000 0.478000 1.670000
v 1.232000 0.582000 1.670000
f 353 345 361
f 366 358 348
f 351 364 359
f 362 347 357
f 368 352 360
f 354 365 346
f 355 363 349
f 356 350 367
f 347 345 346
f 347 346 348
f 358 360 359
f 358 359 357
f 358 347 348
f 358 357 347
f 366 348 346
f 366 346 365
f 351 363 364
f 351 349 363
f 351 359 360
f 351 360 352
f 362 357 359
f 362 359 364
f 362 364 363
f 362 363 361
f 362 345 347
f 362 361 345
f 350 349 351
f 350 351 352
f 368 350 352
f 368 367 350
f 368 360 358
f 368 358 366
f 368 366 365
f 368 365 367
f 354 346 345
f 354 345 353
f 355 361 363
f 355 353 361
f 356 349 350
f 356 355 349
f 356 367 365
f 356 365 354
f 356 354 353
f 356 353 355
o Lower_Crossbar_18
usemtl wood
v -1.290000 -0.602000 0.343000
v -1.290000 -0.602000 0.497000
v -1.290000 0.602000 0.343000
v -1.290000 0.602000 0.497000
v -1.110000 -0.602000 0.343000
v -1.110000 -0.602000 0.497000
v -1.110000 0.602000 0.343000
v -1.110000 0.602000 0.497000
v -1.272000 -0.620000 0.343000
v -1.272000 -0.620000 0.497000
v -1.128000 -0.620000 0.343000
v -1.128000 -0.620000 0.497000
v -1.272000 0.620000 0.343000
v -1.272000 0.620000 0.497000
v -1.128000 0.620000 0.343000
v -1.128000 0.620000 0.497000
v -1.272000 -0.602000 0.325000
v -1.272000 0.602000 0.325000
v -1.128000 -0.602000 0.325000
v -1.128000 0.602000 0.325000
v -1.272000 -0.602000 0.515000
v -1.272000 0.602000 0.515000
v -1.128000 -0.602000 0.515000
v -1.128000 0.602000 0.515000
f 390 382 372
f 377 369 385
f 388 383 375
f 379 387 373
f 384 392 376
f 386 371 381
f 378 389 370
f 380 374 391
f 374 373 375
f 374 375 376
f 371 369 370
f 371 370 372
f 382 371 372
f 382 381 371
f 390 370 389
f 390 372 370
f 392 374 376
f 392 391 374
f 392 390 389
f 392 389 391
f 388 375 373
f 388 373 387
f 379 385 387
f 379 377 385
f 384 390 392
f 384 382 390
f 384 376 375
f 384 375 383
f 384 381 382
f 384 383 381
f 386 381 383
f 386 383 388
f 386 369 371
f 386 385 369
f 386 388 387
f 386 387 385
f 378 370 369
f 378 369 377
f 380 391 389
f 380 389 378
f 380 373 374
f 380 379 373
f 380 377 379
f 380 378 377
o Corner_Brace_19
usemtl wood
v -1.120000 0.000000 0.800000
v -1.200000 0.063889 0.751852
v -1.280000 0.000000 0.800000
v -1.200000 -0.063889 0.848148
v -1.120000 0.520000 1.490000
v -1.200000 0.583889 1.441852
v -1.280000 0.520000 1.490000
v -1.200000 0.456111 1.538148
f 396 394 393
f 396 395 394
f 399 394 395
f 399 398 394
f 399 395 396
f 399 396 400
f 397 393 394
f 397 394 398
f 397 396 393
f 397 400 396
f 397 398 399
f 397 399 400
o Lower_Crossbar_20
usemtl wood
v 1.110000 -0.602000 0.343000
v 1.110000 -0.602000 0.497000
v 1.110000 0.602000 0.343000
v 1.110000 0.602000 0.497000
v 1.290000 -0.602000 0.343000
v 1.290000 -0.602000 0.497000
v 1.290000 0.602000 0.343000
v 1.290000 0.602000 0.497000
v 1.128000 -0.620000 0.343000
v 1.128000 -0.620000 0.497000
v 1.272000 -0.620000 0.343000
v 1.272000 -0.620000 0.497000
v 1.128000 0.620000 0.343000
v 1.128000 0.620000 0.497000
v 1.272000 0.620000 0.343000
v 1.272000 0.620000 0.497000
v 1.128000 -0.602000 0.325000
v 1.128000 0.602000 0.325000
v 1.272000 -0.602000 0.325000
v 1.272000 0.602000 0.325000
v 1.128000 -0.602000 0.515000
v 1.128000 0.602000 0.515000
v 1.272000 -0.602000 0.515000
v 1.272000 0.602000 0.515000
f 422 414 404
f 409 401 417
f 420 415 407
f 411 419 405
f 416 424 408
f 418 403 413
f 410 421 402
f 412 406 423
f 406 405 407
f 406 407 408
f 403 401 402
f 403 402 404
f 414 403 404
f 414 413 403
f 422 402 421
f 422 404 402
f 424 406 408
f 424 423 406
f 424 422 421
f 424 421 423
f 420 407 405
f 420 405 419
f 411 417 419
f 411 409 417
f 416 422 424
f 416 414 422
f 416 408 407
f 416 407 415
f 416 413 414
f 416 415 413
f 418 413 415
f 418 415 420
f 418 401 403
f 418 417 401
f 418 420 419
f 418 419 417
f 410 402 401
f 410 401 409
f 412 423 421
f 412 421 410
f 412 405 406
f 412 411 405
f 412 409 411
f 412 410 409
o Corner_Brace_21
usemtl wood
v 1.280000 0.000000 0.800000
v 1.200000 0.063889 0.751852
v 1.120000 0.000000 0.800000
v 1.200000 -0.063889 0.848148
v 1.280000 0.520000 1.490000
v 1.200000 0.583889 1.441852
v 1.120000 0.520000 1.490000
v 1.200000 0.456111 1.538148
f 428 426 425
f 428 427 426
f 431 426 427
f 431 430 426
f 431 427 428
f 431 428 432
f 429 425 426
f 429 426 430
f 429 428 425
f 429 432 428
f 429 430 431
f 429 431 432
o Shelf_Plank_22
usemtl woodlight
v -1.225000 -0.543000 0.452000
v -1.225000 -0.543000 0.528000
v -1.225000 -0.297000 0.452000
v -1.225000 -0.297000 0.528000
v 1.225000 -0.543000 0.452000
v 1.225000 -0.543000 0.528000
v 1.225000 -0.297000 0.452000
v 1.225000 -0.297000 0.528000
v -1.213000 -0.555000 0.452000
v -1.213000 -0.555000 0.528000
v 1.213000 -0.555000 0.452000
v 1.213000 -0.555000 0.528000
v -1.213000 -0.285000 0.452000
v -1.213000 -0.285000 0.528000
v 1.213000 -0.285000 0.452000
v 1.213000 -0.285000 0.528000
v -1.213000 -0.543000 0.440000
v -1.213000 -0.297000 0.440000
v 1.213000 -0.543000 0.440000
v 1.213000 -0.297000 0.440000
v -1.213000 -0.543000 0.540000
v -1.213000 -0.297000 0.540000
v 1.213000 -0.543000 0.540000
v 1.213000 -0.297000 0.540000
f 441 433 449
f 448 456 440
f 454 446 436
f 439 452 447
f 450 435 445
f 442 453 434
f 443 451 437
f 444 438 455
f 435 433 434
f 435 434 436
f 446 435 436
f 446 445 435
f 448 445 446
f 448 447 445
f 454 436 434
f 454 434 453
f 454 453 455
f 454 455 456
f 454 448 446
f 454 456 448
f 438 456 455
f 438 440 456
f 439 440 438
f 439 438 437
f 439 437 451
f 439 451 452
f 439 447 448
f 439 448 440
f 450 445 447
f 450 447 452
f 450 452 451
f 450 451 449
f 450 433 435
f 450 449 433
f 442 434 433
f 442 433 441
f 443 449 451
f 443 441 449
f 444 437 438
f 444 443 437
f 444 455 453
f 444 453 442
f 444 442 441
f 444 441 443
o Shelf_Plank_23
usemtl woodlight
v -1.225000 -0.263000 0.452000
v -1.225000 -0.263000 0.528000
v -1.225000 -0.017000 0.452000
v -1.225000 -0.017000 0.528000
v 1.225000 -0.263000 0.452000
v 1.225000 -0.263000 0.528000
v 1.225000 -0.017000 0.452000
v 1.225000 -0.017000 0.528000
v -1.213000 -0.275000 0.452000
v -1.213000 -0.275000 0.528000
v 1.213000 -0.275000 0.452000
v 1.213000 -0.275000 0.528000
v -1.213000 -0.005000 0.452000
v -1.213000 -0.005000 0.528000
v 1.213000 -0.005000 0.452000
v 1.213000 -0.005000 0.528000
v -1.213000 -0.263000 0.440000
v -1.213000 -0.017000 0.440000
v 1.213000 -0.263000 0.440000
v 1.213000 -0.017000 0.440000
v -1.213000 -0.263000 0.540000
v -1.213000 -0.017000 0.540000
v 1.213000 -0.263000 0.540000
v 1.213000 -0.017000 0.540000
f 465 457 473
f 472 480 464
f 478 470 460
f 463 476 471
f 474 459 469
f 466 477 458
f 467 475 461
f 468 462 479
f 459 457 458
f 459 458 460
f 470 459 460
f 470 469 459
f 472 469 470
f 472 471 469
f 478 460 458
f 478 458 477
f 478 477 479
f 478 479 480
f 478 472 470
f 478 480 472
f 462 480 479
f 462 464 480
f 463 464 462
f 463 462 461
f 463 461 475
f 463 475 476
f 463 471 472
f 463 472 464
f 474 469 471
f 474 471 476
f 474 476 475
f 474 475 473
f 474 457 459
f 474 473 457
f 466 458 457
f 466 457 465
f 467 473 475
f 467 465 473
f 468 461 462
f 468 467 461
f 468 479 477
f 468 477 466
f 468 466 465
f 468 465 467
o Shelf_Plank_24
usemtl woodlight
v -1.225000 0.017000 0.452000
v -1.225000 0.017000 0.528000
v -1.225000 0.263000 0.452000
v -1.225000 0.263000 0.528000
v 1.225000 0.017000 0.452000
v 1.225000 0.017000 0.528000
v 1.225000 0.263000 0.452000
v 1.225000 0.263000 0.528000
v -1.213000 0.005000 0.452000
v -1.213000 0.005000 0.528000
v 1.213000 0.005000 0.452000
v 1.213000 0.005000 0.528000
v -1.213000 0.275000 0.452000
v -1.213000 0.275000 0.528000
v 1.213000 0.275000 0.452000
v 1.213000 0.275000 0.528000
v -1.213000 0.017000 0.440000
v -1.213000 0.263000 0.440000
v 1.213000 0.017000 0.440000
v 1.213000 0.263000 0.440000
v -1.213000 0.017000 0.540000
v -1.213000 0.263000 0.540000
v 1.213000 0.017000 0.540000
v 1.213000 0.263000 0.540000
f 489 481 497
f 496 504 488
f 502 494 484
f 487 500 495
f 498 483 493
f 490 501 482
f 491 499 485
f 492 486 503
f 483 481 482
f 483 482 484
f 494 483 484
f 494 493 483
f 496 493 494
f 496 495 493
f 502 484 482
f 502 482 501
f 502 501 503
f 502 503 504
f 502 496 494
f 502 504 496
f 486 504 503
f 486 488 504
f 487 488 486
f 487 486 485
f 487 485 499
f 487 499 500
f 487 495 496
f 487 496 488
f 498 493 495
f 498 495 500
f 498 500 499
f 498 499 497
f 498 481 483
f 498 497 481
f 490 482 481
f 490 481 489
f 491 497 499
f 491 489 497
f 492 485 486
f 492 491 485
f 492 503 501
f 492 501 490
f 492 490 489
f 492 489 491
o Shelf_Plank_25
usemtl woodlight
v -1.225000 0.297000 0.452000
v -1.225000 0.297000 0.528000
v -1.225000 0.543000 0.452000
v -1.225000 0.543000 0.528000
v 1.225000 0.297000 0.452000
v 1.225000 0.297000 0.528000
v 1.225000 0.543000 0.452000
v 1.225000 0.543000 0.528000
v -1.213000 0.285000 0.452000
v -1.213000 0.285000 0.528000
v 1.213000 0.285000 0.452000
v 1.213000 0.285000 0.528000
v -1.213000 0.555000 0.452000
v -1.213000 0.555000 0.528000
v 1.213000 0.555000 0.452000
v 1.213000 0.555000 0.528000
v -1.213000 0.297000 0.440000
v -1.213000 0.543000 0.440000
v 1.213000 0.297000 0.440000
v 1.213000 0.543000 0.440000
v -1.213000 0.297000 0.540000
v -1.213000 0.543000 0.540000
v 1.213000 0.297000 0.540000
v 1.213000 0.543000 0.540000
f 513 505 521
f 520 528 512
f 526 518 508
f 511 524 519
f 522 507 517
f 514 525 506
f 515 523 509
f 516 510 527
f 507 505 506
f 507 506 508
f 518 507 508
f 518 517 507
f 520 517 518
f 520 519 517
f 526 508 506
f 526 506 525
f 526 525 527
f 526 527 528
f 526 520 518
f 526 528 520
f 510 528 527
f 510 512 528
f 511 512 510
f 511 510 509
f 511 509 523
f 511 523 524
f 511 519 520
f 511 520 512
f 522 517 519
f 522 519 524
f 522 524 523
f 522 523 521
f 522 505 507
f 522 521 505
f 514 506 505
f 514 505 513
f 515 521 523
f 515 513 521
f 516 509 510
f 516 515 509
f 516 527 525
f 516 525 514
f 516 514 513
f 516 513 515
o Top_Plank_26
usemtl woodlight
v -1.590000 -0.751500 1.757000
v -1.590000 -0.751500 1.903000
v -1.590000 -0.488500 1.757000
v -1.590000 -0.488500 1.903000
v 1.590000 -0.751500 1.757000
v 1.590000 -0.751500 1.903000
v 1.590000 -0.488500 1.757000
v 1.590000 -0.488500 1.903000
v -1.573000 -0.768500 1.757000
v -1.573000 -0.768500 1.903000
v 1.573000 -0.768500 1.757000
v 1.573000 -0.768500 1.903000
v -1.573000 -0.471500 1.757000
v -1.573000 -0.471500 1.903000
v 1.573000 -0.471500 1.757000
v 1.573000 -0.471500 1.903000
v -1.573000 -0.751500 1.740000
v -1.573000 -0.488500 1.740000
v 1.573000 -0.751500 1.740000
v 1.573000 -0.488500 1.740000
v -1.573000 -0.751500 1.920000
v -1.573000 -0.488500 1.920000
v 1.573000 -0.751500 1.920000
v 1.573000 -0.488500 1.920000
f 537 529 545
f 544 552 536
f 550 542 532
f 535 548 543
f 546 531 541
f 538 549 530
f 539 547 533
f 540 534 551
f 531 529 530
f 531 530 532
f 542 531 532
f 542 541 531
f 544 541 542
f 544 543 541
f 550 532 530
f 550 530 549
f 550 549 551
f 550 551 552
f 550 544 542
f 550 552 544
f 534 552 551
f 534 536 552
f 535 536 534
f 535 534 533
f 535 533 547
f 535 547 548
f 535 543 544
f 535 544 536
f 546 541 543
f 546 543 548
f 546 548 547
f 546 547 545
f 546 529 531
f 546 545 529
f 538 530 529
f 538 529 537
f 539 545 547
f 539 537 545
f 540 533 534
f 540 539 533
f 540 551 549
f 540 549 538
f 540 538 537
f 540 537 539
o Top_Plank_27
usemtl wood
v -1.590000 -0.441500 1.757000
v -1.590000 -0.441500 1.903000
v -1.590000 -0.178500 1.757000
v -1.590000 -0.178500 1.903000
v 1.590000 -0.441500 1.757000
v 1.590000 -0.441500 1.903000
v 1.590000 -0.178500 1.757000
v 1.590000 -0.178500 1.903000
v -1.573000 -0.458500 1.757000
v -1.573000 -0.458500 1.903000
v 1.573000 -0.458500 1.757000
v 1.573000 -0.458500 1.903000
v -1.573000 -0.161500 1.757000
v -1.573000 -0.161500 1.903000
v 1.573000 -0.161500 1.757000
v 1.573000 -0.161500 1.903000
v -1.573000 -0.441500 1.740000
v -1.573000 -0.178500 1.740000
v 1.573000 -0.441500 1.740000
v 1.573000 -0.178500 1.740000
v -1.573000 -0.441500 1.920000
v -1.573000 -0.178500 1.920000
v 1.573000 -0.441500 1.920000
v 1.573000 -0.178500 1.920000
f 561 553 569
f 568 576 560
f 574 566 556
f 559 572 567
f 570 555 565
f 562 573 554
f 563 571 557
f 564 558 575
f 555 553 554
f 555 554 556
f 566 555 556
f 566 565 555
f 568 565 566
f 568 567 565
f 574 556 554
f 574 554 573
f 574 573 575
f 574 575 576
f 574 568 566
f 574 576 568
f 558 576 575
f 558 560 576
f 559 560 558
f 559 558 557
f 559 557 571
f 559 571 572
f 559 567 568
f 559 568 560
f 570 565 567
f 570 567 572
f 570 572 571
f 570 571 569
f 570 553 555
f 570 569 553
f 562 554 553
f 562 553 561
f 563 569 571
f 563 561 569
f 564 557 558
f 564 563 557
f 564 575 573
f 564 573 562
f 564 562 561
f 564 561 563
o Top_Plank_28
usemtl woodlight
v -1.590000 -0.131500 1.757000
v -1.590000 -0.131500 1.903000
v -1.590000 0.131500 1.757000
v -1.590000 0.131500 1.903000
v 1.590000 -0.131500 1.757000
v 1.590000 -0.131500 1.903000
v 1.590000 0.131500 1.757000
v 1.590000 0.131500 1.903000
v -1.573000 -0.148500 1.757000
v -1.573000 -0.148500 1.903000
v 1.573000 -0.148500 1.757000
v 1.573000 -0.148500 1.903000
v -1.573000 0.148500 1.757000
v -1.573000 0.148500 1.903000
v 1.573000 0.148500 1.757000
v 1.573000 0.148500 1.903000
v -1.573000 -0.131500 1.740000
v -1.573000 0.131500 1.740000
v 1.573000 -0.131500 1.740000
v 1.573000 0.131500 1.740000
v -1.573000 -0.131500 1.920000
v -1.573000 0.131500 1.920000
v 1.573000 -0.131500 1.920000
v 1.573000 0.131500 1.920000
f 585 577 593
f 592 600 584
f 598 590 580
f 583 596 591
f 594 579 589
f 586 597 578
f 587 595 581
f 588 582 599
f 579 577 578
f 579 578 580
f 590 579 580
f 590 589 579
f 592 589 590
f 592 591 589
f 598 580 578
f 598 578 597
f 598 597 599
f 598 599 600
f 598 592 590
f 598 600 592
f 582 600 599
f 582 584 600
f 583 584 582
f 583 582 581
f 583 581 595
f 583 595 596
f 583 591 592
f 583 592 584
f 594 589 591
f 594 591 596
f 594 596 595
f 594 595 593
f 594 577 579
f 594 593 577
f 586 578 577
f 586 577 585
f 587 593 595
f 587 585 593
f 588 581 582
f 588 587 581
f 588 599 597
f 588 597 586
f 588 586 585
f 588 585 587
o Top_Plank_29
usemtl wood
v -1.590000 0.178500 1.757000
v -1.590000 0.178500 1.903000
v -1.590000 0.441500 1.757000
v -1.590000 0.441500 1.903000
v 1.590000 0.178500 1.757000
v 1.590000 0.178500 1.903000
v 1.590000 0.441500 1.757000
v 1.590000 0.441500 1.903000
v -1.573000 0.161500 1.757000
v -1.573000 0.161500 1.903000
v 1.573000 0.161500 1.757000
v 1.573000 0.161500 1.903000
v -1.573000 0.458500 1.757000
v -1.573000 0.458500 1.903000
v 1.573000 0.458500 1.757000
v 1.573000 0.458500 1.903000
v -1.573000 0.178500 1.740000
v -1.573000 0.441500 1.740000
v 1.573000 0.178500 1.740000
v 1.573000 0.441500 1.740000
v -1.573000 0.178500 1.920000
v -1.573000 0.441500 1.920000
v 1.573000 0.178500 1.920000
v 1.573000 0.441500 1.920000
f 609 601 617
f 616 624 608
f 622 614 604
f 607 620 615
f 618 603 613
f 610 621 602
f 611 619 605
f 612 606 623
f 603 601 602
f 603 602 604
f 614 603 604
f 614 613 603
f 616 613 614
f 616 615 613
f 622 604 602
f 622 602 621
f 622 621 623
f 622 623 624
f 622 616 614
f 622 624 616
f 606 624 623
f 606 608 624
f 607 608 606
f 607 606 605
f 607 605 619
f 607 619 620
f 607 615 616
f 607 616 608
f 618 613 615
f 618 615 620
f 618 620 619
f 618 619 617
f 618 601 603
f 618 617 601
f 610 602 601
f 610 601 609
f 611 617 619
f 611 609 617
f 612 605 606
f 612 611 605
f 612 623 621
f 612 621 610
f 612 610 609
f 612 609 611
o Top_Plank_30
usemtl woodlight
v -1.590000 0.488500 1.757000
v -1.590000 0.488500 1.903000
v -1.590000 0.751500 1.757000
v -1.590000 0.751500 1.903000
v 1.590000 0.488500 1.757000
v 1.590000 0.488500 1.903000
v 1.590000 0.751500 1.757000
v 1.590000 0.751500 1.903000
v -1.573000 0.471500 1.757000
v -1.573000 0.471500 1.903000
v 1.573000 0.471500 1.757000
v 1.573000 0.471500 1.903000
v -1.573000 0.768500 1.757000
v -1.573000 0.768500 1.903000
v 1.573000 0.768500 1.757000
v 1.573000 0.768500 1.903000
v -1.573000 0.488500 1.740000
v -1.573000 0.751500 1.740000
v 1.573000 0.488500 1.740000
v 1.573000 0.751500 1.740000
v -1.573000 0.488500 1.920000
v -1.573000 0.751500 1.920000
v 1.573000 0.488500 1.920000
v 1.573000 0.751500 1.920000
f 633 625 641
f 640 648 632
f 646 638 628
f 631 644 639
f 642 627 637
f 634 645 626
f 635 643 629
f 636 630 647
f 627 625 626
f 627 626 628
f 638 627 628
f 638 637 627
f 640 637 638
f 640 639 637
f 646 628 626
f 646 626 645
f 646 645 647
f 646 647 648
f 646 640 638
f 646 648 640
f 630 648 647
f 630 632 648
f 631 632 630
f 631 630 629
f 631 629 643
f 631 643 644
f 631 639 640
f 631 640 632
f 642 637 639
f 642 639 644
f 642 644 643
f 642 643 641
f 642 625 627
f 642 641 625
f 634 626 625
f 634 625 633
f 635 641 643
f 635 633 641
f 636 629 630
f 636 635 629
f 636 647 645
f 636 645 634
f 636 634 633
f 636 633 635
o Top_Bolt_31
usemtl dark
v -1.262000 -0.610000 1.922000
v -1.252627 -0.632627 1.922000
v -1.230000 -0.642000 1.922000
v -1.207373 -0.632627 1.922000
v -1.198000 -0.610000 1.922000
v -1.207373 -0.587373 1.922000
v -1.230000 -0.578000 1.922000
v -1.252627 -0.587373 1.922000
v -1.262000 -0.610000 1.934000
v -1.252627 -0.632627 1.934000
v -1.230000 -0.642000 1.934000
v -1.207373 -0.632627 1.934000
v -1.198000 -0.610000 1.934000
v -1.207373 -0.587373 1.934000
v -1.230000 -0.578000 1.934000
v -1.252627 -0.587373 1.934000
f 658 649 650
f 658 657 649
f 654 649 656
f 654 650 649
f 654 653 652
f 654 651 650
f 654 656 655
f 654 652 651
f 661 652 653
f 661 660 652
f 661 653 654
f 661 654 662
f 663 662 654
f 663 654 655
f 659 651 652
f 659 652 660
f 659 650 651
f 659 658 650
f 664 660 661
f 664 657 658
f 664 662 663
f 664 661 662
f 664 659 660
f 664 658 659
f 664 656 649
f 664 649 657
f 664 655 656
f 664 663 655
o Top_Bolt_32
usemtl dark
v -1.262000 0.610000 1.922000
v -1.252627 0.587373 1.922000
v -1.230000 0.578000 1.922000
v -1.207373 0.587373 1.922000
v -1.198000 0.610000 1.922000
v -1.207373 0.632627 1.922000
v -1.230000 0.642000 1.922000
v -1.252627 0.632627 1.922000
v -1.262000 0.610000 1.934000
v -1.252627 0.587373 1.934000
v -1.230000 0.578000 1.934000
v -1.207373 0.587373 1.934000
v -1.198000 0.610000 1.934000
v -1.207373 0.632627 1.934000
v -1.230000 0.642000 1.934000
v -1.252627 0.632627 1.934000
f 674 665 666
f 674 673 665
f 670 665 672
f 670 666 665
f 670 669 668
f 670 667 666
f 670 672 671
f 670 668 667
f 677 668 669
f 677 676 668
f 677 669 670
f 677 670 678
f 679 678 670
f 679 670 671
f 675 667 668
f 675 668 676
f 675 666 667
f 675 674 666
f 680 676 677
f 680 673 674
f 680 678 679
f 680 677 678
f 680 675 676
f 680 674 675
f 680 672 665
f 680 665 673
f 680 671 672
f 680 679 671
o Top_Bolt_33
usemtl dark
v 1.198000 -0.610000 1.922000
v 1.207373 -0.632627 1.922000
v 1.230000 -0.642000 1.922000
v 1.252627 -0.632627 1.922000
v 1.262000 -0.610000 1.922000
v 1.252627 -0.587373 1.922000
v 1.230000 -0.578000 1.922000
v 1.207373 -0.587373 1.922000
v 1.198000 -0.610000 1.934000
v 1.207373 -0.632627 1.934000
v 1.230000 -0.642000 1.934000
v 1.252627 -0.632627 1.934000
v 1.262000 -0.610000 1.934000
v 1.252627 -0.587373 1.934000
v 1.230000 -0.578000 1.934000
v 1.207373 -0.587373 1.934000
f 690 681 682
f 690 689 681
f 686 681 688
f 686 682 681
f 686 685 684
f 686 683 682
f 686 688 687
f 686 684 683
f 693 684 685
f 693 692 684
f 693 685 686
f 693 686 694
f 695 694 686
f 695 686 687
f 691 683 684
f 691 684 692
f 691 682 683
f 691 690 682
f 696 692 693
f 696 689 690
f 696 694 695
f 696 693 694
f 696 691 692
f 696 690 691
f 696 688 681
f 696 681 689
f 696 687 688
f 696 695 687
o Top_Bolt_34
usemtl dark
v 1.198000 0.610000 1.922000
v 1.207373 0.587373 1.922000
v 1.230000 0.578000 1.922000
v 1.252627 0.587373 1.922000
v 1.262000 0.610000 1.922000
v 1.252627 0.632627 1.922000
v 1.230000 0.642000 1.922000
v 1.207373 0.632627 1.922000
v 1.198000 0.610000 1.934000
v 1.207373 0.587373 1.934000
v 1.230000 0.578000 1.934000
v 1.252627 0.587373 1.934000
v 1.262000 0.610000 1.934000
v 1.252627 0.632627 1.934000
v 1.230000 0.642000 1.934000
v 1.207373 0.632627 1.934000
f 706 697 698
f 706 705 697
f 702 697 704
f 702 698 697
f 702 701 700
f 702 699 698
f 702 704 703
f 702 700 699
f 709 700 701
f 709 708 700
f 709 701 702
f 709 702 710
f 711 710 702
f 711 702 703
f 707 699 700
f 707 700 708
f 707 698 699
f 707 706 698
f 712 708 709
f 712 705 706
f 712 710 711
f 712 709 710
f 712 707 708
f 712 706 707
f 712 704 697
f 712 697 705
f 712 703 704
f 712 711 703
o Anvil_Foot_35
usemtl dark
v 0.115000 -0.105000 1.960000
v 0.115000 -0.105000 2.050000
v 0.115000 0.305000 1.960000
v 0.115000 0.305000 2.050000
v 0.945000 -0.105000 1.960000
v 0.945000 -0.105000 2.050000
v 0.945000 0.305000 1.960000
v 0.945000 0.305000 2.050000
v 0.150000 -0.140000 1.960000
v 0.150000 -0.140000 2.050000
v 0.910000 -0.140000 1.960000
v 0.910000 -0.140000 2.050000
v 0.150000 0.340000 1.960000
v 0.150000 0.340000 2.050000
v 0.910000 0.340000 1.960000
v 0.910000 0.340000 2.050000
v 0.150000 -0.105000 1.925000
v 0.150000 0.305000 1.925000
v 0.910000 -0.105000 1.925000
v 0.910000 0.305000 1.925000
v 0.150000 -0.105000 2.085000
v 0.150000 0.305000 2.085000
v 0.910000 -0.105000 2.085000
v 0.910000 0.305000 2.085000
f 721 713 729
f 728 736 720
f 734 726 716
f 719 732 727
f 730 715 725
f 722 733 714
f 723 731 717
f 724 718 735
f 715 713 714
f 715 714 716
f 726 715 716
f 726 725 715
f 728 725 726
f 728 727 725
f 734 716 714
f 734 714 733
f 734 733 735
f 734 735 736
f 734 728 726
f 734 736 728
f 718 736 735
f 718 720 736
f 719 720 718
f 719 718 717
f 719 717 731
f 719 731 732
f 719 727 728
f 719 728 720
f 730 725 727
f 730 727 732
f 730 732 731
f 730 731 729
f 730 713 715
f 730 729 713
f 722 714 713
f 722 713 721
f 723 729 731
f 723 721 729
f 724 717 718
f 724 723 717
f 724 735 733
f 724 733 722
f 724 722 721
f 724 721 723
o Anvil_Waist_36
usemtl stone
v 0.335000 0.000000 2.090000
v 0.335000 0.000000 2.270000
v 0.335000 0.200000 2.090000
v 0.335000 0.200000 2.270000
v 0.665000 0.000000 2.090000
v 0.665000 0.000000 2.270000
v 0.665000 0.200000 2.090000
v 0.665000 0.200000 2.270000
v 0.375000 -0.040000 2.090000
v 0.375000 -0.040000 2.270000
v 0.625000 -0.040000 2.090000
v 0.625000 -0.040000 2.270000
v 0.375000 0.240000 2.090000
v 0.375000 0.240000 2.270000
v 0.625000 0.240000 2.090000
v 0.625000 0.240000 2.270000
v 0.375000 0.000000 2.050000
v 0.375000 0.200000 2.050000
v 0.625000 0.000000 2.050000
v 0.625000 0.200000 2.050000
v 0.375000 0.000000 2.310000
v 0.375000 0.200000 2.310000
v 0.625000 0.000000 2.310000
v 0.625000 0.200000 2.310000
f 745 737 753
f 752 760 744
f 758 750 740
f 743 756 751
f 754 739 749
f 748 742 759
f 746 757 738
f 747 755 741
f 739 737 738
f 739 738 740
f 750 739 740
f 750 749 739
f 752 749 750
f 752 751 749
f 758 740 738
f 758 738 757
f 758 757 759
f 758 759 760
f 758 752 750
f 758 760 752
f 742 760 759
f 742 744 760
f 743 744 742
f 743 742 741
f 743 741 755
f 743 755 756
f 743 751 752
f 743 752 744
f 754 749 751
f 754 751 756
f 754 756 755
f 754 755 753
f 754 737 739
f 754 753 737
f 746 738 737
f 746 737 745
f 746 759 757
f 746 748 759
f 747 741 742
f 747 742 748
f 747 753 755
f 747 745 753
f 747 746 745
f 747 748 746
o Anvil_Face_37
usemtl edge
v 0.010000 -0.070000 2.325000
v 0.010000 -0.070000 2.435000
v 0.010000 0.270000 2.325000
v 0.010000 0.270000 2.435000
v 0.910000 -0.070000 2.325000
v 0.910000 -0.070000 2.435000
v 0.910000 0.270000 2.325000
v 0.910000 0.270000 2.435000
v 0.035000 -0.095000 2.325000
v 0.035000 -0.095000 2.435000
v 0.885000 -0.095000 2.325000
v 0.885000 -0.095000 2.435000
v 0.035000 0.295000 2.325000
v 0.035000 0.295000 2.435000
v 0.885000 0.295000 2.325000
v 0.885000 0.295000 2.435000
v 0.035000 -0.070000 2.300000
v 0.035000 0.270000 2.300000
v 0.885000 -0.070000 2.300000
v 0.885000 0.270000 2.300000
v 0.035000 -0.070000 2.460000
v 0.035000 0.270000 2.460000
v 0.885000 -0.070000 2.460000
v 0.885000 0.270000 2.460000
f 769 761 777
f 776 784 768
f 782 774 764
f 767 780 775
f 778 763 773
f 770 781 762
f 771 779 765
f 772 766 783
f 763 761 762
f 763 762 764
f 774 763 764
f 774 773 763
f 776 773 774
f 776 775 773
f 782 764 762
f 782 762 781
f 782 781 783
f 782 783 784
f 782 776 774
f 782 784 776
f 766 784 783
f 766 768 784
f 767 768 766
f 767 766 765
f 767 765 779
f 767 779 780
f 767 775 776
f 767 776 768
f 778 773 775
f 778 775 780
f 778 780 779
f 778 779 777
f 778 761 763
f 778 777 761
f 770 762 761
f 770 761 769
f 771 777 779
f 771 769 777
f 772 765 766
f 772 771 765
f 772 783 781
f 772 781 770
f 772 770 769
f 772 769 771
o Anvil_Horn_38
usemtl edge
v 0.880000 -0.040000 2.345000
v 0.882414 0.001005 2.246034
v 0.883414 0.100000 2.205042
v 0.882414 0.198995 2.246034
v 0.880000 0.240000 2.345000
v 0.877586 0.198995 2.443966
v 0.876586 0.100000 2.484958
v 0.877586 0.001005 2.443966
v 1.290000 0.084000 2.355000
v 1.290276 0.088686 2.343690
v 1.290390 0.100000 2.339005
v 1.290276 0.111314 2.343690
v 1.290000 0.116000 2.355000
v 1.289724 0.111314 2.366310
v 1.289610 0.100000 2.370995
v 1.289724 0.088686 2.366310
f 788 792 791
f 788 791 790
f 788 786 785
f 788 785 792
f 788 790 789
f 788 787 786
f 794 786 787
f 794 787 795
f 799 791 792
f 799 792 800
f 799 790 791
f 799 798 790
f 796 787 788
f 796 795 787
f 793 792 785
f 793 800 792
f 793 785 786
f 793 786 794
f 797 799 800
f 797 794 795
f 797 795 796
f 797 798 799
f 797 800 793
f 797 793 794
f 797 789 790
f 797 790 798
f 797 788 789
f 797 796 788
o Hardy_Hole_39
usemtl dark
v 0.092500 0.068200 2.462200
v 0.092500 0.068200 2.463800
v 0.092500 0.131800 2.462200
v 0.092500 0.131800 2.463800
v 0.167500 0.068200 2.462200
v 0.167500 0.068200 2.463800
v 0.167500 0.131800 2.462200
v 0.167500 0.131800 2.463800
v 0.095700 0.065000 2.462200
v 0.095700 0.065000 2.463800
v 0.164300 0.065000 2.462200
v 0.164300 0.065000 2.463800
v 0.095700 0.135000 2.462200
v 0.095700 0.135000 2.463800
v 0.164300 0.135000 2.462200
v 0.164300 0.135000 2.463800
v 0.095700 0.068200 2.459000
v 0.095700 0.131800 2.459000
v 0.164300 0.068200 2.459000
v 0.164300 0.131800 2.459000
v 0.095700 0.068200 2.467000
v 0.095700 0.131800 2.467000
v 0.164300 0.068200 2.467000
v 0.164300 0.131800 2.467000
f 809 801 817
f 816 824 808
f 822 814 804
f 807 820 815
f 818 803 813
f 810 821 802
f 811 819 805
f 812 806 823
f 803 801 802
f 803 802 804
f 814 803 804
f 814 813 803
f 816 813 814
f 816 815 813
f 822 804 802
f 822 802 821
f 822 821 823
f 822 823 824
f 822 816 814
f 822 824 816
f 806 824 823
f 806 808 824
f 807 808 806
f 807 806 805
f 807 805 819
f 807 819 820
f 807 815 816
f 807 816 808
f 818 813 815
f 818 815 820
f 818 820 819
f 818 819 817
f 818 801 803
f 818 817 801
f 810 802 801
f 810 801 809
f 811 817 819
f 811 809 817
f 812 805 806
f 812 811 805
f 812 823 821
f 812 821 810
f 812 810 809
f 812 809 811
o Leather_Mat_40
usemtl cloth
v -1.140000 -0.440000 1.931500
v -1.140000 -0.440000 1.936500
v -1.140000 0.400000 1.931500
v -1.140000 0.400000 1.936500
v -0.260000 -0.440000 1.931500
v -0.260000 -0.440000 1.936500
v -0.260000 0.400000 1.931500
v -0.260000 0.400000 1.936500
v -1.130000 -0.450000 1.931500
v -1.130000 -0.450000 1.936500
v -0.270000 -0.450000 1.931500
v -0.270000 -0.450000 1.936500
v -1.130000 0.410000 1.931500
v -1.130000 0.410000 1.936500
v -0.270000 0.410000 1.931500
v -0.270000 0.410000 1.936500
v -1.130000 -0.440000 1.921500
v -1.130000 0.400000 1.921500
v -0.270000 -0.440000 1.921500
v -0.270000 0.400000 1.921500
v -1.130000 -0.440000 1.946500
v -1.130000 0.400000 1.946500
v -0.270000 -0.440000 1.946500
v -0.270000 0.400000 1.946500
f 833 825 841
f 840 848 832
f 846 838 828
f 831 844 839
f 842 827 837
f 834 845 826
f 835 843 829
f 836 830 847
f 827 825 826
f 827 826 828
f 838 827 828
f 838 837 827
f 840 837 838
f 840 839 837
f 846 828 826
f 846 826 845
f 846 845 847
f 846 847 848
f 846 840 838
f 846 848 840
f 830 848 847
f 830 832 848
f 831 832 830
f 831 830 829
f 831 829 843
f 831 843 844
f 831 839 840
f 831 840 832
f 842 837 839
f 842 839 844
f 842 844 843
f 842 843 841
f 842 825 827
f 842 841 825
f 834 826 825
f 834 825 833
f 835 841 843
f 835 833 841
f 836 829 830
f 836 835 829
f 836 847 845
f 836 845 834
f 836 834 833
f 836 833 835
o Mat_Rivet_41
usemtl copper
v -1.096000 -0.370000 1.948000
v -1.091314 -0.381314 1.948000
v -1.080000 -0.386000 1.948000
v -1.068686 -0.381314 1.948000
v -1.064000 -0.370000 1.948000
v -1.068686 -0.358686 1.948000
v -1.080000 -0.354000 1.948000
v -1.091314 -0.358686 1.948000
v -1.096000 -0.370000 1.962000
v -1.091314 -0.381314 1.962000
v -1.080000 -0.386000 1.962000
v -1.068686 -0.381314 1.962000
v -1.064000 -0.370000 1.962000
v -1.068686 -0.358686 1.962000
v -1.080000 -0.354000 1.962000
v -1.091314 -0.358686 1.962000
f 859 851 852
f 859 852 860
f 854 849 856
f 854 850 849
f 854 853 852
f 854 851 850
f 854 856 855
f 854 852 851
f 861 852 853
f 861 860 852
f 861 853 854
f 861 854 862
f 863 862 854
f 863 854 855
f 858 849 850
f 858 857 849
f 858 850 851
f 858 851 859
f 864 860 861
f 864 862 863
f 864 859 860
f 864 861 862
f 864 857 858
f 864 858 859
f 864 856 849
f 864 849 857
f 864 855 856
f 864 863 855
o Mat_Rivet_42
usemtl copper
v -1.096000 0.330000 1.948000
v -1.091314 0.318686 1.948000
v -1.080000 0.314000 1.948000
v -1.068686 0.318686 1.948000
v -1.064000 0.330000 1.948000
v -1.068686 0.341314 1.948000
v -1.080000 0.346000 1.948000
v -1.091314 0.341314 1.948000
v -1.096000 0.330000 1.962000
v -1.091314 0.318686 1.962000
v -1.080000 0.314000 1.962000
v -1.068686 0.318686 1.962000
v -1.064000 0.330000 1.962000
v -1.068686 0.341314 1.962000
v -1.080000 0.346000 1.962000
v -1.091314 0.341314 1.962000
f 874 865 866
f 874 873 865
f 870 865 872
f 870 866 865
f 870 869 868
f 870 867 866
f 870 872 871
f 870 868 867
f 877 868 869
f 877 876 868
f 877 869 870
f 877 870 878
f 879 878 870
f 879 870 871
f 875 867 868
f 875 868 876
f 875 866 867
f 875 874 866
f 880 876 877
f 880 873 874
f 880 878 879
f 880 877 878
f 880 875 876
f 880 874 875
f 880 872 865
f 880 865 873
f 880 871 872
f 880 879 871
o Mat_Rivet_43
usemtl copper
v -0.336000 -0.370000 1.948000
v -0.331314 -0.381314 1.948000
v -0.320000 -0.386000 1.948000
v -0.308686 -0.381314 1.948000
v -0.304000 -0.370000 1.948000
v -0.308686 -0.358686 1.948000
v -0.320000 -0.354000 1.948000
v -0.331314 -0.358686 1.948000
v -0.336000 -0.370000 1.962000
v -0.331314 -0.381314 1.962000
v -0.320000 -0.386000 1.962000
v -0.308686 -0.381314 1.962000
v -0.304000 -0.370000 1.962000
v -0.308686 -0.358686 1.962000
v -0.320000 -0.354000 1.962000
v -0.331314 -0.358686 1.962000
f 890 881 882
f 890 889 881
f 886 881 888
f 886 882 881
f 886 885 884
f 886 883 882
f 886 888 887
f 886 884 883
f 893 884 885
f 893 892 884
f 893 885 886
f 893 886 894
f 895 894 886
f 895 886 887
f 891 883 884
f 891 884 892
f 891 882 883
f 891 890 882
f 896 892 893
f 896 889 890
f 896 894 895
f 896 893 894
f 896 891 892
f 896 890 891
f 896 888 881
f 896 881 889
f 896 887 888
f 896 895 887
o Mat_Rivet_44
usemtl copper
v -0.336000 0.330000 1.948000
v -0.331314 0.318686 1.948000
v -0.320000 0.314000 1.948000
v -0.308686 0.318686 1.948000
v -0.304000 0.330000 1.948000
v -0.308686 0.341314 1.948000
v -0.320000 0.346000 1.948000
v -0.331314 0.341314 1.948000
v -0.336000 0.330000 1.962000
v -0.331314 0.318686 1.962000
v -0.320000 0.314000 1.962000
v -0.308686 0.318686 1.962000
v -0.304000 0.330000 1.962000
v -0.308686 0.341314 1.962000
v -0.320000 0.346000 1.962000
v -0.331314 0.341314 1.962000
f 906 897 898
f 906 905 897
f 902 897 904
f 902 898 897
f 902 901 900
f 902 899 898
f 902 904 903
f 902 900 899
f 909 900 901
f 909 908 900
f 909 901 902
f 909 902 910
f 912 904 897
f 912 897 905
f 907 899 900
f 907 900 908
f 907 898 899
f 907 906 898
f 911 908 909
f 911 905 906
f 911 912 905
f 911 909 910
f 911 907 908
f 911 906 907
f 911 910 902
f 911 902 903
f 911 903 904
f 911 904 912
o Hammer_Handle_45
usemtl woodlight
v -0.950006 -0.306465 2.002000
v -0.958791 -0.298713 1.973716
v -0.980000 -0.280000 1.962000
v -1.001209 -0.261287 1.973716
v -1.009994 -0.253535 2.002000
v -1.001209 -0.261287 2.030284
v -0.980000 -0.280000 2.042000
v -0.958791 -0.298713 2.030284
v -0.500006 0.203535 2.002000
v -0.508791 0.211287 1.973716
v -0.530000 0.230000 1.962000
v -0.551209 0.248713 1.973716
v -0.559994 0.256465 2.002000
v -0.551209 0.248713 2.030284
v -0.530000 0.230000 2.042000
v -0.508791 0.211287 2.030284
f 923 915 916
f 923 916 924
f 918 913 920
f 918 914 913
f 918 917 916
f 918 915 914
f 918 916 915
f 918 920 919
f 925 916 917
f 925 924 916
f 925 917 918
f 925 918 926
f 928 920 913
f 928 913 921
f 922 913 914
f 922 921 913
f 922 914 915
f 922 915 923
f 927 924 925
f 927 928 921
f 927 923 924
f 927 925 926
f 927 921 922
f 927 922 923
f 927 926 918
f 927 918 919
f 927 919 920
f 927 920 928
o Hammer_Head_46
usemtl edge
v -0.700000 0.185000 2.015000
v -0.700000 0.185000 2.105000
v -0.700000 0.275000 2.015000
v -0.700000 0.275000 2.105000
v -0.360000 0.185000 2.015000
v -0.360000 0.185000 2.105000
v -0.360000 0.275000 2.015000
v -0.360000 0.275000 2.105000
v -0.675000 0.160000 2.015000
v -0.675000 0.160000 2.105000
v -0.385000 0.160000 2.015000
v -0.385000 0.160000 2.105000
v -0.675000 0.300000 2.015000
v -0.675000 0.300000 2.105000
v -0.385000 0.300000 2.015000
v -0.385000 0.300000 2.105000
v -0.675000 0.185000 1.990000
v -0.675000 0.275000 1.990000
v -0.385000 0.185000 1.990000
v -0.385000 0.275000 1.990000
v -0.675000 0.185000 2.130000
v -0.675000 0.275000 2.130000
v -0.385000 0.185000 2.130000
v -0.385000 0.275000 2.130000
f 937 929 945
f 944 952 936
f 950 942 932
f 946 931 941
f 935 948 943
f 940 934 951
f 938 949 930
f 939 947 933
f 931 929 930
f 931 930 932
f 942 931 932
f 942 941 931
f 944 941 942
f 944 943 941
f 950 932 930
f 950 930 949
f 950 949 951
f 950 951 952
f 950 944 942
f 950 952 944
f 934 952 951
f 934 936 952
f 946 943 948
f 946 941 943
f 946 947 945
f 946 948 947
f 946 929 931
f 946 945 929
f 935 943 944
f 935 944 936
f 935 936 934
f 935 934 933
f 935 947 948
f 935 933 947
f 938 930 929
f 938 929 937
f 938 951 949
f 938 940 951
f 939 933 934
f 939 934 940
f 939 945 947
f 939 937 945
f 939 938 937
f 939 940 938
o Tongs_Left0_47
usemtl dark
v -1.034673 0.299574 1.980000
v -1.027337 0.304787 1.964412
v -1.012663 0.315213 1.964412
v -1.005327 0.320426 1.980000
v -1.012663 0.315213 1.995588
v -1.027337 0.304787 1.995588
v -0.764673 -0.080426 1.980000
v -0.757337 -0.075213 1.964412
v -0.742663 -0.064787 1.964412
v -0.735327 -0.059574 1.980000
v -0.742663 -0.064787 1.995588
v -0.757337 -0.075213 1.995588
f 963 956 957
f 963 962 956
f 963 957 958
f 963 958 964
f 955 957 956
f 955 954 953
f 955 953 958
f 955 958 957
f 959 958 953
f 959 964 958
f 959 953 954
f 959 954 960
f 961 962 963
f 961 963 964
f 961 964 959
f 961 959 960
f 961 956 962
f 961 955 956
f 961 954 955
f 961 960 954
o Tongs_Left1_48
usemtl dark
v -0.761672 -0.083702 1.980000
v -0.755836 -0.076851 1.964412
v -0.744164 -0.063149 1.964412
v -0.738328 -0.056298 1.980000
v -0.744164 -0.063149 1.995588
v -0.755836 -0.076851 1.995588
v -0.491672 -0.313702 1.980000
v -0.485836 -0.306851 1.964412
v -0.474164 -0.293149 1.964412
v -0.468328 -0.286298 1.980000
v -0.474164 -0.293149 1.995588
v -0.485836 -0.306851 1.995588
f 972 971 965
f 972 965 966
f 975 968 969
f 975 974 968
f 973 967 968
f 973 968 974
f 973 972 966
f 973 966 967
f 970 966 965
f 970 967 966
f 970 969 968
f 970 968 967
f 976 971 972
f 976 974 975
f 976 973 974
f 976 972 973
f 976 965 971
f 976 970 965
f 976 975 969
f 976 969 970
o Tongs_Right0_49
usemtl dark
v -0.807926 0.368370 1.990000
v -0.798963 0.369185 1.974412
v -0.781037 0.370815 1.974412
v -0.772074 0.371630 1.990000
v -0.781037 0.370815 2.005588
v -0.798963 0.369185 2.005588
v -0.767926 -0.071630 1.990000
v -0.758963 -0.070815 1.974412
v -0.741037 -0.069185 1.974412
v -0.732074 -0.068370 1.990000
v -0.741037 -0.069185 2.005588
v -0.758963 -0.070815 2.005588
f 984 983 977
f 984 977 978
f 987 980 981
f 987 986 980
f 985 979 980
f 985 980 986
f 985 984 978
f 985 978 979
f 988 983 984
f 988 986 987
f 988 985 986
f 988 984 985
f 982 978 977
f 982 979 978
f 982 981 980
f 982 980 979
f 982 977 983
f 982 983 988
f 982 987 981
f 982 988 987
o Tongs_Right1_50
usemtl dark
v -0.766900 -0.076197 1.990000
v -0.758450 -0.073098 1.974412
v -0.741550 -0.066902 1.974412
v -0.733100 -0.063803 1.990000
v -0.741550 -0.066902 2.005588
v -0.758450 -0.073098 2.005588
v -0.656900 -0.376197 1.990000
v -0.648450 -0.373098 1.974412
v -0.631550 -0.366902 1.974412
v -0.623100 -0.363803 1.990000
v -0.631550 -0.366902 2.005588
v -0.648450 -0.373098 2.005588
f 996 989 990
f 996 995 989
f 999 992 993
f 999 998 992
f 997 991 992
f 997 992 998
f 997 990 991
f 997 996 990
f 994 992 991
f 994 991 990
f 994 990 989
f 994 993 992
f 1000 995 996
f 1000 998 999
f 1000 997 998
f 1000 996 997
f 1000 989 995
f 1000 994 989
f 1000 999 993
f 1000 993 994
o Tongs_Pin_51
usemtl copper
v -0.782000 -0.070000 1.980000
v -0.772627 -0.092627 1.980000
v -0.750000 -0.102000 1.980000
v -0.727373 -0.092627 1.980000
v -0.718000 -0.070000 1.980000
v -0.727373 -0.047373 1.980000
v -0.750000 -0.038000 1.980000
v -0.772627 -0.047373 1.980000
v -0.782000 -0.070000 2.014000
v -0.772627 -0.092627 2.014000
v -0.750000 -0.102000 2.014000
v -0.727373 -0.092627 2.014000
v -0.718000 -0.070000 2.014000
v -0.727373 -0.047373 2.014000
v -0.750000 -0.038000 2.014000
v -0.772627 -0.047373 2.014000
f 1011 1003 1004
f 1011 1004 1012
f 1006 1002 1001
f 1006 1005 1004
f 1006 1001 1008
f 1006 1003 1002
f 1006 1004 1003
f 1006 1008 1007
f 1013 1004 1005
f 1013 1012 1004
f 1013 1005 1006
f 1013 1006 1014
f 1016 1008 1001
f 1016 1001 1009
f 1010 1001 1002
f 1010 1009 1001
f 1010 1002 1003
f 1010 1003 1011
f 1015 1012 1013
f 1015 1011 1012
f 1015 1016 1009
f 1015 1013 1014
f 1015 1009 1010
f 1015 1010 1011
f 1015 1014 1006
f 1015 1006 1007
f 1015 1007 1008
f 1015 1008 1016
o Vise_Fixed_52
usemtl stone
v 0.750000 -0.855000 1.660000
v 0.750000 -0.855000 1.940000
v 0.750000 -0.745000 1.660000
v 0.750000 -0.745000 1.940000
v 1.150000 -0.855000 1.660000
v 1.150000 -0.855000 1.940000
v 1.150000 -0.745000 1.660000
v 1.150000 -0.745000 1.940000
v 0.770000 -0.875000 1.660000
v 0.770000 -0.875000 1.940000
v 1.130000 -0.875000 1.660000
v 1.130000 -0.875000 1.940000
v 0.770000 -0.725000 1.660000
v 0.770000 -0.725000 1.940000
v 1.130000 -0.725000 1.660000
v 1.130000 -0.725000 1.940000
v 0.770000 -0.855000 1.640000
v 0.770000 -0.745000 1.640000
v 1.130000 -0.855000 1.640000
v 1.130000 -0.745000 1.640000
v 0.770000 -0.855000 1.960000
v 0.770000 -0.745000 1.960000
v 1.130000 -0.855000 1.960000
v 1.130000 -0.745000 1.960000
f 1025 1017 1033
f 1038 1030 1020
f 1023 1036 1031
f 1034 1019 1029
f 1040 1024 1032
f 1028 1022 1039
f 1026 1037 1018
f 1027 1035 1021
f 1019 1017 1018
f 1019 1018 1020
f 1030 1032 1031
f 1030 1031 1029
f 1030 1019 1020
f 1030 1029 1019
f 1038 1020 1018
f 1038 1018 1037
f 1023 1035 1036
f 1023 1021 1035
f 1023 1031 1032
f 1023 1032 1024
f 1034 1029 1031
f 1034 1031 1036
f 1034 1036 1035
f 1034 1035 1033
f 1034 1017 1019
f 1034 1033 1017
f 1022 1021 1023
f 1022 1023 1024
f 1040 1022 1024
f 1040 1039 1022
f 1040 1032 1030
f 1040 1030 1038
f 1040 1038 1037
f 1040 1037 1039
f 1026 1018 1017
f 1026 1017 1025
f 1026 1039 1037
f 1026 1028 1039
f 1027 1021 1022
f 1027 1022 1028
f 1027 1033 1035
f 1027 1025 1033
f 1027 1026 1025
f 1027 1028 1026
o Vise_Moving_53
usemtl dark
v 0.750000 -1.080000 1.665000
v 0.750000 -1.080000 1.935000
v 0.750000 -1.010000 1.665000
v 0.750000 -1.010000 1.935000
v 1.150000 -1.080000 1.665000
v 1.150000 -1.080000 1.935000
v 1.150000 -1.010000 1.665000
v 1.150000 -1.010000 1.935000
v 0.775000 -1.105000 1.665000
v 0.775000 -1.105000 1.935000
v 1.125000 -1.105000 1.665000
v 1.125000 -1.105000 1.935000
v 0.775000 -0.985000 1.665000
v 0.775000 -0.985000 1.935000
v 1.125000 -0.985000 1.665000
v 1.125000 -0.985000 1.935000
v 0.775000 -1.080000 1.640000
v 0.775000 -1.010000 1.640000
v 1.125000 -1.080000 1.640000
v 1.125000 -1.010000 1.640000
v 0.775000 -1.080000 1.960000
v 0.775000 -1.010000 1.960000
v 1.125000 -1.080000 1.960000
v 1.125000 -1.010000 1.960000
f 1049 1041 1057
f 1062 1054 1044
f 1047 1060 1055
f 1058 1043 1053
f 1064 1048 1056
f 1052 1046 1063
f 1050 1061 1042
f 1051 1059 1045
f 1043 1041 1042
f 1043 1042 1044
f 1054 1056 1055
f 1054 1055 1053
f 1054 1043 1044
f 1054 1053 1043
f 1062 1044 1042
f 1062 1042 1061
f 1047 1059 1060
f 1047 1045 1059
f 1047 1055 1056
f 1047 1056 1048
f 1058 1053 1055
f 1058 1055 1060
f 1058 1060 1059
f 1058 1059 1057
f 1058 1041 1043
f 1058 1057 1041
f 1046 1045 1047
f 1046 1047 1048
f 1064 1046 1048
f 1064 1063 1046
f 1064 1056 1054
f 1064 1054 1062
f 1064 1062 1061
f 1064 1061 1063
f 1050 1042 1041
f 1050 1041 1049
f 1050 1063 1061
f 1050 1052 1063
f 1051 1045 1046
f 1051 1046 1052
f 1051 1057 1059
f 1051 1049 1057
f 1051 1050 1049
f 1051 1052 1050
o Vise_Screw_54
usemtl edge
v 0.995000 -1.250000 1.750000
v 0.986406 -1.250000 1.723550
v 0.963906 -1.250000 1.707202
v 0.936094 -1.250000 1.707202
v 0.913594 -1.250000 1.723550
v 0.905000 -1.250000 1.750000
v 0.913594 -1.250000 1.776450
v 0.936094 -1.250000 1.792798
v 0.963906 -1.250000 1.792798
v 0.986406 -1.250000 1.776450
v 0.995000 -0.660000 1.750000
v 0.986406 -0.660000 1.723550
v 0.963906 -0.660000 1.707202
v 0.936094 -0.660000 1.707202
v 0.913594 -0.660000 1.723550
v 0.905000 -0.660000 1.750000
v 0.913594 -0.660000 1.776450
v 0.936094 -0.660000 1.792798
v 0.963906 -0.660000 1.792798
v 0.986406 -0.660000 1.776450
f 1077 1067 1068
f 1077 1068 1078
f 1076 1065 1066
f 1076 1075 1065
f 1076 1066 1067
f 1076 1067 1077
f 1080 1070 1071
f 1080 1071 1081
f 1073 1070 1069
f 1073 1066 1065
f 1073 1065 1074
f 1073 1067 1066
f 1073 1068 1067
f 1073 1071 1070
f 1073 1069 1068
f 1073 1072 1071
f 1084 1074 1065
f 1084 1065 1075
f 1084 1073 1074
f 1084 1083 1073
f 1082 1071 1072
f 1082 1081 1071
f 1082 1072 1073
f 1082 1073 1083
f 1079 1081 1082
f 1079 1075 1076
f 1079 1077 1078
f 1079 1084 1075
f 1079 1076 1077
f 1079 1080 1081
f 1079 1083 1084
f 1079 1082 1083
f 1079 1078 1068
f 1079 1068 1069
f 1079 1069 1070
f 1079 1070 1080
o Vise_Handle_55
usemtl copper
v 0.750000 -1.245000 1.610000
v 0.760137 -1.237678 1.595518
v 0.764337 -1.220000 1.589519
v 0.760137 -1.202322 1.595518
v 0.750000 -1.195000 1.610000
v 0.739863 -1.202322 1.624482
v 0.735663 -1.220000 1.630481
v 0.739863 -1.237678 1.624482
v 1.150000 -1.245000 1.890000
v 1.160137 -1.237678 1.875518
v 1.164337 -1.220000 1.869519
v 1.160137 -1.202322 1.875518
v 1.150000 -1.195000 1.890000
v 1.139863 -1.202322 1.904482
v 1.135663 -1.220000 1.910481
v 1.139863 -1.237678 1.904482
f 1093 1092 1085
f 1093 1100 1092
f 1086 1092 1091
f 1086 1089 1088
f 1086 1091 1090
f 1086 1085 1092
f 1086 1090 1089
f 1086 1088 1087
f 1086 1093 1085
f 1086 1094 1093
f 1086 1095 1094
f 1086 1087 1095
f 1099 1091 1092
f 1099 1092 1100
f 1099 1090 1091
f 1099 1098 1090
f 1097 1089 1090
f 1097 1090 1098
f 1096 1094 1095
f 1096 1100 1093
f 1096 1093 1094
f 1096 1099 1100
f 1096 1098 1099
f 1096 1097 1098
f 1096 1087 1088
f 1096 1095 1087
f 1096 1088 1089
f 1096 1089 1097
o Copper_Ingot_56
usemtl copper
v -0.730000 -0.150000 0.580000
v -0.730000 -0.150000 0.700000
v -0.730000 0.150000 0.580000
v -0.730000 0.150000 0.700000
v -0.410000 -0.150000 0.580000
v -0.410000 -0.150000 0.700000
v -0.410000 0.150000 0.580000
v -0.410000 0.150000 0.700000
v -0.690000 -0.190000 0.580000
v -0.690000 -0.190000 0.700000
v -0.450000 -0.190000 0.580000
v -0.450000 -0.190000 0.700000
v -0.690000 0.190000 0.580000
v -0.690000 0.190000 0.700000
v -0.450000 0.190000 0.580000
v -0.450000 0.190000 0.700000
v -0.690000 -0.150000 0.540000
v -0.690000 0.150000 0.540000
v -0.450000 -0.150000 0.540000
v -0.450000 0.150000 0.540000
v -0.690000 -0.150000 0.740000
v -0.690000 0.150000 0.740000
v -0.450000 -0.150000 0.740000
v -0.450000 0.150000 0.740000
f 1122 1114 1104
f 1109 1101 1117
f 1108 1116 1124
f 1118 1103 1113
f 1115 1107 1120
f 1110 1121 1102
f 1111 1119 1105
f 1112 1106 1123
f 1103 1101 1102
f 1103 1102 1104
f 1114 1103 1104
f 1114 1113 1103
f 1122 1121 1123
f 1122 1123 1124
f 1122 1102 1121
f 1122 1104 1102
f 1116 1122 1124
f 1116 1114 1122
f 1120 1105 1119
f 1120 1107 1105
f 1108 1124 1123
f 1108 1123 1106
f 1108 1105 1107
f 1108 1106 1105
f 1118 1101 1103
f 1118 1117 1101
f 1118 1120 1119
f 1118 1119 1117
f 1115 1113 1114
f 1115 1114 1116
f 1115 1120 1118
f 1115 1118 1113
f 1115 1108 1107
f 1115 1116 1108
f 1110 1102 1101
f 1110 1101 1109
f 1111 1117 1119
f 1111 1109 1117
f 1112 1105 1106
f 1112 1111 1105
f 1112 1123 1121
f 1112 1121 1110
f 1112 1110 1109
f 1112 1109 1111
o Copper_Ingot_57
usemtl copper
v -0.310000 -0.150000 0.580000
v -0.310000 -0.150000 0.700000
v -0.310000 0.150000 0.580000
v -0.310000 0.150000 0.700000
v 0.010000 -0.150000 0.580000
v 0.010000 -0.150000 0.700000
v 0.010000 0.150000 0.580000
v 0.010000 0.150000 0.700000
v -0.270000 -0.190000 0.580000
v -0.270000 -0.190000 0.700000
v -0.030000 -0.190000 0.580000
v -0.030000 -0.190000 0.700000
v -0.270000 0.190000 0.580000
v -0.270000 0.190000 0.700000
v -0.030000 0.190000 0.580000
v -0.030000 0.190000 0.700000
v -0.270000 -0.150000 0.540000
v -0.270000 0.150000 0.540000
v -0.030000 -0.150000 0.540000
v -0.030000 0.150000 0.540000
v -0.270000 -0.150000 0.740000
v -0.270000 0.150000 0.740000
v -0.030000 -0.150000 0.740000
v -0.030000 0.150000 0.740000
f 1146 1138 1128
f 1133 1125 1141
f 1132 1140 1148
f 1142 1127 1137
f 1139 1131 1144
f 1134 1145 1126
f 1135 1143 1129
f 1136 1130 1147
f 1127 1125 1126
f 1127 1126 1128
f 1138 1127 1128
f 1138 1137 1127
f 1146 1145 1147
f 1146 1147 1148
f 1146 1126 1145
f 1146 1128 1126
f 1140 1146 1148
f 1140 1138 1146
f 1144 1129 1143
f 1144 1131 1129
f 1132 1148 1147
f 1132 1147 1130
f 1132 1129 1131
f 1132 1130 1129
f 1142 1125 1127
f 1142 1141 1125
f 1142 1144 1143
f 1142 1143 1141
f 1139 1137 1138
f 1139 1138 1140
f 1139 1144 1142
f 1139 1142 1137
f 1139 1132 1131
f 1139 1140 1132
f 1134 1126 1125
f 1134 1125 1133
f 1135 1141 1143
f 1135 1133 1141
f 1136 1129 1130
f 1136 1135 1129
f 1136 1147 1145
f 1136 1145 1134
f 1136 1134 1133
f 1136 1133 1135
o Copper_Ingot_58
usemtl copper
v 0.110000 -0.150000 0.580000
v 0.110000 -0.150000 0.700000
v 0.110000 0.150000 0.580000
v 0.110000 0.150000 0.700000
v 0.430000 -0.150000 0.580000
v 0.430000 -0.150000 0.700000
v 0.430000 0.150000 0.580000
v 0.430000 0.150000 0.700000
v 0.150000 -0.190000 0.580000
v 0.150000 -0.190000 0.700000
v 0.390000 -0.190000 0.580000
v 0.390000 -0.190000 0.700000
v 0.150000 0.190000 0.580000
v 0.150000 0.190000 0.700000
v 0.390000 0.190000 0.580000
v 0.390000 0.190000 0.700000
v 0.150000 -0.150000 0.540000
v 0.150000 0.150000 0.540000
v 0.390000 -0.150000 0.540000
v 0.390000 0.150000 0.540000
v 0.150000 -0.150000 0.740000
v 0.150000 0.150000 0.740000
v 0.390000 -0.150000 0.740000
v 0.390000 0.150000 0.740000
f 1170 1162 1152
f 1157 1149 1165
f 1156 1164 1172
f 1166 1151 1161
f 1163 1155 1168
f 1158 1169 1150
f 1159 1167 1153
f 1160 1154 1171
f 1151 1149 1150
f 1151 1150 1152
f 1162 1151 1152
f 1162 1161 1151
f 1170 1169 1171
f 1170 1171 1172
f 1170 1150 1169
f 1170 1152 1150
f 1164 1170 1172
f 1164 1162 1170
f 1168 1153 1167
f 1168 1155 1153
f 1156 1172 1171
f 1156 1171 1154
f 1156 1153 1155
f 1156 1154 1153
f 1166 1149 1151
f 1166 1165 1149
f 1166 1168 1167
f 1166 1167 1165
f 1163 1161 1162
f 1163 1162 1164
f 1163 1168 1166
f 1163 1166 1161
f 1163 1156 1155
f 1163 1164 1156
f 1158 1150 1149
f 1158 1149 1157
f 1159 1165 1167
f 1159 1157 1165
f 1160 1153 1154
f 1160 1159 1153
f 1160 1171 1169
f 1160 1169 1158
f 1160 1158 1157
f 1160 1157 1159