{"asset":{"version":"2.0","generator":"RIFTBOUND procedural asset builder"},"scene":0,"scenes":[{"nodes":[0,1,2,3,4,5,6,7,8,9,10,11,12,13,14,15,16,17,18,19,20,21,22,23,24,25,26,27,28,29,30,31,32,33,34,35,36,37,38,39,40,41,42,43,44,45,46,47,48,49,50,51,52,53,54,55,56,57]}],"nodes":[{"name":"Bark_Log_0","mesh":0,"translation":[-0.325,0.34430748266422734,-0.0]},{"name":"Cut_Endgrain_1","mesh":1,"translation":[-0.32500000000000007,0.34430748266422734,1.1669999999999991]},{"name":"Growth_Ring_2","mesh":2,"translation":[-0.32499999999999984,0.34430748266422717,1.18]},{"name":"Growth_Ring_3","mesh":3,"translation":[-0.3249999999999999,0.34430748266422745,1.18]},{"name":"Growth_Ring_4","mesh":4,"translation":[-0.32500000000000007,0.3443074826642274,1.18]},{"name":"Endgrain_Crack0_5","mesh":5,"translation":[-0.2175,0.19930748266422735,1.1829999999999998]},{"name":"Endgrain_Crack1_6","mesh":6,"translation":[-0.244,0.29180748266422735,1.1829999999999998]},{"name":"Cut_Endgrain_7","mesh":7,"translation":[-0.325,0.34430748266422734,-1.1669999999999991]},{"name":"Growth_Ring_8","mesh":8,"translation":[-0.32499999999999984,0.34430748266422717,-1.18]},{"name":"Growth_Ring_9","mesh":9,"translation":[-0.3249999999999999,0.34430748266422745,-1.18]},{"name":"Growth_Ring_10","mesh":10,"translation":[-0.32500000000000007,0.3443074826642274,-1.18]},{"name":"Endgrain_Crack0_11","mesh":11,"translation":[-0.2175,0.19930748266422735,-1.1829999999999998]},{"name":"Endgrain_Crack1_12","mesh":12,"translation":[-0.244,0.29180748266422735,-1.1829999999999998]},{"name":"Bark_Ridge_13","mesh":13,"translation":[-0.010000000000000012,0.34430748266422734,4.4408920985006264e-17]},{"name":"Bark_Ridge_14","mesh":14,"translation":[-0.12919285999474073,0.5910554591968847,4.4408920985006264e-17]},{"name":"Bark_Ridge_15","mesh":15,"translation":[-0.48402652294895515,0.6162184331586226,4.4408920985006264e-17]},{"name":"Bark_Ridge_16","mesh":16,"translation":[-0.6295414306625301,0.26381203552577553,4.4408920985006264e-17]},{"name":"Bark_Ridge_17","mesh":17,"translation":[-0.39140067682069557,0.03638549559972177,4.4408920985006264e-17]},{"name":"Bark_Log_18","mesh":18,"translation":[0.325,0.34430748266422734,-5.551115123125783e-17]},{"name":"Cut_Endgrain_19","mesh":19,"translation":[0.325,0.34430748266422734,1.087]},{"name":"Growth_Ring_20","mesh":20,"translation":[0.32499999999999973,0.34430748266422717,1.1000000000000003]},{"name":"Growth_Ring_21","mesh":21,"translation":[0.3249999999999999,0.34430748266422745,1.1000000000000003]},{"name":"Growth_Ring_22","mesh":22,"translation":[0.3249999999999999,0.3443074826642274,1.1000000000000003]},{"name":"Endgrain_Crack0_23","mesh":23,"translation":[0.43249999999999994,0.19930748266422735,1.103]},{"name":"Endgrain_Crack1_24","mesh":24,"translation":[0.4060000000000001,0.29180748266422735,1.103]},{"name":"Cut_Endgrain_25","mesh":25,"translation":[0.32500000000000007,0.34430748266422734,-1.087]},{"name":"Growth_Ring_26","mesh":26,"translation":[0.32499999999999973,0.34430748266422717,-1.1000000000000003]},{"name":"Growth_Ring_27","mesh":27,"translation":[0.3249999999999999,0.34430748266422745,-1.1000000000000003]},{"name":"Growth_Ring_28","mesh":28,"translation":[0.3249999999999999,0.3443074826642274,-1.1000000000000003]},{"name":"Endgrain_Crack0_29","mesh":29,"translation":[0.43249999999999994,0.19930748266422735,-1.103]},{"name":"Endgrain_Crack1_30","mesh":30,"translation":[0.4060000000000001,0.29180748266422735,-1.103]},{"name":"Bark_Ridge_31","mesh":31,"translation":[0.6399999999999999,0.34430748266422734,-0.0]},{"name":"Bark_Ridge_32","mesh":32,"translation":[0.5208071400052592,0.5910554591968847,-0.0]},{"name":"Bark_Ridge_33","mesh":33,"translation":[0.1659734770510449,0.6162184331586226,-0.0]},{"name":"Bark_Ridge_34","mesh":34,"translation":[0.020458569337469756,0.26381203552577553,-0.0]},{"name":"Bark_Ridge_35","mesh":35,"translation":[0.2585993231793044,0.03638549559972177,-0.0]},{"name":"Bark_Log_36","mesh":36,"translation":[-1.3877787807814457e-17,0.9043074826642273,-4.625929269271486e-17]},{"name":"Cut_Endgrain_37","mesh":37,"translation":[1.9660199394403815e-17,0.9043074826642274,1.0069999999999995]},{"name":"Growth_Ring_38","mesh":38,"translation":[2.8912057932946783e-19,0.904307482664228,1.0200000000000002]},{"name":"Growth_Ring_39","mesh":39,"translation":[-9.25185853854297e-18,0.9043074826642273,1.0200000000000002]},{"name":"Growth_Ring_40","mesh":40,"translation":[-6.938893903907228e-18,0.904307482664228,1.0200000000000002]},{"name":"Endgrain_Crack0_41","mesh":41,"translation":[0.1075,0.7593074826642274,1.023]},{"name":"Endgrain_Crack1_42","mesh":42,"translation":[0.081,0.8518074826642272,1.023]},{"name":"Cut_Endgrain_43","mesh":43,"translation":[-1.9660199394403815e-17,0.9043074826642274,-1.0069999999999995]},{"name":"Growth_Ring_44","mesh":44,"translation":[2.8912057932946783e-19,0.904307482664228,-1.0200000000000005]},{"name":"Growth_Ring_45","mesh":45,"translation":[-9.25185853854297e-18,0.9043074826642273,-1.0200000000000005]},{"name":"Growth_Ring_46","mesh":46,"translation":[-6.938893903907228e-18,0.904307482664228,-1.0200000000000005]},{"name":"Endgrain_Crack0_47","mesh":47,"translation":[0.1075,0.7593074826642274,-1.023]},{"name":"Endgrain_Crack1_48","mesh":48,"translation":[0.081,0.8518074826642272,-1.023]},{"name":"Bark_Ridge_49","mesh":49,"translation":[0.315,0.9043074826642272,-4.4408920985006264e-17]},{"name":"Bark_Ridge_50","mesh":50,"translation":[0.19580714000525923,1.1510554591968847,-4.4408920985006264e-17]},{"name":"Bark_Ridge_51","mesh":51,"translation":[-0.15902652294895517,1.1762184331586225,-4.4408920985006264e-17]},{"name":"Bark_Ridge_52","mesh":52,"translation":[-0.3045414306625302,0.8238120355257756,-4.4408920985006264e-17]},{"name":"Bark_Ridge_53","mesh":53,"translation":[-0.06640067682069559,0.5963854955997218,-4.4408920985006264e-17]},{"name":"Bundle_Rope_54","mesh":54,"translation":[-3.23815048849004e-17,0.5551408159975605,0.5999999999999998]},{"name":"Rope_Knot_55","mesh":55,"translation":[0.019999999999999993,1.2513074826642279,0.6000000000000001]},{"name":"Bundle_Rope_56","mesh":56,"translation":[-3.23815048849004e-17,0.5551408159975605,-0.5400000000000001]},{"name":"Rope_Knot_57","mesh":57,"translation":[0.019999999999999993,1.2513074826642279,-0.5400000000000001]}],"meshes":[{"name":"Bark_Log_0","primitives":[{"attributes":{"POSITION":0,"NORMAL":1},"material":10}]},{"name":"Cut_Endgrain_1","primitives":[{"attributes":{"POSITION":2,"NORMAL":3},"material":4}]},{"name":"Growth_Ring_2","primitives":[{"attributes":{"POSITION":4,"NORMAL":5},"material":3}]},{"name":"Growth_Ring_3","primitives":[{"attributes":{"POSITION":6,"NORMAL":7},"material":3}]},{"name":"Growth_Ring_4","primitives":[{"attributes":{"POSITION":8,"NORMAL":9},"material":3}]},{"name":"Endgrain_Crack0_5","primitives":[{"attributes":{"POSITION":10,"NORMAL":11},"material":10}]},{"name":"Endgrain_Crack1_6","primitives":[{"attributes":{"POSITION":12,"NORMAL":13},"material":10}]},{"name":"Cut_Endgrain_7","primitives":[{"attributes":{"POSITION":14,"NORMAL":15},"material":4}]},{"name":"Growth_Ring_8","primitives":[{"attributes":{"POSITION":16,"NORMAL":17},"material":3}]},{"name":"Growth_Ring_9","primitives":[{"attributes":{"POSITION":18,"NORMAL":19},"material":3}]},{"name":"Growth_Ring_10","primitives":[{"attributes":{"POSITION":20,"NORMAL":21},"material":3}]},{"name":"Endgrain_Crack0_11","primitives":[{"attributes":{"POSITION":22,"NORMAL":23},"material":10}]},{"name":"Endgrain_Crack1_12","primitives":[{"attributes":{"POSITION":24,"NORMAL":25},"material":10}]},{"name":"Bark_Ridge_13","primitives":[{"attributes":{"POSITION":26,"NORMAL":27},"material":3}]},{"name":"Bark_Ridge_14","primitives":[{"attributes":{"POSITION":28,"NORMAL":29},"material":3}]},{"name":"Bark_Ridge_15","primitives":[{"attributes":{"POSITION":30,"NORMAL":31},"material":3}]},{"name":"Bark_Ridge_16","primitives":[{"attributes":{"POSITION":32,"NORMAL":33},"material":3}]},{"name":"Bark_Ridge_17","primitives":[{"attributes":{"POSITION":34,"NORMAL":35},"material":3}]},{"name":"Bark_Log_18","primitives":[{"attributes":{"POSITION":36,"NORMAL":37},"material":10}]},{"name":"Cut_Endgrain_19","primitives":[{"attributes":{"POSITION":38,"NORMAL":39},"material":4}]},{"name":"Growth_Ring_20","primitives":[{"attributes":{"POSITION":40,"NORMAL":41},"material":3}]},{"name":"Growth_Ring_21","primitives":[{"attributes":{"POSITION":42,"NORMAL":43},"material":3}]},{"name":"Growth_Ring_22","primitives":[{"attributes":{"POSITION":44,"NORMAL":45},"material":3}]},{"name":"Endgrain_Crack0_23","primitives":[{"attributes":{"POSITION":46,"NORMAL":47},"material":10}]},{"name":"Endgrain_Crack1_24","primitives":[{"attributes":{"POSITION":48,"NORMAL":49},"material":10}]},{"name":"Cut_Endgrain_25","primitives":[{"attributes":{"POSITION":50,"NORMAL":51},"material":4}]},{"name":"Growth_Ring_26","primitives":[{"attributes":{"POSITION":52,"NORMAL":53},"material":3}]},{"name":"Growth_Ring_27","primitives":[{"attributes":{"POSITION":54,"NORMAL":55},"material":3}]},{"name":"Growth_Ring_28","primitives":[{"attributes":{"POSITION":56,"NORMAL":57},"material":3}]},{"name":"Endgrain_Crack0_29","primitives":[{"attributes":{"POSITION":58,"NORMAL":59},"material":10}]},{"name":"Endgrain_Crack1_30","primitives":[{"attributes":{"POSITION":60,"NORMAL":61},"material":10}]},{"name":"Bark_Ridge_31","primitives":[{"attributes":{"POSITION":62,"NORMAL":63},"material":3}]},{"name":"Bark_Ridge_32","primitives":[{"attributes":{"POSITION":64,"NORMAL":65},"material":3}]},{"name":"Bark_Ridge_33","primitives":[{"attributes":{"POSITION":66,"NORMAL":67},"material":3}]},{"name":"Bark_Ridge_34","primitives":[{"attributes":{"POSITION":68,"NORMAL":69},"material":3}]},{"name":"Bark_Ridge_35","primitives":[{"attributes":{"POSITION":70,"NORMAL":71},"material":3}]},{"name":"Bark_Log_36","primitives":[{"attributes":{"POSITION":72,"NORMAL":73},"material":10}]},{"name":"Cut_Endgrain_37","primitives":[{"attributes":{"POSITION":74,"NORMAL":75},"material":4}]},{"name":"Growth_Ring_38","primitives":[{"attributes":{"POSITION":76,"NORMAL":77},"material":3}]},{"name":"Growth_Ring_39","primitives":[{"attributes":{"POSITION":78,"NORMAL":79},"material":3}]},{"name":"Growth_Ring_40","primitives":[{"attributes":{"POSITION":80,"NORMAL":81},"material":3}]},{"name":"Endgrain_Crack0_41","primitives":[{"attributes":{"POSITION":82,"NORMAL":83},"material":10}]},{"name":"Endgrain_Crack1_42","primitives":[{"attributes":{"POSITION":84,"NORMAL":85},"material":10}]},{"name":"Cut_Endgrain_43","primitives":[{"attributes":{"POSITION":86,"NORMAL":87},"material":4}]},{"name":"Growth_Ring_44","primitives":[{"attributes":{"POSITION":88,"NORMAL":89},"material":3}]},{"name":"Growth_Ring_45","primitives":[{"attributes":{"POSITION":90,"NORMAL":91},"material":3}]},{"name":"Growth_Ring_46","primitives":[{"attributes":{"POSITION":92,"NORMAL":93},"material":3}]},{"name":"Endgrain_Crack0_47","primitives":[{"attributes":{"POSITION":94,"NORMAL":95},"material":10}]},{"name":"Endgrain_Crack1_48","primitives":[{"attributes":{"POSITION":96,"NORMAL":97},"material":10}]},{"name":"Bark_Ridge_49","primitives":[{"attributes":{"POSITION":98,"NORMAL":99},"material":3}]},{"name":"Bark_Ridge_50","primitives":[{"attributes":{"POSITION":100,"NORMAL":101},"material":3}]},{"name":"Bark_Ridge_51","primitives":[{"attributes":{"POSITION":102,"NORMAL":103},"material":3}]},{"name":"Bark_Ridge_52","primitives":[{"attributes":{"POSITION":104,"NORMAL":105},"material":3}]},{"name":"Bark_Ridge_53","primitives":[{"attributes":{"POSITION":106,"NORMAL":107},"material":3}]},{"name":"Bundle_Rope_54","primitives":[{"attributes":{"POSITION":108,"NORMAL":109},"material":4}]},{"name":"Rope_Knot_55","primitives":[{"attributes":{"POSITION":110,"NORMAL":111},"material":4}]},{"name":"Bundle_Rope_56","primitives":[{"attributes":{"POSITION":112,"NORMAL":113},"material":4}]},{"name":"Rope_Knot_57","primitives":[{"attributes":{"POSITION":114,"NORMAL":115},"material":4}]}],"materials":[{"name":"stone","pbrMetallicRoughness":{"baseColorFactor":[0.05284162552287903,0.08464151072542946,0.11657577617857154,1],"metallicFactor":0,"roughnessFactor":0.8}},{"name":"edge","pbrMetallicRoughness":{"baseColorFactor":[0.18014428915439032,0.27583283346124515,0.31118049905798434,1],"metallicFactor":0,"roughnessFactor":0.8}},{"name":"dark","pbrMetallicRoughness":{"baseColorFactor":[0.009021491898012131,0.016988052089250045,0.03155139140022645,1],"metallicFactor":0,"roughnessFactor":0.8}},{"name":"wood","pbrMetallicRoughness":{"baseColorFactor":[0.1390224537347025,0.04943345755590796,0.02201299491933654,1],"metallicFactor":0,"roughnessFactor":0.8}},{"name":"woodlight","pbrMetallicRoughness":{"baseColorFactor":[0.36859092219748707,0.14497212559723088,0.042987010162657116,1],"metallicFactor":0,"roughnessFactor":0.8}},{"name":"copper","pbrMetallicRoughness":{"baseColorFactor":[0.6730490732809419,0.20835965596076741,0.05637409755197975,1],"metallicFactor":0.35,"roughnessFactor":0.8}},{"name":"gold","pbrMetallicRoughness":{"baseColorFactor":[0.9489649381781952,0.5174013674966733,0.12752977781342206,1],"metallicFactor":0.35,"roughnessFactor":0.8}},{"name":"rift","pbrMetallicRoughness":{"baseColorFactor":[0.051122050056493396,0.7969165429079781,0.5859729839496614,1],"metallicFactor":0,"roughnessFactor":0.8},"emissiveFactor":[0.017892717519772686,0.2789207900177923,0.20509054438238147]},{"name":"ice","pbrMetallicRoughness":{"baseColorFactor":[0.4704402453042184,1.0,0.8355277914608409,1],"metallicFactor":0,"roughnessFactor":0.8},"emissiveFactor":[0.16465408585647642,0.35,0.2924347270112943]},{"name":"moss","pbrMetallicRoughness":{"baseColorFactor":[0.05459227728176034,0.14799802298268516,0.06381487094867724,1],"metallicFactor":0,"roughnessFactor":0.8}},{"name":"bark","pbrMetallicRoughness":{"baseColorFactor":[0.06575388026033009,0.03423020656508195,0.020951131914781092,1],"metallicFactor":0,"roughnessFactor":0.8}},{"name":"cloth","pbrMetallicRoughness":{"baseColorFactor":[0.03994717100152558,0.10114516420959989,0.10363409665513738,1],"metallicFactor":0,"roughnessFactor":0.8}},{"name":"leather","pbrMetallicRoughness":{"baseColorFactor":[0.05818717747368544,0.020951131914781092,0.015175238159625197,1],"metallicFactor":0,"roughnessFactor":0.8}},{"name":"fire","pbrMetallicRoughness":{"baseColorFactor":[1.0,0.3157627437363971,0.04943345755590796,1],"metallicFactor":0,"roughnessFactor":0.8},"emissiveFactor":[0.35,0.11051696030773898,0.017301710144567783]}],"bufferViews":[{"buffer":0,"byteOffset":0,"byteLength":1584},{"buffer":0,"byteOffset":1584,"byteLength":1584},{"buffer":0,"byteOffset":3168,"byteLength":1584},{"buffer":0,"byteOffset":4752,"byteLength":1584},{"buffer":0,"byteOffset":6336,"byteLength":6912},{"buffer":0,"byteOffset":13248,"byteLength":6912},{"buffer":0,"byteOffset":20160,"byteLength":6912},{"buffer":0,"byteOffset":27072,"byteLength":6912},{"buffer":0,"byteOffset":33984,"byteLength":6912},{"buffer":0,"byteOffset":40896,"byteLength":6912},{"buffer":0,"byteOffset":47808,"byteLength":720},{"buffer":0,"byteOffset":48528,"byteLength":720},{"buffer":0,"byteOffset":49248,"byteLength":720},{"buffer":0,"byteOffset":49968,"byteLength":720},{"buffer":0,"byteOffset":50688,"byteLength":1584},{"buffer":0,"byteOffset":52272,"byteLength":1584},{"buffer":0,"byteOffset":53856,"byteLength":6912},{"buffer":0,"byteOffset":60768,"byteLength":6912},{"buffer":0,"byteOffset":67680,"byteLength":6912},{"buffer":0,"byteOffset":74592,"byteLength":6912},{"buffer":0,"byteOffset":81504,"byteLength":6912},{"buffer":0,"byteOffset":88416,"byteLength":6912},{"buffer":0,"byteOffset":95328,"byteLength":720},{"buffer":0,"byteOffset":96048,"byteLength":720},{"buffer":0,"byteOffset":96768,"byteLength":720},{"buffer":0,"byteOffset":97488,"byteLength":720},{"buffer":0,"byteOffset":98208,"byteLength":576},{"buffer":0,"byteOffset":98784,"byteLength":576},{"buffer":0,"byteOffset":99360,"byteLength":576},{"buffer":0,"byteOffset":99936,"byteLength":576},{"buffer":0,"byteOffset":100512,"byteLength":576},{"buffer":0,"byteOffset":101088,"byteLength":576},{"buffer":0,"byteOffset":101664,"byteLength":576},{"buffer":0,"byteOffset":102240,"byteLength":576},{"buffer":0,"byteOffset":102816,"byteLength":576},{"buffer":0,"byteOffset":103392,"byteLength":576},{"buffer":0,"byteOffset":103968,"byteLength":1584},{"buffer":0,"byteOffset":105552,"byteLength":1584},{"buffer":0,"byteOffset":107136,"byteLength":1584},{"buffer":0,"byteOffset":108720,"byteLength":1584},{"buffer":0,"byteOffset":110304,"byteLength":6912},{"buffer":0,"byteOffset":117216,"byteLength":6912},{"buffer":0,"byteOffset":124128,"byteLength":6912},{"buffer":0,"byteOffset":131040,"byteLength":6912},{"buffer":0,"byteOffset":137952,"byteLength":6912},{"buffer":0,"byteOffset":144864,"byteLength":6912},{"buffer":0,"byteOffset":151776,"byteLength":720},{"buffer":0,"byteOffset":152496,"byteLength":720},{"buffer":0,"byteOffset":153216,"byteLength":720},{"buffer":0,"byteOffset":153936,"byteLength":720},{"buffer":0,"byteOffset":154656,"byteLength":1584},{"buffer":0,"byteOffset":156240,"byteLength":1584},{"buffer":0,"byteOffset":157824,"byteLength":6912},{"buffer":0,"byteOffset":164736,"byteLength":6912},{"buffer":0,"byteOffset":171648,"byteLength":6912},{"buffer":0,"byteOffset":178560,"byteLength":6912},{"buffer":0,"byteOffset":185472,"byteLength":6912},{"buffer":0,"byteOffset":192384,"byteLength":6912},{"buffer":0,"byteOffset":199296,"byteLength":720},{"buffer":0,"byteOffset":200016,"byteLength":720},{"buffer":0,"byteOffset":200736,"byteLength":720},{"buffer":0,"byteOffset":201456,"byteLength":720},{"buffer":0,"byteOffset":202176,"byteLength":576},{"buffer":0,"byteOffset":202752,"byteLength":576},{"buffer":0,"byteOffset":203328,"byteLength":576},{"buffer":0,"byteOffset":203904,"byteLength":576},{"buffer":0,"byteOffset":204480,"byteLength":576},{"buffer":0,"byteOffset":205056,"byteLength":576},{"buffer":0,"byteOffset":205632,"byteLength":576},{"buffer":0,"byteOffset":206208,"byteLength":576},{"buffer":0,"byteOffset":206784,"byteLength":576},{"buffer":0,"byteOffset":207360,"byteLength":576},{"buffer":0,"byteOffset":207936,"byteLength":1584},{"buffer":0,"byteOffset":209520,"byteLength":1584},{"buffer":0,"byteOffset":211104,"byteLength":1584},{"buffer":0,"byteOffset":212688,"byteLength":1584},{"buffer":0,"byteOffset":214272,"byteLength":6912},{"buffer":0,"byteOffset":221184,"byteLength":6912},{"buffer":0,"byteOffset":228096,"byteLength":6912},{"buffer":0,"byteOffset":235008,"byteLength":6912},{"buffer":0,"byteOffset":241920,"byteLength":6912},{"buffer":0,"byteOffset":248832,"byteLength":6912},{"buffer":0,"byteOffset":255744,"byteLength":720},{"buffer":0,"byteOffset":256464,"byteLength":720},{"buffer":0,"byteOffset":257184,"byteLength":720},{"buffer":0,"byteOffset":257904,"byteLength":720},{"buffer":0,"byteOffset":258624,"byteLength":1584},{"buffer":0,"byteOffset":260208,"byteLength":1584},{"buffer":0,"byteOffset":261792,"byteLength":6912},{"buffer":0,"byteOffset":268704,"byteLength":6912},{"buffer":0,"byteOffset":275616,"byteLength":6912},{"buffer":0,"byteOffset":282528,"byteLength":6912},{"buffer":0,"byteOffset":289440,"byteLength":6912},{"buffer":0,"byteOffset":296352,"byteLength":6912},{"buffer":0,"byteOffset":303264,"byteLength":720},{"buffer":0,"byteOffset":303984,"byteLength":720},{"buffer":0,"byteOffset":304704,"byteLength":720},{"buffer":0,"byteOffset":305424,"byteLength":720},{"buffer":0,"byteOffset":306144,"byteLength":576},{"buffer":0,"byteOffset":306720,"byteLength":576},{"buffer":0,"byteOffset":307296,"byteLength":576},{"buffer":0,"byteOffset":307872,"byteLength":576},{"buffer":0,"byteOffset":308448,"byteLength":576},{"buffer":0,"byteOffset":309024,"byteLength":576},{"buffer":0,"byteOffset":309600,"byteLength":576},{"buffer":0,"byteOffset":310176,"byteLength":576},{"buffer":0,"byteOffset":310752,"byteLength":576},{"buffer":0,"byteOffset":311328,"byteLength":576},{"buffer":0,"byteOffset":311904,"byteLength":5184},{"buffer":0,"byteOffset":317088,"byteLength":5184},{"buffer":0,"byteOffset":322272,"byteLength":4320},{"buffer":0,"byteOffset":326592,"byteLength":4320},{"buffer":0,"byteOffset":330912,"byteLength":5184},{"buffer":0,"byteOffset":336096,"byteLength":5184},{"buffer":0,"byteOffset":341280,"byteLength":4320},{"buffer":0,"byteOffset":345600,"byteLength":4320}],"accessors":[{"bufferView":0,"componentType":5126,"count":132,"type":"VEC3","min":[-0.3199999928474426,-0.3199999928474426,-1.149999976158142],"max":[0.3199999928474426,0.3199999928474426,1.149999976158142]},{"bufferView":1,"componentType":5126,"count":132,"type":"VEC3","min":[-0.9659258127212524,-0.9659258127212524,-1.0],"max":[0.9659258127212524,0.9659258127212524,1.0]},{"bufferView":2,"componentType":5126,"count":132,"type":"VEC3","min":[-0.27799999713897705,-0.27799999713897705,-0.008999999612569809],"max":[0.27799999713897705,0.27799999713897705,0.008999999612569809]},{"bufferView":3,"componentType":5126,"count":132,"type":"VEC3","min":[-0.9659258127212524,-0.9659258127212524,-1.0],"max":[0.9659258127212524,0.9659258127212524,1.0]},{"bufferView":4,"componentType":5126,"count":576,"type":"VEC3","min":[-0.10649999976158142,-0.10562916845083237,-0.006500000134110451],"max":[0.10649999976158142,0.10562916845083237,0.006500000134110451]},{"bufferView":5,"componentType":5126,"count":576,"type":"VEC3","min":[-0.9316183924674988,-0.9807852506637573,-1.0],"max":[0.8618708848953247,0.9807852506637573,1.0]},{"bufferView":6,"componentType":5126,"count":576,"type":"VEC3","min":[-0.20149999856948853,-0.20062915980815887,-0.006500000134110451],"max":[0.20149999856948853,0.20062915980815887,0.006500000134110451]},{"bufferView":7,"componentType":5126,"count":576,"type":"VEC3","min":[-0.8889394998550415,-0.9807852506637573,-1.0],"max":[0.8534550070762634,0.9807852506637573,1.0]},{"bufferView":8,"componentType":5126,"count":576,"type":"VEC3","min":[-0.2605000138282776,-0.25962916016578674,-0.006500000134110451],"max":[0.2605000138282776,0.25962916016578674,0.006500000134110451]},{"bufferView":9,"componentType":5126,"count":576,"type":"VEC3","min":[-0.8767138123512268,-0.9807852506637573,-1.0],"max":[0.8534550070762634,0.9807852506637573,1.0]},{"bufferView":10,"componentType":5126,"count":60,"type":"VEC3","min":[-0.03846467286348343,-0.05852457880973816,-0.00800000037997961],"max":[0.03846467286348343,0.05852457880973816,0.00800000037997961]},{"bufferView":11,"componentType":5126,"count":60,"type":"VEC3","min":[-0.8609265089035034,-0.8609265089035034,-0.8660253882408142],"max":[0.8609265089035034,0.8609265089035034,0.8660253882408142]},{"bufferView":12,"componentType":5126,"count":60,"type":"VEC3","min":[-0.013899524696171284,-0.038763925433158875,-0.006928203161805868],"max":[0.013899524696171284,0.038763925433158875,0.006928203161805868]},{"bufferView":13,"componentType":5126,"count":60,"type":"VEC3","min":[-0.8551486730575562,-0.9874406456947327,-1.0],"max":[0.8551486730575562,0.9874406456947327,1.0]},{"bufferView":14,"componentType":5126,"count":132,"type":"VEC3","min":[-0.27799999713897705,-0.27799999713897705,-0.008999999612569809],"max":[0.27799999713897705,0.27799999713897705,0.008999999612569809]},{"bufferView":15,"componentType":5126,"count":132,"type":"VEC3","min":[-0.9659258127212524,-0.9659258127212524,-1.0],"max":[0.9659258127212524,0.9659258127212524,1.0]},{"bufferView":16,"componentType":5126,"count":576,"type":"VEC3","min":[-0.10649999976158142,-0.10562916845083237,-0.006500000134110451],"max":[0.10649999976158142,0.10562916845083237,0.006500000134110451]},{"bufferView":17,"componentType":5126,"count":576,"type":"VEC3","min":[-0.9316183924674988,-0.9807852506637573,-1.0],"max":[0.8618708848953247,0.9807852506637573,1.0]},{"bufferView":18,"componentType":5126,"count":576,"type":"VEC3","min":[-0.20149999856948853,-0.20062915980815887,-0.006500000134110451],"max":[0.20149999856948853,0.20062915980815887,0.006500000134110451]},{"bufferView":19,"componentType":5126,"count":576,"type":"VEC3","min":[-0.8889394998550415,-0.9807852506637573,-1.0],"max":[0.8534550070762634,0.9807852506637573,1.0]},{"bufferView":20,"componentType":5126,"count":576,"type":"VEC3","min":[-0.2605000138282776,-0.25962916016578674,-0.006500000134110451],"max":[0.2605000138282776,0.25962916016578674,0.006500000134110451]},{"bufferView":21,"componentType":5126,"count":576,"type":"VEC3","min":[-0.8767138123512268,-0.9807852506637573,-1.0],"max":[0.8534550070762634,0.9807852506637573,1.0]},{"bufferView":22,"componentType":5126,"count":60,"type":"VEC3","min":[-0.03846467286348343,-0.05852457880973816,-0.00800000037997961],"max":[0.03846467286348343,0.05852457880973816,0.00800000037997961]},{"bufferView":23,"componentType":5126,"count":60,"type":"VEC3","min":[-0.8609265089035034,-0.8609265089035034,-0.8660253882408142],"max":[0.8609265089035034,0.8609265089035034,0.8660253882408142]},{"bufferView":24,"componentType":5126,"count":60,"type":"VEC3","min":[-0.013899524696171284,-0.038763925433158875,-0.006928203161805868],"max":[0.013899524696171284,0.038763925433158875,0.006928203161805868]},{"bufferView":25,"componentType":5126,"count":60,"type":"VEC3","min":[-0.8551486730575562,-0.9874406456947327,-1.0],"max":[0.8551486730575562,0.9874406456947327,1.0]},{"bufferView":26,"componentType":5126,"count":48,"type":"VEC3","min":[-0.011326237581670284,-0.013314791023731232,-1.100000023841858],"max":[0.014000000432133675,0.013314791023731232,1.100000023841858]},{"bufferView":27,"componentType":5126,"count":48,"type":"VEC3","min":[-1.0,-0.9510565400123596,-1.0],"max":[0.80901700258255,0.9510565400123596,1.0]},{"bufferView":28,"componentType":5126,"count":48,"type":"VEC3","min":[-0.011326237581670284,-0.013314791023731232,-1.100000023841858],"max":[0.014000000432133675,0.013314791023731232,1.100000023841858]},{"bufferView":29,"componentType":5126,"count":48,"type":"VEC3","min":[-1.0,-0.9510565400123596,-1.0],"max":[0.80901700258255,0.9510565400123596,1.0]},{"bufferView":30,"componentType":5126,"count":48,"type":"VEC3","min":[-0.011326237581670284,-0.013314791023731232,-1.100000023841858],"max":[0.014000000432133675,0.013314791023731232,1.100000023841858]},{"bufferView":31,"componentType":5126,"count":48,"type":"VEC3","min":[-1.0,-0.9510565400123596,-1.0],"max":[0.80901700258255,0.9510565400123596,1.0]},{"bufferView":32,"componentType":5126,"count":48,"type":"VEC3","min":[-0.011326237581670284,-0.013314791023731232,-1.100000023841858],"max":[0.014000000432133675,0.013314791023731232,1.100000023841858]},{"bufferView":33,"componentType":5126,"count":48,"type":"VEC3","min":[-1.0,-0.9510565400123596,-1.0],"max":[0.80901700258255,0.9510565400123596,1.0]},{"bufferView":34,"componentType":5126,"count":48,"type":"VEC3","min":[-0.011326237581670284,-0.013314791023731232,-1.100000023841858],"max":[0.014000000432133675,0.013314791023731232,1.100000023841858]},{"bufferView":35,"componentType":5126,"count":48,"type":"VEC3","min":[-1.0,-0.9510565400123596,-1.0],"max":[0.80901700258255,0.9510565400123596,1.0]},{"bufferView":36,"componentType":5126,"count":132,"type":"VEC3","min":[-0.3199999928474426,-0.3199999928474426,-1.0700000524520874],"max":[0.3199999928474426,0.3199999928474426,1.0700000524520874]},{"bufferView":37,"componentType":5126,"count":132,"type":"VEC3","min":[-0.9659258127212524,-0.9659258127212524,-1.0],"max":[0.9659258127212524,0.9659258127212524,1.0]},{"bufferView":38,"componentType":5126,"count":132,"type":"VEC3","min":[-0.27799999713897705,-0.27799999713897705,-0.008999999612569809],"max":[0.27799999713897705,0.27799999713897705,0.008999999612569809]},{"bufferView":39,"componentType":5126,"count":132,"type":"VEC3","min":[-0.9659258127212524,-0.9659258127212524,-1.0],"max":[0.9659258127212524,0.9659258127212524,1.0]},{"bufferView":40,"componentType":5126,"count":576,"type":"VEC3","min":[-0.10649999976158142,-0.10562916845083237,-0.006500000134110451],"max":[0.10649999976158142,0.10562916845083237,0.006500000134110451]},{"bufferView":41,"componentType":5126,"count":576,"type":"VEC3","min":[-0.9316183924674988,-0.9807852506637573,-1.0],"max":[0.8618708848953247,0.9807852506637573,1.0]},{"bufferView":42,"componentType":5126,"count":576,"type":"VEC3","min":[-0.20149999856948853,-0.20062915980815887,-0.006500000134110451],"max":[0.20149999856948853,0.20062915980815887,0.006500000134110451]},{"bufferView":43,"componentType":5126,"count":576,"type":"VEC3","min":[-0.8889394998550415,-0.9807852506637573,-1.0],"max":[0.8534550070762634,0.9807852506637573,1.0]},{"bufferView":44,"componentType":5126,"count":576,"type":"VEC3","min":[-0.2605000138282776,-0.25962916016578674,-0.006500000134110451],"max":[0.2605000138282776,0.25962916016578674,0.006500000134110451]},{"bufferView":45,"componentType":5126,"count":576,"type":"VEC3","min":[-0.8767138123512268,-0.9807852506637573,-1.0],"max":[0.8534550070762634,0.9807852506637573,1.0]},{"bufferView":46,"componentType":5126,"count":60,"type":"VEC3","min":[-0.03846467286348343,-0.05852457880973816,-0.00800000037997961],"max":[0.03846467286348343,0.05852457880973816,0.00800000037997961]},{"bufferView":47,"componentType":5126,"count":60,"type":"VEC3","min":[-0.8609265089035034,-0.8609265089035034,-0.8660253882408142],"max":[0.8609265089035034,0.8609265089035034,0.8660253882408142]},{"bufferView":48,"componentType":5126,"count":60,"type":"VEC3","min":[-0.013899524696171284,-0.038763925433158875,-0.006928203161805868],"max":[0.013899524696171284,0.038763925433158875,0.006928203161805868]},{"bufferView":49,"componentType":5126,"count":60,"type":"VEC3","min":[-0.8551486730575562,-0.9874406456947327,-1.0],"max":[0.8551486730575562,0.9874406456947327,1.0]},{"bufferView":50,"componentType":5126,"count":132,"type":"VEC3","min":[-0.27799999713897705,-0.27799999713897705,-0.008999999612569809],"max":[0.27799999713897705,0.27799999713897705,0.008999999612569809]},{"bufferView":51,"componentType":5126,"count":132,"type":"VEC3","min":[-0.9659258127212524,-0.9659258127212524,-1.0],"max":[0.9659258127212524,0.9659258127212524,1.0]},{"bufferView":52,"componentType":5126,"count":576,"type":"VEC3","min":[-0.10649999976158142,-0.10562916845083237,-0.006500000134110451],"max":[0.10649999976158142,0.10562916845083237,0.006500000134110451]},{"bufferView":53,"componentType":5126,"count":576,"type":"VEC3","min":[-0.9316183924674988,-0.9807852506637573,-1.0],"max":[0.8618708848953247,0.9807852506637573,1.0]},{"bufferView":54,"componentType":5126,"count":576,"type":"VEC3","min":[-0.20149999856948853,-0.20062915980815887,-0.006500000134110451],"max":[0.20149999856948853,0.20062915980815887,0.006500000134110451]},{"bufferView":55,"componentType":5126,"count":576,"type":"VEC3","min":[-0.8889394998550415,-0.9807852506637573,-1.0],"max":[0.8534550070762634,0.9807852506637573,1.0]},{"bufferView":56,"componentType":5126,"count":576,"type":"VEC3","min":[-0.2605000138282776,-0.25962916016578674,-0.006500000134110451],"max":[0.2605000138282776,0.25962916016578674,0.006500000134110451]},{"bufferView":57,"componentType":5126,"count":576,"type":"VEC3","min":[-0.8767138123512268,-0.9807852506637573,-1.0],"max":[0.8534550070762634,0.9807852506637573,1.0]},{"bufferView":58,"componentType":5126,"count":60,"type":"VEC3","min":[-0.03846467286348343,-0.05852457880973816,-0.00800000037997961],"max":[0.03846467286348343,0.05852457880973816,0.00800000037997961]},{"bufferView":59,"componentType":5126,"count":60,"type":"VEC3","min":[-0.8609265089035034,-0.8609265089035034,-0.8660253882408142],"max":[0.8609265089035034,0.8609265089035034,0.8660253882408142]},{"bufferView":60,"componentType":5126,"count":60,"type":"VEC3","min":[-0.013899524696171284,-0.038763925433158875,-0.006928203161805868],"max":[0.013899524696171284,0.038763925433158875,0.006928203161805868]},{"bufferView":61,"componentType":5126,"count":60,"type":"VEC3","min":[-0.8551486730575562,-0.9874406456947327,-1.0],"max":[0.8551486730575562,0.9874406456947327,1.0]},{"bufferView":62,"componentType":5126,"count":48,"type":"VEC3","min":[-0.011326237581670284,-0.013314791023731232,-1.0199999809265137],"max":[0.014000000432133675,0.013314791023731232,1.0199999809265137]},{"bufferView":63,"componentType":5126,"count":48,"type":"VEC3","min":[-1.0,-0.9510565400123596,-1.0],"max":[0.80901700258255,0.9510565400123596,1.0]},{"bufferView":64,"componentType":5126,"count":48,"type":"VEC3","min":[-0.011326237581670284,-0.013314791023731232,-1.0199999809265137],"max":[0.014000000432133675,0.013314791023731232,1.0199999809265137]},{"bufferView":65,"componentType":5126,"count":48,"type":"VEC3","min":[-1.0,-0.9510565400123596,-1.0],"max":[0.80901700258255,0.9510565400123596,1.0]},{"bufferView":66,"componentType":5126,"count":48,"type":"VEC3","min":[-0.011326237581670284,-0.013314791023731232,-1.0199999809265137],"max":[0.014000000432133675,0.013314791023731232,1.0199999809265137]},{"bufferView":67,"componentType":5126,"count":48,"type":"VEC3","min":[-1.0,-0.9510565400123596,-1.0],"max":[0.80901700258255,0.9510565400123596,1.0]},{"bufferView":68,"componentType":5126,"count":48,"type":"VEC3","min":[-0.011326237581670284,-0.013314791023731232,-1.0199999809265137],"max":[0.014000000432133675,0.013314791023731232,1.0199999809265137]},{"bufferView":69,"componentType":5126,"count":48,"type":"VEC3","min":[-1.0,-0.9510565400123596,-1.0],"max":[0.80901700258255,0.9510565400123596,1.0]},{"bufferView":70,"componentType":5126,"count":48,"type":"VEC3","min":[-0.011326237581670284,-0.013314791023731232,-1.0199999809265137],"max":[0.014000000432133675,0.013314791023731232,1.0199999809265137]},{"bufferView":71,"componentType":5126,"count":48,"type":"VEC3","min":[-1.0,-0.9510565400123596,-1.0],"max":[0.80901700258255,0.9510565400123596,1.0]},{"bufferView":72,"componentType":5126,"count":132,"type":"VEC3","min":[-0.3199999928474426,-0.3199999928474426,-0.9900000095367432],"max":[0.3199999928474426,0.3199999928474426,0.9900000095367432]},{"bufferView":73,"componentType":5126,"count":132,"type":"VEC3","min":[-0.9659258127212524,-0.9659258127212524,-1.0],"max":[0.9659258127212524,0.9659258127212524,1.0]},{"bufferView":74,"componentType":5126,"count":132,"type":"VEC3","min":[-0.27799999713897705,-0.27799999713897705,-0.008999999612569809],"max":[0.27799999713897705,0.27799999713897705,0.008999999612569809]},{"bufferView":75,"componentType":5126,"count":132,"type":"VEC3","min":[-0.9659258127212524,-0.9659258127212524,-1.0],"max":[0.9659258127212524,0.9659258127212524,1.0]},{"bufferView":76,"componentType":5126,"count":576,"type":"VEC3","min":[-0.10649999976158142,-0.10562916845083237,-0.006500000134110451],"max":[0.10649999976158142,0.10562916845083237,0.006500000134110451]},{"bufferView":77,"componentType":5126,"count":576,"type":"VEC3","min":[-0.9316183924674988,-0.9807852506637573,-1.0],"max":[0.8618708848953247,0.9807852506637573,1.0]},{"bufferView":78,"componentType":5126,"count":576,"type":"VEC3","min":[-0.20149999856948853,-0.20062915980815887,-0.006500000134110451],"max":[0.20149999856948853,0.20062915980815887,0.006500000134110451]},{"bufferView":79,"componentType":5126,"count":576,"type":"VEC3","min":[-0.8889394998550415,-0.9807852506637573,-1.0],"max":[0.8534550070762634,0.9807852506637573,1.0]},{"bufferView":80,"componentType":5126,"count":576,"type":"VEC3","min":[-0.2605000138282776,-0.25962916016578674,-0.006500000134110451],"max":[0.2605000138282776,0.25962916016578674,0.006500000134110451]},{"bufferView":81,"componentType":5126,"count":576,"type":"VEC3","min":[-0.8767138123512268,-0.9807852506637573,-1.0],"max":[0.8534550070762634,0.9807852506637573,1.0]},{"bufferView":82,"componentType":5126,"count":60,"type":"VEC3","min":[-0.03846467286348343,-0.05852457880973816,-0.00800000037997961],"max":[0.03846467286348343,0.05852457880973816,0.00800000037997961]},{"bufferView":83,"componentType":5126,"count":60,"type":"VEC3","min":[-0.8609265089035034,-0.8609265089035034,-0.8660253882408142],"max":[0.8609265089035034,0.8609265089035034,0.8660253882408142]},{"bufferView":84,"componentType":5126,"count":60,"type":"VEC3","min":[-0.013899524696171284,-0.038763925433158875,-0.006928203161805868],"max":[0.013899524696171284,0.038763925433158875,0.006928203161805868]},{"bufferView":85,"componentType":5126,"count":60,"type":"VEC3","min":[-0.8551486730575562,-0.9874406456947327,-1.0],"max":[0.8551486730575562,0.9874406456947327,1.0]},{"bufferView":86,"componentType":5126,"count":132,"type":"VEC3","min":[-0.27799999713897705,-0.27799999713897705,-0.008999999612569809],"max":[0.27799999713897705,0.27799999713897705,0.008999999612569809]},{"bufferView":87,"componentType":5126,"count":132,"type":"VEC3","min":[-0.9659258127212524,-0.9659258127212524,-1.0],"max":[0.9659258127212524,0.9659258127212524,1.0]},{"bufferView":88,"componentType":5126,"count":576,"type":"VEC3","min":[-0.10649999976158142,-0.10562916845083237,-0.006500000134110451],"max":[0.10649999976158142,0.10562916845083237,0.006500000134110451]},{"bufferView":89,"componentType":5126,"count":576,"type":"VEC3","min":[-0.9316183924674988,-0.9807852506637573,-1.0],"max":[0.8618708848953247,0.9807852506637573,1.0]},{"bufferView":90,"componentType":5126,"count":576,"type":"VEC3","min":[-0.20149999856948853,-0.20062915980815887,-0.006500000134110451],"max":[0.20149999856948853,0.20062915980815887,0.006500000134110451]},{"bufferView":91,"componentType":5126,"count":576,"type":"VEC3","min":[-0.8889394998550415,-0.9807852506637573,-1.0],"max":[0.8534550070762634,0.9807852506637573,1.0]},{"bufferView":92,"componentType":5126,"count":576,"type":"VEC3","min":[-0.2605000138282776,-0.25962916016578674,-0.006500000134110451],"max":[0.2605000138282776,0.25962916016578674,0.006500000134110451]},{"bufferView":93,"componentType":5126,"count":576,"type":"VEC3","min":[-0.8767138123512268,-0.9807852506637573,-1.0],"max":[0.8534550070762634,0.9807852506637573,1.0]},{"bufferView":94,"componentType":5126,"count":60,"type":"VEC3","min":[-0.03846467286348343,-0.05852457880973816,-0.00800000037997961],"max":[0.03846467286348343,0.05852457880973816,0.00800000037997961]},{"bufferView":95,"componentType":5126,"count":60,"type":"VEC3","min":[-0.8609265089035034,-0.8609265089035034,-0.8660253882408142],"max":[0.8609265089035034,0.8609265089035034,0.8660253882408142]},{"bufferView":96,"componentType":5126,"count":60,"type":"VEC3","min":[-0.013899524696171284,-0.038763925433158875,-0.006928203161805868],"max":[0.013899524696171284,0.038763925433158875,0.006928203161805868]},{"bufferView":97,"componentType":5126,"count":60,"type":"VEC3","min":[-0.8551486730575562,-0.9874406456947327,-1.0],"max":[0.8551486730575562,0.9874406456947327,1.0]},{"bufferView":98,"componentType":5126,"count":48,"type":"VEC3","min":[-0.011326237581670284,-0.013314791023731232,-0.9399999976158142],"max":[0.014000000432133675,0.013314791023731232,0.9399999976158142]},{"bufferView":99,"componentType":5126,"count":48,"type":"VEC3","min":[-1.0,-0.9510565400123596,-1.0],"max":[0.80901700258255,0.9510565400123596,1.0]},{"bufferView":100,"componentType":5126,"count":48,"type":"VEC3","min":[-0.011326237581670284,-0.013314791023731232,-0.9399999976158142],"max":[0.014000000432133675,0.013314791023731232,0.9399999976158142]},{"bufferView":101,"componentType":5126,"count":48,"type":"VEC3","min":[-1.0,-0.9510565400123596,-1.0],"max":[0.80901700258255,0.9510565400123596,1.0]},{"bufferView":102,"componentType":5126,"count":48,"type":"VEC3","min":[-0.011326237581670284,-0.013314791023731232,-0.9399999976158142],"max":[0.014000000432133675,0.013314791023731232,0.9399999976158142]},{"bufferView":103,"componentType":5126,"count":48,"type":"VEC3","min":[-1.0,-0.9510565400123596,-1.0],"max":[0.80901700258255,0.9510565400123596,1.0]},{"bufferView":104,"componentType":5126,"count":48,"type":"VEC3","min":[-0.011326237581670284,-0.013314791023731232,-0.9399999976158142],"max":[0.014000000432133675,0.013314791023731232,0.9399999976158142]},{"bufferView":105,"componentType":5126,"count":48,"type":"VEC3","min":[-1.0,-0.9510565400123596,-1.0],"max":[0.80901700258255,0.9510565400123596,1.0]},{"bufferView":106,"componentType":5126,"count":48,"type":"VEC3","min":[-0.011326237581670284,-0.013314791023731232,-0.9399999976158142],"max":[0.014000000432133675,0.013314791023731232,0.9399999976158142]},{"bufferView":107,"componentType":5126,"count":48,"type":"VEC3","min":[-1.0,-0.9510565400123596,-1.0],"max":[0.80901700258255,0.9510565400123596,1.0]},{"bufferView":108,"componentType":5126,"count":432,"type":"VEC3","min":[-0.703966498374939,-0.5551407933235168,-0.03400000184774399],"max":[0.703966498374939,0.6871005296707153,0.03400000184774399]},{"bufferView":109,"componentType":5126,"count":432,"type":"VEC3","min":[-0.9942222237586975,-1.0,-0.998981773853302],"max":[0.9679198861122131,1.0,0.9987733960151672]},{"bufferView":110,"componentType":5126,"count":360,"type":"VEC3","min":[-0.08299999684095383,-0.07600709050893784,-0.023000000044703484],"max":[0.08299999684095383,0.07600709050893784,0.023000000044703484]},{"bufferView":111,"componentType":5126,"count":360,"type":"VEC3","min":[-0.9456380009651184,-1.0,-0.9843178987503052],"max":[0.9895510673522949,1.0,0.9843178987503052]},{"bufferView":112,"componentType":5126,"count":432,"type":"VEC3","min":[-0.703966498374939,-0.5551407933235168,-0.03400000184774399],"max":[0.703966498374939,0.6871005296707153,0.03400000184774399]},{"bufferView":113,"componentType":5126,"count":432,"type":"VEC3","min":[-0.9942222237586975,-1.0,-0.998981773853302],"max":[0.9679198861122131,1.0,0.9987733960151672]},{"bufferView":114,"componentType":5126,"count":360,"type":"VEC3","min":[-0.08299999684095383,-0.07600709050893784,-0.023000000044703484],"max":[0.08299999684095383,0.07600709050893784,0.023000000044703484]},{"bufferView":115,"componentType":5126,"count":360,"type":"VEC3","min":[-0.9456380009651184,-1.0,-0.9843178987503052],"max":[0.9895510673522949,1.0,0.9843178987503052]}],"buffers":[{"byteLength":349920,"uri":"Timber_Pile.bin"}]}