{"asset":{"version":"2.0","generator":"RIFTBOUND procedural asset builder"},"scene":0,"scenes":[{"nodes":[0,1,2,3,4,5,6,7,8,9,10,11,12,13,14,15,16,17,18,19,20,21,22,23,24,25,26,27,28,29,30,31,32,33,34,35,36]}],"nodes":[{"name":"Receiver_0","mesh":0,"translation":[0.0,1.0149999999999997,-0.05000000000000001]},{"name":"Copper_Rail_1","mesh":1,"translation":[2.3129646346357427e-18,1.24,-0.02999999999999997]},{"name":"Barrel_2","mesh":2,"translation":[-9.830099697201907e-18,1.0250000000000001,0.24499999999999997]},{"name":"Muzzle_Collar_3","mesh":3,"translation":[-1.688464183284092e-17,1.0250000000000006,0.78]},{"name":"Rear_Cap_4","mesh":4,"translation":[-2.3129646346357427e-18,1.0250000000000001,-0.59]},{"name":"Grip_Core_5","mesh":5,"translation":[8.673617379884035e-18,0.42999999999999994,-0.445]},{"name":"Grip_Wrap_6","mesh":6,"translation":[6.938893903907228e-18,0.405,-0.44000000000000006]},{"name":"Grip_Pommel_7","mesh":7,"translation":[2.3129646346357427e-18,0.06499999999999999,-0.35999999999999993]},{"name":"Trigger_Guard0_8","mesh":8,"translation":[2.8912057932946783e-19,0.7750000000000002,-0.19499999999999998]},{"name":"Trigger_Guard1_9","mesh":9,"translation":[-2.8912057932946783e-19,0.6249999999999999,0.07]},{"name":"Trigger_Guard2_10","mesh":10,"translation":[-2.8912057932946783e-19,0.41500000000000004,-0.09499999999999999]},{"name":"Trigger0_11","mesh":11,"translation":[-2.8912057932946783e-19,0.7200000000000001,-0.155]},{"name":"Trigger1_12","mesh":12,"translation":[-2.8912057932946783e-19,0.6000000000000001,-0.16]},{"name":"Reel_Axle_13","mesh":13,"translation":[-5.551115123125783e-18,0.8150000000000002,-0.5199999999999999]},{"name":"Reel_Core_14","mesh":14,"translation":[1.3877787807814457e-17,0.8150000000000001,-0.5199999999999998]},{"name":"Reel_Sideplate_15","mesh":15,"translation":[-0.34000000000000025,0.815,-0.5200000000000001]},{"name":"Reel_Axle_Cap_16","mesh":16,"translation":[-0.4011999999999999,0.8150000000000001,-0.5200000000000001]},{"name":"Reel_Sideplate_17","mesh":17,"translation":[0.3400000000000001,0.815,-0.5200000000000001]},{"name":"Reel_Axle_Cap_18","mesh":18,"translation":[0.4011999999999999,0.8150000000000001,-0.52]},{"name":"Wound_Rope_19","mesh":19,"translation":[7.447458798727757e-18,0.8149999999999997,-0.5212546583850924]},{"name":"Hook_Shaft_20","mesh":20,"translation":[2.6020852139652106e-18,1.025,0.9499999999999998]},{"name":"Grapple_Prong0_21","mesh":21,"translation":[7.228014483236697e-18,1.135,1.1750000000000003]},{"name":"Grapple_Prong1_22","mesh":22,"translation":[1.5323390704461797e-17,1.2850000000000001,1.1849999999999998]},{"name":"Grapple_Prong2_23","mesh":23,"translation":[1.590163186312073e-17,1.2950000000000002,1.0249999999999997]},{"name":"Hook_Barb_24","mesh":24,"translation":[1.2938145924993686e-17,1.24,0.9800000000000001]},{"name":"Grapple_Prong0_25","mesh":25,"translation":[-0.09526279441628827,0.9700000000000002,1.175]},{"name":"Grapple_Prong1_26","mesh":26,"translation":[-0.2251666049839541,0.8950000000000004,1.1850000000000003]},{"name":"Grapple_Prong2_27","mesh":27,"translation":[-0.23382685902179845,0.8900000000000001,1.0250000000000001]},{"name":"Hook_Barb_28","mesh":28,"translation":[-0.18619546181365434,0.9175,0.98]},{"name":"Grapple_Prong0_29","mesh":29,"translation":[0.09526279441628822,0.9700000000000001,1.175]},{"name":"Grapple_Prong1_30","mesh":30,"translation":[0.22516660498395394,0.895,1.1850000000000003]},{"name":"Grapple_Prong2_31","mesh":31,"translation":[0.23382685902179834,0.89,1.0250000000000001]},{"name":"Hook_Barb_32","mesh":32,"translation":[0.18619546181365423,0.9174999999999999,0.98]},{"name":"Power_Cell_Housing_33","mesh":33,"translation":[0.0,1.315,-0.010000000000000009]},{"name":"Rift_Power_Cell_34","mesh":34,"translation":[1.1564823173178713e-18,1.3830000000000002,-0.010000000000000007]},{"name":"Receiver_Pin_35","mesh":35,"translation":[0.25649999999999995,1.0250000000000004,0.3499999999999999]},{"name":"Receiver_Pin_36","mesh":36,"translation":[0.25649999999999995,1.0250000000000004,-0.33]}],"meshes":[{"name":"Receiver_0","primitives":[{"attributes":{"POSITION":0,"NORMAL":1},"material":2}]},{"name":"Copper_Rail_1","primitives":[{"attributes":{"POSITION":2,"NORMAL":3},"material":5}]},{"name":"Barrel_2","primitives":[{"attributes":{"POSITION":4,"NORMAL":5},"material":1}]},{"name":"Muzzle_Collar_3","primitives":[{"attributes":{"POSITION":6,"NORMAL":7},"material":5}]},{"name":"Rear_Cap_4","primitives":[{"attributes":{"POSITION":8,"NORMAL":9},"material":5}]},{"name":"Grip_Core_5","primitives":[{"attributes":{"POSITION":10,"NORMAL":11},"material":4}]},{"name":"Grip_Wrap_6","primitives":[{"attributes":{"POSITION":12,"NORMAL":13},"material":12}]},{"name":"Grip_Pommel_7","primitives":[{"attributes":{"POSITION":14,"NORMAL":15},"material":5}]},{"name":"Trigger_Guard0_8","primitives":[{"attributes":{"POSITION":16,"NORMAL":17},"material":5}]},{"name":"Trigger_Guard1_9","primitives":[{"attributes":{"POSITION":18,"NORMAL":19},"material":5}]},{"name":"Trigger_Guard2_10","primitives":[{"attributes":{"POSITION":20,"NORMAL":21},"material":5}]},{"name":"Trigger0_11","primitives":[{"attributes":{"POSITION":22,"NORMAL":23},"material":1}]},{"name":"Trigger1_12","primitives":[{"attributes":{"POSITION":24,"NORMAL":25},"material":1}]},{"name":"Reel_Axle_13","primitives":[{"attributes":{"POSITION":26,"NORMAL":27},"material":2}]},{"name":"Reel_Core_14","primitives":[{"attributes":{"POSITION":28,"NORMAL":29},"material":3}]},{"name":"Reel_Sideplate_15","primitives":[{"attributes":{"POSITION":30,"NORMAL":31},"material":5}]},{"name":"Reel_Axle_Cap_16","primitives":[{"attributes":{"POSITION":32,"NORMAL":33},"material":1}]},{"name":"Reel_Sideplate_17","primitives":[{"attributes":{"POSITION":34,"NORMAL":35},"material":5}]},{"name":"Reel_Axle_Cap_18","primitives":[{"attributes":{"POSITION":36,"NORMAL":37},"material":1}]},{"name":"Wound_Rope_19","primitives":[{"attributes":{"POSITION":38,"NORMAL":39},"material":4}]},{"name":"Hook_Shaft_20","primitives":[{"attributes":{"POSITION":40,"NORMAL":41},"material":1}]},{"name":"Grapple_Prong0_21","primitives":[{"attributes":{"POSITION":42,"NORMAL":43},"material":1}]},{"name":"Grapple_Prong1_22","primitives":[{"attributes":{"POSITION":44,"NORMAL":45},"material":1}]},{"name":"Grapple_Prong2_23","primitives":[{"attributes":{"POSITION":46,"NORMAL":47},"material":1}]},{"name":"Hook_Barb_24","primitives":[{"attributes":{"POSITION":48,"NORMAL":49},"material":1}]},{"name":"Grapple_Prong0_25","primitives":[{"attributes":{"POSITION":50,"NORMAL":51},"material":1}]},{"name":"Grapple_Prong1_26","primitives":[{"attributes":{"POSITION":52,"NORMAL":53},"material":1}]},{"name":"Grapple_Prong2_27","primitives":[{"attributes":{"POSITION":54,"NORMAL":55},"material":1}]},{"name":"Hook_Barb_28","primitives":[{"attributes":{"POSITION":56,"NORMAL":57},"material":1}]},{"name":"Grapple_Prong0_29","primitives":[{"attributes":{"POSITION":58,"NORMAL":59},"material":1}]},{"name":"Grapple_Prong1_30","primitives":[{"attributes":{"POSITION":60,"NORMAL":61},"material":1}]},{"name":"Grapple_Prong2_31","primitives":[{"attributes":{"POSITION":62,"NORMAL":63},"material":1}]},{"name":"Hook_Barb_32","primitives":[{"attributes":{"POSITION":64,"NORMAL":65},"material":1}]},{"name":"Power_Cell_Housing_33","primitives":[{"attributes":{"POSITION":66,"NORMAL":67},"material":2}]},{"name":"Rift_Power_Cell_34","primitives":[{"attributes":{"POSITION":68,"NORMAL":69},"material":7}]},{"name":"Receiver_Pin_35","primitives":[{"attributes":{"POSITION":70,"NORMAL":71},"material":6}]},{"name":"Receiver_Pin_36","primitives":[{"attributes":{"POSITION":72,"NORMAL":73},"material":6}]}],"materials":[{"name":"stone","pbrMetallicRoughness":{"baseColorFactor":[0.05284162552287903,0.08464151072542946,0.11657577617857154,1],"metallicFactor":0,"roughnessFactor":0.8}},{"name":"edge","pbrMetallicRoughness":{"baseColorFactor":[0.18014428915439032,0.27583283346124515,0.31118049905798434,1],"metallicFactor":0,"roughnessFactor":0.8}},{"name":"dark","pbrMetallicRoughness":{"baseColorFactor":[0.009021491898012131,0.016988052089250045,0.03155139140022645,1],"metallicFactor":0,"roughnessFactor":0.8}},{"name":"wood","pbrMetallicRoughness":{"baseColorFactor":[0.1390224537347025,0.04943345755590796,0.02201299491933654,1],"metallicFactor":0,"roughnessFactor":0.8}},{"name":"woodlight","pbrMetallicRoughness":{"baseColorFactor":[0.36859092219748707,0.14497212559723088,0.042987010162657116,1],"metallicFactor":0,"roughnessFactor":0.8}},{"name":"copper","pbrMetallicRoughness":{"baseColorFactor":[0.6730490732809419,0.20835965596076741,0.05637409755197975,1],"metallicFactor":0.35,"roughnessFactor":0.8}},{"name":"gold","pbrMetallicRoughness":{"baseColorFactor":[0.9489649381781952,0.5174013674966733,0.12752977781342206,1],"metallicFactor":0.35,"roughnessFactor":0.8}},{"name":"rift","pbrMetallicRoughness":{"baseColorFactor":[0.051122050056493396,0.7969165429079781,0.5859729839496614,1],"metallicFactor":0,"roughnessFactor":0.8},"emissiveFactor":[0.017892717519772686,0.2789207900177923,0.20509054438238147]},{"name":"ice","pbrMetallicRoughness":{"baseColorFactor":[0.4704402453042184,1.0,0.8355277914608409,1],"metallicFactor":0,"roughnessFactor":0.8},"emissiveFactor":[0.16465408585647642,0.35,0.2924347270112943]},{"name":"moss","pbrMetallicRoughness":{"baseColorFactor":[0.05459227728176034,0.14799802298268516,0.06381487094867724,1],"metallicFactor":0,"roughnessFactor":0.8}},{"name":"bark","pbrMetallicRoughness":{"baseColorFactor":[0.06575388026033009,0.03423020656508195,0.020951131914781092,1],"metallicFactor":0,"roughnessFactor":0.8}},{"name":"cloth","pbrMetallicRoughness":{"baseColorFactor":[0.03994717100152558,0.10114516420959989,0.10363409665513738,1],"metallicFactor":0,"roughnessFactor":0.8}},{"name":"leather","pbrMetallicRoughness":{"baseColorFactor":[0.05818717747368544,0.020951131914781092,0.015175238159625197,1],"metallicFactor":0,"roughnessFactor":0.8}},{"name":"fire","pbrMetallicRoughness":{"baseColorFactor":[1.0,0.3157627437363971,0.04943345755590796,1],"metallicFactor":0,"roughnessFactor":0.8},"emissiveFactor":[0.35,0.11051696030773898,0.017301710144567783]}],"bufferViews":[{"buffer":0,"byteOffset":0,"byteLength":1584},{"buffer":0,"byteOffset":1584,"byteLength":1584},{"buffer":0,"byteOffset":3168,"byteLength":1584},{"buffer":0,"byteOffset":4752,"byteLength":1584},{"buffer":0,"byteOffset":6336,"byteLength":1584},{"buffer":0,"byteOffset":7920,"byteLength":1584},{"buffer":0,"byteOffset":9504,"byteLength":8640},{"buffer":0,"byteOffset":18144,"byteLength":8640},{"buffer":0,"byteOffset":26784,"byteLength":1584},{"buffer":0,"byteOffset":28368,"byteLength":1584},{"buffer":0,"byteOffset":29952,"byteLength":1008},{"buffer":0,"byteOffset":30960,"byteLength":1008},{"buffer":0,"byteOffset":31968,"byteLength":1008},{"buffer":0,"byteOffset":32976,"byteLength":1008},{"buffer":0,"byteOffset":33984,"byteLength":1584},{"buffer":0,"byteOffset":35568,"byteLength":1584},{"buffer":0,"byteOffset":37152,"byteLength":720},{"buffer":0,"byteOffset":37872,"byteLength":720},{"buffer":0,"byteOffset":38592,"byteLength":720},{"buffer":0,"byteOffset":39312,"byteLength":720},{"buffer":0,"byteOffset":40032,"byteLength":720},{"buffer":0,"byteOffset":40752,"byteLength":720},{"buffer":0,"byteOffset":41472,"byteLength":720},{"buffer":0,"byteOffset":42192,"byteLength":720},{"buffer":0,"byteOffset":42912,"byteLength":720},{"buffer":0,"byteOffset":43632,"byteLength":720},{"buffer":0,"byteOffset":44352,"byteLength":1296},{"buffer":0,"byteOffset":45648,"byteLength":1296},{"buffer":0,"byteOffset":46944,"byteLength":1584},{"buffer":0,"byteOffset":48528,"byteLength":1584},{"buffer":0,"byteOffset":50112,"byteLength":1584},{"buffer":0,"byteOffset":51696,"byteLength":1584},{"buffer":0,"byteOffset":53280,"byteLength":1296},{"buffer":0,"byteOffset":54576,"byteLength":1296},{"buffer":0,"byteOffset":55872,"byteLength":1584},{"buffer":0,"byteOffset":57456,"byteLength":1584},{"buffer":0,"byteOffset":59040,"byteLength":1296},{"buffer":0,"byteOffset":60336,"byteLength":1296},{"buffer":0,"byteOffset":61632,"byteLength":57816},{"buffer":0,"byteOffset":119448,"byteLength":57816},{"buffer":0,"byteOffset":177264,"byteLength":1008},{"buffer":0,"byteOffset":178272,"byteLength":1008},{"buffer":0,"byteOffset":179280,"byteLength":720},{"buffer":0,"byteOffset":180000,"byteLength":720},{"buffer":0,"byteOffset":180720,"byteLength":720},{"buffer":0,"byteOffset":181440,"byteLength":720},{"buffer":0,"byteOffset":182160,"byteLength":720},{"buffer":0,"byteOffset":182880,"byteLength":720},{"buffer":0,"byteOffset":183600,"byteLength":720},{"buffer":0,"byteOffset":184320,"byteLength":720},{"buffer":0,"byteOffset":185040,"byteLength":720},{"buffer":0,"byteOffset":185760,"byteLength":720},{"buffer":0,"byteOffset":186480,"byteLength":720},{"buffer":0,"byteOffset":187200,"byteLength":720},{"buffer":0,"byteOffset":187920,"byteLength":720},{"buffer":0,"byteOffset":188640,"byteLength":720},{"buffer":0,"byteOffset":189360,"byteLength":720},{"buffer":0,"byteOffset":190080,"byteLength":720},{"buffer":0,"byteOffset":190800,"byteLength":720},{"buffer":0,"byteOffset":191520,"byteLength":720},{"buffer":0,"byteOffset":192240,"byteLength":720},{"buffer":0,"byteOffset":192960,"byteLength":720},{"buffer":0,"byteOffset":193680,"byteLength":720},{"buffer":0,"byteOffset":194400,"byteLength":720},{"buffer":0,"byteOffset":195120,"byteLength":720},{"buffer":0,"byteOffset":195840,"byteLength":720},{"buffer":0,"byteOffset":196560,"byteLength":1584},{"buffer":0,"byteOffset":198144,"byteLength":1584},{"buffer":0,"byteOffset":199728,"byteLength":1584},{"buffer":0,"byteOffset":201312,"byteLength":1584},{"buffer":0,"byteOffset":202896,"byteLength":1008},{"buffer":0,"byteOffset":203904,"byteLength":1008},{"buffer":0,"byteOffset":204912,"byteLength":1008},{"buffer":0,"byteOffset":205920,"byteLength":1008}],"accessors":[{"bufferView":0,"componentType":5126,"count":132,"type":"VEC3","min":[-0.2549999952316284,-0.1899999976158142,-0.5249999761581421],"max":[0.2549999952316284,0.1899999976158142,0.5249999761581421]},{"bufferView":1,"componentType":5126,"count":132,"type":"VEC3","min":[-1.0,-1.0,-1.0],"max":[1.0,1.0,1.0]},{"bufferView":2,"componentType":5126,"count":132,"type":"VEC3","min":[-0.1550000011920929,-0.042500000447034836,-0.44999998807907104],"max":[0.1550000011920929,0.042500000447034836,0.44999998807907104]},{"bufferView":3,"componentType":5126,"count":132,"type":"VEC3","min":[-1.0,-1.0,-1.0],"max":[1.0,1.0,1.0]},{"bufferView":4,"componentType":5126,"count":132,"type":"VEC3","min":[-0.13199999928474426,-0.13199999928474426,-0.5249999761581421],"max":[0.13199999928474426,0.13199999928474426,0.5249999761581421]},{"bufferView":5,"componentType":5126,"count":132,"type":"VEC3","min":[-0.9659258127212524,-0.9659258127212524,-1.0],"max":[0.9659258127212524,0.9659258127212524,1.0]},{"bufferView":6,"componentType":5126,"count":720,"type":"VEC3","min":[-0.17499999701976776,-0.1703108847141266,-0.03500000014901161],"max":[0.17499999701976776,0.1703108847141266,0.03500000014901161]},{"bufferView":7,"componentType":5126,"count":720,"type":"VEC3","min":[-0.9462413787841797,-0.9876883625984192,-1.0],"max":[0.9738191962242126,0.9876883625984192,1.0]},{"bufferView":8,"componentType":5126,"count":132,"type":"VEC3","min":[-0.2150000035762787,-0.1550000011920929,-0.08500000089406967],"max":[0.2150000035762787,0.1550000011920929,0.08500000089406967]},{"bufferView":9,"componentType":5126,"count":132,"type":"VEC3","min":[-1.0,-1.0,-1.0],"max":[1.0,1.0,1.0]},{"bufferView":10,"componentType":5126,"count":84,"type":"VEC3","min":[-0.15000000596046448,-0.40049511194229126,-0.222087100148201],"max":[0.15000000596046448,0.4044174253940582,0.20247548818588257]},{"bufferView":11,"componentType":5126,"count":84,"type":"VEC3","min":[-0.9236100316047668,-0.9805806875228882,-0.9009376764297485],"max":[0.9236100316047668,0.9805806875228882,0.9104106426239014]},{"bufferView":12,"componentType":5126,"count":84,"type":"VEC3","min":[-0.1599999964237213,-0.2794174253940582,-0.20689290761947632],"max":[0.1599999964237213,0.2813785672187805,0.1970870941877365]},{"bufferView":13,"componentType":5126,"count":84,"type":"VEC3","min":[-0.9237279295921326,-0.9805806875228882,-0.9022369384765625],"max":[0.9237279295921326,0.9805806875228882,0.9093425273895264]},{"bufferView":14,"componentType":5126,"count":132,"type":"VEC3","min":[-0.1599999964237213,-0.06499999761581421,-0.14000000059604645],"max":[0.1599999964237213,0.06499999761581421,0.14000000059604645]},{"bufferView":15,"componentType":5126,"count":132,"type":"VEC3","min":[-1.0,-1.0,-1.0],"max":[1.0,1.0,1.0]},{"bufferView":16,"componentType":5126,"count":60,"type":"VEC3","min":[-0.032999999821186066,-0.02857883833348751,-0.2150000035762787],"max":[0.032999999821186066,0.02857883833348751,0.2150000035762787]},{"bufferView":17,"componentType":5126,"count":60,"type":"VEC3","min":[-0.8660253882408142,-1.0,-1.0],"max":[0.8660253882408142,1.0,1.0]},{"bufferView":18,"componentType":5126,"count":60,"type":"VEC3","min":[-0.032999999821186066,-0.15903742611408234,-0.07711226493120193],"max":[0.032999999821186066,0.15903742611408234,0.07711226493120193]},{"bufferView":19,"componentType":5126,"count":60,"type":"VEC3","min":[-0.8660253882408142,-0.9486833214759827,-0.9486833214759827],"max":[0.8660253882408142,0.9486833214759827,0.9486833214759827]},{"bufferView":20,"componentType":5126,"count":60,"type":"VEC3","min":[-0.032999999821186066,-0.08752702921628952,-0.22268196940422058],"max":[0.032999999821186066,0.08752702921628952,0.22268196940422058]},{"bufferView":21,"componentType":5126,"count":60,"type":"VEC3","min":[-0.8660253882408142,-0.9631962776184082,-0.9631962776184082],"max":[0.8660253882408142,0.9631962776184082,0.9631962776184082]},{"bufferView":22,"componentType":5126,"count":60,"type":"VEC3","min":[-0.03500000014901161,-0.10547863692045212,-0.06344201415777206],"max":[0.03500000014901161,0.10547863692045212,0.06344201415777206]},{"bufferView":23,"componentType":5126,"count":60,"type":"VEC3","min":[-0.8660253882408142,-0.9383431077003479,-0.9383431077003479],"max":[0.8660253882408142,0.9383431077003479,0.9383431077003479]},{"bufferView":24,"componentType":5126,"count":60,"type":"VEC3","min":[-0.03500000014901161,-0.05070358142256737,-0.05606473982334137],"max":[0.03500000014901161,0.05070358142256737,0.05606473982334137]},{"bufferView":25,"componentType":5126,"count":60,"type":"VEC3","min":[-0.8660253882408142,-0.847998321056366,-0.847998321056366],"max":[0.8660253882408142,0.847998321056366,0.847998321056366]},{"bufferView":26,"componentType":5126,"count":108,"type":"VEC3","min":[-0.4300000071525574,-0.06657395511865616,-0.07000000029802322],"max":[0.4300000071525574,0.06657395511865616,0.07000000029802322]},{"bufferView":27,"componentType":5126,"count":108,"type":"VEC3","min":[-1.0,-1.0,-0.9510565400123596],"max":[1.0,1.0,0.9510565400123596]},{"bufferView":28,"componentType":5126,"count":132,"type":"VEC3","min":[-0.3100000023841858,-0.18000000715255737,-0.18000000715255737],"max":[0.3100000023841858,0.18000000715255737,0.18000000715255737]},{"bufferView":29,"componentType":5126,"count":132,"type":"VEC3","min":[-1.0,-0.9659258127212524,-0.9659258127212524],"max":[1.0,0.9659258127212524,0.9659258127212524]},{"bufferView":30,"componentType":5126,"count":132,"type":"VEC3","min":[-0.02500000037252903,-0.2549999952316284,-0.2549999952316284],"max":[0.02500000037252903,0.2549999952316284,0.2549999952316284]},{"bufferView":31,"componentType":5126,"count":132,"type":"VEC3","min":[-1.0,-0.9659258127212524,-0.9659258127212524],"max":[1.0,0.9659258127212524,0.9659258127212524]},{"bufferView":32,"componentType":5126,"count":108,"type":"VEC3","min":[-0.017000000923871994,-0.08083980530500412,-0.08500000089406967],"max":[0.017000000923871994,0.08083980530500412,0.08500000089406967]},{"bufferView":33,"componentType":5126,"count":108,"type":"VEC3","min":[-1.0,-1.0,-0.9510565400123596],"max":[1.0,1.0,0.9510565400123596]},{"bufferView":34,"componentType":5126,"count":132,"type":"VEC3","min":[-0.02500000037252903,-0.2549999952316284,-0.2549999952316284],"max":[0.02500000037252903,0.2549999952316284,0.2549999952316284]},{"bufferView":35,"componentType":5126,"count":132,"type":"VEC3","min":[-1.0,-0.9659258127212524,-0.9659258127212524],"max":[1.0,0.9659258127212524,0.9659258127212524]},{"bufferView":36,"componentType":5126,"count":108,"type":"VEC3","min":[-0.017000000923871994,-0.08083980530500412,-0.08500000089406967],"max":[0.017000000923871994,0.08083980530500412,0.08500000089406967]},{"bufferView":37,"componentType":5126,"count":108,"type":"VEC3","min":[-1.0,-1.0,-0.9510565400123596],"max":[1.0,1.0,0.9510565400123596]},{"bufferView":38,"componentType":5126,"count":4818,"type":"VEC3","min":[-0.30897456407546997,-0.22482535243034363,-0.22357070446014404],"max":[0.30452239513397217,0.22482535243034363,0.2260800153017044]},{"bufferView":39,"componentType":5126,"count":4818,"type":"VEC3","min":[-0.9989526867866516,-0.9797849059104919,-0.9721707701683044],"max":[0.9992048740386963,0.9797849059104919,0.9452518820762634]},{"bufferView":40,"componentType":5126,"count":84,"type":"VEC3","min":[-0.04600000008940697,-0.04600000008940697,-0.23000000417232513],"max":[0.04600000008940697,0.04600000008940697,0.23000000417232513]},{"bufferView":41,"componentType":5126,"count":84,"type":"VEC3","min":[-0.9238795042037964,-0.9238795042037964,-1.0],"max":[0.9238795042037964,0.9238795042037964,1.0]},{"bufferView":42,"componentType":5126,"count":60,"type":"VEC3","min":[-0.03500000014901161,-0.1285335123538971,-0.1089845523238182],"max":[0.03500000014901161,0.1285335123538971,0.1089845523238182]},{"bufferView":43,"componentType":5126,"count":60,"type":"VEC3","min":[-0.8660253882408142,-0.79128497838974,-0.79128497838974],"max":[0.8660253882408142,0.79128497838974,0.79128497838974]},{"bufferView":44,"componentType":5126,"count":60,"type":"VEC3","min":[-0.03500000014901161,-0.06674490123987198,-0.08926394581794739],"max":[0.03500000014901161,0.06674490123987198,0.08926394581794739]},{"bufferView":45,"componentType":5126,"count":60,"type":"VEC3","min":[-0.8660253882408142,-0.8823529481887817,-0.8823529481887817],"max":[0.8660253882408142,0.8823529481887817,0.8823529481887817]},{"bufferView":46,"componentType":5126,"count":60,"type":"VEC3","min":[-0.03500000014901161,-0.05858287587761879,-0.09508807212114334],"max":[0.03500000014901161,0.05858287587761879,0.09508807212114334]},{"bufferView":47,"componentType":5126,"count":60,"type":"VEC3","min":[-0.8660253882408142,-0.9429903626441956,-0.9429903626441956],"max":[0.8660253882408142,0.9429903626441956,0.9429903626441956]},{"bufferView":48,"componentType":5126,"count":60,"type":"VEC3","min":[-0.03500000014901161,-0.02940632775425911,-0.05606473982334137],"max":[0.03500000014901161,0.05070358142256737,0.042753953486680984]},{"bufferView":49,"componentType":5126,"count":60,"type":"VEC3","min":[-0.8368778824806213,-0.9558027982711792,-0.847998321056366],"max":[0.8368778824806213,0.6831122636795044,0.847998321056366]},{"bufferView":50,"componentType":5126,"count":60,"type":"VEC3","min":[-0.11856479197740555,-0.08283766359090805,-0.1111154556274414],"max":[0.11856479197740555,0.08283766359090805,0.1111154556274414]},{"bufferView":51,"componentType":5126,"count":60,"type":"VEC3","min":[-0.7241804003715515,-0.9184045791625977,-0.777893602848053],"max":[0.7241804003715515,0.9184045791625977,0.777893602848053]},{"bufferView":52,"componentType":5126,"count":60,"type":"VEC3","min":[-0.0664154589176178,-0.04945988580584526,-0.08967598527669907],"max":[0.0664154589176178,0.04945988580584526,0.08967598527669907]},{"bufferView":53,"componentType":5126,"count":60,"type":"VEC3","min":[-0.8355447053909302,-0.9719241857528687,-0.8823529481887817],"max":[0.8355447053909302,0.9719241857528687,0.8823529481887817]},{"bufferView":54,"componentType":5126,"count":60,"type":"VEC3","min":[-0.059452127665281296,-0.04488825425505638,-0.09523072093725204],"max":[0.059452127665281296,0.04488825425505638,0.09523072093725204]},{"bufferView":55,"componentType":5126,"count":60,"type":"VEC3","min":[-0.8525228500366211,-0.9860566258430481,-0.9429903626441956],"max":[0.8525228500366211,0.9860566258430481,0.9429903626441956]},{"bufferView":56,"componentType":5126,"count":60,"type":"VEC3","min":[-0.05243101716041565,-0.041727229952812195,-0.05666037276387215],"max":[0.026927271857857704,0.01751038245856762,0.042856063693761826]},{"bufferView":57,"componentType":5126,"count":60,"type":"VEC3","min":[-0.6788535714149475,-0.8636225461959839,-0.847998321056366],"max":[0.9150105118751526,0.9999678134918213,0.847998321056366]},{"bufferView":58,"componentType":5126,"count":60,"type":"VEC3","min":[-0.11856479197740555,-0.08283766359090805,-0.1111154556274414],"max":[0.11856479197740555,0.08283766359090805,0.1111154556274414]},{"bufferView":59,"componentType":5126,"count":60,"type":"VEC3","min":[-0.7241804003715515,-0.9184045791625977,-0.777893602848053],"max":[0.7241804003715515,0.9184045791625977,0.777893602848053]},{"bufferView":60,"componentType":5126,"count":60,"type":"VEC3","min":[-0.0664154589176178,-0.04945988580584526,-0.08967598527669907],"max":[0.0664154589176178,0.04945988580584526,0.08967598527669907]},{"bufferView":61,"componentType":5126,"count":60,"type":"VEC3","min":[-0.8355447053909302,-0.9719241857528687,-0.8823529481887817],"max":[0.8355447053909302,0.9719241857528687,0.8823529481887817]},{"bufferView":62,"componentType":5126,"count":60,"type":"VEC3","min":[-0.059452127665281296,-0.04488825425505638,-0.09523072093725204],"max":[0.059452127665281296,0.04488825425505638,0.09523072093725204]},{"bufferView":63,"componentType":5126,"count":60,"type":"VEC3","min":[-0.8525228500366211,-0.9860566258430481,-0.9429903626441956],"max":[0.8525228500366211,0.9860566258430481,0.9429903626441956]},{"bufferView":64,"componentType":5126,"count":60,"type":"VEC3","min":[-0.026927271857857704,-0.041727229952812195,-0.05666037276387215],"max":[0.05243101716041565,0.01751038245856762,0.042856063693761826]},{"bufferView":65,"componentType":5126,"count":60,"type":"VEC3","min":[-0.9150105118751526,-0.8636225461959839,-0.847998321056366],"max":[0.6788535714149475,0.9999678134918213,0.847998321056366]},{"bufferView":66,"componentType":5126,"count":132,"type":"VEC3","min":[-0.12999999523162842,-0.05999999865889549,-0.1899999976158142],"max":[0.12999999523162842,0.05999999865889549,0.1899999976158142]},{"bufferView":67,"componentType":5126,"count":132,"type":"VEC3","min":[-1.0,-1.0,-1.0],"max":[1.0,1.0,1.0]},{"bufferView":68,"componentType":5126,"count":132,"type":"VEC3","min":[-0.08500000089406967,-0.020999999716877937,-0.14000000059604645],"max":[0.08500000089406967,0.020999999716877937,0.14000000059604645]},{"bufferView":69,"componentType":5126,"count":132,"type":"VEC3","min":[-1.0,-1.0,-1.0],"max":[1.0,1.0,1.0]},{"bufferView":70,"componentType":5126,"count":84,"type":"VEC3","min":[-0.011500000022351742,-0.03500000014901161,-0.03500000014901161],"max":[0.011500000022351742,0.03500000014901161,0.03500000014901161]},{"bufferView":71,"componentType":5126,"count":84,"type":"VEC3","min":[-1.0,-0.9238795042037964,-0.9238795042037964],"max":[1.0,0.9238795042037964,0.9238795042037964]},{"bufferView":72,"componentType":5126,"count":84,"type":"VEC3","min":[-0.011500000022351742,-0.03500000014901161,-0.03500000014901161],"max":[0.011500000022351742,0.03500000014901161,0.03500000014901161]},{"bufferView":73,"componentType":5126,"count":84,"type":"VEC3","min":[-1.0,-0.9238795042037964,-0.9238795042037964],"max":[1.0,0.9238795042037964,0.9238795042037964]}],"buffers":[{"byteLength":206928,"uri":"Grapple_Launcher.bin"}]}