# RIFTBOUND | Z up | flat shaded
mtllib Grapple_Launcher.mtl
o Receiver_0
usemtl dark
v -0.255000 -0.405000 0.895000
v -0.255000 -0.405000 1.135000
v -0.255000 0.505000 0.895000
v -0.255000 0.505000 1.135000
v 0.255000 -0.405000 0.895000
v 0.255000 -0.405000 1.135000
v 0.255000 0.505000 0.895000
v 0.255000 0.505000 1.135000
v -0.185000 -0.475000 0.895000
v -0.185000 -0.475000 1.135000
v 0.185000 -0.475000 0.895000
v 0.185000 -0.475000 1.135000
v -0.185000 0.575000 0.895000
v -0.185000 0.575000 1.135000
v 0.185000 0.575000 0.895000
v 0.185000 0.575000 1.135000
v -0.185000 -0.405000 0.825000
v -0.185000 0.505000 0.825000
v 0.185000 -0.405000 0.825000
v 0.185000 0.505000 0.825000
v -0.185000 -0.405000 1.205000
v -0.185000 0.505000 1.205000
v 0.185000 -0.405000 1.205000
v 0.185000 0.505000 1.205000
f 22 14 4
f 9 1 17
f 8 16 24
f 18 3 13
f 15 7 20
f 10 21 2
f 11 19 5
f 12 6 23
f 3 1 2
f 3 2 4
f 14 3 4
f 14 13 3
f 22 21 23
f 22 23 24
f 22 2 21
f 22 4 2
f 16 22 24
f 16 14 22
f 20 5 19
f 20 7 5
f 8 24 23
f 8 23 6
f 8 5 7
f 8 6 5
f 18 1 3
f 18 17 1
f 18 20 19
f 18 19 17
f 15 13 14
f 15 14 16
f 15 20 18
f 15 18 13
f 15 8 7
f 15 16 8
f 10 2 1
f 10 1 9
f 11 17 19
f 11 9 17
f 12 5 6
f 12 11 5
f 12 23 21
f 12 21 10
f 12 10 9
f 12 9 11
o Copper_Rail_1
usemtl copper
v -0.155000 -0.400000 1.217500
v -0.155000 -0.400000 1.262500
v -0.155000 0.460000 1.217500
v -0.155000 0.460000 1.262500
v 0.155000 -0.400000 1.217500
v 0.155000 -0.400000 1.262500
v 0.155000 0.460000 1.217500
v 0.155000 0.460000 1.262500
v -0.135000 -0.420000 1.217500
v -0.135000 -0.420000 1.262500
v 0.135000 -0.420000 1.217500
v 0.135000 -0.420000 1.262500
v -0.135000 0.480000 1.217500
v -0.135000 0.480000 1.262500
v 0.135000 0.480000 1.217500
v 0.135000 0.480000 1.262500
v -0.135000 -0.400000 1.197500
v -0.135000 0.460000 1.197500
v 0.135000 -0.400000 1.197500
v 0.135000 0.460000 1.197500
v -0.135000 -0.400000 1.282500
v -0.135000 0.460000 1.282500
v 0.135000 -0.400000 1.282500
v 0.135000 0.460000 1.282500
f 46 38 28
f 33 25 41
f 32 40 48
f 42 27 37
f 39 31 44
f 34 45 26
f 35 43 29
f 36 30 47
f 27 25 26
f 27 26 28
f 38 27 28
f 38 37 27
f 46 45 47
f 46 47 48
f 46 26 45
f 46 28 26
f 40 46 48
f 40 38 46
f 44 29 43
f 44 31 29
f 32 48 47
f 32 47 30
f 32 29 31
f 32 30 29
f 42 25 27
f 42 41 25
f 42 44 43
f 42 43 41
f 39 37 38
f 39 38 40
f 39 44 42
f 39 42 37
f 39 32 31
f 39 40 32
f 34 26 25
f 34 25 33
f 35 41 43
f 35 33 41
f 36 29 30
f 36 35 29
f 36 47 45
f 36 45 34
f 36 34 33
f 36 33 35
o Barrel_2
usemtl edge
v 0.132000 -0.770000 1.025000
v 0.114315 -0.770000 0.959000
v 0.066000 -0.770000 0.910685
v 0.000000 -0.770000 0.893000
v -0.066000 -0.770000 0.910685
v -0.114315 -0.770000 0.959000
v -0.132000 -0.770000 1.025000
v -0.114315 -0.770000 1.091000
v -0.066000 -0.770000 1.139315
v -0.000000 -0.770000 1.157000
v 0.066000 -0.770000 1.139315
v 0.114315 -0.770000 1.091000
v 0.132000 0.280000 1.025000
v 0.114315 0.280000 0.959000
v 0.066000 0.280000 0.910685
v 0.000000 0.280000 0.893000
v -0.066000 0.280000 0.910685
v -0.114315 0.280000 0.959000
v -0.132000 0.280000 1.025000
v -0.114315 0.280000 1.091000
v -0.066000 0.280000 1.139315
v -0.000000 0.280000 1.157000
v 0.066000 0.280000 1.139315
v 0.114315 0.280000 1.091000
f 71 58 59
f 71 70 58
f 53 50 49
f 53 49 60
f 53 56 55
f 53 59 58
f 53 55 54
f 53 52 51
f 53 60 59
f 53 51 50
f 53 58 57
f 53 57 56
f 53 65 64
f 53 64 52
f 66 65 53
f 66 53 54
f 62 49 50
f 62 61 49
f 69 56 57
f 69 68 56
f 69 57 58
f 69 58 70
f 72 60 49
f 72 49 61
f 72 59 60
f 72 71 59
f 67 55 56
f 67 56 68
f 67 54 55
f 67 66 54
f 63 68 69
f 63 72 61
f 63 61 62
f 63 64 65
f 63 70 71
f 63 65 66
f 63 67 68
f 63 69 70
f 63 71 72
f 63 66 67
f 63 51 52
f 63 52 64
f 63 50 51
f 63 62 50
o Muzzle_Collar_3
usemtl copper
v 0.105000 -0.780000 1.025000
v 0.122500 -0.810311 1.025000
v 0.157500 -0.810311 1.025000
v 0.175000 -0.780000 1.025000
v 0.157500 -0.749689 1.025000
v 0.122500 -0.749689 1.025000
v 0.099861 -0.780000 1.057447
v 0.116504 -0.810311 1.062855
v 0.149791 -0.810311 1.073670
v 0.166435 -0.780000 1.079078
v 0.149791 -0.749689 1.073670
v 0.116504 -0.749689 1.062855
v 0.113262 -0.745000 1.107290
v 0.088740 -0.762500 1.089474
v 0.088740 -0.797500 1.089474
v 0.113262 -0.815000 1.107290
v 0.137784 -0.797500 1.125106
v 0.137784 -0.762500 1.125106
v 0.082290 -0.745000 1.138262
v 0.064474 -0.762500 1.113740
v 0.064474 -0.797500 1.113740
v 0.082290 -0.815000 1.138262
v 0.100106 -0.797500 1.162784
v 0.100106 -0.762500 1.162784
v 0.043262 -0.745000 1.158148
v 0.033896 -0.762500 1.129321
v 0.033896 -0.797500 1.129321
v 0.043262 -0.815000 1.158148
v 0.052629 -0.797500 1.186975
v 0.052629 -0.762500 1.186975
v 0.000000 -0.745000 1.165000
v 0.000000 -0.762500 1.134689
v 0.000000 -0.797500 1.134689
v 0.000000 -0.815000 1.165000
v 0.000000 -0.797500 1.195311
v 0.000000 -0.762500 1.195311
v -0.043262 -0.745000 1.158148
v -0.033896 -0.762500 1.129321
v -0.033896 -0.797500 1.129321
v -0.043262 -0.815000 1.158148
v -0.052629 -0.797500 1.186975
v -0.052629 -0.762500 1.186975
v -0.082290 -0.745000 1.138262
v -0.064474 -0.762500 1.113740
v -0.064474 -0.797500 1.113740
v -0.082290 -0.815000 1.138262
v -0.100106 -0.797500 1.162784
v -0.100106 -0.762500 1.162784
v -0.113262 -0.745000 1.107290
v -0.088740 -0.762500 1.089474
v -0.088740 -0.797500 1.089474
v -0.113262 -0.815000 1.107290
v -0.137784 -0.797500 1.125106
v -0.137784 -0.762500 1.125106
v -0.099861 -0.780000 1.057447
v -0.116504 -0.810311 1.062855
v -0.149791 -0.810311 1.073670
v -0.166435 -0.780000 1.079078
v -0.149791 -0.749689 1.073670
v -0.116504 -0.749689 1.062855
v -0.105000 -0.780000 1.025000
v -0.122500 -0.810311 1.025000
v -0.157500 -0.810311 1.025000
v -0.175000 -0.780000 1.025000
v -0.157500 -0.749689 1.025000
v -0.122500 -0.749689 1.025000
v -0.099861 -0.780000 0.992553
v -0.116504 -0.810311 0.987145
v -0.149791 -0.810311 0.976330
v -0.166435 -0.780000 0.970922
v -0.149791 -0.749689 0.976330
v -0.116504 -0.749689 0.987145
v -0.113262 -0.815000 0.942710
v -0.137784 -0.797500 0.924894
v -0.137784 -0.762500 0.924894
v -0.113262 -0.745000 0.942710
v -0.088740 -0.762500 0.960526
v -0.088740 -0.797500 0.960526
v -0.082290 -0.815000 0.911738
v -0.100106 -0.797500 0.887216
v -0.100106 -0.762500 0.887216
v -0.082290 -0.745000 0.911738
v -0.064474 -0.762500 0.936260
v -0.064474 -0.797500 0.936260
v -0.043262 -0.815000 0.891852
v -0.052629 -0.797500 0.863025
v -0.052629 -0.762500 0.863025
v -0.043262 -0.745000 0.891852
v -0.033896 -0.762500 0.920679
v -0.033896 -0.797500 0.920679
v -0.000000 -0.815000 0.885000
v -0.000000 -0.797500 0.854689
v -0.000000 -0.762500 0.854689
v -0.000000 -0.745000 0.885000
v -0.000000 -0.762500 0.915311
v -0.000000 -0.797500 0.915311
v 0.043262 -0.815000 0.891852
v 0.052629 -0.797500 0.863025
v 0.052629 -0.762500 0.863025
v 0.043262 -0.745000 0.891852
v 0.033896 -0.762500 0.920679
v 0.033896 -0.797500 0.920679
v 0.082290 -0.815000 0.911738
v 0.100106 -0.797500 0.887216
v 0.100106 -0.762500 0.887216
v 0.082290 -0.745000 0.911738
v 0.064474 -0.762500 0.936260
v 0.064474 -0.797500 0.936260
v 0.113262 -0.815000 0.942710
v 0.137784 -0.797500 0.924894
v 0.137784 -0.762500 0.924894
v 0.113262 -0.745000 0.942710
v 0.088740 -0.762500 0.960526
v 0.088740 -0.797500 0.960526
v 0.099861 -0.780000 0.992553
v 0.116504 -0.810311 0.987145
v 0.149791 -0.810311 0.976330
v 0.166435 -0.780000 0.970922
v 0.149791 -0.749689 0.976330
v 0.116504 -0.749689 0.987145
f 73 74 80
f 73 80 79
f 74 75 81
f 74 81 80
f 75 76 82
f 75 82 81
f 76 77 83
f 76 83 82
f 77 78 84
f 77 84 83
f 78 73 79
f 78 79 84
f 79 80 86
f 79 86 85
f 80 81 87
f 80 87 86
f 81 82 88
f 81 88 87
f 82 83 89
f 82 89 88
f 83 84 90
f 83 90 89
f 84 79 85
f 84 85 90
f 85 86 92
f 85 92 91
f 86 87 93
f 86 93 92
f 87 88 94
f 87 94 93
f 88 89 95
f 88 95 94
f 89 90 96
f 89 96 95
f 90 85 91
f 90 91 96
f 91 92 98
f 91 98 97
f 92 93 99
f 92 99 98
f 93 94 100
f 93 100 99
f 94 95 101
f 94 101 100
f 95 96 102
f 95 102 101
f 96 91 97
f 96 97 102
f 97 98 104
f 97 104 103
f 98 99 105
f 98 105 104
f 99 100 106
f 99 106 105
f 100 101 107
f 100 107 106
f 101 102 108
f 101 108 107
f 102 97 103
f 102 103 108
f 103 104 110
f 103 110 109
f 104 105 111
f 104 111 110
f 105 106 112
f 105 112 111
f 106 107 113
f 106 113 112
f 107 108 114
f 107 114 113
f 108 103 109
f 108 109 114
f 109 110 116
f 109 116 115
f 110 111 117
f 110 117 116
f 111 112 118
f 111 118 117
f 112 113 119
f 112 119 118
f 113 114 120
f 113 120 119
f 114 109 115
f 114 115 120
f 115 116 122
f 115 122 121
f 116 117 123
f 116 123 122
f 117 118 124
f 117 124 123
f 118 119 125
f 118 125 124
f 119 120 126
f 119 126 125
f 120 115 121
f 120 121 126
f 121 122 128
f 121 128 127
f 122 123 129
f 122 129 128
f 123 124 130
f 123 130 129
f 124 125 131
f 124 131 130
f 125 126 132
f 125 132 131
f 126 121 127
f 126 127 132
f 127 128 134
f 127 134 133
f 128 129 135
f 128 135 134
f 129 130 136
f 129 136 135
f 130 131 137
f 130 137 136
f 131 132 138
f 131 138 137
f 132 127 133
f 132 133 138
f 133 134 140
f 133 140 139
f 134 135 141
f 134 141 140
f 135 136 142
f 135 142 141
f 136 137 143
f 136 143 142
f 137 138 144
f 137 144 143
f 138 133 139
f 138 139 144
f 139 140 146
f 139 146 145
f 140 141 147
f 140 147 146
f 141 142 148
f 141 148 147
f 142 143 149
f 142 149 148
f 143 144 150
f 143 150 149
f 144 139 145
f 144 145 150
f 145 146 152
f 145 152 151
f 146 147 153
f 146 153 152
f 147 148 154
f 147 154 153
f 148 149 155
f 148 155 154
f 149 150 156
f 149 156 155
f 150 145 151
f 150 151 156
f 151 152 158
f 151 158 157
f 152 153 159
f 152 159 158
f 153 154 160
f 153 160 159
f 154 155 161
f 154 161 160
f 155 156 162
f 155 162 161
f 156 151 157
f 156 157 162
f 157 158 164
f 157 164 163
f 158 159 165
f 158 165 164
f 159 160 166
f 159 166 165
f 160 161 167
f 160 167 166
f 161 162 168
f 161 168 167
f 162 157 163
f 162 163 168
f 163 164 170
f 163 170 169
f 164 165 171
f 164 171 170
f 165 166 172
f 165 172 171
f 166 167 173
f 166 173 172
f 167 168 174
f 167 174 173
f 168 163 169
f 168 169 174
f 169 170 176
f 169 176 175
f 170 171 177
f 170 177 176
f 171 172 178
f 171 178 177
f 172 173 179
f 172 179 178
f 173 174 180
f 173 180 179
f 174 169 175
f 174 175 180
f 175 176 182
f 175 182 181
f 176 177 183
f 176 183 182
f 177 178 184
f 177 184 183
f 178 179 185
f 178 185 184
f 179 180 186
f 179 186 185
f 180 175 181
f 180 181 186
f 181 182 188
f 181 188 187
f 182 183 189
f 182 189 188
f 183 184 190
f 183 190 189
f 184 185 191
f 184 191 190
f 185 186 192
f 185 192 191
f 186 181 187
f 186 187 192
f 187 188 74
f 187 74 73
f 188 189 75
f 188 75 74
f 189 190 76
f 189 76 75
f 190 191 77
f 190 77 76
f 191 192 78
f 191 78 77
f 192 187 73
f 192 73 78
o Rear_Cap_4
usemtl copper
v -0.215000 0.540000 0.905000
v -0.215000 0.540000 1.145000
v -0.215000 0.640000 0.905000
v -0.215000 0.640000 1.145000
v 0.215000 0.540000 0.905000
v 0.215000 0.540000 1.145000
v 0.215000 0.640000 0.905000
v 0.215000 0.640000 1.145000
v -0.180000 0.505000 0.905000
v -0.180000 0.505000 1.145000
v 0.180000 0.505000 0.905000
v 0.180000 0.505000 1.145000
v -0.180000 0.675000 0.905000
v -0.180000 0.675000 1.145000
v 0.180000 0.675000 0.905000
v 0.180000 0.675000 1.145000
v -0.180000 0.540000 0.870000
v -0.180000 0.640000 0.870000
v 0.180000 0.540000 0.870000
v 0.180000 0.640000 0.870000
v -0.180000 0.540000 1.180000
v -0.180000 0.640000 1.180000
v 0.180000 0.540000 1.180000
v 0.180000 0.640000 1.180000
f 201 193 209
f 214 206 196
f 199 212 207
f 210 195 205
f 216 200 208
f 204 198 215
f 202 213 194
f 203 211 197
f 195 193 194
f 195 194 196
f 206 208 207
f 206 207 205
f 206 195 196
f 206 205 195
f 214 196 194
f 214 194 213
f 199 211 212
f 199 197 211
f 199 207 208
f 199 208 200
f 210 205 207
f 210 207 212
f 210 212 211
f 210 211 209
f 210 193 195
f 210 209 193
f 198 197 199
f 198 199 200
f 216 198 200
f 216 215 198
f 216 208 206
f 216 206 214
f 216 214 213
f 216 213 215
f 202 194 193
f 202 193 201
f 202 215 213
f 202 204 215
f 203 197 198
f 203 198 204
f 203 209 211
f 203 201 209
f 203 202 201
f 203 204 202
o Grip_Core_5
usemtl woodlight
v -0.130000 0.370000 0.055000
v -0.091924 0.279861 0.073028
v -0.000000 0.242525 0.080495
v 0.091924 0.279861 0.073028
v 0.130000 0.370000 0.055000
v 0.091924 0.460139 0.036972
v 0.000000 0.497475 0.029505
v -0.091924 0.460139 0.036972
v -0.150000 0.520000 0.805000
v -0.106066 0.415994 0.825801
v -0.000000 0.372913 0.834417
v 0.106066 0.415994 0.825801
v 0.150000 0.520000 0.805000
v 0.106066 0.624006 0.784199
v 0.000000 0.667087 0.775583
v -0.106066 0.624006 0.784199
f 230 228 229
f 230 225 226
f 230 232 225
f 230 226 227
f 230 231 232
f 230 227 228
f 218 227 226
f 218 219 227
f 218 226 225
f 218 225 217
f 224 232 231
f 224 231 223
f 224 225 232
f 224 217 225
f 220 228 227
f 220 227 219
f 220 229 228
f 220 221 229
f 222 224 223
f 222 219 218
f 222 220 219
f 222 218 217
f 222 217 224
f 222 221 220
f 222 231 230
f 222 223 231
f 222 230 229
f 222 229 221
o Grip_Wrap_6
usemtl leather
v -0.150000 0.390000 0.155000
v -0.106066 0.285994 0.175801
v -0.000000 0.242913 0.184417
v 0.106066 0.285994 0.175801
v 0.150000 0.390000 0.155000
v 0.106066 0.494006 0.134199
v 0.000000 0.537087 0.125583
v -0.106066 0.494006 0.134199
v -0.160000 0.490000 0.655000
v -0.113137 0.379060 0.677188
v -0.000000 0.333107 0.686379
v 0.113137 0.379060 0.677188
v 0.160000 0.490000 0.655000
v 0.113137 0.600940 0.632812
v 0.000000 0.646893 0.623621
v -0.113137 0.600940 0.632812
f 246 248 241
f 246 241 242
f 246 244 245
f 246 242 243
f 246 247 248
f 246 243 244
f 234 243 242
f 234 235 243
f 234 242 241
f 234 241 233
f 240 248 247
f 240 247 239
f 240 241 248
f 240 233 241
f 236 244 243
f 236 243 235
f 236 245 244
f 236 237 245
f 238 240 239
f 238 235 234
f 238 236 235
f 238 234 233
f 238 233 240
f 238 237 236
f 238 247 246
f 238 239 247
f 238 246 245
f 238 245 237
o Grip_Pommel_7
usemtl copper
v -0.160000 0.255000 0.035000
v -0.160000 0.255000 0.095000
v -0.160000 0.465000 0.035000
v -0.160000 0.465000 0.095000
v 0.160000 0.255000 0.035000
v 0.160000 0.255000 0.095000
v 0.160000 0.465000 0.035000
v 0.160000 0.465000 0.095000
v -0.125000 0.220000 0.035000
v -0.125000 0.220000 0.095000
v 0.125000 0.220000 0.035000
v 0.125000 0.220000 0.095000
v -0.125000 0.500000 0.035000
v -0.125000 0.500000 0.095000
v 0.125000 0.500000 0.035000
v 0.125000 0.500000 0.095000
v -0.125000 0.255000 0.000000
v -0.125000 0.465000 0.000000
v 0.125000 0.255000 0.000000
v 0.125000 0.465000 0.000000
v -0.125000 0.255000 0.130000
v -0.125000 0.465000 0.130000
v 0.125000 0.255000 0.130000
v 0.125000 0.465000 0.130000
f 257 249 265
f 264 272 256
f 270 262 252
f 255 268 263
f 266 251 261
f 260 254 271
f 258 269 250
f 259 267 253
f 251 249 250
f 251 250 252
f 262 251 252
f 262 261 251
f 264 261 262
f 264 263 261
f 270 252 250
f 270 250 269
f 270 269 271
f 270 271 272
f 270 264 262
f 270 272 264
f 254 272 271
f 254 256 272
f 255 256 254
f 255 254 253
f 255 253 267
f 255 267 268
f 255 263 264
f 255 264 256
f 266 261 263
f 266 263 268
f 266 268 267
f 266 267 265
f 266 249 251
f 266 265 249
f 258 250 249
f 258 249 257
f 258 271 269
f 258 260 271
f 259 253 254
f 259 254 260
f 259 265 267
f 259 257 265
f 259 258 257
f 259 260 258
o Trigger_Guard0_8
usemtl copper
v -0.033000 0.410000 0.775000
v -0.016500 0.410000 0.746421
v 0.016500 0.410000 0.746421
v 0.033000 0.410000 0.775000
v 0.016500 0.410000 0.803579
v -0.016500 0.410000 0.803579
v -0.033000 -0.020000 0.775000
v -0.016500 -0.020000 0.746421
v 0.016500 -0.020000 0.746421
v 0.033000 -0.020000 0.775000
v 0.016500 -0.020000 0.803579
v -0.016500 -0.020000 0.803579
f 283 276 277
f 283 282 276
f 280 273 274
f 280 279 273
f 284 278 273
f 284 273 279
f 284 277 278
f 284 283 277
f 275 273 278
f 275 277 276
f 275 278 277
f 275 274 273
f 281 282 283
f 281 279 280
f 281 284 279
f 281 283 284
f 281 276 282
f 281 275 276
f 281 280 274
f 281 274 275
o Trigger_Guard1_9
usemtl copper
v 0.033000 -0.020000 0.775000
v 0.016500 -0.047112 0.784037
v -0.016500 -0.047112 0.784037
v -0.033000 -0.020000 0.775000
v -0.016500 0.007112 0.765963
v 0.016500 0.007112 0.765963
v 0.033000 -0.120000 0.475000
v 0.016500 -0.147112 0.484037
v -0.016500 -0.147112 0.484037
v -0.033000 -0.120000 0.475000
v -0.016500 -0.092888 0.465963
v 0.016500 -0.092888 0.465963
f 291 285 286
f 291 286 292
f 294 288 289
f 294 289 295
f 287 294 293
f 287 288 294
f 287 292 286
f 287 293 292
f 290 288 287
f 290 289 288
f 290 286 285
f 290 287 286
f 296 294 295
f 296 292 293
f 296 291 292
f 296 293 294
f 296 295 289
f 296 289 290
f 296 285 291
f 296 290 285
o Trigger_Guard2_10
usemtl copper
v 0.033000 -0.120000 0.475000
v 0.016500 -0.127682 0.447473
v -0.016500 -0.127682 0.447473
v -0.033000 -0.120000 0.475000
v -0.016500 -0.112318 0.502527
v 0.016500 -0.112318 0.502527
v 0.033000 0.310000 0.355000
v 0.016500 0.302318 0.327473
v -0.016500 0.302318 0.327473
v -0.033000 0.310000 0.355000
v -0.016500 0.317682 0.382527
v 0.016500 0.317682 0.382527
f 303 297 298
f 303 298 304
f 306 300 301
f 306 301 307
f 299 306 305
f 299 300 306
f 299 304 298
f 299 305 304
f 308 303 304
f 308 306 307
f 308 304 305
f 308 305 306
f 302 300 299
f 302 301 300
f 302 298 297
f 302 299 298
f 302 297 303
f 302 303 308
f 302 307 301
f 302 308 307
o Trigger0_11
usemtl edge
v 0.035000 0.190000 0.815000
v 0.017500 0.161558 0.825479
v -0.017500 0.161558 0.825479
v -0.035000 0.190000 0.815000
v -0.017500 0.218442 0.804521
v 0.017500 0.218442 0.804521
v 0.035000 0.120000 0.625000
v 0.017500 0.091558 0.635479
v -0.017500 0.091558 0.635479
v -0.035000 0.120000 0.625000
v -0.017500 0.148442 0.614521
v 0.017500 0.148442 0.614521
f 310 316 315
f 310 315 309
f 318 312 313
f 318 313 319
f 317 315 316
f 317 319 320
f 317 318 319
f 317 320 315
f 314 309 315
f 314 315 320
f 314 319 313
f 314 320 319
f 311 310 309
f 311 309 314
f 311 313 312
f 311 314 313
f 311 312 318
f 311 318 317
f 311 316 310
f 311 317 316
o Trigger1_12
usemtl edge
v 0.035000 0.120000 0.625000
v 0.017500 0.103935 0.599296
v -0.017500 0.103935 0.599296
v -0.035000 0.120000 0.625000
v -0.017500 0.136065 0.650704
v 0.017500 0.136065 0.650704
v 0.035000 0.200000 0.575000
v 0.017500 0.183935 0.549296
v -0.017500 0.183935 0.549296
v -0.035000 0.200000 0.575000
v -0.017500 0.216065 0.600704
v 0.017500 0.216065 0.600704
f 327 321 322
f 327 322 328
f 330 324 325
f 330 325 331
f 323 330 329
f 323 324 330
f 323 328 322
f 323 329 328
f 326 324 323
f 326 325 324
f 326 322 321
f 326 323 322
f 332 327 328
f 332 330 331
f 332 328 329
f 332 329 330
f 332 331 325
f 332 325 326
f 332 321 327
f 332 326 321
o Reel_Axle_13
usemtl dark
v -0.430000 0.450000 0.815000
v -0.430000 0.463369 0.773855
v -0.430000 0.498369 0.748426
v -0.430000 0.541631 0.748426
v -0.430000 0.576631 0.773855
v -0.430000 0.590000 0.815000
v -0.430000 0.576631 0.856145
v -0.430000 0.541631 0.881574
v -0.430000 0.498369 0.881574
v -0.430000 0.463369 0.856145
v 0.430000 0.450000 0.815000
v 0.430000 0.463369 0.773855
v 0.430000 0.498369 0.748426
v 0.430000 0.541631 0.748426
v 0.430000 0.576631 0.773855
v 0.430000 0.590000 0.815000
v 0.430000 0.576631 0.856145
v 0.430000 0.541631 0.881574
v 0.430000 0.498369 0.881574
v 0.430000 0.463369 0.856145
f 344 333 334
f 344 343 333
f 344 334 335
f 344 335 345
f 336 345 335
f 336 346 345
f 336 347 346
f 336 337 347
f 352 342 333
f 352 333 343
f 339 334 333
f 339 338 337
f 339 336 335
f 339 335 334
f 339 341 340
f 339 333 342
f 339 342 341
f 339 337 336
f 339 350 349
f 339 340 350
f 348 337 338
f 348 347 337
f 348 338 339
f 348 339 349
f 351 343 344
f 351 352 343
f 351 346 347
f 351 344 345
f 351 345 346
f 351 349 350
f 351 347 348
f 351 348 349
f 351 340 341
f 351 350 340
f 351 341 342
f 351 342 352
o Reel_Core_14
usemtl wood
v -0.310000 0.340000 0.815000
v -0.310000 0.364115 0.725000
v -0.310000 0.430000 0.659115
v -0.310000 0.520000 0.635000
v -0.310000 0.610000 0.659115
v -0.310000 0.675885 0.725000
v -0.310000 0.700000 0.815000
v -0.310000 0.675885 0.905000
v -0.310000 0.610000 0.970885
v -0.310000 0.520000 0.995000
v -0.310000 0.430000 0.970885
v -0.310000 0.364115 0.905000
v 0.310000 0.340000 0.815000
v 0.310000 0.364115 0.725000
v 0.310000 0.430000 0.659115
v 0.310000 0.520000 0.635000
v 0.310000 0.610000 0.659115
v 0.310000 0.675885 0.725000
v 0.310000 0.700000 0.815000
v 0.310000 0.675885 0.905000
v 0.310000 0.610000 0.970885
v 0.310000 0.520000 0.995000
v 0.310000 0.430000 0.970885
v 0.310000 0.364115 0.905000
f 361 374 373
f 361 362 374
f 367 355 356
f 367 356 368
f 357 369 368
f 357 368 356
f 357 370 369
f 357 358 370
f 376 364 353
f 376 353 365
f 371 358 359
f 371 370 358
f 360 354 353
f 360 359 358
f 360 353 364
f 360 356 355
f 360 357 356
f 360 363 362
f 360 355 354
f 360 364 363
f 360 362 361
f 360 358 357
f 360 372 371
f 360 371 359
f 360 361 373
f 360 373 372
f 366 353 354
f 366 365 353
f 366 354 355
f 366 355 367
f 375 369 370
f 375 376 365
f 375 370 371
f 375 368 369
f 375 373 374
f 375 372 373
f 375 367 368
f 375 365 366
f 375 371 372
f 375 366 367
f 375 362 363
f 375 374 362
f 375 363 364
f 375 364 376
o Reel_Sideplate_15
usemtl copper
v -0.365000 0.265000 0.815000
v -0.365000 0.299164 0.687500
v -0.365000 0.392500 0.594164
v -0.365000 0.520000 0.560000
v -0.365000 0.647500 0.594164
v -0.365000 0.740836 0.687500
v -0.365000 0.775000 0.815000
v -0.365000 0.740836 0.942500
v -0.365000 0.647500 1.035836
v -0.365000 0.520000 1.070000
v -0.365000 0.392500 1.035836
v -0.365000 0.299164 0.942500
v -0.315000 0.265000 0.815000
v -0.315000 0.299164 0.687500
v -0.315000 0.392500 0.594164
v -0.315000 0.520000 0.560000
v -0.315000 0.647500 0.594164
v -0.315000 0.740836 0.687500
v -0.315000 0.775000 0.815000
v -0.315000 0.740836 0.942500
v -0.315000 0.647500 1.035836
v -0.315000 0.520000 1.070000
v -0.315000 0.392500 1.035836
v -0.315000 0.299164 0.942500
f 398 385 386
f 398 397 385
f 390 377 378
f 390 389 377
f 390 378 379
f 390 379 391
f 392 380 381
f 392 381 393
f 392 379 380
f 392 391 379
f 394 381 382
f 394 393 381
f 394 382 383
f 394 383 395
f 384 377 388
f 384 378 377
f 384 383 382
f 384 380 379
f 384 387 386
f 384 381 380
f 384 388 387
f 384 382 381
f 384 386 385
f 384 379 378
f 400 388 377
f 400 377 389
f 396 385 397
f 396 384 385
f 396 395 383
f 396 383 384
f 399 397 398
f 399 392 393
f 399 389 390
f 399 400 389
f 399 393 394
f 399 390 391
f 399 391 392
f 399 394 395
f 399 396 397
f 399 395 396
f 399 386 387
f 399 398 386
f 399 387 388
f 399 388 400
o Reel_Axle_Cap_16
usemtl edge
v -0.384200 0.605000 0.815000
v -0.384200 0.588766 0.765038
v -0.384200 0.546266 0.734160
v -0.384200 0.493734 0.734160
v -0.384200 0.451234 0.765038
v -0.384200 0.435000 0.815000
v -0.384200 0.451234 0.864962
v -0.384200 0.493734 0.895840
v -0.384200 0.546266 0.895840
v -0.384200 0.588766 0.864962
v -0.418200 0.605000 0.815000
v -0.418200 0.588766 0.765038
v -0.418200 0.546266 0.734160
v -0.418200 0.493734 0.734160
v -0.418200 0.451234 0.765038
v -0.418200 0.435000 0.815000
v -0.418200 0.451234 0.864962
v -0.418200 0.493734 0.895840
v -0.418200 0.546266 0.895840
v -0.418200 0.588766 0.864962
f 404 414 413
f 404 413 403
f 416 406 407
f 416 407 417
f 412 401 402
f 412 411 401
f 412 402 403
f 412 403 413
f 415 414 404
f 415 404 405
f 415 405 406
f 415 406 416
f 409 401 410
f 409 402 401
f 409 404 403
f 409 403 402
f 409 407 406
f 409 406 405
f 409 405 404
f 409 408 407
f 420 410 401
f 420 401 411
f 420 409 410
f 420 419 409
f 418 411 412
f 418 414 415
f 418 413 414
f 418 416 417
f 418 420 411
f 418 412 413
f 418 415 416
f 418 419 420
f 418 417 407
f 418 407 408
f 418 408 409
f 418 409 419
o Reel_Sideplate_17
usemtl copper
v 0.315000 0.265000 0.815000
v 0.315000 0.299164 0.687500
v 0.315000 0.392500 0.594164
v 0.315000 0.520000 0.560000
v 0.315000 0.647500 0.594164
v 0.315000 0.740836 0.687500
v 0.315000 0.775000 0.815000
v 0.315000 0.740836 0.942500
v 0.315000 0.647500 1.035836
v 0.315000 0.520000 1.070000
v 0.315000 0.392500 1.035836
v 0.315000 0.299164 0.942500
v 0.365000 0.265000 0.815000
v 0.365000 0.299164 0.687500
v 0.365000 0.392500 0.594164
v 0.365000 0.520000 0.560000
v 0.365000 0.647500 0.594164
v 0.365000 0.740836 0.687500
v 0.365000 0.775000 0.815000
v 0.365000 0.740836 0.942500
v 0.365000 0.647500 1.035836
v 0.365000 0.520000 1.070000
v 0.365000 0.392500 1.035836
v 0.365000 0.299164 0.942500
f 442 429 430
f 442 441 429
f 434 421 422
f 434 433 421
f 434 422 423
f 434 423 435
f 436 424 425
f 436 425 437
f 436 423 424
f 436 435 423
f 438 425 426
f 438 437 425
f 438 426 427
f 438 427 439
f 428 421 432
f 428 422 421
f 428 427 426
f 428 424 423
f 428 431 430
f 428 425 424
f 428 432 431
f 428 426 425
f 428 430 429
f 428 423 422
f 444 432 421
f 444 421 433
f 440 429 441
f 440 428 429
f 440 439 427
f 440 427 428
f 443 441 442
f 443 436 437
f 443 433 434
f 443 444 433
f 443 437 438
f 443 434 435
f 443 435 436
f 443 438 439
f 443 440 441
f 443 439 440
f 443 430 431
f 443 442 430
f 443 431 432
f 443 432 444
o Reel_Axle_Cap_18
usemtl edge
v 0.384200 0.435000 0.815000
v 0.384200 0.451234 0.765038
v 0.384200 0.493734 0.734160
v 0.384200 0.546266 0.734160
v 0.384200 0.588766 0.765038
v 0.384200 0.605000 0.815000
v 0.384200 0.588766 0.864962
v 0.384200 0.546266 0.895840
v 0.384200 0.493734 0.895840
v 0.384200 0.451234 0.864962
v 0.418200 0.435000 0.815000
v 0.418200 0.451234 0.765038
v 0.418200 0.493734 0.734160
v 0.418200 0.546266 0.734160
v 0.418200 0.588766 0.765038
v 0.418200 0.605000 0.815000
v 0.418200 0.588766 0.864962
v 0.418200 0.546266 0.895840
v 0.418200 0.493734 0.895840
v 0.418200 0.451234 0.864962
f 448 458 457
f 448 457 447
f 459 458 448
f 459 448 449
f 456 445 446
f 456 455 445
f 456 446 447
f 456 447 457
f 460 450 451
f 460 451 461
f 460 449 450
f 460 459 449
f 453 445 454
f 453 446 445
f 453 448 447
f 453 447 446
f 453 451 450
f 453 450 449
f 453 449 448
f 453 452 451
f 464 454 445
f 464 445 455
f 464 453 454
f 464 463 453
f 462 458 459
f 462 460 461
f 462 457 458
f 462 455 456
f 462 464 455
f 462 456 457
f 462 459 460
f 462 463 464
f 462 451 452
f 462 461 451
f 462 452 453
f 462 453 463
o Wound_Rope_19
usemtl woodlight
v -0.308975 0.722000 0.816105
v -0.292613 0.699612 0.810898
v -0.265731 0.708164 0.811360
v -0.265478 0.735836 0.816853
v -0.292204 0.744388 0.819785
v -0.305408 0.706624 0.893498
v -0.289279 0.685532 0.883957
v -0.262314 0.693588 0.885949
v -0.261777 0.719659 0.896721
v -0.288410 0.727715 0.901386
v -0.301824 0.661275 0.957836
v -0.284227 0.646265 0.941679
v -0.257852 0.654155 0.947850
v -0.259148 0.674042 0.967821
v -0.286324 0.678442 0.973993
v -0.298283 0.596106 1.001624
v -0.281285 0.588218 0.980532
v -0.254652 0.592883 0.988588
v -0.255189 0.603655 1.014659
v -0.282154 0.605647 1.022715
v -0.294725 0.518895 1.017000
v -0.278159 0.519659 0.994175
v -0.251354 0.520894 1.002893
v -0.251354 0.520894 1.031107
v -0.278159 0.519659 1.039825
v -0.291158 0.441502 1.001624
v -0.275029 0.451043 0.980532
v -0.248064 0.449051 0.988588
v -0.247527 0.438279 1.014659
v -0.274160 0.433614 1.022715
v -0.287574 0.375604 0.957836
v -0.272074 0.392771 0.941679
v -0.244898 0.388371 0.947850
v -0.243602 0.368484 0.967821
v -0.269977 0.360593 0.973993
v -0.236092 0.333376 0.893498
v -0.253090 0.312285 0.901386
v -0.279723 0.320341 0.896721
v -0.279186 0.346412 0.885949
v -0.252221 0.354468 0.883957
v -0.232525 0.318000 0.816105
v -0.249091 0.295175 0.815341
v -0.275896 0.303893 0.814106
v -0.275896 0.332107 0.814106
v -0.249091 0.340825 0.815341
v -0.228967 0.333376 0.738894
v -0.245096 0.312285 0.729353
v -0.272061 0.320341 0.731345
v -0.272598 0.346412 0.742117
v -0.245965 0.354468 0.746782
v -0.225426 0.375604 0.672164
v -0.243023 0.360593 0.656007
v -0.269398 0.368484 0.662179
v -0.268102 0.388371 0.682150
v -0.240926 0.392771 0.688321
v -0.221842 0.441502 0.628376
v -0.238840 0.433614 0.607285
v -0.265473 0.438279 0.615341
v -0.264936 0.449051 0.641412
v -0.237971 0.451043 0.649468
v -0.218275 0.518895 0.613000
v -0.234841 0.519659 0.590175
v -0.261646 0.520894 0.598893
v -0.261646 0.520894 0.627107
v -0.234841 0.519659 0.635825
v -0.214717 0.596106 0.628376
v -0.230846 0.605647 0.607285
v -0.257811 0.603655 0.615341
v -0.258348 0.592883 0.641412
v -0.231715 0.588218 0.649468
v -0.211176 0.661275 0.672164
v -0.226676 0.678442 0.656007
v -0.253852 0.674042 0.662179
v -0.255148 0.654155 0.682150
v -0.228773 0.646265 0.688321
v -0.255533 0.706624 0.738894
v -0.238535 0.685532 0.746782
v -0.211902 0.693588 0.742117
v -0.212439 0.719659 0.731345
v -0.239404 0.727715 0.729353
v -0.251975 0.722000 0.816105
v -0.235409 0.699175 0.815341
v -0.208604 0.707893 0.814106
v -0.208604 0.736107 0.814106
v -0.235409 0.744825 0.815341
v -0.248408 0.706624 0.893498
v -0.232279 0.685532 0.883957
v -0.205314 0.693588 0.885949
v -0.204777 0.719659 0.896721
v -0.231410 0.727715 0.901386
v -0.244824 0.661275 0.957836
v -0.227227 0.646265 0.941679
v -0.200852 0.654155 0.947850
v -0.202148 0.674042 0.967821
v -0.229324 0.678442 0.973993
v -0.241283 0.596106 1.001624
v -0.224285 0.588218 0.980532
v -0.197652 0.592883 0.988588
v -0.198189 0.603655 1.014659
v -0.225154 0.605647 1.022715
v -0.237725 0.518895 1.017000
v -0.221159 0.519659 0.994175
v -0.194354 0.520894 1.002893
v -0.194354 0.520894 1.031107
v -0.221159 0.519659 1.039825
v -0.234158 0.441502 1.001624
v -0.218029 0.451043 0.980532
v -0.191064 0.449051 0.988588
v -0.190527 0.438279 1.014659
v -0.217160 0.433614 1.022715
v -0.230574 0.375604 0.957836
v -0.215074 0.392771 0.941679
v -0.187898 0.388371 0.947850
v -0.186602 0.368484 0.967821
v -0.212977 0.360593 0.973993
v -0.179092 0.333376 0.893498
v -0.196090 0.312285 0.901386
v -0.222723 0.320341 0.896721
v -0.222186 0.346412 0.885949
v -0.195221 0.354468 0.883957
v -0.175525 0.318000 0.816105
v -0.192091 0.295175 0.815341
v -0.218896 0.303893 0.814106
v -0.218896 0.332107 0.814106
v -0.192091 0.340825 0.815341
v -0.171967 0.333376 0.738894
v -0.188096 0.312285 0.729353
v -0.215061 0.320341 0.731345
v -0.215598 0.346412 0.742117
v -0.188965 0.354468 0.746782
v -0.168426 0.375604 0.672164
v -0.186023 0.360593 0.656007
v -0.212398 0.368484 0.662179
v -0.211102 0.388371 0.682150
v -0.183926 0.392771 0.688321
v -0.164842 0.441502 0.628376
v -0.181840 0.433614 0.607285
v -0.208473 0.438279 0.615341
v -0.207936 0.449051 0.641412
v -0.180971 0.451043 0.649468
v -0.161275 0.518895 0.613000
v -0.177841 0.519659 0.590175
v -0.204646 0.520894 0.598893
v -0.204646 0.520894 0.627107
v -0.177841 0.519659 0.635825
v -0.157717 0.596106 0.628376
v -0.173846 0.605647 0.607285
v -0.200811 0.603655 0.615341
v -0.201348 0.592883 0.641412
v -0.174715 0.588218 0.649468
v -0.154176 0.661275 0.672164
v -0.169676 0.678442 0.656007
v -0.196852 0.674042 0.662179
v -0.198148 0.654155 0.682150
v -0.171773 0.646265 0.688321
v -0.198533 0.706624 0.738894
v -0.181535 0.685532 0.746782
v -0.154902 0.693588 0.742117
v -0.155439 0.719659 0.731345
v -0.182404 0.727715 0.729353
v -0.194975 0.722000 0.816105
v -0.178409 0.699175 0.815341
v -0.151604 0.707893 0.814106
v -0.151604 0.736107 0.814106
v -0.178409 0.744825 0.815341
v -0.191408 0.706624 0.893498
v -0.175279 0.685532 0.883957
v -0.148314 0.693588 0.885949
v -0.147777 0.719659 0.896721
v -0.174410 0.727715 0.901386
v -0.187824 0.661275 0.957836
v -0.170227 0.646265 0.941679
v -0.143852 0.654155 0.947850
v -0.145148 0.674042 0.967821
v -0.172324 0.678442 0.973993
v -0.184283 0.596106 1.001624
v -0.167285 0.588218 0.980532
v -0.140652 0.592883 0.988588
v -0.141189 0.603655 1.014659
v -0.168154 0.605647 1.022715
v -0.180725 0.518895 1.017000
v -0.164159 0.519659 0.994175
v -0.137354 0.520894 1.002893
v -0.137354 0.520894 1.031107
v -0.164159 0.519659 1.039825
v -0.177158 0.441502 1.001624
v -0.161029 0.451043 0.980532
v -0.134064 0.449051 0.988588
v -0.133527 0.438279 1.014659
v -0.160160 0.433614 1.022715
v -0.173574 0.375604 0.957836
v -0.158074 0.392771 0.941679
v -0.130898 0.388371 0.947850
v -0.129602 0.368484 0.967821
v -0.155977 0.360593 0.973993
v -0.122092 0.333376 0.893498
v -0.139090 0.312285 0.901386
v -0.165723 0.320341 0.896721
v -0.165186 0.346412 0.885949
v -0.138221 0.354468 0.883957
v -0.118525 0.318000 0.816105
v -0.135091 0.295175 0.815341
v -0.161896 0.303893 0.814106
v -0.161896 0.332107 0.814106
v -0.135091 0.340825 0.815341
v -0.114967 0.333376 0.738894
v -0.131096 0.312285 0.729353
v -0.158061 0.320341 0.731345
v -0.158598 0.346412 0.742117
v -0.131965 0.354468 0.746782
v -0.111426 0.375604 0.672164
v -0.129023 0.360593 0.656007
v -0.155398 0.368484 0.662179
v -0.154102 0.388371 0.682150
v -0.126926 0.392771 0.688321
v -0.107842 0.441502 0.628376
v -0.124840 0.433614 0.607285
v -0.151473 0.438279 0.615341
v -0.150936 0.449051 0.641412
v -0.123971 0.451043 0.649468
v -0.104275 0.518895 0.613000
v -0.120841 0.519659 0.590175
v -0.147646 0.520894 0.598893
v -0.147646 0.520894 0.627107
v -0.120841 0.519659 0.635825
v -0.100717 0.596106 0.628376
v -0.116846 0.605647 0.607285
v -0.143811 0.603655 0.615341
v -0.144348 0.592883 0.641412
v -0.117715 0.588218 0.649468
v -0.097176 0.661275 0.672164
v -0.112676 0.678442 0.656007
v -0.139852 0.674042 0.662179
v -0.141148 0.654155 0.682150
v -0.114773 0.646265 0.688321
v -0.141533 0.706624 0.738894
v -0.124535 0.685532 0.746782
v -0.097902 0.693588 0.742117
v -0.098439 0.719659 0.731345
v -0.125404 0.727715 0.729353
v -0.137975 0.722000 0.816105
v -0.121409 0.699175 0.815341
v -0.094604 0.707893 0.814106
v -0.094604 0.736107 0.814106
v -0.121409 0.744825 0.815341
v -0.134408 0.706624 0.893498
v -0.118279 0.685532 0.883957
v -0.091314 0.693588 0.885949
v -0.090777 0.719659 0.896721
v -0.117410 0.727715 0.901386
v -0.130824 0.661275 0.957836
v -0.113227 0.646265 0.941679
v -0.086852 0.654155 0.947850
v -0.088148 0.674042 0.967821
v -0.115324 0.678442 0.973993
v -0.127283 0.596106 1.001624
v -0.110285 0.588218 0.980532
v -0.083652 0.592883 0.988588
v -0.084189 0.603655 1.014659
v -0.111154 0.605647 1.022715
v -0.123725 0.518895 1.017000
v -0.107159 0.519659 0.994175
v -0.080354 0.520894 1.002893
v -0.080354 0.520894 1.031107
v -0.107159 0.519659 1.039825
v -0.120158 0.441502 1.001624
v -0.104029 0.451043 0.980532
v -0.077064 0.449051 0.988588
v -0.076527 0.438279 1.014659
v -0.103160 0.433614 1.022715
v -0.116574 0.375604 0.957836
v -0.101074 0.392771 0.941679
v -0.073898 0.388371 0.947850
v -0.072602 0.368484 0.967821
v -0.098977 0.360593 0.973993
v -0.065092 0.333376 0.893498
v -0.082090 0.312285 0.901386
v -0.108723 0.320341 0.896721
v -0.108186 0.346412 0.885949
v -0.081221 0.354468 0.883957
v -0.061525 0.318000 0.816105
v -0.078091 0.295175 0.815341
v -0.104896 0.303893 0.814106
v -0.104896 0.332107 0.814106
v -0.078091 0.340825 0.815341
v -0.057967 0.333376 0.738894
v -0.074096 0.312285 0.729353
v -0.101061 0.320341 0.731345
v -0.101598 0.346412 0.742117
v -0.074965 0.354468 0.746782
v -0.054426 0.375604 0.672164
v -0.072023 0.360593 0.656007
v -0.098398 0.368484 0.662179
v -0.097102 0.388371 0.682150
v -0.069926 0.392771 0.688321
v -0.050842 0.441502 0.628376
v -0.067840 0.433614 0.607285
v -0.094473 0.438279 0.615341
v -0.093936 0.449051 0.641412
v -0.066971 0.451043 0.649468
v -0.047275 0.518895 0.613000
v -0.063841 0.519659 0.590175
v -0.090646 0.520894 0.598893
v -0.090646 0.520894 0.627107
v -0.063841 0.519659 0.635825
v -0.043717 0.596106 0.628376
v -0.059846 0.605647 0.607285
v -0.086811 0.603655 0.615341
v -0.087348 0.592883 0.641412
v -0.060715 0.588218 0.649468
v -0.040176 0.661275 0.672164
v -0.055676 0.678442 0.656007
v -0.082852 0.674042 0.662179
v -0.084148 0.654155 0.682150
v -0.057773 0.646265 0.688321
v -0.084533 0.706624 0.738894
v -0.067535 0.685532 0.746782
v -0.040902 0.693588 0.742117
v -0.041439 0.719659 0.731345
v -0.068404 0.727715 0.729353
v -0.080975 0.722000 0.816105
v -0.064409 0.699175 0.815341
v -0.037604 0.707893 0.814106
v -0.037604 0.736107 0.814106
v -0.064409 0.744825 0.815341
v -0.077408 0.706624 0.893498
v -0.061279 0.685532 0.883957
v -0.034314 0.693588 0.885949
v -0.033777 0.719659 0.896721
v -0.060410 0.727715 0.901386
v -0.073824 0.661275 0.957836
v -0.056227 0.646265 0.941679
v -0.029852 0.654155 0.947850
v -0.031148 0.674042 0.967821
v -0.058324 0.678442 0.973993
v -0.070283 0.596106 1.001624
v -0.053285 0.588218 0.980532
v -0.026652 0.592883 0.988588
v -0.027189 0.603655 1.014659
v -0.054154 0.605647 1.022715
v -0.066725 0.518895 1.017000
v -0.050159 0.519659 0.994175
v -0.023354 0.520894 1.002893
v -0.023354 0.520894 1.031107
v -0.050159 0.519659 1.039825
v -0.063158 0.441502 1.001624
v -0.047029 0.451043 0.980532
v -0.020064 0.449051 0.988588
v -0.019527 0.438279 1.014659
v -0.046160 0.433614 1.022715
v -0.059574 0.375604 0.957836
v -0.044074 0.392771 0.941679
v -0.016898 0.388371 0.947850
v -0.015602 0.368484 0.967821
v -0.041977 0.360593 0.973993
v -0.008092 0.333376 0.893498
v -0.025090 0.312285 0.901386
v -0.051723 0.320341 0.896721
v -0.051186 0.346412 0.885949
v -0.024221 0.354468 0.883957
v -0.004525 0.318000 0.816105
v -0.021091 0.295175 0.815341
v -0.047896 0.303893 0.814106
v -0.047896 0.332107 0.814106
v -0.021091 0.340825 0.815341
v -0.000967 0.333376 0.738894
v -0.017096 0.312285 0.729353
v -0.044061 0.320341 0.731345
v -0.044598 0.346412 0.742117
v -0.017965 0.354468 0.746782
v 0.002574 0.375604 0.672164
v -0.015023 0.360593 0.656007
v -0.041398 0.368484 0.662179
v -0.040102 0.388371 0.682150
v -0.012926 0.392771 0.688321
v 0.006158 0.441502 0.628376
v -0.010840 0.433614 0.607285
v -0.037473 0.438279 0.615341
v -0.036936 0.449051 0.641412
v -0.009971 0.451043 0.649468
v 0.009725 0.518895 0.613000
v -0.006841 0.519659 0.590175
v -0.033646 0.520894 0.598893
v -0.033646 0.520894 0.627107
v -0.006841 0.519659 0.635825
v 0.013283 0.596106 0.628376
v -0.002846 0.605647 0.607285
v -0.029811 0.603655 0.615341
v -0.030348 0.592883 0.641412
v -0.003715 0.588218 0.649468
v 0.016824 0.661275 0.672164
v 0.001324 0.678442 0.656007
v -0.025852 0.674042 0.662179
v -0.027148 0.654155 0.682150
v -0.000773 0.646265 0.688321
v -0.027533 0.706624 0.738894
v -0.010535 0.685532 0.746782
v 0.016098 0.693588 0.742117
v 0.015561 0.719659 0.731345
v -0.011404 0.727715 0.729353
v -0.023975 0.722000 0.816105
v -0.007409 0.699175 0.815341
v 0.019396 0.707893 0.814106
v 0.019396 0.736107 0.814106
v -0.007409 0.744825 0.815341
v -0.020408 0.706624 0.893498
v -0.004279 0.685532 0.883957
v 0.022686 0.693588 0.885949
v 0.023223 0.719659 0.896721
v -0.003410 0.727715 0.901386
v -0.016824 0.661275 0.957836
v 0.000773 0.646265 0.941679
v 0.027148 0.654155 0.947850
v 0.025852 0.674042 0.967821
v -0.001324 0.678442 0.973993
v -0.013283 0.596106 1.001624
v 0.003715 0.588218 0.980532
v 0.030348 0.592883 0.988588
v 0.029811 0.603655 1.014659
v 0.002846 0.605647 1.022715
v -0.009725 0.518895 1.017000
v 0.006841 0.519659 0.994175
v 0.033646 0.520894 1.002893
v 0.033646 0.520894 1.031107
v 0.006841 0.519659 1.039825
v -0.006158 0.441502 1.001624
v 0.009971 0.451043 0.980532
v 0.036936 0.449051 0.988588
v 0.037473 0.438279 1.014659
v 0.010840 0.433614 1.022715
v -0.002574 0.375604 0.957836
v 0.012926 0.392771 0.941679
v 0.040102 0.388371 0.947850
v 0.041398 0.368484 0.967821
v 0.015023 0.360593 0.973993
v 0.048908 0.333376 0.893498
v 0.031910 0.312285 0.901386
v 0.005277 0.320341 0.896721
v 0.005814 0.346412 0.885949
v 0.032779 0.354468 0.883957
v 0.052475 0.318000 0.816105
v 0.035909 0.295175 0.815341
v 0.009104 0.303893 0.814106
v 0.009104 0.332107 0.814106
v 0.035909 0.340825 0.815341
v 0.056033 0.333376 0.738894
v 0.039904 0.312285 0.729353
v 0.012939 0.320341 0.731345
v 0.012402 0.346412 0.742117
v 0.039035 0.354468 0.746782
v 0.059574 0.375604 0.672164
v 0.041977 0.360593 0.656007
v 0.015602 0.368484 0.662179
v 0.016898 0.388371 0.682150
v 0.044074 0.392771 0.688321
v 0.063158 0.441502 0.628376
v 0.046160 0.433614 0.607285
v 0.019527 0.438279 0.615341
v 0.020064 0.449051 0.641412
v 0.047029 0.451043 0.649468
v 0.066725 0.518895 0.613000
v 0.050159 0.519659 0.590175
v 0.023354 0.520894 0.598893
v 0.023354 0.520894 0.627107
v 0.050159 0.519659 0.635825
v 0.070283 0.596106 0.628376
v 0.054154 0.605647 0.607285
v 0.027189 0.603655 0.615341
v 0.026652 0.592883 0.641412
v 0.053285 0.588218 0.649468
v 0.073824 0.661275 0.672164
v 0.058324 0.678442 0.656007
v 0.031148 0.674042 0.662179
v 0.029852 0.654155 0.682150
v 0.056227 0.646265 0.688321
v 0.029467 0.706624 0.738894
v 0.046465 0.685532 0.746782
v 0.073098 0.693588 0.742117
v 0.072561 0.719659 0.731345
v 0.045596 0.727715 0.729353
v 0.033025 0.722000 0.816105
v 0.049591 0.699175 0.815341
v 0.076396 0.707893 0.814106
v 0.076396 0.736107 0.814106
v 0.049591 0.744825 0.815341
v 0.036592 0.706624 0.893498
v 0.052721 0.685532 0.883957
v 0.079686 0.693588 0.885949
v 0.080223 0.719659 0.896721
v 0.053590 0.727715 0.901386
v 0.040176 0.661275 0.957836
v 0.057773 0.646265 0.941679
v 0.084148 0.654155 0.947850
v 0.082852 0.674042 0.967821
v 0.055676 0.678442 0.973993
v 0.043717 0.596106 1.001624
v 0.060715 0.588218 0.980532
v 0.087348 0.592883 0.988588
v 0.086811 0.603655 1.014659
v 0.059846 0.605647 1.022715
v 0.047275 0.518895 1.017000
v 0.063841 0.519659 0.994175
v 0.090646 0.520894 1.002893
v 0.090646 0.520894 1.031107
v 0.063841 0.519659 1.039825
v 0.050842 0.441502 1.001624
v 0.066971 0.451043 0.980532
v 0.093936 0.449051 0.988588
v 0.094473 0.438279 1.014659
v 0.067840 0.433614 1.022715
v 0.054426 0.375604 0.957836
v 0.069926 0.392771 0.941679
v 0.097102 0.388371 0.947850
v 0.098398 0.368484 0.967821
v 0.072023 0.360593 0.973993
v 0.105908 0.333376 0.893498
v 0.088910 0.312285 0.901386
v 0.062277 0.320341 0.896721
v 0.062814 0.346412 0.885949
v 0.089779 0.354468 0.883957
v 0.109475 0.318000 0.816105
v 0.092909 0.295175 0.815341
v 0.066104 0.303893 0.814106
v 0.066104 0.332107 0.814106
v 0.092909 0.340825 0.815341
v 0.113033 0.333376 0.738894
v 0.096904 0.312285 0.729353
v 0.069939 0.320341 0.731345
v 0.069402 0.346412 0.742117
v 0.096035 0.354468 0.746782
v 0.116574 0.375604 0.672164
v 0.098977 0.360593 0.656007
v 0.072602 0.368484 0.662179
v 0.073898 0.388371 0.682150
v 0.101074 0.392771 0.688321
v 0.120158 0.441502 0.628376
v 0.103160 0.433614 0.607285
v 0.076527 0.438279 0.615341
v 0.077064 0.449051 0.641412
v 0.104029 0.451043 0.649468
v 0.123725 0.518895 0.613000
v 0.107159 0.519659 0.590175
v 0.080354 0.520894 0.598893
v 0.080354 0.520894 0.627107
v 0.107159 0.519659 0.635825
v 0.127283 0.596106 0.628376
v 0.111154 0.605647 0.607285
v 0.084189 0.603655 0.615341
v 0.083652 0.592883 0.641412
v 0.110285 0.588218 0.649468
v 0.130824 0.661275 0.672164
v 0.115324 0.678442 0.656007
v 0.088148 0.674042 0.662179
v 0.086852 0.654155 0.682150
v 0.113227 0.646265 0.688321
v 0.086467 0.706624 0.738894
v 0.103465 0.685532 0.746782
v 0.130098 0.693588 0.742117
v 0.129561 0.719659 0.731345
v 0.102596 0.727715 0.729353
v 0.090025 0.722000 0.816105
v 0.106591 0.699175 0.815341
v 0.133396 0.707893 0.814106
v 0.133396 0.736107 0.814106
v 0.106591 0.744825 0.815341
v 0.093592 0.706624 0.893498
v 0.109721 0.685532 0.883957
v 0.136686 0.693588 0.885949
v 0.137223 0.719659 0.896721
v 0.110590 0.727715 0.901386
v 0.097176 0.661275 0.957836
v 0.114773 0.646265 0.941679
v 0.141148 0.654155 0.947850
v 0.139852 0.674042 0.967821
v 0.112676 0.678442 0.973993
v 0.100717 0.596106 1.001624
v 0.117715 0.588218 0.980532
v 0.144348 0.592883 0.988588
v 0.143811 0.603655 1.014659
v 0.116846 0.605647 1.022715
v 0.104275 0.518895 1.017000
v 0.120841 0.519659 0.994175
v 0.147646 0.520894 1.002893
v 0.147646 0.520894 1.031107
v 0.120841 0.519659 1.039825
v 0.107842 0.441502 1.001624
v 0.123971 0.451043 0.980532
v 0.150936 0.449051 0.988588
v 0.151473 0.438279 1.014659
v 0.124840 0.433614 1.022715
v 0.111426 0.375604 0.957836
v 0.126926 0.392771 0.941679
v 0.154102 0.388371 0.947850
v 0.155398 0.368484 0.967821
v 0.129023 0.360593 0.973993
v 0.162908 0.333376 0.893498
v 0.145910 0.312285 0.901386
v 0.119277 0.320341 0.896721
v 0.119814 0.346412 0.885949
v 0.146779 0.354468 0.883957
v 0.166475 0.318000 0.816105
v 0.149909 0.295175 0.815341
v 0.123104 0.303893 0.814106
v 0.123104 0.332107 0.814106
v 0.149909 0.340825 0.815341
v 0.170033 0.333376 0.738894
v 0.153904 0.312285 0.729353
v 0.126939 0.320341 0.731345
v 0.126402 0.346412 0.742117
v 0.153035 0.354468 0.746782
v 0.173574 0.375604 0.672164
v 0.155977 0.360593 0.656007
v 0.129602 0.368484 0.662179
v 0.130898 0.388371 0.682150
v 0.158074 0.392771 0.688321
v 0.177158 0.441502 0.628376
v 0.160160 0.433614 0.607285
v 0.133527 0.438279 0.615341
v 0.134064 0.449051 0.641412
v 0.161029 0.451043 0.649468
v 0.180725 0.518895 0.613000
v 0.164159 0.519659 0.590175
v 0.137354 0.520894 0.598893
v 0.137354 0.520894 0.627107
v 0.164159 0.519659 0.635825
v 0.184283 0.596106 0.628376
v 0.168154 0.605647 0.607285
v 0.141189 0.603655 0.615341
v 0.140652 0.592883 0.641412
v 0.167285 0.588218 0.649468
v 0.187824 0.661275 0.672164
v 0.172324 0.678442 0.656007
v 0.145148 0.674042 0.662179
v 0.143852 0.654155 0.682150
v 0.170227 0.646265 0.688321
v 0.143467 0.706624 0.738894
v 0.160465 0.685532 0.746782
v 0.187098 0.693588 0.742117
v 0.186561 0.719659 0.731345
v 0.159596 0.727715 0.729353
v 0.147025 0.722000 0.816105
v 0.163591 0.699175 0.815341
v 0.190396 0.707893 0.814106
v 0.190396 0.736107 0.814106
v 0.163591 0.744825 0.815341
v 0.150592 0.706624 0.893498
v 0.166721 0.685532 0.883957
v 0.193686 0.693588 0.885949
v 0.194223 0.719659 0.896721
v 0.167590 0.727715 0.901386
v 0.154176 0.661275 0.957836
v 0.171773 0.646265 0.941679
v 0.198148 0.654155 0.947850
v 0.196852 0.674042 0.967821
v 0.169676 0.678442 0.973993
v 0.157717 0.596106 1.001624
v 0.174715 0.588218 0.980532
v 0.201348 0.592883 0.988588
v 0.200811 0.603655 1.014659
v 0.173846 0.605647 1.022715
v 0.161275 0.518895 1.017000
v 0.177841 0.519659 0.994175
v 0.204646 0.520894 1.002893
v 0.204646 0.520894 1.031107
v 0.177841 0.519659 1.039825
v 0.164842 0.441502 1.001624
v 0.180971 0.451043 0.980532
v 0.207936 0.449051 0.988588
v 0.208473 0.438279 1.014659
v 0.181840 0.433614 1.022715
v 0.168426 0.375604 0.957836
v 0.183926 0.392771 0.941679
v 0.211102 0.388371 0.947850
v 0.212398 0.368484 0.967821
v 0.186023 0.360593 0.973993
v 0.219908 0.333376 0.893498
v 0.202910 0.312285 0.901386
v 0.176277 0.320341 0.896721
v 0.176814 0.346412 0.885949
v 0.203779 0.354468 0.883957
v 0.223475 0.318000 0.816105
v 0.206909 0.295175 0.815341
v 0.180104 0.303893 0.814106
v 0.180104 0.332107 0.814106
v 0.206909 0.340825 0.815341
v 0.227033 0.333376 0.738894
v 0.210904 0.312285 0.729353
v 0.183939 0.320341 0.731345
v 0.183402 0.346412 0.742117
v 0.210035 0.354468 0.746782
v 0.230574 0.375604 0.672164
v 0.212977 0.360593 0.656007
v 0.186602 0.368484 0.662179
v 0.187898 0.388371 0.682150
v 0.215074 0.392771 0.688321
v 0.234158 0.441502 0.628376
v 0.217160 0.433614 0.607285
v 0.190527 0.438279 0.615341
v 0.191064 0.449051 0.641412
v 0.218029 0.451043 0.649468
v 0.237725 0.518895 0.613000
v 0.221159 0.519659 0.590175
v 0.194354 0.520894 0.598893
v 0.194354 0.520894 0.627107
v 0.221159 0.519659 0.635825
v 0.241283 0.596106 0.628376
v 0.225154 0.605647 0.607285
v 0.198189 0.603655 0.615341
v 0.197652 0.592883 0.641412
v 0.224285 0.588218 0.649468
v 0.244824 0.661275 0.672164
v 0.229324 0.678442 0.656007
v 0.202148 0.674042 0.662179
v 0.200852 0.654155 0.682150
v 0.227227 0.646265 0.688321
v 0.200467 0.706624 0.738894
v 0.217465 0.685532 0.746782
v 0.244098 0.693588 0.742117
v 0.243561 0.719659 0.731345
v 0.216596 0.727715 0.729353
v 0.204025 0.722000 0.816105
v 0.220591 0.699175 0.815341
v 0.247396 0.707893 0.814106
v 0.247396 0.736107 0.814106
v 0.220591 0.744825 0.815341
v 0.207592 0.706624 0.893498
v 0.223721 0.685532 0.883957
v 0.250686 0.693588 0.885949
v 0.251223 0.719659 0.896721
v 0.224590 0.727715 0.901386
v 0.211176 0.661275 0.957836
v 0.228773 0.646265 0.941679
v 0.255148 0.654155 0.947850
v 0.253852 0.674042 0.967821
v 0.226676 0.678442 0.973993
v 0.214717 0.596106 1.001624
v 0.231715 0.588218 0.980532
v 0.258348 0.592883 0.988588
v 0.257811 0.603655 1.014659
v 0.230846 0.605647 1.022715
v 0.218275 0.518895 1.017000
v 0.234841 0.519659 0.994175
v 0.261646 0.520894 1.002893
v 0.261646 0.520894 1.031107
v 0.234841 0.519659 1.039825
v 0.221842 0.441502 1.001624
v 0.237971 0.451043 0.980532
v 0.264936 0.449051 0.988588
v 0.265473 0.438279 1.014659
v 0.238840 0.433614 1.022715
v 0.225426 0.375604 0.957836
v 0.240926 0.392771 0.941679
v 0.268102 0.388371 0.947850
v 0.269398 0.368484 0.967821
v 0.243023 0.360593 0.973993
v 0.276908 0.333376 0.893498
v 0.259910 0.312285 0.901386
v 0.233277 0.320341 0.896721
v 0.233814 0.346412 0.885949
v 0.260779 0.354468 0.883957
v 0.280475 0.318000 0.816105
v 0.263909 0.295175 0.815341
v 0.237104 0.303893 0.814106
v 0.237104 0.332107 0.814106
v 0.263909 0.340825 0.815341
v 0.284033 0.333376 0.738894
v 0.267904 0.312285 0.729353
v 0.240939 0.320341 0.731345
v 0.240402 0.346412 0.742117
v 0.267035 0.354468 0.746782
v 0.287574 0.375604 0.672164
v 0.269977 0.360593 0.656007
v 0.243602 0.368484 0.662179
v 0.244898 0.388371 0.682150
v 0.272074 0.392771 0.688321
v 0.291158 0.441502 0.628376
v 0.274160 0.433614 0.607285
v 0.247527 0.438279 0.615341
v 0.248064 0.449051 0.641412
v 0.275029 0.451043 0.649468
v 0.294725 0.518895 0.613000
v 0.278159 0.519659 0.590175
v 0.251354 0.520894 0.598893
v 0.251354 0.520894 0.627107
v 0.278159 0.519659 0.635825
v 0.298283 0.596106 0.628376
v 0.282154 0.605647 0.607285
v 0.255189 0.603655 0.615341
v 0.254652 0.592883 0.641412
v 0.281285 0.588218 0.649468
v 0.301824 0.661275 0.672164
v 0.286324 0.678442 0.656007
v 0.259148 0.674042 0.662179
v 0.257852 0.654155 0.682150
v 0.284227 0.646265 0.688321
v 0.257467 0.706624 0.738894
v 0.274465 0.685532 0.746782
v 0.301098 0.693588 0.742117
v 0.300561 0.719659 0.731345
v 0.273596 0.727715 0.729353
v 0.261025 0.722000 0.816105
v 0.277796 0.699612 0.819785
v 0.304522 0.708164 0.816853
v 0.304269 0.735836 0.811360
v 0.277387 0.744388 0.810898
f 465 466 471
f 465 471 470
f 466 467 472
f 466 472 471
f 467 468 473
f 467 473 472
f 468 469 474
f 468 474 473
f 469 465 470
f 469 470 474
f 470 471 476
f 470 476 475
f 471 472 477
f 471 477 476
f 472 473 478
f 472 478 477
f 473 474 479
f 473 479 478
f 474 470 475
f 474 475 479
f 475 476 481
f 475 481 480
f 476 477 482
f 476 482 481
f 477 478 483
f 477 483 482
f 478 479 484
f 478 484 483
f 479 475 480
f 479 480 484
f 480 481 486
f 480 486 485
f 481 482 487
f 481 487 486
f 482 483 488
f 482 488 487
f 483 484 489
f 483 489 488
f 484 480 485
f 484 485 489
f 485 486 491
f 485 491 490
f 486 487 492
f 486 492 491
f 487 488 493
f 487 493 492
f 488 489 494
f 488 494 493
f 489 485 490
f 489 490 494
f 490 491 496
f 490 496 495
f 491 492 497
f 491 497 496
f 492 493 498
f 492 498 497
f 493 494 499
f 493 499 498
f 494 490 495
f 494 495 499
f 495 496 501
f 495 501 500
f 496 497 502
f 496 502 501
f 497 498 503
f 497 503 502
f 498 499 504
f 498 504 503
f 499 495 500
f 499 500 504
f 500 501 506
f 500 506 505
f 501 502 507
f 501 507 506
f 502 503 508
f 502 508 507
f 503 504 509
f 503 509 508
f 504 500 505
f 504 505 509
f 505 506 511
f 505 511 510
f 506 507 512
f 506 512 511
f 507 508 513
f 507 513 512
f 508 509 514
f 508 514 513
f 509 505 510
f 509 510 514
f 510 511 516
f 510 516 515
f 511 512 517
f 511 517 516
f 512 513 518
f 512 518 517
f 513 514 519
f 513 519 518
f 514 510 515
f 514 515 519
f 515 516 521
f 515 521 520
f 516 517 522
f 516 522 521
f 517 518 523
f 517 523 522
f 518 519 524
f 518 524 523
f 519 515 520
f 519 520 524
f 520 521 526
f 520 526 525
f 521 522 527
f 521 527 526
f 522 523 528
f 522 528 527
f 523 524 529
f 523 529 528
f 524 520 525
f 524 525 529
f 525 526 531
f 525 531 530
f 526 527 532
f 526 532 531
f 527 528 533
f 527 533 532
f 528 529 534
f 528 534 533
f 529 525 530
f 529 530 534
f 530 531 536
f 530 536 535
f 531 532 537
f 531 537 536
f 532 533 538
f 532 538 537
f 533 534 539
f 533 539 538
f 534 530 535
f 534 535 539
f 535 536 541
f 535 541 540
f 536 537 542
f 536 542 541
f 537 538 543
f 537 543 542
f 538 539 544
f 538 544 543
f 539 535 540
f 539 540 544
f 540 541 546
f 540 546 545
f 541 542 547
f 541 547 546
f 542 543 548
f 542 548 547
f 543 544 549
f 543 549 548
f 544 540 545
f 544 545 549
f 545 546 551
f 545 551 550
f 546 547 552
f 546 552 551
f 547 548 553
f 547 553 552
f 548 549 554
f 548 554 553
f 549 545 550
f 549 550 554
f 550 551 556
f 550 556 555
f 551 552 557
f 551 557 556
f 552 553 558
f 552 558 557
f 553 554 559
f 553 559 558
f 554 550 555
f 554 555 559
f 555 556 561
f 555 561 560
f 556 557 562
f 556 562 561
f 557 558 563
f 557 563 562
f 558 559 564
f 558 564 563
f 559 555 560
f 559 560 564
f 560 561 566
f 560 566 565
f 561 562 567
f 561 567 566
f 562 563 568
f 562 568 567
f 563 564 569
f 563 569 568
f 564 560 565
f 564 565 569
f 565 566 571
f 565 571 570
f 566 567 572
f 566 572 571
f 567 568 573
f 567 573 572
f 568 569 574
f 568 574 573
f 569 565 570
f 569 570 574
f 570 571 576
f 570 576 575
f 571 572 577
f 571 577 576
f 572 573 578
f 572 578 577
f 573 574 579
f 573 579 578
f 574 570 575
f 574 575 579
f 575 576 581
f 575 581 580
f 576 577 582
f 576 582 581
f 577 578 583
f 577 583 582
f 578 579 584
f 578 584 583
f 579 575 580
f 579 580 584
f 580 581 586
f 580 586 585
f 581 582 587
f 581 587 586
f 582 583 588
f 582 588 587
f 583 584 589
f 583 589 588
f 584 580 585
f 584 585 589
f 585 586 591
f 585 591 590
f 586 587 592
f 586 592 591
f 587 588 593
f 587 593 592
f 588 589 594
f 588 594 593
f 589 585 590
f 589 590 594
f 590 591 596
f 590 596 595
f 591 592 597
f 591 597 596
f 592 593 598
f 592 598 597
f 593 594 599
f 593 599 598
f 594 590 595
f 594 595 599
f 595 596 601
f 595 601 600
f 596 597 602
f 596 602 601
f 597 598 603
f 597 603 602
f 598 599 604
f 598 604 603
f 599 595 600
f 599 600 604
f 600 601 606
f 600 606 605
f 601 602 607
f 601 607 606
f 602 603 608
f 602 608 607
f 603 604 609
f 603 609 608
f 604 600 605
f 604 605 609
f 605 606 611
f 605 611 610
f 606 607 612
f 606 612 611
f 607 608 613
f 607 613 612
f 608 609 614
f 608 614 613
f 609 605 610
f 609 610 614
f 610 611 616
f 610 616 615
f 611 612 617
f 611 617 616
f 612 613 618
f 612 618 617
f 613 614 619
f 613 619 618
f 614 610 615
f 614 615 619
f 615 616 621
f 615 621 620
f 616 617 622
f 616 622 621
f 617 618 623
f 617 623 622
f 618 619 624
f 618 624 623
f 619 615 620
f 619 620 624
f 620 621 626
f 620 626 625
f 621 622 627
f 621 627 626
f 622 623 628
f 622 628 627
f 623 624 629
f 623 629 628
f 624 620 625
f 624 625 629
f 625 626 631
f 625 631 630
f 626 627 632
f 626 632 631
f 627 628 633
f 627 633 632
f 628 629 634
f 628 634 633
f 629 625 630
f 629 630 634
f 630 631 636
f 630 636 635
f 631 632 637
f 631 637 636
f 632 633 638
f 632 638 637
f 633 634 639
f 633 639 638
f 634 630 635
f 634 635 639
f 635 636 641
f 635 641 640
f 636 637 642
f 636 642 641
f 637 638 643
f 637 643 642
f 638 639 644
f 638 644 643
f 639 635 640
f 639 640 644
f 640 641 646
f 640 646 645
f 641 642 647
f 641 647 646
f 642 643 648
f 642 648 647
f 643 644 649
f 643 649 648
f 644 640 645
f 644 645 649
f 645 646 651
f 645 651 650
f 646 647 652
f 646 652 651
f 647 648 653
f 647 653 652
f 648 649 654
f 648 654 653
f 649 645 650
f 649 650 654
f 650 651 656
f 650 656 655
f 651 652 657
f 651 657 656
f 652 653 658
f 652 658 657
f 653 654 659
f 653 659 658
f 654 650 655
f 654 655 659
f 655 656 661
f 655 661 660
f 656 657 662
f 656 662 661
f 657 658 663
f 657 663 662
f 658 659 664
f 658 664 663
f 659 655 660
f 659 660 664
f 660 661 666
f 660 666 665
f 661 662 667
f 661 667 666
f 662 663 668
f 662 668 667
f 663 664 669
f 663 669 668
f 664 660 665
f 664 665 669
f 665 666 671
f 665 671 670
f 666 667 672
f 666 672 671
f 667 668 673
f 667 673 672
f 668 669 674
f 668 674 673
f 669 665 670
f 669 670 674
f 670 671 676
f 670 676 675
f 671 672 677
f 671 677 676
f 672 673 678
f 672 678 677
f 673 674 679
f 673 679 678
f 674 670 675
f 674 675 679
f 675 676 681
f 675 681 680
f 676 677 682
f 676 682 681
f 677 678 683
f 677 683 682
f 678 679 684
f 678 684 683
f 679 675 680
f 679 680 684
f 680 681 686
f 680 686 685
f 681 682 687
f 681 687 686
f 682 683 688
f 682 688 687
f 683 684 689
f 683 689 688
f 684 680 685
f 684 685 689
f 685 686 691
f 685 691 690
f 686 687 692
f 686 692 691
f 687 688 693
f 687 693 692
f 688 689 694
f 688 694 693
f 689 685 690
f 689 690 694
f 690 691 696
f 690 696 695
f 691 692 697
f 691 697 696
f 692 693 698
f 692 698 697
f 693 694 699
f 693 699 698
f 694 690 695
f 694 695 699
f 695 696 701
f 695 701 700
f 696 697 702
f 696 702 701
f 697 698 703
f 697 703 702
f 698 699 704
f 698 704 703
f 699 695 700
f 699 700 704
f 700 701 706
f 700 706 705
f 701 702 707
f 701 707 706
f 702 703 708
f 702 708 707
f 703 704 709
f 703 709 708
f 704 700 705
f 704 705 709
f 705 706 711
f 705 711 710
f 706 707 712
f 706 712 711
f 707 708 713
f 707 713 712
f 708 709 714
f 708 714 713
f 709 705 710
f 709 710 714
f 710 711 716
f 710 716 715
f 711 712 717
f 711 717 716
f 712 713 718
f 712 718 717
f 713 714 719
f 713 719 718
f 714 710 715
f 714 715 719
f 715 716 721
f 715 721 720
f 716 717 722
f 716 722 721
f 717 718 723
f 717 723 722
f 718 719 724
f 718 724 723
f 719 715 720
f 719 720 724
f 720 721 726
f 720 726 725
f 721 722 727
f 721 727 726
f 722 723 728
f 722 728 727
f 723 724 729
f 723 729 728
f 724 720 725
f 724 725 729
f 725 726 731
f 725 731 730
f 726 727 732
f 726 732 731
f 727 728 733
f 727 733 732
f 728 729 734
f 728 734 733
f 729 725 730
f 729 730 734
f 730 731 736
f 730 736 735
f 731 732 737
f 731 737 736
f 732 733 738
f 732 738 737
f 733 734 739
f 733 739 738
f 734 730 735
f 734 735 739
f 735 736 741
f 735 741 740
f 736 737 742
f 736 742 741
f 737 738 743
f 737 743 742
f 738 739 744
f 738 744 743
f 739 735 740
f 739 740 744
f 740 741 746
f 740 746 745
f 741 742 747
f 741 747 746
f 742 743 748
f 742 748 747
f 743 744 749
f 743 749 748
f 744 740 745
f 744 745 749
f 745 746 751
f 745 751 750
f 746 747 752
f 746 752 751
f 747 748 753
f 747 753 752
f 748 749 754
f 748 754 753
f 749 745 750
f 749 750 754
f 750 751 756
f 750 756 755
f 751 752 757
f 751 757 756
f 752 753 758
f 752 758 757
f 753 754 759
f 753 759 758
f 754 750 755
f 754 755 759
f 755 756 761
f 755 761 760
f 756 757 762
f 756 762 761
f 757 758 763
f 757 763 762
f 758 759 764
f 758 764 763
f 759 755 760
f 759 760 764
f 760 761 766
f 760 766 765
f 761 762 767
f 761 767 766
f 762 763 768
f 762 768 767
f 763 764 769
f 763 769 768
f 764 760 765
f 764 765 769
f 765 766 771
f 765 771 770
f 766 767 772
f 766 772 771
f 767 768 773
f 767 773 772
f 768 769 774
f 768 774 773
f 769 765 770
f 769 770 774
f 770 771 776
f 770 776 775
f 771 772 777
f 771 777 776
f 772 773 778
f 772 778 777
f 773 774 779
f 773 779 778
f 774 770 775
f 774 775 779
f 775 776 781
f 775 781 780
f 776 777 782
f 776 782 781
f 777 778 783
f 777 783 782
f 778 779 784
f 778 784 783
f 779 775 780
f 779 780 784
f 780 781 786
f 780 786 785
f 781 782 787
f 781 787 786
f 782 783 788
f 782 788 787
f 783 784 789
f 783 789 788
f 784 780 785
f 784 785 789
f 785 786 791
f 785 791 790
f 786 787 792
f 786 792 791
f 787 788 793
f 787 793 792
f 788 789 794
f 788 794 793
f 789 785 790
f 789 790 794
f 790 791 796
f 790 796 795
f 791 792 797
f 791 797 796
f 792 793 798
f 792 798 797
f 793 794 799
f 793 799 798
f 794 790 795
f 794 795 799
f 795 796 801
f 795 801 800
f 796 797 802
f 796 802 801
f 797 798 803
f 797 803 802
f 798 799 804
f 798 804 803
f 799 795 800
f 799 800 804
f 800 801 806
f 800 806 805
f 801 802 807
f 801 807 806
f 802 803 808
f 802 808 807
f 803 804 809
f 803 809 808
f 804 800 805
f 804 805 809
f 805 806 811
f 805 811 810
f 806 807 812
f 806 812 811
f 807 808 813
f 807 813 812
f 808 809 814
f 808 814 813
f 809 805 810
f 809 810 814
f 810 811 816
f 810 816 815
f 811 812 817
f 811 817 816
f 812 813 818
f 812 818 817
f 813 814 819
f 813 819 818
f 814 810 815
f 814 815 819
f 815 816 821
f 815 821 820
f 816 817 822
f 816 822 821
f 817 818 823
f 817 823 822
f 818 819 824
f 818 824 823
f 819 815 820
f 819 820 824
f 820 821 826
f 820 826 825
f 821 822 827
f 821 827 826
f 822 823 828
f 822 828 827
f 823 824 829
f 823 829 828
f 824 820 825
f 824 825 829
f 825 826 831
f 825 831 830
f 826 827 832
f 826 832 831
f 827 828 833
f 827 833 832
f 828 829 834
f 828 834 833
f 829 825 830
f 829 830 834
f 830 831 836
f 830 836 835
f 831 832 837
f 831 837 836
f 832 833 838
f 832 838 837
f 833 834 839
f 833 839 838
f 834 830 835
f 834 835 839
f 835 836 841
f 835 841 840
f 836 837 842
f 836 842 841
f 837 838 843
f 837 843 842
f 838 839 844
f 838 844 843
f 839 835 840
f 839 840 844
f 840 841 846
f 840 846 845
f 841 842 847
f 841 847 846
f 842 843 848
f 842 848 847
f 843 844 849
f 843 849 848
f 844 840 845
f 844 845 849
f 845 846 851
f 845 851 850
f 846 847 852
f 846 852 851
f 847 848 853
f 847 853 852
f 848 849 854
f 848 854 853
f 849 845 850
f 849 850 854
f 850 851 856
f 850 856 855
f 851 852 857
f 851 857 856
f 852 853 858
f 852 858 857
f 853 854 859
f 853 859 858
f 854 850 855
f 854 855 859
f 855 856 861
f 855 861 860
f 856 857 862
f 856 862 861
f 857 858 863
f 857 863 862
f 858 859 864
f 858 864 863
f 859 855 860
f 859 860 864
f 860 861 866
f 860 866 865
f 861 862 867
f 861 867 866
f 862 863 868
f 862 868 867
f 863 864 869
f 863 869 868
f 864 860 865
f 864 865 869
f 865 866 871
f 865 871 870
f 866 867 872
f 866 872 871
f 867 868 873
f 867 873 872
f 868 869 874
f 868 874 873
f 869 865 870
f 869 870 874
f 870 871 876
f 870 876 875
f 871 872 877
f 871 877 876
f 872 873 878
f 872 878 877
f 873 874 879
f 873 879 878
f 874 870 875
f 874 875 879
f 875 876 881
f 875 881 880
f 876 877 882
f 876 882 881
f 877 878 883
f 877 883 882
f 878 879 884
f 878 884 883
f 879 875 880
f 879 880 884
f 880 881 886
f 880 886 885
f 881 882 887
f 881 887 886
f 882 883 888
f 882 888 887
f 883 884 889
f 883 889 888
f 884 880 885
f 884 885 889
f 885 886 891
f 885 891 890
f 886 887 892
f 886 892 891
f 887 888 893
f 887 893 892
f 888 889 894
f 888 894 893
f 889 885 890
f 889 890 894
f 890 891 896
f 890 896 895
f 891 892 897
f 891 897 896
f 892 893 898
f 892 898 897
f 893 894 899
f 893 899 898
f 894 890 895
f 894 895 899
f 895 896 901
f 895 901 900
f 896 897 902
f 896 902 901
f 897 898 903
f 897 903 902
f 898 899 904
f 898 904 903
f 899 895 900
f 899 900 904
f 900 901 906
f 900 906 905
f 901 902 907
f 901 907 906
f 902 903 908
f 902 908 907
f 903 904 909
f 903 909 908
f 904 900 905
f 904 905 909
f 905 906 911
f 905 911 910
f 906 907 912
f 906 912 911
f 907 908 913
f 907 913 912
f 908 909 914
f 908 914 913
f 909 905 910
f 909 910 914
f 910 911 916
f 910 916 915
f 911 912 917
f 911 917 916
f 912 913 918
f 912 918 917
f 913 914 919
f 913 919 918
f 914 910 915
f 914 915 919
f 915 916 921
f 915 921 920
f 916 917 922
f 916 922 921
f 917 918 923
f 917 923 922
f 918 919 924
f 918 924 923
f 919 915 920
f 919 920 924
f 920 921 926
f 920 926 925
f 921 922 927
f 921 927 926
f 922 923 928
f 922 928 927
f 923 924 929
f 923 929 928
f 924 920 925
f 924 925 929
f 925 926 931
f 925 931 930
f 926 927 932
f 926 932 931
f 927 928 933
f 927 933 932
f 928 929 934
f 928 934 933
f 929 925 930
f 929 930 934
f 930 931 936
f 930 936 935
f 931 932 937
f 931 937 936
f 932 933 938
f 932 938 937
f 933 934 939
f 933 939 938
f 934 930 935
f 934 935 939
f 935 936 941
f 935 941 940
f 936 937 942
f 936 942 941
f 937 938 943
f 937 943 942
f 938 939 944
f 938 944 943
f 939 935 940
f 939 940 944
f 940 941 946
f 940 946 945
f 941 942 947
f 941 947 946
f 942 943 948
f 942 948 947
f 943 944 949
f 943 949 948
f 944 940 945
f 944 945 949
f 945 946 951
f 945 951 950
f 946 947 952
f 946 952 951
f 947 948 953
f 947 953 952
f 948 949 954
f 948 954 953
f 949 945 950
f 949 950 954
f 950 951 956
f 950 956 955
f 951 952 957
f 951 957 956
f 952 953 958
f 952 958 957
f 953 954 959
f 953 959 958
f 954 950 955
f 954 955 959
f 955 956 961
f 955 961 960
f 956 957 962
f 956 962 961
f 957 958 963
f 957 963 962
f 958 959 964
f 958 964 963
f 959 955 960
f 959 960 964
f 960 961 966
f 960 966 965
f 961 962 967
f 961 967 966
f 962 963 968
f 962 968 967
f 963 964 969
f 963 969 968
f 964 960 965
f 964 965 969
f 965 966 971
f 965 971 970
f 966 967 972
f 966 972 971
f 967 968 973
f 967 973 972
f 968 969 974
f 968 974 973
f 969 965 970
f 969 970 974
f 970 971 976
f 970 976 975
f 971 972 977
f 971 977 976
f 972 973 978
f 972 978 977
f 973 974 979
f 973 979 978
f 974 970 975
f 974 975 979
f 975 976 981
f 975 981 980
f 976 977 982
f 976 982 981
f 977 978 983
f 977 983 982
f 978 979 984
f 978 984 983
f 979 975 980
f 979 980 984
f 980 981 986
f 980 986 985
f 981 982 987
f 981 987 986
f 982 983 988
f 982 988 987
f 983 984 989
f 983 989 988
f 984 980 985
f 984 985 989
f 985 986 991
f 985 991 990
f 986 987 992
f 986 992 991
f 987 988 993
f 987 993 992
f 988 989 994
f 988 994 993
f 989 985 990
f 989 990 994
f 990 991 996
f 990 996 995
f 991 992 997
f 991 997 996
f 992 993 998
f 992 998 997
f 993 994 999
f 993 999 998
f 994 990 995
f 994 995 999
f 995 996 1001
f 995 1001 1000
f 996 997 1002
f 996 1002 1001
f 997 998 1003
f 997 1003 1002
f 998 999 1004
f 998 1004 1003
f 999 995 1000
f 999 1000 1004
f 1000 1001 1006
f 1000 1006 1005
f 1001 1002 1007
f 1001 1007 1006
f 1002 1003 1008
f 1002 1008 1007
f 1003 1004 1009
f 1003 1009 1008
f 1004 1000 1005
f 1004 1005 1009
f 1005 1006 1011
f 1005 1011 1010
f 1006 1007 1012
f 1006 1012 1011
f 1007 1008 1013
f 1007 1013 1012
f 1008 1009 1014
f 1008 1014 1013
f 1009 1005 1010
f 1009 1010 1014
f 1010 1011 1016
f 1010 1016 1015
f 1011 1012 1017
f 1011 1017 1016
f 1012 1013 1018
f 1012 1018 1017
f 1013 1014 1019
f 1013 1019 1018
f 1014 1010 1015
f 1014 1015 1019
f 1015 1016 1021
f 1015 1021 1020
f 1016 1017 1022
f 1016 1022 1021
f 1017 1018 1023
f 1017 1023 1022
f 1018 1019 1024
f 1018 1024 1023
f 1019 1015 1020
f 1019 1020 1024
f 1020 1021 1026
f 1020 1026 1025
f 1021 1022 1027
f 1021 1027 1026
f 1022 1023 1028
f 1022 1028 1027
f 1023 1024 1029
f 1023 1029 1028
f 1024 1020 1025
f 1024 1025 1029
f 1025 1026 1031
f 1025 1031 1030
f 1026 1027 1032
f 1026 1032 1031
f 1027 1028 1033
f 1027 1033 1032
f 1028 1029 1034
f 1028 1034 1033
f 1029 1025 1030
f 1029 1030 1034
f 1030 1031 1036
f 1030 1036 1035
f 1031 1032 1037
f 1031 1037 1036
f 1032 1033 1038
f 1032 1038 1037
f 1033 1034 1039
f 1033 1039 1038
f 1034 1030 1035
f 1034 1035 1039
f 1035 1036 1041
f 1035 1041 1040
f 1036 1037 1042
f 1036 1042 1041
f 1037 1038 1043
f 1037 1043 1042
f 1038 1039 1044
f 1038 1044 1043
f 1039 1035 1040
f 1039 1040 1044
f 1040 1041 1046
f 1040 1046 1045
f 1041 1042 1047
f 1041 1047 1046
f 1042 1043 1048
f 1042 1048 1047
f 1043 1044 1049
f 1043 1049 1048
f 1044 1040 1045
f 1044 1045 1049
f 1045 1046 1051
f 1045 1051 1050
f 1046 1047 1052
f 1046 1052 1051
f 1047 1048 1053
f 1047 1053 1052
f 1048 1049 1054
f 1048 1054 1053
f 1049 1045 1050
f 1049 1050 1054
f 1050 1051 1056
f 1050 1056 1055
f 1051 1052 1057
f 1051 1057 1056
f 1052 1053 1058
f 1052 1058 1057
f 1053 1054 1059
f 1053 1059 1058
f 1054 1050 1055
f 1054 1055 1059
f 1055 1056 1061
f 1055 1061 1060
f 1056 1057 1062
f 1056 1062 1061
f 1057 1058 1063
f 1057 1063 1062
f 1058 1059 1064
f 1058 1064 1063
f 1059 1055 1060
f 1059 1060 1064
f 1060 1061 1066
f 1060 1066 1065
f 1061 1062 1067
f 1061 1067 1066
f 1062 1063 1068
f 1062 1068 1067
f 1063 1064 1069
f 1063 1069 1068
f 1064 1060 1065
f 1064 1065 1069
f 1065 1066 1071
f 1065 1071 1070
f 1066 1067 1072
f 1066 1072 1071
f 1067 1068 1073
f 1067 1073 1072
f 1068 1069 1074
f 1068 1074 1073
f 1069 1065 1070
f 1069 1070 1074
f 1070 1071 1076
f 1070 1076 1075
f 1071 1072 1077
f 1071 1077 1076
f 1072 1073 1078
f 1072 1078 1077
f 1073 1074 1079
f 1073 1079 1078
f 1074 1070 1075
f 1074 1075 1079
f 1075 1076 1081
f 1075 1081 1080
f 1076 1077 1082
f 1076 1082 1081
f 1077 1078 1083
f 1077 1083 1082
f 1078 1079 1084
f 1078 1084 1083
f 1079 1075 1080
f 1079 1080 1084
f 1080 1081 1086
f 1080 1086 1085
f 1081 1082 1087
f 1081 1087 1086
f 1082 1083 1088
f 1082 1088 1087
f 1083 1084 1089
f 1083 1089 1088
f 1084 1080 1085
f 1084 1085 1089
f 1085 1086 1091
f 1085 1091 1090
f 1086 1087 1092
f 1086 1092 1091
f 1087 1088 1093
f 1087 1093 1092
f 1088 1089 1094
f 1088 1094 1093
f 1089 1085 1090
f 1089 1090 1094
f 1090 1091 1096
f 1090 1096 1095
f 1091 1092 1097
f 1091 1097 1096
f 1092 1093 1098
f 1092 1098 1097
f 1093 1094 1099
f 1093 1099 1098
f 1094 1090 1095
f 1094 1095 1099
f 1095 1096 1101
f 1095 1101 1100
f 1096 1097 1102
f 1096 1102 1101
f 1097 1098 1103
f 1097 1103 1102
f 1098 1099 1104
f 1098 1104 1103
f 1099 1095 1100
f 1099 1100 1104
f 1100 1101 1106
f 1100 1106 1105
f 1101 1102 1107
f 1101 1107 1106
f 1102 1103 1108
f 1102 1108 1107
f 1103 1104 1109
f 1103 1109 1108
f 1104 1100 1105
f 1104 1105 1109
f 1105 1106 1111
f 1105 1111 1110
f 1106 1107 1112
f 1106 1112 1111
f 1107 1108 1113
f 1107 1113 1112
f 1108 1109 1114
f 1108 1114 1113
f 1109 1105 1110
f 1109 1110 1114
f 1110 1111 1116
f 1110 1116 1115
f 1111 1112 1117
f 1111 1117 1116
f 1112 1113 1118
f 1112 1118 1117
f 1113 1114 1119
f 1113 1119 1118
f 1114 1110 1115
f 1114 1115 1119
f 1115 1116 1121
f 1115 1121 1120
f 1116 1117 1122
f 1116 1122 1121
f 1117 1118 1123
f 1117 1123 1122
f 1118 1119 1124
f 1118 1124 1123
f 1119 1115 1120
f 1119 1120 1124
f 1120 1121 1126
f 1120 1126 1125
f 1121 1122 1127
f 1121 1127 1126
f 1122 1123 1128
f 1122 1128 1127
f 1123 1124 1129
f 1123 1129 1128
f 1124 1120 1125
f 1124 1125 1129
f 1125 1126 1131
f 1125 1131 1130
f 1126 1127 1132
f 1126 1132 1131
f 1127 1128 1133
f 1127 1133 1132
f 1128 1129 1134
f 1128 1134 1133
f 1129 1125 1130
f 1129 1130 1134
f 1130 1131 1136
f 1130 1136 1135
f 1131 1132 1137
f 1131 1137 1136
f 1132 1133 1138
f 1132 1138 1137
f 1133 1134 1139
f 1133 1139 1138
f 1134 1130 1135
f 1134 1135 1139
f 1135 1136 1141
f 1135 1141 1140
f 1136 1137 1142
f 1136 1142 1141
f 1137 1138 1143
f 1137 1143 1142
f 1138 1139 1144
f 1138 1144 1143
f 1139 1135 1140
f 1139 1140 1144
f 1140 1141 1146
f 1140 1146 1145
f 1141 1142 1147
f 1141 1147 1146
f 1142 1143 1148
f 1142 1148 1147
f 1143 1144 1149
f 1143 1149 1148
f 1144 1140 1145
f 1144 1145 1149
f 1145 1146 1151
f 1145 1151 1150
f 1146 1147 1152
f 1146 1152 1151
f 1147 1148 1153
f 1147 1153 1152
f 1148 1149 1154
f 1148 1154 1153
f 1149 1145 1150
f 1149 1150 1154
f 1150 1151 1156
f 1150 1156 1155
f 1151 1152 1157
f 1151 1157 1156
f 1152 1153 1158
f 1152 1158 1157
f 1153 1154 1159
f 1153 1159 1158
f 1154 1150 1155
f 1154 1155 1159
f 1155 1156 1161
f 1155 1161 1160
f 1156 1157 1162
f 1156 1162 1161
f 1157 1158 1163
f 1157 1163 1162
f 1158 1159 1164
f 1158 1164 1163
f 1159 1155 1160
f 1159 1160 1164
f 1160 1161 1166
f 1160 1166 1165
f 1161 1162 1167
f 1161 1167 1166
f 1162 1163 1168
f 1162 1168 1167
f 1163 1164 1169
f 1163 1169 1168
f 1164 1160 1165
f 1164 1165 1169
f 1165 1166 1171
f 1165 1171 1170
f 1166 1167 1172
f 1166 1172 1171
f 1167 1168 1173
f 1167 1173 1172
f 1168 1169 1174
f 1168 1174 1173
f 1169 1165 1170
f 1169 1170 1174
f 1170 1171 1176
f 1170 1176 1175
f 1171 1172 1177
f 1171 1177 1176
f 1172 1173 1178
f 1172 1178 1177
f 1173 1174 1179
f 1173 1179 1178
f 1174 1170 1175
f 1174 1175 1179
f 1175 1176 1181
f 1175 1181 1180
f 1176 1177 1182
f 1176 1182 1181
f 1177 1178 1183
f 1177 1183 1182
f 1178 1179 1184
f 1178 1184 1183
f 1179 1175 1180
f 1179 1180 1184
f 1180 1181 1186
f 1180 1186 1185
f 1181 1182 1187
f 1181 1187 1186
f 1182 1183 1188
f 1182 1188 1187
f 1183 1184 1189
f 1183 1189 1188
f 1184 1180 1185
f 1184 1185 1189
f 1185 1186 1191
f 1185 1191 1190
f 1186 1187 1192
f 1186 1192 1191
f 1187 1188 1193
f 1187 1193 1192
f 1188 1189 1194
f 1188 1194 1193
f 1189 1185 1190
f 1189 1190 1194
f 1190 1191 1196
f 1190 1196 1195
f 1191 1192 1197
f 1191 1197 1196
f 1192 1193 1198
f 1192 1198 1197
f 1193 1194 1199
f 1193 1199 1198
f 1194 1190 1195
f 1194 1195 1199
f 1195 1196 1201
f 1195 1201 1200
f 1196 1197 1202
f 1196 1202 1201
f 1197 1198 1203
f 1197 1203 1202
f 1198 1199 1204
f 1198 1204 1203
f 1199 1195 1200
f 1199 1200 1204
f 1200 1201 1206
f 1200 1206 1205
f 1201 1202 1207
f 1201 1207 1206
f 1202 1203 1208
f 1202 1208 1207
f 1203 1204 1209
f 1203 1209 1208
f 1204 1200 1205
f 1204 1205 1209
f 1205 1206 1211
f 1205 1211 1210
f 1206 1207 1212
f 1206 1212 1211
f 1207 1208 1213
f 1207 1213 1212
f 1208 1209 1214
f 1208 1214 1213
f 1209 1205 1210
f 1209 1210 1214
f 1210 1211 1216
f 1210 1216 1215
f 1211 1212 1217
f 1211 1217 1216
f 1212 1213 1218
f 1212 1218 1217
f 1213 1214 1219
f 1213 1219 1218
f 1214 1210 1215
f 1214 1215 1219
f 1215 1216 1221
f 1215 1221 1220
f 1216 1217 1222
f 1216 1222 1221
f 1217 1218 1223
f 1217 1223 1222
f 1218 1219 1224
f 1218 1224 1223
f 1219 1215 1220
f 1219 1220 1224
f 1220 1221 1226
f 1220 1226 1225
f 1221 1222 1227
f 1221 1227 1226
f 1222 1223 1228
f 1222 1228 1227
f 1223 1224 1229
f 1223 1229 1228
f 1224 1220 1225
f 1224 1225 1229
f 1225 1226 1231
f 1225 1231 1230
f 1226 1227 1232
f 1226 1232 1231
f 1227 1228 1233
f 1227 1233 1232
f 1228 1229 1234
f 1228 1234 1233
f 1229 1225 1230
f 1229 1230 1234
f 1230 1231 1236
f 1230 1236 1235
f 1231 1232 1237
f 1231 1237 1236
f 1232 1233 1238
f 1232 1238 1237
f 1233 1234 1239
f 1233 1239 1238
f 1234 1230 1235
f 1234 1235 1239
f 1235 1236 1241
f 1235 1241 1240
f 1236 1237 1242
f 1236 1242 1241
f 1237 1238 1243
f 1237 1243 1242
f 1238 1239 1244
f 1238 1244 1243
f 1239 1235 1240
f 1239 1240 1244
f 1240 1241 1246
f 1240 1246 1245
f 1241 1242 1247
f 1241 1247 1246
f 1242 1243 1248
f 1242 1248 1247
f 1243 1244 1249
f 1243 1249 1248
f 1244 1240 1245
f 1244 1245 1249
f 1245 1246 1251
f 1245 1251 1250
f 1246 1247 1252
f 1246 1252 1251
f 1247 1248 1253
f 1247 1253 1252
f 1248 1249 1254
f 1248 1254 1253
f 1249 1245 1250
f 1249 1250 1254
f 1250 1251 1256
f 1250 1256 1255
f 1251 1252 1257
f 1251 1257 1256
f 1252 1253 1258
f 1252 1258 1257
f 1253 1254 1259
f 1253 1259 1258
f 1254 1250 1255
f 1254 1255 1259
f 1255 1256 1261
f 1255 1261 1260
f 1256 1257 1262
f 1256 1262 1261
f 1257 1258 1263
f 1257 1263 1262
f 1258 1259 1264
f 1258 1264 1263
f 1259 1255 1260
f 1259 1260 1264
f 1260 1261 1266
f 1260 1266 1265
f 1261 1262 1267
f 1261 1267 1266
f 1262 1263 1268
f 1262 1268 1267
f 1263 1264 1269
f 1263 1269 1268
f 1264 1260 1265
f 1264 1265 1269
f 465 467 466
f 1265 1266 1267
f 465 468 467
f 1265 1267 1268
f 465 469 468
f 1265 1268 1269
o Hook_Shaft_20
usemtl edge
v -0.046000 -0.720000 1.025000
v -0.032527 -0.720000 0.992473
v -0.000000 -0.720000 0.979000
v 0.032527 -0.720000 0.992473
v 0.046000 -0.720000 1.025000
v 0.032527 -0.720000 1.057527
v 0.000000 -0.720000 1.071000
v -0.032527 -0.720000 1.057527
v -0.046000 -1.180000 1.025000
v -0.032527 -1.180000 0.992473
v -0.000000 -1.180000 0.979000
v 0.032527 -1.180000 0.992473
v 0.046000 -1.180000 1.025000
v 0.032527 -1.180000 1.057527
v 0.000000 -1.180000 1.071000
v -0.032527 -1.180000 1.057527
f 1279 1270 1271
f 1279 1278 1270
f 1275 1271 1270
f 1275 1274 1273
f 1275 1270 1277
f 1275 1272 1271
f 1275 1273 1272
f 1275 1277 1276
f 1282 1273 1274
f 1282 1281 1273
f 1282 1274 1275
f 1282 1275 1283
f 1285 1277 1270
f 1285 1270 1278
f 1280 1272 1273
f 1280 1273 1281
f 1280 1271 1272
f 1280 1279 1271
f 1284 1281 1282
f 1284 1278 1279
f 1284 1285 1278
f 1284 1282 1283
f 1284 1280 1281
f 1284 1279 1280
f 1284 1283 1275
f 1284 1275 1276
f 1284 1276 1277
f 1284 1277 1285
o Grapple_Prong0_21
usemtl edge
v -0.035000 -1.090000 1.025000
v -0.017500 -1.113985 1.006466
v 0.017500 -1.113985 1.006466
v 0.035000 -1.090000 1.025000
v 0.017500 -1.066015 1.043534
v -0.017500 -1.066015 1.043534
v -0.035000 -1.260000 1.245000
v -0.017500 -1.283985 1.226466
v 0.017500 -1.283985 1.226466
v 0.035000 -1.260000 1.245000
v 0.017500 -1.236015 1.263534
v -0.017500 -1.236015 1.263534
f 1294 1288 1289
f 1294 1289 1295
f 1294 1287 1288
f 1294 1293 1287
f 1296 1289 1290
f 1296 1295 1289
f 1291 1290 1289
f 1291 1287 1286
f 1291 1288 1287
f 1291 1289 1288
f 1291 1297 1296
f 1291 1296 1290
f 1292 1295 1296
f 1292 1294 1295
f 1292 1293 1294
f 1292 1296 1297
f 1292 1286 1287
f 1292 1287 1293
f 1292 1291 1286
f 1292 1297 1291
o Grapple_Prong1_22
usemtl edge
v 0.035000 -1.260000 1.245000
v 0.017500 -1.245736 1.218255
v -0.017500 -1.245736 1.218255
v -0.035000 -1.260000 1.245000
v -0.017500 -1.274264 1.271745
v 0.017500 -1.274264 1.271745
v 0.035000 -1.110000 1.325000
v 0.017500 -1.095736 1.298255
v -0.017500 -1.095736 1.298255
v -0.035000 -1.110000 1.325000
v -0.017500 -1.124264 1.351745
v 0.017500 -1.124264 1.351745
f 1300 1307 1306
f 1300 1301 1307
f 1300 1306 1305
f 1300 1305 1299
f 1309 1307 1308
f 1309 1304 1305
f 1309 1305 1306
f 1309 1306 1307
f 1302 1308 1307
f 1302 1307 1301
f 1302 1309 1308
f 1302 1303 1309
f 1298 1302 1301
f 1298 1301 1300
f 1298 1300 1299
f 1298 1303 1302
f 1298 1305 1304
f 1298 1299 1305
f 1298 1304 1309
f 1298 1309 1303
o Grapple_Prong2_23
usemtl edge
v 0.035000 -1.110000 1.325000
v 0.017500 -1.120088 1.296417
v -0.017500 -1.120088 1.296417
v -0.035000 -1.110000 1.325000
v -0.017500 -1.099912 1.353583
v 0.017500 -1.099912 1.353583
v 0.035000 -0.940000 1.265000
v 0.017500 -0.950088 1.236417
v -0.017500 -0.950088 1.236417
v -0.035000 -0.940000 1.265000
v -0.017500 -0.929912 1.293583
v 0.017500 -0.929912 1.293583
f 1313 1320 1319
f 1313 1314 1320
f 1321 1314 1315
f 1321 1320 1314
f 1321 1315 1310
f 1321 1310 1316
f 1311 1310 1315
f 1311 1314 1313
f 1311 1315 1314
f 1311 1313 1312
f 1311 1317 1316
f 1311 1316 1310
f 1318 1319 1320
f 1318 1320 1321
f 1318 1316 1317
f 1318 1321 1316
f 1318 1312 1313
f 1318 1313 1319
f 1318 1311 1312
f 1318 1317 1311
o Hook_Barb_24
usemtl edge
v -0.035000 -0.940000 1.265000
v -0.017500 -0.923935 1.239296
v 0.017500 -0.923935 1.239296
v 0.035000 -0.940000 1.265000
v 0.017500 -0.956065 1.290704
v -0.017500 -0.956065 1.290704
v -0.006000 -1.020000 1.215000
v -0.003000 -1.017246 1.210594
v 0.003000 -1.017246 1.210594
v 0.006000 -1.020000 1.215000
v 0.003000 -1.022754 1.219406
v -0.003000 -1.022754 1.219406
f 1323 1326 1325
f 1323 1322 1327
f 1323 1325 1324
f 1323 1327 1326
f 1333 1326 1327
f 1333 1332 1326
f 1331 1325 1326
f 1331 1326 1332
f 1331 1324 1325
f 1331 1330 1324
f 1329 1323 1324
f 1329 1324 1330
f 1328 1332 1333
f 1328 1331 1332
f 1328 1330 1331
f 1328 1329 1330
f 1328 1327 1322
f 1328 1333 1327
f 1328 1322 1323
f 1328 1323 1329
o Grapple_Prong0_25
usemtl edge
v -0.023302 -1.063885 1.025000
v -0.002703 -1.068958 0.997162
v 0.020599 -1.095074 0.997162
v 0.023302 -1.116115 1.025000
v 0.002703 -1.111042 1.052838
v -0.020599 -1.084926 1.052838
v -0.213828 -1.233885 0.915000
v -0.193228 -1.238958 0.887162
v -0.169926 -1.265074 0.887162
v -0.167224 -1.286115 0.915000
v -0.187823 -1.281042 0.942838
v -0.211125 -1.254926 0.942838
f 1335 1341 1340
f 1335 1340 1334
f 1344 1342 1343
f 1344 1341 1342
f 1344 1340 1341
f 1344 1345 1340
f 1336 1343 1342
f 1336 1337 1343
f 1336 1342 1341
f 1336 1341 1335
f 1339 1340 1345
f 1339 1334 1340
f 1338 1335 1334
f 1338 1336 1335
f 1338 1337 1336
f 1338 1334 1339
f 1338 1344 1343
f 1338 1343 1337
f 1338 1345 1344
f 1338 1339 1345
o Grapple_Prong1_26
usemtl edge
v -0.158751 -1.245324 0.915000
v -0.171648 -1.259137 0.885540
v -0.203422 -1.273813 0.885540
v -0.222300 -1.274676 0.915000
v -0.209403 -1.260863 0.944460
v -0.177629 -1.246187 0.944460
v -0.228033 -1.095324 0.875000
v -0.240930 -1.109137 0.845540
v -0.272704 -1.123813 0.845540
v -0.291582 -1.124676 0.875000
v -0.278685 -1.110863 0.904460
v -0.246911 -1.096187 0.904460
f 1356 1349 1350
f 1356 1355 1349
f 1351 1356 1350
f 1351 1357 1356
f 1352 1355 1356
f 1352 1356 1357
f 1352 1354 1355
f 1352 1353 1354
f 1352 1351 1346
f 1352 1357 1351
f 1348 1349 1355
f 1348 1355 1354
f 1347 1350 1349
f 1347 1346 1351
f 1347 1351 1350
f 1347 1349 1348
f 1347 1352 1346
f 1347 1353 1352
f 1347 1354 1353
f 1347 1348 1354
o Grapple_Prong2_27
usemtl edge
v -0.226336 -1.120231 0.875000
v -0.241598 -1.110292 0.845112
v -0.275069 -1.100061 0.845112
v -0.293279 -1.099769 0.875000
v -0.278018 -1.109708 0.904888
v -0.244546 -1.119939 0.904888
v -0.174375 -0.950231 0.905000
v -0.189636 -0.940292 0.875112
v -0.223107 -0.930061 0.875112
v -0.241317 -0.929769 0.905000
v -0.226056 -0.939708 0.934888
v -0.192585 -0.949939 0.934888
f 1365 1358 1359
f 1365 1364 1358
f 1365 1359 1360
f 1365 1360 1366
f 1363 1359 1358
f 1363 1362 1361
f 1363 1361 1360
f 1363 1360 1359
f 1367 1360 1361
f 1367 1366 1360
f 1367 1361 1362
f 1367 1362 1368
f 1369 1364 1365
f 1369 1365 1366
f 1369 1366 1367
f 1369 1367 1368
f 1369 1358 1364
f 1369 1363 1358
f 1369 1362 1363
f 1369 1368 1362
o Hook_Barb_28
usemtl edge
v -0.238626 -0.956660 0.905000
v -0.219413 -0.955394 0.875773
v -0.188632 -0.938734 0.875773
v -0.177066 -0.923340 0.905000
v -0.196279 -0.924606 0.934227
v -0.227060 -0.941266 0.934227
v -0.169821 -1.022856 0.930000
v -0.166528 -1.022639 0.924990
v -0.161251 -1.019783 0.924990
v -0.159268 -1.017144 0.930000
v -0.162562 -1.017361 0.935010
v -0.167839 -1.020217 0.935010
f 1372 1370 1375
f 1372 1371 1370
f 1372 1374 1373
f 1372 1375 1374
f 1380 1373 1374
f 1380 1379 1373
f 1378 1372 1373
f 1378 1373 1379
f 1378 1371 1372
f 1378 1377 1371
f 1376 1370 1371
f 1376 1371 1377
f 1381 1379 1380
f 1381 1378 1379
f 1381 1377 1378
f 1381 1376 1377
f 1381 1374 1375
f 1381 1380 1374
f 1381 1375 1370
f 1381 1370 1376
o Grapple_Prong0_29
usemtl edge
v -0.023302 -1.116115 1.025000
v -0.020599 -1.095074 0.997162
v 0.002703 -1.068958 0.997162
v 0.023302 -1.063885 1.025000
v 0.020599 -1.084926 1.052838
v -0.002703 -1.111042 1.052838
v 0.167224 -1.286115 0.915000
v 0.169926 -1.265074 0.887162
v 0.193228 -1.238958 0.887162
v 0.213828 -1.233885 0.915000
v 0.211125 -1.254926 0.942838
v 0.187823 -1.281042 0.942838
f 1392 1385 1386
f 1392 1391 1385
f 1392 1386 1387
f 1392 1387 1393
f 1388 1393 1387
f 1388 1387 1382
f 1390 1392 1393
f 1390 1391 1392
f 1390 1393 1388
f 1390 1388 1389
f 1390 1385 1391
f 1390 1384 1385
f 1383 1382 1387
f 1383 1385 1384
f 1383 1386 1385
f 1383 1387 1386
f 1383 1389 1388
f 1383 1388 1382
f 1383 1390 1389
f 1383 1384 1390
o Grapple_Prong1_30
usemtl edge
v 0.222300 -1.274676 0.915000
v 0.203422 -1.273813 0.885540
v 0.171648 -1.259137 0.885540
v 0.158751 -1.245324 0.915000
v 0.177629 -1.246187 0.944460
v 0.209403 -1.260863 0.944460
v 0.291582 -1.124676 0.875000
v 0.272704 -1.123813 0.845540
v 0.240930 -1.109137 0.845540
v 0.228033 -1.095324 0.875000
v 0.246911 -1.096187 0.904460
v 0.278685 -1.110863 0.904460
f 1395 1400 1394
f 1395 1401 1400
f 1396 1395 1394
f 1396 1394 1399
f 1396 1398 1397
f 1396 1399 1398
f 1396 1403 1402
f 1396 1397 1403
f 1396 1401 1395
f 1396 1402 1401
f 1404 1397 1398
f 1404 1403 1397
f 1405 1400 1401
f 1405 1401 1402
f 1405 1402 1403
f 1405 1403 1404
f 1405 1394 1400
f 1405 1399 1394
f 1405 1398 1399
f 1405 1404 1398
o Grapple_Prong2_31
usemtl edge
v 0.293279 -1.099769 0.875000
v 0.275069 -1.100061 0.845112
v 0.241598 -1.110292 0.845112
v 0.226336 -1.120231 0.875000
v 0.244546 -1.119939 0.904888
v 0.278018 -1.109708 0.904888
v 0.241317 -0.929769 0.905000
v 0.223107 -0.930061 0.875112
v 0.189636 -0.940292 0.875112
v 0.174375 -0.950231 0.905000
v 0.192585 -0.949939 0.934888
v 0.226056 -0.939708 0.934888
f 1414 1408 1409
f 1414 1409 1415
f 1414 1407 1408
f 1414 1413 1407
f 1412 1406 1407
f 1412 1407 1413
f 1411 1410 1409
f 1411 1409 1408
f 1411 1407 1406
f 1411 1408 1407
f 1411 1412 1417
f 1411 1406 1412
f 1416 1414 1415
f 1416 1412 1413
f 1416 1413 1414
f 1416 1417 1412
f 1416 1409 1410
f 1416 1415 1409
f 1416 1410 1411
f 1416 1411 1417
o Hook_Barb_32
usemtl edge
v 0.177066 -0.923340 0.905000
v 0.188632 -0.938734 0.875773
v 0.219413 -0.955394 0.875773
v 0.238626 -0.956660 0.905000
v 0.227060 -0.941266 0.934227
v 0.196279 -0.924606 0.934227
v 0.159268 -1.017144 0.930000
v 0.161251 -1.019783 0.924990
v 0.166528 -1.022639 0.924990
v 0.169821 -1.022856 0.930000
v 0.167839 -1.020217 0.935010
v 0.162562 -1.017361 0.935010
f 1423 1419 1418
f 1423 1422 1421
f 1423 1421 1420
f 1423 1420 1419
f 1427 1421 1422
f 1427 1422 1428
f 1427 1420 1421
f 1427 1426 1420
f 1425 1418 1419
f 1425 1424 1418
f 1425 1419 1420
f 1425 1420 1426
f 1429 1426 1427
f 1429 1424 1425
f 1429 1427 1428
f 1429 1425 1426
f 1429 1423 1418
f 1429 1418 1424
f 1429 1422 1423
f 1429 1428 1422
o Power_Cell_Housing_33
usemtl dark
v -0.130000 -0.155000 1.280000
v -0.130000 -0.155000 1.350000
v -0.130000 0.175000 1.280000
v -0.130000 0.175000 1.350000
v 0.130000 -0.155000 1.280000
v 0.130000 -0.155000 1.350000
v 0.130000 0.175000 1.280000
v 0.130000 0.175000 1.350000
v -0.105000 -0.180000 1.280000
v -0.105000 -0.180000 1.350000
v 0.105000 -0.180000 1.280000
v 0.105000 -0.180000 1.350000
v -0.105000 0.200000 1.280000
v -0.105000 0.200000 1.350000
v 0.105000 0.200000 1.280000
v 0.105000 0.200000 1.350000
v -0.105000 -0.155000 1.255000
v -0.105000 0.175000 1.255000
v 0.105000 -0.155000 1.255000
v 0.105000 0.175000 1.255000
v -0.105000 -0.155000 1.375000
v -0.105000 0.175000 1.375000
v 0.105000 -0.155000 1.375000
v 0.105000 0.175000 1.375000
f 1451 1443 1433
f 1438 1430 1446
f 1437 1445 1453
f 1447 1432 1442
f 1444 1436 1449
f 1439 1450 1431
f 1440 1448 1434
f 1441 1435 1452
f 1432 1430 1431
f 1432 1431 1433
f 1443 1432 1433
f 1443 1442 1432
f 1451 1450 1452
f 1451 1452 1453
f 1451 1431 1450
f 1451 1433 1431
f 1445 1451 1453
f 1445 1443 1451
f 1449 1434 1448
f 1449 1436 1434
f 1437 1453 1452
f 1437 1452 1435
f 1437 1434 1436
f 1437 1435 1434
f 1447 1430 1432
f 1447 1446 1430
f 1447 1449 1448
f 1447 1448 1446
f 1444 1442 1443
f 1444 1443 1445
f 1444 1449 1447
f 1444 1447 1442
f 1444 1437 1436
f 1444 1445 1437
f 1439 1431 1430
f 1439 1430 1438
f 1440 1446 1448
f 1440 1438 1446
f 1441 1434 1435
f 1441 1440 1434
f 1441 1452 1450
f 1441 1450 1439
f 1441 1439 1438
f 1441 1438 1440
o Rift_Power_Cell_34
usemtl rift
v -0.085000 -0.113200 1.378800
v -0.085000 -0.113200 1.387200
v -0.085000 0.133200 1.378800
v -0.085000 0.133200 1.387200
v 0.085000 -0.113200 1.378800
v 0.085000 -0.113200 1.387200
v 0.085000 0.133200 1.378800
v 0.085000 0.133200 1.387200
v -0.068200 -0.130000 1.378800
v -0.068200 -0.130000 1.387200
v 0.068200 -0.130000 1.378800
v 0.068200 -0.130000 1.387200
v -0.068200 0.150000 1.378800
v -0.068200 0.150000 1.387200
v 0.068200 0.150000 1.378800
v 0.068200 0.150000 1.387200
v -0.068200 -0.113200 1.362000
v -0.068200 0.133200 1.362000
v 0.068200 -0.113200 1.362000
v 0.068200 0.133200 1.362000
v -0.068200 -0.113200 1.404000
v -0.068200 0.133200 1.404000
v 0.068200 -0.113200 1.404000
v 0.068200 0.133200 1.404000
f 1475 1467 1457
f 1462 1454 1470
f 1461 1469 1477
f 1471 1456 1466
f 1468 1460 1473
f 1463 1474 1455
f 1464 1472 1458
f 1465 1459 1476
f 1456 1454 1455
f 1456 1455 1457
f 1467 1456 1457
f 1467 1466 1456
f 1475 1474 1476
f 1475 1476 1477
f 1475 1455 1474
f 1475 1457 1455
f 1469 1475 1477
f 1469 1467 1475
f 1473 1458 1472
f 1473 1460 1458
f 1461 1477 1476
f 1461 1476 1459
f 1461 1458 1460
f 1461 1459 1458
f 1471 1454 1456
f 1471 1470 1454
f 1471 1473 1472
f 1471 1472 1470
f 1468 1466 1467
f 1468 1467 1469
f 1468 1473 1471
f 1468 1471 1466
f 1468 1461 1460
f 1468 1469 1461
f 1463 1455 1454
f 1463 1454 1462
f 1464 1470 1472
f 1464 1462 1470
f 1465 1458 1459
f 1465 1464 1458
f 1465 1476 1474
f 1465 1474 1463
f 1465 1463 1462
f 1465 1462 1464
o Receiver_Pin_35
usemtl gold
v 0.245000 -0.385000 1.025000
v 0.245000 -0.374749 1.000251
v 0.245000 -0.350000 0.990000
v 0.245000 -0.325251 1.000251
v 0.245000 -0.315000 1.025000
v 0.245000 -0.325251 1.049749
v 0.245000 -0.350000 1.060000
v 0.245000 -0.374749 1.049749
v 0.268000 -0.385000 1.025000
v 0.268000 -0.374749 1.000251
v 0.268000 -0.350000 0.990000
v 0.268000 -0.325251 1.000251
v 0.268000 -0.315000 1.025000
v 0.268000 -0.325251 1.049749
v 0.268000 -0.350000 1.060000
v 0.268000 -0.374749 1.049749
f 1487 1478 1479
f 1487 1486 1478
f 1483 1478 1485
f 1483 1479 1478
f 1483 1482 1481
f 1483 1480 1479
f 1483 1485 1484
f 1483 1481 1480
f 1490 1481 1482
f 1490 1489 1481
f 1490 1482 1483
f 1490 1483 1491
f 1492 1491 1483
f 1492 1483 1484
f 1488 1480 1481
f 1488 1481 1489
f 1488 1479 1480
f 1488 1487 1479
f 1493 1489 1490
f 1493 1486 1487
f 1493 1491 1492
f 1493 1490 1491
f 1493 1488 1489
f 1493 1487 1488
f 1493 1485 1478
f 1493 1478 1486
f 1493 1484 1485
f 1493 1492 1484
o Receiver_Pin_36
usemtl gold
v 0.245000 0.295000 1.025000
v 0.245000 0.305251 1.000251
v 0.245000 0.330000 0.990000
v 0.245000 0.354749 1.000251
v 0.245000 0.365000 1.025000
v 0.245000 0.354749 1.049749
v 0.245000 0.330000 1.060000
v 0.245000 0.305251 1.049749
v 0.268000 0.295000 1.025000
v 0.268000 0.305251 1.000251
v 0.268000 0.330000 0.990000
v 0.268000 0.354749 1.000251
v 0.268000 0.365000 1.025000
v 0.268000 0.354749 1.049749
v 0.268000 0.330000 1.060000
v 0.268000 0.305251 1.049749
f 1503 1494 1495
f 1503 1502 1494
f 1499 1494 1501
f 1499 1495 1494
f 1499 1498 1497
f 1499 1496 1495
f 1499 1501 1500
f 1499 1497 1496
f 1506 1497 1498
f 1506 1505 1497
f 1506 1498 1499
f 1506 1499 1507
f 1508 1507 1499
f 1508 1499 1500
f 1504 1496 1497
f 1504 1497 1505
f 1504 1495 1496
f 1504 1503 1495
f 1509 1505 1506
f 1509 1502 1503
f 1509 1507 1508
f 1509 1506 1507
f 1509 1504 1505
f 1509 1503 1504
f 1509 1501 1494
f 1509 1494 1502
f 1509 1500 1501
f 1509 1508 1500