{"asset":{"version":"2.0","generator":"RIFTBOUND procedural asset builder"},"scene":0,"scenes":[{"nodes":[0]}],"nodes":[{"name":"RIG_Root","children":[1],"translation":[0.0,0.008119870853011107,-0.0]},{"name":"RIG_Torso","children":[2,3,6,9,11,13,14,15,16,17],"translation":[0.0,1.18,-0.0]},{"name":"RIG_Head","children":[18,19,20,21,22,23,24,25],"translation":[0.0,0.8200000000000003,-0.0]},{"name":"RIG_LeftUpperArm","children":[4,26,27],"translation":[-0.43,0.5,-0.0]},{"name":"RIG_LeftForearm","children":[5,28,29,30,31,32],"translation":[-0.24000000000000005,-0.3599999999999999,-0.0]},{"name":"RIG_LeftHand","children":[33,34,35,36],"translation":[-0.019999999999999907,-0.32999999999999996,0.08]},{"name":"RIG_RightUpperArm","children":[7,43,44],"translation":[0.43,0.5,-0.0]},{"name":"RIG_RightForearm","children":[8,45,46,47,48,49],"translation":[0.24000000000000005,-0.3599999999999999,-0.0]},{"name":"RIG_RightHand","children":[50,51,52,53],"translation":[0.019999999999999907,-0.32999999999999996,0.08]},{"name":"RIG_LeftThigh","children":[10,37,38,39],"translation":[-0.22,-0.2599999999999998,-0.0]},{"name":"RIG_LeftFoot","children":[40,41,42],"translation":[-0.01999999999999999,-0.65,-0.0]},{"name":"RIG_RightThigh","children":[12,54,55,56],"translation":[0.22,-0.2599999999999998,-0.0]},{"name":"RIG_RightFoot","children":[57,58,59],"translation":[0.01999999999999999,-0.65,-0.0]},{"name":"Body_Mesh","mesh":0,"translation":[0.0012272727272727236,0.21711731239565357,-1.1354553660939102e-17]},{"name":"Shoulder_Carapace_Mesh","mesh":1,"translation":[0.0014090909090909065,0.6200828719261,-0.02]},{"name":"Chest_Plate_Mesh","mesh":2,"translation":[0.0,0.39000000000000035,0.33]},{"name":"Heart_Mesh","mesh":3,"translation":[5.337610695313253e-19,0.4855384615384617,0.41999999999999993]},{"name":"Belt_Mesh","mesh":4,"translation":[0.0,-0.1499999999999999,-0.0]},{"name":"Head_Mesh","mesh":5,"translation":[0.0009772727272727261,0.13170380723300212,0.030000000000000002]},{"name":"Face_Mask_Mesh","mesh":6,"translation":[4.625929269271485e-18,0.10999999999999988,0.3499999999999999]},{"name":"Eye_Mesh","mesh":7,"translation":[-0.15999999999999995,0.1600000000000006,0.44399999999999995]},{"name":"Horn_Mesh","mesh":8,"translation":[-0.27,0.5450000000000008,-9.912705577010326e-19]},{"name":"Horn_Tip_Mesh","mesh":9,"translation":[-0.33130769230769225,0.7489999999999997,-3.2025664171879517e-18]},{"name":"Eye_Mesh","mesh":10,"translation":[0.15999999999999995,0.1600000000000006,0.44399999999999995]},{"name":"Horn_Mesh","mesh":11,"translation":[0.2700000000000001,0.5449999999999999,-9.912705577010326e-19]},{"name":"Horn_Tip_Mesh","mesh":12,"translation":[0.33130769230769225,0.7489999999999997,-3.2025664171879517e-18]},{"name":"Shoulder_Mesh","mesh":13,"translation":[-0.0793409090909089,0.04927029865592547,-3.784851220313033e-18]},{"name":"Upper_Arm_Mesh","mesh":14,"translation":[-0.1700000000000002,-0.14500000000000024,0.010000000000000009]},{"name":"Gauntlet_Mesh","mesh":15,"translation":[-0.009340909090909122,-0.10913043937458222,0.029999999999999995]},{"name":"Blade_Spike_Mesh","mesh":16,"translation":[-0.2300000000000002,-0.06499999999999995,0.05499999999999999]},{"name":"Rivet_Mesh","mesh":17,"translation":[0.08000000000000018,-0.050000000000000044,0.19000000000000003]},{"name":"Rivet_Mesh","mesh":18,"translation":[1.1102230246251565e-16,-0.09999999999999964,0.19000000000000003]},{"name":"Rivet_Mesh","mesh":19,"translation":[-0.08000000000000007,-0.1499999999999997,0.19000000000000003]},{"name":"Fist_Mesh","mesh":20,"translation":[-0.019500000000000184,-0.09255626336606715,0.03999999999999998]},{"name":"Claw_Mesh","mesh":21,"translation":[0.07499999999999996,-0.18999999999999995,0.22999999999999998]},{"name":"Claw_Mesh","mesh":22,"translation":[-0.02000000000000013,-0.18999999999999995,0.23000000000000004]},{"name":"Claw_Mesh","mesh":23,"translation":[-0.1150000000000001,-0.18999999999999995,0.22999999999999998]},{"name":"Thigh_Mesh","mesh":24,"translation":[-0.014999999999999958,-0.19000000000000006,-0.0]},{"name":"Knee_Mesh","mesh":25,"translation":[-0.019999999999999962,-0.4400000000000001,0.25]},{"name":"Shin_Mesh","mesh":26,"translation":[-0.024999999999999967,-0.605,1.4869058365515489e-18]},{"name":"Boot_Mesh","mesh":27,"translation":[-0.009386363636363693,-0.13204501069285368,0.09999999999999999]},{"name":"Toe_Claw_Mesh","mesh":28,"translation":[-0.08500000000000008,-0.17500000000000004,0.35]},{"name":"Toe_Claw_Mesh","mesh":29,"translation":[0.065,-0.17500000000000004,0.35]},{"name":"Shoulder_Mesh","mesh":30,"translation":[0.0806590909090909,0.04927029865592547,-3.784851220313033e-18]},{"name":"Upper_Arm_Mesh","mesh":31,"translation":[0.16999999999999998,-0.14500000000000024,0.009999999999999995]},{"name":"Gauntlet_Mesh","mesh":32,"translation":[0.010659090909091007,-0.10913043937458222,0.029999999999999995]},{"name":"Blade_Spike_Mesh","mesh":33,"translation":[0.22999999999999998,-0.06499999999999995,0.05499999999999999]},{"name":"Rivet_Mesh","mesh":34,"translation":[-0.08000000000000007,-0.050000000000000044,0.19000000000000003]},{"name":"Rivet_Mesh","mesh":35,"translation":[-1.1102230246251565e-16,-0.09999999999999964,0.19000000000000003]},{"name":"Rivet_Mesh","mesh":36,"translation":[0.07999999999999985,-0.1499999999999997,0.19000000000000003]},{"name":"Fist_Mesh","mesh":37,"translation":[0.02049999999999985,-0.09255626336606715,0.03999999999999998]},{"name":"Claw_Mesh","mesh":38,"translation":[-0.07499999999999996,-0.18999999999999995,0.22999999999999998]},{"name":"Claw_Mesh","mesh":39,"translation":[0.019999999999999907,-0.18999999999999995,0.23000000000000004]},{"name":"Claw_Mesh","mesh":40,"translation":[0.1150000000000001,-0.18999999999999995,0.22999999999999998]},{"name":"Thigh_Mesh","mesh":41,"translation":[0.015000000000000041,-0.19000000000000006,-0.0]},{"name":"Knee_Mesh","mesh":42,"translation":[0.019999999999999962,-0.4400000000000001,0.25]},{"name":"Shin_Mesh","mesh":43,"translation":[0.025000000000000022,-0.605,1.4869058365515489e-18]},{"name":"Boot_Mesh","mesh":44,"translation":[0.01061363636363627,-0.13204501069285368,0.09999999999999999]},{"name":"Toe_Claw_Mesh","mesh":45,"translation":[-0.065,-0.17500000000000004,0.35]},{"name":"Toe_Claw_Mesh","mesh":46,"translation":[0.08499999999999996,-0.17500000000000004,0.35]}],"meshes":[{"name":"Body_0","primitives":[{"attributes":{"POSITION":0,"NORMAL":1},"material":0}]},{"name":"Shoulder_Carapace_1","primitives":[{"attributes":{"POSITION":2,"NORMAL":3},"material":0}]},{"name":"Chest_Plate_2","primitives":[{"attributes":{"POSITION":4,"NORMAL":5},"material":1}]},{"name":"Heart_3","primitives":[{"attributes":{"POSITION":6,"NORMAL":7},"material":7}]},{"name":"Belt_4","primitives":[{"attributes":{"POSITION":8,"NORMAL":9},"material":5}]},{"name":"Head_5","primitives":[{"attributes":{"POSITION":10,"NORMAL":11},"material":0}]},{"name":"Face_Mask_6","primitives":[{"attributes":{"POSITION":12,"NORMAL":13},"material":2}]},{"name":"Eye_7","primitives":[{"attributes":{"POSITION":14,"NORMAL":15},"material":7}]},{"name":"Horn_8","primitives":[{"attributes":{"POSITION":16,"NORMAL":17},"material":2}]},{"name":"Horn_Tip_9","primitives":[{"attributes":{"POSITION":18,"NORMAL":19},"material":5}]},{"name":"Eye_10","primitives":[{"attributes":{"POSITION":20,"NORMAL":21},"material":7}]},{"name":"Horn_11","primitives":[{"attributes":{"POSITION":22,"NORMAL":23},"material":2}]},{"name":"Horn_Tip_12","primitives":[{"attributes":{"POSITION":24,"NORMAL":25},"material":5}]},{"name":"Shoulder_13","primitives":[{"attributes":{"POSITION":26,"NORMAL":27},"material":1}]},{"name":"Upper_Arm_14","primitives":[{"attributes":{"POSITION":28,"NORMAL":29},"material":2}]},{"name":"Gauntlet_15","primitives":[{"attributes":{"POSITION":30,"NORMAL":31},"material":0}]},{"name":"Blade_Spike_16","primitives":[{"attributes":{"POSITION":32,"NORMAL":33},"material":5}]},{"name":"Rivet_17","primitives":[{"attributes":{"POSITION":34,"NORMAL":35},"material":6}]},{"name":"Rivet_18","primitives":[{"attributes":{"POSITION":36,"NORMAL":37},"material":6}]},{"name":"Rivet_19","primitives":[{"attributes":{"POSITION":38,"NORMAL":39},"material":6}]},{"name":"Fist_20","primitives":[{"attributes":{"POSITION":40,"NORMAL":41},"material":2}]},{"name":"Claw_21","primitives":[{"attributes":{"POSITION":42,"NORMAL":43},"material":5}]},{"name":"Claw_22","primitives":[{"attributes":{"POSITION":44,"NORMAL":45},"material":5}]},{"name":"Claw_23","primitives":[{"attributes":{"POSITION":46,"NORMAL":47},"material":5}]},{"name":"Thigh_24","primitives":[{"attributes":{"POSITION":48,"NORMAL":49},"material":2}]},{"name":"Knee_25","primitives":[{"attributes":{"POSITION":50,"NORMAL":51},"material":5}]},{"name":"Shin_26","primitives":[{"attributes":{"POSITION":52,"NORMAL":53},"material":1}]},{"name":"Boot_27","primitives":[{"attributes":{"POSITION":54,"NORMAL":55},"material":0}]},{"name":"Toe_Claw_28","primitives":[{"attributes":{"POSITION":56,"NORMAL":57},"material":5}]},{"name":"Toe_Claw_29","primitives":[{"attributes":{"POSITION":58,"NORMAL":59},"material":5}]},{"name":"Shoulder_30","primitives":[{"attributes":{"POSITION":60,"NORMAL":61},"material":1}]},{"name":"Upper_Arm_31","primitives":[{"attributes":{"POSITION":62,"NORMAL":63},"material":2}]},{"name":"Gauntlet_32","primitives":[{"attributes":{"POSITION":64,"NORMAL":65},"material":0}]},{"name":"Blade_Spike_33","primitives":[{"attributes":{"POSITION":66,"NORMAL":67},"material":5}]},{"name":"Rivet_34","primitives":[{"attributes":{"POSITION":68,"NORMAL":69},"material":6}]},{"name":"Rivet_35","primitives":[{"attributes":{"POSITION":70,"NORMAL":71},"material":6}]},{"name":"Rivet_36","primitives":[{"attributes":{"POSITION":72,"NORMAL":73},"material":6}]},{"name":"Fist_37","primitives":[{"attributes":{"POSITION":74,"NORMAL":75},"material":2}]},{"name":"Claw_38","primitives":[{"attributes":{"POSITION":76,"NORMAL":77},"material":5}]},{"name":"Claw_39","primitives":[{"attributes":{"POSITION":78,"NORMAL":79},"material":5}]},{"name":"Claw_40","primitives":[{"attributes":{"POSITION":80,"NORMAL":81},"material":5}]},{"name":"Thigh_41","primitives":[{"attributes":{"POSITION":82,"NORMAL":83},"material":2}]},{"name":"Knee_42","primitives":[{"attributes":{"POSITION":84,"NORMAL":85},"material":5}]},{"name":"Shin_43","primitives":[{"attributes":{"POSITION":86,"NORMAL":87},"material":1}]},{"name":"Boot_44","primitives":[{"attributes":{"POSITION":88,"NORMAL":89},"material":0}]},{"name":"Toe_Claw_45","primitives":[{"attributes":{"POSITION":90,"NORMAL":91},"material":5}]},{"name":"Toe_Claw_46","primitives":[{"attributes":{"POSITION":92,"NORMAL":93},"material":5}]}],"materials":[{"name":"stone","pbrMetallicRoughness":{"baseColorFactor":[0.05284162552287903,0.08464151072542946,0.11657577617857154,1],"metallicFactor":0,"roughnessFactor":0.8}},{"name":"edge","pbrMetallicRoughness":{"baseColorFactor":[0.18014428915439032,0.27583283346124515,0.31118049905798434,1],"metallicFactor":0,"roughnessFactor":0.8}},{"name":"dark","pbrMetallicRoughness":{"baseColorFactor":[0.009021491898012131,0.016988052089250045,0.03155139140022645,1],"metallicFactor":0,"roughnessFactor":0.8}},{"name":"wood","pbrMetallicRoughness":{"baseColorFactor":[0.1390224537347025,0.04943345755590796,0.02201299491933654,1],"metallicFactor":0,"roughnessFactor":0.8}},{"name":"woodlight","pbrMetallicRoughness":{"baseColorFactor":[0.36859092219748707,0.14497212559723088,0.042987010162657116,1],"metallicFactor":0,"roughnessFactor":0.8}},{"name":"copper","pbrMetallicRoughness":{"baseColorFactor":[0.6730490732809419,0.20835965596076741,0.05637409755197975,1],"metallicFactor":0.35,"roughnessFactor":0.8}},{"name":"gold","pbrMetallicRoughness":{"baseColorFactor":[0.9489649381781952,0.5174013674966733,0.12752977781342206,1],"metallicFactor":0.35,"roughnessFactor":0.8}},{"name":"rift","pbrMetallicRoughness":{"baseColorFactor":[0.051122050056493396,0.7969165429079781,0.5859729839496614,1],"metallicFactor":0,"roughnessFactor":0.8},"emissiveFactor":[0.017892717519772686,0.2789207900177923,0.20509054438238147]},{"name":"ice","pbrMetallicRoughness":{"baseColorFactor":[0.4704402453042184,1.0,0.8355277914608409,1],"metallicFactor":0,"roughnessFactor":0.8},"emissiveFactor":[0.16465408585647642,0.35,0.2924347270112943]},{"name":"moss","pbrMetallicRoughness":{"baseColorFactor":[0.05459227728176034,0.14799802298268516,0.06381487094867724,1],"metallicFactor":0,"roughnessFactor":0.8}},{"name":"bark","pbrMetallicRoughness":{"baseColorFactor":[0.06575388026033009,0.03423020656508195,0.020951131914781092,1],"metallicFactor":0,"roughnessFactor":0.8}},{"name":"cloth","pbrMetallicRoughness":{"baseColorFactor":[0.03994717100152558,0.10114516420959989,0.10363409665513738,1],"metallicFactor":0,"roughnessFactor":0.8}},{"name":"leather","pbrMetallicRoughness":{"baseColorFactor":[0.05818717747368544,0.020951131914781092,0.015175238159625197,1],"metallicFactor":0,"roughnessFactor":0.8}},{"name":"fire","pbrMetallicRoughness":{"baseColorFactor":[1.0,0.3157627437363971,0.04943345755590796,1],"metallicFactor":0,"roughnessFactor":0.8},"emissiveFactor":[0.35,0.11051696030773898,0.017301710144567783]}],"bufferViews":[{"buffer":0,"byteOffset":0,"byteLength":1440},{"buffer":0,"byteOffset":1440,"byteLength":1440},{"buffer":0,"byteOffset":2880,"byteLength":1440},{"buffer":0,"byteOffset":4320,"byteLength":1440},{"buffer":0,"byteOffset":5760,"byteLength":1584},{"buffer":0,"byteOffset":7344,"byteLength":1584},{"buffer":0,"byteOffset":8928,"byteLength":792},{"buffer":0,"byteOffset":9720,"byteLength":792},{"buffer":0,"byteOffset":10512,"byteLength":1584},{"buffer":0,"byteOffset":12096,"byteLength":1584},{"buffer":0,"byteOffset":13680,"byteLength":1440},{"buffer":0,"byteOffset":15120,"byteLength":1440},{"buffer":0,"byteOffset":16560,"byteLength":1584},{"buffer":0,"byteOffset":18144,"byteLength":1584},{"buffer":0,"byteOffset":19728,"byteLength":1584},{"buffer":0,"byteOffset":21312,"byteLength":1584},{"buffer":0,"byteOffset":22896,"byteLength":864},{"buffer":0,"byteOffset":23760,"byteLength":864},{"buffer":0,"byteOffset":24624,"byteLength":792},{"buffer":0,"byteOffset":25416,"byteLength":792},{"buffer":0,"byteOffset":26208,"byteLength":1584},{"buffer":0,"byteOffset":27792,"byteLength":1584},{"buffer":0,"byteOffset":29376,"byteLength":864},{"buffer":0,"byteOffset":30240,"byteLength":864},{"buffer":0,"byteOffset":31104,"byteLength":792},{"buffer":0,"byteOffset":31896,"byteLength":792},{"buffer":0,"byteOffset":32688,"byteLength":1440},{"buffer":0,"byteOffset":34128,"byteLength":1440},{"buffer":0,"byteOffset":35568,"byteLength":864},{"buffer":0,"byteOffset":36432,"byteLength":864},{"buffer":0,"byteOffset":37296,"byteLength":1440},{"buffer":0,"byteOffset":38736,"byteLength":1440},{"buffer":0,"byteOffset":40176,"byteLength":720},{"buffer":0,"byteOffset":40896,"byteLength":720},{"buffer":0,"byteOffset":41616,"byteLength":1584},{"buffer":0,"byteOffset":43200,"byteLength":1584},{"buffer":0,"byteOffset":44784,"byteLength":1584},{"buffer":0,"byteOffset":46368,"byteLength":1584},{"buffer":0,"byteOffset":47952,"byteLength":1584},{"buffer":0,"byteOffset":49536,"byteLength":1584},{"buffer":0,"byteOffset":51120,"byteLength":1440},{"buffer":0,"byteOffset":52560,"byteLength":1440},{"buffer":0,"byteOffset":54000,"byteLength":576},{"buffer":0,"byteOffset":54576,"byteLength":576},{"buffer":0,"byteOffset":55152,"byteLength":576},{"buffer":0,"byteOffset":55728,"byteLength":576},{"buffer":0,"byteOffset":56304,"byteLength":576},{"buffer":0,"byteOffset":56880,"byteLength":576},{"buffer":0,"byteOffset":57456,"byteLength":864},{"buffer":0,"byteOffset":58320,"byteLength":864},{"buffer":0,"byteOffset":59184,"byteLength":1584},{"buffer":0,"byteOffset":60768,"byteLength":1584},{"buffer":0,"byteOffset":62352,"byteLength":864},{"buffer":0,"byteOffset":63216,"byteLength":864},{"buffer":0,"byteOffset":64080,"byteLength":1440},{"buffer":0,"byteOffset":65520,"byteLength":1440},{"buffer":0,"byteOffset":66960,"byteLength":576},{"buffer":0,"byteOffset":67536,"byteLength":576},{"buffer":0,"byteOffset":68112,"byteLength":576},{"buffer":0,"byteOffset":68688,"byteLength":576},{"buffer":0,"byteOffset":69264,"byteLength":1440},{"buffer":0,"byteOffset":70704,"byteLength":1440},{"buffer":0,"byteOffset":72144,"byteLength":864},{"buffer":0,"byteOffset":73008,"byteLength":864},{"buffer":0,"byteOffset":73872,"byteLength":1440},{"buffer":0,"byteOffset":75312,"byteLength":1440},{"buffer":0,"byteOffset":76752,"byteLength":720},{"buffer":0,"byteOffset":77472,"byteLength":720},{"buffer":0,"byteOffset":78192,"byteLength":1584},{"buffer":0,"byteOffset":79776,"byteLength":1584},{"buffer":0,"byteOffset":81360,"byteLength":1584},{"buffer":0,"byteOffset":82944,"byteLength":1584},{"buffer":0,"byteOffset":84528,"byteLength":1584},{"buffer":0,"byteOffset":86112,"byteLength":1584},{"buffer":0,"byteOffset":87696,"byteLength":1440},{"buffer":0,"byteOffset":89136,"byteLength":1440},{"buffer":0,"byteOffset":90576,"byteLength":576},{"buffer":0,"byteOffset":91152,"byteLength":576},{"buffer":0,"byteOffset":91728,"byteLength":576},{"buffer":0,"byteOffset":92304,"byteLength":576},{"buffer":0,"byteOffset":92880,"byteLength":576},{"buffer":0,"byteOffset":93456,"byteLength":576},{"buffer":0,"byteOffset":94032,"byteLength":864},{"buffer":0,"byteOffset":94896,"byteLength":864},{"buffer":0,"byteOffset":95760,"byteLength":1584},{"buffer":0,"byteOffset":97344,"byteLength":1584},{"buffer":0,"byteOffset":98928,"byteLength":864},{"buffer":0,"byteOffset":99792,"byteLength":864},{"buffer":0,"byteOffset":100656,"byteLength":1440},{"buffer":0,"byteOffset":102096,"byteLength":1440},{"buffer":0,"byteOffset":103536,"byteLength":576},{"buffer":0,"byteOffset":104112,"byteLength":576},{"buffer":0,"byteOffset":104688,"byteLength":576},{"buffer":0,"byteOffset":105264,"byteLength":576}],"accessors":[{"bufferView":0,"componentType":5126,"count":120,"type":"VEC3","min":[-0.48775047063827515,-0.533221423625946,-0.3802218735218048],"max":[0.538772702217102,0.6228826642036438,0.3802218735218048]},{"bufferView":1,"componentType":5126,"count":120,"type":"VEC3","min":[-0.9612526893615723,-0.9729668498039246,-0.9559300541877747],"max":[0.8615822196006775,0.8129342794418335,0.9745032787322998]},{"bufferView":2,"componentType":5126,"count":120,"type":"VEC3","min":[-0.560009777545929,-0.2746089994907379,-0.37047260999679565],"max":[0.6185908913612366,0.3099171221256256,0.37047260999679565]},{"bufferView":3,"componentType":5126,"count":120,"type":"VEC3","min":[-0.8762100338935852,-0.9980943202972412,-0.9393559098243713],"max":[0.6646286249160767,0.9787500500679016,0.9445737600326538]},{"bufferView":4,"componentType":5126,"count":132,"type":"VEC3","min":[-0.26499998569488525,-0.20000000298023224,-0.07500000298023224],"max":[0.26499998569488525,0.20000000298023224,0.07500000298023224]},{"bufferView":5,"componentType":5126,"count":132,"type":"VEC3","min":[-1.0,-1.0,-1.0],"max":[1.0,1.0,1.0]},{"bufferView":6,"componentType":5126,"count":66,"type":"VEC3","min":[-0.10999999940395355,-0.10553846508264542,-0.0952627956867218],"max":[0.10999999940395355,0.17446154356002808,0.0952627956867218]},{"bufferView":7,"componentType":5126,"count":66,"type":"VEC3","min":[-0.8518487811088562,-1.0,-0.9836302399635315],"max":[0.8518487811088562,0.697022020816803,0.9836302399635315]},{"bufferView":8,"componentType":5126,"count":132,"type":"VEC3","min":[-0.36500000953674316,-0.07500000298023224,-0.2750000059604645],"max":[0.36500000953674316,0.07500000298023224,0.2750000059604645]},{"bufferView":9,"componentType":5126,"count":132,"type":"VEC3","min":[-1.0,-1.0,-1.0],"max":[1.0,1.0,1.0]},{"bufferView":10,"componentType":5126,"count":120,"type":"VEC3","min":[-0.3883938789367676,-0.3301888406276703,-0.3607233166694641],"max":[0.42902272939682007,0.42829617857933044,0.3607233166694641]},{"bufferView":11,"componentType":5126,"count":120,"type":"VEC3","min":[-0.9672868847846985,-0.9998264908790588,-0.9284899234771729],"max":[0.871425449848175,0.8838258981704712,0.9536756277084351]},{"bufferView":12,"componentType":5126,"count":132,"type":"VEC3","min":[-0.28999999165534973,-0.13500000536441803,-0.07999999821186066],"max":[0.28999999165534973,0.13500000536441803,0.07999999821186066]},{"bufferView":13,"componentType":5126,"count":132,"type":"VEC3","min":[-1.0,-1.0,-1.0],"max":[1.0,1.0,1.0]},{"bufferView":14,"componentType":5126,"count":132,"type":"VEC3","min":[-0.07500000298023224,-0.05249999836087227,-0.017500000074505806],"max":[0.07500000298023224,0.05249999836087227,0.017500000074505806]},{"bufferView":15,"componentType":5126,"count":132,"type":"VEC3","min":[-1.0,-1.0,-1.0],"max":[1.0,1.0,1.0]},{"bufferView":16,"componentType":5126,"count":72,"type":"VEC3","min":[-0.0644228607416153,-0.2052193284034729,-0.10724207013845444],"max":[0.14529334008693695,0.17871272563934326,0.10724207013845444]},{"bufferView":17,"componentType":5126,"count":72,"type":"VEC3","min":[-0.9061861634254456,-0.9615239500999451,-0.9490442872047424],"max":[0.8731134533882141,0.9615239500999451,0.9490442872047424]},{"bufferView":18,"componentType":5126,"count":66,"type":"VEC3","min":[-0.06019230931997299,-0.04899999871850014,-0.04503332078456879],"max":[0.04510769248008728,0.08100000023841858,0.04503332078456879]},{"bufferView":19,"componentType":5126,"count":66,"type":"VEC3","min":[-0.8078222870826721,-1.0,-0.9830447435379028],"max":[0.8659485578536987,0.7654703259468079,0.9830447435379028]},{"bufferView":20,"componentType":5126,"count":132,"type":"VEC3","min":[-0.07500000298023224,-0.05249999836087227,-0.017500000074505806],"max":[0.07500000298023224,0.05249999836087227,0.017500000074505806]},{"bufferView":21,"componentType":5126,"count":132,"type":"VEC3","min":[-1.0,-1.0,-1.0],"max":[1.0,1.0,1.0]},{"bufferView":22,"componentType":5126,"count":72,"type":"VEC3","min":[-0.15576763451099396,-0.2022266685962677,-0.10724207013845444],"max":[0.06299454718828201,0.17912082374095917,0.10724207013845444]},{"bufferView":23,"componentType":5126,"count":72,"type":"VEC3","min":[-0.7804206609725952,-0.9615239500999451,-0.9490442872047424],"max":[0.9988789558410645,0.9615239500999451,0.9490442872047424]},{"bufferView":24,"componentType":5126,"count":66,"type":"VEC3","min":[-0.04510769248008728,-0.04899999871850014,-0.04503332078456879],"max":[0.06019230931997299,0.08100000023841858,0.04503332078456879]},{"bufferView":25,"componentType":5126,"count":66,"type":"VEC3","min":[-0.8659485578536987,-1.0,-0.9830447435379028],"max":[0.8078222870826721,0.7654703259468079,0.9830447435379028]},{"bufferView":26,"componentType":5126,"count":120,"type":"VEC3","min":[-0.261940062046051,-0.2658049166202545,-0.35097405314445496],"max":[0.28934091329574585,0.3307296931743622,0.35097405314445496]},{"bufferView":27,"componentType":5126,"count":120,"type":"VEC3","min":[-0.9652223587036133,-0.9969894886016846,-0.9315483570098877],"max":[0.9182979464530945,0.9117834568023682,0.9032055735588074]},{"bufferView":28,"componentType":5126,"count":72,"type":"VEC3","min":[-0.17868106067180634,-0.20055274665355682,-0.16839191317558289],"max":[0.21383145451545715,0.213372603058815,0.14153049886226654]},{"bufferView":29,"componentType":5126,"count":72,"type":"VEC3","min":[-0.9320321679115295,-0.8988198041915894,-0.9385850429534912],"max":[0.7968665957450867,0.8988198041915894,0.9916687607765198]},{"bufferView":30,"componentType":5126,"count":120,"type":"VEC3","min":[-0.261940062046051,-0.34505966305732727,-0.3412247598171234],"max":[0.28934091329574585,0.4091304540634155,0.3412247598171234]},{"bufferView":31,"componentType":5126,"count":120,"type":"VEC3","min":[-0.9791181087493896,-0.985687255859375,-0.9231192469596863],"max":[0.9358733296394348,0.8904130458831787,0.9348825812339783]},{"bufferView":32,"componentType":5126,"count":60,"type":"VEC3","min":[-0.13463599979877472,-0.17813481390476227,-0.11338058114051819],"max":[0.1995399445295334,0.22202230989933014,0.06338057667016983]},{"bufferView":33,"componentType":5126,"count":60,"type":"VEC3","min":[-0.8695056438446045,-0.797516942024231,-0.8946539759635925],"max":[0.6757425665855408,0.797516942024231,0.9319161176681519]},{"bufferView":34,"componentType":5126,"count":132,"type":"VEC3","min":[-0.02500000037252903,-0.02500000037252903,-0.012500000186264515],"max":[0.02500000037252903,0.02500000037252903,0.012500000186264515]},{"bufferView":35,"componentType":5126,"count":132,"type":"VEC3","min":[-1.0,-1.0,-1.0],"max":[1.0,1.0,1.0]},{"bufferView":36,"componentType":5126,"count":132,"type":"VEC3","min":[-0.02500000037252903,-0.02500000037252903,-0.012500000186264515],"max":[0.02500000037252903,0.02500000037252903,0.012500000186264515]},{"bufferView":37,"componentType":5126,"count":132,"type":"VEC3","min":[-1.0,-1.0,-1.0],"max":[1.0,1.0,1.0]},{"bufferView":38,"componentType":5126,"count":132,"type":"VEC3","min":[-0.02500000037252903,-0.02500000037252903,-0.012500000186264515],"max":[0.02500000037252903,0.02500000037252903,0.012500000186264515]},{"bufferView":39,"componentType":5126,"count":132,"type":"VEC3","min":[-1.0,-1.0,-1.0],"max":[1.0,1.0,1.0]},{"bufferView":40,"componentType":5126,"count":120,"type":"VEC3","min":[-0.19871315360069275,-0.18259356915950775,-0.21448414027690887],"max":[0.21950000524520874,0.20255626738071442,0.21448414027690887]},{"bufferView":41,"componentType":5126,"count":120,"type":"VEC3","min":[-0.9470662474632263,-0.9905305504798889,-0.9390961527824402],"max":[0.892599880695343,0.9610888957977295,0.9328455924987793]},{"bufferView":42,"componentType":5126,"count":48,"type":"VEC3","min":[-0.04489834979176521,-0.08313588798046112,-0.09764476120471954],"max":[0.028537703678011894,0.10508709400892258,0.07367575913667679]},{"bufferView":43,"componentType":5126,"count":48,"type":"VEC3","min":[-0.8249236941337585,-0.7517455816268921,-0.6577773690223694],"max":[0.9949431419372559,0.7517455816268921,0.7718282341957092]},{"bufferView":44,"componentType":5126,"count":48,"type":"VEC3","min":[-0.03999999910593033,-0.08313137292861938,-0.09862972050905228],"max":[0.032360680401325226,0.10505100339651108,0.07357871532440186]},{"bufferView":45,"componentType":5126,"count":48,"type":"VEC3","min":[-0.8019357323646545,-0.7525767087936401,-0.6585046052932739],"max":[0.9912471175193787,0.7525767087936401,0.7964136600494385]},{"bufferView":46,"componentType":5126,"count":48,"type":"VEC3","min":[-0.03489834815263748,-0.08313588798046112,-0.09940608590841293],"max":[0.038537703454494476,0.10508709400892258,0.07345559448003769]},{"bufferView":47,"componentType":5126,"count":48,"type":"VEC3","min":[-0.8373159170150757,-0.7517455816268921,-0.6577773690223694],"max":[0.9825509786605835,0.7517455816268921,0.8154767751693726]},{"bufferView":48,"componentType":5126,"count":72,"type":"VEC3","min":[-0.13011601567268372,-0.2424994558095932,-0.14623919129371643],"max":[0.15496745705604553,0.24281491339206696,0.14623919129371643]},{"bufferView":49,"componentType":5126,"count":72,"type":"VEC3","min":[-0.999373197555542,-0.9997830390930176,-0.9733865857124329],"max":[0.8981785178184509,0.9997830390930176,0.9733865857124329]},{"bufferView":50,"componentType":5126,"count":132,"type":"VEC3","min":[-0.11999999731779099,-0.08500000089406967,-0.05999999865889549],"max":[0.11999999731779099,0.08500000089406967,0.05999999865889549]},{"bufferView":51,"componentType":5126,"count":132,"type":"VEC3","min":[-1.0,-1.0,-1.0],"max":[1.0,1.0,1.0]},{"bufferView":52,"componentType":5126,"count":72,"type":"VEC3","min":[-0.0940130352973938,-0.1182577908039093,-0.10724207013845444],"max":[0.11489617824554443,0.11930491775274277,0.10724207013845444]},{"bufferView":53,"componentType":5126,"count":72,"type":"VEC3","min":[-0.9957085847854614,-0.9990561604499817,-0.9659088253974915],"max":[0.8858966827392578,0.9990561604499817,0.9659088253974915]},{"bufferView":54,"componentType":5126,"count":120,"type":"VEC3","min":[-0.24387523531913757,-0.14607486128807068,-0.40946972370147705],"max":[0.269386351108551,0.16204501688480377,0.40946972370147705]},{"bufferView":55,"componentType":5126,"count":120,"type":"VEC3","min":[-0.8885744214057922,-0.9960559606552124,-0.7815025448799133],"max":[0.8857332468032837,0.9883349537849426,0.7598445415496826]},{"bufferView":56,"componentType":5126,"count":48,"type":"VEC3","min":[-0.01692400686442852,-0.029391732066869736,-0.06856055557727814],"max":[0.023148709908127785,0.044323623180389404,0.06168895587325096]},{"bufferView":57,"componentType":5126,"count":48,"type":"VEC3","min":[-0.8284354209899902,-0.9137280583381653,-0.9203580021858215],"max":[0.9830019474029541,0.8332726955413818,0.9203580021858215]},{"bufferView":58,"componentType":5126,"count":48,"type":"VEC3","min":[-0.026924006640911102,-0.029391732066869736,-0.06743140518665314],"max":[0.013148710131645203,0.044323623180389404,0.06194557994604111]},{"bufferView":59,"componentType":5126,"count":48,"type":"VEC3","min":[-0.8123443722724915,-0.9137280583381653,-0.9203580021858215],"max":[0.9990930557250977,0.8332726955413818,0.9203580021858215]},{"bufferView":60,"componentType":5126,"count":120,"type":"VEC3","min":[-0.261940062046051,-0.2658049166202545,-0.35097405314445496],"max":[0.28934091329574585,0.3307296931743622,0.35097405314445496]},{"bufferView":61,"componentType":5126,"count":120,"type":"VEC3","min":[-0.9652223587036133,-0.9969894886016846,-0.9315483570098877],"max":[0.9182979464530945,0.9117834568023682,0.9032055735588074]},{"bufferView":62,"componentType":5126,"count":72,"type":"VEC3","min":[-0.20376130938529968,-0.20055274665355682,-0.1615305095911026],"max":[0.18686306476593018,0.213372603058815,0.14839191734790802]},{"bufferView":63,"componentType":5126,"count":72,"type":"VEC3","min":[-0.8595852851867676,-0.8988198041915894,-0.9813191890716553],"max":[0.8693134784698486,0.8988198041915894,0.9489345550537109]},{"bufferView":64,"componentType":5126,"count":120,"type":"VEC3","min":[-0.261940062046051,-0.34505966305732727,-0.3412247598171234],"max":[0.28934091329574585,0.4091304540634155,0.3412247598171234]},{"bufferView":65,"componentType":5126,"count":120,"type":"VEC3","min":[-0.9791181087493896,-0.985687255859375,-0.9231192469596863],"max":[0.9358733296394348,0.8904130458831787,0.9348825812339783]},{"bufferView":66,"componentType":5126,"count":60,"type":"VEC3","min":[-0.1995399445295334,-0.17813481390476227,-0.11338058114051819],"max":[0.13463599979877472,0.22202230989933014,0.06338057667016983]},{"bufferView":67,"componentType":5126,"count":60,"type":"VEC3","min":[-0.6757425665855408,-0.797516942024231,-0.8946539759635925],"max":[0.8695056438446045,0.797516942024231,0.9319161176681519]},{"bufferView":68,"componentType":5126,"count":132,"type":"VEC3","min":[-0.02500000037252903,-0.02500000037252903,-0.012500000186264515],"max":[0.02500000037252903,0.02500000037252903,0.012500000186264515]},{"bufferView":69,"componentType":5126,"count":132,"type":"VEC3","min":[-1.0,-1.0,-1.0],"max":[1.0,1.0,1.0]},{"bufferView":70,"componentType":5126,"count":132,"type":"VEC3","min":[-0.02500000037252903,-0.02500000037252903,-0.012500000186264515],"max":[0.02500000037252903,0.02500000037252903,0.012500000186264515]},{"bufferView":71,"componentType":5126,"count":132,"type":"VEC3","min":[-1.0,-1.0,-1.0],"max":[1.0,1.0,1.0]},{"bufferView":72,"componentType":5126,"count":132,"type":"VEC3","min":[-0.02500000037252903,-0.02500000037252903,-0.012500000186264515],"max":[0.02500000037252903,0.02500000037252903,0.012500000186264515]},{"bufferView":73,"componentType":5126,"count":132,"type":"VEC3","min":[-1.0,-1.0,-1.0],"max":[1.0,1.0,1.0]},{"bufferView":74,"componentType":5126,"count":120,"type":"VEC3","min":[-0.19871315360069275,-0.18259356915950775,-0.21448414027690887],"max":[0.21950000524520874,0.20255626738071442,0.21448414027690887]},{"bufferView":75,"componentType":5126,"count":120,"type":"VEC3","min":[-0.9470662474632263,-0.9905305504798889,-0.9390961527824402],"max":[0.892599880695343,0.9610888957977295,0.9328455924987793]},{"bufferView":76,"componentType":5126,"count":48,"type":"VEC3","min":[-0.03489834815263748,-0.08313588798046112,-0.09940608590841293],"max":[0.038537703454494476,0.10508709400892258,0.07345559448003769]},{"bufferView":77,"componentType":5126,"count":48,"type":"VEC3","min":[-0.8373159170150757,-0.7517455816268921,-0.6577773690223694],"max":[0.9825509786605835,0.7517455816268921,0.8154767751693726]},{"bufferView":78,"componentType":5126,"count":48,"type":"VEC3","min":[-0.03999999910593033,-0.08313137292861938,-0.09862972050905228],"max":[0.032360680401325226,0.10505100339651108,0.07357871532440186]},{"bufferView":79,"componentType":5126,"count":48,"type":"VEC3","min":[-0.8019357323646545,-0.7525767087936401,-0.6585046052932739],"max":[0.9912471175193787,0.7525767087936401,0.7964136600494385]},{"bufferView":80,"componentType":5126,"count":48,"type":"VEC3","min":[-0.04489834979176521,-0.08313588798046112,-0.09764476120471954],"max":[0.028537703678011894,0.10508709400892258,0.07367575913667679]},{"bufferView":81,"componentType":5126,"count":48,"type":"VEC3","min":[-0.8249236941337585,-0.7517455816268921,-0.6577773690223694],"max":[0.9949431419372559,0.7517455816268921,0.7718282341957092]},{"bufferView":82,"componentType":5126,"count":72,"type":"VEC3","min":[-0.14011600613594055,-0.2422519326210022,-0.14623919129371643],"max":[0.1449674516916275,0.243124321103096,0.14623919129371643]},{"bufferView":83,"componentType":5126,"count":72,"type":"VEC3","min":[-0.9970316290855408,-0.9997830390930176,-0.9733865857124329],"max":[0.9005200862884521,0.9997830390930176,0.9733865857124329]},{"bufferView":84,"componentType":5126,"count":132,"type":"VEC3","min":[-0.11999999731779099,-0.08500000089406967,-0.05999999865889549],"max":[0.11999999731779099,0.08500000089406967,0.05999999865889549]},{"bufferView":85,"componentType":5126,"count":132,"type":"VEC3","min":[-1.0,-1.0,-1.0],"max":[1.0,1.0,1.0]},{"bufferView":86,"componentType":5126,"count":72,"type":"VEC3","min":[-0.10401303321123123,-0.1179351657629013,-0.10724207013845444],"max":[0.104896180331707,0.1197780966758728,0.10724207013845444]},{"bufferView":87,"componentType":5126,"count":72,"type":"VEC3","min":[-0.983919084072113,-0.9990561604499817,-0.9659088253974915],"max":[0.897686243057251,0.9990561604499817,0.9659088253974915]},{"bufferView":88,"componentType":5126,"count":120,"type":"VEC3","min":[-0.24387523531913757,-0.14607486128807068,-0.40946972370147705],"max":[0.269386351108551,0.16204501688480377,0.40946972370147705]},{"bufferView":89,"componentType":5126,"count":120,"type":"VEC3","min":[-0.8885744214057922,-0.9960559606552124,-0.7815025448799133],"max":[0.8857332468032837,0.9883349537849426,0.7598445415496826]},{"bufferView":90,"componentType":5126,"count":48,"type":"VEC3","min":[-0.01692400686442852,-0.029391732066869736,-0.06856055557727814],"max":[0.023148709908127785,0.044323623180389404,0.06168895587325096]},{"bufferView":91,"componentType":5126,"count":48,"type":"VEC3","min":[-0.8284354209899902,-0.9137280583381653,-0.9203580021858215],"max":[0.9830019474029541,0.8332726955413818,0.9203580021858215]},{"bufferView":92,"componentType":5126,"count":48,"type":"VEC3","min":[-0.026924006640911102,-0.029391732066869736,-0.06743140518665314],"max":[0.013148710131645203,0.044323623180389404,0.06194557994604111]},{"bufferView":93,"componentType":5126,"count":48,"type":"VEC3","min":[-0.8123443722724915,-0.9137280583381653,-0.9203580021858215],"max":[0.9990930557250977,0.8332726955413818,0.9203580021858215]}],"buffers":[{"byteLength":105840,"uri":"Riftling.bin"}]}