# RIFTBOUND | Z up | flat shaded
mtllib Riftling.mtl
o Body_0
usemtl stone
v 0.324000 0.000000 1.013783
v 0.202011 0.182949 1.012074
v -0.072097 0.228133 1.004104
v -0.291914 0.101529 0.905180
v -0.291914 -0.101529 0.872016
v -0.072097 -0.228133 1.028484
v 0.202011 -0.182949 0.968602
v 0.540000 0.000000 1.248593
v 0.336684 0.304914 1.411993
v -0.120161 0.380222 1.425384
v -0.486523 0.169215 1.299653
v -0.486523 -0.169215 1.394579
v -0.120161 -0.380222 1.262953
v 0.336684 -0.304914 1.327010
v 0.388800 0.000000 1.875307
v 0.242413 0.219538 1.801692
v -0.086516 0.273760 1.821315
v -0.350297 0.121835 1.749187
v -0.350297 -0.121835 1.874641
v -0.086516 -0.273760 1.817736
v 0.242413 -0.219538 1.772810
v 0.027000 0.000000 2.028120
f 15 14 8
f 15 16 22
f 13 20 12
f 13 14 20
f 11 10 4
f 11 18 10
f 17 18 22
f 17 22 16
f 17 10 18
f 3 4 10
f 3 2 4
f 9 10 17
f 9 17 16
f 9 3 10
f 9 2 3
f 9 8 2
f 9 15 8
f 9 16 15
f 1 2 8
f 19 22 18
f 19 20 22
f 19 12 20
f 19 11 12
f 19 18 11
f 21 20 14
f 21 14 15
f 21 22 20
f 21 15 22
f 5 4 2
f 5 2 1
f 5 13 12
f 5 12 11
f 5 11 4
f 7 5 1
f 7 8 14
f 7 1 8
f 7 14 13
f 6 13 5
f 6 7 13
f 6 5 7
o Shoulder_Carapace_1
usemtl stone
v 0.372000 0.020000 1.589378
v 0.231938 0.198258 1.613869
v -0.082778 0.242284 1.602932
v -0.335160 0.118925 1.553389
v -0.335160 -0.078925 1.560135
v -0.082778 -0.202284 1.611740
v 0.231938 -0.158258 1.533594
v 0.620000 0.020000 1.802030
v 0.386564 0.317096 1.799856
v -0.137963 0.390473 1.770234
v -0.558601 0.184876 1.755393
v -0.558601 -0.144876 1.753178
v -0.137963 -0.350473 1.751058
v 0.386564 -0.277096 1.768177
v 0.446400 0.020000 2.013529
v 0.278326 0.233909 2.017935
v -0.099333 0.286740 2.057715
v -0.402193 0.138711 2.039459
v -0.402193 -0.098711 2.024116
v -0.099333 -0.246740 2.057126
v 0.278326 -0.193909 1.987498
v 0.031000 0.020000 2.118120
f 24 29 26
f 41 40 34
f 41 44 40
f 36 29 30
f 39 40 44
f 39 44 38
f 27 34 26
f 27 26 29
f 33 32 26
f 33 39 32
f 33 40 39
f 33 34 40
f 33 26 34
f 23 30 29
f 23 29 24
f 31 24 32
f 31 32 39
f 31 39 38
f 31 38 30
f 31 30 23
f 31 23 24
f 25 26 32
f 25 32 24
f 25 24 26
f 37 36 30
f 37 30 38
f 37 38 44
f 35 29 36
f 35 34 27
f 42 35 36
f 42 44 41
f 42 41 34
f 42 34 35
f 28 27 29
f 28 29 35
f 28 35 27
f 43 36 37
f 43 42 36
f 43 37 44
f 43 44 42
o Chest_Plate_2
usemtl edge
v -0.265000 -0.365000 1.418120
v -0.265000 -0.365000 1.738120
v -0.265000 -0.295000 1.418120
v -0.265000 -0.295000 1.738120
v 0.265000 -0.365000 1.418120
v 0.265000 -0.365000 1.738120
v 0.265000 -0.295000 1.418120
v 0.265000 -0.295000 1.738120
v -0.225000 -0.405000 1.418120
v -0.225000 -0.405000 1.738120
v 0.225000 -0.405000 1.418120
v 0.225000 -0.405000 1.738120
v -0.225000 -0.255000 1.418120
v -0.225000 -0.255000 1.738120
v 0.225000 -0.255000 1.418120
v 0.225000 -0.255000 1.738120
v -0.225000 -0.365000 1.378120
v -0.225000 -0.295000 1.378120
v 0.225000 -0.365000 1.378120
v 0.225000 -0.295000 1.378120
v -0.225000 -0.365000 1.778120
v -0.225000 -0.295000 1.778120
v 0.225000 -0.365000 1.778120
v 0.225000 -0.295000 1.778120
f 53 45 61
f 66 58 48
f 51 64 59
f 62 47 57
f 68 52 60
f 56 50 67
f 54 65 46
f 55 63 49
f 47 45 46
f 47 46 48
f 58 60 59
f 58 59 57
f 58 47 48
f 58 57 47
f 66 48 46
f 66 46 65
f 51 63 64
f 51 49 63
f 51 59 60
f 51 60 52
f 62 57 59
f 62 59 64
f 62 64 63
f 62 63 61
f 62 45 47
f 62 61 45
f 50 49 51
f 50 51 52
f 68 50 52
f 68 67 50
f 68 60 58
f 68 58 66
f 68 66 65
f 68 65 67
f 54 46 45
f 54 45 53
f 54 67 65
f 54 56 67
f 55 49 50
f 55 50 56
f 55 61 63
f 55 53 61
f 55 54 53
f 55 56 54
o Heart_3
usemtl rift
v 0.071500 -0.420000 1.568120
v 0.035750 -0.358079 1.568120
v -0.035750 -0.358079 1.568120
v -0.071500 -0.420000 1.568120
v -0.035750 -0.481921 1.568120
v 0.035750 -0.481921 1.568120
v 0.110000 -0.420000 1.750120
v 0.055000 -0.324737 1.750120
v -0.055000 -0.324737 1.750120
v -0.110000 -0.420000 1.750120
v -0.055000 -0.515263 1.750120
v 0.055000 -0.515263 1.750120
v 0.000000 -0.420000 1.848120
f 81 75 76
f 79 81 78
f 77 78 81
f 77 81 76
f 80 75 81
f 80 81 79
f 70 75 69
f 70 76 75
f 70 77 76
f 70 71 77
f 72 77 71
f 72 78 77
f 72 79 78
f 72 73 79
f 74 70 69
f 74 71 70
f 74 72 71
f 74 73 72
f 74 69 75
f 74 75 80
f 74 79 73
f 74 80 79
o Belt_4
usemtl copper
v -0.365000 -0.250000 0.988120
v -0.365000 -0.250000 1.088120
v -0.365000 0.250000 0.988120
v -0.365000 0.250000 1.088120
v 0.365000 -0.250000 0.988120
v 0.365000 -0.250000 1.088120
v 0.365000 0.250000 0.988120
v 0.365000 0.250000 1.088120
v -0.340000 -0.275000 0.988120
v -0.340000 -0.275000 1.088120
v 0.340000 -0.275000 0.988120
v 0.340000 -0.275000 1.088120
v -0.340000 0.275000 0.988120
v -0.340000 0.275000 1.088120
v 0.340000 0.275000 0.988120
v 0.340000 0.275000 1.088120
v -0.340000 -0.250000 0.963120
v -0.340000 0.250000 0.963120
v 0.340000 -0.250000 0.963120
v 0.340000 0.250000 0.963120
v -0.340000 -0.250000 1.113120
v -0.340000 0.250000 1.113120
v 0.340000 -0.250000 1.113120
v 0.340000 0.250000 1.113120
f 90 82 98
f 97 105 89
f 103 95 85
f 88 101 96
f 99 84 94
f 91 102 83
f 92 100 86
f 93 87 104
f 84 82 83
f 84 83 85
f 95 84 85
f 95 94 84
f 97 94 95
f 97 96 94
f 103 85 83
f 103 83 102
f 103 102 104
f 103 104 105
f 103 97 95
f 103 105 97
f 87 105 104
f 87 89 105
f 88 89 87
f 88 87 86
f 88 86 100
f 88 100 101
f 88 96 97
f 88 97 89
f 99 94 96
f 99 96 101
f 99 101 100
f 99 100 98
f 99 82 84
f 99 98 82
f 91 83 82
f 91 82 90
f 92 98 100
f 92 90 98
f 93 86 87
f 93 92 86
f 93 104 102
f 93 102 91
f 93 91 90
f 93 90 92
o Head_5
usemtl stone
v 0.258000 -0.030000 1.818219
v 0.160860 0.143567 1.901730
v -0.057410 0.186434 1.810838
v -0.232450 0.066322 1.809635
v -0.232450 -0.126322 1.830107
v -0.057410 -0.246434 1.815785
v 0.160860 -0.203567 1.868573
v 0.430000 -0.030000 2.061929
v 0.268101 0.259278 2.155677
v -0.095684 0.330723 2.151096
v -0.387417 0.130537 2.048459
v -0.387417 -0.190537 2.113096
v -0.095684 -0.390723 2.060942
v 0.268101 -0.319278 2.079074
v 0.309600 -0.030000 2.418147
v 0.193032 0.178280 2.422554
v -0.068892 0.229721 2.424297
v -0.278940 0.085587 2.479422
v -0.278940 -0.145587 2.399172
v -0.068892 -0.289721 2.390667
v 0.193032 -0.238280 2.448581
v 0.021500 -0.030000 2.568120
f 126 119 113
f 126 127 125
f 118 125 117
f 118 119 126
f 118 126 125
f 116 123 115
f 116 115 108
f 116 108 109
f 116 117 123
f 114 108 115
f 122 123 127
f 122 127 121
f 122 115 123
f 122 114 115
f 122 121 114
f 106 113 119
f 106 114 113
f 124 127 123
f 124 125 127
f 124 123 117
f 124 117 125
f 120 126 113
f 120 113 114
f 120 114 121
f 120 121 127
f 120 127 126
f 107 108 114
f 107 106 108
f 107 114 106
f 111 109 108
f 111 108 106
f 111 119 118
f 110 109 111
f 110 117 116
f 110 116 109
f 110 118 117
f 110 111 118
f 112 106 119
f 112 119 111
f 112 111 106
o Face_Mask_6
usemtl dark
v -0.290000 -0.380000 2.033120
v -0.290000 -0.380000 2.203120
v -0.290000 -0.320000 2.033120
v -0.290000 -0.320000 2.203120
v 0.290000 -0.380000 2.033120
v 0.290000 -0.380000 2.203120
v 0.290000 -0.320000 2.033120
v 0.290000 -0.320000 2.203120
v -0.240000 -0.430000 2.033120
v -0.240000 -0.430000 2.203120
v 0.240000 -0.430000 2.033120
v 0.240000 -0.430000 2.203120
v -0.240000 -0.270000 2.033120
v -0.240000 -0.270000 2.203120
v 0.240000 -0.270000 2.033120
v 0.240000 -0.270000 2.203120
v -0.240000 -0.380000 1.983120
v -0.240000 -0.320000 1.983120
v 0.240000 -0.380000 1.983120
v 0.240000 -0.320000 1.983120
v -0.240000 -0.380000 2.253120
v -0.240000 -0.320000 2.253120
v 0.240000 -0.380000 2.253120
v 0.240000 -0.320000 2.253120
f 136 128 144
f 149 141 131
f 134 147 142
f 145 130 140
f 151 135 143
f 139 133 150
f 137 148 129
f 138 146 132
f 130 128 129
f 130 129 131
f 141 143 142
f 141 142 140
f 141 130 131
f 141 140 130
f 149 131 129
f 149 129 148
f 134 146 147
f 134 132 146
f 134 142 143
f 134 143 135
f 145 140 142
f 145 142 147
f 145 147 146
f 145 146 144
f 145 128 130
f 145 144 128
f 133 132 134
f 133 134 135
f 151 133 135
f 151 150 133
f 151 143 141
f 151 141 149
f 151 149 148
f 151 148 150
f 137 129 128
f 137 128 136
f 137 150 148
f 137 139 150
f 138 132 133
f 138 133 139
f 138 144 146
f 138 136 144
f 138 137 136
f 138 139 137
o Eye_7
usemtl rift
v -0.235000 -0.449500 2.127620
v -0.235000 -0.449500 2.208620
v -0.235000 -0.438500 2.127620
v -0.235000 -0.438500 2.208620
v -0.085000 -0.449500 2.127620
v -0.085000 -0.449500 2.208620
v -0.085000 -0.438500 2.127620
v -0.085000 -0.438500 2.208620
v -0.223000 -0.461500 2.127620
v -0.223000 -0.461500 2.208620
v -0.097000 -0.461500 2.127620
v -0.097000 -0.461500 2.208620
v -0.223000 -0.426500 2.127620
v -0.223000 -0.426500 2.208620
v -0.097000 -0.426500 2.127620
v -0.097000 -0.426500 2.208620
v -0.223000 -0.449500 2.115620
v -0.223000 -0.438500 2.115620
v -0.097000 -0.449500 2.115620
v -0.097000 -0.438500 2.115620
v -0.223000 -0.449500 2.220620
v -0.223000 -0.438500 2.220620
v -0.097000 -0.449500 2.220620
v -0.097000 -0.438500 2.220620
f 160 152 168
f 173 165 155
f 158 171 166
f 169 154 164
f 175 159 167
f 163 157 174
f 161 172 153
f 162 170 156
f 154 152 153
f 154 153 155
f 165 167 166
f 165 166 164
f 165 154 155
f 165 164 154
f 173 155 153
f 173 153 172
f 158 170 171
f 158 156 170
f 158 166 167
f 158 167 159
f 169 164 166
f 169 166 171
f 169 171 170
f 169 170 168
f 169 152 154
f 169 168 152
f 157 156 158
f 157 158 159
f 175 157 159
f 175 174 157
f 175 167 165
f 175 165 173
f 175 173 172
f 175 172 174
f 161 153 152
f 161 152 160
f 161 174 172
f 161 163 174
f 162 156 157
f 162 157 163
f 162 168 170
f 162 160 168
f 162 161 160
f 162 163 161
o Horn_8
usemtl dark
v -0.325768 0.000000 2.347901
v -0.285945 -0.086001 2.359278
v -0.196464 -0.107242 2.384844
v -0.124707 -0.047727 2.405347
v -0.124707 0.047727 2.405347
v -0.196464 0.107242 2.384844
v -0.285945 0.086001 2.359278
v -0.334423 0.000000 2.723999
v -0.328993 -0.011727 2.725551
v -0.316791 -0.014624 2.729037
v -0.307005 -0.006508 2.731833
v -0.307005 0.006508 2.731833
v -0.316791 0.014624 2.729037
v -0.328993 0.011727 2.725551
f 181 180 179
f 181 178 177
f 181 176 182
f 181 179 178
f 181 177 176
f 185 178 179
f 185 179 186
f 187 179 180
f 187 186 179
f 187 180 181
f 187 181 188
f 189 182 176
f 189 176 183
f 189 181 182
f 189 188 181
f 184 185 186
f 184 186 187
f 184 189 183
f 184 187 188
f 184 188 189
f 184 176 177
f 184 183 176
f 184 177 178
f 184 178 185
o Horn_Tip_9
usemtl copper
v -0.286200 0.000000 2.708120
v -0.303100 0.029272 2.708120
v -0.336900 0.029272 2.708120
v -0.353800 0.000000 2.708120
v -0.336900 -0.029272 2.708120
v -0.303100 -0.029272 2.708120
v -0.287500 0.000000 2.792620
v -0.313500 0.045033 2.792620
v -0.365500 0.045033 2.792620
v -0.391500 0.000000 2.792620
v -0.365500 -0.045033 2.792620
v -0.313500 -0.045033 2.792620
v -0.350000 0.000000 2.838120
f 202 198 199
f 197 198 202
f 200 202 199
f 200 201 202
f 196 202 201
f 196 197 202
f 195 200 194
f 195 201 200
f 196 201 195
f 196 195 190
f 191 196 190
f 191 197 196
f 191 198 197
f 191 192 198
f 193 195 194
f 193 190 195
f 193 191 190
f 193 192 191
f 193 194 200
f 193 200 199
f 193 198 192
f 193 199 198
o Eye_10
usemtl rift
v 0.085000 -0.449500 2.127620
v 0.085000 -0.449500 2.208620
v 0.085000 -0.438500 2.127620
v 0.085000 -0.438500 2.208620
v 0.235000 -0.449500 2.127620
v 0.235000 -0.449500 2.208620
v 0.235000 -0.438500 2.127620
v 0.235000 -0.438500 2.208620
v 0.097000 -0.461500 2.127620
v 0.097000 -0.461500 2.208620
v 0.223000 -0.461500 2.127620
v 0.223000 -0.461500 2.208620
v 0.097000 -0.426500 2.127620
v 0.097000 -0.426500 2.208620
v 0.223000 -0.426500 2.127620
v 0.223000 -0.426500 2.208620
v 0.097000 -0.449500 2.115620
v 0.097000 -0.438500 2.115620
v 0.223000 -0.449500 2.115620
v 0.223000 -0.438500 2.115620
v 0.097000 -0.449500 2.220620
v 0.097000 -0.438500 2.220620
v 0.223000 -0.449500 2.220620
v 0.223000 -0.438500 2.220620
f 211 203 219
f 224 216 206
f 209 222 217
f 220 205 215
f 226 210 218
f 214 208 225
f 212 223 204
f 213 221 207
f 205 203 204
f 205 204 206
f 216 218 217
f 216 217 215
f 216 205 206
f 216 215 205
f 224 206 204
f 224 204 223
f 209 221 222
f 209 207 221
f 209 217 218
f 209 218 210
f 220 215 217
f 220 217 222
f 220 222 221
f 220 221 219
f 220 203 205
f 220 219 203
f 208 207 209
f 208 209 210
f 226 208 210
f 226 225 208
f 226 218 216
f 226 216 224
f 226 224 223
f 226 223 225
f 212 204 203
f 212 203 211
f 212 225 223
f 212 214 225
f 213 207 208
f 213 208 214
f 213 219 221
f 213 211 219
f 213 212 211
f 213 214 212
o Horn_11
usemtl dark
v 0.114232 0.000000 2.408339
v 0.154055 -0.086001 2.396961
v 0.243536 -0.107242 2.371395
v 0.315293 -0.047727 2.350893
v 0.315293 0.047727 2.350893
v 0.243536 0.107242 2.371395
v 0.154055 0.086001 2.396961
v 0.305577 0.000000 2.732241
v 0.311007 -0.011727 2.730689
v 0.323209 -0.014624 2.727203
v 0.332995 -0.006508 2.724407
v 0.332995 0.006508 2.724407
v 0.323209 0.014624 2.727203
v 0.311007 0.011727 2.730689
f 231 227 233
f 231 228 227
f 231 230 229
f 231 233 232
f 231 229 228
f 240 233 227
f 240 227 234
f 235 227 228
f 235 234 227
f 238 230 231
f 238 237 230
f 236 229 230
f 236 230 237
f 236 228 229
f 236 235 228
f 239 237 238
f 239 240 234
f 239 234 235
f 239 236 237
f 239 235 236
f 239 232 233
f 239 233 240
f 239 231 232
f 239 238 231
o Horn_Tip_12
usemtl copper
v 0.353800 0.000000 2.708120
v 0.336900 0.029272 2.708120
v 0.303100 0.029272 2.708120
v 0.286200 0.000000 2.708120
v 0.303100 -0.029272 2.708120
v 0.336900 -0.029272 2.708120
v 0.391500 0.000000 2.792620
v 0.365500 0.045033 2.792620
v 0.313500 0.045033 2.792620
v 0.287500 0.000000 2.792620
v 0.313500 -0.045033 2.792620
v 0.365500 -0.045033 2.792620
v 0.350000 0.000000 2.838120
f 253 251 252
f 253 252 247
f 253 249 250
f 253 250 251
f 253 248 249
f 253 247 248
f 250 249 243
f 250 243 244
f 245 250 244
f 245 251 250
f 246 247 252
f 246 241 247
f 246 252 251
f 246 251 245
f 242 244 243
f 242 241 246
f 242 245 244
f 242 246 245
f 242 248 247
f 242 247 241
f 242 243 249
f 242 249 248
o Shoulder_13
usemtl edge
v -0.336000 0.000000 1.471585
v -0.401513 0.168876 1.485643
v -0.548719 0.210584 1.538138
v -0.666769 0.093719 1.517761
v -0.666769 -0.093719 1.472374
v -0.548719 -0.210584 1.503901
v -0.401513 -0.168876 1.508172
v -0.220000 0.000000 1.679976
v -0.329188 0.281459 1.733436
v -0.574531 0.350974 1.675691
v -0.771281 0.156198 1.701504
v -0.771281 -0.156198 1.713177
v -0.574531 -0.350974 1.705168
v -0.329188 -0.281459 1.719692
v -0.301200 0.000000 1.981739
v -0.379815 0.202651 2.002053
v -0.556462 0.252701 1.939551
v -0.698122 0.112463 1.973435
v -0.698122 -0.112463 1.977868
v -0.556462 -0.252701 1.940343
v -0.379815 -0.202651 1.913258
v -0.495500 0.000000 2.068120
f 268 261 262
f 268 275 274
f 265 258 266
f 265 266 272
f 265 264 258
f 273 275 272
f 273 274 275
f 273 272 266
f 271 272 275
f 271 264 265
f 271 265 272
f 271 263 264
f 271 270 263
f 269 268 262
f 269 262 263
f 269 263 270
f 269 275 268
f 269 271 275
f 269 270 271
f 259 266 258
f 259 260 266
f 267 266 260
f 267 273 266
f 267 274 273
f 267 261 268
f 267 268 274
f 254 261 267
f 254 267 260
f 254 259 258
f 254 260 259
f 255 254 258
f 255 263 262
f 255 262 261
f 255 261 254
f 257 255 258
f 257 258 264
f 257 264 263
f 256 263 255
f 256 257 263
f 256 255 257
o Upper_Arm_14
usemtl dark
v -0.552627 0.158392 1.688120
v -0.432802 0.114657 1.633289
v -0.386169 -0.015417 1.619747
v -0.447843 -0.133882 1.657691
v -0.571384 -0.151531 1.718549
v -0.663761 -0.055074 1.756492
v -0.655414 0.082855 1.742950
v -0.688385 0.108693 1.398120
v -0.591027 0.073158 1.353570
v -0.553137 -0.032527 1.342567
v -0.603248 -0.128779 1.373397
v -0.703624 -0.143119 1.422843
v -0.778681 -0.064747 1.453673
v -0.771899 0.047320 1.442670
f 283 276 277
f 283 277 284
f 285 277 278
f 285 284 277
f 279 278 277
f 279 276 282
f 279 281 280
f 279 282 281
f 279 277 276
f 279 286 285
f 279 285 278
f 287 280 281
f 287 281 288
f 287 279 280
f 287 286 279
f 289 287 288
f 289 284 285
f 289 283 284
f 289 285 286
f 289 286 287
f 289 281 282
f 289 288 281
f 289 282 276
f 289 276 283
o Gauntlet_15
usemtl stone
v -0.506000 -0.030000 0.961805
v -0.571513 0.134185 0.962149
v -0.718719 0.174735 0.927913
v -0.836769 0.061116 0.901059
v -0.836769 -0.121116 0.873930
v -0.718719 -0.234735 0.912474
v -0.571513 -0.194185 0.915411
v -0.390000 -0.030000 1.126417
v -0.499188 0.243641 1.126825
v -0.744531 0.311225 1.238023
v -0.941281 0.121859 1.197447
v -0.941281 -0.181859 1.148558
v -0.744531 -0.371225 1.172009
v -0.499188 -0.303641 1.235100
v -0.471200 -0.030000 1.538148
v -0.549815 0.167022 1.531895
v -0.726462 0.215682 1.479031
v -0.868122 0.079339 1.490804
v -0.868122 -0.139339 1.512293
v -0.726462 -0.275682 1.440234
v -0.549815 -0.227022 1.498125
v -0.665500 -0.030000 1.628120
f 298 299 305
f 296 297 303
f 300 299 293
f 300 307 299
f 300 293 301
f 304 305 311
f 304 303 297
f 304 297 298
f 304 298 305
f 306 307 311
f 306 311 305
f 306 299 307
f 306 305 299
f 292 293 299
f 292 299 298
f 308 311 307
f 308 309 311
f 308 300 301
f 308 307 300
f 294 301 293
f 294 293 292
f 294 292 296
f 302 296 303
f 302 301 294
f 302 308 301
f 302 309 308
f 310 311 309
f 310 304 311
f 310 303 304
f 310 302 303
f 310 309 302
f 291 292 298
f 291 296 292
f 295 294 296
f 295 296 302
f 295 302 294
f 290 297 296
f 290 296 291
f 290 298 297
f 290 291 298
o Blade_Spike_16
usemtl copper
v -0.786996 0.058381 1.438120
v -0.717456 0.025929 1.391098
v -0.700460 -0.062451 1.391098
v -0.753004 -0.118381 1.438120
v -0.822544 -0.085929 1.485142
v -0.839540 0.002451 1.485142
v -1.031133 -0.074108 1.088120
v -1.026497 -0.076271 1.084985
v -1.025364 -0.082163 1.084985
v -1.028867 -0.085892 1.088120
v -1.033503 -0.083729 1.091255
v -1.034636 -0.077837 1.091255
f 315 314 313
f 315 312 317
f 315 317 316
f 315 313 312
f 318 317 312
f 318 323 317
f 318 312 313
f 318 313 319
f 320 313 314
f 320 319 313
f 320 314 315
f 320 315 321
f 322 323 318
f 322 319 320
f 322 318 319
f 322 320 321
f 322 316 317
f 322 317 323
f 322 315 316
f 322 321 315
o Rivet_17
usemtl gold
v -0.615000 -0.196500 1.259120
v -0.615000 -0.196500 1.297120
v -0.615000 -0.183500 1.259120
v -0.615000 -0.183500 1.297120
v -0.565000 -0.196500 1.259120
v -0.565000 -0.196500 1.297120
v -0.565000 -0.183500 1.259120
v -0.565000 -0.183500 1.297120
v -0.609000 -0.202500 1.259120
v -0.609000 -0.202500 1.297120
v -0.571000 -0.202500 1.259120
v -0.571000 -0.202500 1.297120
v -0.609000 -0.177500 1.259120
v -0.609000 -0.177500 1.297120
v -0.571000 -0.177500 1.259120
v -0.571000 -0.177500 1.297120
v -0.609000 -0.196500 1.253120
v -0.609000 -0.183500 1.253120
v -0.571000 -0.196500 1.253120
v -0.571000 -0.183500 1.253120
v -0.609000 -0.196500 1.303120
v -0.609000 -0.183500 1.303120
v -0.571000 -0.196500 1.303120
v -0.571000 -0.183500 1.303120
f 331 339 347
f 332 324 340
f 345 337 327
f 330 343 338
f 341 326 336
f 333 344 325
f 334 342 328
f 335 329 346
f 326 324 325
f 326 325 327
f 337 339 338
f 337 338 336
f 337 326 327
f 337 336 326
f 345 327 325
f 345 325 344
f 345 339 337
f 345 347 339
f 330 342 343
f 330 328 342
f 330 329 328
f 330 331 329
f 330 338 339
f 330 339 331
f 341 336 338
f 341 338 343
f 341 343 342
f 341 342 340
f 341 324 326
f 341 340 324
f 346 345 344
f 346 347 345
f 346 329 331
f 346 331 347
f 333 325 324
f 333 324 332
f 334 340 342
f 334 332 340
f 335 346 344
f 335 344 333
f 335 333 332
f 335 332 334
f 335 328 329
f 335 334 328
o Rivet_18
usemtl gold
v -0.695000 -0.196500 1.209120
v -0.695000 -0.196500 1.247120
v -0.695000 -0.183500 1.209120
v -0.695000 -0.183500 1.247120
v -0.645000 -0.196500 1.209120
v -0.645000 -0.196500 1.247120
v -0.645000 -0.183500 1.209120
v -0.645000 -0.183500 1.247120
v -0.689000 -0.202500 1.209120
v -0.689000 -0.202500 1.247120
v -0.651000 -0.202500 1.209120
v -0.651000 -0.202500 1.247120
v -0.689000 -0.177500 1.209120
v -0.689000 -0.177500 1.247120
v -0.651000 -0.177500 1.209120
v -0.651000 -0.177500 1.247120
v -0.689000 -0.196500 1.203120
v -0.689000 -0.183500 1.203120
v -0.651000 -0.196500 1.203120
v -0.651000 -0.183500 1.203120
v -0.689000 -0.196500 1.253120
v -0.689000 -0.183500 1.253120
v -0.651000 -0.196500 1.253120
v -0.651000 -0.183500 1.253120
f 355 363 371
f 356 348 364
f 369 361 351
f 354 367 362
f 365 350 360
f 357 368 349
f 358 366 352
f 359 353 370
f 350 348 349
f 350 349 351
f 361 363 362
f 361 362 360
f 361 350 351
f 361 360 350
f 369 351 349
f 369 349 368
f 369 363 361
f 369 371 363
f 354 366 367
f 354 352 366
f 354 353 352
f 354 355 353
f 354 362 363
f 354 363 355
f 365 360 362
f 365 362 367
f 365 367 366
f 365 366 364
f 365 348 350
f 365 364 348
f 370 369 368
f 370 371 369
f 370 353 355
f 370 355 371
f 357 349 348
f 357 348 356
f 358 364 366
f 358 356 364
f 359 370 368
f 359 368 357
f 359 357 356
f 359 356 358
f 359 352 353
f 359 358 352
o Rivet_19
usemtl gold
v -0.775000 -0.196500 1.159120
v -0.775000 -0.196500 1.197120
v -0.775000 -0.183500 1.159120
v -0.775000 -0.183500 1.197120
v -0.725000 -0.196500 1.159120
v -0.725000 -0.196500 1.197120
v -0.725000 -0.183500 1.159120
v -0.725000 -0.183500 1.197120
v -0.769000 -0.202500 1.159120
v -0.769000 -0.202500 1.197120
v -0.731000 -0.202500 1.159120
v -0.731000 -0.202500 1.197120
v -0.769000 -0.177500 1.159120
v -0.769000 -0.177500 1.197120
v -0.731000 -0.177500 1.159120
v -0.731000 -0.177500 1.197120
v -0.769000 -0.196500 1.153120
v -0.769000 -0.183500 1.153120
v -0.731000 -0.196500 1.153120
v -0.731000 -0.183500 1.153120
v -0.769000 -0.196500 1.203120
v -0.769000 -0.183500 1.203120
v -0.731000 -0.196500 1.203120
v -0.731000 -0.183500 1.203120
f 380 372 388
f 393 385 375
f 378 391 386
f 389 374 384
f 395 379 387
f 383 377 394
f 381 392 373
f 382 390 376
f 374 372 373
f 374 373 375
f 385 387 386
f 385 386 384
f 385 374 375
f 385 384 374
f 393 375 373
f 393 373 392
f 378 390 391
f 378 376 390
f 378 386 387
f 378 387 379
f 389 384 386
f 389 386 391
f 389 391 390
f 389 390 388
f 389 372 374
f 389 388 372
f 377 376 378
f 377 378 379
f 395 377 379
f 395 394 377
f 395 387 385
f 395 385 393
f 395 393 392
f 395 392 394
f 381 373 372
f 381 372 380
f 381 394 392
f 381 383 394
f 382 383 381
f 382 381 380
f 382 388 390
f 382 380 388
f 382 376 377
f 382 377 383
o Fist_20
usemtl dark
v -0.578000 -0.120000 0.774703
v -0.627699 -0.016798 0.748800
v -0.739373 0.008690 0.776694
v -0.828928 -0.062727 0.722970
v -0.828928 -0.177273 0.754561
v -0.739373 -0.248690 0.740709
v -0.627699 -0.223202 0.766234
v -0.490000 -0.120000 0.858592
v -0.572832 0.052003 0.900418
v -0.758955 0.094484 0.880756
v -0.908213 -0.024546 0.902253
v -0.908213 -0.215454 0.876749
v -0.758955 -0.334484 0.873950
v -0.572832 -0.292003 0.895457
v -0.551600 -0.120000 1.067169
v -0.611239 0.003842 1.030303
v -0.745247 0.034429 1.066256
v -0.852713 -0.051273 1.063861
v -0.852713 -0.188727 1.018781
v -0.745247 -0.274429 1.044651
v -0.611239 -0.243842 1.050412
v -0.699000 -0.120000 1.108120
f 407 406 399
f 401 408 407
f 405 399 406
f 405 406 412
f 405 412 404
f 398 399 405
f 409 408 401
f 410 417 416
f 410 412 417
f 410 403 404
f 410 409 403
f 410 416 409
f 415 416 417
f 415 407 408
f 415 414 407
f 415 408 409
f 415 409 416
f 397 401 399
f 397 399 398
f 397 404 403
f 397 405 404
f 397 398 405
f 400 407 399
f 400 399 401
f 400 401 407
f 413 417 412
f 413 415 417
f 413 414 415
f 413 412 406
f 413 406 407
f 413 407 414
f 411 404 412
f 411 410 404
f 411 412 410
f 402 401 397
f 402 403 409
f 402 409 401
f 396 397 403
f 396 403 402
f 396 402 397
o Claw_21
usemtl copper
v -0.659898 -0.242850 0.888120
v -0.634367 -0.212355 0.863033
v -0.588981 -0.220065 0.872615
v -0.586462 -0.255324 0.903625
v -0.630292 -0.269406 0.913207
v -0.614987 -0.380356 0.728120
v -0.611796 -0.376544 0.724984
v -0.606123 -0.377508 0.726182
v -0.605808 -0.381916 0.730058
v -0.611286 -0.383676 0.731256
f 423 422 418
f 423 427 422
f 423 418 419
f 423 419 424
f 420 418 422
f 420 419 418
f 420 422 421
f 425 424 419
f 425 419 420
f 426 427 423
f 426 423 424
f 426 424 425
f 426 421 422
f 426 422 427
f 426 420 421
f 426 425 420
o Claw_22
usemtl copper
v -0.750000 -0.240000 0.888120
v -0.722361 -0.211370 0.863069
v -0.677639 -0.222306 0.872637
v -0.677639 -0.257694 0.903602
v -0.722361 -0.268630 0.913171
v -0.715000 -0.380000 0.728120
v -0.711545 -0.376421 0.724988
v -0.705955 -0.377788 0.726185
v -0.705955 -0.382212 0.730055
v -0.711545 -0.383579 0.731251
f 429 428 432
f 429 431 430
f 429 432 431
f 436 431 432
f 436 432 437
f 433 432 428
f 433 437 432
f 434 428 429
f 434 433 428
f 435 436 437
f 435 437 433
f 435 433 434
f 435 430 431
f 435 431 436
f 435 429 430
f 435 434 429
o Claw_23
usemtl copper
v -0.839898 -0.237150 0.888120
v -0.810292 -0.210594 0.863033
v -0.766462 -0.224676 0.872615
v -0.768981 -0.259935 0.903625
v -0.814367 -0.267645 0.913207
v -0.814987 -0.379644 0.728120
v -0.811286 -0.376324 0.724984
v -0.805808 -0.378084 0.726182
v -0.806123 -0.382492 0.730058
v -0.811796 -0.383456 0.731256
f 439 438 442
f 439 441 440
f 439 442 441
f 446 441 442
f 446 442 447
f 443 442 438
f 443 447 442
f 444 438 439
f 444 443 438
f 445 446 447
f 445 447 443
f 445 443 444
f 445 440 441
f 445 441 446
f 445 439 440
f 445 444 439
o Thigh_24
usemtl dark
v -0.080033 0.000000 0.974996
v -0.136497 -0.117275 0.976172
v -0.263371 -0.146239 0.978815
v -0.365116 -0.065083 0.980935
v -0.365116 0.065083 0.980935
v -0.263371 0.146239 0.978815
v -0.136497 0.117275 0.976172
v -0.120026 0.000000 0.495620
v -0.165197 -0.093820 0.496561
v -0.266697 -0.116991 0.498676
v -0.348093 -0.052066 0.500372
v -0.348093 0.052066 0.500372
v -0.266697 0.116991 0.498676
v -0.165197 0.093820 0.496561
f 449 451 450
f 449 448 454
f 449 452 451
f 449 454 453
f 449 453 452
f 461 454 448
f 461 448 455
f 458 451 452
f 458 452 459
f 458 450 451
f 458 457 450
f 456 448 449
f 456 455 448
f 456 449 450
f 456 450 457
f 460 461 455
f 460 458 459
f 460 455 456
f 460 457 458
f 460 456 457
f 460 452 453
f 460 459 452
f 460 453 454
f 460 454 461
o Knee_25
usemtl copper
v -0.360000 -0.290000 0.423120
v -0.360000 -0.290000 0.553120
v -0.360000 -0.210000 0.423120
v -0.360000 -0.210000 0.553120
v -0.120000 -0.290000 0.423120
v -0.120000 -0.290000 0.553120
v -0.120000 -0.210000 0.423120
v -0.120000 -0.210000 0.553120
v -0.340000 -0.310000 0.423120
v -0.340000 -0.310000 0.553120
v -0.140000 -0.310000 0.423120
v -0.140000 -0.310000 0.553120
v -0.340000 -0.190000 0.423120
v -0.340000 -0.190000 0.553120
v -0.140000 -0.190000 0.423120
v -0.140000 -0.190000 0.553120
v -0.340000 -0.290000 0.403120
v -0.340000 -0.210000 0.403120
v -0.140000 -0.290000 0.403120
v -0.140000 -0.210000 0.403120
v -0.340000 -0.290000 0.573120
v -0.340000 -0.210000 0.573120
v -0.140000 -0.290000 0.573120
v -0.140000 -0.210000 0.573120
f 470 462 478
f 483 475 465
f 468 481 476
f 479 464 474
f 485 469 477
f 473 467 484
f 471 482 463
f 472 480 466
f 464 462 463
f 464 463 465
f 475 477 476
f 475 476 474
f 475 464 465
f 475 474 464
f 483 465 463
f 483 463 482
f 468 480 481
f 468 466 480
f 468 476 477
f 468 477 469
f 479 474 476
f 479 476 481
f 479 481 480
f 479 480 478
f 479 462 464
f 479 478 462
f 467 466 468
f 467 468 469
f 485 467 469
f 485 484 467
f 485 477 475
f 485 475 483
f 485 483 482
f 485 482 484
f 471 463 462
f 471 462 470
f 471 484 482
f 471 473 484
f 472 466 467
f 472 467 473
f 472 478 480
f 472 470 478
f 472 471 470
f 472 473 471
o Shin_26
usemtl edge
v -0.130104 0.000000 0.433342
v -0.171481 -0.086001 0.435141
v -0.264454 -0.107242 0.439183
v -0.339013 -0.047727 0.442425
v -0.339013 0.047727 0.442425
v -0.264454 0.107242 0.439183
v -0.171481 0.086001 0.435141
v -0.175071 0.000000 0.204862
v -0.203282 -0.058637 0.206089
v -0.266673 -0.073120 0.208845
v -0.317509 -0.032541 0.211055
v -0.317509 0.032541 0.211055
v -0.266673 0.073120 0.208845
v -0.203282 0.058637 0.206089
f 498 490 491
f 498 497 490
f 488 490 489
f 488 486 492
f 488 487 486
f 488 492 491
f 488 491 490
f 496 489 490
f 496 490 497
f 496 488 489
f 496 495 488
f 494 486 487
f 494 493 486
f 494 487 488
f 494 488 495
f 499 493 494
f 499 496 497
f 499 497 498
f 499 495 496
f 499 494 495
f 499 492 486
f 499 486 493
f 499 491 492
f 499 498 491
o Boot_27
usemtl stone
v -0.088000 -0.100000 0.041387
v -0.148995 0.097022 0.020664
v -0.286048 0.145682 0.042980
v -0.395957 0.009339 0.000000
v -0.395957 -0.209339 0.025273
v -0.286048 -0.345682 0.014191
v -0.148995 -0.297022 0.034611
v 0.020000 -0.100000 0.108497
v -0.081658 0.228369 0.141958
v -0.310081 0.309470 0.126229
v -0.493262 0.082231 0.143426
v -0.493262 -0.282231 0.123023
v -0.310081 -0.509470 0.120784
v -0.081658 -0.428369 0.137989
v -0.055600 -0.100000 0.275359
v -0.128794 0.136426 0.245867
v -0.293258 0.194818 0.274629
v -0.425148 0.031206 0.272713
v -0.425148 -0.231206 0.236649
v -0.293258 -0.394818 0.257345
v -0.128794 -0.336426 0.261953
v -0.236500 -0.100000 0.308120
f 519 521 517
f 514 513 507
f 512 519 511
f 512 513 519
f 510 509 503
f 510 503 511
f 510 511 517
f 516 517 521
f 516 521 514
f 516 514 515
f 516 509 510
f 516 510 517
f 518 517 511
f 518 511 519
f 518 519 517
f 520 519 513
f 520 513 514
f 520 521 519
f 520 514 521
f 502 503 509
f 502 509 501
f 502 501 503
f 508 501 509
f 508 509 516
f 508 516 515
f 508 507 501
f 508 514 507
f 508 515 514
f 500 501 507
f 505 503 501
f 505 512 511
f 505 513 512
f 506 501 500
f 506 505 501
f 506 513 505
f 506 507 513
f 506 500 507
f 504 511 503
f 504 505 511
f 504 503 505
o Toe_Claw_28
usemtl copper
v -0.341924 -0.288173 0.128120
v -0.326109 -0.281439 0.108796
v -0.301851 -0.286536 0.116177
v -0.302675 -0.296420 0.140063
v -0.327441 -0.297431 0.147443
v -0.334983 -0.409585 0.078120
v -0.331388 -0.408054 0.073728
v -0.325875 -0.409213 0.075406
v -0.326062 -0.411459 0.080834
v -0.331691 -0.411689 0.082512
f 523 522 526
f 523 525 524
f 523 526 525
f 530 525 526
f 530 526 531
f 527 526 522
f 527 531 526
f 529 524 525
f 529 525 530
f 528 530 531
f 528 531 527
f 528 529 530
f 528 522 523
f 528 527 522
f 528 523 524
f 528 524 529
o Toe_Claw_29
usemtl copper
v -0.201924 -0.291827 0.128120
v -0.187441 -0.282569 0.108796
v -0.162675 -0.283580 0.116177
v -0.161851 -0.293464 0.140063
v -0.186109 -0.298561 0.147443
v -0.174983 -0.410415 0.078120
v -0.171691 -0.408311 0.073728
v -0.166062 -0.408541 0.075406
v -0.165875 -0.410787 0.080834
v -0.171388 -0.411946 0.082512
f 537 536 532
f 537 541 536
f 534 532 536
f 534 533 532
f 534 536 535
f 540 535 536
f 540 536 541
f 538 532 533
f 538 537 532
f 539 541 537
f 539 540 541
f 539 537 538
f 539 534 535
f 539 535 540
f 539 533 534
f 539 538 533
o Shoulder_30
usemtl edge
v 0.684000 0.000000 1.471585
v 0.618487 0.168876 1.485643
v 0.471281 0.210584 1.538138
v 0.353231 0.093719 1.517761
v 0.353231 -0.093719 1.472374
v 0.471281 -0.210584 1.503901
v 0.618487 -0.168876 1.508172
v 0.800000 0.000000 1.679976
v 0.690812 0.281459 1.733436
v 0.445469 0.350974 1.675691
v 0.248719 0.156198 1.701504
v 0.248719 -0.156198 1.713177
v 0.445469 -0.350974 1.705168
v 0.690812 -0.281459 1.719692
v 0.718800 0.000000 1.981739
v 0.640185 0.202651 2.002053
v 0.463538 0.252701 1.939551
v 0.321878 0.112463 1.973435
v 0.321878 -0.112463 1.977868
v 0.463538 -0.252701 1.940343
v 0.640185 -0.202651 1.913258
v 0.524500 0.000000 2.068120
f 557 559 563
f 554 553 546
f 554 555 561
f 552 553 559
f 552 559 551
f 552 546 553
f 556 557 563
f 556 555 549
f 558 551 559
f 558 557 551
f 558 559 557
f 560 563 559
f 560 561 563
f 560 559 553
f 560 553 554
f 560 554 561
f 545 543 546
f 545 552 551
f 545 546 552
f 550 551 557
f 550 543 551
f 550 549 543
f 550 556 549
f 550 557 556
f 542 549 555
f 542 543 549
f 542 546 543
f 562 563 561
f 562 556 563
f 562 561 555
f 562 555 556
f 544 551 543
f 544 545 551
f 544 543 545
f 547 554 546
f 547 546 542
f 548 542 555
f 548 547 542
f 548 555 554
f 548 554 547
o Upper_Arm_31
usemtl dark
v 0.507373 -0.158392 1.688120
v 0.404586 -0.082855 1.633289
v 0.396239 0.055074 1.619747
v 0.488616 0.151531 1.657691
v 0.612157 0.133882 1.718549
v 0.673831 0.015417 1.756492
v 0.627198 -0.114657 1.742950
v 0.651615 -0.148693 1.398120
v 0.568101 -0.087320 1.353570
v 0.561319 0.024747 1.342567
v 0.636376 0.103119 1.373397
v 0.736752 0.088779 1.422843
v 0.786863 -0.007473 1.453673
v 0.748973 -0.113158 1.442670
f 568 567 566
f 568 564 570
f 568 566 565
f 568 570 569
f 568 565 564
f 571 564 565
f 571 565 572
f 575 568 569
f 575 569 576
f 575 567 568
f 575 574 567
f 573 565 566
f 573 572 565
f 573 566 567
f 573 567 574
f 577 575 576
f 577 572 573
f 577 571 572
f 577 574 575
f 577 573 574
f 577 569 570
f 577 576 569
f 577 570 564
f 577 564 571
o Gauntlet_32
usemtl stone
v 0.854000 -0.030000 0.961805
v 0.788487 0.134185 0.962149
v 0.641281 0.174735 0.927913
v 0.523231 0.061116 0.901059
v 0.523231 -0.121116 0.873930
v 0.641281 -0.234735 0.912474
v 0.788487 -0.194185 0.915411
v 0.970000 -0.030000 1.126417
v 0.860812 0.243641 1.126825
v 0.615469 0.311225 1.238023
v 0.418719 0.121859 1.197447
v 0.418719 -0.181859 1.148558
v 0.615469 -0.371225 1.172009
v 0.860812 -0.303641 1.235100
v 0.888800 -0.030000 1.538148
v 0.810185 0.167022 1.531895
v 0.633538 0.215682 1.479031
v 0.491878 0.079339 1.490804
v 0.491878 -0.139339 1.512293
v 0.633538 -0.275682 1.440234
v 0.810185 -0.227022 1.498125
v 0.694500 -0.030000 1.628120
f 586 587 593
f 584 585 591
f 588 587 581
f 588 595 587
f 588 581 589
f 592 593 599
f 592 591 585
f 592 585 586
f 592 586 593
f 594 595 599
f 594 599 593
f 594 587 595
f 594 593 587
f 580 581 587
f 580 587 586
f 596 599 595
f 596 597 599
f 596 588 589
f 596 595 588
f 582 589 581
f 582 581 580
f 582 580 584
f 590 584 591
f 590 589 582
f 590 596 589
f 590 597 596
f 598 599 597
f 598 592 599
f 598 591 592
f 598 590 591
f 598 597 590
f 579 580 586
f 579 584 580
f 583 582 584
f 583 584 590
f 583 590 582
f 578 585 584
f 578 584 579
f 578 586 585
f 578 579 586
o Blade_Spike_33
usemtl copper
v 0.753004 -0.118381 1.438120
v 0.700460 -0.062451 1.391098
v 0.717456 0.025929 1.391098
v 0.786996 0.058381 1.438120
v 0.839540 0.002451 1.485142
v 0.822544 -0.085929 1.485142
v 1.028867 -0.085892 1.088120
v 1.025364 -0.082163 1.084985
v 1.026497 -0.076271 1.084985
v 1.031133 -0.074108 1.088120
v 1.034636 -0.077837 1.091255
v 1.033503 -0.083729 1.091255
f 604 601 600
f 604 602 601
f 604 600 605
f 604 603 602
f 607 600 601
f 607 606 600
f 611 604 605
f 611 610 604
f 611 605 600
f 611 600 606
f 609 603 604
f 609 604 610
f 608 606 607
f 608 611 606
f 608 610 611
f 608 609 610
f 608 601 602
f 608 607 601
f 608 602 603
f 608 603 609
o Rivet_34
usemtl gold
v 0.565000 -0.196500 1.259120
v 0.565000 -0.196500 1.297120
v 0.565000 -0.183500 1.259120
v 0.565000 -0.183500 1.297120
v 0.615000 -0.196500 1.259120
v 0.615000 -0.196500 1.297120
v 0.615000 -0.183500 1.259120
v 0.615000 -0.183500 1.297120
v 0.571000 -0.202500 1.259120
v 0.571000 -0.202500 1.297120
v 0.609000 -0.202500 1.259120
v 0.609000 -0.202500 1.297120
v 0.571000 -0.177500 1.259120
v 0.571000 -0.177500 1.297120
v 0.609000 -0.177500 1.259120
v 0.609000 -0.177500 1.297120
v 0.571000 -0.196500 1.253120
v 0.571000 -0.183500 1.253120
v 0.609000 -0.196500 1.253120
v 0.609000 -0.183500 1.253120
v 0.571000 -0.196500 1.303120
v 0.571000 -0.183500 1.303120
v 0.609000 -0.196500 1.303120
v 0.609000 -0.183500 1.303120
f 619 627 635
f 620 612 628
f 633 625 615
f 618 631 626
f 629 614 624
f 621 632 613
f 622 630 616
f 623 617 634
f 614 612 613
f 614 613 615
f 625 627 626
f 625 626 624
f 625 614 615
f 625 624 614
f 633 615 613
f 633 613 632
f 633 627 625
f 633 635 627
f 618 630 631
f 618 616 630
f 618 617 616
f 618 619 617
f 618 626 627
f 618 627 619
f 629 624 626
f 629 626 631
f 629 631 630
f 629 630 628
f 629 612 614
f 629 628 612
f 634 633 632
f 634 635 633
f 634 617 619
f 634 619 635
f 621 613 612
f 621 612 620
f 622 628 630
f 622 620 628
f 623 634 632
f 623 632 621
f 623 621 620
f 623 620 622
f 623 616 617
f 623 622 616
o Rivet_35
usemtl gold
v 0.645000 -0.196500 1.209120
v 0.645000 -0.196500 1.247120
v 0.645000 -0.183500 1.209120
v 0.645000 -0.183500 1.247120
v 0.695000 -0.196500 1.209120
v 0.695000 -0.196500 1.247120
v 0.695000 -0.183500 1.209120
v 0.695000 -0.183500 1.247120
v 0.651000 -0.202500 1.209120
v 0.651000 -0.202500 1.247120
v 0.689000 -0.202500 1.209120
v 0.689000 -0.202500 1.247120
v 0.651000 -0.177500 1.209120
v 0.651000 -0.177500 1.247120
v 0.689000 -0.177500 1.209120
v 0.689000 -0.177500 1.247120
v 0.651000 -0.196500 1.203120
v 0.651000 -0.183500 1.203120
v 0.689000 -0.196500 1.203120
v 0.689000 -0.183500 1.203120
v 0.651000 -0.196500 1.253120
v 0.651000 -0.183500 1.253120
v 0.689000 -0.196500 1.253120
v 0.689000 -0.183500 1.253120
f 643 651 659
f 644 636 652
f 657 649 639
f 642 655 650
f 653 638 648
f 645 656 637
f 646 654 640
f 647 641 658
f 638 636 637
f 638 637 639
f 649 651 650
f 649 650 648
f 649 638 639
f 649 648 638
f 657 639 637
f 657 637 656
f 657 651 649
f 657 659 651
f 642 654 655
f 642 640 654
f 642 641 640
f 642 643 641
f 642 650 651
f 642 651 643
f 653 648 650
f 653 650 655
f 653 655 654
f 653 654 652
f 653 636 638
f 653 652 636
f 658 657 656
f 658 659 657
f 658 641 643
f 658 643 659
f 645 637 636
f 645 636 644
f 646 652 654
f 646 644 652
f 647 658 656
f 647 656 645
f 647 645 644
f 647 644 646
f 647 640 641
f 647 646 640
o Rivet_36
usemtl gold
v 0.725000 -0.196500 1.159120
v 0.725000 -0.196500 1.197120
v 0.725000 -0.183500 1.159120
v 0.725000 -0.183500 1.197120
v 0.775000 -0.196500 1.159120
v 0.775000 -0.196500 1.197120
v 0.775000 -0.183500 1.159120
v 0.775000 -0.183500 1.197120
v 0.731000 -0.202500 1.159120
v 0.731000 -0.202500 1.197120
v 0.769000 -0.202500 1.159120
v 0.769000 -0.202500 1.197120
v 0.731000 -0.177500 1.159120
v 0.731000 -0.177500 1.197120
v 0.769000 -0.177500 1.159120
v 0.769000 -0.177500 1.197120
v 0.731000 -0.196500 1.153120
v 0.731000 -0.183500 1.153120
v 0.769000 -0.196500 1.153120
v 0.769000 -0.183500 1.153120
v 0.731000 -0.196500 1.203120
v 0.731000 -0.183500 1.203120
v 0.769000 -0.196500 1.203120
v 0.769000 -0.183500 1.203120
f 668 660 676
f 681 673 663
f 666 679 674
f 677 662 672
f 683 667 675
f 671 665 682
f 669 680 661
f 670 678 664
f 662 660 661
f 662 661 663
f 673 675 674
f 673 674 672
f 673 662 663
f 673 672 662
f 681 663 661
f 681 661 680
f 666 678 679
f 666 664 678
f 666 674 675
f 666 675 667
f 677 672 674
f 677 674 679
f 677 679 678
f 677 678 676
f 677 660 662
f 677 676 660
f 665 664 666
f 665 666 667
f 683 665 667
f 683 682 665
f 683 675 673
f 683 673 681
f 683 681 680
f 683 680 682
f 669 661 660
f 669 660 668
f 669 682 680
f 669 671 682
f 670 671 669
f 670 669 668
f 670 676 678
f 670 668 676
f 670 664 665
f 670 665 671
o Fist_37
usemtl dark
v 0.842000 -0.120000 0.774703
v 0.792301 -0.016798 0.748800
v 0.680627 0.008690 0.776694
v 0.591072 -0.062727 0.722970
v 0.591072 -0.177273 0.754561
v 0.680627 -0.248690 0.740709
v 0.792301 -0.223202 0.766234
v 0.930000 -0.120000 0.858592
v 0.847168 0.052003 0.900418
v 0.661045 0.094484 0.880756
v 0.511787 -0.024546 0.902253
v 0.511787 -0.215454 0.876749
v 0.661045 -0.334484 0.873950
v 0.847168 -0.292003 0.895457
v 0.868400 -0.120000 1.067169
v 0.808761 0.003842 1.030303
v 0.674753 0.034429 1.066256
v 0.567287 -0.051273 1.063861
v 0.567287 -0.188727 1.018781
v 0.674753 -0.274429 1.044651
v 0.808761 -0.243842 1.050412
v 0.721000 -0.120000 1.108120
f 695 694 687
f 689 696 695
f 693 687 694
f 693 694 700
f 693 700 692
f 686 687 693
f 697 696 689
f 698 705 704
f 698 700 705
f 698 691 692
f 698 697 691
f 698 704 697
f 703 704 705
f 703 695 696
f 703 702 695
f 703 696 697
f 703 697 704
f 685 689 687
f 685 687 686
f 685 692 691
f 685 693 692
f 685 686 693
f 688 695 687
f 688 687 689
f 688 689 695
f 701 705 700
f 701 703 705
f 701 702 703
f 701 700 694
f 701 694 695
f 701 695 702
f 699 692 700
f 699 698 692
f 699 700 698
f 690 689 685
f 690 691 697
f 690 697 689
f 684 685 691
f 684 691 690
f 684 690 685
o Claw_38
usemtl copper
v 0.580102 -0.237150 0.888120
v 0.609708 -0.210594 0.863033
v 0.653538 -0.224676 0.872615
v 0.651019 -0.259935 0.903625
v 0.605633 -0.267645 0.913207
v 0.605013 -0.379644 0.728120
v 0.608714 -0.376324 0.724984
v 0.614192 -0.378084 0.726182
v 0.613877 -0.382492 0.730058
v 0.608204 -0.383456 0.731256
f 707 706 710
f 707 709 708
f 707 710 709
f 714 709 710
f 714 710 715
f 711 710 706
f 711 715 710
f 712 706 707
f 712 711 706
f 713 714 715
f 713 715 711
f 713 711 712
f 713 708 709
f 713 709 714
f 713 707 708
f 713 712 707
o Claw_39
usemtl copper
v 0.670000 -0.240000 0.888120
v 0.697639 -0.211370 0.863069
v 0.742361 -0.222306 0.872637
v 0.742361 -0.257694 0.903602
v 0.697639 -0.268630 0.913171
v 0.705000 -0.380000 0.728120
v 0.708455 -0.376421 0.724988
v 0.714045 -0.377788 0.726185
v 0.714045 -0.382212 0.730055
v 0.708455 -0.383579 0.731251
f 717 716 720
f 717 719 718
f 717 720 719
f 724 719 720
f 724 720 725
f 721 720 716
f 721 725 720
f 722 716 717
f 722 721 716
f 723 724 725
f 723 725 721
f 723 721 722
f 723 718 719
f 723 719 724
f 723 717 718
f 723 722 717
o Claw_40
usemtl copper
v 0.760102 -0.242850 0.888120
v 0.785633 -0.212355 0.863033
v 0.831019 -0.220065 0.872615
v 0.833538 -0.255324 0.903625
v 0.789708 -0.269406 0.913207
v 0.805013 -0.380356 0.728120
v 0.808204 -0.376544 0.724984
v 0.813877 -0.377508 0.726182
v 0.814192 -0.381916 0.730058
v 0.808714 -0.383676 0.731256
f 731 730 726
f 731 735 730
f 728 726 730
f 728 727 726
f 728 730 729
f 734 729 730
f 734 730 735
f 733 728 729
f 733 729 734
f 732 735 731
f 732 734 735
f 732 733 734
f 732 726 727
f 732 731 726
f 732 727 728
f 732 728 733
o Thigh_41
usemtl dark
v 0.379967 0.000000 0.981244
v 0.323503 -0.117275 0.980068
v 0.196629 -0.146239 0.977425
v 0.094884 -0.065083 0.975305
v 0.094884 0.065083 0.975305
v 0.196629 0.146239 0.977425
v 0.323503 0.117275 0.980068
v 0.359974 0.000000 0.500619
v 0.314803 -0.093820 0.499678
v 0.213303 -0.116991 0.497564
v 0.131907 -0.052066 0.495868
v 0.131907 0.052066 0.495868
v 0.213303 0.116991 0.497564
v 0.314803 0.093820 0.499678
f 738 740 739
f 738 736 742
f 738 737 736
f 738 741 740
f 738 742 741
f 748 741 742
f 748 742 749
f 743 742 736
f 743 749 742
f 743 736 737
f 743 737 744
f 745 738 739
f 745 739 746
f 745 737 738
f 745 744 737
f 747 748 749
f 747 749 743
f 747 745 746
f 747 743 744
f 747 744 745
f 747 739 740
f 747 746 739
f 747 740 741
f 747 741 748
o Knee_42
usemtl copper
v 0.120000 -0.290000 0.423120
v 0.120000 -0.290000 0.553120
v 0.120000 -0.210000 0.423120
v 0.120000 -0.210000 0.553120
v 0.360000 -0.290000 0.423120
v 0.360000 -0.290000 0.553120
v 0.360000 -0.210000 0.423120
v 0.360000 -0.210000 0.553120
v 0.140000 -0.310000 0.423120
v 0.140000 -0.310000 0.553120
v 0.340000 -0.310000 0.423120
v 0.340000 -0.310000 0.553120
v 0.140000 -0.190000 0.423120
v 0.140000 -0.190000 0.553120
v 0.340000 -0.190000 0.423120
v 0.340000 -0.190000 0.553120
v 0.140000 -0.290000 0.403120
v 0.140000 -0.210000 0.403120
v 0.340000 -0.290000 0.403120
v 0.340000 -0.210000 0.403120
v 0.140000 -0.290000 0.573120
v 0.140000 -0.210000 0.573120
v 0.340000 -0.290000 0.573120
v 0.340000 -0.210000 0.573120
f 758 750 766
f 771 763 753
f 756 769 764
f 767 752 762
f 773 757 765
f 761 755 772
f 759 770 751
f 760 768 754
f 752 750 751
f 752 751 753
f 763 765 764
f 763 764 762
f 763 752 753
f 763 762 752
f 771 753 751
f 771 751 770
f 756 768 769
f 756 754 768
f 756 764 765
f 756 765 757
f 767 762 764
f 767 764 769
f 767 769 768
f 767 768 766
f 767 750 752
f 767 766 750
f 755 754 756
f 755 756 757
f 773 755 757
f 773 772 755
f 773 765 763
f 773 763 771
f 773 771 770
f 773 770 772
f 759 751 750
f 759 750 758
f 759 772 770
f 759 761 772
f 760 754 755
f 760 755 761
f 760 766 768
f 760 758 766
f 760 759 758
f 760 761 759
o Shin_43
usemtl edge
v 0.349896 0.000000 0.442898
v 0.308519 -0.086001 0.441099
v 0.215546 -0.107242 0.437057
v 0.140987 -0.047727 0.433815
v 0.140987 0.047727 0.433815
v 0.215546 0.107242 0.437057
v 0.308519 0.086001 0.441099
v 0.324929 0.000000 0.211378
v 0.296718 -0.058637 0.210151
v 0.233327 -0.073120 0.207395
v 0.182491 -0.032541 0.205185
v 0.182491 0.032541 0.205185
v 0.233327 0.073120 0.207395
v 0.296718 0.058637 0.210151
f 786 779 780
f 786 780 787
f 775 778 777
f 775 777 776
f 775 774 780
f 775 779 778
f 775 780 779
f 781 780 774
f 781 787 780
f 781 774 775
f 781 775 782
f 783 776 777
f 783 777 784
f 783 775 776
f 783 782 775
f 785 783 784
f 785 787 781
f 785 786 787
f 785 781 782
f 785 782 783
f 785 777 778
f 785 784 777
f 785 778 779
f 785 779 786
o Boot_44
usemtl stone
v 0.412000 -0.100000 0.041387
v 0.351005 0.097022 0.020664
v 0.213952 0.145682 0.042980
v 0.104043 0.009339 0.000000
v 0.104043 -0.209339 0.025273
v 0.213952 -0.345682 0.014191
v 0.351005 -0.297022 0.034611
v 0.520000 -0.100000 0.108497
v 0.418342 0.228369 0.141958
v 0.189919 0.309470 0.126229
v 0.006738 0.082231 0.143426
v 0.006738 -0.282231 0.123023
v 0.189919 -0.509470 0.120784
v 0.418342 -0.428369 0.137989
v 0.444400 -0.100000 0.275359
v 0.371206 0.136426 0.245867
v 0.206742 0.194818 0.274629
v 0.074852 0.031206 0.272713
v 0.074852 -0.231206 0.236649
v 0.206742 -0.394818 0.257345
v 0.371206 -0.336426 0.261953
v 0.263500 -0.100000 0.308120
f 807 809 805
f 802 801 795
f 800 807 799
f 800 801 807
f 798 797 791
f 798 791 799
f 798 799 805
f 804 805 809
f 804 809 802
f 804 802 803
f 804 797 798
f 804 798 805
f 806 805 799
f 806 799 807
f 806 807 805
f 808 807 801
f 808 801 802
f 808 809 807
f 808 802 809
f 790 791 797
f 790 797 789
f 790 789 791
f 796 789 797
f 796 797 804
f 796 804 803
f 796 795 789
f 796 802 795
f 796 803 802
f 788 789 795
f 793 791 789
f 793 800 799
f 793 801 800
f 794 789 788
f 794 793 789
f 794 801 793
f 794 795 801
f 794 788 795
f 792 799 791
f 792 793 799
f 792 791 793
o Toe_Claw_45
usemtl copper
v 0.158076 -0.288173 0.128120
v 0.173891 -0.281439 0.108796
v 0.198149 -0.286536 0.116177
v 0.197325 -0.296420 0.140063
v 0.172559 -0.297431 0.147443
v 0.165017 -0.409585 0.078120
v 0.168612 -0.408054 0.073728
v 0.174125 -0.409213 0.075406
v 0.173938 -0.411459 0.080834
v 0.168309 -0.411689 0.082512
f 811 810 814
f 811 813 812
f 811 814 813
f 818 813 814
f 818 814 819
f 815 814 810
f 815 819 814
f 815 810 811
f 815 811 816
f 817 818 819
f 817 815 816
f 817 819 815
f 817 812 813
f 817 813 818
f 817 811 812
f 817 816 811
o Toe_Claw_46
usemtl copper
v 0.298076 -0.291827 0.128120
v 0.312559 -0.282569 0.108796
v 0.337325 -0.283580 0.116177
v 0.338149 -0.293464 0.140063
v 0.313891 -0.298561 0.147443
v 0.325017 -0.410415 0.078120
v 0.328309 -0.408311 0.073728
v 0.333938 -0.408541 0.075406
v 0.334125 -0.410787 0.080834
v 0.328612 -0.411946 0.082512
f 825 824 820
f 825 829 824
f 825 820 821
f 825 821 826
f 822 820 824
f 822 821 820
f 822 824 823
f 828 823 824
f 828 824 829
f 827 829 825
f 827 825 826
f 827 828 829
f 827 826 821
f 827 821 822
f 827 822 823
f 827 823 828