# RIFTBOUND | Z up | flat shaded
mtllib Smelting_Furnace.mtl
o Foundation_0
usemtl dark
v -0.925000 -0.775000 0.000000
v -0.925000 -0.775000 0.280000
v -0.925000 0.775000 0.000000
v -0.925000 0.775000 0.280000
v 0.925000 -0.775000 0.000000
v 0.925000 -0.775000 0.280000
v 0.925000 0.775000 0.000000
v 0.925000 0.775000 0.280000
f 7 1 3
f 7 5 1
f 6 1 5
f 6 2 1
f 6 5 7
f 6 7 8
f 4 3 1
f 4 1 2
f 4 7 3
f 4 8 7
f 4 2 6
f 4 6 8
o StoneWall_1
usemtl stone
v -0.890000 -0.640000 0.240000
v -0.890000 -0.640000 0.700000
v -0.890000 0.640000 0.240000
v -0.890000 0.640000 0.700000
v -0.470000 -0.640000 0.240000
v -0.470000 -0.640000 0.700000
v -0.470000 0.640000 0.240000
v -0.470000 0.640000 0.700000
f 15 9 11
f 15 13 9
f 14 9 13
f 14 10 9
f 14 13 15
f 14 15 16
f 12 11 9
f 12 9 10
f 12 15 11
f 12 16 15
f 12 10 14
f 12 14 16
o StoneWall_2
usemtl stone
v 0.470000 -0.640000 0.240000
v 0.470000 -0.640000 0.700000
v 0.470000 0.640000 0.240000
v 0.470000 0.640000 0.700000
v 0.890000 -0.640000 0.240000
v 0.890000 -0.640000 0.700000
v 0.890000 0.640000 0.240000
v 0.890000 0.640000 0.700000
f 23 17 19
f 23 21 17
f 22 17 21
f 22 18 17
f 22 21 23
f 22 23 24
f 20 19 17
f 20 17 18
f 20 23 19
f 20 24 23
f 20 18 22
f 20 22 24
o BackWall_3
usemtl stone
v -0.575000 0.350000 0.240000
v -0.575000 0.350000 0.700000
v -0.575000 0.630000 0.240000
v -0.575000 0.630000 0.700000
v 0.575000 0.350000 0.240000
v 0.575000 0.350000 0.700000
v 0.575000 0.630000 0.240000
v 0.575000 0.630000 0.700000
f 31 25 27
f 31 29 25
f 30 25 29
f 30 26 25
f 30 29 31
f 30 31 32
f 28 27 25
f 28 25 26
f 28 31 27
f 28 32 31
f 28 26 30
f 28 30 32
o StoneWall_4
usemtl stone
v -0.890000 -0.640000 0.740000
v -0.890000 -0.640000 1.200000
v -0.890000 0.640000 0.740000
v -0.890000 0.640000 1.200000
v -0.470000 -0.640000 0.740000
v -0.470000 -0.640000 1.200000
v -0.470000 0.640000 0.740000
v -0.470000 0.640000 1.200000
f 39 33 35
f 39 37 33
f 38 33 37
f 38 34 33
f 38 37 39
f 38 39 40
f 36 35 33
f 36 33 34
f 36 39 35
f 36 40 39
f 36 34 38
f 36 38 40
o StoneWall_5
usemtl stone
v 0.470000 -0.640000 0.740000
v 0.470000 -0.640000 1.200000
v 0.470000 0.640000 0.740000
v 0.470000 0.640000 1.200000
v 0.890000 -0.640000 0.740000
v 0.890000 -0.640000 1.200000
v 0.890000 0.640000 0.740000
v 0.890000 0.640000 1.200000
f 47 41 43
f 47 45 41
f 46 41 45
f 46 42 41
f 46 45 47
f 46 47 48
f 44 43 41
f 44 41 42
f 44 47 43
f 44 48 47
f 44 42 46
f 44 46 48
o BackWall_6
usemtl stone
v -0.575000 0.350000 0.740000
v -0.575000 0.350000 1.200000
v -0.575000 0.630000 0.740000
v -0.575000 0.630000 1.200000
v 0.575000 0.350000 0.740000
v 0.575000 0.350000 1.200000
v 0.575000 0.630000 0.740000
v 0.575000 0.630000 1.200000
f 55 49 51
f 55 53 49
f 54 49 53
f 54 50 49
f 54 53 55
f 54 55 56
f 52 51 49
f 52 49 50
f 52 55 51
f 52 56 55
f 52 50 54
f 52 54 56
o StoneWall_7
usemtl stone
v -0.890000 -0.640000 1.240000
v -0.890000 -0.640000 1.700000
v -0.890000 0.640000 1.240000
v -0.890000 0.640000 1.700000
v -0.470000 -0.640000 1.240000
v -0.470000 -0.640000 1.700000
v -0.470000 0.640000 1.240000
v -0.470000 0.640000 1.700000
f 63 57 59
f 63 61 57
f 62 57 61
f 62 58 57
f 62 61 63
f 62 63 64
f 60 59 57
f 60 57 58
f 60 63 59
f 60 64 63
f 60 58 62
f 60 62 64
o StoneWall_8
usemtl stone
v 0.470000 -0.640000 1.240000
v 0.470000 -0.640000 1.700000
v 0.470000 0.640000 1.240000
v 0.470000 0.640000 1.700000
v 0.890000 -0.640000 1.240000
v 0.890000 -0.640000 1.700000
v 0.890000 0.640000 1.240000
v 0.890000 0.640000 1.700000
f 71 65 67
f 71 69 65
f 70 65 69
f 70 66 65
f 70 69 71
f 70 71 72
f 68 67 65
f 68 65 66
f 68 71 67
f 68 72 71
f 68 66 70
f 68 70 72
o BackWall_9
usemtl stone
v -0.575000 0.350000 1.240000
v -0.575000 0.350000 1.700000
v -0.575000 0.630000 1.240000
v -0.575000 0.630000 1.700000
v 0.575000 0.350000 1.240000
v 0.575000 0.350000 1.700000
v 0.575000 0.630000 1.240000
v 0.575000 0.630000 1.700000
f 79 73 75
f 79 77 73
f 78 73 77
f 78 74 73
f 78 77 79
f 78 79 80
f 76 75 73
f 76 73 74
f 76 79 75
f 76 80 79
f 76 74 78
f 76 78 80
o Roof_10
usemtl edge
v -0.840000 -0.710000 1.670000
v -0.840000 -0.710000 1.890000
v -0.840000 0.710000 1.670000
v -0.840000 0.710000 1.890000
v 0.840000 -0.710000 1.670000
v 0.840000 -0.710000 1.890000
v 0.840000 0.710000 1.670000
v 0.840000 0.710000 1.890000
f 87 81 83
f 87 85 81
f 86 81 85
f 86 82 81
f 86 85 87
f 86 87 88
f 84 83 81
f 84 81 82
f 84 87 83
f 84 88 87
f 84 82 86
f 84 86 88
o Chimney_11
usemtl stone
v -0.290000 -0.045000 1.880000
v -0.290000 -0.045000 2.500000
v -0.290000 0.545000 1.880000
v -0.290000 0.545000 2.500000
v 0.290000 -0.045000 1.880000
v 0.290000 -0.045000 2.500000
v 0.290000 0.545000 1.880000
v 0.290000 0.545000 2.500000
f 95 89 91
f 95 93 89
f 94 89 93
f 94 90 89
f 94 93 95
f 94 95 96
f 92 91 89
f 92 89 90
f 92 95 91
f 92 96 95
f 92 90 94
f 92 94 96
o ChimneyCap_12
usemtl dark
v -0.370000 -0.115000 2.470000
v -0.370000 -0.115000 2.590000
v -0.370000 0.615000 2.470000
v -0.370000 0.615000 2.590000
v 0.370000 -0.115000 2.470000
v 0.370000 -0.115000 2.590000
v 0.370000 0.615000 2.470000
v 0.370000 0.615000 2.590000
f 103 97 99
f 103 101 97
f 102 97 101
f 102 98 97
f 102 101 103
f 102 103 104
f 100 99 97
f 100 97 98
f 100 103 99
f 100 104 103
f 100 98 102
f 100 102 104
o Hearth_13
usemtl fire
v -0.535000 -0.550000 0.290000
v -0.535000 -0.550000 0.390000
v -0.535000 0.550000 0.290000
v -0.535000 0.550000 0.390000
v 0.535000 -0.550000 0.290000
v 0.535000 -0.550000 0.390000
v 0.535000 0.550000 0.290000
v 0.535000 0.550000 0.390000
f 111 105 107
f 111 109 105
f 110 105 109
f 110 106 105
f 110 109 111
f 110 111 112
f 108 107 105
f 108 105 106
f 108 111 107
f 108 112 111
f 108 106 110
f 108 110 112
o Lintel_14
usemtl dark
v -0.550000 -0.665000 1.170000
v -0.550000 -0.665000 1.490000
v -0.550000 -0.455000 1.170000
v -0.550000 -0.455000 1.490000
v 0.550000 -0.665000 1.170000
v 0.550000 -0.665000 1.490000
v 0.550000 -0.455000 1.170000
v 0.550000 -0.455000 1.490000
f 119 113 115
f 119 117 113
f 118 113 117
f 118 114 113
f 118 117 119
f 118 119 120
f 116 115 113
f 116 113 114
f 116 119 115
f 116 120 119
f 116 114 118
f 116 118 120
o Flame_15
usemtl fire
v -0.265500 -0.130000 0.400000
v -0.307750 -0.056821 0.400000
v -0.392250 -0.056821 0.400000
v -0.434500 -0.130000 0.400000
v -0.392250 -0.203179 0.400000
v -0.307750 -0.203179 0.400000
v -0.220000 -0.130000 0.744500
v -0.285000 -0.017417 0.744500
v -0.415000 -0.017417 0.744500
v -0.480000 -0.130000 0.744500
v -0.415000 -0.242583 0.744500
v -0.285000 -0.242583 0.744500
v -0.350000 -0.130000 0.930000
f 133 130 131
f 132 127 133
f 132 133 131
f 128 133 127
f 129 130 133
f 129 133 128
f 126 127 132
f 126 121 127
f 122 127 121
f 122 128 127
f 125 130 124
f 125 131 130
f 125 126 132
f 125 132 131
f 123 121 126
f 123 122 121
f 123 125 124
f 123 126 125
f 123 124 130
f 123 130 129
f 123 128 122
f 123 129 128
o Flame_16
usemtl fire
v 0.084500 -0.130000 0.400000
v 0.042250 -0.056821 0.400000
v -0.042250 -0.056821 0.400000
v -0.084500 -0.130000 0.400000
v -0.042250 -0.203179 0.400000
v 0.042250 -0.203179 0.400000
v 0.130000 -0.130000 0.744500
v 0.065000 -0.017417 0.744500
v -0.065000 -0.017417 0.744500
v -0.130000 -0.130000 0.744500
v -0.065000 -0.242583 0.744500
v 0.065000 -0.242583 0.744500
v 0.000000 -0.130000 0.930000
f 146 143 144
f 145 140 146
f 145 146 144
f 142 143 146
f 141 146 140
f 141 142 146
f 139 140 145
f 139 134 140
f 138 143 137
f 138 144 143
f 138 139 145
f 138 145 144
f 136 137 143
f 136 143 142
f 135 134 139
f 135 138 137
f 135 139 138
f 135 137 136
f 135 140 134
f 135 141 140
f 135 136 142
f 135 142 141
o Flame_17
usemtl fire
v 0.434500 -0.130000 0.400000
v 0.392250 -0.056821 0.400000
v 0.307750 -0.056821 0.400000
v 0.265500 -0.130000 0.400000
v 0.307750 -0.203179 0.400000
v 0.392250 -0.203179 0.400000
v 0.480000 -0.130000 0.744500
v 0.415000 -0.017417 0.744500
v 0.285000 -0.017417 0.744500
v 0.220000 -0.130000 0.744500
v 0.285000 -0.242583 0.744500
v 0.415000 -0.242583 0.744500
v 0.350000 -0.130000 0.930000
f 159 156 157
f 158 153 159
f 158 159 157
f 154 159 153
f 155 156 159
f 155 159 154
f 152 153 158
f 152 147 153
f 148 153 147
f 148 154 153
f 151 156 150
f 151 157 156
f 151 152 158
f 151 158 157
f 149 147 152
f 149 148 147
f 149 151 150
f 149 152 151
f 149 150 156
f 149 156 155
f 149 154 148
f 149 155 154
o Grate_18
usemtl dark
v -0.465000 -0.660000 0.390000
v -0.457678 -0.677678 0.390000
v -0.440000 -0.685000 0.390000
v -0.422322 -0.677678 0.390000
v -0.415000 -0.660000 0.390000
v -0.422322 -0.642322 0.390000
v -0.440000 -0.635000 0.390000
v -0.457678 -0.642322 0.390000
v -0.465000 -0.660000 1.130000
v -0.457678 -0.677678 1.130000
v -0.440000 -0.685000 1.130000
v -0.422322 -0.677678 1.130000
v -0.415000 -0.660000 1.130000
v -0.422322 -0.642322 1.130000
v -0.440000 -0.635000 1.130000
v -0.457678 -0.642322 1.130000
f 170 162 163
f 170 163 171
f 165 161 160
f 165 164 163
f 165 160 167
f 165 162 161
f 165 163 162
f 165 167 166
f 172 163 164
f 172 171 163
f 172 164 165
f 172 165 173
f 175 167 160
f 175 160 168
f 169 160 161
f 169 168 160
f 169 161 162
f 169 162 170
f 174 171 172
f 174 170 171
f 174 175 168
f 174 172 173
f 174 168 169
f 174 169 170
f 174 173 165
f 174 165 166
f 174 166 167
f 174 167 175
o Grate_19
usemtl dark
v -0.245000 -0.660000 0.390000
v -0.237678 -0.677678 0.390000
v -0.220000 -0.685000 0.390000
v -0.202322 -0.677678 0.390000
v -0.195000 -0.660000 0.390000
v -0.202322 -0.642322 0.390000
v -0.220000 -0.635000 0.390000
v -0.237678 -0.642322 0.390000
v -0.245000 -0.660000 1.130000
v -0.237678 -0.677678 1.130000
v -0.220000 -0.685000 1.130000
v -0.202322 -0.677678 1.130000
v -0.195000 -0.660000 1.130000
v -0.202322 -0.642322 1.130000
v -0.220000 -0.635000 1.130000
v -0.237678 -0.642322 1.130000
f 186 178 179
f 186 179 187
f 181 177 176
f 181 180 179
f 181 176 183
f 181 178 177
f 181 179 178
f 181 183 182
f 188 179 180
f 188 187 179
f 188 180 181
f 188 181 189
f 191 183 176
f 191 176 184
f 185 176 177
f 185 184 176
f 185 177 178
f 185 178 186
f 190 187 188
f 190 186 187
f 190 191 184
f 190 188 189
f 190 184 185
f 190 185 186
f 190 189 181
f 190 181 182
f 190 182 183
f 190 183 191
o Grate_20
usemtl dark
v -0.025000 -0.660000 0.390000
v -0.017678 -0.677678 0.390000
v -0.000000 -0.685000 0.390000
v 0.017678 -0.677678 0.390000
v 0.025000 -0.660000 0.390000
v 0.017678 -0.642322 0.390000
v 0.000000 -0.635000 0.390000
v -0.017678 -0.642322 0.390000
v -0.025000 -0.660000 1.130000
v -0.017678 -0.677678 1.130000
v -0.000000 -0.685000 1.130000
v 0.017678 -0.677678 1.130000
v 0.025000 -0.660000 1.130000
v 0.017678 -0.642322 1.130000
v 0.000000 -0.635000 1.130000
v -0.017678 -0.642322 1.130000
f 202 194 195
f 202 195 203
f 197 193 192
f 197 196 195
f 197 192 199
f 197 194 193
f 197 195 194
f 197 199 198
f 204 195 196
f 204 203 195
f 204 196 197
f 204 197 205
f 207 199 192
f 207 192 200
f 201 192 193
f 201 200 192
f 201 193 194
f 201 194 202
f 206 203 204
f 206 202 203
f 206 207 200
f 206 204 205
f 206 200 201
f 206 201 202
f 206 205 197
f 206 197 198
f 206 198 199
f 206 199 207
o Grate_21
usemtl dark
v 0.195000 -0.660000 0.390000
v 0.202322 -0.677678 0.390000
v 0.220000 -0.685000 0.390000
v 0.237678 -0.677678 0.390000
v 0.245000 -0.660000 0.390000
v 0.237678 -0.642322 0.390000
v 0.220000 -0.635000 0.390000
v 0.202322 -0.642322 0.390000
v 0.195000 -0.660000 1.130000
v 0.202322 -0.677678 1.130000
v 0.220000 -0.685000 1.130000
v 0.237678 -0.677678 1.130000
v 0.245000 -0.660000 1.130000
v 0.237678 -0.642322 1.130000
v 0.220000 -0.635000 1.130000
v 0.202322 -0.642322 1.130000
f 218 210 211
f 218 211 219
f 213 209 208
f 213 212 211
f 213 208 215
f 213 210 209
f 213 211 210
f 213 215 214
f 220 211 212
f 220 219 211
f 220 212 213
f 220 213 221
f 223 215 208
f 223 208 216
f 217 208 209
f 217 216 208
f 217 209 210
f 217 210 218
f 222 219 220
f 222 218 219
f 222 223 216
f 222 220 221
f 222 216 217
f 222 217 218
f 222 221 213
f 222 213 214
f 222 214 215
f 222 215 223
o Grate_22
usemtl dark
v 0.415000 -0.660000 0.390000
v 0.422322 -0.677678 0.390000
v 0.440000 -0.685000 0.390000
v 0.457678 -0.677678 0.390000
v 0.465000 -0.660000 0.390000
v 0.457678 -0.642322 0.390000
v 0.440000 -0.635000 0.390000
v 0.422322 -0.642322 0.390000
v 0.415000 -0.660000 1.130000
v 0.422322 -0.677678 1.130000
v 0.440000 -0.685000 1.130000
v 0.457678 -0.677678 1.130000
v 0.465000 -0.660000 1.130000
v 0.457678 -0.642322 1.130000
v 0.440000 -0.635000 1.130000
v 0.422322 -0.642322 1.130000
f 234 226 227
f 234 227 235
f 229 225 224
f 229 228 227
f 229 224 231
f 229 226 225
f 229 227 226
f 229 231 230
f 236 227 228
f 236 235 227
f 236 228 229
f 236 229 237
f 239 231 224
f 239 224 232
f 233 224 225
f 233 232 224
f 233 225 226
f 233 226 234
f 238 235 236
f 238 234 235
f 238 239 232
f 238 236 237
f 238 232 233
f 238 233 234
f 238 237 229
f 238 229 230
f 238 230 231
f 238 231 239