{"asset":{"version":"2.0","generator":"RIFTBOUND procedural asset builder"},"scene":0,"scenes":[{"nodes":[0,1,2,3,4,5,6,7,8,9,10,11,12,13,14,15,16,17,18,19,20,21,22]}],"nodes":[{"name":"Foundation_0","mesh":0,"translation":[-2.7755575615628914e-17,0.14,-0.0]},{"name":"StoneWall_1","mesh":1,"translation":[-0.6799999999999999,0.46999999999999986,-0.0]},{"name":"StoneWall_2","mesh":2,"translation":[0.68,0.46999999999999986,-0.0]},{"name":"BackWall_3","mesh":3,"translation":[0.0,0.46999999999999986,-0.49]},{"name":"StoneWall_4","mesh":4,"translation":[-0.6799999999999999,0.9700000000000001,-0.0]},{"name":"StoneWall_5","mesh":5,"translation":[0.68,0.9700000000000001,-0.0]},{"name":"BackWall_6","mesh":6,"translation":[0.0,0.9700000000000001,-0.49]},{"name":"StoneWall_7","mesh":7,"translation":[-0.6799999999999999,1.47,-0.0]},{"name":"StoneWall_8","mesh":8,"translation":[0.68,1.47,-0.0]},{"name":"BackWall_9","mesh":9,"translation":[0.0,1.47,-0.49]},{"name":"Roof_10","mesh":10,"translation":[-2.7755575615628914e-17,1.7800000000000002,-0.0]},{"name":"Chimney_11","mesh":11,"translation":[1.3877787807814457e-17,2.19,-0.24999999999999997]},{"name":"ChimneyCap_12","mesh":12,"translation":[1.3877787807814457e-17,2.53,-0.25]},{"name":"Hearth_13","mesh":13,"translation":[2.7755575615628914e-17,0.34,-0.0]},{"name":"Lintel_14","mesh":14,"translation":[0.0,1.33,0.56]},{"name":"Flame_15","mesh":15,"translation":[-0.3499999999999999,0.5997692307692308,0.13]},{"name":"Flame_16","mesh":16,"translation":[-1.0675221390626506e-18,0.5997692307692308,0.13]},{"name":"Flame_17","mesh":17,"translation":[0.35,0.5997692307692308,0.13]},{"name":"Grate_18","mesh":18,"translation":[-0.44,0.7599999999999998,0.6599999999999999]},{"name":"Grate_19","mesh":19,"translation":[-0.22000000000000003,0.7599999999999998,0.6599999999999999]},{"name":"Grate_20","mesh":20,"translation":[1.0842021724855044e-18,0.7599999999999998,0.6599999999999999]},{"name":"Grate_21","mesh":21,"translation":[0.22000000000000003,0.7599999999999998,0.6599999999999999]},{"name":"Grate_22","mesh":22,"translation":[0.44000000000000006,0.7599999999999998,0.6599999999999999]}],"meshes":[{"name":"Foundation_0","primitives":[{"attributes":{"POSITION":0,"NORMAL":1},"material":2}]},{"name":"StoneWall_1","primitives":[{"attributes":{"POSITION":2,"NORMAL":3},"material":0}]},{"name":"StoneWall_2","primitives":[{"attributes":{"POSITION":4,"NORMAL":5},"material":0}]},{"name":"BackWall_3","primitives":[{"attributes":{"POSITION":6,"NORMAL":7},"material":0}]},{"name":"StoneWall_4","primitives":[{"attributes":{"POSITION":8,"NORMAL":9},"material":0}]},{"name":"StoneWall_5","primitives":[{"attributes":{"POSITION":10,"NORMAL":11},"material":0}]},{"name":"BackWall_6","primitives":[{"attributes":{"POSITION":12,"NORMAL":13},"material":0}]},{"name":"StoneWall_7","primitives":[{"attributes":{"POSITION":14,"NORMAL":15},"material":0}]},{"name":"StoneWall_8","primitives":[{"attributes":{"POSITION":16,"NORMAL":17},"material":0}]},{"name":"BackWall_9","primitives":[{"attributes":{"POSITION":18,"NORMAL":19},"material":0}]},{"name":"Roof_10","primitives":[{"attributes":{"POSITION":20,"NORMAL":21},"material":1}]},{"name":"Chimney_11","primitives":[{"attributes":{"POSITION":22,"NORMAL":23},"material":0}]},{"name":"ChimneyCap_12","primitives":[{"attributes":{"POSITION":24,"NORMAL":25},"material":2}]},{"name":"Hearth_13","primitives":[{"attributes":{"POSITION":26,"NORMAL":27},"material":13}]},{"name":"Lintel_14","primitives":[{"attributes":{"POSITION":28,"NORMAL":29},"material":2}]},{"name":"Flame_15","primitives":[{"attributes":{"POSITION":30,"NORMAL":31},"material":13}]},{"name":"Flame_16","primitives":[{"attributes":{"POSITION":32,"NORMAL":33},"material":13}]},{"name":"Flame_17","primitives":[{"attributes":{"POSITION":34,"NORMAL":35},"material":13}]},{"name":"Grate_18","primitives":[{"attributes":{"POSITION":36,"NORMAL":37},"material":2}]},{"name":"Grate_19","primitives":[{"attributes":{"POSITION":38,"NORMAL":39},"material":2}]},{"name":"Grate_20","primitives":[{"attributes":{"POSITION":40,"NORMAL":41},"material":2}]},{"name":"Grate_21","primitives":[{"attributes":{"POSITION":42,"NORMAL":43},"material":2}]},{"name":"Grate_22","primitives":[{"attributes":{"POSITION":44,"NORMAL":45},"material":2}]}],"materials":[{"name":"stone","pbrMetallicRoughness":{"baseColorFactor":[0.05284162552287903,0.08464151072542946,0.11657577617857154,1],"metallicFactor":0,"roughnessFactor":0.8}},{"name":"edge","pbrMetallicRoughness":{"baseColorFactor":[0.18014428915439032,0.27583283346124515,0.31118049905798434,1],"metallicFactor":0,"roughnessFactor":0.8}},{"name":"dark","pbrMetallicRoughness":{"baseColorFactor":[0.009021491898012131,0.016988052089250045,0.03155139140022645,1],"metallicFactor":0,"roughnessFactor":0.8}},{"name":"wood","pbrMetallicRoughness":{"baseColorFactor":[0.1390224537347025,0.04943345755590796,0.02201299491933654,1],"metallicFactor":0,"roughnessFactor":0.8}},{"name":"woodlight","pbrMetallicRoughness":{"baseColorFactor":[0.36859092219748707,0.14497212559723088,0.042987010162657116,1],"metallicFactor":0,"roughnessFactor":0.8}},{"name":"copper","pbrMetallicRoughness":{"baseColorFactor":[0.6730490732809419,0.20835965596076741,0.05637409755197975,1],"metallicFactor":0.35,"roughnessFactor":0.8}},{"name":"gold","pbrMetallicRoughness":{"baseColorFactor":[0.9489649381781952,0.5174013674966733,0.12752977781342206,1],"metallicFactor":0.35,"roughnessFactor":0.8}},{"name":"rift","pbrMetallicRoughness":{"baseColorFactor":[0.051122050056493396,0.7969165429079781,0.5859729839496614,1],"metallicFactor":0,"roughnessFactor":0.8},"emissiveFactor":[0.017892717519772686,0.2789207900177923,0.20509054438238147]},{"name":"ice","pbrMetallicRoughness":{"baseColorFactor":[0.4704402453042184,1.0,0.8355277914608409,1],"metallicFactor":0,"roughnessFactor":0.8},"emissiveFactor":[0.16465408585647642,0.35,0.2924347270112943]},{"name":"moss","pbrMetallicRoughness":{"baseColorFactor":[0.05459227728176034,0.14799802298268516,0.06381487094867724,1],"metallicFactor":0,"roughnessFactor":0.8}},{"name":"bark","pbrMetallicRoughness":{"baseColorFactor":[0.06575388026033009,0.03423020656508195,0.020951131914781092,1],"metallicFactor":0,"roughnessFactor":0.8}},{"name":"cloth","pbrMetallicRoughness":{"baseColorFactor":[0.03994717100152558,0.10114516420959989,0.10363409665513738,1],"metallicFactor":0,"roughnessFactor":0.8}},{"name":"leather","pbrMetallicRoughness":{"baseColorFactor":[0.05818717747368544,0.020951131914781092,0.015175238159625197,1],"metallicFactor":0,"roughnessFactor":0.8}},{"name":"fire","pbrMetallicRoughness":{"baseColorFactor":[1.0,0.3157627437363971,0.04943345755590796,1],"metallicFactor":0,"roughnessFactor":0.8},"emissiveFactor":[0.35,0.11051696030773898,0.017301710144567783]}],"bufferViews":[{"buffer":0,"byteOffset":0,"byteLength":432},{"buffer":0,"byteOffset":432,"byteLength":432},{"buffer":0,"byteOffset":864,"byteLength":432},{"buffer":0,"byteOffset":1296,"byteLength":432},{"buffer":0,"byteOffset":1728,"byteLength":432},{"buffer":0,"byteOffset":2160,"byteLength":432},{"buffer":0,"byteOffset":2592,"byteLength":432},{"buffer":0,"byteOffset":3024,"byteLength":432},{"buffer":0,"byteOffset":3456,"byteLength":432},{"buffer":0,"byteOffset":3888,"byteLength":432},{"buffer":0,"byteOffset":4320,"byteLength":432},{"buffer":0,"byteOffset":4752,"byteLength":432},{"buffer":0,"byteOffset":5184,"byteLength":432},{"buffer":0,"byteOffset":5616,"byteLength":432},{"buffer":0,"byteOffset":6048,"byteLength":432},{"buffer":0,"byteOffset":6480,"byteLength":432},{"buffer":0,"byteOffset":6912,"byteLength":432},{"buffer":0,"byteOffset":7344,"byteLength":432},{"buffer":0,"byteOffset":7776,"byteLength":432},{"buffer":0,"byteOffset":8208,"byteLength":432},{"buffer":0,"byteOffset":8640,"byteLength":432},{"buffer":0,"byteOffset":9072,"byteLength":432},{"buffer":0,"byteOffset":9504,"byteLength":432},{"buffer":0,"byteOffset":9936,"byteLength":432},{"buffer":0,"byteOffset":10368,"byteLength":432},{"buffer":0,"byteOffset":10800,"byteLength":432},{"buffer":0,"byteOffset":11232,"byteLength":432},{"buffer":0,"byteOffset":11664,"byteLength":432},{"buffer":0,"byteOffset":12096,"byteLength":432},{"buffer":0,"byteOffset":12528,"byteLength":432},{"buffer":0,"byteOffset":12960,"byteLength":792},{"buffer":0,"byteOffset":13752,"byteLength":792},{"buffer":0,"byteOffset":14544,"byteLength":792},{"buffer":0,"byteOffset":15336,"byteLength":792},{"buffer":0,"byteOffset":16128,"byteLength":792},{"buffer":0,"byteOffset":16920,"byteLength":792},{"buffer":0,"byteOffset":17712,"byteLength":1008},{"buffer":0,"byteOffset":18720,"byteLength":1008},{"buffer":0,"byteOffset":19728,"byteLength":1008},{"buffer":0,"byteOffset":20736,"byteLength":1008},{"buffer":0,"byteOffset":21744,"byteLength":1008},{"buffer":0,"byteOffset":22752,"byteLength":1008},{"buffer":0,"byteOffset":23760,"byteLength":1008},{"buffer":0,"byteOffset":24768,"byteLength":1008},{"buffer":0,"byteOffset":25776,"byteLength":1008},{"buffer":0,"byteOffset":26784,"byteLength":1008}],"accessors":[{"bufferView":0,"componentType":5126,"count":36,"type":"VEC3","min":[-0.925000011920929,-0.14000000059604645,-0.7749999761581421],"max":[0.925000011920929,0.14000000059604645,0.7749999761581421]},{"bufferView":1,"componentType":5126,"count":36,"type":"VEC3","min":[-1.0,-1.0,-1.0],"max":[1.0,1.0,1.0]},{"bufferView":2,"componentType":5126,"count":36,"type":"VEC3","min":[-0.20999999344348907,-0.23000000417232513,-0.6399999856948853],"max":[0.20999999344348907,0.23000000417232513,0.6399999856948853]},{"bufferView":3,"componentType":5126,"count":36,"type":"VEC3","min":[-1.0,-1.0,-1.0],"max":[1.0,1.0,1.0]},{"bufferView":4,"componentType":5126,"count":36,"type":"VEC3","min":[-0.20999999344348907,-0.23000000417232513,-0.6399999856948853],"max":[0.20999999344348907,0.23000000417232513,0.6399999856948853]},{"bufferView":5,"componentType":5126,"count":36,"type":"VEC3","min":[-1.0,-1.0,-1.0],"max":[1.0,1.0,1.0]},{"bufferView":6,"componentType":5126,"count":36,"type":"VEC3","min":[-0.574999988079071,-0.23000000417232513,-0.14000000059604645],"max":[0.574999988079071,0.23000000417232513,0.14000000059604645]},{"bufferView":7,"componentType":5126,"count":36,"type":"VEC3","min":[-1.0,-1.0,-1.0],"max":[1.0,1.0,1.0]},{"bufferView":8,"componentType":5126,"count":36,"type":"VEC3","min":[-0.20999999344348907,-0.23000000417232513,-0.6399999856948853],"max":[0.20999999344348907,0.23000000417232513,0.6399999856948853]},{"bufferView":9,"componentType":5126,"count":36,"type":"VEC3","min":[-1.0,-1.0,-1.0],"max":[1.0,1.0,1.0]},{"bufferView":10,"componentType":5126,"count":36,"type":"VEC3","min":[-0.20999999344348907,-0.23000000417232513,-0.6399999856948853],"max":[0.20999999344348907,0.23000000417232513,0.6399999856948853]},{"bufferView":11,"componentType":5126,"count":36,"type":"VEC3","min":[-1.0,-1.0,-1.0],"max":[1.0,1.0,1.0]},{"bufferView":12,"componentType":5126,"count":36,"type":"VEC3","min":[-0.574999988079071,-0.23000000417232513,-0.14000000059604645],"max":[0.574999988079071,0.23000000417232513,0.14000000059604645]},{"bufferView":13,"componentType":5126,"count":36,"type":"VEC3","min":[-1.0,-1.0,-1.0],"max":[1.0,1.0,1.0]},{"bufferView":14,"componentType":5126,"count":36,"type":"VEC3","min":[-0.20999999344348907,-0.23000000417232513,-0.6399999856948853],"max":[0.20999999344348907,0.23000000417232513,0.6399999856948853]},{"bufferView":15,"componentType":5126,"count":36,"type":"VEC3","min":[-1.0,-1.0,-1.0],"max":[1.0,1.0,1.0]},{"bufferView":16,"componentType":5126,"count":36,"type":"VEC3","min":[-0.20999999344348907,-0.23000000417232513,-0.6399999856948853],"max":[0.20999999344348907,0.23000000417232513,0.6399999856948853]},{"bufferView":17,"componentType":5126,"count":36,"type":"VEC3","min":[-1.0,-1.0,-1.0],"max":[1.0,1.0,1.0]},{"bufferView":18,"componentType":5126,"count":36,"type":"VEC3","min":[-0.574999988079071,-0.23000000417232513,-0.14000000059604645],"max":[0.574999988079071,0.23000000417232513,0.14000000059604645]},{"bufferView":19,"componentType":5126,"count":36,"type":"VEC3","min":[-1.0,-1.0,-1.0],"max":[1.0,1.0,1.0]},{"bufferView":20,"componentType":5126,"count":36,"type":"VEC3","min":[-0.8399999737739563,-0.10999999940395355,-0.7099999785423279],"max":[0.8399999737739563,0.10999999940395355,0.7099999785423279]},{"bufferView":21,"componentType":5126,"count":36,"type":"VEC3","min":[-1.0,-1.0,-1.0],"max":[1.0,1.0,1.0]},{"bufferView":22,"componentType":5126,"count":36,"type":"VEC3","min":[-0.28999999165534973,-0.3100000023841858,-0.29499998688697815],"max":[0.28999999165534973,0.3100000023841858,0.29499998688697815]},{"bufferView":23,"componentType":5126,"count":36,"type":"VEC3","min":[-1.0,-1.0,-1.0],"max":[1.0,1.0,1.0]},{"bufferView":24,"componentType":5126,"count":36,"type":"VEC3","min":[-0.3700000047683716,-0.05999999865889549,-0.36500000953674316],"max":[0.3700000047683716,0.05999999865889549,0.36500000953674316]},{"bufferView":25,"componentType":5126,"count":36,"type":"VEC3","min":[-1.0,-1.0,-1.0],"max":[1.0,1.0,1.0]},{"bufferView":26,"componentType":5126,"count":36,"type":"VEC3","min":[-0.5350000262260437,-0.05000000074505806,-0.550000011920929],"max":[0.5350000262260437,0.05000000074505806,0.550000011920929]},{"bufferView":27,"componentType":5126,"count":36,"type":"VEC3","min":[-1.0,-1.0,-1.0],"max":[1.0,1.0,1.0]},{"bufferView":28,"componentType":5126,"count":36,"type":"VEC3","min":[-0.550000011920929,-0.1599999964237213,-0.10499999672174454],"max":[0.550000011920929,0.1599999964237213,0.10499999672174454]},{"bufferView":29,"componentType":5126,"count":36,"type":"VEC3","min":[-1.0,-1.0,-1.0],"max":[1.0,1.0,1.0]},{"bufferView":30,"componentType":5126,"count":66,"type":"VEC3","min":[-0.12999999523162842,-0.19976922869682312,-0.11258330196142197],"max":[0.12999999523162842,0.3302307724952698,0.11258330196142197]},{"bufferView":31,"componentType":5126,"count":66,"type":"VEC3","min":[-0.8604152798652649,-1.0,-0.993522047996521],"max":[0.8604152798652649,0.5188377499580383,0.993522047996521]},{"bufferView":32,"componentType":5126,"count":66,"type":"VEC3","min":[-0.12999999523162842,-0.19976922869682312,-0.11258330196142197],"max":[0.12999999523162842,0.3302307724952698,0.11258330196142197]},{"bufferView":33,"componentType":5126,"count":66,"type":"VEC3","min":[-0.8604152798652649,-1.0,-0.993522047996521],"max":[0.8604152798652649,0.5188377499580383,0.993522047996521]},{"bufferView":34,"componentType":5126,"count":66,"type":"VEC3","min":[-0.12999999523162842,-0.19976922869682312,-0.11258330196142197],"max":[0.12999999523162842,0.3302307724952698,0.11258330196142197]},{"bufferView":35,"componentType":5126,"count":66,"type":"VEC3","min":[-0.8604152798652649,-1.0,-0.993522047996521],"max":[0.8604152798652649,0.5188377499580383,0.993522047996521]},{"bufferView":36,"componentType":5126,"count":84,"type":"VEC3","min":[-0.02500000037252903,-0.3700000047683716,-0.02500000037252903],"max":[0.02500000037252903,0.3700000047683716,0.02500000037252903]},{"bufferView":37,"componentType":5126,"count":84,"type":"VEC3","min":[-0.9238795042037964,-1.0,-0.9238795042037964],"max":[0.9238795042037964,1.0,0.9238795042037964]},{"bufferView":38,"componentType":5126,"count":84,"type":"VEC3","min":[-0.02500000037252903,-0.3700000047683716,-0.02500000037252903],"max":[0.02500000037252903,0.3700000047683716,0.02500000037252903]},{"bufferView":39,"componentType":5126,"count":84,"type":"VEC3","min":[-0.9238795042037964,-1.0,-0.9238795042037964],"max":[0.9238795042037964,1.0,0.9238795042037964]},{"bufferView":40,"componentType":5126,"count":84,"type":"VEC3","min":[-0.02500000037252903,-0.3700000047683716,-0.02500000037252903],"max":[0.02500000037252903,0.3700000047683716,0.02500000037252903]},{"bufferView":41,"componentType":5126,"count":84,"type":"VEC3","min":[-0.9238795042037964,-1.0,-0.9238795042037964],"max":[0.9238795042037964,1.0,0.9238795042037964]},{"bufferView":42,"componentType":5126,"count":84,"type":"VEC3","min":[-0.02500000037252903,-0.3700000047683716,-0.02500000037252903],"max":[0.02500000037252903,0.3700000047683716,0.02500000037252903]},{"bufferView":43,"componentType":5126,"count":84,"type":"VEC3","min":[-0.9238795042037964,-1.0,-0.9238795042037964],"max":[0.9238795042037964,1.0,0.9238795042037964]},{"bufferView":44,"componentType":5126,"count":84,"type":"VEC3","min":[-0.02500000037252903,-0.3700000047683716,-0.02500000037252903],"max":[0.02500000037252903,0.3700000047683716,0.02500000037252903]},{"bufferView":45,"componentType":5126,"count":84,"type":"VEC3","min":[-0.9238795042037964,-1.0,-0.9238795042037964],"max":[0.9238795042037964,1.0,0.9238795042037964]}],"buffers":[{"byteLength":27792,"uri":"Smelting_Furnace.bin"}]}