{"asset":{"version":"2.0","generator":"RIFTBOUND procedural asset builder"},"scene":0,"scenes":[{"nodes":[0,1,2,3,4,5,6,7,8,9]}],"nodes":[{"name":"Host_Rock_0","mesh":0,"translation":[0.0023863636363636188,0.6041397879334358,1.0092936587501423e-17]},{"name":"Copper_Seam_1","mesh":1,"translation":[-0.549409090909091,0.7498146991435003,0.37999999999999995]},{"name":"Copper_Seam_2","mesh":2,"translation":[-0.19940909090909092,0.8145932394958824,0.5999999999999999]},{"name":"Copper_Seam_3","mesh":3,"translation":[0.2005909090909091,0.7903945636741674,0.57]},{"name":"Copper_Seam_4","mesh":4,"translation":[0.5205909090909091,0.9875671509077559,0.27999999999999997]},{"name":"Copper_Seam_5","mesh":5,"translation":[0.25059090909090903,1.1599771538518064,-0.15000000000000002]},{"name":"Copper_Seam_6","mesh":6,"translation":[-0.29940909090909085,1.0781788892362156,-0.13000000000000003]},{"name":"Loose_Stone_7","mesh":7,"translation":[0.8604545454545455,0.19693670644211556,2.523234146875356e-18]},{"name":"Loose_Stone_8","mesh":8,"translation":[-0.357431733975997,0.19635425696244405,-0.7092519929240317]},{"name":"Loose_Stone_9","mesh":9,"translation":[-0.5616789684881609,0.19494437521509073,0.590305946340184]}],"meshes":[{"name":"Host_Rock_0","primitives":[{"attributes":{"POSITION":0,"NORMAL":1},"material":0}]},{"name":"Copper_Seam_1","primitives":[{"attributes":{"POSITION":2,"NORMAL":3},"material":5}]},{"name":"Copper_Seam_2","primitives":[{"attributes":{"POSITION":4,"NORMAL":5},"material":5}]},{"name":"Copper_Seam_3","primitives":[{"attributes":{"POSITION":6,"NORMAL":7},"material":5}]},{"name":"Copper_Seam_4","primitives":[{"attributes":{"POSITION":8,"NORMAL":9},"material":5}]},{"name":"Copper_Seam_5","primitives":[{"attributes":{"POSITION":10,"NORMAL":11},"material":5}]},{"name":"Copper_Seam_6","primitives":[{"attributes":{"POSITION":12,"NORMAL":13},"material":5}]},{"name":"Loose_Stone_7","primitives":[{"attributes":{"POSITION":14,"NORMAL":15},"material":2}]},{"name":"Loose_Stone_8","primitives":[{"attributes":{"POSITION":16,"NORMAL":17},"material":2}]},{"name":"Loose_Stone_9","primitives":[{"attributes":{"POSITION":18,"NORMAL":19},"material":2}]}],"materials":[{"name":"stone","pbrMetallicRoughness":{"baseColorFactor":[0.05284162552287903,0.08464151072542946,0.11657577617857154,1],"metallicFactor":0,"roughnessFactor":0.8}},{"name":"edge","pbrMetallicRoughness":{"baseColorFactor":[0.18014428915439032,0.27583283346124515,0.31118049905798434,1],"metallicFactor":0,"roughnessFactor":0.8}},{"name":"dark","pbrMetallicRoughness":{"baseColorFactor":[0.009021491898012131,0.016988052089250045,0.03155139140022645,1],"metallicFactor":0,"roughnessFactor":0.8}},{"name":"wood","pbrMetallicRoughness":{"baseColorFactor":[0.1390224537347025,0.04943345755590796,0.02201299491933654,1],"metallicFactor":0,"roughnessFactor":0.8}},{"name":"woodlight","pbrMetallicRoughness":{"baseColorFactor":[0.36859092219748707,0.14497212559723088,0.042987010162657116,1],"metallicFactor":0,"roughnessFactor":0.8}},{"name":"copper","pbrMetallicRoughness":{"baseColorFactor":[0.6730490732809419,0.20835965596076741,0.05637409755197975,1],"metallicFactor":0.35,"roughnessFactor":0.8}},{"name":"gold","pbrMetallicRoughness":{"baseColorFactor":[0.9489649381781952,0.5174013674966733,0.12752977781342206,1],"metallicFactor":0.35,"roughnessFactor":0.8}},{"name":"rift","pbrMetallicRoughness":{"baseColorFactor":[0.051122050056493396,0.7969165429079781,0.5859729839496614,1],"metallicFactor":0,"roughnessFactor":0.8},"emissiveFactor":[0.017892717519772686,0.2789207900177923,0.20509054438238147]},{"name":"ice","pbrMetallicRoughness":{"baseColorFactor":[0.4704402453042184,1.0,0.8355277914608409,1],"metallicFactor":0,"roughnessFactor":0.8},"emissiveFactor":[0.16465408585647642,0.35,0.2924347270112943]},{"name":"moss","pbrMetallicRoughness":{"baseColorFactor":[0.05459227728176034,0.14799802298268516,0.06381487094867724,1],"metallicFactor":0,"roughnessFactor":0.8}},{"name":"bark","pbrMetallicRoughness":{"baseColorFactor":[0.06575388026033009,0.03423020656508195,0.020951131914781092,1],"metallicFactor":0,"roughnessFactor":0.8}},{"name":"cloth","pbrMetallicRoughness":{"baseColorFactor":[0.03994717100152558,0.10114516420959989,0.10363409665513738,1],"metallicFactor":0,"roughnessFactor":0.8}},{"name":"leather","pbrMetallicRoughness":{"baseColorFactor":[0.05818717747368544,0.020951131914781092,0.015175238159625197,1],"metallicFactor":0,"roughnessFactor":0.8}},{"name":"fire","pbrMetallicRoughness":{"baseColorFactor":[1.0,0.3157627437363971,0.04943345755590796,1],"metallicFactor":0,"roughnessFactor":0.8},"emissiveFactor":[0.35,0.11051696030773898,0.017301710144567783]}],"bufferViews":[{"buffer":0,"byteOffset":0,"byteLength":1440},{"buffer":0,"byteOffset":1440,"byteLength":1440},{"buffer":0,"byteOffset":2880,"byteLength":1440},{"buffer":0,"byteOffset":4320,"byteLength":1440},{"buffer":0,"byteOffset":5760,"byteLength":1440},{"buffer":0,"byteOffset":7200,"byteLength":1440},{"buffer":0,"byteOffset":8640,"byteLength":1440},{"buffer":0,"byteOffset":10080,"byteLength":1440},{"buffer":0,"byteOffset":11520,"byteLength":1440},{"buffer":0,"byteOffset":12960,"byteLength":1440},{"buffer":0,"byteOffset":14400,"byteLength":1440},{"buffer":0,"byteOffset":15840,"byteLength":1440},{"buffer":0,"byteOffset":17280,"byteLength":1440},{"buffer":0,"byteOffset":18720,"byteLength":1440},{"buffer":0,"byteOffset":20160,"byteLength":1440},{"buffer":0,"byteOffset":21600,"byteLength":1440},{"buffer":0,"byteOffset":23040,"byteLength":1440},{"buffer":0,"byteOffset":24480,"byteLength":1440},{"buffer":0,"byteOffset":25920,"byteLength":1440},{"buffer":0,"byteOffset":27360,"byteLength":1440}],"accessors":[{"bufferView":0,"componentType":5126,"count":120,"type":"VEC3","min":[-0.9484036564826965,-0.6041398048400879,-0.7799423336982727],"max":[1.0476136207580566,0.6818177103996277,0.7799423336982727]},{"bufferView":1,"componentType":5126,"count":120,"type":"VEC3","min":[-0.9208603501319885,-0.9971334338188171,-0.9402279853820801],"max":[0.7491651177406311,0.9713979363441467,0.9444237351417542]},{"bufferView":2,"componentType":5126,"count":120,"type":"VEC3","min":[-0.23484282195568085,-0.19388653337955475,-0.18523630499839783],"max":[0.259409099817276,0.2261427640914917,0.18523630499839783]},{"bufferView":3,"componentType":5126,"count":120,"type":"VEC3","min":[-0.9343656301498413,-0.9997990131378174,-0.9528912305831909],"max":[0.7975685596466064,0.9441033601760864,0.9596487283706665]},{"bufferView":4,"componentType":5126,"count":120,"type":"VEC3","min":[-0.23484282195568085,-0.19574229419231415,-0.18523630499839783],"max":[0.259409099817276,0.23136423528194427,0.18523630499839783]},{"bufferView":5,"componentType":5126,"count":120,"type":"VEC3","min":[-0.9488645792007446,-0.9993219971656799,-0.9551434516906738],"max":[0.8550993204116821,0.9280021786689758,0.9584941267967224]},{"bufferView":6,"componentType":5126,"count":120,"type":"VEC3","min":[-0.23484282195568085,-0.18160386383533478,-0.18523630499839783],"max":[0.259409099817276,0.23556290566921234,0.18523630499839783]},{"bufferView":7,"componentType":5126,"count":120,"type":"VEC3","min":[-0.9606473445892334,-0.9998355507850647,-0.9391010403633118],"max":[0.8394787311553955,0.8949999809265137,0.961506724357605]},{"bufferView":8,"componentType":5126,"count":120,"type":"VEC3","min":[-0.23484282195568085,-0.195514515042305,-0.18523630499839783],"max":[0.259409099817276,0.22839032113552094,0.18523630499839783]},{"bufferView":9,"componentType":5126,"count":120,"type":"VEC3","min":[-0.9376850128173828,-0.9841235876083374,-0.9347382187843323],"max":[0.8504676818847656,0.8800612688064575,0.9625919461250305]},{"bufferView":10,"componentType":5126,"count":120,"type":"VEC3","min":[-0.23484282195568085,-0.17919720709323883,-0.18523630499839783],"max":[0.259409099817276,0.22598031163215637,0.18523630499839783]},{"bufferView":11,"componentType":5126,"count":120,"type":"VEC3","min":[-0.9588364958763123,-0.9975596070289612,-0.9501028656959534],"max":[0.7870510816574097,0.9413163065910339,0.9446905255317688]},{"bufferView":12,"componentType":5126,"count":120,"type":"VEC3","min":[-0.23484282195568085,-0.19826209545135498,-0.18523630499839783],"max":[0.259409099817276,0.2277785837650299,0.18523630499839783]},{"bufferView":13,"componentType":5126,"count":120,"type":"VEC3","min":[-0.9219282865524292,-0.9868997931480408,-0.951625645160675],"max":[0.8491629362106323,0.9272016882896423,0.9624086618423462]},{"bufferView":14,"componentType":5126,"count":120,"type":"VEC3","min":[-0.1806483119726181,-0.15163633227348328,-0.19498558342456818],"max":[0.1995454579591751,0.17902076244354248,0.19498558342456818]},{"bufferView":15,"componentType":5126,"count":120,"type":"VEC3","min":[-0.941808819770813,-0.9916871190071106,-0.9036542177200317],"max":[0.8373821973800659,0.9354943037033081,0.8858296275138855]},{"bufferView":16,"componentType":5126,"count":120,"type":"VEC3","min":[-0.1806483119726181,-0.14454464614391327,-0.19498558342456818],"max":[0.1995454579591751,0.1796032190322876,0.19498558342456818]},{"bufferView":17,"componentType":5126,"count":120,"type":"VEC3","min":[-0.9211695790290833,-0.9979279637336731,-0.9258713126182556],"max":[0.8639728426933289,0.8976129293441772,0.924469530582428]},{"bufferView":18,"componentType":5126,"count":120,"type":"VEC3","min":[-0.1806483119726181,-0.1457991898059845,-0.19498558342456818],"max":[0.1995454579591751,0.1810130923986435,0.19498558342456818]},{"bufferView":19,"componentType":5126,"count":120,"type":"VEC3","min":[-0.9439772367477417,-0.9989091157913208,-0.918465793132782],"max":[0.8776299357414246,0.9496285915374756,0.9063052535057068]}],"buffers":[{"byteLength":28800,"uri":"Copper_Deposit.bin"}]}