# RIFTBOUND | Z up | flat shaded
mtllib Copper_Deposit.mtl
o Host_Rock_0
usemtl stone
v 0.630000 0.000000 0.122726
v 0.392799 0.375279 0.176606
v -0.140188 0.467965 0.152543
v -0.567610 0.208264 0.043548
v -0.567610 -0.208264 0.058390
v -0.140188 -0.467965 0.171921
v 0.392799 -0.375279 0.000000
v 1.050000 0.000000 0.590561
v 0.654664 0.625465 0.585777
v -0.233647 0.779942 0.520609
v -0.946017 0.347107 0.487958
v -0.946017 -0.347107 0.483086
v -0.233647 -0.779942 0.478422
v 0.654664 -0.625465 0.516083
v 0.756000 0.000000 1.055858
v 0.471358 0.450335 1.065550
v -0.168226 0.561558 1.153067
v -0.681132 0.249917 1.112905
v -0.681132 -0.249917 1.079149
v -0.168226 -0.561558 1.151772
v 0.471358 -0.450335 0.998589
v 0.052500 0.000000 1.285957
f 2 7 4
f 19 18 12
f 19 22 18
f 14 7 8
f 17 18 22
f 17 22 16
f 5 12 4
f 5 4 7
f 11 10 4
f 11 17 10
f 11 18 17
f 11 12 18
f 11 4 12
f 1 8 7
f 1 7 2
f 9 2 10
f 9 10 17
f 9 17 16
f 9 16 8
f 9 8 1
f 9 1 2
f 3 4 10
f 3 10 2
f 3 2 4
f 15 14 8
f 15 8 16
f 15 16 22
f 13 7 14
f 13 12 5
f 20 13 14
f 20 22 19
f 20 19 12
f 20 12 13
f 6 5 7
f 6 7 13
f 6 13 5
f 21 14 15
f 21 20 14
f 21 15 22
f 21 22 20
o Copper_Seam_1
usemtl copper
v -0.394000 -0.380000 0.610054
v -0.452736 -0.290871 0.560664
v -0.584713 -0.268858 0.601635
v -0.690551 -0.330537 0.556810
v -0.690551 -0.429463 0.580803
v -0.584713 -0.491142 0.555928
v -0.452736 -0.469129 0.592434
v -0.290000 -0.380000 0.745513
v -0.387893 -0.231452 0.718041
v -0.607855 -0.194764 0.753115
v -0.784252 -0.297562 0.744429
v -0.784252 -0.462438 0.712280
v -0.607855 -0.565236 0.727958
v -0.387893 -0.528548 0.739675
v -0.362800 -0.380000 0.920546
v -0.433283 -0.273045 0.927564
v -0.591656 -0.246630 0.875527
v -0.718661 -0.320645 0.915166
v -0.718661 -0.439355 0.875155
v -0.591656 -0.513370 0.925788
v -0.433283 -0.486955 0.880881
v -0.537000 -0.380000 0.975957
f 38 40 44
f 42 44 40
f 42 40 41
f 34 35 42
f 34 42 41
f 34 40 33
f 34 41 40
f 34 33 26
f 34 26 27
f 23 24 30
f 23 30 29
f 23 29 24
f 36 42 35
f 36 43 42
f 36 29 30
f 28 35 34
f 28 34 27
f 28 36 35
f 28 29 36
f 28 27 26
f 28 24 29
f 28 26 24
f 31 30 24
f 31 38 30
f 37 30 38
f 37 36 30
f 37 43 36
f 37 38 44
f 37 44 42
f 37 42 43
f 32 38 31
f 32 33 40
f 32 26 33
f 32 31 24
f 39 40 38
f 39 32 40
f 39 38 32
f 25 24 26
f 25 32 24
f 25 26 32
o Copper_Seam_2
usemtl copper
v -0.044000 -0.600000 0.625443
v -0.102736 -0.510871 0.649910
v -0.234713 -0.488858 0.656656
v -0.340551 -0.550537 0.618851
v -0.340551 -0.649463 0.626721
v -0.234713 -0.711142 0.678219
v -0.102736 -0.689129 0.621605
v 0.060000 -0.600000 0.768523
v -0.037893 -0.451452 0.822547
v -0.257855 -0.414764 0.801002
v -0.434252 -0.517562 0.784311
v -0.434252 -0.682438 0.793709
v -0.257855 -0.785236 0.803705
v -0.037893 -0.748548 0.778128
v -0.012800 -0.600000 0.945063
v -0.083283 -0.493045 0.987968
v -0.241656 -0.466630 0.980201
v -0.368661 -0.540645 0.969775
v -0.368661 -0.659355 0.989862
v -0.241656 -0.733370 0.972196
v -0.083283 -0.706955 1.000698
v -0.187000 -0.600000 1.045957
f 63 56 57
f 63 66 62
f 65 60 66
f 55 54 48
f 55 62 54
f 55 48 56
f 55 56 63
f 55 63 62
f 61 62 66
f 61 66 60
f 61 54 62
f 47 48 54
f 47 54 46
f 47 46 48
f 53 46 54
f 53 54 61
f 53 61 60
f 53 60 52
f 53 52 46
f 45 46 52
f 45 48 46
f 58 52 65
f 58 65 57
f 59 52 60
f 59 65 52
f 59 60 65
f 64 63 57
f 64 57 65
f 64 66 63
f 64 65 66
f 51 48 45
f 51 58 57
f 51 45 52
f 51 52 58
f 49 56 48
f 49 48 51
f 49 57 56
f 50 51 57
f 50 57 49
f 50 49 51
o Copper_Seam_3
usemtl copper
v 0.356000 -0.570000 0.613512
v 0.297264 -0.480871 0.659443
v 0.165287 -0.458858 0.609453
v 0.059449 -0.520537 0.608791
v 0.059449 -0.619463 0.620050
v 0.165287 -0.681142 0.612173
v 0.297264 -0.659129 0.641207
v 0.460000 -0.570000 0.747553
v 0.362107 -0.421452 0.799114
v 0.142145 -0.384764 0.796594
v -0.034252 -0.487562 0.740144
v -0.034252 -0.652438 0.775694
v 0.142145 -0.755236 0.747010
v 0.362107 -0.718548 0.756982
v 0.387200 -0.570000 0.943473
v 0.316717 -0.463045 0.945896
v 0.158344 -0.436630 0.946855
v 0.031339 -0.510645 0.977174
v 0.031339 -0.629355 0.933036
v 0.158344 -0.703370 0.928358
v 0.316717 -0.676955 0.960211
v 0.213000 -0.570000 1.025957
f 87 80 74
f 87 88 86
f 79 86 78
f 79 80 87
f 79 87 86
f 77 84 76
f 77 76 69
f 77 69 70
f 77 78 84
f 75 69 76
f 83 84 88
f 83 88 82
f 83 76 84
f 83 75 76
f 83 82 75
f 67 74 80
f 67 75 74
f 85 88 84
f 85 86 88
f 85 84 78
f 85 78 86
f 81 87 74
f 81 74 75
f 81 75 82
f 81 82 88
f 81 88 87
f 68 69 75
f 68 67 69
f 68 75 67
f 72 70 69
f 72 69 67
f 72 80 79
f 71 70 72
f 71 78 77
f 71 77 70
f 71 79 78
f 71 72 79
f 73 67 80
f 73 80 72
f 73 72 67
o Copper_Seam_4
usemtl copper
v 0.676000 -0.280000 0.844034
v 0.617264 -0.190871 0.843407
v 0.485287 -0.168858 0.840485
v 0.379449 -0.230537 0.804213
v 0.379449 -0.329463 0.792053
v 0.485287 -0.391142 0.849424
v 0.617264 -0.369129 0.827468
v 0.780000 -0.280000 0.930131
v 0.682107 -0.131452 0.990044
v 0.462145 -0.094764 0.994954
v 0.285748 -0.197562 0.948853
v 0.285748 -0.362438 0.983659
v 0.462145 -0.465236 0.935396
v 0.682107 -0.428548 0.958884
v 0.707200 -0.280000 1.159926
v 0.636717 -0.173045 1.132934
v 0.478344 -0.146630 1.140129
v 0.351339 -0.220645 1.113682
v 0.351339 -0.339355 1.159682
v 0.478344 -0.413370 1.138817
v 0.636717 -0.386955 1.122344
v 0.533000 -0.280000 1.215957
f 103 96 97
f 103 110 109
f 98 105 97
f 100 93 101
f 100 99 93
f 100 107 99
f 108 110 107
f 108 109 110
f 108 100 101
f 108 107 100
f 94 101 93
f 94 95 101
f 94 93 95
f 102 101 95
f 102 108 101
f 102 109 108
f 102 95 96
f 102 96 103
f 102 103 109
f 89 96 95
f 89 95 93
f 106 107 110
f 106 110 105
f 106 99 107
f 106 98 99
f 106 105 98
f 104 97 105
f 104 103 97
f 104 105 110
f 104 110 103
f 91 98 97
f 90 89 93
f 90 91 97
f 90 97 96
f 90 96 89
f 92 90 93
f 92 91 90
f 92 93 99
f 92 99 98
f 92 98 91
o Copper_Seam_5
usemtl copper
v 0.406000 0.150000 1.011802
v 0.347264 0.239129 0.980780
v 0.215287 0.261142 1.003338
v 0.109449 0.199463 1.013725
v 0.109449 0.100537 0.999284
v 0.215287 0.038858 0.993149
v 0.347264 0.060871 1.007270
v 0.510000 0.150000 1.147234
v 0.412107 0.298548 1.130791
v 0.192145 0.335236 1.137740
v 0.015748 0.232438 1.149215
v 0.015748 0.067562 1.104153
v 0.192145 -0.035236 1.142651
v 0.412107 0.001452 1.148537
v 0.437200 0.150000 1.302276
v 0.366717 0.256955 1.309432
v 0.208344 0.283370 1.291053
v 0.081339 0.209355 1.318870
v 0.081339 0.090645 1.340062
v 0.208344 0.016630 1.295673
v 0.366717 0.043045 1.306504
v 0.263000 0.150000 1.385957
f 129 132 128
f 129 122 123
f 119 112 120
f 119 120 126
f 119 118 112
f 119 126 118
f 127 128 132
f 127 132 126
f 127 120 128
f 127 126 120
f 113 120 112
f 121 128 120
f 121 120 113
f 121 113 114
f 121 114 122
f 121 122 129
f 121 129 128
f 125 126 132
f 125 132 131
f 125 118 126
f 125 131 118
f 111 112 118
f 111 118 117
f 111 117 112
f 124 131 123
f 124 118 131
f 124 117 118
f 115 113 112
f 115 114 113
f 115 122 114
f 130 123 131
f 130 129 123
f 130 131 132
f 130 132 129
f 116 124 123
f 116 117 124
f 116 123 122
f 116 122 115
f 116 112 117
f 116 115 112
o Copper_Seam_6
usemtl copper
v -0.144000 0.130000 0.922679
v -0.202736 0.219129 0.930801
v -0.334713 0.241142 0.899688
v -0.440551 0.179463 0.879917
v -0.440551 0.080537 0.914683
v -0.334713 0.018858 0.886610
v -0.202736 0.040871 0.924396
v -0.040000 0.130000 1.042751
v -0.137893 0.278548 1.050120
v -0.357855 0.315236 1.084369
v -0.534252 0.212438 1.071534
v -0.534252 0.047562 1.075648
v -0.357855 -0.055236 1.056595
v -0.137893 -0.018548 1.082104
v -0.112800 0.130000 1.197167
v -0.183283 0.236955 1.254644
v -0.341656 0.263370 1.221682
v -0.468661 0.189355 1.211252
v -0.468661 0.070645 1.231227
v -0.341656 -0.003370 1.258307
v -0.183283 0.023045 1.217803
v -0.287000 0.130000 1.305957
f 145 152 144
f 145 146 152
f 143 142 136
f 143 136 144
f 153 154 152
f 153 152 146
f 149 150 154
f 149 154 148
f 149 148 142
f 149 142 143
f 149 143 150
f 135 136 142
f 141 142 148
f 141 135 142
f 141 134 135
f 141 148 140
f 133 141 140
f 133 134 141
f 133 135 134
f 151 154 150
f 151 152 154
f 151 144 152
f 151 143 144
f 151 150 143
f 147 148 154
f 147 154 153
f 147 140 148
f 147 146 140
f 147 153 146
f 139 140 146
f 139 133 140
f 138 146 145
f 138 139 146
f 138 145 144
f 138 133 139
f 138 136 135
f 138 135 133
f 137 144 136
f 137 138 144
f 137 136 138
o Loose_Stone_7
usemtl dark
v 0.980000 0.000000 0.076943
v 0.934819 0.093820 0.058217
v 0.833297 0.116991 0.046547
v 0.751884 0.052066 0.045300
v 0.751884 -0.052066 0.085934
v 0.833297 -0.116991 0.091008
v 0.934819 -0.093820 0.075396
v 1.060000 0.000000 0.192162
v 0.984698 0.156366 0.182682
v 0.815496 0.194986 0.202646
v 0.679806 0.086777 0.196566
v 0.679806 -0.086777 0.155097
v 0.815496 -0.194986 0.198685
v 0.984698 -0.156366 0.156670
v 1.004000 0.000000 0.328170
v 0.949783 0.112584 0.299916
v 0.827957 0.140390 0.334980
v 0.730260 0.062479 0.318572
v 0.730260 -0.062479 0.306243
v 0.827957 -0.140390 0.312515
v 0.949783 -0.112584 0.292402
v 0.870000 0.000000 0.375957
f 166 165 158
f 166 173 165
f 166 167 173
f 172 165 173
f 172 173 176
f 157 161 158
f 157 158 165
f 157 165 164
f 174 176 173
f 174 175 176
f 174 173 167
f 174 167 175
f 168 175 167
f 160 167 166
f 160 168 167
f 160 161 168
f 160 158 161
f 169 176 175
f 169 168 162
f 169 175 168
f 171 164 165
f 171 165 172
f 171 172 176
f 171 176 169
f 171 169 170
f 163 157 164
f 163 169 162
f 163 170 169
f 163 164 171
f 163 171 170
f 156 161 157
f 156 163 162
f 156 157 163
f 159 166 158
f 159 158 160
f 159 160 166
f 155 156 162
f 155 161 156
f 155 162 168
f 155 168 161
o Loose_Stone_8
usemtl dark
v -0.237886 0.709252 0.070560
v -0.283068 0.803072 0.092931
v -0.384589 0.826243 0.051810
v -0.466003 0.761318 0.092839
v -0.466003 0.657186 0.060361
v -0.384589 0.592261 0.066047
v -0.283068 0.615432 0.086670
v -0.157886 0.709252 0.175827
v -0.233188 0.865618 0.182987
v -0.402390 0.904238 0.156363
v -0.538080 0.796029 0.193387
v -0.538080 0.622475 0.182403
v -0.402390 0.514266 0.171774
v -0.233188 0.552886 0.195167
v -0.213886 0.709252 0.306420
v -0.268104 0.821836 0.314086
v -0.389929 0.849642 0.297794
v -0.487626 0.771731 0.311516
v -0.487626 0.646773 0.301334
v -0.389929 0.568862 0.304335
v -0.268104 0.596668 0.329226
v -0.347886 0.709252 0.375957
f 194 195 198
f 194 187 188
f 194 188 195
f 196 198 195
f 196 197 198
f 196 189 197
f 196 188 189
f 196 195 188
f 177 185 184
f 190 197 189
f 190 184 197
f 190 177 184
f 190 183 177
f 181 188 187
f 181 189 188
f 192 184 185
f 186 179 187
f 186 185 179
f 178 179 185
f 178 177 179
f 178 185 177
f 180 187 179
f 180 181 187
f 180 179 181
f 182 189 181
f 182 190 189
f 182 183 190
f 182 177 183
f 182 179 177
f 182 181 179
f 191 197 184
f 191 184 192
f 191 198 197
f 191 192 198
f 193 194 198
f 193 198 192
f 193 187 194
f 193 186 187
f 193 192 185
f 193 185 186
o Loose_Stone_9
usemtl dark
v -0.442134 -0.590306 0.057800
v -0.487315 -0.496486 0.059681
v -0.588836 -0.473315 0.085983
v -0.670250 -0.538240 0.049145
v -0.670250 -0.642372 0.075063
v -0.588836 -0.707297 0.081614
v -0.487315 -0.684126 0.054040
v -0.362134 -0.590306 0.157770
v -0.437436 -0.433940 0.168981
v -0.606638 -0.395320 0.188487
v -0.742327 -0.503529 0.183633
v -0.742327 -0.677083 0.162611
v -0.606638 -0.785292 0.177022
v -0.437436 -0.746672 0.189092
v -0.418134 -0.590306 0.312519
v -0.472351 -0.477722 0.323250
v -0.594177 -0.449916 0.340297
v -0.691873 -0.527827 0.325794
v -0.691873 -0.652785 0.310930
v -0.594177 -0.730696 0.300507
v -0.472351 -0.702890 0.308601
v -0.552134 -0.590306 0.375957
f 202 209 208
f 216 209 217
f 216 217 220
f 210 209 202
f 210 217 209
f 210 211 217
f 201 202 208
f 218 220 217
f 218 219 220
f 218 217 211
f 207 214 206
f 213 206 214
f 213 220 219
f 213 214 220
f 215 208 209
f 215 209 216
f 215 207 208
f 215 214 207
f 215 216 220
f 215 220 214
f 212 211 205
f 212 218 211
f 212 219 218
f 212 205 206
f 212 206 213
f 212 213 219
f 204 211 210
f 204 205 211
f 200 202 201
f 200 207 206
f 200 201 208
f 200 208 207
f 203 202 205
f 203 205 204
f 203 210 202
f 203 204 210
f 199 205 202
f 199 202 200
f 199 206 205
f 199 200 206