# RIFTBOUND | Z up | flat shaded
mtllib Stone_Pickaxe.mtl
o Oak_Handle_0
usemtl woodlight
v -0.092000 0.000000 0.000000
v -0.074430 -0.054076 0.000000
v -0.028430 -0.087497 0.000000
v 0.028430 -0.087497 0.000000
v 0.074430 -0.054076 0.000000
v 0.092000 -0.000000 0.000000
v 0.074430 0.054076 0.000000
v 0.028430 0.087497 0.000000
v -0.028430 0.087497 0.000000
v -0.074430 0.054076 0.000000
v -0.115000 0.000000 2.230000
v -0.093037 -0.067595 2.230000
v -0.035537 -0.109371 2.230000
v 0.035537 -0.109371 2.230000
v 0.093037 -0.067595 2.230000
v 0.115000 -0.000000 2.230000
v 0.093037 0.067595 2.230000
v 0.035537 0.109371 2.230000
v -0.035537 0.109371 2.230000
v -0.093037 0.067595 2.230000
f 10 11 20
f 10 1 11
f 10 20 19
f 10 19 9
f 2 12 11
f 2 11 1
f 6 17 16
f 6 7 17
f 8 18 17
f 8 17 7
f 8 9 19
f 8 19 18
f 15 20 11
f 15 16 17
f 15 18 19
f 15 19 20
f 15 11 12
f 15 12 13
f 15 17 18
f 15 13 14
f 15 5 6
f 15 6 16
f 4 5 15
f 4 15 14
f 3 7 6
f 3 1 10
f 3 2 1
f 3 10 9
f 3 8 7
f 3 6 5
f 3 9 8
f 3 5 4
f 3 13 12
f 3 12 2
f 3 14 13
f 3 4 14
o Leather_Grip_1
usemtl leather
v -0.118000 0.000000 0.100000
v -0.095464 -0.069359 0.100000
v -0.036464 -0.112225 0.100000
v 0.036464 -0.112225 0.100000
v 0.095464 -0.069359 0.100000
v 0.118000 -0.000000 0.100000
v 0.095464 0.069359 0.100000
v 0.036464 0.112225 0.100000
v -0.036464 0.112225 0.100000
v -0.095464 0.069359 0.100000
v -0.118000 0.000000 0.730000
v -0.095464 -0.069359 0.730000
v -0.036464 -0.112225 0.730000
v 0.036464 -0.112225 0.730000
v 0.095464 -0.069359 0.730000
v 0.118000 -0.000000 0.730000
v 0.095464 0.069359 0.730000
v 0.036464 0.112225 0.730000
v -0.036464 0.112225 0.730000
v -0.095464 0.069359 0.730000
f 40 30 21
f 40 21 31
f 40 29 30
f 40 39 29
f 38 27 28
f 38 37 27
f 38 28 29
f 38 29 39
f 32 21 22
f 32 31 21
f 36 26 27
f 36 27 37
f 36 25 26
f 36 35 25
f 33 40 31
f 33 37 38
f 33 31 32
f 33 39 40
f 33 38 39
f 33 36 37
f 33 35 36
f 33 34 35
f 33 22 23
f 33 32 22
f 24 21 30
f 24 22 21
f 24 27 26
f 24 30 29
f 24 29 28
f 24 23 22
f 24 28 27
f 24 26 25
f 24 34 33
f 24 33 23
f 24 25 35
f 24 35 34
o Grip_Binding_2
usemtl cloth
v -0.124000 0.000000 0.120000
v -0.100318 -0.072885 0.120000
v -0.038318 -0.117931 0.120000
v 0.038318 -0.117931 0.120000
v 0.100318 -0.072885 0.120000
v 0.124000 -0.000000 0.120000
v 0.100318 0.072885 0.120000
v 0.038318 0.117931 0.120000
v -0.038318 0.117931 0.120000
v -0.100318 0.072885 0.120000
v -0.124000 0.000000 0.154000
v -0.100318 -0.072885 0.154000
v -0.038318 -0.117931 0.154000
v 0.038318 -0.117931 0.154000
v 0.100318 -0.072885 0.154000
v 0.124000 -0.000000 0.154000
v 0.100318 0.072885 0.154000
v 0.038318 0.117931 0.154000
v -0.038318 0.117931 0.154000
v -0.100318 0.072885 0.154000
f 60 50 41
f 60 41 51
f 56 46 47
f 56 47 57
f 59 49 50
f 59 50 60
f 48 59 58
f 48 49 59
f 48 58 57
f 48 57 47
f 45 42 41
f 45 41 50
f 45 47 46
f 45 50 49
f 45 43 42
f 45 49 48
f 45 44 43
f 45 48 47
f 45 56 55
f 45 46 56
f 52 41 42
f 52 51 41
f 52 42 43
f 52 43 53
f 54 60 51
f 54 56 57
f 54 57 58
f 54 59 60
f 54 55 56
f 54 51 52
f 54 58 59
f 54 52 53
f 54 44 45
f 54 45 55
f 54 43 44
f 54 53 43
o Grip_Binding_3
usemtl cloth
v -0.124000 0.000000 0.270000
v -0.100318 -0.072885 0.270000
v -0.038318 -0.117931 0.270000
v 0.038318 -0.117931 0.270000
v 0.100318 -0.072885 0.270000
v 0.124000 -0.000000 0.270000
v 0.100318 0.072885 0.270000
v 0.038318 0.117931 0.270000
v -0.038318 0.117931 0.270000
v -0.100318 0.072885 0.270000
v -0.124000 0.000000 0.304000
v -0.100318 -0.072885 0.304000
v -0.038318 -0.117931 0.304000
v 0.038318 -0.117931 0.304000
v 0.100318 -0.072885 0.304000
v 0.124000 -0.000000 0.304000
v 0.100318 0.072885 0.304000
v 0.038318 0.117931 0.304000
v -0.038318 0.117931 0.304000
v -0.100318 0.072885 0.304000
f 80 70 61
f 80 61 71
f 78 67 68
f 78 77 67
f 76 66 67
f 76 67 77
f 76 65 66
f 76 75 65
f 79 69 70
f 79 70 80
f 79 68 69
f 79 78 68
f 72 61 62
f 72 71 61
f 72 62 63
f 72 63 73
f 64 62 61
f 64 61 70
f 64 67 66
f 64 70 69
f 64 63 62
f 64 69 68
f 64 68 67
f 64 66 65
f 74 80 71
f 74 76 77
f 74 77 78
f 74 79 80
f 74 75 76
f 74 71 72
f 74 78 79
f 74 72 73
f 74 65 75
f 74 64 65
f 74 73 63
f 74 63 64
o Grip_Binding_4
usemtl cloth
v -0.124000 0.000000 0.420000
v -0.100318 -0.072885 0.420000
v -0.038318 -0.117931 0.420000
v 0.038318 -0.117931 0.420000
v 0.100318 -0.072885 0.420000
v 0.124000 -0.000000 0.420000
v 0.100318 0.072885 0.420000
v 0.038318 0.117931 0.420000
v -0.038318 0.117931 0.420000
v -0.100318 0.072885 0.420000
v -0.124000 0.000000 0.454000
v -0.100318 -0.072885 0.454000
v -0.038318 -0.117931 0.454000
v 0.038318 -0.117931 0.454000
v 0.100318 -0.072885 0.454000
v 0.124000 -0.000000 0.454000
v 0.100318 0.072885 0.454000
v 0.038318 0.117931 0.454000
v -0.038318 0.117931 0.454000
v -0.100318 0.072885 0.454000
f 100 90 81
f 100 81 91
f 92 81 82
f 92 91 81
f 99 88 89
f 99 98 88
f 99 89 90
f 99 90 100
f 84 82 81
f 84 81 90
f 84 89 88
f 84 90 89
f 84 83 82
f 84 87 86
f 84 88 87
f 84 86 85
f 97 87 88
f 97 88 98
f 97 86 87
f 97 96 86
f 95 84 85
f 95 94 84
f 95 85 86
f 95 86 96
f 93 98 99
f 93 100 91
f 93 91 92
f 93 97 98
f 93 94 95
f 93 99 100
f 93 96 97
f 93 95 96
f 93 83 84
f 93 84 94
f 93 82 83
f 93 92 82
o Grip_Binding_5
usemtl cloth
v -0.124000 0.000000 0.570000
v -0.100318 -0.072885 0.570000
v -0.038318 -0.117931 0.570000
v 0.038318 -0.117931 0.570000
v 0.100318 -0.072885 0.570000
v 0.124000 -0.000000 0.570000
v 0.100318 0.072885 0.570000
v 0.038318 0.117931 0.570000
v -0.038318 0.117931 0.570000
v -0.100318 0.072885 0.570000
v -0.124000 0.000000 0.604000
v -0.100318 -0.072885 0.604000
v -0.038318 -0.117931 0.604000
v 0.038318 -0.117931 0.604000
v 0.100318 -0.072885 0.604000
v 0.124000 -0.000000 0.604000
v 0.100318 0.072885 0.604000
v 0.038318 0.117931 0.604000
v -0.038318 0.117931 0.604000
v -0.100318 0.072885 0.604000
f 120 110 101
f 120 101 111
f 118 107 108
f 118 117 107
f 116 106 107
f 116 107 117
f 116 105 106
f 116 115 105
f 119 109 110
f 119 110 120
f 119 108 109
f 119 118 108
f 112 101 102
f 112 111 101
f 112 102 103
f 112 103 113
f 104 102 101
f 104 101 110
f 104 107 106
f 104 110 109
f 104 103 102
f 104 109 108
f 104 108 107
f 104 106 105
f 114 120 111
f 114 116 117
f 114 117 118
f 114 119 120
f 114 115 116
f 114 111 112
f 114 118 119
f 114 112 113
f 114 105 115
f 114 104 105
f 114 113 103
f 114 103 104
o Grip_Binding_6
usemtl cloth
v -0.124000 0.000000 0.720000
v -0.100318 -0.072885 0.720000
v -0.038318 -0.117931 0.720000
v 0.038318 -0.117931 0.720000
v 0.100318 -0.072885 0.720000
v 0.124000 -0.000000 0.720000
v 0.100318 0.072885 0.720000
v 0.038318 0.117931 0.720000
v -0.038318 0.117931 0.720000
v -0.100318 0.072885 0.720000
v -0.124000 0.000000 0.754000
v -0.100318 -0.072885 0.754000
v -0.038318 -0.117931 0.754000
v 0.038318 -0.117931 0.754000
v 0.100318 -0.072885 0.754000
v 0.124000 -0.000000 0.754000
v 0.100318 0.072885 0.754000
v 0.038318 0.117931 0.754000
v -0.038318 0.117931 0.754000
v -0.100318 0.072885 0.754000
f 140 130 121
f 140 121 131
f 138 127 128
f 138 137 127
f 136 126 127
f 136 127 137
f 136 125 126
f 136 135 125
f 139 129 130
f 139 130 140
f 139 128 129
f 139 138 128
f 132 121 122
f 132 131 121
f 132 122 123
f 132 123 133
f 124 122 121
f 124 121 130
f 124 127 126
f 124 130 129
f 124 123 122
f 124 129 128
f 124 128 127
f 124 126 125
f 134 140 131
f 134 136 137
f 134 137 138
f 134 139 140
f 134 135 136
f 134 131 132
f 134 138 139
f 134 132 133
f 134 125 135
f 134 124 125
f 134 133 123
f 134 123 124
o Head_Socket_7
usemtl dark
v -0.175000 -0.110000 1.910000
v -0.175000 -0.110000 2.190000
v -0.175000 0.110000 1.910000
v -0.175000 0.110000 2.190000
v 0.175000 -0.110000 1.910000
v 0.175000 -0.110000 2.190000
v 0.175000 0.110000 1.910000
v 0.175000 0.110000 2.190000
v -0.125000 -0.160000 1.910000
v -0.125000 -0.160000 2.190000
v 0.125000 -0.160000 1.910000
v 0.125000 -0.160000 2.190000
v -0.125000 0.160000 1.910000
v -0.125000 0.160000 2.190000
v 0.125000 0.160000 1.910000
v 0.125000 0.160000 2.190000
v -0.125000 -0.110000 1.860000
v -0.125000 0.110000 1.860000
v 0.125000 -0.110000 1.860000
v 0.125000 0.110000 1.860000
v -0.125000 -0.110000 2.240000
v -0.125000 0.110000 2.240000
v 0.125000 -0.110000 2.240000
v 0.125000 0.110000 2.240000
f 148 156 164
f 149 141 157
f 162 154 144
f 147 160 155
f 158 143 153
f 150 161 142
f 151 159 145
f 152 146 163
f 143 141 142
f 143 142 144
f 154 156 155
f 154 155 153
f 154 143 144
f 154 153 143
f 162 144 142
f 162 142 161
f 162 156 154
f 162 164 156
f 147 159 160
f 147 145 159
f 147 146 145
f 147 148 146
f 147 155 156
f 147 156 148
f 158 153 155
f 158 155 160
f 158 160 159
f 158 159 157
f 158 141 143
f 158 157 141
f 163 162 161
f 163 164 162
f 163 146 148
f 163 148 164
f 150 142 141
f 150 141 149
f 151 157 159
f 151 149 157
f 152 163 161
f 152 161 150
f 152 145 146
f 152 151 145
f 152 150 149
f 152 149 151
o Tapered_Pick_Tine_8
usemtl stone
v -0.110000 0.145000 2.150000
v -0.100608 0.072500 2.024778
v -0.100608 -0.072500 2.024778
v -0.110000 -0.145000 2.150000
v -0.119392 -0.072500 2.275222
v -0.119392 0.072500 2.275222
v -0.510000 0.115000 2.120000
v -0.502551 0.057500 2.020686
v -0.502551 -0.057500 2.020686
v -0.510000 -0.115000 2.120000
v -0.517449 -0.057500 2.219314
v -0.517449 0.057500 2.219314
f 167 165 170
f 167 169 168
f 167 166 165
f 167 170 169
f 174 168 169
f 174 169 175
f 174 167 168
f 174 173 167
f 172 165 166
f 172 171 165
f 172 166 167
f 172 167 173
f 176 174 175
f 176 171 172
f 176 173 174
f 176 172 173
f 176 169 170
f 176 175 169
f 176 170 165
f 176 165 171
o Tapered_Pick_Tine_9
usemtl stone
v -0.510000 0.115000 2.120000
v -0.464391 0.057500 2.031464
v -0.464391 -0.057500 2.031464
v -0.510000 -0.115000 2.120000
v -0.555609 -0.057500 2.208536
v -0.555609 0.057500 2.208536
v -0.840000 0.065000 1.950000
v -0.814221 0.032500 1.899958
v -0.814221 -0.032500 1.899958
v -0.840000 -0.065000 1.950000
v -0.865779 -0.032500 2.000042
v -0.865779 0.032500 2.000042
f 179 177 182
f 179 181 180
f 179 178 177
f 179 182 181
f 186 180 181
f 186 181 187
f 186 179 180
f 186 185 179
f 184 177 178
f 184 183 177
f 184 178 179
f 184 179 185
f 188 186 187
f 188 183 184
f 188 185 186
f 188 184 185
f 188 181 182
f 188 187 181
f 188 182 177
f 188 177 183
o Tapered_Pick_Tine_10
usemtl stone
v -0.840000 0.065000 1.950000
v -0.800926 0.032500 1.909479
v -0.800926 -0.032500 1.909479
v -0.840000 -0.065000 1.950000
v -0.879074 -0.032500 1.990521
v -0.879074 0.032500 1.990521
v -1.120000 0.007000 1.680000
v -1.115792 0.003500 1.675636
v -1.115792 -0.003500 1.675636
v -1.120000 -0.007000 1.680000
v -1.124208 -0.003500 1.684364
v -1.124208 0.003500 1.684364
f 194 190 189
f 194 193 192
f 194 191 190
f 194 192 191
f 196 189 190
f 196 195 189
f 196 190 191
f 196 191 197
f 198 192 193
f 198 193 199
f 198 191 192
f 198 197 191
f 200 196 197
f 200 198 199
f 200 195 196
f 200 197 198
f 200 193 194
f 200 199 193
f 200 194 189
f 200 189 195
o Tapered_Pick_Tine_11
usemtl stone
v 0.110000 -0.145000 2.150000
v 0.100608 -0.072500 2.024778
v 0.100608 0.072500 2.024778
v 0.110000 0.145000 2.150000
v 0.119392 0.072500 2.275222
v 0.119392 -0.072500 2.275222
v 0.510000 -0.115000 2.120000
v 0.502551 -0.057500 2.020686
v 0.502551 0.057500 2.020686
v 0.510000 0.115000 2.120000
v 0.517449 0.057500 2.219314
v 0.517449 -0.057500 2.219314
f 210 204 205
f 210 205 211
f 203 201 206
f 203 205 204
f 203 202 201
f 203 206 205
f 203 204 210
f 203 210 209
f 208 201 202
f 208 207 201
f 208 202 203
f 208 203 209
f 212 210 211
f 212 207 208
f 212 209 210
f 212 208 209
f 212 205 206
f 212 211 205
f 212 206 201
f 212 201 207
o Tapered_Pick_Tine_12
usemtl stone
v 0.510000 -0.115000 2.120000
v 0.464391 -0.057500 2.031464
v 0.464391 0.057500 2.031464
v 0.510000 0.115000 2.120000
v 0.555609 0.057500 2.208536
v 0.555609 -0.057500 2.208536
v 0.840000 -0.065000 1.950000
v 0.814221 -0.032500 1.899958
v 0.814221 0.032500 1.899958
v 0.840000 0.065000 1.950000
v 0.865779 0.032500 2.000042
v 0.865779 -0.032500 2.000042
f 222 216 217
f 222 217 223
f 215 213 218
f 215 217 216
f 215 214 213
f 215 218 217
f 215 216 222
f 215 222 221
f 220 213 214
f 220 219 213
f 220 214 215
f 220 215 221
f 224 222 223
f 224 219 220
f 224 221 222
f 224 220 221
f 224 217 218
f 224 223 217
f 224 218 213
f 224 213 219
o Tapered_Pick_Tine_13
usemtl stone
v 0.840000 -0.065000 1.950000
v 0.800926 -0.032500 1.909479
v 0.800926 0.032500 1.909479
v 0.840000 0.065000 1.950000
v 0.879074 0.032500 1.990521
v 0.879074 -0.032500 1.990521
v 1.120000 -0.007000 1.680000
v 1.115792 -0.003500 1.675636
v 1.115792 0.003500 1.675636
v 1.120000 0.007000 1.680000
v 1.124208 0.003500 1.684364
v 1.124208 -0.003500 1.684364
f 230 226 225
f 230 229 228
f 230 227 226
f 230 228 227
f 232 225 226
f 232 231 225
f 232 226 227
f 232 227 233
f 234 228 229
f 234 229 235
f 234 227 228
f 234 233 227
f 236 232 233
f 236 234 235
f 236 231 232
f 236 233 234
f 236 229 230
f 236 235 229
f 236 230 225
f 236 225 231
o Socket_Rivet_14
usemtl edge
v -0.047000 -0.171000 2.060000
v -0.033234 -0.171000 2.026766
v -0.000000 -0.171000 2.013000
v 0.033234 -0.171000 2.026766
v 0.047000 -0.171000 2.060000
v 0.033234 -0.171000 2.093234
v 0.000000 -0.171000 2.107000
v -0.033234 -0.171000 2.093234
v -0.047000 -0.192000 2.060000
v -0.033234 -0.192000 2.026766
v -0.000000 -0.192000 2.013000
v 0.033234 -0.192000 2.026766
v 0.047000 -0.192000 2.060000
v 0.033234 -0.192000 2.093234
v 0.000000 -0.192000 2.107000
v -0.033234 -0.192000 2.093234
f 246 237 238
f 246 245 237
f 242 237 244
f 242 238 237
f 242 241 240
f 242 239 238
f 242 244 243
f 242 240 239
f 249 240 241
f 249 248 240
f 249 241 242
f 249 242 250
f 251 250 242
f 251 242 243
f 247 239 240
f 247 240 248
f 247 238 239
f 247 246 238
f 252 248 249
f 252 245 246
f 252 250 251
f 252 249 250
f 252 247 248
f 252 246 247
f 252 244 237
f 252 237 245
f 252 243 244
f 252 251 243