# RIFTBOUND | Z up | flat shaded
mtllib Hollow_Warden.mtl
o Armoured_Torso_0
usemtl stone
v 0.612000 0.020000 1.856940
v 0.381576 0.292077 1.606292
v -0.136183 0.359275 1.787808
v -0.551393 0.170992 1.727752
v -0.551393 -0.130992 1.789217
v -0.136183 -0.319275 1.597886
v 0.381576 -0.252077 1.601352
v 1.020000 0.020000 2.288948
v 0.635960 0.473462 2.529590
v -0.226971 0.585458 2.326636
v -0.918988 0.271653 2.413072
v -0.918988 -0.231653 2.531138
v -0.226971 -0.545458 2.447514
v 0.635960 -0.433462 2.298999
v 0.734400 0.020000 3.163306
v 0.457891 0.346493 3.067112
v -0.163419 0.427130 3.121446
v -0.661672 0.201190 3.126657
v -0.661672 -0.161190 3.041784
v -0.163419 -0.387130 3.288729
v 0.457891 -0.306493 3.305061
v 0.051000 0.020000 3.535989
f 11 12 18
f 19 18 12
f 19 22 18
f 17 18 22
f 17 9 10
f 17 10 11
f 17 11 18
f 2 10 9
f 2 9 8
f 21 14 8
f 16 17 22
f 16 9 17
f 4 11 10
f 4 2 6
f 7 2 8
f 7 6 2
f 7 8 14
f 7 14 6
f 20 22 19
f 20 21 22
f 20 19 12
f 15 21 8
f 15 8 9
f 15 9 16
f 15 22 21
f 15 16 22
f 3 10 2
f 3 4 10
f 3 2 4
f 5 6 12
f 5 4 6
f 5 12 11
f 5 11 4
f 13 12 6
f 13 20 12
f 13 6 14
f 13 14 21
f 13 21 20
o Breastplate_1
usemtl stone
v -0.835000 -0.423000 2.227989
v -0.835000 -0.423000 3.323989
v -0.835000 -0.377000 2.227989
v -0.835000 -0.377000 3.323989
v 0.835000 -0.423000 2.227989
v 0.835000 -0.423000 3.323989
v 0.835000 -0.377000 2.227989
v 0.835000 -0.377000 3.323989
v -0.743000 -0.515000 2.227989
v -0.743000 -0.515000 3.323989
v 0.743000 -0.515000 2.227989
v 0.743000 -0.515000 3.323989
v -0.743000 -0.285000 2.227989
v -0.743000 -0.285000 3.323989
v 0.743000 -0.285000 2.227989
v 0.743000 -0.285000 3.323989
v -0.743000 -0.423000 2.135989
v -0.743000 -0.377000 2.135989
v 0.743000 -0.423000 2.135989
v 0.743000 -0.377000 2.135989
v -0.743000 -0.423000 3.415989
v -0.743000 -0.377000 3.415989
v 0.743000 -0.423000 3.415989
v 0.743000 -0.377000 3.415989
f 31 23 39
f 44 36 26
f 29 42 37
f 40 25 35
f 46 30 38
f 34 28 45
f 32 43 24
f 33 41 27
f 25 23 24
f 25 24 26
f 36 38 37
f 36 37 35
f 36 25 26
f 36 35 25
f 44 26 24
f 44 24 43
f 29 37 38
f 29 38 30
f 40 35 37
f 40 37 42
f 40 23 25
f 40 39 23
f 28 29 30
f 28 27 29
f 46 28 30
f 46 45 28
f 46 38 36
f 46 36 44
f 46 44 43
f 46 43 45
f 32 24 23
f 32 23 31
f 32 45 43
f 32 34 45
f 41 40 42
f 41 39 40
f 41 29 27
f 41 42 29
f 33 27 28
f 33 28 34
f 33 32 31
f 33 34 32
f 33 39 41
f 33 31 39
o Lower_Cuirass_2
usemtl dark
v -0.630000 -0.390000 1.825989
v -0.630000 -0.390000 2.145989
v -0.630000 -0.310000 1.825989
v -0.630000 -0.310000 2.145989
v 0.630000 -0.390000 1.825989
v 0.630000 -0.390000 2.145989
v 0.630000 -0.310000 1.825989
v 0.630000 -0.310000 2.145989
v -0.570000 -0.450000 1.825989
v -0.570000 -0.450000 2.145989
v 0.570000 -0.450000 1.825989
v 0.570000 -0.450000 2.145989
v -0.570000 -0.250000 1.825989
v -0.570000 -0.250000 2.145989
v 0.570000 -0.250000 1.825989
v 0.570000 -0.250000 2.145989
v -0.570000 -0.390000 1.765989
v -0.570000 -0.310000 1.765989
v 0.570000 -0.390000 1.765989
v 0.570000 -0.310000 1.765989
v -0.570000 -0.390000 2.205989
v -0.570000 -0.310000 2.205989
v 0.570000 -0.390000 2.205989
v 0.570000 -0.310000 2.205989
f 55 47 63
f 68 60 50
f 53 66 61
f 64 49 59
f 70 54 62
f 58 52 69
f 56 67 48
f 57 65 51
f 49 47 48
f 49 48 50
f 60 62 61
f 60 61 59
f 60 49 50
f 60 59 49
f 68 50 48
f 68 48 67
f 53 65 66
f 53 51 65
f 53 61 62
f 53 62 54
f 64 59 61
f 64 61 66
f 64 66 65
f 64 65 63
f 64 47 49
f 64 63 47
f 52 51 53
f 52 53 54
f 70 52 54
f 70 69 52
f 70 62 60
f 70 60 68
f 70 68 67
f 70 67 69
f 56 48 47
f 56 47 55
f 56 69 67
f 56 58 69
f 57 51 52
f 57 52 58
f 57 63 65
f 57 55 63
f 57 56 55
f 57 58 56
o Pectoral_3
usemtl edge
v -0.770000 -0.560000 2.815989
v -0.770000 -0.560000 3.175989
v -0.770000 -0.500000 2.815989
v -0.770000 -0.500000 3.175989
v -0.090000 -0.560000 2.815989
v -0.090000 -0.560000 3.175989
v -0.090000 -0.500000 2.815989
v -0.090000 -0.500000 3.175989
v -0.720000 -0.610000 2.815989
v -0.720000 -0.610000 3.175989
v -0.140000 -0.610000 2.815989
v -0.140000 -0.610000 3.175989
v -0.720000 -0.450000 2.815989
v -0.720000 -0.450000 3.175989
v -0.140000 -0.450000 2.815989
v -0.140000 -0.450000 3.175989
v -0.720000 -0.560000 2.765989
v -0.720000 -0.500000 2.765989
v -0.140000 -0.560000 2.765989
v -0.140000 -0.500000 2.765989
v -0.720000 -0.560000 3.225989
v -0.720000 -0.500000 3.225989
v -0.140000 -0.560000 3.225989
v -0.140000 -0.500000 3.225989
f 79 71 87
f 92 84 74
f 77 90 85
f 88 73 83
f 94 78 86
f 82 76 93
f 80 91 72
f 81 89 75
f 73 71 72
f 73 72 74
f 84 86 85
f 84 85 83
f 84 73 74
f 84 83 73
f 92 74 72
f 92 72 91
f 77 89 90
f 77 75 89
f 77 85 86
f 77 86 78
f 88 83 85
f 88 85 90
f 88 90 89
f 88 89 87
f 88 71 73
f 88 87 71
f 76 75 77
f 76 77 78
f 94 76 78
f 94 93 76
f 94 86 84
f 94 84 92
f 94 92 91
f 94 91 93
f 80 72 71
f 80 71 79
f 80 93 91
f 80 82 93
f 81 75 76
f 81 76 82
f 81 87 89
f 81 79 87
f 81 80 79
f 81 82 80
o Waist_Band_4
usemtl copper
v -0.630000 -0.500000 2.100989
v -0.630000 -0.500000 2.210989
v -0.630000 -0.440000 2.100989
v -0.630000 -0.440000 2.210989
v -0.050000 -0.500000 2.100989
v -0.050000 -0.500000 2.210989
v -0.050000 -0.440000 2.100989
v -0.050000 -0.440000 2.210989
v -0.600000 -0.530000 2.100989
v -0.600000 -0.530000 2.210989
v -0.080000 -0.530000 2.100989
v -0.080000 -0.530000 2.210989
v -0.600000 -0.410000 2.100989
v -0.600000 -0.410000 2.210989
v -0.080000 -0.410000 2.100989
v -0.080000 -0.410000 2.210989
v -0.600000 -0.500000 2.070989
v -0.600000 -0.440000 2.070989
v -0.080000 -0.500000 2.070989
v -0.080000 -0.440000 2.070989
v -0.600000 -0.500000 2.240989
v -0.600000 -0.440000 2.240989
v -0.080000 -0.500000 2.240989
v -0.080000 -0.440000 2.240989
f 103 95 111
f 116 108 98
f 101 114 109
f 112 97 107
f 118 102 110
f 104 115 96
f 105 113 99
f 106 100 117
f 97 95 96
f 97 96 98
f 108 110 109
f 108 109 107
f 108 97 98
f 108 107 97
f 116 98 96
f 116 96 115
f 101 113 114
f 101 99 113
f 101 109 110
f 101 110 102
f 112 107 109
f 112 109 114
f 112 114 113
f 112 113 111
f 112 95 97
f 112 111 95
f 100 99 101
f 100 101 102
f 118 100 102
f 118 117 100
f 118 110 108
f 118 108 116
f 118 116 115
f 118 115 117
f 104 96 95
f 104 95 103
f 105 111 113
f 105 103 111
f 106 99 100
f 106 105 99
f 106 117 115
f 106 115 104
f 106 104 103
f 106 103 105
o Rib_Plate_5
usemtl dark
v -0.360000 -0.565000 2.563489
v -0.360000 -0.565000 2.608489
v -0.360000 -0.535000 2.563489
v -0.360000 -0.535000 2.608489
v -0.140000 -0.565000 2.563489
v -0.140000 -0.565000 2.608489
v -0.140000 -0.535000 2.563489
v -0.140000 -0.535000 2.608489
v -0.340000 -0.585000 2.563489
v -0.340000 -0.585000 2.608489
v -0.160000 -0.585000 2.563489
v -0.160000 -0.585000 2.608489
v -0.340000 -0.515000 2.563489
v -0.340000 -0.515000 2.608489
v -0.160000 -0.515000 2.563489
v -0.160000 -0.515000 2.608489
v -0.340000 -0.565000 2.543489
v -0.340000 -0.535000 2.543489
v -0.160000 -0.565000 2.543489
v -0.160000 -0.535000 2.543489
v -0.340000 -0.565000 2.628489
v -0.340000 -0.535000 2.628489
v -0.160000 -0.565000 2.628489
v -0.160000 -0.535000 2.628489
f 127 119 135
f 140 132 122
f 125 138 133
f 136 121 131
f 142 126 134
f 130 124 141
f 128 139 120
f 129 137 123
f 121 119 120
f 121 120 122
f 132 134 133
f 132 133 131
f 132 121 122
f 132 131 121
f 140 122 120
f 140 120 139
f 125 137 138
f 125 123 137
f 125 133 134
f 125 134 126
f 136 131 133
f 136 133 138
f 136 138 137
f 136 137 135
f 136 119 121
f 136 135 119
f 124 123 125
f 124 125 126
f 142 124 126
f 142 141 124
f 142 134 132
f 142 132 140
f 142 140 139
f 142 139 141
f 128 120 119
f 128 119 127
f 128 141 139
f 128 130 141
f 129 123 124
f 129 124 130
f 129 135 137
f 129 127 135
f 129 128 127
f 129 130 128
o Rib_Plate_6
usemtl dark
v -0.510000 -0.565000 2.393489
v -0.510000 -0.565000 2.438489
v -0.510000 -0.535000 2.393489
v -0.510000 -0.535000 2.438489
v -0.290000 -0.565000 2.393489
v -0.290000 -0.565000 2.438489
v -0.290000 -0.535000 2.393489
v -0.290000 -0.535000 2.438489
v -0.490000 -0.585000 2.393489
v -0.490000 -0.585000 2.438489
v -0.310000 -0.585000 2.393489
v -0.310000 -0.585000 2.438489
v -0.490000 -0.515000 2.393489
v -0.490000 -0.515000 2.438489
v -0.310000 -0.515000 2.393489
v -0.310000 -0.515000 2.438489
v -0.490000 -0.565000 2.373489
v -0.490000 -0.535000 2.373489
v -0.310000 -0.565000 2.373489
v -0.310000 -0.535000 2.373489
v -0.490000 -0.565000 2.458489
v -0.490000 -0.535000 2.458489
v -0.310000 -0.565000 2.458489
v -0.310000 -0.535000 2.458489
f 151 143 159
f 164 156 146
f 149 162 157
f 160 145 155
f 166 150 158
f 154 148 165
f 152 163 144
f 153 161 147
f 145 143 144
f 145 144 146
f 156 158 157
f 156 157 155
f 156 145 146
f 156 155 145
f 164 146 144
f 164 144 163
f 149 161 162
f 149 147 161
f 149 157 158
f 149 158 150
f 160 155 157
f 160 157 162
f 160 162 161
f 160 161 159
f 160 143 145
f 160 159 143
f 148 147 149
f 148 149 150
f 166 148 150
f 166 165 148
f 166 158 156
f 166 156 164
f 166 164 163
f 166 163 165
f 152 144 143
f 152 143 151
f 152 165 163
f 152 154 165
f 153 147 148
f 153 148 154
f 153 159 161
f 153 151 159
f 153 152 151
f 153 154 152
o Rib_Plate_7
usemtl dark
v -0.660000 -0.565000 2.223489
v -0.660000 -0.565000 2.268489
v -0.660000 -0.535000 2.223489
v -0.660000 -0.535000 2.268489
v -0.440000 -0.565000 2.223489
v -0.440000 -0.565000 2.268489
v -0.440000 -0.535000 2.223489
v -0.440000 -0.535000 2.268489
v -0.640000 -0.585000 2.223489
v -0.640000 -0.585000 2.268489
v -0.460000 -0.585000 2.223489
v -0.460000 -0.585000 2.268489
v -0.640000 -0.515000 2.223489
v -0.640000 -0.515000 2.268489
v -0.460000 -0.515000 2.223489
v -0.460000 -0.515000 2.268489
v -0.640000 -0.565000 2.203489
v -0.640000 -0.535000 2.203489
v -0.460000 -0.565000 2.203489
v -0.460000 -0.535000 2.203489
v -0.640000 -0.565000 2.288489
v -0.640000 -0.535000 2.288489
v -0.460000 -0.565000 2.288489
v -0.460000 -0.535000 2.288489
f 175 167 183
f 188 180 170
f 173 186 181
f 184 169 179
f 190 174 182
f 178 172 189
f 176 187 168
f 177 185 171
f 169 167 168
f 169 168 170
f 180 182 181
f 180 181 179
f 180 169 170
f 180 179 169
f 188 170 168
f 188 168 187
f 173 185 186
f 173 171 185
f 173 181 182
f 173 182 174
f 184 179 181
f 184 181 186
f 184 186 185
f 184 185 183
f 184 167 169
f 184 183 167
f 172 171 173
f 172 173 174
f 190 172 174
f 190 189 172
f 190 182 180
f 190 180 188
f 190 188 187
f 190 187 189
f 176 168 167
f 176 167 175
f 176 189 187
f 176 178 189
f 177 171 172
f 177 172 178
f 177 183 185
f 177 175 183
f 177 176 175
f 177 178 176
o Pectoral_8
usemtl edge
v 0.090000 -0.560000 2.815989
v 0.090000 -0.560000 3.175989
v 0.090000 -0.500000 2.815989
v 0.090000 -0.500000 3.175989
v 0.770000 -0.560000 2.815989
v 0.770000 -0.560000 3.175989
v 0.770000 -0.500000 2.815989
v 0.770000 -0.500000 3.175989
v 0.140000 -0.610000 2.815989
v 0.140000 -0.610000 3.175989
v 0.720000 -0.610000 2.815989
v 0.720000 -0.610000 3.175989
v 0.140000 -0.450000 2.815989
v 0.140000 -0.450000 3.175989
v 0.720000 -0.450000 2.815989
v 0.720000 -0.450000 3.175989
v 0.140000 -0.560000 2.765989
v 0.140000 -0.500000 2.765989
v 0.720000 -0.560000 2.765989
v 0.720000 -0.500000 2.765989
v 0.140000 -0.560000 3.225989
v 0.140000 -0.500000 3.225989
v 0.720000 -0.560000 3.225989
v 0.720000 -0.500000 3.225989
f 199 191 207
f 212 204 194
f 197 210 205
f 208 193 203
f 214 198 206
f 202 196 213
f 200 211 192
f 201 209 195
f 193 191 192
f 193 192 194
f 204 206 205
f 204 205 203
f 204 193 194
f 204 203 193
f 212 194 192
f 212 192 211
f 197 209 210
f 197 195 209
f 197 205 206
f 197 206 198
f 208 203 205
f 208 205 210
f 208 210 209
f 208 209 207
f 208 191 193
f 208 207 191
f 196 195 197
f 196 197 198
f 214 196 198
f 214 213 196
f 214 206 204
f 214 204 212
f 214 212 211
f 214 211 213
f 200 192 191
f 200 191 199
f 200 213 211
f 200 202 213
f 201 195 196
f 201 196 202
f 201 207 209
f 201 199 207
f 201 200 199
f 201 202 200
o Waist_Band_9
usemtl copper
v 0.050000 -0.500000 2.100989
v 0.050000 -0.500000 2.210989
v 0.050000 -0.440000 2.100989
v 0.050000 -0.440000 2.210989
v 0.630000 -0.500000 2.100989
v 0.630000 -0.500000 2.210989
v 0.630000 -0.440000 2.100989
v 0.630000 -0.440000 2.210989
v 0.080000 -0.530000 2.100989
v 0.080000 -0.530000 2.210989
v 0.600000 -0.530000 2.100989
v 0.600000 -0.530000 2.210989
v 0.080000 -0.410000 2.100989
v 0.080000 -0.410000 2.210989
v 0.600000 -0.410000 2.100989
v 0.600000 -0.410000 2.210989
v 0.080000 -0.500000 2.070989
v 0.080000 -0.440000 2.070989
v 0.600000 -0.500000 2.070989
v 0.600000 -0.440000 2.070989
v 0.080000 -0.500000 2.240989
v 0.080000 -0.440000 2.240989
v 0.600000 -0.500000 2.240989
v 0.600000 -0.440000 2.240989
f 223 215 231
f 236 228 218
f 221 234 229
f 232 217 227
f 238 222 230
f 224 235 216
f 225 233 219
f 226 220 237
f 217 215 216
f 217 216 218
f 228 230 229
f 228 229 227
f 228 217 218
f 228 227 217
f 236 218 216
f 236 216 235
f 221 233 234
f 221 219 233
f 221 229 230
f 221 230 222
f 232 227 229
f 232 229 234
f 232 234 233
f 232 233 231
f 232 215 217
f 232 231 215
f 220 219 221
f 220 221 222
f 238 220 222
f 238 237 220
f 238 230 228
f 238 228 236
f 238 236 235
f 238 235 237
f 224 216 215
f 224 215 223
f 225 231 233
f 225 223 231
f 226 219 220
f 226 225 219
f 226 237 235
f 226 235 224
f 226 224 223
f 226 223 225
o Rib_Plate_10
usemtl dark
v 0.140000 -0.565000 2.563489
v 0.140000 -0.565000 2.608489
v 0.140000 -0.535000 2.563489
v 0.140000 -0.535000 2.608489
v 0.360000 -0.565000 2.563489
v 0.360000 -0.565000 2.608489
v 0.360000 -0.535000 2.563489
v 0.360000 -0.535000 2.608489
v 0.160000 -0.585000 2.563489
v 0.160000 -0.585000 2.608489
v 0.340000 -0.585000 2.563489
v 0.340000 -0.585000 2.608489
v 0.160000 -0.515000 2.563489
v 0.160000 -0.515000 2.608489
v 0.340000 -0.515000 2.563489
v 0.340000 -0.515000 2.608489
v 0.160000 -0.565000 2.543489
v 0.160000 -0.535000 2.543489
v 0.340000 -0.565000 2.543489
v 0.340000 -0.535000 2.543489
v 0.160000 -0.565000 2.628489
v 0.160000 -0.535000 2.628489
v 0.340000 -0.565000 2.628489
v 0.340000 -0.535000 2.628489
f 247 239 255
f 260 252 242
f 245 258 253
f 256 241 251
f 262 246 254
f 250 244 261
f 248 259 240
f 249 257 243
f 241 239 240
f 241 240 242
f 252 254 253
f 252 253 251
f 252 241 242
f 252 251 241
f 260 242 240
f 260 240 259
f 245 257 258
f 245 243 257
f 245 253 254
f 245 254 246
f 256 251 253
f 256 253 258
f 256 258 257
f 256 257 255
f 256 239 241
f 256 255 239
f 244 243 245
f 244 245 246
f 262 244 246
f 262 261 244
f 262 254 252
f 262 252 260
f 262 260 259
f 262 259 261
f 248 240 239
f 248 239 247
f 248 261 259
f 248 250 261
f 249 243 244
f 249 244 250
f 249 255 257
f 249 247 255
f 249 248 247
f 249 250 248
o Rib_Plate_11
usemtl dark
v 0.290000 -0.565000 2.393489
v 0.290000 -0.565000 2.438489
v 0.290000 -0.535000 2.393489
v 0.290000 -0.535000 2.438489
v 0.510000 -0.565000 2.393489
v 0.510000 -0.565000 2.438489
v 0.510000 -0.535000 2.393489
v 0.510000 -0.535000 2.438489
v 0.310000 -0.585000 2.393489
v 0.310000 -0.585000 2.438489
v 0.490000 -0.585000 2.393489
v 0.490000 -0.585000 2.438489
v 0.310000 -0.515000 2.393489
v 0.310000 -0.515000 2.438489
v 0.490000 -0.515000 2.393489
v 0.490000 -0.515000 2.438489
v 0.310000 -0.565000 2.373489
v 0.310000 -0.535000 2.373489
v 0.490000 -0.565000 2.373489
v 0.490000 -0.535000 2.373489
v 0.310000 -0.565000 2.458489
v 0.310000 -0.535000 2.458489
v 0.490000 -0.565000 2.458489
v 0.490000 -0.535000 2.458489
f 271 263 279
f 284 276 266
f 269 282 277
f 280 265 275
f 286 270 278
f 274 268 285
f 272 283 264
f 273 281 267
f 265 263 264
f 265 264 266
f 276 278 277
f 276 277 275
f 276 265 266
f 276 275 265
f 284 266 264
f 284 264 283
f 269 281 282
f 269 267 281
f 269 277 278
f 269 278 270
f 280 275 277
f 280 277 282
f 280 282 281
f 280 281 279
f 280 263 265
f 280 279 263
f 268 267 269
f 268 269 270
f 286 268 270
f 286 285 268
f 286 278 276
f 286 276 284
f 286 284 283
f 286 283 285
f 272 264 263
f 272 263 271
f 272 285 283
f 272 274 285
f 273 267 268
f 273 268 274
f 273 279 281
f 273 271 279
f 273 272 271
f 273 274 272
o Rib_Plate_12
usemtl dark
v 0.440000 -0.565000 2.223489
v 0.440000 -0.565000 2.268489
v 0.440000 -0.535000 2.223489
v 0.440000 -0.535000 2.268489
v 0.660000 -0.565000 2.223489
v 0.660000 -0.565000 2.268489
v 0.660000 -0.535000 2.223489
v 0.660000 -0.535000 2.268489
v 0.460000 -0.585000 2.223489
v 0.460000 -0.585000 2.268489
v 0.640000 -0.585000 2.223489
v 0.640000 -0.585000 2.268489
v 0.460000 -0.515000 2.223489
v 0.460000 -0.515000 2.268489
v 0.640000 -0.515000 2.223489
v 0.640000 -0.515000 2.268489
v 0.460000 -0.565000 2.203489
v 0.460000 -0.535000 2.203489
v 0.640000 -0.565000 2.203489
v 0.640000 -0.535000 2.203489
v 0.460000 -0.565000 2.288489
v 0.460000 -0.535000 2.288489
v 0.640000 -0.565000 2.288489
v 0.640000 -0.535000 2.288489
f 295 287 303
f 308 300 290
f 293 306 301
f 304 289 299
f 310 294 302
f 298 292 309
f 296 307 288
f 297 305 291
f 289 287 288
f 289 288 290
f 300 302 301
f 300 301 299
f 300 289 290
f 300 299 289
f 308 290 288
f 308 288 307
f 293 305 306
f 293 291 305
f 293 301 302
f 293 302 294
f 304 299 301
f 304 301 306
f 304 306 305
f 304 305 303
f 304 287 289
f 304 303 287
f 292 291 293
f 292 293 294
f 310 292 294
f 310 309 292
f 310 302 300
f 310 300 308
f 310 308 307
f 310 307 309
f 296 288 287
f 296 287 295
f 296 309 307
f 296 298 309
f 297 291 292
f 297 292 298
f 297 303 305
f 297 295 303
f 297 296 295
f 297 298 296
o Core_Frame_13
usemtl copper
v -0.295000 -0.635000 2.325989
v -0.295000 -0.635000 3.005989
v -0.295000 -0.605000 2.325989
v -0.295000 -0.605000 3.005989
v 0.295000 -0.635000 2.325989
v 0.295000 -0.635000 3.005989
v 0.295000 -0.605000 2.325989
v 0.295000 -0.605000 3.005989
v -0.235000 -0.695000 2.325989
v -0.235000 -0.695000 3.005989
v 0.235000 -0.695000 2.325989
v 0.235000 -0.695000 3.005989
v -0.235000 -0.545000 2.325989
v -0.235000 -0.545000 3.005989
v 0.235000 -0.545000 2.325989
v 0.235000 -0.545000 3.005989
v -0.235000 -0.635000 2.265989
v -0.235000 -0.605000 2.265989
v 0.235000 -0.635000 2.265989
v 0.235000 -0.605000 2.265989
v -0.235000 -0.635000 3.065989
v -0.235000 -0.605000 3.065989
v 0.235000 -0.635000 3.065989
v 0.235000 -0.605000 3.065989
f 318 326 334
f 319 311 327
f 332 324 314
f 317 330 325
f 328 313 323
f 320 331 312
f 322 316 333
f 321 329 315
f 313 311 312
f 313 312 314
f 324 326 325
f 324 325 323
f 324 313 314
f 324 323 313
f 332 314 312
f 332 312 331
f 332 326 324
f 332 334 326
f 317 318 316
f 317 316 315
f 317 325 326
f 317 326 318
f 328 323 325
f 328 325 330
f 328 311 313
f 328 327 311
f 333 332 331
f 333 334 332
f 333 316 318
f 333 318 334
f 320 312 311
f 320 311 319
f 329 328 330
f 329 327 328
f 329 317 315
f 329 330 317
f 322 333 331
f 322 331 320
f 321 327 329
f 321 319 327
f 321 315 316
f 321 316 322
f 321 320 319
f 321 322 320
o Heart_Core_14
usemtl rift
v 0.143000 -0.720000 2.385989
v 0.071500 -0.596158 2.385989
v -0.071500 -0.596158 2.385989
v -0.143000 -0.720000 2.385989
v -0.071500 -0.843842 2.385989
v 0.071500 -0.843842 2.385989
v 0.220000 -0.674500 2.775989
v 0.110000 -0.483974 2.775989
v -0.110000 -0.483974 2.775989
v -0.220000 -0.674500 2.775989
v -0.110000 -0.865026 2.775989
v 0.110000 -0.865026 2.775989
v 0.000000 -0.650000 2.985989
f 347 346 341
f 342 347 341
f 345 347 344
f 345 346 347
f 343 344 347
f 343 347 342
f 340 335 341
f 340 341 346
f 340 346 345
f 340 345 339
f 338 339 345
f 338 345 344
f 336 341 335
f 336 342 341
f 337 340 339
f 337 335 340
f 337 339 338
f 337 336 335
f 337 338 344
f 337 344 343
f 337 342 336
f 337 343 342
o Core_Cage_15
usemtl gold
v -0.249885 -0.700000 2.418610
v -0.234903 -0.725977 2.417752
v -0.205018 -0.725977 2.415130
v -0.190115 -0.700000 2.413367
v -0.205097 -0.674023 2.414226
v -0.234982 -0.674023 2.416847
v -0.199885 -0.690000 2.988610
v -0.184903 -0.715977 2.987752
v -0.155018 -0.715977 2.985130
v -0.140115 -0.690000 2.983367
v -0.155097 -0.664023 2.984226
v -0.184982 -0.664023 2.986847
f 355 348 349
f 355 354 348
f 350 355 349
f 350 356 355
f 350 357 356
f 350 351 357
f 359 354 355
f 359 355 356
f 359 356 357
f 359 357 358
f 359 353 348
f 359 348 354
f 352 348 353
f 352 349 348
f 352 350 349
f 352 351 350
f 352 357 351
f 352 358 357
f 352 359 358
f 352 353 359
o Core_Cage_16
usemtl gold
v 0.190115 -0.700000 2.413367
v 0.205018 -0.725977 2.415130
v 0.234903 -0.725977 2.417752
v 0.249885 -0.700000 2.418610
v 0.234982 -0.674023 2.416847
v 0.205097 -0.674023 2.414226
v 0.140115 -0.690000 2.983367
v 0.155018 -0.715977 2.985130
v 0.184903 -0.715977 2.987752
v 0.199885 -0.690000 2.988610
v 0.184982 -0.664023 2.986847
v 0.155097 -0.664023 2.984226
f 371 369 370
f 371 366 367
f 371 368 369
f 371 367 368
f 371 360 366
f 371 365 360
f 364 370 369
f 364 369 363
f 364 371 370
f 364 365 371
f 362 369 368
f 362 363 369
f 361 365 364
f 361 360 365
f 361 364 363
f 361 363 362
f 361 367 366
f 361 366 360
f 361 368 367
f 361 362 368
o Back_Spike_17
usemtl dark
v -0.740268 0.424947 3.035989
v -0.794663 0.396309 2.970254
v -0.824395 0.311361 2.970254
v -0.799732 0.255053 3.035989
v -0.745337 0.283691 3.101724
v -0.715605 0.368639 3.101724
v -1.166696 0.489439 3.305989
v -1.172740 0.486257 3.298685
v -1.176044 0.476818 3.298685
v -1.173304 0.470561 3.305989
v -1.167260 0.473743 3.313293
v -1.163956 0.483182 3.313293
f 372 377 376
f 372 375 374
f 372 374 373
f 372 376 375
f 383 376 377
f 383 382 376
f 381 374 375
f 381 380 374
f 381 375 376
f 381 376 382
f 379 373 374
f 379 374 380
f 378 382 383
f 378 381 382
f 378 380 381
f 378 379 380
f 378 377 372
f 378 383 377
f 378 372 373
f 378 373 379
o Back_Spike_18
usemtl dark
v -0.748172 0.427313 3.135989
v -0.799100 0.393660 3.069854
v -0.820928 0.306347 3.069854
v -0.791828 0.252687 3.135989
v -0.740900 0.286340 3.202123
v -0.719072 0.373653 3.202123
v -1.327575 0.489701 3.495989
v -1.333233 0.485962 3.488640
v -1.335659 0.476261 3.488640
v -1.332425 0.470299 3.495989
v -1.326767 0.474038 3.503337
v -1.324341 0.483739 3.503337
f 385 387 386
f 385 384 389
f 385 389 388
f 385 388 387
f 395 389 384
f 395 384 390
f 395 388 389
f 395 394 388
f 393 386 387
f 393 392 386
f 393 387 388
f 393 388 394
f 391 394 395
f 391 392 393
f 391 395 390
f 391 393 394
f 391 385 386
f 391 386 392
f 391 384 385
f 391 390 384
o Back_Spike_19
usemtl dark
v 0.799732 0.255053 3.035989
v 0.824395 0.311361 2.970254
v 0.794663 0.396309 2.970254
v 0.740268 0.424947 3.035989
v 0.715605 0.368639 3.101724
v 0.745337 0.283691 3.101724
v 1.173304 0.470561 3.305989
v 1.176044 0.476818 3.298685
v 1.172740 0.486257 3.298685
v 1.166696 0.489439 3.305989
v 1.163956 0.483182 3.313293
v 1.167260 0.473743 3.313293
f 406 399 400
f 406 405 399
f 398 397 396
f 398 400 399
f 398 401 400
f 398 396 401
f 407 400 401
f 407 406 400
f 404 397 398
f 404 403 397
f 404 399 405
f 404 398 399
f 402 405 406
f 402 406 407
f 402 403 404
f 402 404 405
f 402 396 397
f 402 397 403
f 402 401 396
f 402 407 401
o Back_Spike_20
usemtl dark
v 0.791828 0.252687 3.135989
v 0.820928 0.306347 3.069854
v 0.799100 0.393660 3.069854
v 0.748172 0.427313 3.135989
v 0.719072 0.373653 3.202123
v 0.740900 0.286340 3.202123
v 1.332425 0.470299 3.495989
v 1.335659 0.476261 3.488640
v 1.333233 0.485962 3.488640
v 1.327575 0.489701 3.495989
v 1.324341 0.483739 3.503337
v 1.326767 0.474038 3.503337
f 411 413 412
f 411 409 408
f 411 410 409
f 411 408 413
f 414 408 409
f 414 409 415
f 416 409 410
f 416 415 409
f 419 412 413
f 419 418 412
f 419 413 408
f 419 408 414
f 417 414 415
f 417 415 416
f 417 418 419
f 417 419 414
f 417 411 412
f 417 412 418
f 417 410 411
f 417 416 410
o Hollow_Helm_21
usemtl dark
v 0.288000 0.000000 3.354477
v 0.179565 0.201713 3.459466
v -0.064086 0.251531 3.353164
v -0.259479 0.111942 3.427868
v -0.259479 -0.111942 3.440802
v -0.064086 -0.251531 3.364671
v 0.179565 -0.201713 3.372112
v 0.480000 0.000000 3.706256
v 0.299275 0.336188 3.663994
v -0.106810 0.419219 3.723144
v -0.432465 0.186570 3.685364
v -0.432465 -0.186570 3.687875
v -0.106810 -0.419219 3.676361
v 0.299275 -0.336188 3.677813
v 0.345600 0.000000 4.200387
v 0.215478 0.242055 4.138243
v -0.076903 0.301838 4.111680
v -0.311375 0.134330 4.164942
v -0.311375 -0.134330 4.167068
v -0.076903 -0.301838 4.173839
v 0.215478 -0.242055 4.215894
v 0.024000 0.000000 4.335989
f 430 429 422
f 430 437 429
f 428 422 429
f 428 429 435
f 438 441 437
f 438 430 431
f 438 437 430
f 434 441 440
f 434 435 441
f 434 440 427
f 434 427 428
f 434 428 435
f 436 437 441
f 436 441 435
f 436 429 437
f 436 435 429
f 423 422 425
f 423 431 430
f 423 430 422
f 420 425 422
f 420 428 427
f 439 438 431
f 439 440 441
f 439 441 438
f 433 427 440
f 433 420 427
f 424 425 431
f 424 431 423
f 424 423 425
f 421 422 428
f 421 420 422
f 421 428 420
f 426 425 420
f 426 433 425
f 426 420 433
f 432 425 433
f 432 431 425
f 432 439 431
f 432 440 439
f 432 433 440
o Faceplate_22
usemtl stone
v -0.360000 -0.420000 3.635989
v -0.360000 -0.420000 3.935989
v -0.360000 -0.380000 3.635989
v -0.360000 -0.380000 3.935989
v 0.360000 -0.420000 3.635989
v 0.360000 -0.420000 3.935989
v 0.360000 -0.380000 3.635989
v 0.360000 -0.380000 3.935989
v -0.290000 -0.490000 3.635989
v -0.290000 -0.490000 3.935989
v 0.290000 -0.490000 3.635989
v 0.290000 -0.490000 3.935989
v -0.290000 -0.310000 3.635989
v -0.290000 -0.310000 3.935989
v 0.290000 -0.310000 3.635989
v 0.290000 -0.310000 3.935989
v -0.290000 -0.420000 3.565989
v -0.290000 -0.380000 3.565989
v 0.290000 -0.420000 3.565989
v 0.290000 -0.380000 3.565989
v -0.290000 -0.420000 4.005989
v -0.290000 -0.380000 4.005989
v 0.290000 -0.420000 4.005989
v 0.290000 -0.380000 4.005989
f 450 442 458
f 463 455 445
f 448 461 456
f 459 444 454
f 465 449 457
f 453 447 464
f 451 462 443
f 460 446 452
f 444 442 443
f 444 443 445
f 455 457 456
f 455 456 454
f 455 444 445
f 455 454 444
f 463 445 443
f 463 443 462
f 448 456 457
f 448 457 449
f 459 454 456
f 459 456 461
f 459 442 444
f 459 458 442
f 447 448 449
f 447 446 448
f 465 447 449
f 465 464 447
f 465 457 455
f 465 455 463
f 465 463 462
f 465 462 464
f 451 443 442
f 451 442 450
f 451 464 462
f 451 453 464
f 452 446 447
f 452 447 453
f 452 451 450
f 452 453 451
f 460 448 446
f 460 461 448
f 460 459 461
f 460 458 459
f 460 452 450
f 460 450 458
o Visor_23
usemtl dark
v -0.275000 -0.514000 3.736989
v -0.275000 -0.514000 3.834989
v -0.275000 -0.506000 3.736989
v -0.275000 -0.506000 3.834989
v 0.275000 -0.514000 3.736989
v 0.275000 -0.514000 3.834989
v 0.275000 -0.506000 3.736989
v 0.275000 -0.506000 3.834989
v -0.259000 -0.530000 3.736989
v -0.259000 -0.530000 3.834989
v 0.259000 -0.530000 3.736989
v 0.259000 -0.530000 3.834989
v -0.259000 -0.490000 3.736989
v -0.259000 -0.490000 3.834989
v 0.259000 -0.490000 3.736989
v 0.259000 -0.490000 3.834989
v -0.259000 -0.514000 3.720989
v -0.259000 -0.506000 3.720989
v 0.259000 -0.514000 3.720989
v 0.259000 -0.506000 3.720989
v -0.259000 -0.514000 3.850989
v -0.259000 -0.506000 3.850989
v 0.259000 -0.514000 3.850989
v 0.259000 -0.506000 3.850989
f 474 466 482
f 487 479 469
f 472 485 480
f 483 468 478
f 489 473 481
f 475 486 467
f 484 470 476
f 477 471 488
f 468 466 467
f 468 467 469
f 479 481 480
f 479 480 478
f 479 468 469
f 479 478 468
f 487 469 467
f 487 467 486
f 472 480 481
f 472 481 473
f 483 478 480
f 483 480 485
f 483 466 468
f 483 482 466
f 471 472 473
f 471 470 472
f 489 471 473
f 489 488 471
f 489 481 479
f 489 479 487
f 489 487 486
f 489 486 488
f 475 467 466
f 475 466 474
f 484 483 485
f 484 482 483
f 484 474 482
f 484 476 474
f 484 472 470
f 484 485 472
f 477 470 471
f 477 476 470
f 477 488 486
f 477 486 475
f 477 475 474
f 477 474 476
o Eye_24
usemtl rift
v -0.260000 -0.549500 3.766489
v -0.260000 -0.549500 3.805489
v -0.260000 -0.530500 3.766489
v -0.260000 -0.530500 3.805489
v -0.100000 -0.549500 3.766489
v -0.100000 -0.549500 3.805489
v -0.100000 -0.530500 3.766489
v -0.100000 -0.530500 3.805489
v -0.252000 -0.557500 3.766489
v -0.252000 -0.557500 3.805489
v -0.108000 -0.557500 3.766489
v -0.108000 -0.557500 3.805489
v -0.252000 -0.522500 3.766489
v -0.252000 -0.522500 3.805489
v -0.108000 -0.522500 3.766489
v -0.108000 -0.522500 3.805489
v -0.252000 -0.549500 3.758489
v -0.252000 -0.530500 3.758489
v -0.108000 -0.549500 3.758489
v -0.108000 -0.530500 3.758489
v -0.252000 -0.549500 3.813489
v -0.252000 -0.530500 3.813489
v -0.108000 -0.549500 3.813489
v -0.108000 -0.530500 3.813489
f 498 490 506
f 511 503 493
f 496 509 504
f 507 492 502
f 513 497 505
f 501 495 512
f 499 510 491
f 500 508 494
f 492 490 491
f 492 491 493
f 503 505 504
f 503 504 502
f 503 492 493
f 503 502 492
f 511 493 491
f 511 491 510
f 496 508 509
f 496 494 508
f 496 504 505
f 496 505 497
f 507 502 504
f 507 504 509
f 507 509 508
f 507 508 506
f 507 490 492
f 507 506 490
f 495 494 496
f 495 496 497
f 513 495 497
f 513 512 495
f 513 505 503
f 513 503 511
f 513 511 510
f 513 510 512
f 499 491 490
f 499 490 498
f 499 512 510
f 499 501 512
f 500 494 495
f 500 495 501
f 500 506 508
f 500 498 506
f 500 499 498
f 500 501 499
o Crown_Horn_25
usemtl woodlight
v -0.433680 0.000000 4.044399
v -0.384727 -0.109358 4.064490
v -0.271973 -0.136367 4.100769
v -0.180324 -0.060689 4.125919
v -0.178793 0.060689 4.121000
v -0.268534 0.136367 4.089717
v -0.381969 0.109358 4.055627
v -0.502066 0.020000 4.516679
v -0.479337 -0.030773 4.526007
v -0.426987 -0.043313 4.542851
v -0.384436 -0.008177 4.554528
v -0.383726 0.048177 4.552244
v -0.425391 0.083313 4.537720
v -0.478057 0.070773 4.521892
f 522 514 515
f 522 521 514
f 525 517 518
f 525 524 517
f 519 518 517
f 519 516 515
f 519 514 520
f 519 515 514
f 519 517 516
f 519 526 525
f 519 525 518
f 527 520 514
f 527 514 521
f 527 519 520
f 527 526 519
f 523 521 522
f 523 524 525
f 523 527 521
f 523 525 526
f 523 526 527
f 523 516 517
f 523 517 524
f 523 515 516
f 523 522 515
o Horn_Barb_26
usemtl copper
v -0.440000 0.090000 4.535989
v -0.466063 0.055000 4.481256
v -0.466063 -0.015000 4.481256
v -0.440000 -0.050000 4.535989
v -0.413937 -0.015000 4.590722
v -0.413937 0.055000 4.590722
v -0.650000 0.028000 4.635989
v -0.652979 0.024000 4.629734
v -0.652979 0.016000 4.629734
v -0.650000 0.012000 4.635989
v -0.647021 0.016000 4.642244
v -0.647021 0.024000 4.642244
f 531 529 528
f 531 533 532
f 531 530 529
f 531 528 533
f 539 532 533
f 539 538 532
f 536 529 530
f 536 535 529
f 534 528 529
f 534 529 535
f 534 533 528
f 534 539 533
f 537 538 539
f 537 535 536
f 537 534 535
f 537 539 534
f 537 531 532
f 537 532 538
f 537 530 531
f 537 536 530
o Crown_Crystal_27
usemtl rift
v -0.068500 0.060000 4.085989
v -0.104250 0.121921 4.085989
v -0.175750 0.121921 4.085989
v -0.211500 0.060000 4.085989
v -0.175750 -0.001921 4.085989
v -0.104250 -0.001921 4.085989
v -0.082000 0.073000 4.358989
v -0.137000 0.168263 4.358989
v -0.247000 0.168263 4.358989
v -0.302000 0.073000 4.358989
v -0.247000 -0.022263 4.358989
v -0.137000 -0.022263 4.358989
v -0.220000 0.080000 4.505989
f 546 547 552
f 546 552 551
f 548 549 552
f 548 552 547
f 550 552 549
f 550 551 552
f 541 547 546
f 541 546 540
f 541 548 547
f 541 542 548
f 545 540 546
f 545 546 551
f 550 544 545
f 550 545 551
f 543 542 541
f 543 541 540
f 543 540 545
f 543 545 544
f 543 548 542
f 543 549 548
f 543 544 550
f 543 550 549
o Eye_28
usemtl rift
v 0.100000 -0.549500 3.766489
v 0.100000 -0.549500 3.805489
v 0.100000 -0.530500 3.766489
v 0.100000 -0.530500 3.805489
v 0.260000 -0.549500 3.766489
v 0.260000 -0.549500 3.805489
v 0.260000 -0.530500 3.766489
v 0.260000 -0.530500 3.805489
v 0.108000 -0.557500 3.766489
v 0.108000 -0.557500 3.805489
v 0.252000 -0.557500 3.766489
v 0.252000 -0.557500 3.805489
v 0.108000 -0.522500 3.766489
v 0.108000 -0.522500 3.805489
v 0.252000 -0.522500 3.766489
v 0.252000 -0.522500 3.805489
v 0.108000 -0.549500 3.758489
v 0.108000 -0.530500 3.758489
v 0.252000 -0.549500 3.758489
v 0.252000 -0.530500 3.758489
v 0.108000 -0.549500 3.813489
v 0.108000 -0.530500 3.813489
v 0.252000 -0.549500 3.813489
v 0.252000 -0.530500 3.813489
f 561 553 569
f 574 566 556
f 559 572 567
f 570 555 565
f 576 560 568
f 564 558 575
f 562 573 554
f 563 571 557
f 555 553 554
f 555 554 556
f 566 568 567
f 566 567 565
f 566 555 556
f 566 565 555
f 574 556 554
f 574 554 573
f 559 571 572
f 559 557 571
f 559 567 568
f 559 568 560
f 570 565 567
f 570 567 572
f 570 572 571
f 570 571 569
f 570 553 555
f 570 569 553
f 558 557 559
f 558 559 560
f 576 558 560
f 576 575 558
f 576 568 566
f 576 566 574
f 576 574 573
f 576 573 575
f 562 554 553
f 562 553 561
f 562 575 573
f 562 564 575
f 563 557 558
f 563 558 564
f 563 569 571
f 563 561 569
f 563 562 561
f 563 564 562
o Crown_Horn_29
usemtl woodlight
v 0.166320 0.000000 4.127578
v 0.218031 -0.109358 4.116351
v 0.331466 -0.136367 4.082260
v 0.421207 -0.060689 4.050977
v 0.419676 0.060689 4.046059
v 0.328027 0.136367 4.071208
v 0.215273 0.109358 4.107488
v 0.377934 0.020000 4.555298
v 0.401943 -0.030773 4.550085
v 0.454609 -0.043313 4.534258
v 0.496274 -0.008177 4.519733
v 0.495564 0.048177 4.517450
v 0.453013 0.083313 4.529126
v 0.400663 0.070773 4.545970
f 589 582 583
f 589 583 590
f 581 589 588
f 581 582 589
f 581 588 587
f 581 587 580
f 586 579 580
f 586 580 587
f 578 582 581
f 578 577 583
f 578 580 579
f 578 583 582
f 578 581 580
f 578 586 585
f 578 579 586
f 584 589 590
f 584 587 588
f 584 586 587
f 584 588 589
f 584 585 586
f 584 583 577
f 584 590 583
f 584 577 578
f 584 578 585
o Horn_Barb_30
usemtl copper
v 0.440000 -0.050000 4.535989
v 0.466063 -0.015000 4.481256
v 0.466063 0.055000 4.481256
v 0.440000 0.090000 4.535989
v 0.413937 0.055000 4.590722
v 0.413937 -0.015000 4.590722
v 0.650000 0.012000 4.635989
v 0.652979 0.016000 4.629734
v 0.652979 0.024000 4.629734
v 0.650000 0.028000 4.635989
v 0.647021 0.024000 4.642244
v 0.647021 0.016000 4.642244
f 594 592 591
f 594 596 595
f 594 593 592
f 594 591 596
f 597 591 592
f 597 592 598
f 599 592 593
f 599 598 592
f 602 595 596
f 602 601 595
f 602 596 591
f 602 591 597
f 600 597 598
f 600 598 599
f 600 601 602
f 600 602 597
f 600 594 595
f 600 595 601
f 600 593 594
f 600 599 593
o Crown_Crystal_31
usemtl rift
v 0.211500 0.060000 4.085989
v 0.175750 0.121921 4.085989
v 0.104250 0.121921 4.085989
v 0.068500 0.060000 4.085989
v 0.104250 -0.001921 4.085989
v 0.175750 -0.001921 4.085989
v 0.302000 0.073000 4.358989
v 0.247000 0.168263 4.358989
v 0.137000 0.168263 4.358989
v 0.082000 0.073000 4.358989
v 0.137000 -0.022263 4.358989
v 0.247000 -0.022263 4.358989
v 0.220000 0.080000 4.505989
f 615 609 610
f 611 615 610
f 614 609 615
f 612 615 611
f 613 614 615
f 613 615 612
f 604 609 603
f 604 610 609
f 605 606 612
f 605 612 611
f 605 610 604
f 605 611 610
f 608 604 603
f 608 607 606
f 608 606 605
f 608 605 604
f 608 603 609
f 608 609 614
f 613 607 608
f 613 608 614
f 613 606 607
f 613 612 606
o Pauldron_32
usemtl edge
v -0.754000 0.000000 2.620370
v -0.891803 0.286150 2.641046
v -1.201443 0.356824 2.561849
v -1.449755 0.158801 2.511522
v -1.449755 -0.158801 2.600017
v -1.201443 -0.356824 2.528558
v -0.891803 -0.286150 2.624742
v -0.510000 0.000000 2.926009
v -0.739671 0.476917 2.944766
v -1.255738 0.594706 3.031946
v -1.669591 0.264669 2.999275
v -1.669591 -0.264669 3.009745
v -1.255738 -0.594706 2.961248
v -0.739671 -0.476917 3.026181
v -0.680800 0.000000 3.319067
v -0.846163 0.343380 3.465372
v -1.217731 0.428188 3.381468
v -1.515706 0.190562 3.354921
v -1.515706 -0.190562 3.405767
v -1.217731 -0.428188 3.474697
v -0.846163 -0.343380 3.371596
v -1.089500 0.000000 3.595989
f 628 635 627
f 628 629 635
f 626 625 619
f 626 619 627
f 636 637 635
f 636 635 629
f 632 633 637
f 632 637 631
f 632 631 625
f 632 625 626
f 632 626 633
f 618 619 625
f 624 625 631
f 624 618 625
f 624 617 618
f 624 631 623
f 616 624 623
f 616 617 624
f 616 618 617
f 634 637 633
f 634 635 637
f 634 627 635
f 634 626 627
f 634 633 626
f 630 631 637
f 630 637 636
f 630 623 631
f 630 629 623
f 630 636 629
f 622 623 629
f 622 616 623
f 621 629 628
f 621 622 629
f 621 628 627
f 621 616 622
f 621 619 618
f 621 618 616
f 620 627 619
f 620 621 627
f 620 619 621
o Pauldron_Spike_33
usemtl rift
v -0.825500 -0.030000 3.375989
v -0.867750 0.043179 3.375989
v -0.952250 0.043179 3.375989
v -0.994500 -0.030000 3.375989
v -0.952250 -0.103179 3.375989
v -0.867750 -0.103179 3.375989
v -0.845000 -0.030000 3.661989
v -0.910000 0.082583 3.661989
v -1.040000 0.082583 3.661989
v -1.105000 -0.030000 3.661989
v -1.040000 -0.142583 3.661989
v -0.910000 -0.142583 3.661989
v -1.010000 -0.030000 3.815989
f 650 646 647
f 645 646 650
f 648 650 647
f 648 649 650
f 644 650 649
f 644 645 650
f 643 648 642
f 643 649 648
f 644 649 643
f 644 643 638
f 639 644 638
f 639 645 644
f 639 646 645
f 639 640 646
f 641 643 642
f 641 638 643
f 641 639 638
f 641 640 639
f 641 642 648
f 641 648 647
f 641 646 640
f 641 647 646
o Pauldron_Spike_34
usemtl rift
v -1.015500 -0.030000 3.375989
v -1.057750 0.043179 3.375989
v -1.142250 0.043179 3.375989
v -1.184500 -0.030000 3.375989
v -1.142250 -0.103179 3.375989
v -1.057750 -0.103179 3.375989
v -1.035000 -0.030000 3.720489
v -1.100000 0.082583 3.720489
v -1.230000 0.082583 3.720489
v -1.295000 -0.030000 3.720489
v -1.230000 -0.142583 3.720489
v -1.100000 -0.142583 3.720489
v -1.200000 -0.030000 3.905989
f 663 659 660
f 658 659 663
f 661 663 660
f 661 662 663
f 657 663 662
f 657 658 663
f 656 661 655
f 656 662 661
f 657 662 656
f 657 656 651
f 652 657 651
f 652 658 657
f 652 659 658
f 652 653 659
f 654 656 655
f 654 651 656
f 654 652 651
f 654 653 652
f 654 655 661
f 654 661 660
f 654 659 653
f 654 660 659
o Pauldron_Spike_35
usemtl rift
v -1.205500 -0.030000 3.375989
v -1.247750 0.043179 3.375989
v -1.332250 0.043179 3.375989
v -1.374500 -0.030000 3.375989
v -1.332250 -0.103179 3.375989
v -1.247750 -0.103179 3.375989
v -1.225000 -0.030000 3.778989
v -1.290000 0.082583 3.778989
v -1.420000 0.082583 3.778989
v -1.485000 -0.030000 3.778989
v -1.420000 -0.142583 3.778989
v -1.290000 -0.142583 3.778989
v -1.390000 -0.030000 3.995989
f 676 672 673
f 671 672 676
f 674 676 673
f 674 675 676
f 670 676 675
f 670 671 676
f 669 674 668
f 669 675 674
f 670 675 669
f 670 669 664
f 665 670 664
f 665 671 670
f 665 672 671
f 665 666 672
f 667 669 668
f 667 664 669
f 667 665 664
f 667 666 665
f 667 668 674
f 667 674 673
f 667 672 666
f 667 673 672
o Armour_Trim_36
usemtl copper
v -0.950000 -0.385000 3.035989
v -0.950000 -0.407500 2.997018
v -0.950000 -0.452500 2.997018
v -0.950000 -0.475000 3.035989
v -0.950000 -0.452500 3.074960
v -0.950000 -0.407500 3.074960
v -1.480000 -0.385000 3.035989
v -1.480000 -0.407500 2.997018
v -1.480000 -0.452500 2.997018
v -1.480000 -0.475000 3.035989
v -1.480000 -0.452500 3.074960
v -1.480000 -0.407500 3.074960
f 684 677 678
f 684 683 677
f 679 684 678
f 679 685 684
f 682 680 679
f 682 678 677
f 682 681 680
f 682 679 678
f 688 677 683
f 688 682 677
f 688 681 682
f 688 687 681
f 686 683 684
f 686 684 685
f 686 688 683
f 686 687 688
f 686 679 680
f 686 685 679
f 686 680 681
f 686 681 687
o Bicep_37
usemtl dark
v -1.201531 0.269140 2.885989
v -1.033986 0.203210 2.784570
v -0.951975 0.018242 2.742561
v -1.003537 -0.177412 2.784570
v -1.158469 -0.269140 2.885989
v -1.326014 -0.203210 2.987408
v -1.408025 -0.018242 3.029417
v -1.356463 0.177412 2.987408
v -1.447544 0.199299 2.485989
v -1.311026 0.145578 2.403351
v -1.244201 -0.005136 2.369121
v -1.286215 -0.164558 2.403351
v -1.412456 -0.239299 2.485989
v -1.548974 -0.185578 2.568626
v -1.615799 -0.034864 2.602856
v -1.573785 0.124558 2.568626
f 692 693 701
f 692 701 700
f 696 704 703
f 696 703 695
f 702 694 695
f 702 695 703
f 702 701 693
f 702 693 694
f 690 689 696
f 690 692 691
f 690 694 693
f 690 693 692
f 690 695 694
f 690 696 695
f 699 691 692
f 699 692 700
f 699 690 691
f 699 698 690
f 697 702 703
f 697 700 701
f 697 703 704
f 697 699 700
f 697 701 702
f 697 698 699
f 697 704 696
f 697 696 689
f 697 689 690
f 697 690 698
o Gauntlet_38
usemtl stone
v -1.212000 -0.050000 1.742032
v -1.309140 0.161095 1.622998
v -1.527410 0.213231 1.692036
v -1.702450 0.067149 1.659035
v -1.702450 -0.167149 1.632389
v -1.527410 -0.313231 1.662122
v -1.309140 -0.261095 1.669489
v -1.040000 -0.050000 2.078362
v -1.201899 0.301824 2.100120
v -1.565684 0.388718 1.974649
v -1.857417 0.145248 2.016192
v -1.857417 -0.245248 2.077110
v -1.565684 -0.488718 1.986559
v -1.201899 -0.401824 2.145600
v -1.160400 -0.050000 2.580817
v -1.276968 0.203313 2.442388
v -1.538892 0.265877 2.534741
v -1.748940 0.090578 2.542014
v -1.748940 -0.190578 2.437194
v -1.538892 -0.365877 2.467149
v -1.276968 -0.303313 2.464685
v -1.448500 -0.050000 2.725989
f 722 723 726
f 713 712 706
f 724 726 723
f 724 717 718
f 708 709 715
f 708 706 709
f 716 709 717
f 716 717 724
f 716 724 723
f 716 715 709
f 716 722 715
f 716 723 722
f 711 709 706
f 711 712 718
f 711 718 717
f 719 712 713
f 719 718 712
f 721 722 726
f 721 726 719
f 721 715 722
f 714 713 706
f 714 708 715
f 714 715 721
f 714 721 713
f 705 706 712
f 705 712 711
f 705 711 706
f 710 717 709
f 710 711 717
f 710 709 711
f 725 724 718
f 725 718 719
f 725 726 724
f 725 719 726
f 720 719 713
f 720 713 721
f 720 721 719
f 707 706 708
f 707 714 706
f 707 708 714
o Gauntlet_Plate_39
usemtl edge
v -1.665000 -0.312000 2.043989
v -1.665000 -0.312000 2.327989
v -1.665000 -0.288000 2.043989
v -1.665000 -0.288000 2.327989
v -1.275000 -0.312000 2.043989
v -1.275000 -0.312000 2.327989
v -1.275000 -0.288000 2.043989
v -1.275000 -0.288000 2.327989
v -1.617000 -0.360000 2.043989
v -1.617000 -0.360000 2.327989
v -1.323000 -0.360000 2.043989
v -1.323000 -0.360000 2.327989
v -1.617000 -0.240000 2.043989
v -1.617000 -0.240000 2.327989
v -1.323000 -0.240000 2.043989
v -1.323000 -0.240000 2.327989
v -1.617000 -0.312000 1.995989
v -1.617000 -0.288000 1.995989
v -1.323000 -0.312000 1.995989
v -1.323000 -0.288000 1.995989
v -1.617000 -0.312000 2.375989
v -1.617000 -0.288000 2.375989
v -1.323000 -0.312000 2.375989
v -1.323000 -0.288000 2.375989
f 735 727 743
f 748 740 730
f 733 746 741
f 744 729 739
f 750 734 742
f 738 732 749
f 736 747 728
f 745 731 737
f 729 727 728
f 729 728 730
f 740 742 741
f 740 741 739
f 740 729 730
f 740 739 729
f 748 730 728
f 748 728 747
f 733 741 742
f 733 742 734
f 744 739 741
f 744 741 746
f 744 727 729
f 744 743 727
f 732 733 734
f 732 731 733
f 750 732 734
f 750 749 732
f 750 742 740
f 750 740 748
f 750 748 747
f 750 747 749
f 736 728 727
f 736 727 735
f 736 749 747
f 736 738 749
f 737 731 732
f 737 732 738
f 737 736 735
f 737 738 736
f 745 733 731
f 745 746 733
f 745 744 746
f 745 743 744
f 745 737 735
f 745 735 743
o Gauntlet_Ridge_40
usemtl copper
v -1.317000 -0.370000 2.275989
v -1.332893 -0.391862 2.276717
v -1.358607 -0.383512 2.276439
v -1.358607 -0.356488 2.275538
v -1.332893 -0.348138 2.275260
v -1.317000 -0.380000 1.975989
v -1.332893 -0.401862 1.976717
v -1.358607 -0.393512 1.976439
v -1.358607 -0.366488 1.975538
v -1.332893 -0.358138 1.975260
f 754 751 755
f 754 753 752
f 754 752 751
f 758 752 753
f 758 757 752
f 758 753 754
f 758 754 759
f 760 759 754
f 760 754 755
f 756 758 759
f 756 757 758
f 756 759 760
f 756 752 757
f 756 751 752
f 756 755 751
f 756 760 755
o Gauntlet_Ridge_41
usemtl copper
v -1.447000 -0.370000 2.275989
v -1.462893 -0.391862 2.276717
v -1.488607 -0.383512 2.276439
v -1.488607 -0.356488 2.275538
v -1.462893 -0.348138 2.275260
v -1.447000 -0.380000 1.975989
v -1.462893 -0.401862 1.976717
v -1.488607 -0.393512 1.976439
v -1.488607 -0.366488 1.975538
v -1.462893 -0.358138 1.975260
f 764 761 765
f 764 763 762
f 764 762 761
f 768 762 763
f 768 767 762
f 768 763 764
f 768 764 769
f 770 769 764
f 770 764 765
f 766 768 769
f 766 767 768
f 766 769 770
f 766 762 767
f 766 761 762
f 766 765 761
f 766 770 765
o Gauntlet_Ridge_42
usemtl copper
v -1.577000 -0.370000 2.275989
v -1.592893 -0.391862 2.276717
v -1.618607 -0.383512 2.276439
v -1.618607 -0.356488 2.275538
v -1.592893 -0.348138 2.275260
v -1.577000 -0.380000 1.975989
v -1.592893 -0.401862 1.976717
v -1.618607 -0.393512 1.976439
v -1.618607 -0.366488 1.975538
v -1.592893 -0.358138 1.975260
f 774 771 775
f 774 773 772
f 774 772 771
f 778 772 773
f 778 777 772
f 778 773 774
f 778 774 779
f 780 779 774
f 780 774 775
f 776 778 779
f 776 777 778
f 776 779 780
f 776 772 777
f 776 771 772
f 776 775 771
f 776 780 775
o Fist_43
usemtl dark
v -1.310000 -0.160000 1.385533
v -1.400362 0.037022 1.329523
v -1.603405 0.085682 1.359891
v -1.766233 -0.050661 1.376632
v -1.766233 -0.269339 1.370732
v -1.603405 -0.405682 1.389865
v -1.400362 -0.357022 1.384586
v -1.150000 -0.160000 1.598140
v -1.300604 0.168369 1.512541
v -1.639008 0.249470 1.551965
v -1.910388 0.022231 1.556543
v -1.910388 -0.342231 1.516244
v -1.639008 -0.569470 1.510529
v -1.300604 -0.488369 1.589728
v -1.262000 -0.160000 1.860386
v -1.370435 0.076426 1.841311
v -1.614086 0.134818 1.796287
v -1.809479 -0.028794 1.833701
v -1.809479 -0.291206 1.794710
v -1.614086 -0.454818 1.837101
v -1.370435 -0.396426 1.792844
v -1.530000 -0.160000 1.925989
f 798 799 802
f 800 802 799
f 784 782 785
f 792 785 793
f 792 793 800
f 792 800 799
f 792 798 791
f 792 799 798
f 792 791 784
f 792 784 785
f 781 782 788
f 781 787 782
f 794 793 787
f 794 800 793
f 794 801 800
f 794 781 788
f 794 787 781
f 786 793 785
f 786 787 793
f 786 785 782
f 786 782 787
f 789 788 782
f 789 796 788
f 795 788 796
f 795 794 788
f 795 801 794
f 795 796 802
f 795 802 800
f 795 800 801
f 783 784 791
f 783 782 784
f 790 796 789
f 790 791 798
f 790 783 791
f 790 789 782
f 790 782 783
f 797 790 798
f 797 796 790
f 797 798 802
f 797 802 796
o Knuckle_44
usemtl copper
v -1.710000 -0.360000 1.685989
v -1.680000 -0.410952 1.675798
v -1.620000 -0.410952 1.675798
v -1.590000 -0.360000 1.685989
v -1.620000 -0.309048 1.696179
v -1.680000 -0.309048 1.696179
v -1.710000 -0.380000 1.785989
v -1.680000 -0.430952 1.775798
v -1.620000 -0.430952 1.775798
v -1.590000 -0.380000 1.785989
v -1.620000 -0.329048 1.796179
v -1.680000 -0.329048 1.796179
f 812 806 807
f 812 807 813
f 809 803 804
f 809 804 810
f 808 809 814
f 808 803 809
f 808 813 807
f 808 814 813
f 805 803 808
f 805 804 803
f 805 807 806
f 805 808 807
f 811 812 813
f 811 809 810
f 811 813 814
f 811 814 809
f 811 810 804
f 811 804 805
f 811 806 812
f 811 805 806
o Knuckle_45
usemtl copper
v -1.610000 -0.360000 1.685989
v -1.580000 -0.410952 1.675798
v -1.520000 -0.410952 1.675798
v -1.490000 -0.360000 1.685989
v -1.520000 -0.309048 1.696179
v -1.580000 -0.309048 1.696179
v -1.610000 -0.380000 1.785989
v -1.580000 -0.430952 1.775798
v -1.520000 -0.430952 1.775798
v -1.490000 -0.380000 1.785989
v -1.520000 -0.329048 1.796179
v -1.580000 -0.329048 1.796179
f 821 815 816
f 821 816 822
f 824 818 819
f 824 819 825
f 817 815 820
f 817 816 815
f 817 819 818
f 817 820 819
f 817 824 823
f 817 818 824
f 817 822 816
f 817 823 822
f 826 821 822
f 826 824 825
f 826 822 823
f 826 823 824
f 826 819 820
f 826 825 819
f 826 815 821
f 826 820 815
o Knuckle_46
usemtl copper
v -1.510000 -0.360000 1.685989
v -1.480000 -0.410952 1.675798
v -1.420000 -0.410952 1.675798
v -1.390000 -0.360000 1.685989
v -1.420000 -0.309048 1.696179
v -1.480000 -0.309048 1.696179
v -1.510000 -0.380000 1.785989
v -1.480000 -0.430952 1.775798
v -1.420000 -0.430952 1.775798
v -1.390000 -0.380000 1.785989
v -1.420000 -0.329048 1.796179
v -1.480000 -0.329048 1.796179
f 828 834 833
f 828 833 827
f 836 833 834
f 836 834 835
f 836 837 838
f 836 838 833
f 836 830 831
f 836 831 837
f 829 836 835
f 829 830 836
f 829 834 828
f 829 835 834
f 832 828 827
f 832 830 829
f 832 831 830
f 832 829 828
f 832 827 833
f 832 833 838
f 832 838 837
f 832 837 831
o Claw_47
usemtl edge
v -1.733358 -0.166661 1.485989
v -1.700517 -0.148682 1.445699
v -1.647159 -0.162022 1.445699
v -1.626642 -0.193339 1.485989
v -1.659483 -0.211318 1.526278
v -1.712841 -0.197978 1.526278
v -1.735821 -0.378545 1.355989
v -1.732238 -0.376584 1.351593
v -1.726417 -0.378039 1.351593
v -1.724179 -0.381455 1.355989
v -1.727762 -0.383416 1.360384
v -1.733583 -0.381961 1.360384
f 844 843 842
f 844 840 839
f 844 842 841
f 844 841 840
f 848 842 843
f 848 843 849
f 848 841 842
f 848 847 841
f 846 839 840
f 846 845 839
f 846 840 841
f 846 841 847
f 850 847 848
f 850 845 846
f 850 848 849
f 850 846 847
f 850 844 839
f 850 839 845
f 850 843 844
f 850 849 843
o Claw_48
usemtl edge
v -1.473358 -0.193339 1.485989
v -1.452841 -0.162022 1.445699
v -1.399483 -0.148682 1.445699
v -1.366642 -0.166661 1.485989
v -1.387159 -0.197978 1.526278
v -1.440517 -0.211318 1.526278
v -1.375821 -0.381455 1.355989
v -1.373583 -0.378039 1.351593
v -1.367762 -0.376584 1.351593
v -1.364179 -0.378545 1.355989
v -1.366417 -0.381961 1.360384
v -1.372238 -0.383416 1.360384
f 856 852 851
f 856 854 853
f 856 855 854
f 856 853 852
f 858 851 852
f 858 857 851
f 862 856 851
f 862 851 857
f 859 853 854
f 859 854 860
f 859 852 853
f 859 858 852
f 861 857 858
f 861 859 860
f 861 862 857
f 861 858 859
f 861 854 855
f 861 860 854
f 861 855 856
f 861 856 862
o Armoured_Thigh_49
usemtl dark
v -0.266000 0.000000 0.862858
v -0.365399 0.225167 0.827777
v -0.588746 0.280779 0.832421
v -0.767856 0.124959 0.833398
v -0.767856 -0.124959 0.943729
v -0.588746 -0.280779 0.879885
v -0.365399 -0.225167 0.887367
v -0.090000 0.000000 1.215382
v -0.255664 0.375279 1.278374
v -0.627909 0.467965 1.178124
v -0.926426 0.208264 1.165300
v -0.926426 -0.208264 1.309023
v -0.627909 -0.467965 1.157590
v -0.255664 -0.375279 1.332167
v -0.213200 0.000000 1.784849
v -0.332478 0.270201 1.777327
v -0.600495 0.336935 1.644644
v -0.815427 0.149950 1.673328
v -0.815427 -0.149950 1.788965
v -0.600495 -0.336935 1.713838
v -0.332478 -0.270201 1.748933
v -0.508000 0.000000 1.935989
f 880 873 881
f 880 881 884
f 871 870 864
f 874 881 873
f 874 873 866
f 882 884 881
f 882 883 884
f 882 874 875
f 882 881 874
f 863 864 870
f 863 870 869
f 876 875 869
f 876 882 875
f 876 883 882
f 876 869 870
f 868 869 875
f 868 866 864
f 868 864 863
f 868 863 869
f 877 870 871
f 877 884 883
f 877 876 870
f 877 883 876
f 879 880 884
f 872 871 864
f 872 873 880
f 872 880 879
f 867 875 874
f 867 868 875
f 867 874 866
f 867 866 868
f 878 877 871
f 878 871 872
f 878 872 879
f 878 884 877
f 878 879 884
f 865 864 866
f 865 872 864
f 865 866 873
f 865 873 872
o Thigh_Plate_50
usemtl stone
v -0.795000 -0.310000 1.240989
v -0.795000 -0.310000 1.530989
v -0.795000 -0.270000 1.240989
v -0.795000 -0.270000 1.530989
v -0.265000 -0.310000 1.240989
v -0.265000 -0.310000 1.530989
v -0.265000 -0.270000 1.240989
v -0.265000 -0.270000 1.530989
v -0.755000 -0.350000 1.240989
v -0.755000 -0.350000 1.530989
v -0.305000 -0.350000 1.240989
v -0.305000 -0.350000 1.530989
v -0.755000 -0.230000 1.240989
v -0.755000 -0.230000 1.530989
v -0.305000 -0.230000 1.240989
v -0.305000 -0.230000 1.530989
v -0.755000 -0.310000 1.200989
v -0.755000 -0.270000 1.200989
v -0.305000 -0.310000 1.200989
v -0.305000 -0.270000 1.200989
v -0.755000 -0.310000 1.570989
v -0.755000 -0.270000 1.570989
v -0.305000 -0.310000 1.570989
v -0.305000 -0.270000 1.570989
f 893 885 901
f 906 898 888
f 891 904 899
f 902 887 897
f 908 892 900
f 896 890 907
f 894 905 886
f 895 903 889
f 887 885 886
f 887 886 888
f 898 900 899
f 898 899 897
f 898 887 888
f 898 897 887
f 906 888 886
f 906 886 905
f 891 903 904
f 891 889 903
f 891 899 900
f 891 900 892
f 902 897 899
f 902 899 904
f 902 904 903
f 902 903 901
f 902 885 887
f 902 901 885
f 890 889 891
f 890 891 892
f 908 890 892
f 908 907 890
f 908 900 898
f 908 898 906
f 908 906 905
f 908 905 907
f 894 886 885
f 894 885 893
f 894 907 905
f 894 896 907
f 895 889 890
f 895 890 896
f 895 901 903
f 895 893 901
f 895 894 893
f 895 896 894
o Greave_51
usemtl edge
v -0.310329 0.000000 1.023685
v -0.377134 -0.162402 1.035964
v -0.539343 -0.229672 1.048257
v -0.701937 -0.162402 1.053364
v -0.769671 -0.000000 1.048292
v -0.702866 0.162402 1.036014
v -0.540657 0.229672 1.023720
v -0.378063 0.162402 1.018613
v -0.420215 -0.030000 0.467965
v -0.463783 -0.135915 0.475972
v -0.569571 -0.179786 0.483990
v -0.675611 -0.135915 0.487320
v -0.719785 -0.030000 0.484013
v -0.676217 0.075915 0.476005
v -0.570429 0.119786 0.467987
v -0.464389 0.075915 0.464657
f 917 916 909
f 917 924 916
f 923 915 916
f 923 916 924
f 923 914 915
f 923 922 914
f 921 913 914
f 921 914 922
f 912 910 909
f 912 909 916
f 912 916 915
f 912 914 913
f 912 915 914
f 912 911 910
f 912 921 920
f 912 913 921
f 912 920 919
f 912 919 911
f 918 921 922
f 918 924 917
f 918 923 924
f 918 922 923
f 918 919 920
f 918 920 921
f 918 910 911
f 918 911 919
f 918 917 909
f 918 909 910
o Greave_Ridge_52
usemtl copper
v -0.645000 -0.245000 0.515989
v -0.645000 -0.245000 0.995989
v -0.645000 -0.195000 0.515989
v -0.645000 -0.195000 0.995989
v -0.495000 -0.245000 0.515989
v -0.495000 -0.245000 0.995989
v -0.495000 -0.195000 0.515989
v -0.495000 -0.195000 0.995989
v -0.625000 -0.265000 0.515989
v -0.625000 -0.265000 0.995989
v -0.515000 -0.265000 0.515989
v -0.515000 -0.265000 0.995989
v -0.625000 -0.175000 0.515989
v -0.625000 -0.175000 0.995989
v -0.515000 -0.175000 0.515989
v -0.515000 -0.175000 0.995989
v -0.625000 -0.245000 0.495989
v -0.625000 -0.195000 0.495989
v -0.515000 -0.245000 0.495989
v -0.515000 -0.195000 0.495989
v -0.625000 -0.245000 1.015989
v -0.625000 -0.195000 1.015989
v -0.515000 -0.245000 1.015989
v -0.515000 -0.195000 1.015989
f 932 940 948
f 933 925 941
f 946 938 928
f 931 944 939
f 942 927 937
f 934 945 926
f 935 943 929
f 936 930 947
f 927 925 926
f 927 926 928
f 938 940 939
f 938 939 937
f 938 927 928
f 938 937 927
f 946 928 926
f 946 926 945
f 946 940 938
f 946 948 940
f 931 943 944
f 931 929 943
f 931 930 929
f 931 932 930
f 931 939 940
f 931 940 932
f 942 937 939
f 942 939 944
f 942 944 943
f 942 943 941
f 942 925 927
f 942 941 925
f 947 946 945
f 947 948 946
f 947 930 932
f 947 932 948
f 934 926 925
f 934 925 933
f 935 941 943
f 935 933 941
f 936 947 945
f 936 945 934
f 936 929 930
f 936 935 929
f 936 934 933
f 936 933 935
o Iron_Boot_53
usemtl stone
v -0.264000 -0.170000 0.043757
v -0.379212 0.130223 0.000000
v -0.638091 0.204372 0.023725
v -0.845696 -0.003389 0.036804
v -0.845696 -0.336611 0.032194
v -0.638091 -0.544372 0.047142
v -0.379212 -0.470223 0.043018
v -0.060000 -0.170000 0.209857
v -0.252020 0.330372 0.142983
v -0.683486 0.453954 0.173782
v -1.029494 0.107686 0.177360
v -1.029494 -0.447686 0.145875
v -0.683486 -0.793954 0.141411
v -0.252020 -0.670372 0.203285
v -0.202800 -0.170000 0.414736
v -0.341055 0.190268 0.399834
v -0.651710 0.279247 0.364659
v -0.900836 0.029934 0.393889
v -0.900836 -0.369934 0.363427
v -0.651710 -0.619247 0.396545
v -0.341055 -0.530268 0.361970
v -0.544500 -0.170000 0.465989
f 966 967 970
f 958 959 966
f 957 964 956
f 957 956 950
f 957 958 964
f 957 950 958
f 963 964 970
f 963 956 964
f 968 970 967
f 968 963 970
f 968 969 963
f 952 950 953
f 960 953 961
f 960 961 968
f 960 968 967
f 960 966 959
f 960 967 966
f 960 959 952
f 960 952 953
f 949 950 956
f 949 955 950
f 962 961 955
f 962 968 961
f 962 969 968
f 962 956 963
f 962 963 969
f 962 949 956
f 962 955 949
f 954 953 950
f 954 950 955
f 954 961 953
f 954 955 961
f 965 964 958
f 965 958 966
f 965 970 964
f 965 966 970
f 951 958 950
f 951 950 952
f 951 959 958
f 951 952 959
o Toe_Spike_54
usemtl dark
v -0.770000 -0.600000 0.110989
v -0.770000 -0.600000 0.180989
v -0.770000 -0.360000 0.110989
v -0.770000 -0.360000 0.180989
v -0.650000 -0.600000 0.110989
v -0.650000 -0.600000 0.180989
v -0.650000 -0.360000 0.110989
v -0.650000 -0.360000 0.180989
v -0.755000 -0.615000 0.110989
v -0.755000 -0.615000 0.180989
v -0.665000 -0.615000 0.110989
v -0.665000 -0.615000 0.180989
v -0.755000 -0.345000 0.110989
v -0.755000 -0.345000 0.180989
v -0.665000 -0.345000 0.110989
v -0.665000 -0.345000 0.180989
v -0.755000 -0.600000 0.095989
v -0.755000 -0.360000 0.095989
v -0.665000 -0.600000 0.095989
v -0.665000 -0.360000 0.095989
v -0.755000 -0.600000 0.195989
v -0.755000 -0.360000 0.195989
v -0.665000 -0.600000 0.195989
v -0.665000 -0.360000 0.195989
f 992 984 974
f 979 971 987
f 978 986 994
f 988 973 983
f 985 977 990
f 980 991 972
f 981 989 975
f 982 976 993
f 973 971 972
f 973 972 974
f 984 973 974
f 984 983 973
f 992 991 993
f 992 993 994
f 992 972 991
f 992 974 972
f 986 992 994
f 986 984 992
f 990 975 989
f 990 977 975
f 978 994 993
f 978 993 976
f 978 975 977
f 978 976 975
f 988 971 973
f 988 987 971
f 988 990 989
f 988 989 987
f 985 983 984
f 985 984 986
f 985 990 988
f 985 988 983
f 985 978 977
f 985 986 978
f 980 972 971
f 980 971 979
f 981 987 989
f 981 979 987
f 982 975 976
f 982 981 975
f 982 993 991
f 982 991 980
f 982 980 979
f 982 979 981
o Toe_Spike_55
usemtl dark
v -0.630000 -0.600000 0.110989
v -0.630000 -0.600000 0.180989
v -0.630000 -0.360000 0.110989
v -0.630000 -0.360000 0.180989
v -0.510000 -0.600000 0.110989
v -0.510000 -0.600000 0.180989
v -0.510000 -0.360000 0.110989
v -0.510000 -0.360000 0.180989
v -0.615000 -0.615000 0.110989
v -0.615000 -0.615000 0.180989
v -0.525000 -0.615000 0.110989
v -0.525000 -0.615000 0.180989
v -0.615000 -0.345000 0.110989
v -0.615000 -0.345000 0.180989
v -0.525000 -0.345000 0.110989
v -0.525000 -0.345000 0.180989
v -0.615000 -0.600000 0.095989
v -0.615000 -0.360000 0.095989
v -0.525000 -0.600000 0.095989
v -0.525000 -0.360000 0.095989
v -0.615000 -0.600000 0.195989
v -0.615000 -0.360000 0.195989
v -0.525000 -0.600000 0.195989
v -0.525000 -0.360000 0.195989
f 1016 1008 998
f 1003 995 1011
f 1002 1010 1018
f 1012 997 1007
f 1009 1001 1014
f 1004 1015 996
f 1005 1013 999
f 1006 1000 1017
f 997 995 996
f 997 996 998
f 1008 997 998
f 1008 1007 997
f 1016 1015 1017
f 1016 1017 1018
f 1016 996 1015
f 1016 998 996
f 1010 1016 1018
f 1010 1008 1016
f 1014 999 1013
f 1014 1001 999
f 1002 1018 1017
f 1002 1017 1000
f 1002 999 1001
f 1002 1000 999
f 1012 995 997
f 1012 1011 995
f 1012 1014 1013
f 1012 1013 1011
f 1009 1007 1008
f 1009 1008 1010
f 1009 1014 1012
f 1009 1012 1007
f 1009 1002 1001
f 1009 1010 1002
f 1004 996 995
f 1004 995 1003
f 1005 1011 1013
f 1005 1003 1011
f 1006 999 1000
f 1006 1005 999
f 1006 1017 1015
f 1006 1015 1004
f 1006 1004 1003
f 1006 1003 1005
o Toe_Spike_56
usemtl dark
v -0.490000 -0.600000 0.110989
v -0.490000 -0.600000 0.180989
v -0.490000 -0.360000 0.110989
v -0.490000 -0.360000 0.180989
v -0.370000 -0.600000 0.110989
v -0.370000 -0.600000 0.180989
v -0.370000 -0.360000 0.110989
v -0.370000 -0.360000 0.180989
v -0.475000 -0.615000 0.110989
v -0.475000 -0.615000 0.180989
v -0.385000 -0.615000 0.110989
v -0.385000 -0.615000 0.180989
v -0.475000 -0.345000 0.110989
v -0.475000 -0.345000 0.180989
v -0.385000 -0.345000 0.110989
v -0.385000 -0.345000 0.180989
v -0.475000 -0.600000 0.095989
v -0.475000 -0.360000 0.095989
v -0.385000 -0.600000 0.095989
v -0.385000 -0.360000 0.095989
v -0.475000 -0.600000 0.195989
v -0.475000 -0.360000 0.195989
v -0.385000 -0.600000 0.195989
v -0.385000 -0.360000 0.195989
f 1040 1032 1022
f 1027 1019 1035
f 1026 1034 1042
f 1036 1021 1031
f 1033 1025 1038
f 1028 1039 1020
f 1029 1037 1023
f 1030 1024 1041
f 1021 1019 1020
f 1021 1020 1022
f 1032 1021 1022
f 1032 1031 1021
f 1040 1039 1041
f 1040 1041 1042
f 1040 1020 1039
f 1040 1022 1020
f 1034 1040 1042
f 1034 1032 1040
f 1038 1023 1037
f 1038 1025 1023
f 1026 1042 1041
f 1026 1041 1024
f 1026 1023 1025
f 1026 1024 1023
f 1036 1019 1021
f 1036 1035 1019
f 1036 1038 1037
f 1036 1037 1035
f 1033 1031 1032
f 1033 1032 1034
f 1033 1038 1036
f 1033 1036 1031
f 1033 1026 1025
f 1033 1034 1026
f 1028 1020 1019
f 1028 1019 1027
f 1029 1035 1037
f 1029 1027 1035
f 1030 1023 1024
f 1030 1029 1023
f 1030 1041 1039
f 1030 1039 1028
f 1030 1028 1027
f 1030 1027 1029
o Pauldron_57
usemtl edge
v 1.486000 0.000000 2.620370
v 1.348197 0.286150 2.641046
v 1.038557 0.356824 2.561849
v 0.790245 0.158801 2.511522
v 0.790245 -0.158801 2.600017
v 1.038557 -0.356824 2.528558
v 1.348197 -0.286150 2.624742
v 1.730000 0.000000 2.926009
v 1.500329 0.476917 2.944766
v 0.984262 0.594706 3.031946
v 0.570409 0.264669 2.999275
v 0.570409 -0.264669 3.009745
v 0.984262 -0.594706 2.961248
v 1.500329 -0.476917 3.026181
v 1.559200 0.000000 3.319067
v 1.393837 0.343380 3.465372
v 1.022269 0.428188 3.381468
v 0.724294 0.190562 3.354921
v 0.724294 -0.190562 3.405767
v 1.022269 -0.428188 3.474697
v 1.393837 -0.343380 3.371596
v 1.150500 0.000000 3.595989
f 1055 1062 1054
f 1055 1056 1062
f 1053 1052 1046
f 1053 1046 1054
f 1063 1064 1062
f 1063 1062 1056
f 1059 1060 1064
f 1059 1064 1058
f 1059 1058 1052
f 1059 1052 1053
f 1059 1053 1060
f 1045 1046 1052
f 1051 1052 1058
f 1051 1045 1052
f 1051 1044 1045
f 1051 1058 1050
f 1043 1051 1050
f 1043 1044 1051
f 1043 1045 1044
f 1061 1064 1060
f 1061 1062 1064
f 1061 1054 1062
f 1061 1053 1054
f 1061 1060 1053
f 1057 1058 1064
f 1057 1064 1063
f 1057 1050 1058
f 1057 1056 1050
f 1057 1063 1056
f 1049 1050 1056
f 1049 1043 1050
f 1048 1056 1055
f 1048 1049 1056
f 1048 1055 1054
f 1048 1043 1049
f 1048 1046 1045
f 1048 1045 1043
f 1047 1054 1046
f 1047 1048 1054
f 1047 1046 1048
o Pauldron_Spike_58
usemtl rift
v 0.994500 -0.030000 3.375989
v 0.952250 0.043179 3.375989
v 0.867750 0.043179 3.375989
v 0.825500 -0.030000 3.375989
v 0.867750 -0.103179 3.375989
v 0.952250 -0.103179 3.375989
v 1.105000 -0.030000 3.661989
v 1.040000 0.082583 3.661989
v 0.910000 0.082583 3.661989
v 0.845000 -0.030000 3.661989
v 0.910000 -0.142583 3.661989
v 1.040000 -0.142583 3.661989
v 1.010000 -0.030000 3.815989
f 1077 1075 1076
f 1077 1076 1071
f 1077 1073 1074
f 1077 1074 1075
f 1077 1072 1073
f 1077 1071 1072
f 1074 1073 1067
f 1074 1067 1068
f 1069 1074 1068
f 1069 1075 1074
f 1070 1071 1076
f 1070 1065 1071
f 1070 1076 1075
f 1070 1075 1069
f 1066 1068 1067
f 1066 1065 1070
f 1066 1069 1068
f 1066 1070 1069
f 1066 1072 1071
f 1066 1071 1065
f 1066 1067 1073
f 1066 1073 1072
o Pauldron_Spike_59
usemtl rift
v 1.184500 -0.030000 3.375989
v 1.142250 0.043179 3.375989
v 1.057750 0.043179 3.375989
v 1.015500 -0.030000 3.375989
v 1.057750 -0.103179 3.375989
v 1.142250 -0.103179 3.375989
v 1.295000 -0.030000 3.720489
v 1.230000 0.082583 3.720489
v 1.100000 0.082583 3.720489
v 1.035000 -0.030000 3.720489
v 1.100000 -0.142583 3.720489
v 1.230000 -0.142583 3.720489
v 1.200000 -0.030000 3.905989
f 1090 1089 1084
f 1090 1086 1087
f 1088 1089 1090
f 1088 1090 1087
f 1085 1090 1084
f 1085 1086 1090
f 1080 1087 1086
f 1080 1081 1087
f 1083 1078 1084
f 1083 1084 1089
f 1088 1082 1083
f 1088 1083 1089
f 1088 1087 1081
f 1088 1081 1082
f 1079 1081 1080
f 1079 1082 1081
f 1079 1078 1083
f 1079 1083 1082
f 1079 1084 1078
f 1079 1085 1084
f 1079 1080 1086
f 1079 1086 1085
o Pauldron_Spike_60
usemtl rift
v 1.374500 -0.030000 3.375989
v 1.332250 0.043179 3.375989
v 1.247750 0.043179 3.375989
v 1.205500 -0.030000 3.375989
v 1.247750 -0.103179 3.375989
v 1.332250 -0.103179 3.375989
v 1.485000 -0.030000 3.778989
v 1.420000 0.082583 3.778989
v 1.290000 0.082583 3.778989
v 1.225000 -0.030000 3.778989
v 1.290000 -0.142583 3.778989
v 1.420000 -0.142583 3.778989
v 1.390000 -0.030000 3.995989
f 1103 1101 1102
f 1103 1099 1100
f 1103 1102 1097
f 1103 1100 1101
f 1103 1098 1099
f 1103 1097 1098
f 1093 1100 1099
f 1093 1094 1100
f 1093 1099 1098
f 1093 1098 1092
f 1091 1097 1102
f 1091 1102 1096
f 1091 1098 1097
f 1091 1092 1098
f 1095 1094 1093
f 1095 1091 1096
f 1095 1093 1092
f 1095 1092 1091
f 1095 1101 1100
f 1095 1100 1094
f 1095 1102 1101
f 1095 1096 1102
o Armour_Trim_61
usemtl copper
v 0.950000 -0.475000 3.035989
v 0.950000 -0.452500 2.997018
v 0.950000 -0.407500 2.997018
v 0.950000 -0.385000 3.035989
v 0.950000 -0.407500 3.074960
v 0.950000 -0.452500 3.074960
v 1.480000 -0.475000 3.035989
v 1.480000 -0.452500 2.997018
v 1.480000 -0.407500 2.997018
v 1.480000 -0.385000 3.035989
v 1.480000 -0.407500 3.074960
v 1.480000 -0.452500 3.074960
f 1111 1104 1105
f 1111 1110 1104
f 1106 1111 1105
f 1106 1112 1111
f 1109 1107 1106
f 1109 1105 1104
f 1109 1108 1107
f 1109 1106 1105
f 1115 1104 1110
f 1115 1109 1104
f 1115 1108 1109
f 1115 1114 1108
f 1113 1110 1111
f 1113 1111 1112
f 1113 1115 1110
f 1113 1114 1115
f 1113 1106 1107
f 1113 1112 1106
f 1113 1107 1108
f 1113 1108 1114
o Bicep_62
usemtl dark
v 1.158469 -0.269140 2.885989
v 1.003537 -0.177412 2.784570
v 0.951975 0.018242 2.742561
v 1.033986 0.203210 2.784570
v 1.201531 0.269140 2.885989
v 1.356463 0.177412 2.987408
v 1.408025 -0.018242 3.029417
v 1.326014 -0.203210 2.987408
v 1.412456 -0.239299 2.485989
v 1.286215 -0.164558 2.403351
v 1.244201 -0.005136 2.369121
v 1.311026 0.145578 2.403351
v 1.447544 0.199299 2.485989
v 1.573785 0.124558 2.568626
v 1.615799 -0.034864 2.602856
v 1.548974 -0.185578 2.568626
f 1124 1116 1117
f 1124 1117 1125
f 1119 1122 1121
f 1119 1116 1123
f 1119 1118 1117
f 1119 1123 1122
f 1119 1117 1116
f 1119 1121 1120
f 1129 1121 1122
f 1129 1122 1130
f 1129 1120 1121
f 1129 1128 1120
f 1131 1122 1123
f 1131 1130 1122
f 1131 1123 1116
f 1131 1116 1124
f 1126 1117 1118
f 1126 1125 1117
f 1127 1130 1131
f 1127 1129 1130
f 1127 1124 1125
f 1127 1128 1129
f 1127 1131 1124
f 1127 1125 1126
f 1127 1119 1120
f 1127 1120 1128
f 1127 1118 1119
f 1127 1126 1118
o Gauntlet_63
usemtl stone
v 1.728000 -0.050000 1.742032
v 1.630860 0.161095 1.622998
v 1.412590 0.213231 1.692036
v 1.237550 0.067149 1.659035
v 1.237550 -0.167149 1.632389
v 1.412590 -0.313231 1.662122
v 1.630860 -0.261095 1.669489
v 1.900000 -0.050000 2.078362
v 1.738101 0.301824 2.100120
v 1.374316 0.388718 1.974649
v 1.082583 0.145248 2.016192
v 1.082583 -0.245248 2.077110
v 1.374316 -0.488718 1.986559
v 1.738101 -0.401824 2.145600
v 1.779600 -0.050000 2.580817
v 1.663032 0.203313 2.442388
v 1.401108 0.265877 2.534741
v 1.191060 0.090578 2.542014
v 1.191060 -0.190578 2.437194
v 1.401108 -0.365877 2.467149
v 1.663032 -0.303313 2.464685
v 1.491500 -0.050000 2.725989
f 1149 1150 1153
f 1140 1139 1133
f 1151 1153 1150
f 1151 1144 1145
f 1135 1136 1142
f 1135 1133 1136
f 1143 1136 1144
f 1143 1144 1151
f 1143 1151 1150
f 1143 1142 1136
f 1143 1149 1142
f 1143 1150 1149
f 1138 1136 1133
f 1138 1139 1145
f 1138 1145 1144
f 1146 1139 1140
f 1146 1145 1139
f 1148 1149 1153
f 1148 1153 1146
f 1148 1142 1149
f 1141 1140 1133
f 1141 1135 1142
f 1141 1142 1148
f 1141 1148 1140
f 1132 1133 1139
f 1132 1139 1138
f 1132 1138 1133
f 1137 1144 1136
f 1137 1138 1144
f 1137 1136 1138
f 1152 1151 1145
f 1152 1145 1146
f 1152 1153 1151
f 1152 1146 1153
f 1147 1146 1140
f 1147 1140 1148
f 1147 1148 1146
f 1134 1133 1135
f 1134 1141 1133
f 1134 1135 1141
o Gauntlet_Plate_64
usemtl edge
v 1.275000 -0.312000 2.043989
v 1.275000 -0.312000 2.327989
v 1.275000 -0.288000 2.043989
v 1.275000 -0.288000 2.327989
v 1.665000 -0.312000 2.043989
v 1.665000 -0.312000 2.327989
v 1.665000 -0.288000 2.043989
v 1.665000 -0.288000 2.327989
v 1.323000 -0.360000 2.043989
v 1.323000 -0.360000 2.327989
v 1.617000 -0.360000 2.043989
v 1.617000 -0.360000 2.327989
v 1.323000 -0.240000 2.043989
v 1.323000 -0.240000 2.327989
v 1.617000 -0.240000 2.043989
v 1.617000 -0.240000 2.327989
v 1.323000 -0.312000 1.995989
v 1.323000 -0.288000 1.995989
v 1.617000 -0.312000 1.995989
v 1.617000 -0.288000 1.995989
v 1.323000 -0.312000 2.375989
v 1.323000 -0.288000 2.375989
v 1.617000 -0.312000 2.375989
v 1.617000 -0.288000 2.375989
f 1162 1154 1170
f 1175 1167 1157
f 1160 1173 1168
f 1171 1156 1166
f 1177 1161 1169
f 1165 1159 1176
f 1163 1174 1155
f 1172 1158 1164
f 1156 1154 1155
f 1156 1155 1157
f 1167 1169 1168
f 1167 1168 1166
f 1167 1156 1157
f 1167 1166 1156
f 1175 1157 1155
f 1175 1155 1174
f 1160 1168 1169
f 1160 1169 1161
f 1171 1166 1168
f 1171 1168 1173
f 1171 1154 1156
f 1171 1170 1154
f 1159 1160 1161
f 1159 1158 1160
f 1177 1159 1161
f 1177 1176 1159
f 1177 1169 1167
f 1177 1167 1175
f 1177 1175 1174
f 1177 1174 1176
f 1163 1155 1154
f 1163 1154 1162
f 1163 1176 1174
f 1163 1165 1176
f 1164 1158 1159
f 1164 1159 1165
f 1164 1163 1162
f 1164 1165 1163
f 1172 1160 1158
f 1172 1173 1160
f 1172 1171 1173
f 1172 1170 1171
f 1172 1164 1162
f 1172 1162 1170
o Gauntlet_Ridge_65
usemtl copper
v 1.363000 -0.370000 2.275989
v 1.347107 -0.391862 2.276717
v 1.321393 -0.383512 2.276439
v 1.321393 -0.356488 2.275538
v 1.347107 -0.348138 2.275260
v 1.363000 -0.380000 1.975989
v 1.347107 -0.401862 1.976717
v 1.321393 -0.393512 1.976439
v 1.321393 -0.366488 1.975538
v 1.347107 -0.358138 1.975260
f 1181 1178 1182
f 1181 1180 1179
f 1181 1179 1178
f 1185 1179 1180
f 1185 1184 1179
f 1185 1180 1181
f 1185 1181 1186
f 1187 1186 1181
f 1187 1181 1182
f 1183 1185 1186
f 1183 1184 1185
f 1183 1186 1187
f 1183 1179 1184
f 1183 1178 1179
f 1183 1182 1178
f 1183 1187 1182
o Gauntlet_Ridge_66
usemtl copper
v 1.493000 -0.370000 2.275989
v 1.477107 -0.391862 2.276717
v 1.451393 -0.383512 2.276439
v 1.451393 -0.356488 2.275538
v 1.477107 -0.348138 2.275260
v 1.493000 -0.380000 1.975989
v 1.477107 -0.401862 1.976717
v 1.451393 -0.393512 1.976439
v 1.451393 -0.366488 1.975538
v 1.477107 -0.358138 1.975260
f 1191 1188 1192
f 1191 1190 1189
f 1191 1189 1188
f 1195 1189 1190
f 1195 1194 1189
f 1195 1190 1191
f 1195 1191 1196
f 1197 1196 1191
f 1197 1191 1192
f 1193 1195 1196
f 1193 1194 1195
f 1193 1196 1197
f 1193 1189 1194
f 1193 1188 1189
f 1193 1192 1188
f 1193 1197 1192
o Gauntlet_Ridge_67
usemtl copper
v 1.623000 -0.370000 2.275989
v 1.607107 -0.391862 2.276717
v 1.581393 -0.383512 2.276439
v 1.581393 -0.356488 2.275538
v 1.607107 -0.348138 2.275260
v 1.623000 -0.380000 1.975989
v 1.607107 -0.401862 1.976717
v 1.581393 -0.393512 1.976439
v 1.581393 -0.366488 1.975538
v 1.607107 -0.358138 1.975260
f 1201 1198 1202
f 1201 1200 1199
f 1201 1199 1198
f 1205 1199 1200
f 1205 1204 1199
f 1205 1200 1201
f 1205 1201 1206
f 1207 1206 1201
f 1207 1201 1202
f 1203 1205 1206
f 1203 1204 1205
f 1203 1206 1207
f 1203 1199 1204
f 1203 1198 1199
f 1203 1202 1198
f 1203 1207 1202
o Fist_68
usemtl dark
v 1.790000 -0.160000 1.385533
v 1.699638 0.037022 1.329523
v 1.496595 0.085682 1.359891
v 1.333767 -0.050661 1.376632
v 1.333767 -0.269339 1.370732
v 1.496595 -0.405682 1.389865
v 1.699638 -0.357022 1.384586
v 1.950000 -0.160000 1.598140
v 1.799396 0.168369 1.512541
v 1.460992 0.249470 1.551965
v 1.189612 0.022231 1.556543
v 1.189612 -0.342231 1.516244
v 1.460992 -0.569470 1.510529
v 1.799396 -0.488369 1.589728
v 1.838000 -0.160000 1.860386
v 1.729565 0.076426 1.841311
v 1.485914 0.134818 1.796287
v 1.290521 -0.028794 1.833701
v 1.290521 -0.291206 1.794710
v 1.485914 -0.454818 1.837101
v 1.729565 -0.396426 1.792844
v 1.570000 -0.160000 1.925989
f 1225 1226 1229
f 1227 1229 1226
f 1211 1209 1212
f 1219 1212 1220
f 1219 1220 1227
f 1219 1227 1226
f 1219 1225 1218
f 1219 1226 1225
f 1219 1218 1211
f 1219 1211 1212
f 1208 1209 1215
f 1208 1214 1209
f 1221 1220 1214
f 1221 1227 1220
f 1221 1228 1227
f 1221 1208 1215
f 1221 1214 1208
f 1213 1220 1212
f 1213 1214 1220
f 1213 1212 1209
f 1213 1209 1214
f 1216 1215 1209
f 1216 1223 1215
f 1222 1215 1223
f 1222 1221 1215
f 1222 1228 1221
f 1222 1223 1229
f 1222 1229 1227
f 1222 1227 1228
f 1210 1211 1218
f 1210 1209 1211
f 1217 1223 1216
f 1217 1218 1225
f 1217 1210 1218
f 1217 1216 1209
f 1217 1209 1210
f 1224 1217 1225
f 1224 1223 1217
f 1224 1225 1229
f 1224 1229 1223
o Knuckle_69
usemtl copper
v 1.390000 -0.360000 1.685989
v 1.420000 -0.410952 1.675798
v 1.480000 -0.410952 1.675798
v 1.510000 -0.360000 1.685989
v 1.480000 -0.309048 1.696179
v 1.420000 -0.309048 1.696179
v 1.390000 -0.380000 1.785989
v 1.420000 -0.430952 1.775798
v 1.480000 -0.430952 1.775798
v 1.510000 -0.380000 1.785989
v 1.480000 -0.329048 1.796179
v 1.420000 -0.329048 1.796179
f 1239 1233 1234
f 1239 1234 1240
f 1236 1230 1231
f 1236 1231 1237
f 1235 1236 1241
f 1235 1230 1236
f 1235 1240 1234
f 1235 1241 1240
f 1232 1230 1235
f 1232 1231 1230
f 1232 1234 1233
f 1232 1235 1234
f 1238 1239 1240
f 1238 1236 1237
f 1238 1240 1241
f 1238 1241 1236
f 1238 1237 1231
f 1238 1231 1232
f 1238 1233 1239
f 1238 1232 1233
o Knuckle_70
usemtl copper
v 1.490000 -0.360000 1.685989
v 1.520000 -0.410952 1.675798
v 1.580000 -0.410952 1.675798
v 1.610000 -0.360000 1.685989
v 1.580000 -0.309048 1.696179
v 1.520000 -0.309048 1.696179
v 1.490000 -0.380000 1.785989
v 1.520000 -0.430952 1.775798
v 1.580000 -0.430952 1.775798
v 1.610000 -0.380000 1.785989
v 1.580000 -0.329048 1.796179
v 1.520000 -0.329048 1.796179
f 1251 1245 1246
f 1251 1246 1252
f 1248 1242 1243
f 1248 1243 1249
f 1247 1248 1253
f 1247 1242 1248
f 1247 1252 1246
f 1247 1253 1252
f 1244 1242 1247
f 1244 1243 1242
f 1244 1246 1245
f 1244 1247 1246
f 1250 1251 1252
f 1250 1248 1249
f 1250 1252 1253
f 1250 1253 1248
f 1250 1249 1243
f 1250 1243 1244
f 1250 1245 1251
f 1250 1244 1245
o Knuckle_71
usemtl copper
v 1.590000 -0.360000 1.685989
v 1.620000 -0.410952 1.675798
v 1.680000 -0.410952 1.675798
v 1.710000 -0.360000 1.685989
v 1.680000 -0.309048 1.696179
v 1.620000 -0.309048 1.696179
v 1.590000 -0.380000 1.785989
v 1.620000 -0.430952 1.775798
v 1.680000 -0.430952 1.775798
v 1.710000 -0.380000 1.785989
v 1.680000 -0.329048 1.796179
v 1.620000 -0.329048 1.796179
f 1255 1261 1260
f 1255 1260 1254
f 1263 1260 1261
f 1263 1261 1262
f 1263 1264 1265
f 1263 1265 1260
f 1263 1257 1258
f 1263 1258 1264
f 1256 1263 1262
f 1256 1257 1263
f 1256 1261 1255
f 1256 1262 1261
f 1259 1255 1254
f 1259 1257 1256
f 1259 1258 1257
f 1259 1256 1255
f 1259 1254 1260
f 1259 1260 1265
f 1259 1265 1264
f 1259 1264 1258
o Claw_72
usemtl edge
v 1.366642 -0.166661 1.485989
v 1.399483 -0.148682 1.445699
v 1.452841 -0.162022 1.445699
v 1.473358 -0.193339 1.485989
v 1.440517 -0.211318 1.526278
v 1.387159 -0.197978 1.526278
v 1.364179 -0.378545 1.355989
v 1.367762 -0.376584 1.351593
v 1.373583 -0.378039 1.351593
v 1.375821 -0.381455 1.355989
v 1.372238 -0.383416 1.360384
v 1.366417 -0.381961 1.360384
f 1271 1270 1269
f 1271 1267 1266
f 1271 1269 1268
f 1271 1268 1267
f 1275 1269 1270
f 1275 1270 1276
f 1275 1268 1269
f 1275 1274 1268
f 1273 1266 1267
f 1273 1272 1266
f 1273 1267 1268
f 1273 1268 1274
f 1277 1274 1275
f 1277 1272 1273
f 1277 1275 1276
f 1277 1273 1274
f 1277 1271 1266
f 1277 1266 1272
f 1277 1270 1271
f 1277 1276 1270
o Claw_73
usemtl edge
v 1.626642 -0.193339 1.485989
v 1.647159 -0.162022 1.445699
v 1.700517 -0.148682 1.445699
v 1.733358 -0.166661 1.485989
v 1.712841 -0.197978 1.526278
v 1.659483 -0.211318 1.526278
v 1.724179 -0.381455 1.355989
v 1.726417 -0.378039 1.351593
v 1.732238 -0.376584 1.351593
v 1.735821 -0.378545 1.355989
v 1.733583 -0.381961 1.360384
v 1.727762 -0.383416 1.360384
f 1283 1279 1278
f 1283 1281 1280
f 1283 1282 1281
f 1283 1280 1279
f 1285 1278 1279
f 1285 1284 1278
f 1288 1281 1282
f 1288 1287 1281
f 1286 1280 1281
f 1286 1281 1287
f 1286 1279 1280
f 1286 1285 1279
f 1289 1284 1285
f 1289 1287 1288
f 1289 1286 1287
f 1289 1285 1286
f 1289 1283 1278
f 1289 1278 1284
f 1289 1282 1283
f 1289 1288 1282
o Armoured_Thigh_74
usemtl dark
v 0.794000 0.000000 0.862858
v 0.694601 0.225167 0.827777
v 0.471254 0.280779 0.832421
v 0.292144 0.124959 0.833398
v 0.292144 -0.124959 0.943729
v 0.471254 -0.280779 0.879885
v 0.694601 -0.225167 0.887367
v 0.970000 0.000000 1.215382
v 0.804336 0.375279 1.278374
v 0.432091 0.467965 1.178124
v 0.133574 0.208264 1.165300
v 0.133574 -0.208264 1.309023
v 0.432091 -0.467965 1.157590
v 0.804336 -0.375279 1.332167
v 0.846800 0.000000 1.784849
v 0.727522 0.270201 1.777327
v 0.459505 0.336935 1.644644
v 0.244573 0.149950 1.673328
v 0.244573 -0.149950 1.788965
v 0.459505 -0.336935 1.713838
v 0.727522 -0.270201 1.748933
v 0.552000 0.000000 1.935989
f 1307 1300 1308
f 1307 1308 1311
f 1298 1297 1291
f 1301 1308 1300
f 1301 1300 1293
f 1309 1311 1308
f 1309 1310 1311
f 1309 1301 1302
f 1309 1308 1301
f 1290 1291 1297
f 1290 1297 1296
f 1303 1302 1296
f 1303 1309 1302
f 1303 1310 1309
f 1303 1296 1297
f 1295 1296 1302
f 1295 1293 1291
f 1295 1291 1290
f 1295 1290 1296
f 1304 1297 1298
f 1304 1311 1310
f 1304 1303 1297
f 1304 1310 1303
f 1306 1307 1311
f 1299 1298 1291
f 1299 1300 1307
f 1299 1307 1306
f 1294 1302 1301
f 1294 1295 1302
f 1294 1301 1293
f 1294 1293 1295
f 1305 1304 1298
f 1305 1298 1299
f 1305 1299 1306
f 1305 1311 1304
f 1305 1306 1311
f 1292 1291 1293
f 1292 1299 1291
f 1292 1293 1300
f 1292 1300 1299
o Thigh_Plate_75
usemtl stone
v 0.265000 -0.310000 1.240989
v 0.265000 -0.310000 1.530989
v 0.265000 -0.270000 1.240989
v 0.265000 -0.270000 1.530989
v 0.795000 -0.310000 1.240989
v 0.795000 -0.310000 1.530989
v 0.795000 -0.270000 1.240989
v 0.795000 -0.270000 1.530989
v 0.305000 -0.350000 1.240989
v 0.305000 -0.350000 1.530989
v 0.755000 -0.350000 1.240989
v 0.755000 -0.350000 1.530989
v 0.305000 -0.230000 1.240989
v 0.305000 -0.230000 1.530989
v 0.755000 -0.230000 1.240989
v 0.755000 -0.230000 1.530989
v 0.305000 -0.310000 1.200989
v 0.305000 -0.270000 1.200989
v 0.755000 -0.310000 1.200989
v 0.755000 -0.270000 1.200989
v 0.305000 -0.310000 1.570989
v 0.305000 -0.270000 1.570989
v 0.755000 -0.310000 1.570989
v 0.755000 -0.270000 1.570989
f 1320 1312 1328
f 1333 1325 1315
f 1318 1331 1326
f 1329 1314 1324
f 1335 1319 1327
f 1323 1317 1334
f 1321 1332 1313
f 1322 1330 1316
f 1314 1312 1313
f 1314 1313 1315
f 1325 1327 1326
f 1325 1326 1324
f 1325 1314 1315
f 1325 1324 1314
f 1333 1315 1313
f 1333 1313 1332
f 1318 1330 1331
f 1318 1316 1330
f 1318 1326 1327
f 1318 1327 1319
f 1329 1324 1326
f 1329 1326 1331
f 1329 1331 1330
f 1329 1330 1328
f 1329 1312 1314
f 1329 1328 1312
f 1317 1316 1318
f 1317 1318 1319
f 1335 1317 1319
f 1335 1334 1317
f 1335 1327 1325
f 1335 1325 1333
f 1335 1333 1332
f 1335 1332 1334
f 1321 1313 1312
f 1321 1312 1320
f 1321 1334 1332
f 1321 1323 1334
f 1322 1316 1317
f 1322 1317 1323
f 1322 1328 1330
f 1322 1320 1328
f 1322 1321 1320
f 1322 1323 1321
o Greave_76
usemtl edge
v 0.769671 0.000000 1.048292
v 0.701937 -0.162402 1.053364
v 0.539343 -0.229672 1.048257
v 0.377134 -0.162402 1.035964
v 0.310329 -0.000000 1.023685
v 0.378063 0.162402 1.018613
v 0.540657 0.229672 1.023720
v 0.702866 0.162402 1.036014
v 0.719785 -0.030000 0.484013
v 0.675611 -0.135915 0.487320
v 0.569571 -0.179786 0.483990
v 0.463783 -0.135915 0.475972
v 0.420215 -0.030000 0.467965
v 0.464389 0.075915 0.464657
v 0.570429 0.119786 0.467987
v 0.676217 0.075915 0.476005
f 1350 1341 1342
f 1350 1349 1341
f 1350 1342 1343
f 1350 1343 1351
f 1348 1340 1341
f 1348 1341 1349
f 1339 1348 1347
f 1339 1340 1348
f 1339 1347 1346
f 1339 1346 1338
f 1344 1349 1350
f 1344 1345 1346
f 1344 1346 1347
f 1344 1350 1351
f 1344 1348 1349
f 1344 1347 1348
f 1344 1343 1336
f 1344 1351 1343
f 1337 1336 1343
f 1337 1341 1340
f 1337 1342 1341
f 1337 1340 1339
f 1337 1343 1342
f 1337 1339 1338
f 1337 1345 1344
f 1337 1344 1336
f 1337 1346 1345
f 1337 1338 1346
o Greave_Ridge_77
usemtl copper
v 0.495000 -0.245000 0.515989
v 0.495000 -0.245000 0.995989
v 0.495000 -0.195000 0.515989
v 0.495000 -0.195000 0.995989
v 0.645000 -0.245000 0.515989
v 0.645000 -0.245000 0.995989
v 0.645000 -0.195000 0.515989
v 0.645000 -0.195000 0.995989
v 0.515000 -0.265000 0.515989
v 0.515000 -0.265000 0.995989
v 0.625000 -0.265000 0.515989
v 0.625000 -0.265000 0.995989
v 0.515000 -0.175000 0.515989
v 0.515000 -0.175000 0.995989
v 0.625000 -0.175000 0.515989
v 0.625000 -0.175000 0.995989
v 0.515000 -0.245000 0.495989
v 0.515000 -0.195000 0.495989
v 0.625000 -0.245000 0.495989
v 0.625000 -0.195000 0.495989
v 0.515000 -0.245000 1.015989
v 0.515000 -0.195000 1.015989
v 0.625000 -0.245000 1.015989
v 0.625000 -0.195000 1.015989
f 1359 1367 1375
f 1360 1352 1368
f 1373 1365 1355
f 1358 1371 1366
f 1369 1354 1364
f 1361 1372 1353
f 1362 1370 1356
f 1363 1357 1374
f 1354 1352 1353
f 1354 1353 1355
f 1365 1367 1366
f 1365 1366 1364
f 1365 1354 1355
f 1365 1364 1354
f 1373 1355 1353
f 1373 1353 1372
f 1373 1367 1365
f 1373 1375 1367
f 1358 1370 1371
f 1358 1356 1370
f 1358 1357 1356
f 1358 1359 1357
f 1358 1366 1367
f 1358 1367 1359
f 1369 1364 1366
f 1369 1366 1371
f 1369 1371 1370
f 1369 1370 1368
f 1369 1352 1354
f 1369 1368 1352
f 1374 1373 1372
f 1374 1375 1373
f 1374 1357 1359
f 1374 1359 1375
f 1361 1353 1352
f 1361 1352 1360
f 1362 1368 1370
f 1362 1360 1368
f 1363 1374 1372
f 1363 1372 1361
f 1363 1356 1357
f 1363 1362 1356
f 1363 1361 1360
f 1363 1360 1362
o Iron_Boot_78
usemtl stone
v 0.876000 -0.170000 0.043757
v 0.760788 0.130223 0.000000
v 0.501909 0.204372 0.023725
v 0.294304 -0.003389 0.036804
v 0.294304 -0.336611 0.032194
v 0.501909 -0.544372 0.047142
v 0.760788 -0.470223 0.043018
v 1.080000 -0.170000 0.209857
v 0.887980 0.330372 0.142983
v 0.456514 0.453954 0.173782
v 0.110506 0.107686 0.177360
v 0.110506 -0.447686 0.145875
v 0.456514 -0.793954 0.141411
v 0.887980 -0.670372 0.203285
v 0.937200 -0.170000 0.414736
v 0.798945 0.190268 0.399834
v 0.488290 0.279247 0.364659
v 0.239164 0.029934 0.393889
v 0.239164 -0.369934 0.363427
v 0.488290 -0.619247 0.396545
v 0.798945 -0.530268 0.361970
v 0.595500 -0.170000 0.465989
f 1390 1389 1383
f 1390 1383 1391
f 1390 1391 1397
f 1390 1397 1395
f 1376 1383 1389
f 1376 1377 1383
f 1384 1377 1385
f 1384 1385 1391
f 1384 1383 1377
f 1384 1391 1383
f 1392 1393 1397
f 1392 1397 1391
f 1392 1385 1393
f 1392 1391 1385
f 1394 1397 1393
f 1394 1395 1397
f 1394 1393 1387
f 1394 1387 1395
f 1396 1395 1389
f 1396 1389 1390
f 1396 1390 1395
f 1378 1385 1377
f 1378 1377 1379
f 1386 1393 1385
f 1386 1385 1378
f 1386 1378 1379
f 1386 1387 1393
f 1386 1379 1387
f 1388 1389 1395
f 1388 1395 1387
f 1380 1379 1377
f 1380 1377 1381
f 1380 1387 1379
f 1380 1388 1387
f 1380 1381 1388
f 1382 1376 1389
f 1382 1389 1388
f 1382 1388 1381
f 1382 1381 1377
f 1382 1377 1376
o Toe_Spike_79
usemtl dark
v 0.370000 -0.600000 0.110989
v 0.370000 -0.600000 0.180989
v 0.370000 -0.360000 0.110989
v 0.370000 -0.360000 0.180989
v 0.490000 -0.600000 0.110989
v 0.490000 -0.600000 0.180989
v 0.490000 -0.360000 0.110989
v 0.490000 -0.360000 0.180989
v 0.385000 -0.615000 0.110989
v 0.385000 -0.615000 0.180989
v 0.475000 -0.615000 0.110989
v 0.475000 -0.615000 0.180989
v 0.385000 -0.345000 0.110989
v 0.385000 -0.345000 0.180989
v 0.475000 -0.345000 0.110989
v 0.475000 -0.345000 0.180989
v 0.385000 -0.600000 0.095989
v 0.385000 -0.360000 0.095989
v 0.475000 -0.600000 0.095989
v 0.475000 -0.360000 0.095989
v 0.385000 -0.600000 0.195989
v 0.385000 -0.360000 0.195989
v 0.475000 -0.600000 0.195989
v 0.475000 -0.360000 0.195989
f 1419 1411 1401
f 1406 1398 1414
f 1405 1413 1421
f 1415 1400 1410
f 1412 1404 1417
f 1407 1418 1399
f 1408 1416 1402
f 1409 1403 1420
f 1400 1398 1399
f 1400 1399 1401
f 1411 1400 1401
f 1411 1410 1400
f 1419 1418 1420
f 1419 1420 1421
f 1419 1399 1418
f 1419 1401 1399
f 1413 1419 1421
f 1413 1411 1419
f 1417 1402 1416
f 1417 1404 1402
f 1405 1421 1420
f 1405 1420 1403
f 1405 1402 1404
f 1405 1403 1402
f 1415 1398 1400
f 1415 1414 1398
f 1415 1417 1416
f 1415 1416 1414
f 1412 1410 1411
f 1412 1411 1413
f 1412 1417 1415
f 1412 1415 1410
f 1412 1405 1404
f 1412 1413 1405
f 1407 1399 1398
f 1407 1398 1406
f 1408 1414 1416
f 1408 1406 1414
f 1409 1402 1403
f 1409 1408 1402
f 1409 1420 1418
f 1409 1418 1407
f 1409 1407 1406
f 1409 1406 1408
o Toe_Spike_80
usemtl dark
v 0.510000 -0.600000 0.110989
v 0.510000 -0.600000 0.180989
v 0.510000 -0.360000 0.110989
v 0.510000 -0.360000 0.180989
v 0.630000 -0.600000 0.110989
v 0.630000 -0.600000 0.180989
v 0.630000 -0.360000 0.110989
v 0.630000 -0.360000 0.180989
v 0.525000 -0.615000 0.110989
v 0.525000 -0.615000 0.180989
v 0.615000 -0.615000 0.110989
v 0.615000 -0.615000 0.180989
v 0.525000 -0.345000 0.110989
v 0.525000 -0.345000 0.180989
v 0.615000 -0.345000 0.110989
v 0.615000 -0.345000 0.180989
v 0.525000 -0.600000 0.095989
v 0.525000 -0.360000 0.095989
v 0.615000 -0.600000 0.095989
v 0.615000 -0.360000 0.095989
v 0.525000 -0.600000 0.195989
v 0.525000 -0.360000 0.195989
v 0.615000 -0.600000 0.195989
v 0.615000 -0.360000 0.195989
f 1443 1435 1425
f 1430 1422 1438
f 1429 1437 1445
f 1439 1424 1434
f 1436 1428 1441
f 1431 1442 1423
f 1432 1440 1426
f 1433 1427 1444
f 1424 1422 1423
f 1424 1423 1425
f 1435 1424 1425
f 1435 1434 1424
f 1443 1442 1444
f 1443 1444 1445
f 1443 1423 1442
f 1443 1425 1423
f 1437 1443 1445
f 1437 1435 1443
f 1441 1426 1440
f 1441 1428 1426
f 1429 1445 1444
f 1429 1444 1427
f 1429 1426 1428
f 1429 1427 1426
f 1439 1422 1424
f 1439 1438 1422
f 1439 1441 1440
f 1439 1440 1438
f 1436 1434 1435
f 1436 1435 1437
f 1436 1441 1439
f 1436 1439 1434
f 1436 1429 1428
f 1436 1437 1429
f 1431 1423 1422
f 1431 1422 1430
f 1432 1438 1440
f 1432 1430 1438
f 1433 1426 1427
f 1433 1432 1426
f 1433 1444 1442
f 1433 1442 1431
f 1433 1431 1430
f 1433 1430 1432
o Toe_Spike_81
usemtl dark
v 0.650000 -0.600000 0.110989
v 0.650000 -0.600000 0.180989
v 0.650000 -0.360000 0.110989
v 0.650000 -0.360000 0.180989
v 0.770000 -0.600000 0.110989
v 0.770000 -0.600000 0.180989
v 0.770000 -0.360000 0.110989
v 0.770000 -0.360000 0.180989
v 0.665000 -0.615000 0.110989
v 0.665000 -0.615000 0.180989
v 0.755000 -0.615000 0.110989
v 0.755000 -0.615000 0.180989
v 0.665000 -0.345000 0.110989
v 0.665000 -0.345000 0.180989
v 0.755000 -0.345000 0.110989
v 0.755000 -0.345000 0.180989
v 0.665000 -0.600000 0.095989
v 0.665000 -0.360000 0.095989
v 0.755000 -0.600000 0.095989
v 0.755000 -0.360000 0.095989
v 0.665000 -0.600000 0.195989
v 0.665000 -0.360000 0.195989
v 0.755000 -0.600000 0.195989
v 0.755000 -0.360000 0.195989
f 1467 1459 1449
f 1454 1446 1462
f 1453 1461 1469
f 1463 1448 1458
f 1460 1452 1465
f 1455 1466 1447
f 1456 1464 1450
f 1457 1451 1468
f 1448 1446 1447
f 1448 1447 1449
f 1459 1448 1449
f 1459 1458 1448
f 1467 1466 1468
f 1467 1468 1469
f 1467 1447 1466
f 1467 1449 1447
f 1461 1467 1469
f 1461 1459 1467
f 1465 1450 1464
f 1465 1452 1450
f 1453 1469 1468
f 1453 1468 1451
f 1453 1450 1452
f 1453 1451 1450
f 1463 1446 1448
f 1463 1462 1446
f 1463 1465 1464
f 1463 1464 1462
f 1460 1458 1459
f 1460 1459 1461
f 1460 1465 1463
f 1460 1463 1458
f 1460 1453 1452
f 1460 1461 1453
f 1455 1447 1446
f 1455 1446 1454
f 1456 1462 1464
f 1456 1454 1462
f 1457 1450 1451
f 1457 1456 1450
f 1457 1468 1466
f 1457 1466 1455
f 1457 1455 1454
f 1457 1454 1456