{"asset":{"version":"2.0","generator":"RIFTBOUND procedural asset builder"},"scene":0,"scenes":[{"nodes":[0]}],"nodes":[{"name":"RIG_Root","children":[1],"translation":[0.0,-0.014011290681566646,-0.0]},{"name":"RIG_Torso","children":[2,3,6,9,11,13,14,15,16,17,18,19,20,21,22,23,24,25,26,27,28,29,30,31,32,33],"translation":[0.0,2.03,-0.0]},{"name":"RIG_Head","children":[34,35,36,37,38,39,40,41,42,43,44],"translation":[0.0,1.62,-0.0]},{"name":"RIG_LeftUpperArm","children":[4,45,46,47,48,49,50],"translation":[-1.05,0.9700000000000002,-0.0]},{"name":"RIG_LeftForearm","children":[5,51,52,53,54,55],"translation":[-0.3699999999999999,-0.6000000000000001,0.03]},{"name":"RIG_LeftHand","children":[56,57,58,59,60,61],"translation":[-0.13000000000000012,-0.7599999999999998,0.11000000000000001]},{"name":"RIG_RightUpperArm","children":[7,70,71,72,73,74,75],"translation":[1.05,0.9700000000000002,-0.0]},{"name":"RIG_RightForearm","children":[8,76,77,78,79,80],"translation":[0.3699999999999999,-0.6000000000000001,0.03]},{"name":"RIG_RightHand","children":[81,82,83,84,85,86],"translation":[0.13000000000000012,-0.7599999999999998,0.11000000000000001]},{"name":"RIG_LeftThigh","children":[10,62,63,64,65],"translation":[-0.52,-0.7299999999999995,-0.0]},{"name":"RIG_LeftFoot","children":[66,67,68,69],"translation":[-0.04999999999999993,-1.0,0.16]},{"name":"RIG_RightThigh","children":[12,87,88,89,90],"translation":[0.52,-0.7299999999999995,-0.0]},{"name":"RIG_RightFoot","children":[91,92,93,94],"translation":[0.04999999999999993,-1.0,0.16]},{"name":"Armoured_Torso_Mesh","mesh":0,"translation":[0.002318181818181818,0.4591580183443251,-0.020000000000000014]},{"name":"Breastplate_Mesh","mesh":1,"translation":[0.0,0.7600000000000002,0.4000000000000001]},{"name":"Lower_Cuirass_Mesh","mesh":2,"translation":[-9.25185853854297e-18,-0.02999999999999914,0.3499999999999999]},{"name":"Pectoral_Mesh","mesh":3,"translation":[-0.43,0.9799999999999995,0.5300000000000001]},{"name":"Waist_Band_Mesh","mesh":4,"translation":[-0.3399999999999999,0.13999999999999968,0.47]},{"name":"Rib_Plate_Mesh","mesh":5,"translation":[-0.25,0.5700000000000003,0.5499999999999999]},{"name":"Rib_Plate_Mesh","mesh":6,"translation":[-0.4000000000000002,0.40000000000000036,0.5499999999999999]},{"name":"Rib_Plate_Mesh","mesh":7,"translation":[-0.5500000000000003,0.23000000000000131,0.5499999999999999]},{"name":"Pectoral_Mesh","mesh":8,"translation":[0.43,0.9799999999999995,0.5300000000000001]},{"name":"Waist_Band_Mesh","mesh":9,"translation":[0.3399999999999999,0.13999999999999968,0.47]},{"name":"Rib_Plate_Mesh","mesh":10,"translation":[0.25,0.5700000000000003,0.5499999999999999]},{"name":"Rib_Plate_Mesh","mesh":11,"translation":[0.4000000000000002,0.40000000000000036,0.5499999999999999]},{"name":"Rib_Plate_Mesh","mesh":12,"translation":[0.5500000000000003,0.23000000000000131,0.5499999999999999]},{"name":"Core_Frame_Mesh","mesh":13,"translation":[-4.625929269271485e-18,0.6500000000000004,0.6200000000000001]},{"name":"Heart_Core_Mesh","mesh":14,"translation":[1.0675221390626506e-18,0.5961538461538463,0.6936153846153845]},{"name":"Core_Cage_Mesh","mesh":15,"translation":[-0.19499999999999998,0.6850000000000005,0.695]},{"name":"Core_Cage_Mesh","mesh":16,"translation":[0.19500000000000003,0.6850000000000005,0.695]},{"name":"Back_Spike_Mesh","mesh":17,"translation":[-0.9699999999999999,1.1550000000000002,-0.41]},{"name":"Back_Spike_Mesh","mesh":18,"translation":[-1.05,1.3000000000000007,-0.41]},{"name":"Back_Spike_Mesh","mesh":19,"translation":[0.9699999999999999,1.1550000000000002,-0.41]},{"name":"Back_Spike_Mesh","mesh":20,"translation":[1.0499999999999998,1.3000000000000007,-0.41]},{"name":"Hollow_Helm_Mesh","mesh":21,"translation":[0.0010909090909090808,0.14134811898827104,3.784851220313033e-18]},{"name":"Faceplate_Mesh","mesh":22,"translation":[-4.625929269271485e-18,0.14999999999999858,0.40000000000000013]},{"name":"Visor_Mesh","mesh":23,"translation":[0.0,0.14999999999999858,0.51]},{"name":"Eye_Mesh","mesh":24,"translation":[-0.17999999999999997,0.14999999999999858,0.5400000000000001]},{"name":"Crown_Horn_Mesh","mesh":25,"translation":[-0.37,0.6749999999999994,-0.009999999999999997]},{"name":"Horn_Barb_Mesh","mesh":26,"translation":[-0.545,0.9500000000000015,-0.02]},{"name":"Crown_Crystal_Mesh","mesh":27,"translation":[-0.17015384615384616,0.6083076923076915,-0.06753846153846153]},{"name":"Eye_Mesh","mesh":28,"translation":[0.17999999999999997,0.14999999999999858,0.5400000000000001]},{"name":"Crown_Horn_Mesh","mesh":29,"translation":[0.37000000000000005,0.6750000000000003,-0.009999999999999997]},{"name":"Horn_Barb_Mesh","mesh":30,"translation":[0.545,0.9500000000000015,-0.02]},{"name":"Crown_Crystal_Mesh","mesh":31,"translation":[0.1701538461538462,0.6083076923076915,-0.06753846153846153]},{"name":"Pauldron_Mesh","mesh":32,"translation":[-0.06861363636363693,0.0301999770114163,-2.523234146875356e-18]},{"name":"Pauldron_Spike_Mesh","mesh":33,"translation":[0.10230769230769243,0.5558461538461543,0.029999999999999992]},{"name":"Pauldron_Spike_Mesh","mesh":34,"translation":[-0.08769230769230751,0.5897692307692313,0.029999999999999992]},{"name":"Pauldron_Spike_Mesh","mesh":35,"translation":[-0.27769230769230746,0.6236923076923078,0.029999999999999992]},{"name":"Armour_Trim_Mesh","mesh":36,"translation":[-0.16500000000000004,0.04999999999999982,0.42999999999999994]},{"name":"Bicep_Mesh","mesh":37,"translation":[-0.2549999999999999,-0.30000000000000027,0.010000000000000009]},{"name":"Gauntlet_Mesh","mesh":38,"translation":[-0.04902272727272727,-0.2835492096876777,0.019999999999999983]},{"name":"Gauntlet_Plate_Mesh","mesh":39,"translation":[-0.05000000000000049,-0.19999999999999973,0.27000000000000013]},{"name":"Gauntlet_Ridge_Mesh","mesh":40,"translation":[0.07999999999999985,-0.26000000000000023,0.345]},{"name":"Gauntlet_Ridge_Mesh","mesh":41,"translation":[-0.050000000000000044,-0.26000000000000023,0.345]},{"name":"Gauntlet_Ridge_Mesh","mesh":42,"translation":[-0.18000000000000016,-0.26000000000000023,0.345]},{"name":"Fist_Mesh","mesh":43,"translation":[0.0009090909090907484,-0.029862360051058356,0.01999999999999999]},{"name":"Knuckle_Mesh","mesh":44,"translation":[-0.10000000000000009,0.10999999999999988,0.22999999999999993]},{"name":"Knuckle_Mesh","mesh":45,"translation":[0.0,0.10999999999999988,0.22999999999999993]},{"name":"Knuckle_Mesh","mesh":46,"translation":[0.10000000000000009,0.10999999999999988,0.22999999999999993]},{"name":"Claw_Mesh","mesh":47,"translation":[-0.15500000000000003,-0.20499999999999985,0.13999999999999996]},{"name":"Claw_Mesh","mesh":48,"translation":[0.1549999999999998,-0.20499999999999985,0.13999999999999996]},{"name":"Armoured_Thigh_Mesh","mesh":49,"translation":[-0.008999999999999897,0.021796129776839868,-5.046468293750712e-18]},{"name":"Thigh_Plate_Mesh","mesh":50,"translation":[-0.010000000000000009,0.10000000000000009,0.28999999999999987]},{"name":"Greave_Mesh","mesh":51,"translation":[-0.03500000000000003,-0.53,0.015]},{"name":"Greave_Ridge_Mesh","mesh":52,"translation":[-0.050000000000000155,-0.5299999999999998,0.22000000000000006]},{"name":"Iron_Boot_Mesh","mesh":53,"translation":[0.001159090909090832,-0.0777049687898893,0.009999999999999953]},{"name":"Toe_Spike_Mesh","mesh":54,"translation":[-0.14,-0.14,0.31999999999999984]},{"name":"Toe_Spike_Mesh","mesh":55,"translation":[-2.220446049250313e-16,-0.14,0.31999999999999984]},{"name":"Toe_Spike_Mesh","mesh":56,"translation":[0.14000000000000007,-0.14,0.31999999999999984]},{"name":"Pauldron_Mesh","mesh":57,"translation":[0.07138636363636364,0.0301999770114163,-2.523234146875356e-18]},{"name":"Pauldron_Spike_Mesh","mesh":58,"translation":[-0.10230769230769221,0.5558461538461543,0.029999999999999992]},{"name":"Pauldron_Spike_Mesh","mesh":59,"translation":[0.08769230769230796,0.5897692307692313,0.029999999999999992]},{"name":"Pauldron_Spike_Mesh","mesh":60,"translation":[0.27769230769230746,0.6236923076923078,0.029999999999999992]},{"name":"Armour_Trim_Mesh","mesh":61,"translation":[0.16500000000000004,0.04999999999999982,0.43]},{"name":"Bicep_Mesh","mesh":62,"translation":[0.25499999999999967,-0.30000000000000027,0.009999999999999983]},{"name":"Gauntlet_Mesh","mesh":63,"translation":[0.05097727272727304,-0.2835492096876777,0.019999999999999983]},{"name":"Gauntlet_Plate_Mesh","mesh":64,"translation":[0.050000000000000044,-0.19999999999999973,0.27000000000000013]},{"name":"Gauntlet_Ridge_Mesh","mesh":65,"translation":[-0.07999999999999985,-0.26000000000000023,0.345]},{"name":"Gauntlet_Ridge_Mesh","mesh":66,"translation":[0.050000000000000266,-0.26000000000000023,0.345]},{"name":"Gauntlet_Ridge_Mesh","mesh":67,"translation":[0.18000000000000016,-0.26000000000000023,0.345]},{"name":"Fist_Mesh","mesh":68,"translation":[0.0009090909090909705,-0.029862360051058356,0.01999999999999999]},{"name":"Knuckle_Mesh","mesh":69,"translation":[-0.10000000000000009,0.10999999999999988,0.22999999999999993]},{"name":"Knuckle_Mesh","mesh":70,"translation":[-2.220446049250313e-16,0.10999999999999988,0.22999999999999993]},{"name":"Knuckle_Mesh","mesh":71,"translation":[0.10000000000000031,0.10999999999999988,0.22999999999999993]},{"name":"Claw_Mesh","mesh":72,"translation":[-0.1549999999999998,-0.20499999999999985,0.13999999999999996]},{"name":"Claw_Mesh","mesh":73,"translation":[0.15500000000000003,-0.20499999999999985,0.13999999999999996]},{"name":"Armoured_Thigh_Mesh","mesh":74,"translation":[0.010999999999999899,0.021796129776839868,-5.046468293750712e-18]},{"name":"Thigh_Plate_Mesh","mesh":75,"translation":[0.010000000000000009,0.10000000000000009,0.28999999999999987]},{"name":"Greave_Mesh","mesh":76,"translation":[0.03500000000000003,-0.53,0.015]},{"name":"Greave_Ridge_Mesh","mesh":77,"translation":[0.04999999999999993,-0.5299999999999998,0.22000000000000006]},{"name":"Iron_Boot_Mesh","mesh":78,"translation":[0.0011590909090907209,-0.0777049687898893,0.009999999999999953]},{"name":"Toe_Spike_Mesh","mesh":79,"translation":[-0.14000000000000018,-0.14,0.31999999999999984]},{"name":"Toe_Spike_Mesh","mesh":80,"translation":[2.220446049250313e-16,-0.14,0.31999999999999984]},{"name":"Toe_Spike_Mesh","mesh":81,"translation":[0.1399999999999999,-0.14,0.31999999999999984]}],"meshes":[{"name":"Armoured_Torso_0","primitives":[{"attributes":{"POSITION":0,"NORMAL":1},"material":0}]},{"name":"Breastplate_1","primitives":[{"attributes":{"POSITION":2,"NORMAL":3},"material":0}]},{"name":"Lower_Cuirass_2","primitives":[{"attributes":{"POSITION":4,"NORMAL":5},"material":2}]},{"name":"Pectoral_3","primitives":[{"attributes":{"POSITION":6,"NORMAL":7},"material":1}]},{"name":"Waist_Band_4","primitives":[{"attributes":{"POSITION":8,"NORMAL":9},"material":5}]},{"name":"Rib_Plate_5","primitives":[{"attributes":{"POSITION":10,"NORMAL":11},"material":2}]},{"name":"Rib_Plate_6","primitives":[{"attributes":{"POSITION":12,"NORMAL":13},"material":2}]},{"name":"Rib_Plate_7","primitives":[{"attributes":{"POSITION":14,"NORMAL":15},"material":2}]},{"name":"Pectoral_8","primitives":[{"attributes":{"POSITION":16,"NORMAL":17},"material":1}]},{"name":"Waist_Band_9","primitives":[{"attributes":{"POSITION":18,"NORMAL":19},"material":5}]},{"name":"Rib_Plate_10","primitives":[{"attributes":{"POSITION":20,"NORMAL":21},"material":2}]},{"name":"Rib_Plate_11","primitives":[{"attributes":{"POSITION":22,"NORMAL":23},"material":2}]},{"name":"Rib_Plate_12","primitives":[{"attributes":{"POSITION":24,"NORMAL":25},"material":2}]},{"name":"Core_Frame_13","primitives":[{"attributes":{"POSITION":26,"NORMAL":27},"material":5}]},{"name":"Heart_Core_14","primitives":[{"attributes":{"POSITION":28,"NORMAL":29},"material":7}]},{"name":"Core_Cage_15","primitives":[{"attributes":{"POSITION":30,"NORMAL":31},"material":6}]},{"name":"Core_Cage_16","primitives":[{"attributes":{"POSITION":32,"NORMAL":33},"material":6}]},{"name":"Back_Spike_17","primitives":[{"attributes":{"POSITION":34,"NORMAL":35},"material":2}]},{"name":"Back_Spike_18","primitives":[{"attributes":{"POSITION":36,"NORMAL":37},"material":2}]},{"name":"Back_Spike_19","primitives":[{"attributes":{"POSITION":38,"NORMAL":39},"material":2}]},{"name":"Back_Spike_20","primitives":[{"attributes":{"POSITION":40,"NORMAL":41},"material":2}]},{"name":"Hollow_Helm_21","primitives":[{"attributes":{"POSITION":42,"NORMAL":43},"material":2}]},{"name":"Faceplate_22","primitives":[{"attributes":{"POSITION":44,"NORMAL":45},"material":0}]},{"name":"Visor_23","primitives":[{"attributes":{"POSITION":46,"NORMAL":47},"material":2}]},{"name":"Eye_24","primitives":[{"attributes":{"POSITION":48,"NORMAL":49},"material":7}]},{"name":"Crown_Horn_25","primitives":[{"attributes":{"POSITION":50,"NORMAL":51},"material":4}]},{"name":"Horn_Barb_26","primitives":[{"attributes":{"POSITION":52,"NORMAL":53},"material":5}]},{"name":"Crown_Crystal_27","primitives":[{"attributes":{"POSITION":54,"NORMAL":55},"material":7}]},{"name":"Eye_28","primitives":[{"attributes":{"POSITION":56,"NORMAL":57},"material":7}]},{"name":"Crown_Horn_29","primitives":[{"attributes":{"POSITION":58,"NORMAL":59},"material":4}]},{"name":"Horn_Barb_30","primitives":[{"attributes":{"POSITION":60,"NORMAL":61},"material":5}]},{"name":"Crown_Crystal_31","primitives":[{"attributes":{"POSITION":62,"NORMAL":63},"material":7}]},{"name":"Pauldron_32","primitives":[{"attributes":{"POSITION":64,"NORMAL":65},"material":1}]},{"name":"Pauldron_Spike_33","primitives":[{"attributes":{"POSITION":66,"NORMAL":67},"material":7}]},{"name":"Pauldron_Spike_34","primitives":[{"attributes":{"POSITION":68,"NORMAL":69},"material":7}]},{"name":"Pauldron_Spike_35","primitives":[{"attributes":{"POSITION":70,"NORMAL":71},"material":7}]},{"name":"Armour_Trim_36","primitives":[{"attributes":{"POSITION":72,"NORMAL":73},"material":5}]},{"name":"Bicep_37","primitives":[{"attributes":{"POSITION":74,"NORMAL":75},"material":2}]},{"name":"Gauntlet_38","primitives":[{"attributes":{"POSITION":76,"NORMAL":77},"material":0}]},{"name":"Gauntlet_Plate_39","primitives":[{"attributes":{"POSITION":78,"NORMAL":79},"material":1}]},{"name":"Gauntlet_Ridge_40","primitives":[{"attributes":{"POSITION":80,"NORMAL":81},"material":5}]},{"name":"Gauntlet_Ridge_41","primitives":[{"attributes":{"POSITION":82,"NORMAL":83},"material":5}]},{"name":"Gauntlet_Ridge_42","primitives":[{"attributes":{"POSITION":84,"NORMAL":85},"material":5}]},{"name":"Fist_43","primitives":[{"attributes":{"POSITION":86,"NORMAL":87},"material":2}]},{"name":"Knuckle_44","primitives":[{"attributes":{"POSITION":88,"NORMAL":89},"material":5}]},{"name":"Knuckle_45","primitives":[{"attributes":{"POSITION":90,"NORMAL":91},"material":5}]},{"name":"Knuckle_46","primitives":[{"attributes":{"POSITION":92,"NORMAL":93},"material":5}]},{"name":"Claw_47","primitives":[{"attributes":{"POSITION":94,"NORMAL":95},"material":1}]},{"name":"Claw_48","primitives":[{"attributes":{"POSITION":96,"NORMAL":97},"material":1}]},{"name":"Armoured_Thigh_49","primitives":[{"attributes":{"POSITION":98,"NORMAL":99},"material":2}]},{"name":"Thigh_Plate_50","primitives":[{"attributes":{"POSITION":100,"NORMAL":101},"material":0}]},{"name":"Greave_51","primitives":[{"attributes":{"POSITION":102,"NORMAL":103},"material":1}]},{"name":"Greave_Ridge_52","primitives":[{"attributes":{"POSITION":104,"NORMAL":105},"material":5}]},{"name":"Iron_Boot_53","primitives":[{"attributes":{"POSITION":106,"NORMAL":107},"material":0}]},{"name":"Toe_Spike_54","primitives":[{"attributes":{"POSITION":108,"NORMAL":109},"material":2}]},{"name":"Toe_Spike_55","primitives":[{"attributes":{"POSITION":110,"NORMAL":111},"material":2}]},{"name":"Toe_Spike_56","primitives":[{"attributes":{"POSITION":112,"NORMAL":113},"material":2}]},{"name":"Pauldron_57","primitives":[{"attributes":{"POSITION":114,"NORMAL":115},"material":1}]},{"name":"Pauldron_Spike_58","primitives":[{"attributes":{"POSITION":116,"NORMAL":117},"material":7}]},{"name":"Pauldron_Spike_59","primitives":[{"attributes":{"POSITION":118,"NORMAL":119},"material":7}]},{"name":"Pauldron_Spike_60","primitives":[{"attributes":{"POSITION":120,"NORMAL":121},"material":7}]},{"name":"Armour_Trim_61","primitives":[{"attributes":{"POSITION":122,"NORMAL":123},"material":5}]},{"name":"Bicep_62","primitives":[{"attributes":{"POSITION":124,"NORMAL":125},"material":2}]},{"name":"Gauntlet_63","primitives":[{"attributes":{"POSITION":126,"NORMAL":127},"material":0}]},{"name":"Gauntlet_Plate_64","primitives":[{"attributes":{"POSITION":128,"NORMAL":129},"material":1}]},{"name":"Gauntlet_Ridge_65","primitives":[{"attributes":{"POSITION":130,"NORMAL":131},"material":5}]},{"name":"Gauntlet_Ridge_66","primitives":[{"attributes":{"POSITION":132,"NORMAL":133},"material":5}]},{"name":"Gauntlet_Ridge_67","primitives":[{"attributes":{"POSITION":134,"NORMAL":135},"material":5}]},{"name":"Fist_68","primitives":[{"attributes":{"POSITION":136,"NORMAL":137},"material":2}]},{"name":"Knuckle_69","primitives":[{"attributes":{"POSITION":138,"NORMAL":139},"material":5}]},{"name":"Knuckle_70","primitives":[{"attributes":{"POSITION":140,"NORMAL":141},"material":5}]},{"name":"Knuckle_71","primitives":[{"attributes":{"POSITION":142,"NORMAL":143},"material":5}]},{"name":"Claw_72","primitives":[{"attributes":{"POSITION":144,"NORMAL":145},"material":1}]},{"name":"Claw_73","primitives":[{"attributes":{"POSITION":146,"NORMAL":147},"material":1}]},{"name":"Armoured_Thigh_74","primitives":[{"attributes":{"POSITION":148,"NORMAL":149},"material":2}]},{"name":"Thigh_Plate_75","primitives":[{"attributes":{"POSITION":150,"NORMAL":151},"material":0}]},{"name":"Greave_76","primitives":[{"attributes":{"POSITION":152,"NORMAL":153},"material":1}]},{"name":"Greave_Ridge_77","primitives":[{"attributes":{"POSITION":154,"NORMAL":155},"material":5}]},{"name":"Iron_Boot_78","primitives":[{"attributes":{"POSITION":156,"NORMAL":157},"material":0}]},{"name":"Toe_Spike_79","primitives":[{"attributes":{"POSITION":158,"NORMAL":159},"material":2}]},{"name":"Toe_Spike_80","primitives":[{"attributes":{"POSITION":160,"NORMAL":161},"material":2}]},{"name":"Toe_Spike_81","primitives":[{"attributes":{"POSITION":162,"NORMAL":163},"material":2}]}],"materials":[{"name":"stone","pbrMetallicRoughness":{"baseColorFactor":[0.05284162552287903,0.08464151072542946,0.11657577617857154,1],"metallicFactor":0,"roughnessFactor":0.8}},{"name":"edge","pbrMetallicRoughness":{"baseColorFactor":[0.18014428915439032,0.27583283346124515,0.31118049905798434,1],"metallicFactor":0,"roughnessFactor":0.8}},{"name":"dark","pbrMetallicRoughness":{"baseColorFactor":[0.009021491898012131,0.016988052089250045,0.03155139140022645,1],"metallicFactor":0,"roughnessFactor":0.8}},{"name":"wood","pbrMetallicRoughness":{"baseColorFactor":[0.1390224537347025,0.04943345755590796,0.02201299491933654,1],"metallicFactor":0,"roughnessFactor":0.8}},{"name":"woodlight","pbrMetallicRoughness":{"baseColorFactor":[0.36859092219748707,0.14497212559723088,0.042987010162657116,1],"metallicFactor":0,"roughnessFactor":0.8}},{"name":"copper","pbrMetallicRoughness":{"baseColorFactor":[0.6730490732809419,0.20835965596076741,0.05637409755197975,1],"metallicFactor":0.35,"roughnessFactor":0.8}},{"name":"gold","pbrMetallicRoughness":{"baseColorFactor":[0.9489649381781952,0.5174013674966733,0.12752977781342206,1],"metallicFactor":0.35,"roughnessFactor":0.8}},{"name":"rift","pbrMetallicRoughness":{"baseColorFactor":[0.051122050056493396,0.7969165429079781,0.5859729839496614,1],"metallicFactor":0,"roughnessFactor":0.8},"emissiveFactor":[0.017892717519772686,0.2789207900177923,0.20509054438238147]},{"name":"ice","pbrMetallicRoughness":{"baseColorFactor":[0.4704402453042184,1.0,0.8355277914608409,1],"metallicFactor":0,"roughnessFactor":0.8},"emissiveFactor":[0.16465408585647642,0.35,0.2924347270112943]},{"name":"moss","pbrMetallicRoughness":{"baseColorFactor":[0.05459227728176034,0.14799802298268516,0.06381487094867724,1],"metallicFactor":0,"roughnessFactor":0.8}},{"name":"bark","pbrMetallicRoughness":{"baseColorFactor":[0.06575388026033009,0.03423020656508195,0.020951131914781092,1],"metallicFactor":0,"roughnessFactor":0.8}},{"name":"cloth","pbrMetallicRoughness":{"baseColorFactor":[0.03994717100152558,0.10114516420959989,0.10363409665513738,1],"metallicFactor":0,"roughnessFactor":0.8}},{"name":"leather","pbrMetallicRoughness":{"baseColorFactor":[0.05818717747368544,0.020951131914781092,0.015175238159625197,1],"metallicFactor":0,"roughnessFactor":0.8}},{"name":"fire","pbrMetallicRoughness":{"baseColorFactor":[1.0,0.3157627437363971,0.04943345755590796,1],"metallicFactor":0,"roughnessFactor":0.8},"emissiveFactor":[0.35,0.11051696030773898,0.017301710144567783]}],"bufferViews":[{"buffer":0,"byteOffset":0,"byteLength":1368},{"buffer":0,"byteOffset":1368,"byteLength":1368},{"buffer":0,"byteOffset":2736,"byteLength":1584},{"buffer":0,"byteOffset":4320,"byteLength":1584},{"buffer":0,"byteOffset":5904,"byteLength":1584},{"buffer":0,"byteOffset":7488,"byteLength":1584},{"buffer":0,"byteOffset":9072,"byteLength":1584},{"buffer":0,"byteOffset":10656,"byteLength":1584},{"buffer":0,"byteOffset":12240,"byteLength":1584},{"buffer":0,"byteOffset":13824,"byteLength":1584},{"buffer":0,"byteOffset":15408,"byteLength":1584},{"buffer":0,"byteOffset":16992,"byteLength":1584},{"buffer":0,"byteOffset":18576,"byteLength":1584},{"buffer":0,"byteOffset":20160,"byteLength":1584},{"buffer":0,"byteOffset":21744,"byteLength":1584},{"buffer":0,"byteOffset":23328,"byteLength":1584},{"buffer":0,"byteOffset":24912,"byteLength":1584},{"buffer":0,"byteOffset":26496,"byteLength":1584},{"buffer":0,"byteOffset":28080,"byteLength":1584},{"buffer":0,"byteOffset":29664,"byteLength":1584},{"buffer":0,"byteOffset":31248,"byteLength":1584},{"buffer":0,"byteOffset":32832,"byteLength":1584},{"buffer":0,"byteOffset":34416,"byteLength":1584},{"buffer":0,"byteOffset":36000,"byteLength":1584},{"buffer":0,"byteOffset":37584,"byteLength":1584},{"buffer":0,"byteOffset":39168,"byteLength":1584},{"buffer":0,"byteOffset":40752,"byteLength":1584},{"buffer":0,"byteOffset":42336,"byteLength":1584},{"buffer":0,"byteOffset":43920,"byteLength":792},{"buffer":0,"byteOffset":44712,"byteLength":792},{"buffer":0,"byteOffset":45504,"byteLength":720},{"buffer":0,"byteOffset":46224,"byteLength":720},{"buffer":0,"byteOffset":46944,"byteLength":720},{"buffer":0,"byteOffset":47664,"byteLength":720},{"buffer":0,"byteOffset":48384,"byteLength":720},{"buffer":0,"byteOffset":49104,"byteLength":720},{"buffer":0,"byteOffset":49824,"byteLength":720},{"buffer":0,"byteOffset":50544,"byteLength":720},{"buffer":0,"byteOffset":51264,"byteLength":720},{"buffer":0,"byteOffset":51984,"byteLength":720},{"buffer":0,"byteOffset":52704,"byteLength":720},{"buffer":0,"byteOffset":53424,"byteLength":720},{"buffer":0,"byteOffset":54144,"byteLength":1440},{"buffer":0,"byteOffset":55584,"byteLength":1440},{"buffer":0,"byteOffset":57024,"byteLength":1584},{"buffer":0,"byteOffset":58608,"byteLength":1584},{"buffer":0,"byteOffset":60192,"byteLength":1584},{"buffer":0,"byteOffset":61776,"byteLength":1584},{"buffer":0,"byteOffset":63360,"byteLength":1584},{"buffer":0,"byteOffset":64944,"byteLength":1584},{"buffer":0,"byteOffset":66528,"byteLength":864},{"buffer":0,"byteOffset":67392,"byteLength":864},{"buffer":0,"byteOffset":68256,"byteLength":720},{"buffer":0,"byteOffset":68976,"byteLength":720},{"buffer":0,"byteOffset":69696,"byteLength":792},{"buffer":0,"byteOffset":70488,"byteLength":792},{"buffer":0,"byteOffset":71280,"byteLength":1584},{"buffer":0,"byteOffset":72864,"byteLength":1584},{"buffer":0,"byteOffset":74448,"byteLength":864},{"buffer":0,"byteOffset":75312,"byteLength":864},{"buffer":0,"byteOffset":76176,"byteLength":720},{"buffer":0,"byteOffset":76896,"byteLength":720},{"buffer":0,"byteOffset":77616,"byteLength":792},{"buffer":0,"byteOffset":78408,"byteLength":792},{"buffer":0,"byteOffset":79200,"byteLength":1440},{"buffer":0,"byteOffset":80640,"byteLength":1440},{"buffer":0,"byteOffset":82080,"byteLength":792},{"buffer":0,"byteOffset":82872,"byteLength":792},{"buffer":0,"byteOffset":83664,"byteLength":792},{"buffer":0,"byteOffset":84456,"byteLength":792},{"buffer":0,"byteOffset":85248,"byteLength":792},{"buffer":0,"byteOffset":86040,"byteLength":792},{"buffer":0,"byteOffset":86832,"byteLength":720},{"buffer":0,"byteOffset":87552,"byteLength":720},{"buffer":0,"byteOffset":88272,"byteLength":1008},{"buffer":0,"byteOffset":89280,"byteLength":1008},{"buffer":0,"byteOffset":90288,"byteLength":1440},{"buffer":0,"byteOffset":91728,"byteLength":1440},{"buffer":0,"byteOffset":93168,"byteLength":1584},{"buffer":0,"byteOffset":94752,"byteLength":1584},{"buffer":0,"byteOffset":96336,"byteLength":576},{"buffer":0,"byteOffset":96912,"byteLength":576},{"buffer":0,"byteOffset":97488,"byteLength":576},{"buffer":0,"byteOffset":98064,"byteLength":576},{"buffer":0,"byteOffset":98640,"byteLength":576},{"buffer":0,"byteOffset":99216,"byteLength":576},{"buffer":0,"byteOffset":99792,"byteLength":1440},{"buffer":0,"byteOffset":101232,"byteLength":1440},{"buffer":0,"byteOffset":102672,"byteLength":720},{"buffer":0,"byteOffset":103392,"byteLength":720},{"buffer":0,"byteOffset":104112,"byteLength":720},{"buffer":0,"byteOffset":104832,"byteLength":720},{"buffer":0,"byteOffset":105552,"byteLength":720},{"buffer":0,"byteOffset":106272,"byteLength":720},{"buffer":0,"byteOffset":106992,"byteLength":720},{"buffer":0,"byteOffset":107712,"byteLength":720},{"buffer":0,"byteOffset":108432,"byteLength":720},{"buffer":0,"byteOffset":109152,"byteLength":720},{"buffer":0,"byteOffset":109872,"byteLength":1440},{"buffer":0,"byteOffset":111312,"byteLength":1440},{"buffer":0,"byteOffset":112752,"byteLength":1584},{"buffer":0,"byteOffset":114336,"byteLength":1584},{"buffer":0,"byteOffset":115920,"byteLength":1008},{"buffer":0,"byteOffset":116928,"byteLength":1008},{"buffer":0,"byteOffset":117936,"byteLength":1584},{"buffer":0,"byteOffset":119520,"byteLength":1584},{"buffer":0,"byteOffset":121104,"byteLength":1440},{"buffer":0,"byteOffset":122544,"byteLength":1440},{"buffer":0,"byteOffset":123984,"byteLength":1584},{"buffer":0,"byteOffset":125568,"byteLength":1584},{"buffer":0,"byteOffset":127152,"byteLength":1584},{"buffer":0,"byteOffset":128736,"byteLength":1584},{"buffer":0,"byteOffset":130320,"byteLength":1584},{"buffer":0,"byteOffset":131904,"byteLength":1584},{"buffer":0,"byteOffset":133488,"byteLength":1440},{"buffer":0,"byteOffset":134928,"byteLength":1440},{"buffer":0,"byteOffset":136368,"byteLength":792},{"buffer":0,"byteOffset":137160,"byteLength":792},{"buffer":0,"byteOffset":137952,"byteLength":792},{"buffer":0,"byteOffset":138744,"byteLength":792},{"buffer":0,"byteOffset":139536,"byteLength":792},{"buffer":0,"byteOffset":140328,"byteLength":792},{"buffer":0,"byteOffset":141120,"byteLength":720},{"buffer":0,"byteOffset":141840,"byteLength":720},{"buffer":0,"byteOffset":142560,"byteLength":1008},{"buffer":0,"byteOffset":143568,"byteLength":1008},{"buffer":0,"byteOffset":144576,"byteLength":1440},{"buffer":0,"byteOffset":146016,"byteLength":1440},{"buffer":0,"byteOffset":147456,"byteLength":1584},{"buffer":0,"byteOffset":149040,"byteLength":1584},{"buffer":0,"byteOffset":150624,"byteLength":576},{"buffer":0,"byteOffset":151200,"byteLength":576},{"buffer":0,"byteOffset":151776,"byteLength":576},{"buffer":0,"byteOffset":152352,"byteLength":576},{"buffer":0,"byteOffset":152928,"byteLength":576},{"buffer":0,"byteOffset":153504,"byteLength":576},{"buffer":0,"byteOffset":154080,"byteLength":1440},{"buffer":0,"byteOffset":155520,"byteLength":1440},{"buffer":0,"byteOffset":156960,"byteLength":720},{"buffer":0,"byteOffset":157680,"byteLength":720},{"buffer":0,"byteOffset":158400,"byteLength":720},{"buffer":0,"byteOffset":159120,"byteLength":720},{"buffer":0,"byteOffset":159840,"byteLength":720},{"buffer":0,"byteOffset":160560,"byteLength":720},{"buffer":0,"byteOffset":161280,"byteLength":720},{"buffer":0,"byteOffset":162000,"byteLength":720},{"buffer":0,"byteOffset":162720,"byteLength":720},{"buffer":0,"byteOffset":163440,"byteLength":720},{"buffer":0,"byteOffset":164160,"byteLength":1440},{"buffer":0,"byteOffset":165600,"byteLength":1440},{"buffer":0,"byteOffset":167040,"byteLength":1584},{"buffer":0,"byteOffset":168624,"byteLength":1584},{"buffer":0,"byteOffset":170208,"byteLength":1008},{"buffer":0,"byteOffset":171216,"byteLength":1008},{"buffer":0,"byteOffset":172224,"byteLength":1584},{"buffer":0,"byteOffset":173808,"byteLength":1584},{"buffer":0,"byteOffset":175392,"byteLength":1440},{"buffer":0,"byteOffset":176832,"byteLength":1440},{"buffer":0,"byteOffset":178272,"byteLength":1584},{"buffer":0,"byteOffset":179856,"byteLength":1584},{"buffer":0,"byteOffset":181440,"byteLength":1584},{"buffer":0,"byteOffset":183024,"byteLength":1584},{"buffer":0,"byteOffset":184608,"byteLength":1584},{"buffer":0,"byteOffset":186192,"byteLength":1584}],"accessors":[{"bufferView":0,"componentType":5126,"count":114,"type":"VEC3","min":[-0.9213064312934875,-0.8772606253623962,-0.5654581785202026],"max":[1.0176818370819092,1.0608420372009277,0.5654581785202026]},{"bufferView":1,"componentType":5126,"count":114,"type":"VEC3","min":[-0.9350413680076599,-0.9999435544013977,-0.9786163568496704],"max":[0.8005416989326477,0.8776803016662598,0.9770157933235168]},{"bufferView":2,"componentType":5126,"count":132,"type":"VEC3","min":[-0.8349999785423279,-0.6399999856948853,-0.11500000208616257],"max":[0.8349999785423279,0.6399999856948853,0.11500000208616257]},{"bufferView":3,"componentType":5126,"count":132,"type":"VEC3","min":[-1.0,-1.0,-1.0],"max":[1.0,1.0,1.0]},{"bufferView":4,"componentType":5126,"count":132,"type":"VEC3","min":[-0.6299999952316284,-0.2199999988079071,-0.10000000149011612],"max":[0.6299999952316284,0.2199999988079071,0.10000000149011612]},{"bufferView":5,"componentType":5126,"count":132,"type":"VEC3","min":[-1.0,-1.0,-1.0],"max":[1.0,1.0,1.0]},{"bufferView":6,"componentType":5126,"count":132,"type":"VEC3","min":[-0.3400000035762787,-0.23000000417232513,-0.07999999821186066],"max":[0.3400000035762787,0.23000000417232513,0.07999999821186066]},{"bufferView":7,"componentType":5126,"count":132,"type":"VEC3","min":[-1.0,-1.0,-1.0],"max":[1.0,1.0,1.0]},{"bufferView":8,"componentType":5126,"count":132,"type":"VEC3","min":[-0.28999999165534973,-0.08500000089406967,-0.05999999865889549],"max":[0.28999999165534973,0.08500000089406967,0.05999999865889549]},{"bufferView":9,"componentType":5126,"count":132,"type":"VEC3","min":[-1.0,-1.0,-1.0],"max":[1.0,1.0,1.0]},{"bufferView":10,"componentType":5126,"count":132,"type":"VEC3","min":[-0.10999999940395355,-0.042500000447034836,-0.03500000014901161],"max":[0.10999999940395355,0.042500000447034836,0.03500000014901161]},{"bufferView":11,"componentType":5126,"count":132,"type":"VEC3","min":[-1.0,-1.0,-1.0],"max":[1.0,1.0,1.0]},{"bufferView":12,"componentType":5126,"count":132,"type":"VEC3","min":[-0.10999999940395355,-0.042500000447034836,-0.03500000014901161],"max":[0.10999999940395355,0.042500000447034836,0.03500000014901161]},{"bufferView":13,"componentType":5126,"count":132,"type":"VEC3","min":[-1.0,-1.0,-1.0],"max":[1.0,1.0,1.0]},{"bufferView":14,"componentType":5126,"count":132,"type":"VEC3","min":[-0.10999999940395355,-0.042500000447034836,-0.03500000014901161],"max":[0.10999999940395355,0.042500000447034836,0.03500000014901161]},{"bufferView":15,"componentType":5126,"count":132,"type":"VEC3","min":[-1.0,-1.0,-1.0],"max":[1.0,1.0,1.0]},{"bufferView":16,"componentType":5126,"count":132,"type":"VEC3","min":[-0.3400000035762787,-0.23000000417232513,-0.07999999821186066],"max":[0.3400000035762787,0.23000000417232513,0.07999999821186066]},{"bufferView":17,"componentType":5126,"count":132,"type":"VEC3","min":[-1.0,-1.0,-1.0],"max":[1.0,1.0,1.0]},{"bufferView":18,"componentType":5126,"count":132,"type":"VEC3","min":[-0.28999999165534973,-0.08500000089406967,-0.05999999865889549],"max":[0.28999999165534973,0.08500000089406967,0.05999999865889549]},{"bufferView":19,"componentType":5126,"count":132,"type":"VEC3","min":[-1.0,-1.0,-1.0],"max":[1.0,1.0,1.0]},{"bufferView":20,"componentType":5126,"count":132,"type":"VEC3","min":[-0.10999999940395355,-0.042500000447034836,-0.03500000014901161],"max":[0.10999999940395355,0.042500000447034836,0.03500000014901161]},{"bufferView":21,"componentType":5126,"count":132,"type":"VEC3","min":[-1.0,-1.0,-1.0],"max":[1.0,1.0,1.0]},{"bufferView":22,"componentType":5126,"count":132,"type":"VEC3","min":[-0.10999999940395355,-0.042500000447034836,-0.03500000014901161],"max":[0.10999999940395355,0.042500000447034836,0.03500000014901161]},{"bufferView":23,"componentType":5126,"count":132,"type":"VEC3","min":[-1.0,-1.0,-1.0],"max":[1.0,1.0,1.0]},{"bufferView":24,"componentType":5126,"count":132,"type":"VEC3","min":[-0.10999999940395355,-0.042500000447034836,-0.03500000014901161],"max":[0.10999999940395355,0.042500000447034836,0.03500000014901161]},{"bufferView":25,"componentType":5126,"count":132,"type":"VEC3","min":[-1.0,-1.0,-1.0],"max":[1.0,1.0,1.0]},{"bufferView":26,"componentType":5126,"count":132,"type":"VEC3","min":[-0.29499998688697815,-0.4000000059604645,-0.07500000298023224],"max":[0.29499998688697815,0.4000000059604645,0.07500000298023224]},{"bufferView":27,"componentType":5126,"count":132,"type":"VEC3","min":[-1.0,-1.0,-1.0],"max":[1.0,1.0,1.0]},{"bufferView":28,"componentType":5126,"count":66,"type":"VEC3","min":[-0.2199999988079071,-0.22615385055541992,-0.2096409797668457],"max":[0.2199999988079071,0.3738461434841156,0.1714102029800415]},{"bufferView":29,"componentType":5126,"count":66,"type":"VEC3","min":[-0.8605821132659912,-1.0,-0.9610307216644287],"max":[0.8605821132659912,0.715417742729187,0.9985280632972717]},{"bufferView":30,"componentType":5126,"count":60,"type":"VEC3","min":[-0.05488524213433266,-0.28762149810791016,-0.0309767946600914],"max":[0.05488524213433266,0.28762149810791016,0.0309767946600914]},{"bufferView":31,"componentType":5126,"count":60,"type":"VEC3","min":[-0.8634760975837708,-0.996022641658783,-0.9998472929000854],"max":[0.8634760975837708,0.996022641658783,0.9998472929000854]},{"bufferView":32,"componentType":5126,"count":60,"type":"VEC3","min":[-0.05488524213433266,-0.28762149810791016,-0.0309767946600914],"max":[0.05488524213433266,0.28762149810791016,0.0309767946600914]},{"bufferView":33,"componentType":5126,"count":60,"type":"VEC3","min":[-0.8634760975837708,-0.996022641658783,-0.9998472929000854],"max":[0.8634760975837708,0.996022641658783,0.9998472929000854]},{"bufferView":34,"componentType":5126,"count":60,"type":"VEC3","min":[-0.20604383945465088,-0.20073483884334564,-0.07943858206272125],"max":[0.2543945014476776,0.14230386912822723,0.15494725108146667]},{"bufferView":35,"componentType":5126,"count":60,"type":"VEC3","min":[-0.7960297465324402,-0.7620851397514343,-0.9357189536094666],"max":[0.7960297465324402,0.9088641405105591,0.8596113920211792]},{"bufferView":36,"componentType":5126,"count":60,"type":"VEC3","min":[-0.28565871715545654,-0.24613463878631592,-0.07970142364501953],"max":[0.33092832565307617,0.18734829127788544,0.15731282532215118]},{"bufferView":37,"componentType":5126,"count":60,"type":"VEC3","min":[-0.823173463344574,-0.7905261516571045,-0.9205377101898193],"max":[0.823173463344574,0.897756814956665,0.8788369297981262]},{"bufferView":38,"componentType":5126,"count":60,"type":"VEC3","min":[-0.2543945014476776,-0.20073483884334564,-0.07943858206272125],"max":[0.20604383945465088,0.14230386912822723,0.15494725108146667]},{"bufferView":39,"componentType":5126,"count":60,"type":"VEC3","min":[-0.7960297465324402,-0.7620851397514343,-0.9357189536094666],"max":[0.7960297465324402,0.9088641405105591,0.8596113920211792]},{"bufferView":40,"componentType":5126,"count":60,"type":"VEC3","min":[-0.33092832565307617,-0.24613463878631592,-0.07970142364501953],"max":[0.28565871715545654,0.18734829127788544,0.15731282532215118]},{"bufferView":41,"componentType":5126,"count":60,"type":"VEC3","min":[-0.823173463344574,-0.7905261516571045,-0.9205377101898193],"max":[0.823173463344574,0.897756814956665,0.8788369297981262]},{"bufferView":42,"componentType":5126,"count":120,"type":"VEC3","min":[-0.4335559606552124,-0.4241730868816376,-0.4192190170288086],"max":[0.47890910506248474,0.558651864528656,0.4192190170288086]},{"bufferView":43,"componentType":5126,"count":120,"type":"VEC3","min":[-0.9695656895637512,-0.99965900182724,-0.9470494389533997],"max":[0.8624111413955688,0.9112682938575745,0.9620320796966553]},{"bufferView":44,"componentType":5126,"count":132,"type":"VEC3","min":[-0.36000001430511475,-0.2199999988079071,-0.09000000357627869],"max":[0.36000001430511475,0.2199999988079071,0.09000000357627869]},{"bufferView":45,"componentType":5126,"count":132,"type":"VEC3","min":[-1.0,-1.0,-1.0],"max":[1.0,1.0,1.0]},{"bufferView":46,"componentType":5126,"count":132,"type":"VEC3","min":[-0.2750000059604645,-0.06499999761581421,-0.019999999552965164],"max":[0.2750000059604645,0.06499999761581421,0.019999999552965164]},{"bufferView":47,"componentType":5126,"count":132,"type":"VEC3","min":[-1.0,-1.0,-1.0],"max":[1.0,1.0,1.0]},{"bufferView":48,"componentType":5126,"count":132,"type":"VEC3","min":[-0.07999999821186066,-0.027499999850988388,-0.017500000074505806],"max":[0.07999999821186066,0.027499999850988388,0.017500000074505806]},{"bufferView":49,"componentType":5126,"count":132,"type":"VEC3","min":[-1.0,-1.0,-1.0],"max":[1.0,1.0,1.0]},{"bufferView":50,"componentType":5126,"count":72,"type":"VEC3","min":[-0.13206568360328674,-0.26658931374549866,-0.12636716663837433],"max":[0.19120657444000244,0.24353890120983124,0.1463671624660492]},{"bufferView":51,"componentType":5126,"count":72,"type":"VEC3","min":[-0.8991002440452576,-0.9539980888366699,-0.9702204465866089],"max":[0.9031194448471069,0.9539980888366699,0.9581952691078186]},{"bufferView":52,"componentType":5126,"count":60,"type":"VEC3","min":[-0.10797866433858871,-0.10473301261663437,-0.07000000029802322],"max":[0.1310633420944214,0.05625520274043083,0.07000000029802322]},{"bufferView":53,"componentType":5126,"count":60,"type":"VEC3","min":[-0.9028605222702026,-0.783018946647644,-0.8438332080841064],"max":[0.9028605222702026,0.9764298796653748,0.8438332080841064]},{"bufferView":54,"componentType":5126,"count":66,"type":"VEC3","min":[-0.13184615969657898,-0.15830768644809723,-0.10072433203458786],"max":[0.10165384411811829,0.2616923153400421,0.08980125933885574]},{"bufferView":55,"componentType":5126,"count":66,"type":"VEC3","min":[-0.8374860286712646,-1.0,-0.9858964085578918],"max":[0.865868866443634,0.6417579650878906,0.9972354173660278]},{"bufferView":56,"componentType":5126,"count":132,"type":"VEC3","min":[-0.07999999821186066,-0.027499999850988388,-0.017500000074505806],"max":[0.07999999821186066,0.027499999850988388,0.017500000074505806]},{"bufferView":57,"componentType":5126,"count":132,"type":"VEC3","min":[-1.0,-1.0,-1.0],"max":[1.0,1.0,1.0]},{"bufferView":58,"componentType":5126,"count":72,"type":"VEC3","min":[-0.20367994904518127,-0.26492995023727417,-0.12636716663837433],"max":[0.1262744814157486,0.24430932104587555,0.1463671624660492]},{"bufferView":59,"componentType":5126,"count":72,"type":"VEC3","min":[-0.8149242997169495,-0.9539980888366699,-0.9702204465866089],"max":[0.987295389175415,0.9539980888366699,0.9581952691078186]},{"bufferView":60,"componentType":5126,"count":60,"type":"VEC3","min":[-0.1310633420944214,-0.10473301261663437,-0.07000000029802322],"max":[0.10797866433858871,0.05625520274043083,0.07000000029802322]},{"bufferView":61,"componentType":5126,"count":60,"type":"VEC3","min":[-0.9028605222702026,-0.783018946647644,-0.8438332080841064],"max":[0.9028605222702026,0.9764298796653748,0.8438332080841064]},{"bufferView":62,"componentType":5126,"count":66,"type":"VEC3","min":[-0.10165384411811829,-0.15830768644809723,-0.10072433203458786],"max":[0.13184615969657898,0.2616923153400421,0.08980125933885574]},{"bufferView":63,"componentType":5126,"count":66,"type":"VEC3","min":[-0.865868866443634,-1.0,-0.9858964085578918],"max":[0.8374860286712646,0.6417579650878906,0.9972354173660278]},{"bufferView":64,"componentType":5126,"count":120,"type":"VEC3","min":[-0.550977349281311,-0.5046671628952026,-0.5947059988975525],"max":[0.6086136102676392,0.579800009727478,0.5947059988975525]},{"bufferView":65,"componentType":5126,"count":120,"type":"VEC3","min":[-0.9325289726257324,-0.9855403900146484,-0.9214534759521484],"max":[0.8850263953208923,0.9260610938072205,0.939853310585022]},{"bufferView":66,"componentType":5126,"count":66,"type":"VEC3","min":[-0.1573076993227005,-0.16584615409374237,-0.11258330196142197],"max":[0.12219230830669403,0.27415385842323303,0.11258330196142197]},{"bufferView":67,"componentType":5126,"count":66,"type":"VEC3","min":[-0.8212710618972778,-1.0,-0.9906418323516846],"max":[0.8645195960998535,0.6801806092262268,0.9906418323516846]},{"bufferView":68,"componentType":5126,"count":66,"type":"VEC3","min":[-0.1573076993227005,-0.19976922869682312,-0.11258330196142197],"max":[0.12219230830669403,0.3302307724952698,0.11258330196142197]},{"bufferView":69,"componentType":5126,"count":66,"type":"VEC3","min":[-0.8344301581382751,-1.0,-0.993522047996521],"max":[0.864986777305603,0.6102522611618042,0.993522047996521]},{"bufferView":70,"componentType":5126,"count":66,"type":"VEC3","min":[-0.1573076993227005,-0.23369230329990387,-0.11258330196142197],"max":[0.12219230830669403,0.3863076865673065,0.11258330196142197]},{"bufferView":71,"componentType":5126,"count":66,"type":"VEC3","min":[-0.842595636844635,-1.0,-0.9952538013458252],"max":[0.8652660250663757,0.549968421459198,0.9952538013458252]},{"bufferView":72,"componentType":5126,"count":60,"type":"VEC3","min":[-0.26499998569488525,-0.03897114470601082,-0.04500000178813934],"max":[0.26499998569488525,0.03897114470601082,0.04500000178813934]},{"bufferView":73,"componentType":5126,"count":60,"type":"VEC3","min":[-1.0,-1.0,-0.8660253882408142],"max":[1.0,1.0,0.8660253882408142]},{"bufferView":74,"componentType":5126,"count":84,"type":"VEC3","min":[-0.3107985556125641,-0.31686729192733765,-0.2791401147842407],"max":[0.35302549600601196,0.3434280455112457,0.25914013385772705]},{"bufferView":75,"componentType":5126,"count":84,"type":"VEC3","min":[-0.8584800958633423,-0.8472371101379395,-0.9381677508354187],"max":[0.7553521394729614,0.8472371101379395,0.9464179873466492]},{"bufferView":76,"componentType":5126,"count":120,"type":"VEC3","min":[-0.3883938789367676,-0.47944146394729614,-0.4387175738811493],"max":[0.42902272939682007,0.623549222946167,0.4387175738811493]},{"bufferView":77,"componentType":5126,"count":120,"type":"VEC3","min":[-0.9782111644744873,-0.9917268753051758,-0.965733528137207],"max":[0.9019895792007446,0.8478578925132751,0.9628531336784363]},{"bufferView":78,"componentType":5126,"count":132,"type":"VEC3","min":[-0.19499999284744263,-0.1899999976158142,-0.05999999865889549],"max":[0.19499999284744263,0.1899999976158142,0.05999999865889549]},{"bufferView":79,"componentType":5126,"count":132,"type":"VEC3","min":[-1.0,-1.0,-1.0],"max":[1.0,1.0,1.0]},{"bufferView":80,"componentType":5126,"count":48,"type":"VEC3","min":[-0.01860739104449749,-0.1507287323474884,-0.02686215750873089],"max":[0.023000000044703484,0.1507287323474884,0.02686215750873089]},{"bufferView":81,"componentType":5126,"count":48,"type":"VEC3","min":[-1.0,-0.9994449019432068,-0.9505285620689392],"max":[0.80901700258255,0.9994449019432068,0.9505285620689392]},{"bufferView":82,"componentType":5126,"count":48,"type":"VEC3","min":[-0.01860739104449749,-0.1507287323474884,-0.02686215750873089],"max":[0.023000000044703484,0.1507287323474884,0.02686215750873089]},{"bufferView":83,"componentType":5126,"count":48,"type":"VEC3","min":[-1.0,-0.9994449019432068,-0.9505285620689392],"max":[0.80901700258255,0.9994449019432068,0.9505285620689392]},{"bufferView":84,"componentType":5126,"count":48,"type":"VEC3","min":[-0.01860739104449749,-0.1507287323474884,-0.02686215750873089],"max":[0.023000000044703484,0.1507287323474884,0.02686215750873089]},{"bufferView":85,"componentType":5126,"count":48,"type":"VEC3","min":[-1.0,-0.9994449019432068,-0.9505285620689392],"max":[0.80901700258255,0.9994449019432068,0.9505285620689392]},{"bufferView":86,"componentType":5126,"count":120,"type":"VEC3","min":[-0.3612966239452362,-0.2666032016277313,-0.40946972370147705],"max":[0.3990909159183502,0.3298623561859131,0.40946972370147705]},{"bufferView":87,"componentType":5126,"count":120,"type":"VEC3","min":[-0.9411885142326355,-0.9906864762306213,-0.9156193733215332],"max":[0.8442789912223816,0.954700231552124,0.9363701939582825]},{"bufferView":88,"componentType":5126,"count":60,"type":"VEC3","min":[-0.05999999865889549,-0.06019049510359764,-0.06095246598124504],"max":[0.05999999865889549,0.06019049510359764,0.06095246598124504]},{"bufferView":89,"componentType":5126,"count":60,"type":"VEC3","min":[-0.8660253882408142,-0.9805806875228882,-0.9805806875228882],"max":[0.8660253882408142,0.9805806875228882,0.9805806875228882]},{"bufferView":90,"componentType":5126,"count":60,"type":"VEC3","min":[-0.05999999865889549,-0.06019049510359764,-0.06095246598124504],"max":[0.05999999865889549,0.06019049510359764,0.06095246598124504]},{"bufferView":91,"componentType":5126,"count":60,"type":"VEC3","min":[-0.8660253882408142,-0.9805806875228882,-0.9805806875228882],"max":[0.8660253882408142,0.9805806875228882,0.9805806875228882]},{"bufferView":92,"componentType":5126,"count":60,"type":"VEC3","min":[-0.05999999865889549,-0.06019049510359764,-0.06095246598124504],"max":[0.05999999865889549,0.06019049510359764,0.06095246598124504]},{"bufferView":93,"componentType":5126,"count":60,"type":"VEC3","min":[-0.8660253882408142,-0.9805806875228882,-0.9805806875228882],"max":[0.8660253882408142,0.9805806875228882,0.9805806875228882]},{"bufferView":94,"componentType":5126,"count":60,"type":"VEC3","min":[-0.030820855870842934,-0.06939524412155151,-0.13131757080554962],"max":[0.07835783809423447,0.1052897498011589,0.10341646522283554]},{"bufferView":95,"componentType":5126,"count":60,"type":"VEC3","min":[-0.9266309142112732,-0.9248234629631042,-0.8206099271774292],"max":[0.856249988079071,0.741832971572876,0.8206099271774292]},{"bufferView":96,"componentType":5126,"count":60,"type":"VEC3","min":[-0.07835783809423447,-0.06939524412155151,-0.13131757080554962],"max":[0.030820855870842934,0.1052897498011589,0.10341646522283554]},{"bufferView":97,"componentType":5126,"count":60,"type":"VEC3","min":[-0.856249988079071,-0.9248234629631042,-0.8206099271774292],"max":[0.9266309142112732,0.741832971572876,0.8206099271774292]},{"bufferView":98,"componentType":5126,"count":120,"type":"VEC3","min":[-0.3974263072013855,-0.4800073802471161,-0.46796539425849915],"max":[0.4390000104904175,0.6282038688659668,0.46796539425849915]},{"bufferView":99,"componentType":5126,"count":120,"type":"VEC3","min":[-0.9735214114189148,-0.9997552037239075,-0.9586989283561707],"max":[0.9179455041885376,0.8679444193840027,0.965675950050354]},{"bufferView":100,"componentType":5126,"count":132,"type":"VEC3","min":[-0.26499998569488525,-0.1850000023841858,-0.05999999865889549],"max":[0.26499998569488525,0.1850000023841858,0.05999999865889549]},{"bufferView":101,"componentType":5126,"count":132,"type":"VEC3","min":[-1.0,-1.0,-1.0],"max":[1.0,1.0,1.0]},{"bufferView":102,"componentType":5126,"count":84,"type":"VEC3","min":[-0.21467067301273346,-0.2913317382335663,-0.24467161297798157],"max":[0.24467067420482635,0.29737532138824463,0.21467161178588867]},{"bufferView":103,"componentType":5126,"count":84,"type":"VEC3","min":[-0.9227238893508911,-0.9971423745155334,-0.9077032804489136],"max":[0.9087837338447571,0.9971423745155334,0.9216433763504028]},{"bufferView":104,"componentType":5126,"count":132,"type":"VEC3","min":[-0.07500000298023224,-0.25999999046325684,-0.04500000178813934],"max":[0.07500000298023224,0.25999999046325684,0.04500000178813934]},{"bufferView":105,"componentType":5126,"count":132,"type":"VEC3","min":[-1.0,-1.0,-1.0],"max":[1.0,1.0,1.0]},{"bufferView":106,"componentType":5126,"count":120,"type":"VEC3","min":[-0.4606532156467438,-0.20828373730182648,-0.6239538788795471],"max":[0.5088409185409546,0.2577049732208252,0.6239538788795471]},{"bufferView":107,"componentType":5126,"count":120,"type":"VEC3","min":[-0.8638043999671936,-0.9975261092185974,-0.803642749786377],"max":[0.7968646287918091,0.984238862991333,0.8238023519515991]},{"bufferView":108,"componentType":5126,"count":132,"type":"VEC3","min":[-0.05999999865889549,-0.05000000074505806,-0.13500000536441803],"max":[0.05999999865889549,0.05000000074505806,0.13500000536441803]},{"bufferView":109,"componentType":5126,"count":132,"type":"VEC3","min":[-1.0,-1.0,-1.0],"max":[1.0,1.0,1.0]},{"bufferView":110,"componentType":5126,"count":132,"type":"VEC3","min":[-0.05999999865889549,-0.05000000074505806,-0.13500000536441803],"max":[0.05999999865889549,0.05000000074505806,0.13500000536441803]},{"bufferView":111,"componentType":5126,"count":132,"type":"VEC3","min":[-1.0,-1.0,-1.0],"max":[1.0,1.0,1.0]},{"bufferView":112,"componentType":5126,"count":132,"type":"VEC3","min":[-0.05999999865889549,-0.05000000074505806,-0.13500000536441803],"max":[0.05999999865889549,0.05000000074505806,0.13500000536441803]},{"bufferView":113,"componentType":5126,"count":132,"type":"VEC3","min":[-1.0,-1.0,-1.0],"max":[1.0,1.0,1.0]},{"bufferView":114,"componentType":5126,"count":120,"type":"VEC3","min":[-0.550977349281311,-0.5046671628952026,-0.5947059988975525],"max":[0.6086136102676392,0.579800009727478,0.5947059988975525]},{"bufferView":115,"componentType":5126,"count":120,"type":"VEC3","min":[-0.9325289726257324,-0.9855403900146484,-0.9214534759521484],"max":[0.8850263953208923,0.9260610938072205,0.939853310585022]},{"bufferView":116,"componentType":5126,"count":66,"type":"VEC3","min":[-0.12219230830669403,-0.16584615409374237,-0.11258330196142197],"max":[0.1573076993227005,0.27415385842323303,0.11258330196142197]},{"bufferView":117,"componentType":5126,"count":66,"type":"VEC3","min":[-0.8645195960998535,-1.0,-0.9906418323516846],"max":[0.8212710618972778,0.6801806092262268,0.9906418323516846]},{"bufferView":118,"componentType":5126,"count":66,"type":"VEC3","min":[-0.12219230830669403,-0.19976922869682312,-0.11258330196142197],"max":[0.1573076993227005,0.3302307724952698,0.11258330196142197]},{"bufferView":119,"componentType":5126,"count":66,"type":"VEC3","min":[-0.864986777305603,-1.0,-0.993522047996521],"max":[0.8344301581382751,0.6102522611618042,0.993522047996521]},{"bufferView":120,"componentType":5126,"count":66,"type":"VEC3","min":[-0.12219230830669403,-0.23369230329990387,-0.11258330196142197],"max":[0.1573076993227005,0.3863076865673065,0.11258330196142197]},{"bufferView":121,"componentType":5126,"count":66,"type":"VEC3","min":[-0.8652660250663757,-1.0,-0.9952538013458252],"max":[0.842595636844635,0.549968421459198,0.9952538013458252]},{"bufferView":122,"componentType":5126,"count":60,"type":"VEC3","min":[-0.26499998569488525,-0.03897114470601082,-0.04500000178813934],"max":[0.26499998569488525,0.03897114470601082,0.04500000178813934]},{"bufferView":123,"componentType":5126,"count":60,"type":"VEC3","min":[-1.0,-1.0,-0.8660253882408142],"max":[1.0,1.0,0.8660253882408142]},{"bufferView":124,"componentType":5126,"count":84,"type":"VEC3","min":[-0.35302549600601196,-0.31686729192733765,-0.2791401147842407],"max":[0.3107985556125641,0.3434280455112457,0.25914013385772705]},{"bufferView":125,"componentType":5126,"count":84,"type":"VEC3","min":[-0.7553521394729614,-0.8472371101379395,-0.9381677508354187],"max":[0.8584800958633423,0.8472371101379395,0.9464179873466492]},{"bufferView":126,"componentType":5126,"count":120,"type":"VEC3","min":[-0.3883938789367676,-0.47944146394729614,-0.4387175738811493],"max":[0.42902272939682007,0.623549222946167,0.4387175738811493]},{"bufferView":127,"componentType":5126,"count":120,"type":"VEC3","min":[-0.9782111644744873,-0.9917268753051758,-0.965733528137207],"max":[0.9019895792007446,0.8478578925132751,0.9628531336784363]},{"bufferView":128,"componentType":5126,"count":132,"type":"VEC3","min":[-0.19499999284744263,-0.1899999976158142,-0.05999999865889549],"max":[0.19499999284744263,0.1899999976158142,0.05999999865889549]},{"bufferView":129,"componentType":5126,"count":132,"type":"VEC3","min":[-1.0,-1.0,-1.0],"max":[1.0,1.0,1.0]},{"bufferView":130,"componentType":5126,"count":48,"type":"VEC3","min":[-0.01860739104449749,-0.1507287323474884,-0.02686215750873089],"max":[0.023000000044703484,0.1507287323474884,0.02686215750873089]},{"bufferView":131,"componentType":5126,"count":48,"type":"VEC3","min":[-1.0,-0.9994449019432068,-0.9505285620689392],"max":[0.80901700258255,0.9994449019432068,0.9505285620689392]},{"bufferView":132,"componentType":5126,"count":48,"type":"VEC3","min":[-0.01860739104449749,-0.1507287323474884,-0.02686215750873089],"max":[0.023000000044703484,0.1507287323474884,0.02686215750873089]},{"bufferView":133,"componentType":5126,"count":48,"type":"VEC3","min":[-1.0,-0.9994449019432068,-0.9505285620689392],"max":[0.80901700258255,0.9994449019432068,0.9505285620689392]},{"bufferView":134,"componentType":5126,"count":48,"type":"VEC3","min":[-0.01860739104449749,-0.1507287323474884,-0.02686215750873089],"max":[0.023000000044703484,0.1507287323474884,0.02686215750873089]},{"bufferView":135,"componentType":5126,"count":48,"type":"VEC3","min":[-1.0,-0.9994449019432068,-0.9505285620689392],"max":[0.80901700258255,0.9994449019432068,0.9505285620689392]},{"bufferView":136,"componentType":5126,"count":120,"type":"VEC3","min":[-0.3612966239452362,-0.2666032016277313,-0.40946972370147705],"max":[0.3990909159183502,0.3298623561859131,0.40946972370147705]},{"bufferView":137,"componentType":5126,"count":120,"type":"VEC3","min":[-0.9411885142326355,-0.9906864762306213,-0.9156193733215332],"max":[0.8442789912223816,0.954700231552124,0.9363701939582825]},{"bufferView":138,"componentType":5126,"count":60,"type":"VEC3","min":[-0.05999999865889549,-0.06019049510359764,-0.06095246598124504],"max":[0.05999999865889549,0.06019049510359764,0.06095246598124504]},{"bufferView":139,"componentType":5126,"count":60,"type":"VEC3","min":[-0.8660253882408142,-0.9805806875228882,-0.9805806875228882],"max":[0.8660253882408142,0.9805806875228882,0.9805806875228882]},{"bufferView":140,"componentType":5126,"count":60,"type":"VEC3","min":[-0.05999999865889549,-0.06019049510359764,-0.06095246598124504],"max":[0.05999999865889549,0.06019049510359764,0.06095246598124504]},{"bufferView":141,"componentType":5126,"count":60,"type":"VEC3","min":[-0.8660253882408142,-0.9805806875228882,-0.9805806875228882],"max":[0.8660253882408142,0.9805806875228882,0.9805806875228882]},{"bufferView":142,"componentType":5126,"count":60,"type":"VEC3","min":[-0.05999999865889549,-0.06019049510359764,-0.06095246598124504],"max":[0.05999999865889549,0.06019049510359764,0.06095246598124504]},{"bufferView":143,"componentType":5126,"count":60,"type":"VEC3","min":[-0.8660253882408142,-0.9805806875228882,-0.9805806875228882],"max":[0.8660253882408142,0.9805806875228882,0.9805806875228882]},{"bufferView":144,"componentType":5126,"count":60,"type":"VEC3","min":[-0.030820855870842934,-0.06939524412155151,-0.13131757080554962],"max":[0.07835783809423447,0.1052897498011589,0.10341646522283554]},{"bufferView":145,"componentType":5126,"count":60,"type":"VEC3","min":[-0.9266309142112732,-0.9248234629631042,-0.8206099271774292],"max":[0.856249988079071,0.741832971572876,0.8206099271774292]},{"bufferView":146,"componentType":5126,"count":60,"type":"VEC3","min":[-0.07835783809423447,-0.06939524412155151,-0.13131757080554962],"max":[0.030820855870842934,0.1052897498011589,0.10341646522283554]},{"bufferView":147,"componentType":5126,"count":60,"type":"VEC3","min":[-0.856249988079071,-0.9248234629631042,-0.8206099271774292],"max":[0.9266309142112732,0.741832971572876,0.8206099271774292]},{"bufferView":148,"componentType":5126,"count":120,"type":"VEC3","min":[-0.3974263072013855,-0.4800073802471161,-0.46796539425849915],"max":[0.4390000104904175,0.6282038688659668,0.46796539425849915]},{"bufferView":149,"componentType":5126,"count":120,"type":"VEC3","min":[-0.9735214114189148,-0.9997552037239075,-0.9586989283561707],"max":[0.9179455041885376,0.8679444193840027,0.965675950050354]},{"bufferView":150,"componentType":5126,"count":132,"type":"VEC3","min":[-0.26499998569488525,-0.1850000023841858,-0.05999999865889549],"max":[0.26499998569488525,0.1850000023841858,0.05999999865889549]},{"bufferView":151,"componentType":5126,"count":132,"type":"VEC3","min":[-1.0,-1.0,-1.0],"max":[1.0,1.0,1.0]},{"bufferView":152,"componentType":5126,"count":84,"type":"VEC3","min":[-0.24467067420482635,-0.2913317382335663,-0.24467161297798157],"max":[0.21467067301273346,0.29737532138824463,0.21467161178588867]},{"bufferView":153,"componentType":5126,"count":84,"type":"VEC3","min":[-0.9087837338447571,-0.9971423745155334,-0.9077032804489136],"max":[0.9227238893508911,0.9971423745155334,0.9216433763504028]},{"bufferView":154,"componentType":5126,"count":132,"type":"VEC3","min":[-0.07500000298023224,-0.25999999046325684,-0.04500000178813934],"max":[0.07500000298023224,0.25999999046325684,0.04500000178813934]},{"bufferView":155,"componentType":5126,"count":132,"type":"VEC3","min":[-1.0,-1.0,-1.0],"max":[1.0,1.0,1.0]},{"bufferView":156,"componentType":5126,"count":120,"type":"VEC3","min":[-0.4606532156467438,-0.20828373730182648,-0.6239538788795471],"max":[0.5088409185409546,0.2577049732208252,0.6239538788795471]},{"bufferView":157,"componentType":5126,"count":120,"type":"VEC3","min":[-0.8638043999671936,-0.9975261092185974,-0.803642749786377],"max":[0.7968646287918091,0.984238862991333,0.8238023519515991]},{"bufferView":158,"componentType":5126,"count":132,"type":"VEC3","min":[-0.05999999865889549,-0.05000000074505806,-0.13500000536441803],"max":[0.05999999865889549,0.05000000074505806,0.13500000536441803]},{"bufferView":159,"componentType":5126,"count":132,"type":"VEC3","min":[-1.0,-1.0,-1.0],"max":[1.0,1.0,1.0]},{"bufferView":160,"componentType":5126,"count":132,"type":"VEC3","min":[-0.05999999865889549,-0.05000000074505806,-0.13500000536441803],"max":[0.05999999865889549,0.05000000074505806,0.13500000536441803]},{"bufferView":161,"componentType":5126,"count":132,"type":"VEC3","min":[-1.0,-1.0,-1.0],"max":[1.0,1.0,1.0]},{"bufferView":162,"componentType":5126,"count":132,"type":"VEC3","min":[-0.05999999865889549,-0.05000000074505806,-0.13500000536441803],"max":[0.05999999865889549,0.05000000074505806,0.13500000536441803]},{"bufferView":163,"componentType":5126,"count":132,"type":"VEC3","min":[-1.0,-1.0,-1.0],"max":[1.0,1.0,1.0]}],"buffers":[{"byteLength":187776,"uri":"Hollow_Warden.bin"}]}