# RIFTBOUND | Z up | flat shaded
mtllib Return_Portal.mtl
o Base_0
usemtl dark
v -1.950000 -0.900000 0.000000
v -1.950000 -0.900000 0.240000
v -1.950000 0.900000 0.000000
v -1.950000 0.900000 0.240000
v 1.950000 -0.900000 0.000000
v 1.950000 -0.900000 0.240000
v 1.950000 0.900000 0.000000
v 1.950000 0.900000 0.240000
f 7 1 3
f 7 5 1
f 6 1 5
f 6 2 1
f 6 5 7
f 6 7 8
f 4 3 1
f 4 1 2
f 4 7 3
f 4 8 7
f 4 2 6
f 4 6 8
o Pillar_1
usemtl stone
v -1.110000 0.000000 0.251257
v -1.211658 0.211095 0.204993
v -1.440081 0.263231 0.176163
v -1.623262 0.117149 0.173082
v -1.623262 -0.117149 0.273472
v -1.440081 -0.263231 0.286007
v -1.211658 -0.211095 0.247436
v -0.930000 0.000000 0.535917
v -1.099430 0.351824 0.512497
v -1.480134 0.438718 0.561819
v -1.785436 0.195248 0.546798
v -1.785436 -0.195248 0.444345
v -1.480134 -0.438718 0.552033
v -1.099430 -0.351824 0.448232
v -1.056000 0.000000 0.871937
v -1.177989 0.253313 0.802133
v -1.452097 0.315877 0.888761
v -1.671914 0.140578 0.848224
v -1.671914 -0.140578 0.817764
v -1.452097 -0.315877 0.833259
v -1.177989 -0.253313 0.783568
v -1.357500 0.000000 0.990000
f 17 11 18
f 19 18 11
f 27 30 26
f 27 20 21
f 27 19 20
f 27 26 19
f 25 26 30
f 25 18 19
f 25 19 26
f 25 17 18
f 25 24 17
f 10 17 16
f 10 11 17
f 10 15 11
f 23 30 29
f 23 16 17
f 23 17 24
f 23 25 30
f 23 24 25
f 22 16 23
f 22 23 29
f 22 29 21
f 12 11 15
f 12 20 19
f 12 19 11
f 14 21 20
f 14 12 15
f 14 22 21
f 14 15 22
f 28 21 29
f 28 27 21
f 28 29 30
f 28 30 27
f 9 10 16
f 9 15 10
f 9 16 22
f 9 22 15
f 13 20 12
f 13 14 20
f 13 12 14
o Pillar_2
usemtl stone
v -1.110000 0.000000 0.895490
v -1.211658 0.211095 0.950758
v -1.440081 0.263231 0.849164
v -1.623262 0.117149 0.950530
v -1.623262 -0.117149 0.870291
v -1.440081 -0.263231 0.884339
v -1.211658 -0.211095 0.935291
v -0.930000 0.000000 1.155559
v -1.099430 0.351824 1.173249
v -1.480134 0.438718 1.107472
v -1.785436 0.195248 1.198943
v -1.785436 -0.195248 1.171806
v -1.480134 -0.438718 1.145546
v -1.099430 -0.351824 1.203342
v -1.056000 0.000000 1.478203
v -1.177989 0.253313 1.497141
v -1.452097 0.315877 1.456889
v -1.671914 0.140578 1.490792
v -1.671914 -0.140578 1.465635
v -1.452097 -0.315877 1.473051
v -1.177989 -0.253313 1.534546
v -1.357500 0.000000 1.650000
f 51 44 38
f 51 52 50
f 33 36 35
f 41 42 48
f 41 35 42
f 41 40 33
f 39 46 38
f 39 33 40
f 47 48 52
f 47 52 46
f 47 40 41
f 47 41 48
f 47 39 40
f 47 46 39
f 49 52 48
f 49 50 52
f 49 48 42
f 49 42 50
f 43 36 44
f 43 44 51
f 43 51 50
f 43 50 42
f 43 42 35
f 43 35 36
f 45 38 46
f 45 51 38
f 45 46 52
f 45 52 51
f 31 36 33
f 31 38 44
f 31 39 38
f 34 33 35
f 34 35 41
f 34 41 33
f 37 44 36
f 37 31 44
f 37 36 31
f 32 33 39
f 32 31 33
f 32 39 31
o Pillar_3
usemtl stone
v -1.110000 0.000000 1.523963
v -1.211658 0.211095 1.528610
v -1.440081 0.263231 1.593592
v -1.623262 0.117149 1.502581
v -1.623262 -0.117149 1.566613
v -1.440081 -0.263231 1.582799
v -1.211658 -0.211095 1.514676
v -0.930000 0.000000 1.770948
v -1.099430 0.351824 1.798646
v -1.480134 0.438718 1.846837
v -1.785436 0.195248 1.834845
v -1.785436 -0.195248 1.782908
v -1.480134 -0.438718 1.818511
v -1.099430 -0.351824 1.848331
v -1.056000 0.000000 2.153271
v -1.177989 0.253313 2.179781
v -1.452097 0.315877 2.221897
v -1.671914 0.140578 2.186066
v -1.671914 -0.140578 2.149345
v -1.452097 -0.315877 2.123594
v -1.177989 -0.253313 2.143591
v -1.357500 0.000000 2.310000
f 67 66 60
f 67 60 68
f 67 68 74
f 65 66 72
f 63 62 56
f 63 56 64
f 69 70 74
f 69 74 68
f 69 62 63
f 69 63 70
f 71 74 70
f 71 72 74
f 71 63 64
f 71 70 63
f 71 64 65
f 71 65 72
f 73 72 66
f 73 66 67
f 73 74 72
f 73 67 74
f 55 56 62
f 55 62 54
f 55 54 56
f 61 54 62
f 61 62 69
f 61 69 68
f 61 68 60
f 61 60 54
f 53 54 60
f 53 56 54
f 59 56 53
f 59 66 65
f 59 60 66
f 59 53 60
f 57 64 56
f 57 56 59
f 58 59 65
f 58 57 59
f 58 65 64
f 58 64 57
o Pillar_4
usemtl stone
v -1.110000 0.000000 2.161792
v -1.211658 0.211095 2.180838
v -1.440081 0.263231 2.251961
v -1.623262 0.117149 2.224352
v -1.623262 -0.117149 2.162860
v -1.440081 -0.263231 2.205574
v -1.211658 -0.211095 2.211360
v -0.930000 0.000000 2.444127
v -1.099430 0.351824 2.516557
v -1.480134 0.438718 2.438323
v -1.785436 0.195248 2.473295
v -1.785436 -0.195248 2.489109
v -1.480134 -0.438718 2.478259
v -1.099430 -0.351824 2.497937
v -1.056000 0.000000 2.852968
v -1.177989 0.253313 2.880490
v -1.452097 0.315877 2.795809
v -1.671914 0.140578 2.841717
v -1.671914 -0.140578 2.847723
v -1.452097 -0.315877 2.796883
v -1.177989 -0.253313 2.760188
v -1.357500 0.000000 2.970000
f 90 92 96
f 87 86 79
f 87 88 94
f 85 86 92
f 85 92 84
f 85 79 86
f 89 90 96
f 89 88 82
f 91 84 92
f 91 90 84
f 91 92 90
f 78 76 79
f 78 85 84
f 78 79 85
f 83 84 90
f 83 76 84
f 83 82 76
f 83 89 82
f 83 90 89
f 75 82 88
f 75 76 82
f 75 79 76
f 93 96 92
f 93 94 96
f 93 92 86
f 93 86 87
f 93 87 94
f 95 96 94
f 95 89 96
f 95 94 88
f 95 88 89
f 77 84 76
f 77 78 84
f 77 76 78
f 80 87 79
f 80 79 75
f 81 75 88
f 81 80 75
f 81 88 87
f 81 87 80
o Rune_5
usemtl rift
v -1.450000 -0.470000 1.635000
v -1.450000 -0.470000 2.125000
v -1.450000 -0.430000 1.635000
v -1.450000 -0.430000 2.125000
v -1.330000 -0.470000 1.635000
v -1.330000 -0.470000 2.125000
v -1.330000 -0.430000 1.635000
v -1.330000 -0.430000 2.125000
f 103 97 99
f 103 101 97
f 102 97 101
f 102 98 97
f 102 101 103
f 102 103 104
f 100 99 97
f 100 97 98
f 100 103 99
f 100 104 103
f 100 98 102
f 100 102 104
o BaseCrystal_6
usemtl rift
v -1.672000 -0.250000 0.200000
v -1.711000 -0.182450 0.200000
v -1.789000 -0.182450 0.200000
v -1.828000 -0.250000 0.200000
v -1.789000 -0.317550 0.200000
v -1.711000 -0.317550 0.200000
v -1.727500 -0.250000 0.590000
v -1.787500 -0.146077 0.590000
v -1.907500 -0.146077 0.590000
v -1.967500 -0.250000 0.590000
v -1.907500 -0.353923 0.590000
v -1.787500 -0.353923 0.590000
v -1.900000 -0.250000 0.800000
f 111 117 116
f 111 112 117
f 115 117 114
f 115 116 117
f 113 114 117
f 113 117 112
f 110 111 116
f 110 105 111
f 110 116 115
f 110 115 109
f 106 111 105
f 106 112 111
f 113 106 107
f 113 112 106
f 108 110 109
f 108 105 110
f 108 106 105
f 108 107 106
f 108 109 115
f 108 115 114
f 108 113 107
f 108 114 113
o BaseCrystal_7
usemtl rift
v -1.792000 -0.250000 0.200000
v -1.831000 -0.182450 0.200000
v -1.909000 -0.182450 0.200000
v -1.948000 -0.250000 0.200000
v -1.909000 -0.317550 0.200000
v -1.831000 -0.317550 0.200000
v -1.847500 -0.250000 0.720000
v -1.907500 -0.146077 0.720000
v -2.027500 -0.146077 0.720000
v -2.087500 -0.250000 0.720000
v -2.027500 -0.353923 0.720000
v -1.907500 -0.353923 0.720000
v -2.020000 -0.250000 1.000000
f 124 130 129
f 124 125 130
f 128 130 127
f 128 129 130
f 126 127 130
f 126 130 125
f 123 124 129
f 123 118 124
f 123 129 128
f 123 128 122
f 119 124 118
f 119 125 124
f 126 119 120
f 126 125 119
f 121 123 122
f 121 118 123
f 121 119 118
f 121 120 119
f 121 122 128
f 121 128 127
f 121 126 120
f 121 127 126
o Pillar_8
usemtl stone
v 1.650000 0.000000 0.251257
v 1.548342 0.211095 0.204993
v 1.319919 0.263231 0.176163
v 1.136738 0.117149 0.173082
v 1.136738 -0.117149 0.273472
v 1.319919 -0.263231 0.286007
v 1.548342 -0.211095 0.247436
v 1.830000 0.000000 0.535917
v 1.660570 0.351824 0.512497
v 1.279866 0.438718 0.561819
v 0.974564 0.195248 0.546798
v 0.974564 -0.195248 0.444345
v 1.279866 -0.438718 0.552033
v 1.660570 -0.351824 0.448232
v 1.704000 0.000000 0.871937
v 1.582011 0.253313 0.802133
v 1.307903 0.315877 0.888761
v 1.088086 0.140578 0.848224
v 1.088086 -0.140578 0.817764
v 1.307903 -0.315877 0.833259
v 1.582011 -0.253313 0.783568
v 1.402500 0.000000 0.990000
f 139 133 140
f 141 140 133
f 149 152 148
f 149 142 143
f 149 141 142
f 149 148 141
f 147 148 152
f 147 140 141
f 147 141 148
f 147 139 140
f 147 146 139
f 132 139 138
f 132 133 139
f 132 137 133
f 145 152 151
f 145 138 139
f 145 139 146
f 145 147 152
f 145 146 147
f 144 138 145
f 144 145 151
f 144 151 143
f 134 133 137
f 134 142 141
f 134 141 133
f 136 143 142
f 136 134 137
f 136 144 143
f 136 137 144
f 150 143 151
f 150 149 143
f 150 151 152
f 150 152 149
f 131 132 138
f 131 137 132
f 131 138 144
f 131 144 137
f 135 142 134
f 135 136 142
f 135 134 136
o Pillar_9
usemtl stone
v 1.650000 0.000000 0.895490
v 1.548342 0.211095 0.950758
v 1.319919 0.263231 0.849164
v 1.136738 0.117149 0.950530
v 1.136738 -0.117149 0.870291
v 1.319919 -0.263231 0.884339
v 1.548342 -0.211095 0.935291
v 1.830000 0.000000 1.155559
v 1.660570 0.351824 1.173249
v 1.279866 0.438718 1.107472
v 0.974564 0.195248 1.198943
v 0.974564 -0.195248 1.171806
v 1.279866 -0.438718 1.145546
v 1.660570 -0.351824 1.203342
v 1.704000 0.000000 1.478203
v 1.582011 0.253313 1.497141
v 1.307903 0.315877 1.456889
v 1.088086 0.140578 1.490792
v 1.088086 -0.140578 1.465635
v 1.307903 -0.315877 1.473051
v 1.582011 -0.253313 1.534546
v 1.402500 0.000000 1.650000
f 173 166 160
f 173 174 172
f 155 158 157
f 163 164 170
f 163 157 164
f 163 162 155
f 161 168 160
f 161 155 162
f 169 170 174
f 169 174 168
f 169 162 163
f 169 163 170
f 169 161 162
f 169 168 161
f 171 174 170
f 171 172 174
f 171 170 164
f 171 164 172
f 165 158 166
f 165 166 173
f 165 173 172
f 165 172 164
f 165 164 157
f 165 157 158
f 167 160 168
f 167 173 160
f 167 168 174
f 167 174 173
f 153 158 155
f 153 160 166
f 153 161 160
f 156 155 157
f 156 157 163
f 156 163 155
f 159 166 158
f 159 153 166
f 159 158 153
f 154 155 161
f 154 153 155
f 154 161 153
o Pillar_10
usemtl stone
v 1.650000 0.000000 1.523963
v 1.548342 0.211095 1.528610
v 1.319919 0.263231 1.593592
v 1.136738 0.117149 1.502581
v 1.136738 -0.117149 1.566613
v 1.319919 -0.263231 1.582799
v 1.548342 -0.211095 1.514676
v 1.830000 0.000000 1.770948
v 1.660570 0.351824 1.798646
v 1.279866 0.438718 1.846837
v 0.974564 0.195248 1.834845
v 0.974564 -0.195248 1.782908
v 1.279866 -0.438718 1.818511
v 1.660570 -0.351824 1.848331
v 1.704000 0.000000 2.153271
v 1.582011 0.253313 2.179781
v 1.307903 0.315877 2.221897
v 1.088086 0.140578 2.186066
v 1.088086 -0.140578 2.149345
v 1.307903 -0.315877 2.123594
v 1.582011 -0.253313 2.143591
v 1.402500 0.000000 2.310000
f 189 188 182
f 189 182 190
f 189 190 196
f 187 188 194
f 185 184 178
f 185 178 186
f 191 192 196
f 191 196 190
f 191 184 185
f 191 185 192
f 193 196 192
f 193 194 196
f 193 185 186
f 193 192 185
f 193 186 187
f 193 187 194
f 195 194 188
f 195 188 189
f 195 196 194
f 195 189 196
f 177 178 184
f 177 184 176
f 177 176 178
f 183 176 184
f 183 184 191
f 183 191 190
f 183 190 182
f 183 182 176
f 175 176 182
f 175 178 176
f 181 178 175
f 181 188 187
f 181 182 188
f 181 175 182
f 179 186 178
f 179 178 181
f 180 181 187
f 180 179 181
f 180 187 186
f 180 186 179
o Pillar_11
usemtl stone
v 1.650000 0.000000 2.161792
v 1.548342 0.211095 2.180838
v 1.319919 0.263231 2.251961
v 1.136738 0.117149 2.224352
v 1.136738 -0.117149 2.162860
v 1.319919 -0.263231 2.205574
v 1.548342 -0.211095 2.211360
v 1.830000 0.000000 2.444127
v 1.660570 0.351824 2.516557
v 1.279866 0.438718 2.438323
v 0.974564 0.195248 2.473295
v 0.974564 -0.195248 2.489109
v 1.279866 -0.438718 2.478259
v 1.660570 -0.351824 2.497937
v 1.704000 0.000000 2.852968
v 1.582011 0.253313 2.880490
v 1.307903 0.315877 2.795809
v 1.088086 0.140578 2.841717
v 1.088086 -0.140578 2.847723
v 1.307903 -0.315877 2.796883
v 1.582011 -0.253313 2.760188
v 1.402500 0.000000 2.970000
f 212 214 218
f 209 208 201
f 209 210 216
f 207 208 214
f 207 214 206
f 207 201 208
f 211 212 218
f 211 210 204
f 213 206 214
f 213 212 206
f 213 214 212
f 200 198 201
f 200 207 206
f 200 201 207
f 205 206 212
f 205 198 206
f 205 204 198
f 205 211 204
f 205 212 211
f 197 204 210
f 197 198 204
f 197 201 198
f 215 218 214
f 215 216 218
f 215 214 208
f 215 208 209
f 215 209 216
f 217 218 216
f 217 211 218
f 217 216 210
f 217 210 211
f 199 206 198
f 199 200 206
f 199 198 200
f 202 209 201
f 202 201 197
f 203 197 210
f 203 202 197
f 203 210 209
f 203 209 202
o Rune_12
usemtl rift
v 1.330000 -0.470000 1.635000
v 1.330000 -0.470000 2.125000
v 1.330000 -0.430000 1.635000
v 1.330000 -0.430000 2.125000
v 1.450000 -0.470000 1.635000
v 1.450000 -0.470000 2.125000
v 1.450000 -0.430000 1.635000
v 1.450000 -0.430000 2.125000
f 225 219 221
f 225 223 219
f 224 219 223
f 224 220 219
f 224 223 225
f 224 225 226
f 222 221 219
f 222 219 220
f 222 225 221
f 222 226 225
f 222 220 224
f 222 224 226
o BaseCrystal_13
usemtl rift
v 1.828000 -0.250000 0.200000
v 1.789000 -0.182450 0.200000
v 1.711000 -0.182450 0.200000
v 1.672000 -0.250000 0.200000
v 1.711000 -0.317550 0.200000
v 1.789000 -0.317550 0.200000
v 1.967500 -0.250000 0.590000
v 1.907500 -0.146077 0.590000
v 1.787500 -0.146077 0.590000
v 1.727500 -0.250000 0.590000
v 1.787500 -0.353923 0.590000
v 1.907500 -0.353923 0.590000
v 1.900000 -0.250000 0.800000
f 239 238 233
f 237 238 239
f 234 239 233
f 236 237 239
f 235 239 234
f 235 236 239
f 231 237 236
f 231 236 230
f 232 233 238
f 232 227 233
f 232 237 231
f 232 238 237
f 228 231 230
f 228 230 229
f 228 227 232
f 228 232 231
f 228 233 227
f 228 234 233
f 235 228 229
f 235 234 228
f 235 230 236
f 235 229 230
o BaseCrystal_14
usemtl rift
v 1.948000 -0.250000 0.200000
v 1.909000 -0.182450 0.200000
v 1.831000 -0.182450 0.200000
v 1.792000 -0.250000 0.200000
v 1.831000 -0.317550 0.200000
v 1.909000 -0.317550 0.200000
v 2.087500 -0.250000 0.720000
v 2.027500 -0.146077 0.720000
v 1.907500 -0.146077 0.720000
v 1.847500 -0.250000 0.720000
v 1.907500 -0.353923 0.720000
v 2.027500 -0.353923 0.720000
v 2.020000 -0.250000 1.000000
f 252 251 246
f 247 252 246
f 250 251 252
f 248 252 247
f 249 250 252
f 249 252 248
f 244 245 251
f 244 251 250
f 249 243 244
f 249 244 250
f 249 242 243
f 249 248 242
f 240 251 245
f 240 246 251
f 241 244 243
f 241 243 242
f 241 245 244
f 241 240 245
f 241 242 248
f 241 248 247
f 241 246 240
f 241 247 246
o Arch_15
usemtl stone
v 1.644000 0.000000 2.223856
v 1.544601 0.206404 2.313631
v 1.321254 0.257381 2.215922
v 1.142144 0.114545 2.214629
v 1.142144 -0.114545 2.236636
v 1.321254 -0.257381 2.221240
v 1.544601 -0.206404 2.277988
v 1.820000 0.000000 2.485845
v 1.654336 0.344006 2.586624
v 1.282091 0.428968 2.581699
v 0.983574 0.190909 2.471365
v 0.983574 -0.190909 2.540849
v 1.282091 -0.428968 2.484784
v 1.654336 -0.344006 2.504276
v 1.696800 0.000000 2.868780
v 1.577522 0.247684 2.873516
v 1.309505 0.308857 2.875391
v 1.094573 0.137454 2.934650
v 1.094573 -0.137454 2.848381
v 1.309505 -0.308857 2.839238
v 1.577522 -0.247684 2.901496
v 1.402000 0.000000 3.030000
f 270 271 274
f 270 262 263
f 270 263 264
f 270 264 271
f 272 274 271
f 272 273 274
f 272 265 273
f 272 264 265
f 272 271 264
f 267 274 273
f 267 268 274
f 267 273 260
f 267 260 261
f 267 261 268
f 266 273 265
f 266 265 258
f 266 258 259
f 266 260 273
f 255 263 262
f 255 262 261
f 269 262 270
f 269 261 262
f 269 268 261
f 269 274 268
f 269 270 274
f 253 259 258
f 253 258 255
f 253 260 266
f 253 266 259
f 253 261 260
f 256 263 255
f 256 255 258
f 254 255 261
f 254 261 253
f 254 253 255
f 257 256 258
f 257 258 265
f 257 265 264
f 257 264 263
f 257 263 256
o Arch_16
usemtl stone
v 1.239807 0.000000 3.080876
v 1.140409 0.206404 3.079651
v 0.917062 0.257381 3.073939
v 0.737952 0.114545 3.003044
v 0.737952 -0.114545 2.979276
v 0.917062 -0.257381 3.091412
v 1.140409 -0.206404 3.048497
v 1.415807 0.000000 3.249157
v 1.250143 0.344006 3.366260
v 0.877898 0.428968 3.375857
v 0.579381 0.190909 3.285750
v 0.579381 -0.190909 3.353780
v 0.877898 -0.428968 3.259448
v 1.250143 -0.344006 3.305356
v 1.292607 0.000000 3.698301
v 1.173329 0.247684 3.645544
v 0.905313 0.308857 3.659607
v 0.690380 0.137454 3.607916
v 0.690380 -0.137454 3.697824
v 0.905313 -0.308857 3.657042
v 1.173329 -0.247684 3.624845
v 0.997807 0.000000 3.807817
f 289 282 283
f 289 296 295
f 284 291 283
f 286 279 287
f 286 285 279
f 286 293 285
f 294 296 293
f 294 295 296
f 294 286 287
f 294 293 286
f 292 293 296
f 292 296 291
f 292 285 293
f 292 284 285
f 292 291 284
f 290 283 291
f 290 289 283
f 290 291 296
f 290 296 289
f 280 287 279
f 280 281 287
f 280 279 281
f 288 287 281
f 288 294 287
f 288 295 294
f 288 281 282
f 288 282 289
f 288 289 295
f 275 282 281
f 275 281 279
f 277 284 283
f 276 275 279
f 276 277 283
f 276 283 282
f 276 282 275
f 278 276 279
f 278 277 276
f 278 279 285
f 278 285 284
f 278 284 277
o Arch_17
usemtl stone
v 0.264000 0.000000 3.398697
v 0.164601 0.206404 3.338062
v -0.058746 0.257381 3.382153
v -0.237856 0.114545 3.402455
v -0.237856 -0.114545 3.374230
v -0.058746 -0.257381 3.362239
v 0.164601 -0.206404 3.389838
v 0.440000 0.000000 3.663405
v 0.274336 0.344006 3.631265
v -0.097909 0.428968 3.644847
v -0.396426 0.190909 3.667276
v -0.396426 -0.190909 3.579200
v -0.097909 -0.428968 3.654447
v 0.274336 -0.344006 3.665951
v 0.316800 0.000000 3.966440
v 0.197522 0.247684 3.980427
v -0.070495 0.308857 3.944505
v -0.285427 0.137454 3.998875
v -0.285427 -0.137454 4.040296
v -0.070495 -0.308857 3.953534
v 0.197522 -0.247684 3.974705
v 0.022000 0.000000 4.130000
f 314 307 315
f 314 315 318
f 305 304 298
f 316 318 315
f 316 317 318
f 316 315 309
f 316 309 317
f 308 309 315
f 308 315 307
f 308 307 300
f 308 300 301
f 297 298 304
f 297 304 303
f 297 303 298
f 310 317 309
f 310 304 317
f 310 303 304
f 302 309 308
f 302 308 301
f 302 310 309
f 302 303 310
f 302 301 298
f 302 298 303
f 312 304 305
f 299 300 307
f 299 298 301
f 299 301 300
f 311 317 304
f 311 304 312
f 311 318 317
f 311 312 318
f 313 314 318
f 313 318 312
f 306 307 314
f 306 314 313
f 306 299 307
f 306 305 298
f 306 298 299
f 306 312 305
f 306 313 312
o Arch_18
usemtl stone
v -0.711807 0.000000 3.058681
v -0.811206 0.206404 3.074558
v -1.034553 0.257381 3.013746
v -1.213663 0.114545 2.975102
v -1.213663 -0.114545 3.043054
v -1.034553 -0.257381 2.988183
v -0.811206 -0.206404 3.062039
v -0.535807 0.000000 3.293368
v -0.701472 0.344006 3.307772
v -1.073717 0.428968 3.374713
v -1.372234 0.190909 3.349627
v -1.372234 -0.190909 3.357666
v -1.073717 -0.428968 3.320427
v -0.701472 -0.344006 3.370287
v -0.659007 0.000000 3.595181
v -0.778286 0.247684 3.707522
v -1.046302 0.308857 3.643096
v -1.261234 0.137454 3.622712
v -1.261234 -0.137454 3.661754
v -1.046302 -0.308857 3.714683
v -0.778286 -0.247684 3.635516
v -0.953807 0.000000 3.807817
f 328 322 329
f 336 329 337
f 336 337 340
f 327 334 326
f 327 328 334
f 330 337 329
f 330 329 322
f 330 324 331
f 332 331 324
f 338 340 337
f 338 339 340
f 338 330 331
f 338 337 330
f 338 331 332
f 338 332 339
f 319 327 326
f 333 326 334
f 333 332 326
f 333 339 332
f 333 340 339
f 333 334 340
f 335 334 328
f 335 328 329
f 335 329 336
f 335 336 340
f 335 340 334
f 321 322 328
f 321 328 327
f 321 324 322
f 321 319 324
f 323 322 324
f 323 330 322
f 323 324 330
f 325 332 324
f 325 324 319
f 325 326 332
f 325 319 326
f 320 327 319
f 320 321 327
f 320 319 321
o Arch_19
usemtl stone
v -1.116000 0.000000 2.264632
v -1.215399 0.206404 2.247066
v -1.438746 0.257381 2.203636
v -1.617856 0.114545 2.236402
v -1.617856 -0.114545 2.271675
v -1.438746 -0.257381 2.194293
v -1.215399 -0.206404 2.304328
v -0.940000 0.000000 2.581172
v -1.105664 0.344006 2.476715
v -1.477909 0.428968 2.574512
v -1.776426 0.190909 2.494839
v -1.776426 -0.190909 2.560735
v -1.477909 -0.428968 2.490995
v -1.105664 -0.344006 2.560219
v -1.063200 0.000000 2.938664
v -1.182478 0.247684 2.942063
v -1.450495 0.308857 2.900565
v -1.665427 0.137454 2.836103
v -1.665427 -0.137454 2.865943
v -1.450495 -0.308857 2.850861
v -1.182478 -0.247684 2.938281
v -1.358000 0.000000 3.030000
f 344 351 343
f 346 344 343
f 358 359 362
f 352 346 353
f 352 358 351
f 352 359 358
f 354 348 361
f 354 361 353
f 354 353 346
f 360 362 359
f 360 361 362
f 360 353 361
f 360 352 353
f 360 359 352
f 341 348 354
f 349 356 348
f 349 348 341
f 355 361 348
f 355 348 356
f 355 362 361
f 355 356 362
f 345 344 346
f 345 346 352
f 345 351 344
f 345 352 351
f 342 346 343
f 342 341 346
f 342 343 349
f 342 349 341
f 347 354 346
f 347 346 341
f 347 341 354
f 350 356 349
f 350 343 351
f 350 349 343
f 357 356 350
f 357 358 362
f 357 362 356
f 357 351 358
f 357 350 351
o RiftRing_20
usemtl rift
v 1.005328 -0.050000 1.915218
v 1.022664 -0.080311 1.917609
v 1.057336 -0.080311 1.922391
v 1.074672 -0.050000 1.924782
v 1.057336 -0.019689 1.922391
v 1.022664 -0.019689 1.917609
v 0.926163 -0.050000 2.489243
v 0.943499 -0.080311 2.491634
v 0.978171 -0.080311 2.496416
v 0.995507 -0.050000 2.498807
v 0.978171 -0.019689 2.496416
v 0.943499 -0.019689 2.491634
f 370 363 364
f 370 369 363
f 374 368 363
f 374 363 369
f 367 373 372
f 367 372 366
f 367 374 373
f 367 368 374
f 365 367 366
f 365 363 368
f 365 364 363
f 365 368 367
f 371 372 373
f 371 369 370
f 371 374 369
f 371 373 374
f 371 366 372
f 371 365 366
f 371 370 364
f 371 364 365
o RiftRing_21
usemtl rift
v 0.929077 -0.050000 2.479313
v 0.944956 -0.080311 2.486669
v 0.976714 -0.080311 2.501381
v 0.992592 -0.050000 2.508738
v 0.976714 -0.019689 2.501381
v 0.944956 -0.019689 2.486669
v 0.703633 -0.050000 2.965948
v 0.719512 -0.080311 2.973304
v 0.751270 -0.080311 2.988016
v 0.767149 -0.050000 2.995373
v 0.751270 -0.019689 2.988016
v 0.719512 -0.019689 2.973304
f 386 380 375
f 386 375 381
f 379 380 386
f 379 386 385
f 377 379 378
f 377 375 380
f 377 376 375
f 377 380 379
f 382 381 375
f 382 375 376
f 382 376 377
f 382 377 383
f 384 385 386
f 384 386 381
f 384 381 382
f 384 382 383
f 384 379 385
f 384 378 379
f 384 377 378
f 384 383 377
o RiftRing_22
usemtl rift
v 0.735391 -0.015000 2.980660
v 0.714358 -0.032500 2.958835
v 0.714358 -0.067500 2.958835
v 0.735391 -0.085000 2.980660
v 0.756425 -0.067500 3.002485
v 0.756425 -0.032500 3.002485
v 0.397991 -0.015000 3.305819
v 0.376957 -0.032500 3.283994
v 0.376957 -0.067500 3.283994
v 0.397991 -0.085000 3.305819
v 0.419024 -0.067500 3.327645
v 0.419024 -0.032500 3.327645
f 393 387 388
f 393 388 394
f 392 387 393
f 392 393 398
f 389 388 387
f 389 391 390
f 389 392 391
f 389 387 392
f 395 394 388
f 395 388 389
f 395 389 390
f 395 390 396
f 397 393 394
f 397 398 393
f 397 394 395
f 397 395 396
f 397 391 392
f 397 392 398
f 397 390 391
f 397 396 390
o RiftRing_23
usemtl rift
v 0.397991 -0.015000 3.305819
v 0.389632 -0.032500 3.276684
v 0.389632 -0.067500 3.276684
v 0.397991 -0.085000 3.305819
v 0.406350 -0.067500 3.334955
v 0.406350 -0.032500 3.334955
v 0.000000 -0.015000 3.420000
v -0.008359 -0.032500 3.390864
v -0.008359 -0.067500 3.390864
v 0.000000 -0.085000 3.420000
v 0.008359 -0.067500 3.449136
v 0.008359 -0.032500 3.449136
f 404 410 409
f 404 409 403
f 404 405 410
f 404 399 405
f 402 404 403
f 402 400 399
f 402 401 400
f 402 399 404
f 402 409 408
f 402 403 409
f 402 408 407
f 402 407 401
f 406 407 408
f 406 409 410
f 406 410 405
f 406 408 409
f 406 400 401
f 406 401 407
f 406 399 400
f 406 405 399
o RiftRing_24
usemtl rift
v 0.000000 -0.015000 3.420000
v 0.008359 -0.032500 3.390864
v 0.008359 -0.067500 3.390864
v 0.000000 -0.085000 3.420000
v -0.008359 -0.067500 3.449136
v -0.008359 -0.032500 3.449136
v -0.397991 -0.015000 3.305819
v -0.389632 -0.032500 3.276684
v -0.389632 -0.067500 3.276684
v -0.397991 -0.085000 3.305819
v -0.406350 -0.067500 3.334955
v -0.406350 -0.032500 3.334955
f 412 413 419
f 412 419 418
f 412 417 411
f 412 418 417
f 420 421 422
f 420 417 418
f 420 418 419
f 420 422 417
f 420 414 415
f 420 415 421
f 420 419 413
f 420 413 414
f 416 413 412
f 416 414 413
f 416 412 411
f 416 415 414
f 416 411 417
f 416 417 422
f 416 422 421
f 416 421 415
o RiftRing_25
usemtl rift
v -0.397991 -0.015000 3.305819
v -0.376957 -0.032500 3.283994
v -0.376957 -0.067500 3.283994
v -0.397991 -0.085000 3.305819
v -0.419024 -0.067500 3.327645
v -0.419024 -0.032500 3.327645
v -0.735391 -0.015000 2.980660
v -0.714358 -0.032500 2.958835
v -0.714358 -0.067500 2.958835
v -0.735391 -0.085000 2.980660
v -0.756425 -0.067500 3.002485
v -0.756425 -0.032500 3.002485
f 434 427 428
f 434 433 427
f 432 426 427
f 432 427 433
f 425 431 430
f 425 430 424
f 425 432 431
f 425 426 432
f 423 425 424
f 423 427 426
f 423 428 427
f 423 426 425
f 429 430 431
f 429 433 434
f 429 432 433
f 429 431 432
f 429 424 430
f 429 423 424
f 429 434 428
f 429 428 423
o RiftRing_26
usemtl rift
v -0.703633 -0.050000 2.965948
v -0.719512 -0.080311 2.973304
v -0.751270 -0.080311 2.988016
v -0.767149 -0.050000 2.995373
v -0.751270 -0.019689 2.988016
v -0.719512 -0.019689 2.973304
v -0.929077 -0.050000 2.479313
v -0.944956 -0.080311 2.486669
v -0.976714 -0.080311 2.501381
v -0.992592 -0.050000 2.508738
v -0.976714 -0.019689 2.501381
v -0.944956 -0.019689 2.486669
f 445 438 439
f 445 444 438
f 443 437 438
f 443 438 444
f 436 442 441
f 436 441 435
f 436 443 442
f 436 437 443
f 446 441 442
f 446 444 445
f 446 443 444
f 446 442 443
f 440 436 435
f 440 438 437
f 440 439 438
f 440 437 436
f 440 435 441
f 440 441 446
f 440 445 439
f 440 446 445
o RiftRing_27
usemtl rift
v -0.926163 -0.050000 2.489243
v -0.943499 -0.080311 2.491634
v -0.978171 -0.080311 2.496416
v -0.995507 -0.050000 2.498807
v -0.978171 -0.019689 2.496416
v -0.943499 -0.019689 2.491634
v -1.005328 -0.050000 1.915218
v -1.022664 -0.080311 1.917609
v -1.057336 -0.080311 1.922391
v -1.074672 -0.050000 1.924782
v -1.057336 -0.019689 1.922391
v -1.022664 -0.019689 1.917609
f 457 450 451
f 457 456 450
f 457 451 452
f 457 452 458
f 448 450 449
f 448 447 452
f 448 452 451
f 448 451 450
f 455 449 450
f 455 450 456
f 455 448 449
f 455 454 448
f 453 455 456
f 453 456 457
f 453 457 458
f 453 454 455
f 453 452 447
f 453 458 452
f 453 447 448
f 453 448 454
o RiftRing_28
usemtl rift
v -1.005328 -0.050000 1.924782
v -1.022664 -0.080311 1.922391
v -1.057336 -0.080311 1.917609
v -1.074672 -0.050000 1.915218
v -1.057336 -0.019689 1.917609
v -1.022664 -0.019689 1.922391
v -0.926163 -0.050000 1.350757
v -0.943499 -0.080311 1.348366
v -0.978171 -0.080311 1.343584
v -0.995507 -0.050000 1.341193
v -0.978171 -0.019689 1.343584
v -0.943499 -0.019689 1.348366
f 461 463 462
f 461 459 464
f 461 464 463
f 461 460 459
f 470 464 459
f 470 459 465
f 467 461 462
f 467 462 468
f 469 462 463
f 469 468 462
f 469 463 464
f 469 464 470
f 466 470 465
f 466 468 469
f 466 467 468
f 466 469 470
f 466 459 460
f 466 465 459
f 466 460 461
f 466 461 467
o RiftRing_29
usemtl rift
v -0.929077 -0.050000 1.360687
v -0.944956 -0.080311 1.353331
v -0.976714 -0.080311 1.338619
v -0.992592 -0.050000 1.331262
v -0.976714 -0.019689 1.338619
v -0.944956 -0.019689 1.353331
v -0.703633 -0.050000 0.874052
v -0.719512 -0.080311 0.866696
v -0.751270 -0.080311 0.851984
v -0.767149 -0.050000 0.844627
v -0.751270 -0.019689 0.851984
v -0.719512 -0.019689 0.866696
f 482 476 471
f 482 471 477
f 475 473 472
f 475 471 476
f 475 474 473
f 475 472 471
f 475 476 482
f 475 482 481
f 480 473 474
f 480 479 473
f 480 474 475
f 480 475 481
f 478 482 477
f 478 479 480
f 478 481 482
f 478 480 481
f 478 471 472
f 478 477 471
f 478 472 473
f 478 473 479
o RiftRing_30
usemtl rift
v -0.735391 -0.085000 0.859340
v -0.756425 -0.067500 0.837515
v -0.756425 -0.032500 0.837515
v -0.735391 -0.015000 0.859340
v -0.714358 -0.032500 0.881165
v -0.714358 -0.067500 0.881165
v -0.397991 -0.085000 0.534181
v -0.419024 -0.067500 0.512355
v -0.419024 -0.032500 0.512355
v -0.397991 -0.015000 0.534181
v -0.376957 -0.032500 0.556006
v -0.376957 -0.067500 0.556006
f 492 486 487
f 492 487 493
f 485 492 491
f 485 486 492
f 490 492 493
f 490 493 494
f 490 494 489
f 490 491 492
f 490 483 484
f 490 489 483
f 490 484 485
f 490 485 491
f 488 487 486
f 488 485 484
f 488 484 483
f 488 486 485
f 488 489 494
f 488 483 489
f 488 494 493
f 488 493 487
o RiftRing_31
usemtl rift
v -0.397991 -0.085000 0.534181
v -0.406350 -0.067500 0.505045
v -0.406350 -0.032500 0.505045
v -0.397991 -0.015000 0.534181
v -0.389632 -0.032500 0.563316
v -0.389632 -0.067500 0.563316
v -0.000000 -0.085000 0.420000
v -0.008359 -0.067500 0.390864
v -0.008359 -0.032500 0.390864
v -0.000000 -0.015000 0.420000
v 0.008359 -0.032500 0.449136
v 0.008359 -0.067500 0.449136
f 503 496 497
f 503 502 496
f 503 497 498
f 503 498 504
f 495 499 498
f 495 497 496
f 495 498 497
f 495 500 499
f 495 502 501
f 495 496 502
f 495 501 506
f 495 506 500
f 505 502 503
f 505 506 501
f 505 501 502
f 505 503 504
f 505 499 500
f 505 500 506
f 505 504 498
f 505 498 499
o RiftRing_32
usemtl rift
v -0.000000 -0.085000 0.420000
v 0.008359 -0.067500 0.390864
v 0.008359 -0.032500 0.390864
v -0.000000 -0.015000 0.420000
v -0.008359 -0.032500 0.449136
v -0.008359 -0.067500 0.449136
v 0.397991 -0.085000 0.534181
v 0.406350 -0.067500 0.505045
v 0.406350 -0.032500 0.505045
v 0.397991 -0.015000 0.534181
v 0.389632 -0.032500 0.563316
v 0.389632 -0.067500 0.563316
f 516 510 511
f 516 511 517
f 518 511 512
f 518 517 511
f 507 513 518
f 507 518 512
f 507 508 514
f 507 514 513
f 509 507 512
f 509 512 511
f 509 511 510
f 509 508 507
f 515 517 518
f 515 513 514
f 515 516 517
f 515 518 513
f 515 514 508
f 515 508 509
f 515 510 516
f 515 509 510
o RiftRing_33
usemtl rift
v 0.397991 -0.085000 0.534181
v 0.419024 -0.067500 0.512355
v 0.419024 -0.032500 0.512355
v 0.397991 -0.015000 0.534181
v 0.376957 -0.032500 0.556006
v 0.376957 -0.067500 0.556006
v 0.735391 -0.085000 0.859340
v 0.756425 -0.067500 0.837515
v 0.756425 -0.032500 0.837515
v 0.735391 -0.015000 0.859340
v 0.714358 -0.032500 0.881165
v 0.714358 -0.067500 0.881165
f 525 519 520
f 525 520 526
f 525 524 519
f 525 530 524
f 529 524 530
f 529 523 524
f 527 530 525
f 527 525 526
f 527 529 530
f 527 528 529
f 527 526 520
f 527 520 521
f 522 524 523
f 522 521 520
f 522 520 519
f 522 519 524
f 522 529 528
f 522 523 529
f 522 528 527
f 522 527 521
o RiftRing_34
usemtl rift
v 0.703633 -0.050000 0.874052
v 0.719512 -0.080311 0.866696
v 0.751270 -0.080311 0.851984
v 0.767149 -0.050000 0.844627
v 0.751270 -0.019689 0.851984
v 0.719512 -0.019689 0.866696
v 0.929077 -0.050000 1.360687
v 0.944956 -0.080311 1.353331
v 0.976714 -0.080311 1.338619
v 0.992592 -0.050000 1.331262
v 0.976714 -0.019689 1.338619
v 0.944956 -0.019689 1.353331
f 532 534 533
f 532 531 536
f 532 535 534
f 532 536 535
f 532 537 531
f 532 538 537
f 539 533 534
f 539 534 540
f 539 532 533
f 539 538 532
f 541 534 535
f 541 540 534
f 542 538 539
f 542 537 538
f 542 539 540
f 542 540 541
f 542 536 531
f 542 531 537
f 542 535 536
f 542 541 535
o RiftRing_35
usemtl rift
v 0.926163 -0.050000 1.350757
v 0.943499 -0.080311 1.348366
v 0.978171 -0.080311 1.343584
v 0.995507 -0.050000 1.341193
v 0.978171 -0.019689 1.343584
v 0.943499 -0.019689 1.348366
v 1.005328 -0.050000 1.924782
v 1.022664 -0.080311 1.922391
v 1.057336 -0.080311 1.917609
v 1.074672 -0.050000 1.915218
v 1.057336 -0.019689 1.917609
v 1.022664 -0.019689 1.922391
f 551 545 546
f 551 546 552
f 544 551 550
f 544 545 551
f 549 551 552
f 549 552 553
f 549 553 554
f 549 550 551
f 549 548 543
f 549 554 548
f 549 543 544
f 549 544 550
f 547 546 545
f 547 544 543
f 547 543 548
f 547 545 544
f 547 554 553
f 547 548 554
f 547 553 552
f 547 552 546