{"asset":{"version":"2.0","generator":"RIFTBOUND procedural asset builder"},"scene":0,"scenes":[{"nodes":[0,1,2,3,4,5,6,7,8,9,10,11,12,13,14,15,16,17,18,19,20,21,22,23,24,25,26,27,28,29,30,31,32,33,34,35]}],"nodes":[{"name":"Base_0","mesh":0,"translation":[5.551115123125783e-17,0.12,-0.0]},{"name":"Pillar_1","mesh":1,"translation":[-1.3789772727272727,0.5477134084315394,-1.2616170734376778e-17]},{"name":"Pillar_2","mesh":2,"translation":[-1.3789772727272727,1.2062744155994098,-1.2616170734376778e-17]},{"name":"Pillar_3","mesh":3,"translation":[-1.3789772727272727,1.8627911783412427,-1.2616170734376778e-17]},{"name":"Pillar_4","mesh":4,"translation":[-1.3789772727272727,2.5219145981789954,-1.2616170734376778e-17]},{"name":"Rune_5","mesh":5,"translation":[-1.39,1.88,0.45000000000000007]},{"name":"BaseCrystal_6","mesh":6,"translation":[-1.8065384615384614,0.4261538461538461,0.25]},{"name":"BaseCrystal_7","mesh":7,"translation":[-1.9265384615384613,0.5015384615384615,0.25]},{"name":"Pillar_8","mesh":8,"translation":[1.3810227272727271,0.5477134084315394,-1.2616170734376778e-17]},{"name":"Pillar_9","mesh":9,"translation":[1.3810227272727271,1.2062744155994098,-1.2616170734376778e-17]},{"name":"Pillar_10","mesh":10,"translation":[1.3810227272727271,1.8627911783412427,-1.2616170734376778e-17]},{"name":"Pillar_11","mesh":11,"translation":[1.3810227272727271,2.5219145981789954,-1.2616170734376778e-17]},{"name":"Rune_12","mesh":12,"translation":[1.3899999999999997,1.88,0.45000000000000007]},{"name":"BaseCrystal_13","mesh":13,"translation":[1.8065384615384614,0.4261538461538461,0.25]},{"name":"BaseCrystal_14","mesh":14,"translation":[1.9265384615384613,0.5015384615384615,0.25]},{"name":"Arch_15","mesh":15,"translation":[1.381,2.5695815927754775,2.523234146875356e-18]},{"name":"Arch_16","mesh":16,"translation":[0.9768073580374353,3.3614181998554202,2.523234146875356e-18]},{"name":"Arch_17","mesh":17,"translation":[0.001000000000000096,3.6883112008499537,2.523234146875356e-18]},{"name":"Arch_18","mesh":18,"translation":[-0.974807358037435,3.3626138702246835,2.523234146875356e-18]},{"name":"Arch_19","mesh":19,"translation":[-1.379,2.5801682185039687,2.523234146875356e-18]},{"name":"RiftRing_20","mesh":20,"translation":[1.000417356905869,2.207012574273817,0.05000000000000001]},{"name":"RiftRing_21","mesh":21,"translation":[0.8481128831228738,2.7373426601637276,0.05000000000000001]},{"name":"RiftRing_22","mesh":22,"translation":[0.5666909110468514,3.143239735273376,0.049999999999999996]},{"name":"RiftRing_23","mesh":23,"translation":[0.1989953848298468,3.362909649383465,0.049999999999999996]},{"name":"RiftRing_24","mesh":24,"translation":[-0.1989953848298466,3.362909649383465,0.049999999999999996]},{"name":"RiftRing_25","mesh":25,"translation":[-0.5666909110468513,3.143239735273376,0.049999999999999996]},{"name":"RiftRing_26","mesh":26,"translation":[-0.8481128831228739,2.737342660163728,0.05000000000000001]},{"name":"RiftRing_27","mesh":27,"translation":[-1.0004173569058692,2.207012574273817,0.05000000000000001]},{"name":"RiftRing_28","mesh":28,"translation":[-1.0004173569058692,1.632987425726183,0.05000000000000001]},{"name":"RiftRing_29","mesh":29,"translation":[-0.8481128831228739,1.1026573398362722,0.05000000000000001]},{"name":"RiftRing_30","mesh":30,"translation":[-0.566690911046852,0.6967602647266244,0.049999999999999996]},{"name":"RiftRing_31","mesh":31,"translation":[-0.1989953848298471,0.477090350616535,0.049999999999999996]},{"name":"RiftRing_32","mesh":32,"translation":[0.1989953848298467,0.47709035061653493,0.049999999999999996]},{"name":"RiftRing_33","mesh":33,"translation":[0.5666909110468513,0.6967602647266243,0.049999999999999996]},{"name":"RiftRing_34","mesh":34,"translation":[0.8481128831228736,1.1026573398362716,0.05000000000000001]},{"name":"RiftRing_35","mesh":35,"translation":[1.000417356905869,1.6329874257261816,0.05000000000000001]}],"meshes":[{"name":"Base_0","primitives":[{"attributes":{"POSITION":0,"NORMAL":1},"material":2}]},{"name":"Pillar_1","primitives":[{"attributes":{"POSITION":2,"NORMAL":3},"material":0}]},{"name":"Pillar_2","primitives":[{"attributes":{"POSITION":4,"NORMAL":5},"material":0}]},{"name":"Pillar_3","primitives":[{"attributes":{"POSITION":6,"NORMAL":7},"material":0}]},{"name":"Pillar_4","primitives":[{"attributes":{"POSITION":8,"NORMAL":9},"material":0}]},{"name":"Rune_5","primitives":[{"attributes":{"POSITION":10,"NORMAL":11},"material":7}]},{"name":"BaseCrystal_6","primitives":[{"attributes":{"POSITION":12,"NORMAL":13},"material":7}]},{"name":"BaseCrystal_7","primitives":[{"attributes":{"POSITION":14,"NORMAL":15},"material":7}]},{"name":"Pillar_8","primitives":[{"attributes":{"POSITION":16,"NORMAL":17},"material":0}]},{"name":"Pillar_9","primitives":[{"attributes":{"POSITION":18,"NORMAL":19},"material":0}]},{"name":"Pillar_10","primitives":[{"attributes":{"POSITION":20,"NORMAL":21},"material":0}]},{"name":"Pillar_11","primitives":[{"attributes":{"POSITION":22,"NORMAL":23},"material":0}]},{"name":"Rune_12","primitives":[{"attributes":{"POSITION":24,"NORMAL":25},"material":7}]},{"name":"BaseCrystal_13","primitives":[{"attributes":{"POSITION":26,"NORMAL":27},"material":7}]},{"name":"BaseCrystal_14","primitives":[{"attributes":{"POSITION":28,"NORMAL":29},"material":7}]},{"name":"Arch_15","primitives":[{"attributes":{"POSITION":30,"NORMAL":31},"material":0}]},{"name":"Arch_16","primitives":[{"attributes":{"POSITION":32,"NORMAL":33},"material":0}]},{"name":"Arch_17","primitives":[{"attributes":{"POSITION":34,"NORMAL":35},"material":0}]},{"name":"Arch_18","primitives":[{"attributes":{"POSITION":36,"NORMAL":37},"material":0}]},{"name":"Arch_19","primitives":[{"attributes":{"POSITION":38,"NORMAL":39},"material":0}]},{"name":"RiftRing_20","primitives":[{"attributes":{"POSITION":40,"NORMAL":41},"material":7}]},{"name":"RiftRing_21","primitives":[{"attributes":{"POSITION":42,"NORMAL":43},"material":7}]},{"name":"RiftRing_22","primitives":[{"attributes":{"POSITION":44,"NORMAL":45},"material":7}]},{"name":"RiftRing_23","primitives":[{"attributes":{"POSITION":46,"NORMAL":47},"material":7}]},{"name":"RiftRing_24","primitives":[{"attributes":{"POSITION":48,"NORMAL":49},"material":7}]},{"name":"RiftRing_25","primitives":[{"attributes":{"POSITION":50,"NORMAL":51},"material":7}]},{"name":"RiftRing_26","primitives":[{"attributes":{"POSITION":52,"NORMAL":53},"material":7}]},{"name":"RiftRing_27","primitives":[{"attributes":{"POSITION":54,"NORMAL":55},"material":7}]},{"name":"RiftRing_28","primitives":[{"attributes":{"POSITION":56,"NORMAL":57},"material":7}]},{"name":"RiftRing_29","primitives":[{"attributes":{"POSITION":58,"NORMAL":59},"material":7}]},{"name":"RiftRing_30","primitives":[{"attributes":{"POSITION":60,"NORMAL":61},"material":7}]},{"name":"RiftRing_31","primitives":[{"attributes":{"POSITION":62,"NORMAL":63},"material":7}]},{"name":"RiftRing_32","primitives":[{"attributes":{"POSITION":64,"NORMAL":65},"material":7}]},{"name":"RiftRing_33","primitives":[{"attributes":{"POSITION":66,"NORMAL":67},"material":7}]},{"name":"RiftRing_34","primitives":[{"attributes":{"POSITION":68,"NORMAL":69},"material":7}]},{"name":"RiftRing_35","primitives":[{"attributes":{"POSITION":70,"NORMAL":71},"material":7}]}],"materials":[{"name":"stone","pbrMetallicRoughness":{"baseColorFactor":[0.05284162552287903,0.08464151072542946,0.11657577617857154,1],"metallicFactor":0,"roughnessFactor":0.8}},{"name":"edge","pbrMetallicRoughness":{"baseColorFactor":[0.18014428915439032,0.27583283346124515,0.31118049905798434,1],"metallicFactor":0,"roughnessFactor":0.8}},{"name":"dark","pbrMetallicRoughness":{"baseColorFactor":[0.009021491898012131,0.016988052089250045,0.03155139140022645,1],"metallicFactor":0,"roughnessFactor":0.8}},{"name":"wood","pbrMetallicRoughness":{"baseColorFactor":[0.1390224537347025,0.04943345755590796,0.02201299491933654,1],"metallicFactor":0,"roughnessFactor":0.8}},{"name":"woodlight","pbrMetallicRoughness":{"baseColorFactor":[0.36859092219748707,0.14497212559723088,0.042987010162657116,1],"metallicFactor":0,"roughnessFactor":0.8}},{"name":"copper","pbrMetallicRoughness":{"baseColorFactor":[0.6730490732809419,0.20835965596076741,0.05637409755197975,1],"metallicFactor":0.35,"roughnessFactor":0.8}},{"name":"gold","pbrMetallicRoughness":{"baseColorFactor":[0.9489649381781952,0.5174013674966733,0.12752977781342206,1],"metallicFactor":0.35,"roughnessFactor":0.8}},{"name":"rift","pbrMetallicRoughness":{"baseColorFactor":[0.051122050056493396,0.7969165429079781,0.5859729839496614,1],"metallicFactor":0,"roughnessFactor":0.8},"emissiveFactor":[0.017892717519772686,0.2789207900177923,0.20509054438238147]},{"name":"ice","pbrMetallicRoughness":{"baseColorFactor":[0.4704402453042184,1.0,0.8355277914608409,1],"metallicFactor":0,"roughnessFactor":0.8},"emissiveFactor":[0.16465408585647642,0.35,0.2924347270112943]},{"name":"moss","pbrMetallicRoughness":{"baseColorFactor":[0.05459227728176034,0.14799802298268516,0.06381487094867724,1],"metallicFactor":0,"roughnessFactor":0.8}},{"name":"bark","pbrMetallicRoughness":{"baseColorFactor":[0.06575388026033009,0.03423020656508195,0.020951131914781092,1],"metallicFactor":0,"roughnessFactor":0.8}},{"name":"cloth","pbrMetallicRoughness":{"baseColorFactor":[0.03994717100152558,0.10114516420959989,0.10363409665513738,1],"metallicFactor":0,"roughnessFactor":0.8}},{"name":"leather","pbrMetallicRoughness":{"baseColorFactor":[0.05818717747368544,0.020951131914781092,0.015175238159625197,1],"metallicFactor":0,"roughnessFactor":0.8}},{"name":"fire","pbrMetallicRoughness":{"baseColorFactor":[1.0,0.3157627437363971,0.04943345755590796,1],"metallicFactor":0,"roughnessFactor":0.8},"emissiveFactor":[0.35,0.11051696030773898,0.017301710144567783]}],"bufferViews":[{"buffer":0,"byteOffset":0,"byteLength":432},{"buffer":0,"byteOffset":432,"byteLength":432},{"buffer":0,"byteOffset":864,"byteLength":1440},{"buffer":0,"byteOffset":2304,"byteLength":1440},{"buffer":0,"byteOffset":3744,"byteLength":1440},{"buffer":0,"byteOffset":5184,"byteLength":1440},{"buffer":0,"byteOffset":6624,"byteLength":1440},{"buffer":0,"byteOffset":8064,"byteLength":1440},{"buffer":0,"byteOffset":9504,"byteLength":1440},{"buffer":0,"byteOffset":10944,"byteLength":1440},{"buffer":0,"byteOffset":12384,"byteLength":432},{"buffer":0,"byteOffset":12816,"byteLength":432},{"buffer":0,"byteOffset":13248,"byteLength":792},{"buffer":0,"byteOffset":14040,"byteLength":792},{"buffer":0,"byteOffset":14832,"byteLength":792},{"buffer":0,"byteOffset":15624,"byteLength":792},{"buffer":0,"byteOffset":16416,"byteLength":1440},{"buffer":0,"byteOffset":17856,"byteLength":1440},{"buffer":0,"byteOffset":19296,"byteLength":1440},{"buffer":0,"byteOffset":20736,"byteLength":1440},{"buffer":0,"byteOffset":22176,"byteLength":1440},{"buffer":0,"byteOffset":23616,"byteLength":1440},{"buffer":0,"byteOffset":25056,"byteLength":1440},{"buffer":0,"byteOffset":26496,"byteLength":1440},{"buffer":0,"byteOffset":27936,"byteLength":432},{"buffer":0,"byteOffset":28368,"byteLength":432},{"buffer":0,"byteOffset":28800,"byteLength":792},{"buffer":0,"byteOffset":29592,"byteLength":792},{"buffer":0,"byteOffset":30384,"byteLength":792},{"buffer":0,"byteOffset":31176,"byteLength":792},{"buffer":0,"byteOffset":31968,"byteLength":1440},{"buffer":0,"byteOffset":33408,"byteLength":1440},{"buffer":0,"byteOffset":34848,"byteLength":1440},{"buffer":0,"byteOffset":36288,"byteLength":1440},{"buffer":0,"byteOffset":37728,"byteLength":1440},{"buffer":0,"byteOffset":39168,"byteLength":1440},{"buffer":0,"byteOffset":40608,"byteLength":1440},{"buffer":0,"byteOffset":42048,"byteLength":1440},{"buffer":0,"byteOffset":43488,"byteLength":1440},{"buffer":0,"byteOffset":44928,"byteLength":1440},{"buffer":0,"byteOffset":46368,"byteLength":720},{"buffer":0,"byteOffset":47088,"byteLength":720},{"buffer":0,"byteOffset":47808,"byteLength":720},{"buffer":0,"byteOffset":48528,"byteLength":720},{"buffer":0,"byteOffset":49248,"byteLength":720},{"buffer":0,"byteOffset":49968,"byteLength":720},{"buffer":0,"byteOffset":50688,"byteLength":720},{"buffer":0,"byteOffset":51408,"byteLength":720},{"buffer":0,"byteOffset":52128,"byteLength":720},{"buffer":0,"byteOffset":52848,"byteLength":720},{"buffer":0,"byteOffset":53568,"byteLength":720},{"buffer":0,"byteOffset":54288,"byteLength":720},{"buffer":0,"byteOffset":55008,"byteLength":720},{"buffer":0,"byteOffset":55728,"byteLength":720},{"buffer":0,"byteOffset":56448,"byteLength":720},{"buffer":0,"byteOffset":57168,"byteLength":720},{"buffer":0,"byteOffset":57888,"byteLength":720},{"buffer":0,"byteOffset":58608,"byteLength":720},{"buffer":0,"byteOffset":59328,"byteLength":720},{"buffer":0,"byteOffset":60048,"byteLength":720},{"buffer":0,"byteOffset":60768,"byteLength":720},{"buffer":0,"byteOffset":61488,"byteLength":720},{"buffer":0,"byteOffset":62208,"byteLength":720},{"buffer":0,"byteOffset":62928,"byteLength":720},{"buffer":0,"byteOffset":63648,"byteLength":720},{"buffer":0,"byteOffset":64368,"byteLength":720},{"buffer":0,"byteOffset":65088,"byteLength":720},{"buffer":0,"byteOffset":65808,"byteLength":720},{"buffer":0,"byteOffset":66528,"byteLength":720},{"buffer":0,"byteOffset":67248,"byteLength":720},{"buffer":0,"byteOffset":67968,"byteLength":720},{"buffer":0,"byteOffset":68688,"byteLength":720}],"accessors":[{"bufferView":0,"componentType":5126,"count":36,"type":"VEC3","min":[-1.9500000476837158,-0.11999999731779099,-0.8999999761581421],"max":[1.9500000476837158,0.11999999731779099,0.8999999761581421]},{"bufferView":1,"componentType":5126,"count":36,"type":"VEC3","min":[-1.0,-1.0,-1.0],"max":[1.0,1.0,1.0]},{"bufferView":2,"componentType":5126,"count":120,"type":"VEC3","min":[-0.40645870566368103,-0.3746309280395508,-0.4387175738811493],"max":[0.4489772617816925,0.44228658080101013,0.4387175738811493]},{"bufferView":3,"componentType":5126,"count":120,"type":"VEC3","min":[-0.9505154490470886,-0.9900027513504028,-0.9132200479507446],"max":[0.8460047245025635,0.9237088561058044,0.8958325982093811]},{"bufferView":4,"componentType":5126,"count":120,"type":"VEC3","min":[-0.40645870566368103,-0.35711029171943665,-0.4387175738811493],"max":[0.4489772617816925,0.4437255859375,0.4387175738811493]},{"bufferView":5,"componentType":5126,"count":120,"type":"VEC3","min":[-0.9332558512687683,-0.9975033402442932,-0.9353360533714294],"max":[0.8742693066596985,0.8801972270011902,0.9339715242385864]},{"bufferView":6,"componentType":5126,"count":120,"type":"VEC3","min":[-0.40645870566368103,-0.36020976305007935,-0.4387175738811493],"max":[0.4489772617816925,0.44720882177352905,0.4387175738811493]},{"bufferView":7,"componentType":5126,"count":120,"type":"VEC3","min":[-0.9527402520179749,-0.9986851811408997,-0.9260969758033752],"max":[0.8852797150611877,0.9401803016662598,0.9178369045257568]},{"bufferView":8,"componentType":5126,"count":120,"type":"VEC3","min":[-0.40645870566368103,-0.36012279987335205,-0.4387175738811493],"max":[0.4489772617816925,0.44808539748191833,0.4387175738811493]},{"bufferView":9,"componentType":5126,"count":120,"type":"VEC3","min":[-0.9550904631614685,-0.9965778589248657,-0.9444146752357483],"max":[0.8874223828315735,0.92975914478302,0.921132504940033]},{"bufferView":10,"componentType":5126,"count":36,"type":"VEC3","min":[-0.05999999865889549,-0.24500000476837158,-0.019999999552965164],"max":[0.05999999865889549,0.24500000476837158,0.019999999552965164]},{"bufferView":11,"componentType":5126,"count":36,"type":"VEC3","min":[-1.0,-1.0,-1.0],"max":[1.0,1.0,1.0]},{"bufferView":12,"componentType":5126,"count":66,"type":"VEC3","min":[-0.16096153855323792,-0.22615385055541992,-0.10392304509878159],"max":[0.1345384567975998,0.3738461434841156,0.10392304509878159]},{"bufferView":13,"componentType":5126,"count":66,"type":"VEC3","min":[-0.8343044519424438,-1.0,-0.9956790804862976],"max":[0.8595225214958191,0.5796682238578796,0.9956790804862976]},{"bufferView":14,"componentType":5126,"count":66,"type":"VEC3","min":[-0.16096153855323792,-0.30153846740722656,-0.10392304509878159],"max":[0.1345384567975998,0.4984615445137024,0.10392304509878159]},{"bufferView":15,"componentType":5126,"count":66,"type":"VEC3","min":[-0.847747266292572,-1.0,-0.9975625872612],"max":[0.8623494505882263,0.4707257151603699,0.9975625872612]},{"bufferView":16,"componentType":5126,"count":120,"type":"VEC3","min":[-0.40645870566368103,-0.3746309280395508,-0.4387175738811493],"max":[0.4489772617816925,0.44228658080101013,0.4387175738811493]},{"bufferView":17,"componentType":5126,"count":120,"type":"VEC3","min":[-0.9505154490470886,-0.9900027513504028,-0.9132200479507446],"max":[0.8460047245025635,0.9237088561058044,0.8958325982093811]},{"bufferView":18,"componentType":5126,"count":120,"type":"VEC3","min":[-0.40645870566368103,-0.35711029171943665,-0.4387175738811493],"max":[0.4489772617816925,0.4437255859375,0.4387175738811493]},{"bufferView":19,"componentType":5126,"count":120,"type":"VEC3","min":[-0.9332558512687683,-0.9975033402442932,-0.9353360533714294],"max":[0.8742693066596985,0.8801972270011902,0.9339715242385864]},{"bufferView":20,"componentType":5126,"count":120,"type":"VEC3","min":[-0.40645870566368103,-0.36020976305007935,-0.4387175738811493],"max":[0.4489772617816925,0.44720882177352905,0.4387175738811493]},{"bufferView":21,"componentType":5126,"count":120,"type":"VEC3","min":[-0.9527402520179749,-0.9986851811408997,-0.9260969758033752],"max":[0.8852797150611877,0.9401803016662598,0.9178369045257568]},{"bufferView":22,"componentType":5126,"count":120,"type":"VEC3","min":[-0.40645870566368103,-0.36012279987335205,-0.4387175738811493],"max":[0.4489772617816925,0.44808539748191833,0.4387175738811493]},{"bufferView":23,"componentType":5126,"count":120,"type":"VEC3","min":[-0.9550904631614685,-0.9965778589248657,-0.9444146752357483],"max":[0.8874223828315735,0.92975914478302,0.921132504940033]},{"bufferView":24,"componentType":5126,"count":36,"type":"VEC3","min":[-0.05999999865889549,-0.24500000476837158,-0.019999999552965164],"max":[0.05999999865889549,0.24500000476837158,0.019999999552965164]},{"bufferView":25,"componentType":5126,"count":36,"type":"VEC3","min":[-1.0,-1.0,-1.0],"max":[1.0,1.0,1.0]},{"bufferView":26,"componentType":5126,"count":66,"type":"VEC3","min":[-0.1345384567975998,-0.22615385055541992,-0.10392304509878159],"max":[0.16096153855323792,0.3738461434841156,0.10392304509878159]},{"bufferView":27,"componentType":5126,"count":66,"type":"VEC3","min":[-0.8595225214958191,-1.0,-0.9956790804862976],"max":[0.8343044519424438,0.5796682238578796,0.9956790804862976]},{"bufferView":28,"componentType":5126,"count":66,"type":"VEC3","min":[-0.1345384567975998,-0.30153846740722656,-0.10392304509878159],"max":[0.16096153855323792,0.4984615445137024,0.10392304509878159]},{"bufferView":29,"componentType":5126,"count":66,"type":"VEC3","min":[-0.8623494505882263,-1.0,-0.9975625872612],"max":[0.847747266292572,0.4707257151603699,0.9975625872612]},{"bufferView":30,"componentType":5126,"count":120,"type":"VEC3","min":[-0.3974263072013855,-0.35495299100875854,-0.42896828055381775],"max":[0.4390000104904175,0.4604184031486511,0.42896828055381775]},{"bufferView":31,"componentType":5126,"count":120,"type":"VEC3","min":[-0.9704272150993347,-0.9998271465301514,-0.9127063751220703],"max":[0.8931680917739868,0.9011111855506897,0.9423696398735046]},{"bufferView":32,"componentType":5126,"count":120,"type":"VEC3","min":[-0.3974263072013855,-0.38214200735092163,-0.42896828055381775],"max":[0.4390000104904175,0.4463992714881897,0.42896828055381775]},{"bufferView":33,"componentType":5126,"count":120,"type":"VEC3","min":[-0.952732264995575,-0.9812685251235962,-0.9064308404922485],"max":[0.9031615853309631,0.9055477976799011,0.9446929693222046]},{"bufferView":34,"componentType":5126,"count":120,"type":"VEC3","min":[-0.3974263072013855,-0.3502490818500519,-0.42896828055381775],"max":[0.4390000104904175,0.44168880581855774,0.42896828055381775]},{"bufferView":35,"componentType":5126,"count":120,"type":"VEC3","min":[-0.969260573387146,-0.9968379139900208,-0.9261766076087952],"max":[0.8526122570037842,0.9318181276321411,0.9201956987380981]},{"bufferView":36,"componentType":5126,"count":120,"type":"VEC3","min":[-0.3974263072013855,-0.38751229643821716,-0.42896828055381775],"max":[0.4390000104904175,0.44520360231399536,0.42896828055381775]},{"bufferView":37,"componentType":5126,"count":120,"type":"VEC3","min":[-0.9397565722465515,-0.9836609959602356,-0.9260228276252747],"max":[0.8928223848342896,0.9173994064331055,0.944587767124176]},{"bufferView":38,"componentType":5126,"count":120,"type":"VEC3","min":[-0.3974263072013855,-0.3858747184276581,-0.42896828055381775],"max":[0.4390000104904175,0.4498317837715149,0.42896828055381775]},{"bufferView":39,"componentType":5126,"count":120,"type":"VEC3","min":[-0.9469922780990601,-0.9809100031852722,-0.9314147233963013],"max":[0.8618939518928528,0.9473053812980652,0.9472051858901978]},{"bufferView":40,"componentType":5126,"count":60,"type":"VEC3","min":[-0.07425446808338165,-0.2917942404747009,-0.030310889706015587],"max":[0.07425446808338165,0.2917942404747009,0.030310889706015587]},{"bufferView":41,"componentType":5126,"count":60,"type":"VEC3","min":[-0.8579052090644836,-0.9906235933303833,-1.0],"max":[0.8579052090644836,0.9906235933303833,1.0]},{"bufferView":42,"componentType":5126,"count":60,"type":"VEC3","min":[-0.14447945356369019,-0.25802987813949585,-0.030310889706015587],"max":[0.14447945356369019,0.25802987813949585,0.030310889706015587]},{"bufferView":43,"componentType":5126,"count":60,"type":"VEC3","min":[-0.7857972383499146,-0.9073604941368103,-1.0],"max":[0.7857972383499146,0.9073604941368103,1.0]},{"bufferView":44,"componentType":5126,"count":60,"type":"VEC3","min":[-0.1897335946559906,-0.1844048649072647,-0.03500000014901161],"max":[0.1897335946559906,0.1844048649072647,0.03500000014901161]},{"bufferView":45,"componentType":5126,"count":60,"type":"VEC3","min":[-0.7200480699539185,-0.7200480699539185,-0.8660253882408142],"max":[0.7200480699539185,0.7200480699539185,0.8660253882408142]},{"bufferView":46,"componentType":5126,"count":60,"type":"VEC3","min":[-0.20735417306423187,-0.08622591197490692,-0.03500000014901161],"max":[0.20735417306423187,0.08622591197490692,0.03500000014901161]},{"bufferView":47,"componentType":5126,"count":60,"type":"VEC3","min":[-0.9612241387367249,-0.9612241387367249,-0.8660253882408142],"max":[0.9612241387367249,0.9612241387367249,0.8660253882408142]},{"bufferView":48,"componentType":5126,"count":60,"type":"VEC3","min":[-0.20735417306423187,-0.08622591197490692,-0.03500000014901161],"max":[0.20735417306423187,0.08622591197490692,0.03500000014901161]},{"bufferView":49,"componentType":5126,"count":60,"type":"VEC3","min":[-0.9612241387367249,-0.9612241387367249,-0.8660253882408142],"max":[0.9612241387367249,0.9612241387367249,0.8660253882408142]},{"bufferView":50,"componentType":5126,"count":60,"type":"VEC3","min":[-0.1897335946559906,-0.1844048649072647,-0.03500000014901161],"max":[0.1897335946559906,0.1844048649072647,0.03500000014901161]},{"bufferView":51,"componentType":5126,"count":60,"type":"VEC3","min":[-0.7200480699539185,-0.7200480699539185,-0.8660253882408142],"max":[0.7200480699539185,0.7200480699539185,0.8660253882408142]},{"bufferView":52,"componentType":5126,"count":60,"type":"VEC3","min":[-0.14447945356369019,-0.25802987813949585,-0.030310889706015587],"max":[0.14447945356369019,0.25802987813949585,0.030310889706015587]},{"bufferView":53,"componentType":5126,"count":60,"type":"VEC3","min":[-0.7857972383499146,-0.9073604941368103,-1.0],"max":[0.7857972383499146,0.9073604941368103,1.0]},{"bufferView":54,"componentType":5126,"count":60,"type":"VEC3","min":[-0.07425446808338165,-0.2917942404747009,-0.030310889706015587],"max":[0.07425446808338165,0.2917942404747009,0.030310889706015587]},{"bufferView":55,"componentType":5126,"count":60,"type":"VEC3","min":[-0.8579052090644836,-0.9906235933303833,-1.0],"max":[0.8579052090644836,0.9906235933303833,1.0]},{"bufferView":56,"componentType":5126,"count":60,"type":"VEC3","min":[-0.07425446808338165,-0.2917942404747009,-0.030310889706015587],"max":[0.07425446808338165,0.2917942404747009,0.030310889706015587]},{"bufferView":57,"componentType":5126,"count":60,"type":"VEC3","min":[-0.8579052090644836,-0.9906235933303833,-1.0],"max":[0.8579052090644836,0.9906235933303833,1.0]},{"bufferView":58,"componentType":5126,"count":60,"type":"VEC3","min":[-0.14447945356369019,-0.25802987813949585,-0.030310889706015587],"max":[0.14447945356369019,0.25802987813949585,0.030310889706015587]},{"bufferView":59,"componentType":5126,"count":60,"type":"VEC3","min":[-0.7857972383499146,-0.9073604941368103,-1.0],"max":[0.7857972383499146,0.9073604941368103,1.0]},{"bufferView":60,"componentType":5126,"count":60,"type":"VEC3","min":[-0.1897335946559906,-0.1844048649072647,-0.03500000014901161],"max":[0.1897335946559906,0.1844048649072647,0.03500000014901161]},{"bufferView":61,"componentType":5126,"count":60,"type":"VEC3","min":[-0.7200480699539185,-0.7200480699539185,-0.8660253882408142],"max":[0.7200480699539185,0.7200480699539185,0.8660253882408142]},{"bufferView":62,"componentType":5126,"count":60,"type":"VEC3","min":[-0.20735417306423187,-0.08622591197490692,-0.03500000014901161],"max":[0.20735417306423187,0.08622591197490692,0.03500000014901161]},{"bufferView":63,"componentType":5126,"count":60,"type":"VEC3","min":[-0.9612241387367249,-0.9612241387367249,-0.8660253882408142],"max":[0.9612241387367249,0.9612241387367249,0.8660253882408142]},{"bufferView":64,"componentType":5126,"count":60,"type":"VEC3","min":[-0.20735417306423187,-0.08622591197490692,-0.03500000014901161],"max":[0.20735417306423187,0.08622591197490692,0.03500000014901161]},{"bufferView":65,"componentType":5126,"count":60,"type":"VEC3","min":[-0.9612241387367249,-0.9612241387367249,-0.8660253882408142],"max":[0.9612241387367249,0.9612241387367249,0.8660253882408142]},{"bufferView":66,"componentType":5126,"count":60,"type":"VEC3","min":[-0.1897335946559906,-0.1844048649072647,-0.03500000014901161],"max":[0.1897335946559906,0.1844048649072647,0.03500000014901161]},{"bufferView":67,"componentType":5126,"count":60,"type":"VEC3","min":[-0.7200480699539185,-0.7200480699539185,-0.8660253882408142],"max":[0.7200480699539185,0.7200480699539185,0.8660253882408142]},{"bufferView":68,"componentType":5126,"count":60,"type":"VEC3","min":[-0.14447945356369019,-0.25802987813949585,-0.030310889706015587],"max":[0.14447945356369019,0.25802987813949585,0.030310889706015587]},{"bufferView":69,"componentType":5126,"count":60,"type":"VEC3","min":[-0.7857972383499146,-0.9073604941368103,-1.0],"max":[0.7857972383499146,0.9073604941368103,1.0]},{"bufferView":70,"componentType":5126,"count":60,"type":"VEC3","min":[-0.07425446808338165,-0.2917942404747009,-0.030310889706015587],"max":[0.07425446808338165,0.2917942404747009,0.030310889706015587]},{"bufferView":71,"componentType":5126,"count":60,"type":"VEC3","min":[-0.8579052090644836,-0.9906235933303833,-1.0],"max":[0.8579052090644836,0.9906235933303833,1.0]}],"buffers":[{"byteLength":69408,"uri":"Return_Portal.bin"}]}