{"asset":{"version":"2.0","generator":"RIFTBOUND procedural asset builder"},"scene":0,"scenes":[{"nodes":[0,1,2,3,4,5,6,7,8,9]}],"nodes":[{"name":"BowLimb_0","mesh":0,"translation":[0.23,0.2857608921747375,-6.938893903907228e-18]},{"name":"BowLimb_1","mesh":1,"translation":[0.5449999999999999,0.7707608921747374,-0.0]},{"name":"BowLimb_2","mesh":2,"translation":[0.555,1.2207608921747375,-1.3010426069826053e-18]},{"name":"BowLimb_3","mesh":3,"translation":[0.5549999999999999,1.6007608921747374,-1.3010426069826053e-18]},{"name":"BowLimb_4","mesh":4,"translation":[0.545,2.050760892174737,-1.3010426069826053e-18]},{"name":"BowLimb_5","mesh":5,"translation":[0.22999999999999998,2.5357608921747374,6.938893903907228e-18]},{"name":"BowString_6","mesh":6,"translation":[0.0,1.4107608921747374,1.1564823173178713e-18]},{"name":"Grip_7","mesh":7,"translation":[0.48000000000000004,1.410760892174738,-2.6020852139652106e-18]},{"name":"Arrow_8","mesh":8,"translation":[0.475,1.4107608921747374,0.1]},{"name":"Arrowhead_9","mesh":9,"translation":[1.4442307692307692,1.4107608921747372,0.09999999999999999]}],"meshes":[{"name":"BowLimb_0","primitives":[{"attributes":{"POSITION":0,"NORMAL":1},"material":5}]},{"name":"BowLimb_1","primitives":[{"attributes":{"POSITION":2,"NORMAL":3},"material":5}]},{"name":"BowLimb_2","primitives":[{"attributes":{"POSITION":4,"NORMAL":5},"material":5}]},{"name":"BowLimb_3","primitives":[{"attributes":{"POSITION":6,"NORMAL":7},"material":5}]},{"name":"BowLimb_4","primitives":[{"attributes":{"POSITION":8,"NORMAL":9},"material":5}]},{"name":"BowLimb_5","primitives":[{"attributes":{"POSITION":10,"NORMAL":11},"material":5}]},{"name":"BowString_6","primitives":[{"attributes":{"POSITION":12,"NORMAL":13},"material":11}]},{"name":"Grip_7","primitives":[{"attributes":{"POSITION":14,"NORMAL":15},"material":12}]},{"name":"Arrow_8","primitives":[{"attributes":{"POSITION":16,"NORMAL":17},"material":4}]},{"name":"Arrowhead_9","primitives":[{"attributes":{"POSITION":18,"NORMAL":19},"material":1}]}],"materials":[{"name":"stone","pbrMetallicRoughness":{"baseColorFactor":[0.05284162552287903,0.08464151072542946,0.11657577617857154,1],"metallicFactor":0,"roughnessFactor":0.8}},{"name":"edge","pbrMetallicRoughness":{"baseColorFactor":[0.18014428915439032,0.27583283346124515,0.31118049905798434,1],"metallicFactor":0,"roughnessFactor":0.8}},{"name":"dark","pbrMetallicRoughness":{"baseColorFactor":[0.009021491898012131,0.016988052089250045,0.03155139140022645,1],"metallicFactor":0,"roughnessFactor":0.8}},{"name":"wood","pbrMetallicRoughness":{"baseColorFactor":[0.1390224537347025,0.04943345755590796,0.02201299491933654,1],"metallicFactor":0,"roughnessFactor":0.8}},{"name":"woodlight","pbrMetallicRoughness":{"baseColorFactor":[0.36859092219748707,0.14497212559723088,0.042987010162657116,1],"metallicFactor":0,"roughnessFactor":0.8}},{"name":"copper","pbrMetallicRoughness":{"baseColorFactor":[0.6730490732809419,0.20835965596076741,0.05637409755197975,1],"metallicFactor":0.35,"roughnessFactor":0.8}},{"name":"gold","pbrMetallicRoughness":{"baseColorFactor":[0.9489649381781952,0.5174013674966733,0.12752977781342206,1],"metallicFactor":0.35,"roughnessFactor":0.8}},{"name":"rift","pbrMetallicRoughness":{"baseColorFactor":[0.051122050056493396,0.7969165429079781,0.5859729839496614,1],"metallicFactor":0,"roughnessFactor":0.8},"emissiveFactor":[0.017892717519772686,0.2789207900177923,0.20509054438238147]},{"name":"ice","pbrMetallicRoughness":{"baseColorFactor":[0.4704402453042184,1.0,0.8355277914608409,1],"metallicFactor":0,"roughnessFactor":0.8},"emissiveFactor":[0.16465408585647642,0.35,0.2924347270112943]},{"name":"moss","pbrMetallicRoughness":{"baseColorFactor":[0.05459227728176034,0.14799802298268516,0.06381487094867724,1],"metallicFactor":0,"roughnessFactor":0.8}},{"name":"bark","pbrMetallicRoughness":{"baseColorFactor":[0.06575388026033009,0.03423020656508195,0.020951131914781092,1],"metallicFactor":0,"roughnessFactor":0.8}},{"name":"cloth","pbrMetallicRoughness":{"baseColorFactor":[0.03994717100152558,0.10114516420959989,0.10363409665513738,1],"metallicFactor":0,"roughnessFactor":0.8}},{"name":"leather","pbrMetallicRoughness":{"baseColorFactor":[0.05818717747368544,0.020951131914781092,0.015175238159625197,1],"metallicFactor":0,"roughnessFactor":0.8}},{"name":"fire","pbrMetallicRoughness":{"baseColorFactor":[1.0,0.3157627437363971,0.04943345755590796,1],"metallicFactor":0,"roughnessFactor":0.8},"emissiveFactor":[0.35,0.11051696030773898,0.017301710144567783]}],"bufferViews":[{"buffer":0,"byteOffset":0,"byteLength":1008},{"buffer":0,"byteOffset":1008,"byteLength":1008},{"buffer":0,"byteOffset":2016,"byteLength":1008},{"buffer":0,"byteOffset":3024,"byteLength":1008},{"buffer":0,"byteOffset":4032,"byteLength":1008},{"buffer":0,"byteOffset":5040,"byteLength":1008},{"buffer":0,"byteOffset":6048,"byteLength":1008},{"buffer":0,"byteOffset":7056,"byteLength":1008},{"buffer":0,"byteOffset":8064,"byteLength":1008},{"buffer":0,"byteOffset":9072,"byteLength":1008},{"buffer":0,"byteOffset":10080,"byteLength":1008},{"buffer":0,"byteOffset":11088,"byteLength":1008},{"buffer":0,"byteOffset":12096,"byteLength":720},{"buffer":0,"byteOffset":12816,"byteLength":720},{"buffer":0,"byteOffset":13536,"byteLength":1008},{"buffer":0,"byteOffset":14544,"byteLength":1008},{"buffer":0,"byteOffset":15552,"byteLength":1008},{"buffer":0,"byteOffset":16560,"byteLength":1008},{"buffer":0,"byteOffset":17568,"byteLength":792},{"buffer":0,"byteOffset":18360,"byteLength":792}],"accessors":[{"bufferView":0,"componentType":5126,"count":84,"type":"VEC3","min":[-0.28944000601768494,-0.28576087951660156,-0.08500000089406967],"max":[0.28944000601768494,0.28576087951660156,0.08500000089406967]},{"bufferView":1,"componentType":5126,"count":84,"type":"VEC3","min":[-0.7148340344429016,-0.6992941498756409,-0.9238795042037964],"max":[0.7148340344429016,0.6992941498756409,0.9238795042037964]},{"bufferView":2,"componentType":5126,"count":84,"type":"VEC3","min":[-0.16579210758209229,-0.2864128053188324,-0.08500000089406967],"max":[0.16579210758209229,0.2864128053188324,0.08500000089406967]},{"bufferView":3,"componentType":5126,"count":84,"type":"VEC3","min":[-0.8781431913375854,-0.9504953026771545,-0.9238795042037964],"max":[0.8781431913375854,0.9504953026771545,0.9238795042037964]},{"bufferView":4,"componentType":5126,"count":84,"type":"VEC3","min":[-0.15406319499015808,-0.22120915353298187,-0.08500000089406967],"max":[0.15406319499015808,0.22120915353298187,0.08500000089406967]},{"bufferView":5,"componentType":5126,"count":84,"type":"VEC3","min":[-0.859351396560669,-0.9301552176475525,-0.9238795042037964],"max":[0.859351396560669,0.9301552176475525,0.9238795042037964]},{"bufferView":6,"componentType":5126,"count":84,"type":"VEC3","min":[-0.15406319499015808,-0.22120915353298187,-0.08500000089406967],"max":[0.15406319499015808,0.22120915353298187,0.08500000089406967]},{"bufferView":7,"componentType":5126,"count":84,"type":"VEC3","min":[-0.859351396560669,-0.9301552176475525,-0.9238795042037964],"max":[0.859351396560669,0.9301552176475525,0.9238795042037964]},{"bufferView":8,"componentType":5126,"count":84,"type":"VEC3","min":[-0.16579210758209229,-0.2864128053188324,-0.08500000089406967],"max":[0.16579210758209229,0.2864128053188324,0.08500000089406967]},{"bufferView":9,"componentType":5126,"count":84,"type":"VEC3","min":[-0.8781431913375854,-0.9504953026771545,-0.9238795042037964],"max":[0.8781431913375854,0.9504953026771545,0.9238795042037964]},{"bufferView":10,"componentType":5126,"count":84,"type":"VEC3","min":[-0.28944000601768494,-0.28576087951660156,-0.08500000089406967],"max":[0.28944000601768494,0.28576087951660156,0.08500000089406967]},{"bufferView":11,"componentType":5126,"count":84,"type":"VEC3","min":[-0.7148340344429016,-0.6992941498756409,-0.9238795042037964],"max":[0.7148340344429016,0.6992941498756409,0.9238795042037964]},{"bufferView":12,"componentType":5126,"count":60,"type":"VEC3","min":[-0.012000000104308128,-1.350000023841858,-0.010392304509878159],"max":[0.012000000104308128,1.350000023841858,0.010392304509878159]},{"bufferView":13,"componentType":5126,"count":60,"type":"VEC3","min":[-0.8660253882408142,-1.0,-1.0],"max":[0.8660253882408142,1.0,1.0]},{"bufferView":14,"componentType":5126,"count":84,"type":"VEC3","min":[-0.11999999731779099,-0.20000000298023224,-0.11999999731779099],"max":[0.11999999731779099,0.20000000298023224,0.11999999731779099]},{"bufferView":15,"componentType":5126,"count":84,"type":"VEC3","min":[-0.9238795042037964,-1.0,-0.9238795042037964],"max":[0.9238795042037964,1.0,0.9238795042037964]},{"bufferView":16,"componentType":5126,"count":84,"type":"VEC3","min":[-0.875,-0.027000000700354576,-0.027000000700354576],"max":[0.875,0.027000000700354576,0.027000000700354576]},{"bufferView":17,"componentType":5126,"count":84,"type":"VEC3","min":[-1.0,-0.9238795042037964,-0.9238795042037964],"max":[1.0,0.9238795042037964,0.9238795042037964]},{"bufferView":18,"componentType":5126,"count":66,"type":"VEC3","min":[-0.0942307710647583,-0.07999999821186066,-0.06928203254938126],"max":[0.1557692289352417,0.07999999821186066,0.06928203254938126]},{"bufferView":19,"componentType":5126,"count":66,"type":"VEC3","min":[-1.0,-0.8565413951873779,-0.9890488386154175],"max":[0.6207646131515503,0.8565413951873779,0.9890488386154175]}],"buffers":[{"byteLength":19152,"uri":"Copper_Bow.bin"}]}