# RIFTBOUND | Z up | flat shaded
mtllib Copper_Bow.mtl
o BowLimb_0
usemtl copper
v 0.000000 -0.085000 0.060761
v 0.042030 -0.060104 0.017796
v 0.059440 -0.000000 0.000000
v 0.042030 0.060104 0.017796
v 0.000000 0.085000 0.060761
v -0.042030 0.060104 0.103725
v -0.059440 0.000000 0.121522
v -0.042030 -0.060104 0.103725
v 0.460000 -0.085000 0.510761
v 0.502030 -0.060104 0.467796
v 0.519440 -0.000000 0.450000
v 0.502030 0.060104 0.467796
v 0.460000 0.085000 0.510761
v 0.417970 0.060104 0.553725
v 0.400560 0.000000 0.571522
v 0.417970 -0.060104 0.553725
f 16 7 8
f 16 15 7
f 16 8 1
f 16 1 9
f 10 2 3
f 10 3 11
f 10 1 2
f 10 9 1
f 5 8 7
f 5 2 1
f 5 1 8
f 5 7 6
f 5 4 3
f 5 3 2
f 12 11 3
f 12 3 4
f 12 4 5
f 12 5 13
f 14 10 11
f 14 15 16
f 14 16 9
f 14 9 10
f 14 11 12
f 14 12 13
f 14 6 7
f 14 7 15
f 14 5 6
f 14 13 5
o BowLimb_1
usemtl copper
v 0.379208 0.000000 0.537174
v 0.402871 -0.060104 0.529438
v 0.460000 -0.085000 0.510761
v 0.517129 -0.060104 0.492084
v 0.540792 -0.000000 0.484348
v 0.517129 0.060104 0.492084
v 0.460000 0.085000 0.510761
v 0.402871 0.060104 0.529438
v 0.549208 0.000000 1.057174
v 0.572871 -0.060104 1.049438
v 0.630000 -0.085000 1.030761
v 0.687129 -0.060104 1.012084
v 0.710792 -0.000000 1.004348
v 0.687129 0.060104 1.012084
v 0.630000 0.085000 1.030761
v 0.572871 0.060104 1.049438
f 32 24 17
f 32 17 25
f 32 23 24
f 32 31 23
f 30 21 22
f 30 29 21
f 30 22 23
f 30 23 31
f 19 17 24
f 19 23 22
f 19 24 23
f 19 18 17
f 19 21 20
f 19 22 21
f 28 21 29
f 28 20 21
f 28 19 20
f 28 27 19
f 26 29 30
f 26 32 25
f 26 31 32
f 26 30 31
f 26 28 29
f 26 27 28
f 26 17 18
f 26 25 17
f 26 18 19
f 26 19 27
o BowLimb_2
usemtl copper
v 0.550937 0.000000 0.999552
v 0.574094 -0.060104 1.008693
v 0.630000 -0.085000 1.030761
v 0.685906 -0.060104 1.052829
v 0.709063 -0.000000 1.061970
v 0.685906 0.060104 1.052829
v 0.630000 0.085000 1.030761
v 0.574094 0.060104 1.008693
v 0.400937 0.000000 1.379552
v 0.424094 -0.060104 1.388693
v 0.480000 -0.085000 1.410761
v 0.535906 -0.060104 1.432829
v 0.559063 -0.000000 1.441970
v 0.535906 0.060104 1.432829
v 0.480000 0.085000 1.410761
v 0.424094 0.060104 1.388693
f 33 41 48
f 33 48 40
f 42 33 34
f 42 41 33
f 42 34 35
f 42 35 43
f 36 45 44
f 36 37 45
f 36 44 43
f 36 43 35
f 46 37 38
f 46 45 37
f 39 38 37
f 39 33 40
f 39 35 34
f 39 34 33
f 39 37 36
f 39 36 35
f 47 48 41
f 47 44 45
f 47 41 42
f 47 43 44
f 47 42 43
f 47 45 46
f 47 40 48
f 47 39 40
f 47 46 38
f 47 38 39
o BowLimb_3
usemtl copper
v 0.400937 0.000000 1.441970
v 0.424094 -0.060104 1.432829
v 0.480000 -0.085000 1.410761
v 0.535906 -0.060104 1.388693
v 0.559063 -0.000000 1.379552
v 0.535906 0.060104 1.388693
v 0.480000 0.085000 1.410761
v 0.424094 0.060104 1.432829
v 0.550937 0.000000 1.821970
v 0.574094 -0.060104 1.812829
v 0.630000 -0.085000 1.790761
v 0.685906 -0.060104 1.768693
v 0.709063 -0.000000 1.759552
v 0.685906 0.060104 1.768693
v 0.630000 0.085000 1.790761
v 0.574094 0.060104 1.812829
f 59 50 51
f 59 58 50
f 52 50 49
f 52 55 54
f 52 49 56
f 52 51 50
f 52 56 55
f 52 54 53
f 60 52 53
f 60 53 61
f 60 59 51
f 60 51 52
f 57 49 50
f 57 50 58
f 57 56 49
f 57 64 56
f 62 53 54
f 62 61 53
f 63 58 59
f 63 57 58
f 63 60 61
f 63 59 60
f 63 64 57
f 63 61 62
f 63 55 56
f 63 56 64
f 63 54 55
f 63 62 54
o BowLimb_4
usemtl copper
v 0.549208 0.000000 1.764348
v 0.572871 -0.060104 1.772084
v 0.630000 -0.085000 1.790761
v 0.687129 -0.060104 1.809438
v 0.710792 -0.000000 1.817174
v 0.687129 0.060104 1.809438
v 0.630000 0.085000 1.790761
v 0.572871 0.060104 1.772084
v 0.379208 0.000000 2.284348
v 0.402871 -0.060104 2.292084
v 0.460000 -0.085000 2.310761
v 0.517129 -0.060104 2.329438
v 0.540792 -0.000000 2.337174
v 0.517129 0.060104 2.329438
v 0.460000 0.085000 2.310761
v 0.402871 0.060104 2.292084
f 79 70 71
f 79 78 70
f 72 80 79
f 72 79 71
f 72 73 80
f 72 65 73
f 66 74 73
f 66 73 65
f 68 67 66
f 68 70 69
f 68 72 71
f 68 71 70
f 68 65 72
f 68 66 65
f 77 69 70
f 77 70 78
f 77 68 69
f 77 76 68
f 75 73 74
f 75 80 73
f 75 78 79
f 75 79 80
f 75 77 78
f 75 76 77
f 75 74 66
f 75 66 67
f 75 67 68
f 75 68 76
o BowLimb_5
usemtl copper
v 0.460000 0.085000 2.310761
v 0.417970 0.060104 2.267796
v 0.400560 0.000000 2.250000
v 0.417970 -0.060104 2.267796
v 0.460000 -0.085000 2.310761
v 0.502030 -0.060104 2.353725
v 0.519440 -0.000000 2.371522
v 0.502030 0.060104 2.353725
v 0.000000 0.085000 2.760761
v -0.042030 0.060104 2.717796
v -0.059440 0.000000 2.700000
v -0.042030 -0.060104 2.717796
v -0.000000 -0.085000 2.760761
v 0.042030 -0.060104 2.803725
v 0.059440 -0.000000 2.821522
v 0.042030 0.060104 2.803725
f 90 82 83
f 90 83 91
f 92 83 84
f 92 91 83
f 92 84 85
f 92 85 93
f 86 84 83
f 86 82 81
f 86 88 87
f 86 83 82
f 86 81 88
f 86 85 84
f 89 88 81
f 89 96 88
f 89 81 82
f 89 82 90
f 95 87 88
f 95 88 96
f 94 96 89
f 94 90 91
f 94 91 92
f 94 92 93
f 94 89 90
f 94 95 96
f 94 93 85
f 94 85 86
f 94 86 87
f 94 87 95
o BowString_6
usemtl cloth
v -0.012000 0.000000 0.060761
v -0.006000 -0.010392 0.060761
v 0.006000 -0.010392 0.060761
v 0.012000 -0.000000 0.060761
v 0.006000 0.010392 0.060761
v -0.006000 0.010392 0.060761
v -0.012000 0.000000 2.760761
v -0.006000 -0.010392 2.760761
v 0.006000 -0.010392 2.760761
v 0.012000 -0.000000 2.760761
v 0.006000 0.010392 2.760761
v -0.006000 0.010392 2.760761
f 104 97 98
f 104 103 97
f 104 98 99
f 104 99 105
f 101 97 102
f 101 100 99
f 101 98 97
f 101 99 98
f 106 99 100
f 106 105 99
f 106 100 101
f 106 101 107
f 108 103 104
f 108 105 106
f 108 104 105
f 108 106 107
f 108 102 97
f 108 97 103
f 108 101 102
f 108 107 101
o Grip_7
usemtl leather
v 0.360000 0.000000 1.210761
v 0.395147 -0.084853 1.210761
v 0.480000 -0.120000 1.210761
v 0.564853 -0.084853 1.210761
v 0.600000 -0.000000 1.210761
v 0.564853 0.084853 1.210761
v 0.480000 0.120000 1.210761
v 0.395147 0.084853 1.210761
v 0.360000 0.000000 1.610761
v 0.395147 -0.084853 1.610761
v 0.480000 -0.120000 1.610761
v 0.564853 -0.084853 1.610761
v 0.600000 -0.000000 1.610761
v 0.564853 0.084853 1.610761
v 0.480000 0.120000 1.610761
v 0.395147 0.084853 1.610761
f 118 109 110
f 118 117 109
f 114 110 109
f 114 113 112
f 114 109 116
f 114 111 110
f 114 112 111
f 114 116 115
f 121 112 113
f 121 120 112
f 121 113 114
f 121 114 122
f 124 116 109
f 124 109 117
f 119 111 112
f 119 112 120
f 119 110 111
f 119 118 110
f 123 120 121
f 123 117 118
f 123 124 117
f 123 121 122
f 123 119 120
f 123 118 119
f 123 122 114
f 123 114 115
f 123 115 116
f 123 116 124
o Arrow_8
usemtl woodlight
v -0.400000 -0.127000 1.410761
v -0.400000 -0.119092 1.391669
v -0.400000 -0.100000 1.383761
v -0.400000 -0.080908 1.391669
v -0.400000 -0.073000 1.410761
v -0.400000 -0.080908 1.429853
v -0.400000 -0.100000 1.437761
v -0.400000 -0.119092 1.429853
v 1.350000 -0.127000 1.410761
v 1.350000 -0.119092 1.391669
v 1.350000 -0.100000 1.383761
v 1.350000 -0.080908 1.391669
v 1.350000 -0.073000 1.410761
v 1.350000 -0.080908 1.429853
v 1.350000 -0.100000 1.437761
v 1.350000 -0.119092 1.429853
f 134 125 126
f 134 133 125
f 130 126 125
f 130 129 128
f 130 125 132
f 130 127 126
f 130 128 127
f 130 132 131
f 137 128 129
f 137 136 128
f 137 129 130
f 137 130 138
f 140 132 125
f 140 125 133
f 135 127 128
f 135 128 136
f 135 126 127
f 135 134 126
f 139 136 137
f 139 133 134
f 139 140 133
f 139 137 138
f 139 135 136
f 139 134 135
f 139 138 130
f 139 130 131
f 139 131 132
f 139 132 140
o Arrowhead_9
usemtl edge
v 1.350000 -0.100000 1.358761
v 1.350000 -0.054967 1.384761
v 1.350000 -0.054967 1.436761
v 1.350000 -0.100000 1.462761
v 1.350000 -0.145033 1.436761
v 1.350000 -0.145033 1.384761
v 1.512500 -0.100000 1.330761
v 1.512500 -0.030718 1.370761
v 1.512500 -0.030718 1.450761
v 1.512500 -0.100000 1.490761
v 1.512500 -0.169282 1.450761
v 1.512500 -0.169282 1.370761
v 1.600000 -0.100000 1.410761
f 153 152 147
f 148 153 147
f 151 153 150
f 151 152 153
f 149 150 153
f 149 153 148
f 146 141 147
f 146 147 152
f 146 152 151
f 146 151 145
f 144 145 151
f 144 151 150
f 143 144 150
f 143 150 149
f 142 146 145
f 142 141 146
f 142 145 144
f 142 144 143
f 142 147 141
f 142 148 147
f 142 143 149
f 142 149 148