{"asset":{"version":"2.0","generator":"RIFTBOUND procedural asset builder"},"scene":0,"scenes":[{"nodes":[0,1,2,3,4,5,6,7,8,9,10,11,12,13,14,15]}],"nodes":[{"name":"Oak_Handle_0","mesh":0,"translation":[2.0816681711721684e-18,1.115,-0.0]},{"name":"Leather_Grip_1","mesh":1,"translation":[3.469446951953614e-18,0.41500000000000015,-2.0816681711721684e-18]},{"name":"Grip_Binding_2","mesh":2,"translation":[5.551115123125783e-18,0.13699999999999996,4.163336342344337e-18]},{"name":"Grip_Binding_3","mesh":3,"translation":[5.551115123125783e-18,0.28700000000000003,4.163336342344337e-18]},{"name":"Grip_Binding_4","mesh":4,"translation":[5.551115123125783e-18,0.43699999999999994,4.163336342344337e-18]},{"name":"Grip_Binding_5","mesh":5,"translation":[5.551115123125783e-18,0.587,4.163336342344337e-18]},{"name":"Grip_Binding_6","mesh":6,"translation":[5.551115123125783e-18,0.7369999999999998,4.163336342344337e-18]},{"name":"Head_Socket_7","mesh":7,"translation":[2.3129646346357427e-18,2.0500000000000003,-2.3129646346357427e-18]},{"name":"Tapered_Pick_Tine_8","mesh":8,"translation":[-0.31,2.1350000000000002,1.734723475976807e-18]},{"name":"Tapered_Pick_Tine_9","mesh":9,"translation":[-0.6749999999999999,2.0349999999999997,5.782411586589357e-19]},{"name":"Tapered_Pick_Tine_10","mesh":10,"translation":[-0.9800000000000001,1.8150000000000002,5.421010862427522e-19]},{"name":"Tapered_Pick_Tine_11","mesh":11,"translation":[0.31,2.1350000000000002,-1.734723475976807e-18]},{"name":"Tapered_Pick_Tine_12","mesh":12,"translation":[0.6749999999999999,2.0349999999999997,-5.782411586589357e-19]},{"name":"Tapered_Pick_Tine_13","mesh":13,"translation":[0.9800000000000001,1.8150000000000002,-5.421010862427522e-19]},{"name":"Socket_Rivet_14","mesh":14,"translation":[2.6020852139652106e-18,2.06,0.18150000000000005]},{"name":"Rift_Inlay_15","mesh":15,"translation":[-5.782411586589357e-19,2.1699999999999995,0.167]}],"meshes":[{"name":"Oak_Handle_0","primitives":[{"attributes":{"POSITION":0,"NORMAL":1},"material":4}]},{"name":"Leather_Grip_1","primitives":[{"attributes":{"POSITION":2,"NORMAL":3},"material":12}]},{"name":"Grip_Binding_2","primitives":[{"attributes":{"POSITION":4,"NORMAL":5},"material":11}]},{"name":"Grip_Binding_3","primitives":[{"attributes":{"POSITION":6,"NORMAL":7},"material":11}]},{"name":"Grip_Binding_4","primitives":[{"attributes":{"POSITION":8,"NORMAL":9},"material":11}]},{"name":"Grip_Binding_5","primitives":[{"attributes":{"POSITION":10,"NORMAL":11},"material":11}]},{"name":"Grip_Binding_6","primitives":[{"attributes":{"POSITION":12,"NORMAL":13},"material":11}]},{"name":"Head_Socket_7","primitives":[{"attributes":{"POSITION":14,"NORMAL":15},"material":2}]},{"name":"Tapered_Pick_Tine_8","primitives":[{"attributes":{"POSITION":16,"NORMAL":17},"material":5}]},{"name":"Tapered_Pick_Tine_9","primitives":[{"attributes":{"POSITION":18,"NORMAL":19},"material":5}]},{"name":"Tapered_Pick_Tine_10","primitives":[{"attributes":{"POSITION":20,"NORMAL":21},"material":5}]},{"name":"Tapered_Pick_Tine_11","primitives":[{"attributes":{"POSITION":22,"NORMAL":23},"material":5}]},{"name":"Tapered_Pick_Tine_12","primitives":[{"attributes":{"POSITION":24,"NORMAL":25},"material":5}]},{"name":"Tapered_Pick_Tine_13","primitives":[{"attributes":{"POSITION":26,"NORMAL":27},"material":5}]},{"name":"Socket_Rivet_14","primitives":[{"attributes":{"POSITION":28,"NORMAL":29},"material":1}]},{"name":"Rift_Inlay_15","primitives":[{"attributes":{"POSITION":30,"NORMAL":31},"material":7}]}],"materials":[{"name":"stone","pbrMetallicRoughness":{"baseColorFactor":[0.05284162552287903,0.08464151072542946,0.11657577617857154,1],"metallicFactor":0,"roughnessFactor":0.8}},{"name":"edge","pbrMetallicRoughness":{"baseColorFactor":[0.18014428915439032,0.27583283346124515,0.31118049905798434,1],"metallicFactor":0,"roughnessFactor":0.8}},{"name":"dark","pbrMetallicRoughness":{"baseColorFactor":[0.009021491898012131,0.016988052089250045,0.03155139140022645,1],"metallicFactor":0,"roughnessFactor":0.8}},{"name":"wood","pbrMetallicRoughness":{"baseColorFactor":[0.1390224537347025,0.04943345755590796,0.02201299491933654,1],"metallicFactor":0,"roughnessFactor":0.8}},{"name":"woodlight","pbrMetallicRoughness":{"baseColorFactor":[0.36859092219748707,0.14497212559723088,0.042987010162657116,1],"metallicFactor":0,"roughnessFactor":0.8}},{"name":"copper","pbrMetallicRoughness":{"baseColorFactor":[0.6730490732809419,0.20835965596076741,0.05637409755197975,1],"metallicFactor":0.35,"roughnessFactor":0.8}},{"name":"gold","pbrMetallicRoughness":{"baseColorFactor":[0.9489649381781952,0.5174013674966733,0.12752977781342206,1],"metallicFactor":0.35,"roughnessFactor":0.8}},{"name":"rift","pbrMetallicRoughness":{"baseColorFactor":[0.051122050056493396,0.7969165429079781,0.5859729839496614,1],"metallicFactor":0,"roughnessFactor":0.8},"emissiveFactor":[0.017892717519772686,0.2789207900177923,0.20509054438238147]},{"name":"ice","pbrMetallicRoughness":{"baseColorFactor":[0.4704402453042184,1.0,0.8355277914608409,1],"metallicFactor":0,"roughnessFactor":0.8},"emissiveFactor":[0.16465408585647642,0.35,0.2924347270112943]},{"name":"moss","pbrMetallicRoughness":{"baseColorFactor":[0.05459227728176034,0.14799802298268516,0.06381487094867724,1],"metallicFactor":0,"roughnessFactor":0.8}},{"name":"bark","pbrMetallicRoughness":{"baseColorFactor":[0.06575388026033009,0.03423020656508195,0.020951131914781092,1],"metallicFactor":0,"roughnessFactor":0.8}},{"name":"cloth","pbrMetallicRoughness":{"baseColorFactor":[0.03994717100152558,0.10114516420959989,0.10363409665513738,1],"metallicFactor":0,"roughnessFactor":0.8}},{"name":"leather","pbrMetallicRoughness":{"baseColorFactor":[0.05818717747368544,0.020951131914781092,0.015175238159625197,1],"metallicFactor":0,"roughnessFactor":0.8}},{"name":"fire","pbrMetallicRoughness":{"baseColorFactor":[1.0,0.3157627437363971,0.04943345755590796,1],"metallicFactor":0,"roughnessFactor":0.8},"emissiveFactor":[0.35,0.11051696030773898,0.017301710144567783]}],"bufferViews":[{"buffer":0,"byteOffset":0,"byteLength":1296},{"buffer":0,"byteOffset":1296,"byteLength":1296},{"buffer":0,"byteOffset":2592,"byteLength":1296},{"buffer":0,"byteOffset":3888,"byteLength":1296},{"buffer":0,"byteOffset":5184,"byteLength":1296},{"buffer":0,"byteOffset":6480,"byteLength":1296},{"buffer":0,"byteOffset":7776,"byteLength":1296},{"buffer":0,"byteOffset":9072,"byteLength":1296},{"buffer":0,"byteOffset":10368,"byteLength":1296},{"buffer":0,"byteOffset":11664,"byteLength":1296},{"buffer":0,"byteOffset":12960,"byteLength":1296},{"buffer":0,"byteOffset":14256,"byteLength":1296},{"buffer":0,"byteOffset":15552,"byteLength":1296},{"buffer":0,"byteOffset":16848,"byteLength":1296},{"buffer":0,"byteOffset":18144,"byteLength":1584},{"buffer":0,"byteOffset":19728,"byteLength":1584},{"buffer":0,"byteOffset":21312,"byteLength":720},{"buffer":0,"byteOffset":22032,"byteLength":720},{"buffer":0,"byteOffset":22752,"byteLength":720},{"buffer":0,"byteOffset":23472,"byteLength":720},{"buffer":0,"byteOffset":24192,"byteLength":720},{"buffer":0,"byteOffset":24912,"byteLength":720},{"buffer":0,"byteOffset":25632,"byteLength":720},{"buffer":0,"byteOffset":26352,"byteLength":720},{"buffer":0,"byteOffset":27072,"byteLength":720},{"buffer":0,"byteOffset":27792,"byteLength":720},{"buffer":0,"byteOffset":28512,"byteLength":720},{"buffer":0,"byteOffset":29232,"byteLength":720},{"buffer":0,"byteOffset":29952,"byteLength":1008},{"buffer":0,"byteOffset":30960,"byteLength":1008},{"buffer":0,"byteOffset":31968,"byteLength":1584},{"buffer":0,"byteOffset":33552,"byteLength":1584}],"accessors":[{"bufferView":0,"componentType":5126,"count":108,"type":"VEC3","min":[-0.11500000208616257,-1.1150000095367432,-0.10937149822711945],"max":[0.11500000208616257,1.1150000095367432,0.10937149822711945]},{"bufferView":1,"componentType":5126,"count":108,"type":"VEC3","min":[-0.9510107636451721,-1.0,-0.9999518990516663],"max":[0.9510107636451721,1.0,0.9999518990516663]},{"bufferView":2,"componentType":5126,"count":108,"type":"VEC3","min":[-0.11800000071525574,-0.3149999976158142,-0.11222466826438904],"max":[0.11800000071525574,0.3149999976158142,0.11222466826438904]},{"bufferView":3,"componentType":5126,"count":108,"type":"VEC3","min":[-0.9510565400123596,-1.0,-1.0],"max":[0.9510565400123596,1.0,1.0]},{"bufferView":4,"componentType":5126,"count":108,"type":"VEC3","min":[-0.12399999797344208,-0.017000000923871994,-0.11793100833892822],"max":[0.12399999797344208,0.017000000923871994,0.11793100833892822]},{"bufferView":5,"componentType":5126,"count":108,"type":"VEC3","min":[-0.9510565400123596,-1.0,-1.0],"max":[0.9510565400123596,1.0,1.0]},{"bufferView":6,"componentType":5126,"count":108,"type":"VEC3","min":[-0.12399999797344208,-0.017000000923871994,-0.11793100833892822],"max":[0.12399999797344208,0.017000000923871994,0.11793100833892822]},{"bufferView":7,"componentType":5126,"count":108,"type":"VEC3","min":[-0.9510565400123596,-1.0,-1.0],"max":[0.9510565400123596,1.0,1.0]},{"bufferView":8,"componentType":5126,"count":108,"type":"VEC3","min":[-0.12399999797344208,-0.017000000923871994,-0.11793100833892822],"max":[0.12399999797344208,0.017000000923871994,0.11793100833892822]},{"bufferView":9,"componentType":5126,"count":108,"type":"VEC3","min":[-0.9510565400123596,-1.0,-1.0],"max":[0.9510565400123596,1.0,1.0]},{"bufferView":10,"componentType":5126,"count":108,"type":"VEC3","min":[-0.12399999797344208,-0.017000000923871994,-0.11793100833892822],"max":[0.12399999797344208,0.017000000923871994,0.11793100833892822]},{"bufferView":11,"componentType":5126,"count":108,"type":"VEC3","min":[-0.9510565400123596,-1.0,-1.0],"max":[0.9510565400123596,1.0,1.0]},{"bufferView":12,"componentType":5126,"count":108,"type":"VEC3","min":[-0.12399999797344208,-0.017000000923871994,-0.11793100833892822],"max":[0.12399999797344208,0.017000000923871994,0.11793100833892822]},{"bufferView":13,"componentType":5126,"count":108,"type":"VEC3","min":[-0.9510565400123596,-1.0,-1.0],"max":[0.9510565400123596,1.0,1.0]},{"bufferView":14,"componentType":5126,"count":132,"type":"VEC3","min":[-0.17499999701976776,-0.1899999976158142,-0.1599999964237213],"max":[0.17499999701976776,0.1899999976158142,0.1599999964237213]},{"bufferView":15,"componentType":5126,"count":132,"type":"VEC3","min":[-1.0,-1.0,-1.0],"max":[1.0,1.0,1.0]},{"bufferView":16,"componentType":5126,"count":60,"type":"VEC3","min":[-0.2074485421180725,-0.1143139898777008,-0.14499999582767487],"max":[0.20939165353775024,0.1402219831943512,0.14499999582767487]},{"bufferView":17,"componentType":5126,"count":60,"type":"VEC3","min":[-0.997199296951294,-0.9999482035636902,-0.8642145395278931],"max":[0.997199296951294,0.9902801513671875,0.8642145395278931]},{"bufferView":18,"componentType":5126,"count":60,"type":"VEC3","min":[-0.19077913463115692,-0.13504184782505035,-0.11500000208616257],"max":[0.21060922741889954,0.1735355705022812,0.11500000208616257]},{"bufferView":19,"componentType":5126,"count":60,"type":"VEC3","min":[-0.8889745473861694,-0.936047375202179,-0.8601930141448975],"max":[0.8889745473861694,0.8299278020858765,0.8601930141448975]},{"bufferView":20,"componentType":5126,"count":60,"type":"VEC3","min":[-0.14420796930789948,-0.1393638253211975,-0.06499999761581421],"max":[0.17907403409481049,0.17552122473716736,0.06499999761581421]},{"bufferView":21,"componentType":5126,"count":60,"type":"VEC3","min":[-0.7806100249290466,-0.8028145432472229,-0.8588937520980835],"max":[0.7198442816734314,0.6941355466842651,0.8588937520980835]},{"bufferView":22,"componentType":5126,"count":60,"type":"VEC3","min":[-0.20939165353775024,-0.1143139898777008,-0.14499999582767487],"max":[0.2074485421180725,0.1402219831943512,0.14499999582767487]},{"bufferView":23,"componentType":5126,"count":60,"type":"VEC3","min":[-0.997199296951294,-0.9999482035636902,-0.8642145395278931],"max":[0.997199296951294,0.9902801513671875,0.8642145395278931]},{"bufferView":24,"componentType":5126,"count":60,"type":"VEC3","min":[-0.21060922741889954,-0.13504184782505035,-0.11500000208616257],"max":[0.19077913463115692,0.1735355705022812,0.11500000208616257]},{"bufferView":25,"componentType":5126,"count":60,"type":"VEC3","min":[-0.8889745473861694,-0.936047375202179,-0.8601930141448975],"max":[0.8889745473861694,0.8299278020858765,0.8601930141448975]},{"bufferView":26,"componentType":5126,"count":60,"type":"VEC3","min":[-0.17907403409481049,-0.1393638253211975,-0.06499999761581421],"max":[0.14420796930789948,0.17552122473716736,0.06499999761581421]},{"bufferView":27,"componentType":5126,"count":60,"type":"VEC3","min":[-0.7198442816734314,-0.8028145432472229,-0.8588937520980835],"max":[0.7806100249290466,0.6941355466842651,0.8588937520980835]},{"bufferView":28,"componentType":5126,"count":84,"type":"VEC3","min":[-0.04699999839067459,-0.04699999839067459,-0.010499999858438969],"max":[0.04699999839067459,0.04699999839067459,0.010499999858438969]},{"bufferView":29,"componentType":5126,"count":84,"type":"VEC3","min":[-0.9238795042037964,-0.9238795042037964,-1.0],"max":[0.9238795042037964,0.9238795042037964,1.0]},{"bufferView":30,"componentType":5126,"count":132,"type":"VEC3","min":[-0.04500000178813934,-0.05000000074505806,-0.009999999776482582],"max":[0.04500000178813934,0.05000000074505806,0.009999999776482582]},{"bufferView":31,"componentType":5126,"count":132,"type":"VEC3","min":[-1.0,-1.0,-1.0],"max":[1.0,1.0,1.0]}],"buffers":[{"byteLength":35136,"uri":"Copper_Pickaxe.bin"}]}